<svg width="86" height="86" viewBox="0 0 86 86" fill="none" xmlns="http://www.w3.org/2000/svg">
<g clip-path="url(#clip0_1284_175851)">
<path d="M26.7402 70.7863C27.8802 76.2763 34.6002 80.4863 42.7102 80.4863C50.8202 80.4863 57.7902 76.1163 58.7402 70.4863" stroke="#202020" stroke-width="1.5" stroke-linecap="round" stroke-linejoin="round"/>
<path d="M60.7402 72.4863L58.8202 69.4863L55.7402 72.0063" stroke="#202020" stroke-width="1.5" stroke-linecap="round" stroke-linejoin="round"/>
<path d="M60.7402 20.1863C59.6002 14.6963 52.8802 10.4863 44.7702 10.4863C36.6602 10.4863 29.6902 14.8563 28.7402 20.4863" stroke="#202020" stroke-width="1.5" stroke-linecap="round" stroke-linejoin="round"/>
<path d="M26.7402 18.4863L28.6602 21.4863L31.7402 18.9663" stroke="#202020" stroke-width="1.5" stroke-linecap="round" stroke-linejoin="round"/>
<path d="M35.0903 27.4863L27.5703 38.8663C27.1103 39.5563 26.2603 39.9063 25.3703 39.7763L14.8203 38.6963" stroke="#202020" stroke-width="1.5" stroke-linecap="round" stroke-linejoin="round"/>
<path d="M81.0901 58.9961L67.2001 28.8261C66.8301 28.0061 66.0701 27.4961 65.2301 27.4961H34.9801L14.8301 38.7061L5.49007 58.9861C4.74007 60.6161 5.81007 62.5361 7.46007 62.5361H79.1201C80.7601 62.5461 81.8401 60.6161 81.0901 58.9961Z" stroke="#202020" stroke-width="1.5" stroke-linecap="round" stroke-linejoin="round"/>
</g>
<defs>
<clipPath id="clip0_1284_175851">
<rect width="77.58" height="71.5" fill="white" transform="translate(4.5 9.73633)"/>
</clipPath>
</defs>
</svg>
