<svg width="320" height="281" viewBox="0 0 320 281" fill="none" xmlns="http://www.w3.org/2000/svg">
<g clip-path="url(#clip0_1284_179287)">
<path d="M64.2051 74.9141C64.2051 76.1747 65.0196 77.3754 66.6485 78.3359L182.696 144.852C185.984 146.743 191.323 146.713 194.581 144.852L250.961 112.254C252.59 111.294 253.404 110.063 253.404 108.832" stroke="black" stroke-width="0.7" stroke-linecap="round" stroke-linejoin="round"/>
<path d="M64.2051 78.1865C64.2051 79.4472 65.0196 80.6479 66.6485 81.6084L69.1522 83.0492C79.6499 89.3826 85.4115 94.6054 94.8836 99.8283C104.356 105.051 112.892 108.173 124.657 114.866C135.155 121.2 140.916 126.423 150.388 131.646C159.86 136.868 168.397 139.99 180.162 146.684L182.666 148.125C185.954 150.016 191.293 149.986 194.551 148.125L252.167 114.806C253.796 113.846 254.611 112.615 254.611 111.385" stroke="#999999" stroke-width="0.15" stroke-linecap="round" stroke-linejoin="round"/>
<path d="M64.2051 82.209C64.2051 83.4697 65.0196 84.6703 66.6485 85.6308L69.1522 87.0716C79.6499 93.4051 85.4115 98.6279 94.8836 103.851C104.356 109.074 112.892 112.195 124.657 118.889C135.155 125.222 140.916 130.445 150.388 135.668C159.86 140.891 168.397 144.013 180.162 150.706L182.666 152.147C185.954 154.038 191.293 154.008 194.551 152.147L252.167 118.829C253.796 117.868 254.611 116.638 254.611 115.407" stroke="#999999" stroke-width="0.15" stroke-linecap="round" stroke-linejoin="round"/>
<path d="M64.2051 86.2012C64.2051 87.4619 65.0196 88.6625 66.6485 89.623L69.1522 91.0638C79.6499 97.3973 85.4115 102.62 94.8836 107.843C104.356 113.066 112.892 116.187 124.657 122.881C135.155 129.215 140.916 134.437 150.388 139.66C159.86 144.883 168.397 148.005 180.162 154.698L182.666 156.139C185.954 158.03 191.293 158 194.551 156.139L252.167 122.821C253.796 121.861 254.611 120.63 254.611 119.399" stroke="#999999" stroke-width="0.15" stroke-linecap="round" stroke-linejoin="round"/>
<path d="M64.2051 90.2227C64.2051 91.4833 65.0196 92.684 66.6485 93.6445L69.1522 95.0853C79.6499 101.419 85.4115 106.642 94.8836 111.864C104.356 117.087 112.892 120.209 124.657 126.903C135.155 133.236 140.916 138.459 150.388 143.682C159.86 148.905 168.397 152.026 180.162 158.72L182.666 160.161C185.954 162.052 191.293 162.022 194.551 160.161L252.167 126.843C253.796 125.882 254.611 124.651 254.611 123.421" stroke="#999999" stroke-width="0.15" stroke-linecap="round" stroke-linejoin="round"/>
<path d="M64.2051 94.2148C64.2051 95.4755 65.0196 96.6762 66.6485 97.6367L69.1522 99.0775C79.6499 105.411 85.4115 110.634 94.8836 115.857C104.356 121.079 112.892 124.201 124.657 130.895C135.155 137.228 140.916 142.451 150.388 147.674C159.86 152.897 168.397 156.018 180.162 162.712L182.666 164.153C185.954 166.044 191.293 166.014 194.551 164.153L252.167 130.835C253.796 129.874 254.611 128.644 254.611 127.413" stroke="#999999" stroke-width="0.15" stroke-linecap="round" stroke-linejoin="round"/>
<path d="M64.2051 98.2373C64.2051 99.498 65.0196 100.699 66.6485 101.659L69.1522 103.1C79.6499 109.433 85.4115 114.656 94.8836 119.879C104.356 125.102 112.892 128.224 124.657 134.917C135.155 141.251 140.916 146.474 150.388 151.696C159.86 156.919 168.397 160.041 180.162 166.735L182.666 168.175C185.954 170.066 191.293 170.036 194.551 168.175L252.167 134.857C253.796 133.897 254.611 132.666 254.611 131.435" stroke="#999999" stroke-width="0.15" stroke-linecap="round" stroke-linejoin="round"/>
<path d="M64.2051 102.229C64.2051 103.49 65.0196 104.691 66.6485 105.651L69.1522 107.092C79.6499 113.426 85.4115 118.648 94.8836 123.871C104.356 129.094 112.892 132.216 124.657 138.909C135.155 145.243 140.916 150.466 150.388 155.689C159.86 160.911 168.397 164.033 180.162 170.727L182.666 172.168C185.954 174.059 191.293 174.029 194.551 172.168L252.167 138.849C253.796 137.889 254.611 136.658 254.611 135.428" stroke="#999999" stroke-width="0.15" stroke-linecap="round" stroke-linejoin="round"/>
<path d="M64.2051 106.252C64.2051 107.513 65.0196 108.713 66.6485 109.674L69.1522 111.115C79.6499 117.448 85.4115 122.671 94.8836 127.894C104.356 133.117 112.892 136.238 124.657 142.932C135.155 149.265 140.916 154.488 150.388 159.711C159.86 164.934 168.397 168.056 180.162 174.749L182.666 176.19C185.954 178.081 191.293 178.051 194.551 176.19L252.167 142.872C253.796 141.911 254.611 140.681 254.611 139.45" stroke="#999999" stroke-width="0.15" stroke-linecap="round" stroke-linejoin="round"/>
<path d="M64.2051 110.244C64.2051 111.505 65.0196 112.705 66.6485 113.666L69.1522 115.107C79.6499 121.44 85.4115 126.663 94.8836 131.886C104.356 137.109 112.892 140.23 124.657 146.924C135.155 153.258 140.916 158.48 150.388 163.703C159.86 168.926 168.397 172.048 180.162 178.741L182.666 180.182C185.954 182.073 191.293 182.043 194.551 180.182L252.167 146.864C253.796 145.904 254.611 144.673 254.611 143.442" stroke="#999999" stroke-width="0.15" stroke-linecap="round" stroke-linejoin="round"/>
<path d="M64.2051 114.267C64.2051 115.527 65.0196 116.728 66.6485 117.688L69.1522 119.129C79.6499 125.463 85.4115 130.686 94.8836 135.908C104.356 141.131 112.892 144.253 124.657 150.947C135.155 157.28 140.916 162.503 150.388 167.726C159.86 172.948 168.397 176.07 180.162 182.764L182.666 184.205C185.954 186.096 191.293 186.066 194.551 184.205L252.167 150.887C253.796 149.926 254.611 148.695 254.611 147.465" stroke="#999999" stroke-width="0.15" stroke-linecap="round" stroke-linejoin="round"/>
<path d="M64.2051 118.259C64.2051 119.519 65.0196 120.72 66.6485 121.681L69.1522 123.121C79.6499 129.455 85.4115 134.678 94.8836 139.901C104.356 145.123 112.892 148.245 124.657 154.939C135.155 161.272 140.916 166.495 150.388 171.718C159.86 176.941 168.397 180.062 180.162 186.756L182.666 188.197C185.954 190.088 191.293 190.058 194.551 188.197L252.167 154.879C253.796 153.918 254.611 152.687 254.611 151.457" stroke="#999999" stroke-width="0.15" stroke-linecap="round" stroke-linejoin="round"/>
<path d="M64.2051 122.28C64.2051 123.541 65.0196 124.742 66.6485 125.702L69.1522 127.143C79.6499 133.476 85.4115 138.699 94.8836 143.922C104.356 149.145 112.892 152.267 124.657 158.96C135.155 165.294 140.916 170.516 150.388 175.739C159.86 180.962 168.397 184.084 180.162 190.778L182.666 192.218C185.954 194.109 191.293 194.079 194.551 192.218L252.167 158.9C253.796 157.94 254.611 156.709 254.611 155.478" stroke="#999999" stroke-width="0.15" stroke-linecap="round" stroke-linejoin="round"/>
<path d="M64.2051 126.272C64.2051 127.533 65.0196 128.734 66.6485 129.694L69.1522 131.135C79.6499 137.469 85.4115 142.691 94.8836 147.914C104.356 153.137 112.892 156.259 124.657 162.952C135.155 169.286 140.916 174.509 150.388 179.732C159.86 184.954 168.397 188.076 180.162 194.77L182.666 196.21C185.954 198.102 191.293 198.071 194.551 196.21L252.167 162.892C253.796 161.932 254.611 160.701 254.611 159.471" stroke="#999999" stroke-width="0.15" stroke-linecap="round" stroke-linejoin="round"/>
<path d="M64.2051 130.295C64.2051 131.556 65.0196 132.756 66.6485 133.717L69.1522 135.158C79.6499 141.491 85.4115 146.714 94.8836 151.937C104.356 157.16 112.892 160.281 124.657 166.975C135.155 173.308 140.916 178.531 150.388 183.754C159.86 188.977 168.397 192.099 180.162 198.792L182.666 200.233C185.954 202.124 191.293 202.094 194.551 200.233L252.167 166.915C253.796 165.954 254.611 164.724 254.611 163.493" stroke="#999999" stroke-width="0.15" stroke-linecap="round" stroke-linejoin="round"/>
<path d="M64.2051 134.287C64.2051 135.548 65.0196 136.748 66.6485 137.709L69.1522 139.15C79.6499 145.483 85.4115 150.706 94.8836 155.929C104.356 161.152 112.892 164.273 124.657 170.967C135.155 177.3 140.916 182.523 150.388 187.746C159.86 192.969 168.397 196.091 180.162 202.784L182.666 204.225C185.954 206.116 191.293 206.086 194.551 204.225L252.167 170.907C253.796 169.946 254.611 168.716 254.611 167.485" stroke="black" stroke-width="0.15" stroke-linecap="round" stroke-linejoin="round"/>
<path d="M64.2051 138.31C64.2051 139.57 65.0196 140.771 66.6485 141.731L69.1522 143.172C79.6499 149.506 85.4115 154.728 94.8836 159.951C104.356 165.174 112.892 168.296 124.657 174.989C135.155 181.323 140.916 186.546 150.388 191.769C159.86 196.991 168.397 200.113 180.162 206.807L182.666 208.248C185.954 210.139 191.293 210.109 194.551 208.248L252.167 174.929C253.796 173.969 254.611 172.738 254.611 171.508" stroke="#999999" stroke-width="0.15" stroke-linecap="round" stroke-linejoin="round"/>
<path d="M64.2051 142.302C64.2051 143.562 65.0196 144.763 66.6485 145.724L69.1522 147.164C79.6499 153.498 85.4115 158.721 94.8836 163.944C104.356 169.166 112.892 172.288 124.657 178.982C135.155 185.315 140.916 190.538 150.388 195.761C159.86 200.984 168.397 204.105 180.162 210.799L182.666 212.24C185.954 214.131 191.293 214.101 194.551 212.24L252.167 178.922C253.796 177.961 254.611 176.73 254.611 175.5" stroke="#999999" stroke-width="0.15" stroke-linecap="round" stroke-linejoin="round"/>
<path d="M63.2695 143.682C63.2695 146.653 64.3857 149.415 68.3374 151.696L182.695 217.252C185.984 219.143 191.323 219.113 194.581 217.252L248.969 185.765C253.766 183.003 254.731 178.32 254.731 174.689V114.056C254.731 109.763 253.374 105.231 247.672 101.989L135.305 37.544C132.047 35.6529 126.678 35.683 123.42 37.574L69.363 68.851C64.2348 71.8226 63.2695 75.1844 63.2695 79.0866V143.682Z" stroke="black" stroke-linecap="round" stroke-linejoin="round"/>
<path d="M170.599 57.7754L101.037 97.9973" stroke="black" stroke-width="0.5" stroke-linecap="round" stroke-linejoin="round"/>
<path d="M100.856 59.3352L101.671 58.8849L100.404 56.9639L99.6497 57.3541L100.736 58.7949L98.2621 58.1945L97.5381 58.6148L100.856 59.3352Z" fill="#808080"/>
<path d="M103.541 56.244C103.541 56.244 103.179 55.9738 103.33 55.7037C103.39 55.6136 103.481 55.5236 103.632 55.4335C103.752 55.3435 103.933 55.2835 104.054 55.2534C104.567 55.1634 104.959 55.3435 105.019 55.3735L103.541 56.214V56.244ZM105.08 54.7732C104.868 54.7732 104.537 54.7732 104.114 54.8632C103.782 54.9533 103.481 55.0733 103.209 55.2234C102.787 55.4636 102.636 55.6437 102.606 55.6737C102.516 55.7637 102.335 55.9738 102.395 56.214C102.455 56.4241 102.666 56.6342 102.938 56.7843C103.209 56.9344 103.571 57.0544 103.933 57.0844C104.597 57.1145 105.23 56.8443 105.653 56.6042C106.075 56.334 106.256 56.1839 106.316 56.0939C106.648 55.7037 106.407 55.4335 106.377 55.3735L105.592 55.8238C105.592 55.8238 105.653 55.9438 105.592 56.1239C105.532 56.214 105.442 56.304 105.321 56.3941C105.08 56.5141 104.748 56.6342 104.295 56.5742C104.205 56.5441 104.084 56.5141 103.963 56.4541L106.196 55.1634C106.196 55.1634 106.045 55.0733 105.985 55.0433C105.804 54.9533 105.502 54.7732 105.08 54.7432" fill="#808080"/>
<path d="M93.5259 60.9263L95.0945 61.7968L92.3192 61.6167L91.4746 62.127L93.7672 63.4477L94.2499 63.1776L94.2197 62.9374L92.9226 62.187L95.6676 62.3671L96.5123 61.8568L94.1895 60.5361L93.5259 60.9263Z" fill="#808080"/>
<path d="M107.341 52.942L108.88 53.8124L106.135 53.6624L105.29 54.1426L107.583 55.4633L108.065 55.1932L108.035 54.9531L106.708 54.2027L109.483 54.3527L110.328 53.9025L108.005 52.5518L107.341 52.942Z" fill="#808080"/>
<path d="M103.45 57.8346L103.42 57.6245L101.338 56.4238L100.675 56.814L102.967 58.1348L103.45 57.8346Z" fill="#808080"/>
<path d="M98.111 59.8753C98.5032 60.1154 98.292 60.5057 97.8697 60.7158C97.5379 60.8959 97.206 60.9259 96.9949 60.8058C96.8742 60.7158 96.844 60.7158 96.844 60.6858C96.8139 60.5657 97.0854 60.3856 97.0854 60.3856C97.0854 60.3856 97.5077 60.1154 97.6887 59.9654C97.8093 59.8753 97.8697 59.8153 97.8998 59.7553L98.111 59.8753ZM98.0205 59.0649C97.8395 58.9448 97.4172 58.8247 96.6631 59.1249C96.4519 59.215 96.2407 59.305 96.0296 59.4251C95.3358 59.8153 95.1246 60.1455 95.2151 60.3856C95.2453 60.4756 95.3056 60.5357 95.3961 60.5957L96.0899 60.2055C95.8184 59.9954 96.1502 59.7853 96.3614 59.6652C96.8139 59.3951 97.1457 59.335 97.3569 59.4551C97.5982 59.6052 97.4172 59.7252 97.025 59.9954C96.4821 60.3556 96.2407 60.5357 96.1502 60.6557C95.9391 60.9259 95.9391 61.046 96.3011 61.2561C96.5424 61.4062 96.9044 61.4962 97.4474 61.3461C97.8093 61.2261 98.3222 60.9559 98.5333 60.7158C98.7445 60.4756 98.7445 60.3556 98.7445 60.2355L99.0461 60.4156L99.5288 60.1455V59.9053L98.0205 59.0649Z" fill="#808080"/>
<path d="M155.275 94.4248C155.275 88.5116 163.782 83.709 174.28 83.709C184.777 83.709 193.284 88.5116 193.284 94.4248V100.518C193.284 106.431 184.777 111.234 174.28 111.234C163.782 111.234 155.306 106.431 155.306 100.518V94.4248H155.275Z" stroke="black" stroke-width="0.5" stroke-linecap="round" stroke-linejoin="round"/>
<path d="M140.283 98.7468C140.283 88.1811 155.487 79.5664 174.25 79.5664C193.013 79.5664 208.277 88.1811 208.277 98.7468C208.277 109.313 193.043 117.927 174.25 117.927C155.457 117.927 140.283 109.313 140.283 98.7468Z" stroke="#999999" stroke-width="0.3" stroke-linecap="round" stroke-linejoin="round"/>
<path d="M133.737 44.1171C133.737 45.4378 131.837 46.5184 129.484 46.5184C127.131 46.5184 125.23 45.4378 125.23 44.1171C125.23 42.7964 127.131 41.7158 129.484 41.7158C131.837 41.7158 133.737 42.7964 133.737 44.1171Z" stroke="black" stroke-width="0.5" stroke-linecap="round" stroke-linejoin="round"/>
<path d="M193.284 94.4248C193.284 100.308 184.778 105.141 174.28 105.141C163.782 105.141 155.306 100.338 155.306 94.4248" stroke="black" stroke-width="0.3" stroke-linecap="round" stroke-linejoin="round"/>
</g>
<path d="M270.464 159.805H269.204V154.117C269.204 153.917 269.204 153.733 269.204 153.565C269.212 153.389 269.22 153.221 269.228 153.061C269.236 152.893 269.244 152.733 269.252 152.581C269.148 152.685 269.04 152.785 268.928 152.881C268.816 152.977 268.688 153.089 268.544 153.217L267.608 153.973L266.96 153.157L269.408 151.237H270.464V159.805ZM276.047 151.117C276.551 151.117 276.999 151.197 277.391 151.357C277.783 151.509 278.091 151.737 278.315 152.041C278.547 152.345 278.663 152.725 278.663 153.181C278.663 153.525 278.591 153.825 278.447 154.081C278.303 154.337 278.111 154.565 277.871 154.765C277.631 154.957 277.363 155.125 277.067 155.269C277.403 155.437 277.711 155.629 277.991 155.845C278.279 156.053 278.507 156.297 278.675 156.577C278.851 156.857 278.939 157.193 278.939 157.585C278.939 158.065 278.819 158.481 278.579 158.833C278.347 159.177 278.015 159.445 277.583 159.637C277.151 159.829 276.647 159.925 276.071 159.925C275.455 159.925 274.927 159.833 274.487 159.649C274.055 159.465 273.727 159.205 273.503 158.869C273.279 158.525 273.167 158.109 273.167 157.621C273.167 157.229 273.247 156.889 273.407 156.601C273.567 156.313 273.779 156.065 274.043 155.857C274.307 155.649 274.595 155.473 274.907 155.329C274.635 155.169 274.387 154.989 274.163 154.789C273.939 154.581 273.763 154.345 273.635 154.081C273.507 153.817 273.443 153.513 273.443 153.169C273.443 152.721 273.559 152.349 273.791 152.053C274.023 151.749 274.335 151.517 274.727 151.357C275.127 151.197 275.567 151.117 276.047 151.117ZM274.391 157.597C274.391 157.989 274.527 158.313 274.799 158.569C275.071 158.817 275.487 158.941 276.047 158.941C276.415 158.941 276.719 158.885 276.959 158.773C277.207 158.653 277.395 158.493 277.523 158.293C277.651 158.085 277.715 157.849 277.715 157.585C277.715 157.321 277.643 157.089 277.499 156.889C277.363 156.689 277.171 156.513 276.923 156.361C276.683 156.201 276.403 156.057 276.083 155.929L275.903 155.857C275.575 155.993 275.299 156.145 275.075 156.313C274.851 156.481 274.679 156.669 274.559 156.877C274.447 157.085 274.391 157.325 274.391 157.597ZM276.035 152.113C275.643 152.113 275.315 152.209 275.051 152.401C274.795 152.593 274.667 152.873 274.667 153.241C274.667 153.505 274.731 153.729 274.859 153.913C274.987 154.097 275.159 154.257 275.375 154.393C275.591 154.521 275.827 154.645 276.083 154.765C276.339 154.653 276.567 154.533 276.767 154.405C276.967 154.269 277.127 154.109 277.247 153.925C277.367 153.733 277.427 153.505 277.427 153.241C277.427 152.873 277.299 152.593 277.043 152.401C276.787 152.209 276.451 152.113 276.035 152.113ZM282.638 154.489C283.206 154.489 283.702 154.589 284.126 154.789C284.55 154.989 284.878 155.277 285.11 155.653C285.35 156.029 285.47 156.489 285.47 157.033C285.47 157.633 285.342 158.149 285.086 158.581C284.83 159.013 284.458 159.345 283.97 159.577C283.49 159.809 282.902 159.925 282.206 159.925C281.766 159.925 281.35 159.885 280.958 159.805C280.566 159.725 280.234 159.609 279.962 159.457V158.293C280.25 158.461 280.598 158.597 281.006 158.701C281.422 158.805 281.818 158.857 282.194 158.857C282.602 158.857 282.95 158.797 283.238 158.677C283.534 158.549 283.762 158.361 283.922 158.113C284.09 157.857 284.174 157.537 284.174 157.153C284.174 156.633 284.01 156.237 283.682 155.965C283.362 155.685 282.854 155.545 282.158 155.545C281.934 155.545 281.682 155.565 281.402 155.605C281.13 155.645 280.91 155.685 280.742 155.725L280.154 155.377L280.478 151.237H284.882V152.365H281.582L281.39 154.609C281.526 154.585 281.698 154.561 281.906 154.537C282.114 154.505 282.358 154.489 282.638 154.489ZM294.126 153.217C294.854 153.217 295.402 153.405 295.77 153.781C296.138 154.157 296.322 154.761 296.322 155.593V159.805H295.05V155.761C295.05 155.265 294.95 154.893 294.75 154.645C294.558 154.389 294.254 154.261 293.838 154.261C293.262 154.261 292.85 154.441 292.602 154.801C292.354 155.153 292.23 155.665 292.23 156.337V159.805H290.97V155.761C290.97 155.433 290.922 155.157 290.826 154.933C290.738 154.709 290.606 154.541 290.43 154.429C290.254 154.317 290.026 154.261 289.746 154.261C289.346 154.261 289.03 154.349 288.798 154.525C288.566 154.701 288.398 154.961 288.294 155.305C288.198 155.641 288.15 156.053 288.15 156.541V159.805H286.878V153.337H287.886L288.066 154.201H288.138C288.274 153.977 288.438 153.793 288.63 153.649C288.83 153.505 289.05 153.397 289.29 153.325C289.53 153.253 289.778 153.217 290.034 153.217C290.522 153.217 290.934 153.305 291.27 153.481C291.606 153.649 291.85 153.909 292.002 154.261H292.098C292.306 153.901 292.594 153.637 292.962 153.469C293.33 153.301 293.718 153.217 294.126 153.217ZM305.276 153.217C306.004 153.217 306.552 153.405 306.92 153.781C307.288 154.157 307.472 154.761 307.472 155.593V159.805H306.2V155.761C306.2 155.265 306.1 154.893 305.9 154.645C305.708 154.389 305.404 154.261 304.988 154.261C304.412 154.261 304 154.441 303.752 154.801C303.504 155.153 303.38 155.665 303.38 156.337V159.805H302.12V155.761C302.12 155.433 302.072 155.157 301.976 154.933C301.888 154.709 301.756 154.541 301.58 154.429C301.404 154.317 301.176 154.261 300.896 154.261C300.496 154.261 300.18 154.349 299.948 154.525C299.716 154.701 299.548 154.961 299.444 155.305C299.348 155.641 299.3 156.053 299.3 156.541V159.805H298.028V153.337H299.036L299.216 154.201H299.288C299.424 153.977 299.588 153.793 299.78 153.649C299.98 153.505 300.2 153.397 300.44 153.325C300.68 153.253 300.928 153.217 301.184 153.217C301.672 153.217 302.084 153.305 302.42 153.481C302.756 153.649 303 153.909 303.152 154.261H303.248C303.456 153.901 303.744 153.637 304.112 153.469C304.48 153.301 304.868 153.217 305.276 153.217Z" fill="#A6A5A3"/>
<path d="M226.464 227.805H225.204V222.117C225.204 221.917 225.204 221.733 225.204 221.565C225.212 221.389 225.22 221.221 225.228 221.061C225.236 220.893 225.244 220.733 225.252 220.581C225.148 220.685 225.04 220.785 224.928 220.881C224.816 220.977 224.688 221.089 224.544 221.217L223.608 221.973L222.96 221.157L225.408 219.237H226.464V227.805ZM230.175 227.805L233.595 220.365H229.095V219.237H234.963V220.149L231.555 227.805H230.175ZM238.638 222.489C239.206 222.489 239.702 222.589 240.126 222.789C240.55 222.989 240.878 223.277 241.11 223.653C241.35 224.029 241.47 224.489 241.47 225.033C241.47 225.633 241.342 226.149 241.086 226.581C240.83 227.013 240.458 227.345 239.97 227.577C239.49 227.809 238.902 227.925 238.206 227.925C237.766 227.925 237.35 227.885 236.958 227.805C236.566 227.725 236.234 227.609 235.962 227.457V226.293C236.25 226.461 236.598 226.597 237.006 226.701C237.422 226.805 237.818 226.857 238.194 226.857C238.602 226.857 238.95 226.797 239.238 226.677C239.534 226.549 239.762 226.361 239.922 226.113C240.09 225.857 240.174 225.537 240.174 225.153C240.174 224.633 240.01 224.237 239.682 223.965C239.362 223.685 238.854 223.545 238.158 223.545C237.934 223.545 237.682 223.565 237.402 223.605C237.13 223.645 236.91 223.685 236.742 223.725L236.154 223.377L236.478 219.237H240.882V220.365H237.582L237.39 222.609C237.526 222.585 237.698 222.561 237.906 222.537C238.114 222.505 238.358 222.489 238.638 222.489ZM250.126 221.217C250.854 221.217 251.402 221.405 251.77 221.781C252.138 222.157 252.322 222.761 252.322 223.593V227.805H251.05V223.761C251.05 223.265 250.95 222.893 250.75 222.645C250.558 222.389 250.254 222.261 249.838 222.261C249.262 222.261 248.85 222.441 248.602 222.801C248.354 223.153 248.23 223.665 248.23 224.337V227.805H246.97V223.761C246.97 223.433 246.922 223.157 246.826 222.933C246.738 222.709 246.606 222.541 246.43 222.429C246.254 222.317 246.026 222.261 245.746 222.261C245.346 222.261 245.03 222.349 244.798 222.525C244.566 222.701 244.398 222.961 244.294 223.305C244.198 223.641 244.15 224.053 244.15 224.541V227.805H242.878V221.337H243.886L244.066 222.201H244.138C244.274 221.977 244.438 221.793 244.63 221.649C244.83 221.505 245.05 221.397 245.29 221.325C245.53 221.253 245.778 221.217 246.034 221.217C246.522 221.217 246.934 221.305 247.27 221.481C247.606 221.649 247.85 221.909 248.002 222.261H248.098C248.306 221.901 248.594 221.637 248.962 221.469C249.33 221.301 249.718 221.217 250.126 221.217ZM261.276 221.217C262.004 221.217 262.552 221.405 262.92 221.781C263.288 222.157 263.472 222.761 263.472 223.593V227.805H262.2V223.761C262.2 223.265 262.1 222.893 261.9 222.645C261.708 222.389 261.404 222.261 260.988 222.261C260.412 222.261 260 222.441 259.752 222.801C259.504 223.153 259.38 223.665 259.38 224.337V227.805H258.12V223.761C258.12 223.433 258.072 223.157 257.976 222.933C257.888 222.709 257.756 222.541 257.58 222.429C257.404 222.317 257.176 222.261 256.896 222.261C256.496 222.261 256.18 222.349 255.948 222.525C255.716 222.701 255.548 222.961 255.444 223.305C255.348 223.641 255.3 224.053 255.3 224.541V227.805H254.028V221.337H255.036L255.216 222.201H255.288C255.424 221.977 255.588 221.793 255.78 221.649C255.98 221.505 256.2 221.397 256.44 221.325C256.68 221.253 256.928 221.217 257.184 221.217C257.672 221.217 258.084 221.305 258.42 221.481C258.756 221.649 259 221.909 259.152 222.261H259.248C259.456 221.901 259.744 221.637 260.112 221.469C260.48 221.301 260.868 221.217 261.276 221.217Z" fill="#A6A5A3"/>
<path d="M99.976 209.217C99.976 209.601 99.9 209.937 99.748 210.225C99.604 210.505 99.396 210.733 99.124 210.909C98.852 211.085 98.54 211.213 98.188 211.293V211.341C98.876 211.421 99.388 211.637 99.724 211.989C100.068 212.333 100.24 212.789 100.24 213.357C100.24 213.853 100.12 214.297 99.88 214.689C99.648 215.073 99.284 215.377 98.788 215.601C98.3 215.817 97.672 215.925 96.904 215.925C96.448 215.925 96.024 215.889 95.632 215.817C95.24 215.745 94.868 215.625 94.516 215.457V214.305C94.876 214.489 95.26 214.629 95.668 214.725C96.084 214.821 96.48 214.869 96.856 214.869C97.584 214.869 98.108 214.733 98.428 214.461C98.748 214.181 98.908 213.793 98.908 213.297C98.908 212.977 98.824 212.717 98.656 212.517C98.488 212.309 98.232 212.157 97.888 212.061C97.544 211.957 97.116 211.905 96.604 211.905H95.824V210.861H96.616C97.104 210.861 97.5 210.801 97.804 210.681C98.108 210.553 98.332 210.377 98.476 210.153C98.62 209.929 98.692 209.673 98.692 209.385C98.692 209.001 98.564 208.705 98.308 208.497C98.06 208.281 97.7 208.173 97.228 208.173C96.94 208.173 96.672 208.205 96.424 208.269C96.184 208.333 95.964 208.417 95.764 208.521C95.564 208.625 95.368 208.741 95.176 208.869L94.552 207.993C94.768 207.833 95.008 207.685 95.272 207.549C95.544 207.413 95.844 207.309 96.172 207.237C96.508 207.157 96.872 207.117 97.264 207.117C98.152 207.117 98.824 207.313 99.28 207.705C99.744 208.089 99.976 208.593 99.976 209.217ZM105.091 215.805H103.831V210.117C103.831 209.917 103.831 209.733 103.831 209.565C103.839 209.389 103.847 209.221 103.855 209.061C103.863 208.893 103.871 208.733 103.879 208.581C103.775 208.685 103.667 208.785 103.555 208.881C103.443 208.977 103.315 209.089 103.171 209.217L102.235 209.973L101.587 209.157L104.035 207.237H105.091V215.805ZM113.566 215.805H107.806V214.821L110.014 212.577C110.446 212.137 110.806 211.757 111.094 211.437C111.382 211.109 111.598 210.797 111.742 210.501C111.886 210.197 111.958 209.869 111.958 209.517C111.958 209.077 111.83 208.749 111.574 208.533C111.318 208.309 110.986 208.197 110.578 208.197C110.186 208.197 109.834 208.273 109.522 208.425C109.21 208.569 108.886 208.773 108.55 209.037L107.866 208.185C108.098 207.985 108.346 207.805 108.61 207.645C108.882 207.485 109.182 207.357 109.51 207.261C109.846 207.165 110.214 207.117 110.614 207.117C111.158 207.117 111.626 207.213 112.018 207.405C112.41 207.589 112.71 207.853 112.918 208.197C113.134 208.541 113.242 208.945 113.242 209.409C113.242 209.753 113.19 210.077 113.086 210.381C112.982 210.677 112.83 210.969 112.63 211.257C112.438 211.545 112.202 211.837 111.922 212.133C111.642 212.429 111.334 212.741 110.998 213.069L109.402 214.617V214.677H113.566V215.805ZM122.126 209.217C122.854 209.217 123.402 209.405 123.77 209.781C124.138 210.157 124.322 210.761 124.322 211.593V215.805H123.05V211.761C123.05 211.265 122.95 210.893 122.75 210.645C122.558 210.389 122.254 210.261 121.838 210.261C121.262 210.261 120.85 210.441 120.602 210.801C120.354 211.153 120.23 211.665 120.23 212.337V215.805H118.97V211.761C118.97 211.433 118.922 211.157 118.826 210.933C118.738 210.709 118.606 210.541 118.43 210.429C118.254 210.317 118.026 210.261 117.746 210.261C117.346 210.261 117.03 210.349 116.798 210.525C116.566 210.701 116.398 210.961 116.294 211.305C116.198 211.641 116.15 212.053 116.15 212.541V215.805H114.878V209.337H115.886L116.066 210.201H116.138C116.274 209.977 116.438 209.793 116.63 209.649C116.83 209.505 117.05 209.397 117.29 209.325C117.53 209.253 117.778 209.217 118.034 209.217C118.522 209.217 118.934 209.305 119.27 209.481C119.606 209.649 119.85 209.909 120.002 210.261H120.098C120.306 209.901 120.594 209.637 120.962 209.469C121.33 209.301 121.718 209.217 122.126 209.217ZM133.276 209.217C134.004 209.217 134.552 209.405 134.92 209.781C135.288 210.157 135.472 210.761 135.472 211.593V215.805H134.2V211.761C134.2 211.265 134.1 210.893 133.9 210.645C133.708 210.389 133.404 210.261 132.988 210.261C132.412 210.261 132 210.441 131.752 210.801C131.504 211.153 131.38 211.665 131.38 212.337V215.805H130.12V211.761C130.12 211.433 130.072 211.157 129.976 210.933C129.888 210.709 129.756 210.541 129.58 210.429C129.404 210.317 129.176 210.261 128.896 210.261C128.496 210.261 128.18 210.349 127.948 210.525C127.716 210.701 127.548 210.961 127.444 211.305C127.348 211.641 127.3 212.053 127.3 212.541V215.805H126.028V209.337H127.036L127.216 210.201H127.288C127.424 209.977 127.588 209.793 127.78 209.649C127.98 209.505 128.2 209.397 128.44 209.325C128.68 209.253 128.928 209.217 129.184 209.217C129.672 209.217 130.084 209.305 130.42 209.481C130.756 209.649 131 209.909 131.152 210.261H131.248C131.456 209.901 131.744 209.637 132.112 209.469C132.48 209.301 132.868 209.217 133.276 209.217Z" fill="#A6A5A3"/>
<defs>
<clipPath id="clip0_1284_179287">
<rect width="193" height="184" fill="white" transform="translate(62.5156 35.3828)"/>
</clipPath>
</defs>
</svg>
