<svg width="430" height="194" viewBox="0 0 430 194" fill="none" xmlns="http://www.w3.org/2000/svg">
<path d="M428.512 66.6837C429.065 66.6837 429.512 67.1314 429.512 67.6837C429.512 68.236 429.065 68.6837 428.512 68.6837V66.6837ZM56.9218 106.873C57.4741 106.873 57.9218 107.321 57.9218 107.873C57.9218 108.425 57.4741 108.873 56.9218 108.873V106.873ZM63.2186 108.873C62.6663 108.873 62.2186 108.425 62.2186 107.873C62.2186 107.321 62.6663 106.873 63.2186 106.873V108.873ZM69.5153 106.873C70.0676 106.873 70.5153 107.321 70.5153 107.873C70.5153 108.425 70.0676 108.873 69.5153 108.873V106.873ZM75.8121 108.873C75.2598 108.873 74.8121 108.425 74.8121 107.873C74.8121 107.321 75.2598 106.873 75.8121 106.873V108.873ZM82.1088 106.873C82.6611 106.873 83.1088 107.321 83.1088 107.873C83.1088 108.425 82.6611 108.873 82.1088 108.873V106.873ZM88.4056 108.873C87.8533 108.873 87.4056 108.425 87.4056 107.873C87.4056 107.321 87.8533 106.873 88.4056 106.873V108.873ZM94.7023 106.873C95.2546 106.873 95.7023 107.321 95.7023 107.873C95.7023 108.425 95.2546 108.873 94.7023 108.873V106.873ZM100.999 108.873C100.447 108.873 99.9991 108.425 99.9991 107.873C99.9991 107.321 100.447 106.873 100.999 106.873V108.873ZM107.296 106.873C107.848 106.873 108.296 107.321 108.296 107.873C108.296 108.425 107.848 108.873 107.296 108.873V106.873ZM113.593 108.873C113.04 108.873 112.593 108.425 112.593 107.873C112.593 107.321 113.04 106.873 113.593 106.873V108.873ZM119.889 106.873C120.442 106.873 120.889 107.321 120.889 107.873C120.889 108.425 120.442 108.873 119.889 108.873V106.873ZM126.186 108.873C125.634 108.873 125.186 108.425 125.186 107.873C125.186 107.321 125.634 106.873 126.186 106.873V108.873ZM132.483 106.873C133.035 106.873 133.483 107.321 133.483 107.873C133.483 108.425 133.035 108.873 132.483 108.873V106.873ZM138.78 108.873C138.227 108.873 137.78 108.425 137.78 107.873C137.78 107.321 138.227 106.873 138.78 106.873V108.873ZM144.928 112.889C144.928 113.441 144.48 113.889 143.928 113.889C143.376 113.889 142.928 113.441 142.928 112.889H144.928ZM142.928 118.92C142.928 118.368 143.376 117.92 143.928 117.92C144.48 117.92 144.928 118.368 144.928 118.92H142.928ZM144.928 124.952C144.928 125.504 144.48 125.952 143.928 125.952C143.376 125.952 142.928 125.504 142.928 124.952H144.928ZM142.928 130.984C142.928 130.431 143.376 129.984 143.928 129.984C144.48 129.984 144.928 130.431 144.928 130.984H142.928ZM144.928 137.015C144.928 137.567 144.48 138.015 143.928 138.015C143.376 138.015 142.928 137.567 142.928 137.015H144.928ZM142.928 143.047C142.928 142.494 143.376 142.047 143.928 142.047C144.48 142.047 144.928 142.494 144.928 143.047H142.928ZM148.415 147.062C148.967 147.062 149.415 147.51 149.415 148.062C149.415 148.615 148.967 149.062 148.415 149.062V147.062ZM153.389 149.062C152.837 149.062 152.389 148.615 152.389 148.062C152.389 147.51 152.837 147.062 153.389 147.062V149.062ZM158.363 147.062C158.916 147.062 159.363 147.51 159.363 148.062C159.363 148.615 158.916 149.062 158.363 149.062V147.062ZM163.337 149.062C162.785 149.062 162.337 148.615 162.337 148.062C162.337 147.51 162.785 147.062 163.337 147.062V149.062ZM166.824 143.047C166.824 142.494 167.272 142.047 167.824 142.047C168.377 142.047 168.824 142.494 168.824 143.047H166.824ZM168.824 137.015C168.824 137.567 168.377 138.015 167.824 138.015C167.272 138.015 166.824 137.567 166.824 137.015H168.824ZM166.824 130.984C166.824 130.431 167.272 129.984 167.824 129.984C168.377 129.984 168.824 130.431 168.824 130.984H166.824ZM168.824 124.952C168.824 125.504 168.377 125.952 167.824 125.952C167.272 125.952 166.824 125.504 166.824 124.952H168.824ZM166.824 118.92C166.824 118.368 167.272 117.92 167.824 117.92C168.377 117.92 168.824 118.368 168.824 118.92H166.824ZM168.824 112.889C168.824 113.441 168.377 113.889 167.824 113.889C167.272 113.889 166.824 113.441 166.824 112.889H168.824ZM172.871 106.873C173.423 106.873 173.871 107.321 173.871 107.873C173.871 108.425 173.423 108.873 172.871 108.873V106.873ZM178.964 108.873C178.412 108.873 177.964 108.425 177.964 107.873C177.964 107.321 178.412 106.873 178.964 106.873V108.873ZM185.058 106.873C185.61 106.873 186.058 107.321 186.058 107.873C186.058 108.425 185.61 108.873 185.058 108.873V106.873ZM191.151 108.873C190.599 108.873 190.151 108.425 190.151 107.873C190.151 107.321 190.599 106.873 191.151 106.873V108.873ZM197.244 106.873C197.797 106.873 198.244 107.321 198.244 107.873C198.244 108.425 197.797 108.873 197.244 108.873V106.873ZM203.338 108.873C202.786 108.873 202.338 108.425 202.338 107.873C202.338 107.321 202.786 106.873 203.338 106.873V108.873ZM209.431 106.873C209.983 106.873 210.431 107.321 210.431 107.873C210.431 108.425 209.983 108.873 209.431 108.873V106.873ZM215.524 108.873C214.972 108.873 214.524 108.425 214.524 107.873C214.524 107.321 214.972 106.873 215.524 106.873V108.873ZM221.618 106.873C222.17 106.873 222.618 107.321 222.618 107.873C222.618 108.425 222.17 108.873 221.618 108.873V106.873ZM227.711 108.873C227.159 108.873 226.711 108.425 226.711 107.873C226.711 107.321 227.159 106.873 227.711 106.873V108.873ZM233.805 106.873C234.357 106.873 234.805 107.321 234.805 107.873C234.805 108.425 234.357 108.873 233.805 108.873V106.873ZM239.898 108.873C239.346 108.873 238.898 108.425 238.898 107.873C238.898 107.321 239.346 106.873 239.898 106.873V108.873ZM245.945 112.889C245.945 113.441 245.497 113.889 244.945 113.889C244.392 113.889 243.945 113.441 243.945 112.889H245.945ZM243.945 118.92C243.945 118.368 244.392 117.92 244.945 117.92C245.497 117.92 245.945 118.368 245.945 118.92H243.945ZM245.945 124.952C245.945 125.504 245.497 125.952 244.945 125.952C244.392 125.952 243.945 125.504 243.945 124.952H245.945ZM243.945 130.984C243.945 130.431 244.392 129.984 244.945 129.984C245.497 129.984 245.945 130.431 245.945 130.984H243.945ZM245.945 137.015C245.945 137.567 245.497 138.015 244.945 138.015C244.392 138.015 243.945 137.567 243.945 137.015H245.945ZM243.945 143.047C243.945 142.494 244.392 142.047 244.945 142.047C245.497 142.047 245.945 142.494 245.945 143.047H243.945ZM249.839 147.062C250.391 147.062 250.839 147.51 250.839 148.062C250.839 148.615 250.391 149.062 249.839 149.062V147.062ZM255.628 149.062C255.075 149.062 254.628 148.615 254.628 148.062C254.628 147.51 255.075 147.062 255.628 147.062V149.062ZM261.416 147.062C261.969 147.062 262.416 147.51 262.416 148.062C262.416 148.615 261.969 149.062 261.416 149.062V147.062ZM267.205 149.062C266.653 149.062 266.205 148.615 266.205 148.062C266.205 147.51 266.653 147.062 267.205 147.062V149.062ZM271.1 143.047C271.1 142.494 271.547 142.047 272.1 142.047C272.652 142.047 273.1 142.494 273.1 143.047H271.1ZM273.1 137.015C273.1 137.567 272.652 138.015 272.1 138.015C271.547 138.015 271.1 137.567 271.1 137.015H273.1ZM271.1 130.984C271.1 130.431 271.547 129.984 272.1 129.984C272.652 129.984 273.1 130.431 273.1 130.984H271.1ZM273.1 124.952C273.1 125.504 272.652 125.952 272.1 125.952C271.547 125.952 271.1 125.504 271.1 124.952H273.1ZM271.1 118.92C271.1 118.368 271.547 117.92 272.1 117.92C272.652 117.92 273.1 118.368 273.1 118.92H271.1ZM273.1 112.889C273.1 113.441 272.652 113.889 272.1 113.889C271.547 113.889 271.1 113.441 271.1 112.889H273.1ZM276.983 106.873C277.535 106.873 277.983 107.321 277.983 107.873C277.983 108.425 277.535 108.873 276.983 108.873V106.873ZM282.749 108.873C282.196 108.873 281.749 108.425 281.749 107.873C281.749 107.321 282.196 106.873 282.749 106.873V108.873ZM288.514 106.873C289.067 106.873 289.514 107.321 289.514 107.873C289.514 108.425 289.067 108.873 288.514 108.873V106.873ZM294.28 108.873C293.728 108.873 293.28 108.425 293.28 107.873C293.28 107.321 293.728 106.873 294.28 106.873V108.873ZM300.046 106.873C300.599 106.873 301.046 107.321 301.046 107.873C301.046 108.425 300.599 108.873 300.046 108.873V106.873ZM305.812 108.873C305.26 108.873 304.812 108.425 304.812 107.873C304.812 107.321 305.26 106.873 305.812 106.873V108.873ZM311.578 106.873C312.131 106.873 312.578 107.321 312.578 107.873C312.578 108.425 312.131 108.873 311.578 108.873V106.873ZM317.344 108.873C316.792 108.873 316.344 108.425 316.344 107.873C316.344 107.321 316.792 106.873 317.344 106.873V108.873ZM323.11 106.873C323.663 106.873 324.11 107.321 324.11 107.873C324.11 108.425 323.663 108.873 323.11 108.873V106.873ZM328.876 108.873C328.324 108.873 327.876 108.425 327.876 107.873C327.876 107.321 328.324 106.873 328.876 106.873V108.873ZM334.642 106.873C335.194 106.873 335.642 107.321 335.642 107.873C335.642 108.425 335.194 108.873 334.642 108.873V106.873ZM340.408 108.873C339.856 108.873 339.408 108.425 339.408 107.873C339.408 107.321 339.856 106.873 340.408 106.873V108.873ZM346.174 106.873C346.726 106.873 347.174 107.321 347.174 107.873C347.174 108.425 346.726 108.873 346.174 108.873V106.873ZM351.94 108.873C351.388 108.873 350.94 108.425 350.94 107.873C350.94 107.321 351.388 106.873 351.94 106.873V108.873ZM357.823 112.889C357.823 113.441 357.375 113.889 356.823 113.889C356.271 113.889 355.823 113.441 355.823 112.889H357.823ZM355.823 118.92C355.823 118.368 356.271 117.92 356.823 117.92C357.375 117.92 357.823 118.368 357.823 118.92H355.823ZM357.823 124.952C357.823 125.504 357.375 125.952 356.823 125.952C356.271 125.952 355.823 125.504 355.823 124.952H357.823ZM355.823 130.984C355.823 130.431 356.271 129.984 356.823 129.984C357.375 129.984 357.823 130.431 357.823 130.984H355.823ZM357.823 137.015C357.823 137.567 357.375 138.015 356.823 138.015C356.271 138.015 355.823 137.567 355.823 137.015H357.823ZM355.823 143.047C355.823 142.494 356.271 142.047 356.823 142.047C357.375 142.047 357.823 142.494 357.823 143.047H355.823ZM361.386 147.062C361.939 147.062 362.386 147.51 362.386 148.062C362.386 148.615 361.939 149.062 361.386 149.062V147.062ZM366.513 149.062C365.96 149.062 365.513 148.615 365.513 148.062C365.513 147.51 365.96 147.062 366.513 147.062V149.062ZM371.639 147.062C372.191 147.062 372.639 147.51 372.639 148.062C372.639 148.615 372.191 149.062 371.639 149.062V147.062ZM376.765 149.062C376.213 149.062 375.765 148.615 375.765 148.062C375.765 147.51 376.213 147.062 376.765 147.062V149.062ZM381.892 147.062C382.444 147.062 382.892 147.51 382.892 148.062C382.892 148.615 382.444 149.062 381.892 149.062V147.062ZM387.018 149.062C386.466 149.062 386.018 148.615 386.018 148.062C386.018 147.51 386.466 147.062 387.018 147.062V149.062ZM390.581 143.047C390.581 142.494 391.029 142.047 391.581 142.047C392.134 142.047 392.581 142.494 392.581 143.047H390.581ZM392.581 137.015C392.581 137.567 392.134 138.015 391.581 138.015C391.029 138.015 390.581 137.567 390.581 137.015H392.581ZM390.581 130.984C390.581 130.431 391.029 129.984 391.581 129.984C392.134 129.984 392.581 130.431 392.581 130.984H390.581ZM392.581 124.952C392.581 125.504 392.134 125.952 391.581 125.952C391.029 125.952 390.581 125.504 390.581 124.952H392.581ZM390.581 118.92C390.581 118.368 391.029 117.92 391.581 117.92C392.134 117.92 392.581 118.368 392.581 118.92H390.581ZM392.581 112.889C392.581 113.441 392.134 113.889 391.581 113.889C391.029 113.889 390.581 113.441 390.581 112.889H392.581ZM390.81 108.724C391.021 108.214 391.606 107.972 392.116 108.184C392.626 108.395 392.869 108.98 392.657 109.491L390.81 108.724ZM393.199 108.949C392.689 109.16 392.104 108.918 391.892 108.408C391.681 107.898 391.923 107.313 392.433 107.101L393.199 108.949ZM394.211 106.873C394.763 106.873 395.211 107.321 395.211 107.873C395.211 108.425 394.763 108.873 394.211 108.873V106.873ZM395.469 108.873C394.917 108.873 394.469 108.425 394.469 107.873C394.469 107.321 394.917 106.873 395.469 106.873V108.873ZM396.481 106.798C396.991 106.586 397.576 106.828 397.788 107.338C398 107.848 397.757 108.434 397.247 108.645L396.481 106.798ZM398.871 107.022C398.659 107.532 398.074 107.774 397.564 107.562C397.054 107.351 396.812 106.766 397.023 106.256L398.871 107.022ZM397.099 102.857C397.099 102.305 397.546 101.857 398.099 101.857C398.651 101.857 399.099 102.305 399.099 102.857H397.099ZM399.099 96.8258C399.099 97.3781 398.651 97.8258 398.099 97.8258C397.546 97.8258 397.099 97.3781 397.099 96.8258H399.099ZM397.099 90.7942C397.099 90.2419 397.546 89.7942 398.099 89.7942C398.651 89.7942 399.099 90.2419 399.099 90.7942H397.099ZM399.099 84.7626C399.099 85.3149 398.651 85.7626 398.099 85.7626C397.546 85.7626 397.099 85.3149 397.099 84.7626H399.099ZM397.099 78.7311C397.099 78.1788 397.546 77.7311 398.099 77.7311C398.651 77.7311 399.099 78.1788 399.099 78.7311H397.099ZM399.099 72.6995C399.099 73.2518 398.651 73.6995 398.099 73.6995C397.546 73.6995 397.099 73.2518 397.099 72.6995H399.099ZM403.65 66.6837C404.203 66.6837 404.65 67.1314 404.65 67.6837C404.65 68.236 404.203 68.6837 403.65 68.6837V66.6837ZM410.754 68.6837C410.202 68.6837 409.754 68.236 409.754 67.6837C409.754 67.1314 410.202 66.6837 410.754 66.6837V68.6837ZM417.857 66.6837C418.409 66.6837 418.857 67.1314 418.857 67.6837C418.857 68.236 418.409 68.6837 417.857 68.6837V66.6837ZM424.961 68.6837C424.408 68.6837 423.961 68.236 423.961 67.6837C423.961 67.1314 424.408 66.6837 424.961 66.6837V68.6837ZM53.7734 107.873V106.873H56.9218V107.873V108.873H53.7734V107.873ZM63.2186 107.873V106.873H69.5153V107.873V108.873H63.2186V107.873ZM75.8121 107.873V106.873H82.1088V107.873V108.873H75.8121V107.873ZM88.4056 107.873V106.873H94.7023V107.873V108.873H88.4056V107.873ZM100.999 107.873V106.873H107.296V107.873V108.873H100.999V107.873ZM113.593 107.873V106.873H119.889V107.873V108.873H113.593V107.873ZM126.186 107.873V106.873H132.483V107.873V108.873H126.186V107.873ZM138.78 107.873V106.873H141.928V107.873V108.873H138.78V107.873ZM141.928 107.873V106.873C143.585 106.873 144.928 108.216 144.928 109.873H143.928H142.928C142.928 109.321 142.48 108.873 141.928 108.873V107.873ZM143.928 109.873H144.928V112.889H143.928H142.928V109.873H143.928ZM143.928 118.92H144.928V124.952H143.928H142.928V118.92H143.928ZM143.928 130.984H144.928V137.015H143.928H142.928V130.984H143.928ZM143.928 143.047H144.928V146.062H143.928H142.928V143.047H143.928ZM143.928 146.062H144.928C144.928 146.615 145.376 147.062 145.928 147.062V148.062V149.062C144.271 149.062 142.928 147.719 142.928 146.062H143.928ZM145.928 148.062V147.062H148.415V148.062V149.062H145.928V148.062ZM153.389 148.062V147.062H158.363V148.062V149.062H153.389V148.062ZM163.337 148.062V147.062H165.824V148.062V149.062H163.337V148.062ZM165.824 148.062V147.062C166.377 147.062 166.824 146.615 166.824 146.062H167.824H168.824C168.824 147.719 167.481 149.062 165.824 149.062V148.062ZM167.824 146.062H166.824V143.047H167.824H168.824V146.062H167.824ZM167.824 137.015H166.824V130.984H167.824H168.824V137.015H167.824ZM167.824 124.952H166.824V118.92H167.824H168.824V124.952H167.824ZM167.824 112.889H166.824V109.873H167.824H168.824V112.889H167.824ZM167.824 109.873H166.824C166.824 108.216 168.168 106.873 169.824 106.873V107.873V108.873C169.272 108.873 168.824 109.321 168.824 109.873H167.824ZM169.824 107.873V106.873H172.871V107.873V108.873H169.824V107.873ZM178.964 107.873V106.873H185.058V107.873V108.873H178.964V107.873ZM191.151 107.873V106.873H197.244V107.873V108.873H191.151V107.873ZM203.338 107.873V106.873H209.431V107.873V108.873H203.338V107.873ZM215.524 107.873V106.873H221.618V107.873V108.873H215.524V107.873ZM227.711 107.873V106.873H233.805V107.873V108.873H227.711V107.873ZM239.898 107.873V106.873H242.945V107.873V108.873H239.898V107.873ZM242.945 107.873V106.873C244.601 106.873 245.945 108.216 245.945 109.873H244.945H243.945C243.945 109.321 243.497 108.873 242.945 108.873V107.873ZM244.945 109.873H245.945V112.889H244.945H243.945V109.873H244.945ZM244.945 118.92H245.945V124.952H244.945H243.945V118.92H244.945ZM244.945 130.984H245.945V137.015H244.945H243.945V130.984H244.945ZM244.945 143.047H245.945V146.062H244.945H243.945V143.047H244.945ZM244.945 146.062H245.945C245.945 146.615 246.392 147.062 246.945 147.062V148.062V149.062C245.288 149.062 243.945 147.719 243.945 146.062H244.945ZM246.945 148.062V147.062H249.839V148.062V149.062H246.945V148.062ZM255.628 148.062V147.062H261.416V148.062V149.062H255.628V148.062ZM267.205 148.062V147.062H270.1V148.062V149.062H267.205V148.062ZM270.1 148.062V147.062C270.652 147.062 271.1 146.615 271.1 146.062H272.1H273.1C273.1 147.719 271.756 149.062 270.1 149.062V148.062ZM272.1 146.062H271.1V143.047H272.1H273.1V146.062H272.1ZM272.1 137.015H271.1V130.984H272.1H273.1V137.015H272.1ZM272.1 124.952H271.1V118.92H272.1H273.1V124.952H272.1ZM272.1 112.889H271.1V109.873H272.1H273.1V112.889H272.1ZM272.1 109.873H271.1C271.1 108.216 272.443 106.873 274.1 106.873V107.873V108.873C273.547 108.873 273.1 109.321 273.1 109.873H272.1ZM274.1 107.873V106.873H276.983V107.873V108.873H274.1V107.873ZM282.749 107.873V106.873H288.514V107.873V108.873H282.749V107.873ZM294.28 107.873V106.873H300.046V107.873V108.873H294.28V107.873ZM305.812 107.873V106.873H311.578V107.873V108.873H305.812V107.873ZM317.344 107.873V106.873H323.11V107.873V108.873H317.344V107.873ZM328.876 107.873V106.873H334.642V107.873V108.873H328.876V107.873ZM340.408 107.873V106.873H346.174V107.873V108.873H340.408V107.873ZM351.94 107.873V106.873H354.823V107.873V108.873H351.94V107.873ZM354.823 107.873V106.873C356.48 106.873 357.823 108.216 357.823 109.873H356.823H355.823C355.823 109.321 355.375 108.873 354.823 108.873V107.873ZM356.823 109.873H357.823V112.889H356.823H355.823V109.873H356.823ZM356.823 118.92H357.823V124.952H356.823H355.823V118.92H356.823ZM356.823 130.984H357.823V137.015H356.823H355.823V130.984H356.823ZM356.823 143.047H357.823V146.062H356.823H355.823V143.047H356.823ZM356.823 146.062H357.823C357.823 146.615 358.271 147.062 358.823 147.062V148.062V149.062C357.166 149.062 355.823 147.719 355.823 146.062H356.823ZM358.823 148.062V147.062H361.386V148.062V149.062H358.823V148.062ZM366.513 148.062V147.062H371.639V148.062V149.062H366.513V148.062ZM376.765 148.062V147.062H381.892V148.062V149.062H376.765V148.062ZM387.018 148.062V147.062H389.581V148.062V149.062H387.018V148.062ZM389.581 148.062V147.062C390.134 147.062 390.581 146.615 390.581 146.062H391.581H392.581C392.581 147.719 391.238 149.062 389.581 149.062V148.062ZM391.581 146.062H390.581V143.047H391.581H392.581V146.062H391.581ZM391.581 137.015H390.581V130.984H391.581H392.581V137.015H391.581ZM391.581 124.952H390.581V118.92H391.581H392.581V124.952H391.581ZM391.581 112.889H390.581V109.873H391.581H392.581V112.889H391.581ZM391.581 109.873H390.581C390.581 109.468 390.662 109.08 390.81 108.724L391.733 109.108L392.657 109.491C392.609 109.607 392.581 109.736 392.581 109.873H391.581ZM392.816 108.025L392.433 107.101C392.788 106.954 393.177 106.873 393.581 106.873V107.873V108.873C393.444 108.873 393.315 108.9 393.199 108.949L392.816 108.025ZM393.581 107.873V106.873H394.211V107.873V108.873H393.581V107.873ZM395.469 107.873V106.873H396.099V107.873V108.873H395.469V107.873ZM396.099 107.873V106.873C396.236 106.873 396.365 106.846 396.481 106.798L396.864 107.721L397.247 108.645C396.892 108.792 396.504 108.873 396.099 108.873V107.873ZM397.947 106.639L397.023 106.256C397.072 106.139 397.099 106.011 397.099 105.873H398.099H399.099C399.099 106.278 399.018 106.667 398.871 107.022L397.947 106.639ZM398.099 105.873H397.099V102.857H398.099H399.099V105.873H398.099ZM398.099 96.8258H397.099V90.7942H398.099H399.099V96.8258H398.099ZM398.099 84.7626H397.099V78.7311H398.099H399.099V84.7626H398.099ZM398.099 72.6995H397.099V69.6837H398.099H399.099V72.6995H398.099ZM398.099 69.6837H397.099C397.099 68.0269 398.442 66.6837 400.099 66.6837V67.6837V68.6837C399.546 68.6837 399.099 69.1314 399.099 69.6837H398.099ZM400.099 67.6837V66.6837H403.65V67.6837V68.6837H400.099V67.6837ZM410.754 67.6837V66.6837H417.857V67.6837V68.6837H410.754V67.6837ZM424.961 67.6837V66.6837H428.512V67.6837V68.6837H424.961V67.6837Z" fill="#FF5C5C"/>
</svg>
