<svg width="368" height="351" viewBox="0 0 368 351" fill="none" xmlns="http://www.w3.org/2000/svg">
<path d="M5.79031 1.96562C5.79031 2.68563 5.66031 3.35563 5.41031 3.99563C5.16031 4.62563 4.79033 5.18563 4.31033 5.65562C3.83033 6.12562 3.24032 6.47563 2.55032 6.70563L1.82031 5.60563C2.41031 5.40563 2.92033 5.11563 3.34033 4.73563C3.76033 4.35563 4.08032 3.93563 4.30032 3.45563C4.52032 2.97563 4.63031 2.47563 4.63031 1.96562V1.14562H5.79031V1.96562ZM8.44031 0.845625V1.99562H2.24033V0.845625H8.44031ZM5.30032 7.00563V8.20563H10.0503V7.00563H11.4503V11.5956H3.89032V7.00563H5.30032ZM6.07031 1.97562C6.07031 2.44562 6.17031 2.90563 6.38031 3.35563C6.59031 3.80563 6.89032 4.20563 7.30032 4.56563C7.71032 4.92563 8.20032 5.19562 8.77032 5.38562L8.07031 6.47563C7.40031 6.24563 6.83032 5.90562 6.36032 5.45563C5.89032 5.00563 5.53031 4.47563 5.29031 3.88562C5.05031 3.28562 4.93033 2.65562 4.93033 1.97562V1.14562H6.08032V1.97562H6.07031ZM5.30032 10.4556H10.0503V9.29562H5.30032V10.4556ZM10.4203 2.90562V4.06563H8.07031V2.90562H10.4203ZM11.4603 0.265625V6.52563H10.0603V0.265625H11.4603Z" fill="#545251"/>
<path d="M23.5506 6.24609V7.36609H13.1006V6.24609H23.5506ZM18.7606 2.27609C18.7606 2.87609 18.5706 3.39609 18.1806 3.85609C17.8006 4.31609 17.2506 4.68609 16.5306 4.96609C15.8206 5.24609 14.9806 5.43609 14.0206 5.51609L13.5806 4.43609C14.4106 4.37609 15.1306 4.24609 15.7206 4.04609C16.3106 3.84609 16.7606 3.58609 17.0606 3.28609C17.3606 2.98609 17.5106 2.64609 17.5106 2.28609V2.06609H18.7506V2.28609L18.7606 2.27609ZM22.5206 1.33609V2.45609H14.1206V1.33609H22.5206ZM22.2706 8.24609V11.7261H20.8506V9.36609H14.2506V8.24609H22.2706ZM19.0106 0.246094V1.90609H17.6106V0.246094H19.0106ZM19.0106 4.97609V6.72609H17.6106V4.97609H19.0106ZM19.0906 2.27609C19.0906 2.63609 19.2406 2.96609 19.5306 3.27609C19.8306 3.57609 20.2806 3.83609 20.8706 4.03609C21.4606 4.23609 22.1806 4.36609 23.0206 4.42609L22.5806 5.50609C21.6106 5.42609 20.7706 5.23609 20.0606 4.95609C19.3506 4.67609 18.8006 4.30609 18.4206 3.84609C18.0406 3.38609 17.8506 2.86609 17.8506 2.26609V2.04609H19.0906V2.26609V2.27609Z" fill="#545251"/>
<path d="M35.8702 6.24617V7.38617H25.4102V6.24617H35.8702ZM30.6402 0.576172C31.4702 0.576172 32.1902 0.666172 32.8102 0.856172C33.4302 1.04617 33.9102 1.31617 34.2502 1.66617C34.5902 2.01617 34.7602 2.42617 34.7602 2.89617C34.7602 3.36617 34.5902 3.80617 34.2502 4.15617C33.9102 4.50617 33.4302 4.78617 32.8102 4.96617C32.1902 5.15617 31.4602 5.24617 30.6402 5.24617C29.8202 5.24617 29.0802 5.15617 28.4602 4.96617C27.8402 4.77617 27.3602 4.50617 27.0102 4.15617C26.6702 3.80617 26.5002 3.37617 26.5002 2.89617C26.5002 2.42617 26.6702 2.01617 27.0102 1.66617C27.3502 1.31617 27.8302 1.04617 28.4602 0.856172C29.0802 0.666172 29.8102 0.576172 30.6402 0.576172ZM28.1302 8.16617V10.7562H26.7102V8.16617H28.1302ZM34.6902 10.3662V11.5062H26.7002V10.3662H34.6902ZM30.6402 1.69617C30.0902 1.69617 29.6102 1.74617 29.2102 1.83617C28.8102 1.92617 28.5002 2.06617 28.2902 2.24617C28.0802 2.42617 27.9702 2.63617 27.9802 2.88617C27.9802 3.15617 28.0802 3.37617 28.2902 3.55617C28.5002 3.73617 28.8102 3.87617 29.2102 3.96617C29.6102 4.05617 30.0902 4.10617 30.6502 4.10617C31.2102 4.10617 31.6902 4.05617 32.0902 3.96617C32.4902 3.87617 32.7902 3.73617 33.0102 3.55617C33.2202 3.37617 33.3302 3.15617 33.3302 2.88617C33.3302 2.63617 33.2202 2.42617 33.0102 2.24617C32.8002 2.06617 32.4902 1.92617 32.0902 1.83617C31.6902 1.74617 31.2102 1.69617 30.6502 1.69617H30.6402ZM31.3502 4.59617V6.78617H29.9402V4.59617H31.3502Z" fill="#545251"/>
<path d="M47.1502 9.21523V10.3752H36.6602V9.21523H47.1502ZM45.8802 1.11523V2.24523H39.3402V5.98523H37.9302V1.11523H45.8802ZM45.9702 5.47523V6.59523H37.9302V5.47523H45.9702ZM42.5802 5.97523V9.61523H41.1802V5.97523H42.5802Z" fill="#545251"/>
<path d="M51.6008 12.8065L51.2608 13.0965C49.4308 11.3965 48.5508 9.36648 48.5508 6.99648C48.5508 4.62648 49.4308 2.59648 51.2608 0.896484L51.6008 1.18648C50.0708 3.39648 49.6008 4.92648 49.6008 7.00648C49.6008 9.08648 50.0708 10.6165 51.6008 12.8265V12.8065Z" fill="#545251"/>
<path d="M54.7596 5.65586C54.3696 5.65586 54.0096 5.55586 53.6796 5.36586C53.3496 5.17586 53.0896 4.91586 52.8896 4.58586C52.6996 4.25586 52.5996 3.89586 52.5996 3.50586C52.5996 3.11586 52.6996 2.75586 52.8896 2.42586C53.0796 2.09586 53.3396 1.83586 53.6796 1.64586C54.0096 1.45586 54.3696 1.35586 54.7596 1.35586C55.1496 1.35586 55.5096 1.45586 55.8396 1.64586C56.1696 1.83586 56.4296 2.09586 56.6296 2.42586C56.8196 2.75586 56.9196 3.11586 56.9196 3.50586C56.9196 3.89586 56.8196 4.25586 56.6296 4.58586C56.4396 4.91586 56.1696 5.17586 55.8396 5.36586C55.5096 5.55586 55.1496 5.65586 54.7596 5.65586ZM54.7596 4.51586C54.9496 4.51586 55.1196 4.46586 55.2696 4.37586C55.4296 4.28586 55.5496 4.16586 55.6396 4.00586C55.7296 3.84586 55.7696 3.68586 55.7696 3.49586C55.7696 3.30586 55.7296 3.14586 55.6396 2.98586C55.5496 2.83586 55.4296 2.70586 55.2696 2.61586C55.1096 2.52586 54.9396 2.48586 54.7596 2.48586C54.5796 2.48586 54.4096 2.52586 54.2496 2.61586C54.0896 2.70586 53.9696 2.82586 53.8796 2.98586C53.7896 3.13586 53.7396 3.30586 53.7396 3.49586C53.7396 3.68586 53.7896 3.85586 53.8796 4.00586C53.9696 4.15586 54.0896 4.28586 54.2496 4.37586C54.4096 4.46586 54.5696 4.51586 54.7596 4.51586ZM64.4296 4.51586C64.3696 4.15586 64.2396 3.84586 64.0296 3.57586C63.8196 3.30586 63.5696 3.11586 63.2596 2.97586C62.9496 2.83586 62.6096 2.76586 62.2396 2.76586C61.7296 2.76586 61.2796 2.89586 60.8996 3.14586C60.5196 3.39586 60.2096 3.76586 59.9996 4.25586C59.7796 4.74586 59.6696 5.32586 59.6696 6.00586C59.6696 6.68586 59.7796 7.28586 59.9996 7.76586C60.2196 8.25586 60.5196 8.61586 60.8996 8.86586C61.2896 9.11586 61.7296 9.23586 62.2296 9.23586C62.5996 9.23586 62.9396 9.16586 63.2396 9.03586C63.5396 8.90586 63.7996 8.71586 64.0096 8.45586C64.2196 8.20586 64.3596 7.89586 64.4296 7.54586H66.0996C66.0196 8.14586 65.7996 8.67586 65.4596 9.15586C65.1196 9.63586 64.6696 10.0159 64.1096 10.2959C63.5496 10.5759 62.9196 10.7159 62.2096 10.7159C61.3996 10.7159 60.6696 10.5259 60.0396 10.1459C59.4096 9.76586 58.9096 9.22586 58.5496 8.50586C58.1896 7.79586 58.0096 6.95586 58.0096 5.98586C58.0096 5.01586 58.1896 4.17586 58.5496 3.46586C58.9096 2.75586 59.4096 2.20586 60.0496 1.82586C60.6896 1.44586 61.4096 1.25586 62.2196 1.25586C62.8996 1.25586 63.5096 1.38586 64.0596 1.63586C64.6096 1.89586 65.0696 2.26586 65.4196 2.74586C65.7796 3.23586 65.9996 3.80586 66.0996 4.47586H64.4296V4.51586Z" fill="#545251"/>
<path d="M67 1.17672L67.34 0.886719C69.17 2.59672 70.05 4.61672 70.05 6.98672C70.05 9.35672 69.17 11.3867 67.34 13.0867L67 12.7967C68.53 10.5867 69 9.05672 69 6.97672C69 4.89672 68.53 3.36672 67 1.15672V1.17672Z" fill="#545251"/>
<path d="M301.231 324.726C301.231 325.446 301.101 326.116 300.841 326.746C300.581 327.376 300.211 327.916 299.711 328.376C299.221 328.836 298.621 329.176 297.931 329.406L297.221 328.296C297.821 328.106 298.341 327.826 298.761 327.466C299.191 327.096 299.511 326.686 299.731 326.206C299.951 325.736 300.061 325.246 300.061 324.726V323.846H301.231V324.726ZM306.791 329.946V332.926H300.581V334.246H299.211V331.876H305.391V331.046H299.181V329.946H306.801H306.791ZM307.131 333.816V334.936H299.201V333.816H307.131ZM301.521 324.726C301.521 325.226 301.621 325.696 301.831 326.146C302.041 326.596 302.361 326.986 302.781 327.326C303.201 327.666 303.711 327.926 304.301 328.106L303.601 329.196C302.911 328.986 302.321 328.656 301.831 328.216C301.341 327.776 300.971 327.256 300.711 326.666C300.461 326.066 300.331 325.426 300.331 324.726V323.846H301.511V324.726H301.521ZM306.771 323.566V329.416H305.371V323.566H306.771Z" fill="#545251"/>
<path d="M310.391 324.876V331.496H308.98V324.876H310.391ZM309.74 330.936C310.4 330.936 311.05 330.916 311.69 330.866C312.33 330.816 312.99 330.726 313.67 330.586L313.82 331.816C313.09 331.946 312.39 332.036 311.72 332.086C311.05 332.136 310.4 332.166 309.74 332.166H308.98V330.936H309.74ZM315.701 323.776V334.456H314.38V323.776H315.701ZM317.35 328.076V329.226H315.31V328.076H317.35ZM318.33 323.566V335.026H316.97V323.566H318.33Z" fill="#545251"/>
<path d="M330.261 329.547V330.687H319.811V329.547H330.261ZM325.021 323.877C325.851 323.877 326.571 323.967 327.191 324.157C327.811 324.347 328.291 324.617 328.631 324.967C328.971 325.317 329.141 325.727 329.141 326.197C329.141 326.667 328.971 327.107 328.631 327.457C328.291 327.807 327.811 328.087 327.191 328.267C326.571 328.447 325.841 328.547 325.021 328.547C324.201 328.547 323.461 328.457 322.841 328.267C322.221 328.077 321.741 327.807 321.391 327.457C321.051 327.107 320.881 326.677 320.881 326.197C320.881 325.727 321.051 325.317 321.391 324.967C321.731 324.617 322.211 324.347 322.841 324.157C323.461 323.967 324.191 323.877 325.021 323.877ZM322.511 331.467V334.057H321.091V331.467H322.511ZM329.081 333.667V334.817H321.091V333.667H329.081ZM325.021 324.997C324.471 324.997 323.991 325.047 323.591 325.137C323.191 325.227 322.881 325.367 322.671 325.547C322.461 325.727 322.351 325.937 322.361 326.187C322.361 326.457 322.461 326.677 322.671 326.857C322.881 327.037 323.191 327.177 323.591 327.267C323.991 327.357 324.471 327.407 325.031 327.407C325.591 327.407 326.071 327.357 326.471 327.267C326.871 327.177 327.171 327.037 327.391 326.857C327.611 326.677 327.711 326.457 327.711 326.187C327.711 325.937 327.601 325.727 327.391 325.547C327.181 325.367 326.871 325.227 326.471 325.137C326.071 325.047 325.591 324.997 325.031 324.997H325.021ZM325.731 327.897V330.087H324.321V327.897H325.731Z" fill="#545251"/>
<path d="M341.531 332.516V333.676H331.041V332.516H341.531ZM340.271 324.416V325.546H333.731V329.286H332.321V324.406H340.271V324.416ZM340.361 328.776V329.896H332.321V328.776H340.361ZM336.971 329.276V332.916H335.571V329.276H336.971Z" fill="#545251"/>
<path d="M345.99 336.107L345.65 336.397C343.82 334.687 342.94 332.667 342.94 330.297C342.94 327.927 343.82 325.897 345.65 324.197L345.99 324.487C344.46 326.697 343.99 328.227 343.99 330.307C343.99 332.387 344.46 333.917 345.99 336.127V336.107Z" fill="#545251"/>
<path d="M349.141 328.957C348.751 328.957 348.39 328.857 348.06 328.667C347.73 328.477 347.47 328.217 347.27 327.887C347.08 327.557 346.98 327.197 346.98 326.807C346.98 326.417 347.08 326.057 347.27 325.727C347.46 325.397 347.72 325.137 348.06 324.947C348.4 324.757 348.751 324.657 349.141 324.657C349.531 324.657 349.89 324.757 350.22 324.947C350.55 325.137 350.81 325.397 351.01 325.727C351.2 326.057 351.3 326.417 351.3 326.807C351.3 327.197 351.2 327.557 351.01 327.887C350.81 328.217 350.55 328.477 350.22 328.667C349.89 328.857 349.531 328.957 349.141 328.957ZM349.141 327.817C349.321 327.817 349.5 327.767 349.65 327.677C349.81 327.587 349.93 327.467 350.02 327.307C350.11 327.157 350.15 326.987 350.15 326.797C350.15 326.607 350.11 326.437 350.02 326.287C349.93 326.137 349.81 326.007 349.65 325.917C349.49 325.827 349.321 325.787 349.141 325.787C348.961 325.787 348.79 325.827 348.63 325.917C348.47 326.007 348.35 326.127 348.26 326.287C348.17 326.437 348.12 326.607 348.12 326.797C348.12 326.987 348.16 327.157 348.26 327.307C348.35 327.457 348.47 327.587 348.63 327.677C348.79 327.767 348.961 327.817 349.141 327.817ZM358.81 327.817C358.75 327.457 358.62 327.147 358.42 326.877C358.22 326.617 357.96 326.417 357.65 326.277C357.34 326.137 357 326.067 356.63 326.067C356.12 326.067 355.67 326.197 355.29 326.447C354.9 326.697 354.601 327.067 354.391 327.557C354.181 328.047 354.06 328.627 354.06 329.307C354.06 329.987 354.171 330.587 354.391 331.067C354.611 331.547 354.91 331.917 355.29 332.167C355.68 332.417 356.12 332.537 356.62 332.537C356.99 332.537 357.33 332.467 357.63 332.337C357.93 332.207 358.19 332.007 358.4 331.757C358.61 331.507 358.75 331.197 358.82 330.847H360.49C360.41 331.447 360.19 331.977 359.85 332.457C359.51 332.937 359.06 333.317 358.5 333.597C357.94 333.877 357.31 334.017 356.6 334.017C355.79 334.017 355.06 333.827 354.43 333.447C353.8 333.067 353.3 332.527 352.94 331.807C352.58 331.097 352.4 330.257 352.4 329.287C352.4 328.317 352.58 327.477 352.94 326.767C353.3 326.057 353.8 325.507 354.44 325.127C355.08 324.747 355.8 324.557 356.61 324.557C357.29 324.557 357.901 324.687 358.451 324.937C359.001 325.187 359.46 325.567 359.82 326.047C360.18 326.527 360.4 327.107 360.5 327.777H358.83L358.81 327.817Z" fill="#545251"/>
<path d="M361.381 324.476L361.721 324.186C363.551 325.896 364.431 327.916 364.431 330.286C364.431 332.656 363.551 334.686 361.721 336.386L361.381 336.096C362.911 333.886 363.381 332.356 363.381 330.276C363.381 328.196 362.911 326.666 361.381 324.456V324.476Z" fill="#545251"/>
<path d="M289.993 345.843C289.996 344.962 290.109 344.135 290.331 343.363C290.556 342.591 290.882 341.877 291.31 341.221H291.903C291.678 341.578 291.472 342.012 291.286 342.524C291.099 343.032 290.95 343.574 290.837 344.15C290.728 344.722 290.673 345.286 290.673 345.843C290.673 346.399 290.728 346.967 290.837 347.546C290.95 348.122 291.099 348.663 291.286 349.172C291.472 349.68 291.678 350.114 291.903 350.474H291.31C290.882 349.805 290.556 349.085 290.331 348.313C290.109 347.541 289.996 346.718 289.993 345.843ZM299.275 343.219H296.568V342.702H299.275V343.219ZM299.275 345.93H296.568V345.418H299.275V345.93ZM294.957 341.424C295.369 341.424 295.732 341.546 296.047 341.791C296.363 342.032 296.609 342.374 296.786 342.818C296.966 343.262 297.056 343.78 297.056 344.372C297.056 344.957 296.966 345.471 296.786 345.915C296.609 346.359 296.363 346.702 296.047 346.943C295.732 347.184 295.369 347.305 294.957 347.305C294.549 347.305 294.184 347.184 293.862 346.943C293.544 346.702 293.294 346.359 293.114 345.915C292.937 345.471 292.849 344.957 292.849 344.372C292.849 343.78 292.937 343.262 293.114 342.818C293.294 342.374 293.544 342.032 293.862 341.791C294.184 341.546 294.549 341.424 294.957 341.424ZM294.957 341.959C294.661 341.959 294.396 342.062 294.161 342.268C293.93 342.471 293.75 342.754 293.621 343.117C293.492 343.481 293.428 343.899 293.428 344.372C293.428 344.835 293.492 345.25 293.621 345.616C293.75 345.98 293.93 346.263 294.161 346.465C294.396 346.668 294.661 346.769 294.957 346.769C295.253 346.769 295.518 346.668 295.753 346.465C295.988 346.263 296.168 345.98 296.293 345.616C296.422 345.25 296.486 344.835 296.486 344.372C296.486 343.899 296.422 343.481 296.293 343.117C296.168 342.754 295.988 342.471 295.753 342.268C295.522 342.062 295.256 341.959 294.957 341.959ZM299.699 349.273H299.101V340.744H299.699V349.273ZM309.01 345.684H301.219V345.167H309.01V345.684ZM307.987 342.895H302.845V344.092H302.247V342.423H307.38V341.472H302.213V340.97H307.987V342.895ZM308.18 344.343H302.247V343.855H308.18V344.343ZM307.978 349.133H302.3V346.542H307.978V349.133ZM302.893 348.626H307.384V347.049H302.893V348.626ZM312.503 342.413C312.503 342.847 312.395 343.251 312.18 343.624C311.964 343.994 311.671 344.312 311.302 344.579C310.932 344.846 310.512 345.049 310.043 345.187L309.758 344.709C310.173 344.59 310.549 344.418 310.887 344.193C311.228 343.968 311.498 343.701 311.697 343.392C311.897 343.083 311.996 342.757 311.996 342.413V342.022H312.503V342.413ZM312.595 342.413C312.595 342.734 312.697 343.038 312.903 343.325C313.112 343.611 313.389 343.859 313.733 344.068C314.077 344.277 314.457 344.434 314.872 344.54L314.592 345.008C314.125 344.886 313.702 344.701 313.323 344.454C312.947 344.206 312.649 343.907 312.431 343.556C312.215 343.206 312.107 342.825 312.107 342.413V342.022H312.595V342.413ZM314.582 342.157H310.009V341.651H314.582V342.157ZM312.609 341.93H311.996V340.7H312.609V341.93ZM316.56 343.416H314.312V342.91H316.56V343.416ZM316.772 345.23H316.169V340.744H316.772V345.23ZM316.772 347.599H311.929V348.916H311.331V347.116H316.169V346.161H311.306V345.669H316.772V347.599ZM317.124 349.147H311.331V348.646H317.124V349.147ZM323.888 345.322H320.955V344.709H323.888V345.322ZM332.494 344.637H330.791V344.121H332.494V344.637ZM334.559 349.258H333.966V340.744H334.559V349.258ZM332.861 348.815H332.277V340.941H332.861V348.815ZM329.224 341.501C329.59 341.501 329.91 341.62 330.184 341.858C330.457 342.093 330.669 342.431 330.82 342.871C330.972 343.312 331.047 343.826 331.047 344.415C331.047 344.997 330.972 345.508 330.82 345.949C330.669 346.39 330.457 346.731 330.184 346.972C329.91 347.21 329.59 347.329 329.224 347.329C328.86 347.329 328.54 347.21 328.264 346.972C327.99 346.731 327.778 346.39 327.627 345.949C327.479 345.508 327.405 344.997 327.405 344.415C327.405 343.826 327.479 343.312 327.627 342.871C327.778 342.431 327.99 342.093 328.264 341.858C328.54 341.62 328.86 341.501 329.224 341.501ZM329.224 342.066C328.973 342.066 328.752 342.164 328.563 342.36C328.376 342.553 328.233 342.826 328.133 343.18C328.034 343.534 327.984 343.945 327.984 344.415C327.984 344.878 328.034 345.286 328.133 345.64C328.233 345.994 328.378 346.269 328.568 346.465C328.76 346.658 328.979 346.755 329.224 346.755C329.474 346.755 329.693 346.658 329.88 346.465C330.069 346.269 330.214 345.994 330.314 345.64C330.417 345.286 330.468 344.878 330.468 344.415C330.468 343.945 330.417 343.534 330.314 343.18C330.214 342.826 330.069 342.553 329.88 342.36C329.693 342.164 329.474 342.066 329.224 342.066ZM338.095 341.424C338.507 341.424 338.87 341.546 339.186 341.791C339.501 342.032 339.747 342.374 339.924 342.818C340.104 343.262 340.194 343.78 340.194 344.372C340.194 344.957 340.104 345.471 339.924 345.915C339.747 346.359 339.501 346.702 339.186 346.943C338.87 347.184 338.507 347.305 338.095 347.305C337.687 347.305 337.322 347.184 337 346.943C336.682 346.702 336.433 346.359 336.252 345.915C336.076 345.471 335.987 344.957 335.987 344.372C335.987 343.78 336.076 343.262 336.252 342.818C336.433 342.374 336.682 342.032 337 341.791C337.322 341.546 337.687 341.424 338.095 341.424ZM338.095 341.959C337.799 341.959 337.534 342.062 337.299 342.268C337.068 342.471 336.888 342.754 336.759 343.117C336.63 343.481 336.566 343.899 336.566 344.372C336.566 344.835 336.63 345.25 336.759 345.616C336.888 345.98 337.068 346.263 337.299 346.465C337.534 346.668 337.799 346.769 338.095 346.769C338.391 346.769 338.657 346.668 338.891 346.465C339.126 346.263 339.306 345.98 339.432 345.616C339.56 345.25 339.625 344.835 339.625 344.372C339.625 343.899 339.56 343.481 339.432 343.117C339.306 342.754 339.126 342.471 338.891 342.268C338.66 342.062 338.394 341.959 338.095 341.959ZM342.838 349.273H342.239V340.744H342.838V349.273ZM342.519 344.564H339.982V344.058H342.519V344.564ZM350.904 344.029H348.757V343.503H350.904V344.029ZM348.767 341.443C348.767 342.167 348.628 342.829 348.352 343.431C348.075 344.029 347.649 344.56 347.073 345.023C346.498 345.486 345.767 345.865 344.883 346.161L344.627 345.664C345.435 345.397 346.099 345.065 346.62 344.666C347.141 344.267 347.523 343.815 347.768 343.31C348.012 342.805 348.135 342.252 348.135 341.651V341.443H348.767ZM348.463 341.959H344.989V341.443H348.463V341.959ZM344.68 343.754L344.565 343.233L348.057 343.059V343.479L344.68 343.754ZM351.381 347.083H350.769V340.753H351.381V347.083ZM351.637 349.056H346.075V348.54H351.637V349.056ZM346.692 348.795H346.075V346.446H346.692V348.795ZM363.061 345.365H355.299V344.844H363.061V345.365ZM362.144 343.961H356.297V343.455H362.144V343.961ZM362.081 341.646H356.891V343.691H356.297V341.125H362.081V341.646ZM359.177 346.185C359.782 346.185 360.303 346.245 360.74 346.364C361.178 346.483 361.512 346.657 361.744 346.885C361.978 347.113 362.096 347.388 362.096 347.71C362.096 348.035 361.978 348.31 361.744 348.535C361.512 348.763 361.179 348.935 360.745 349.051C360.311 349.17 359.788 349.229 359.177 349.229C358.566 349.229 358.042 349.17 357.604 349.051C357.167 348.935 356.831 348.763 356.596 348.535C356.365 348.31 356.249 348.035 356.249 347.71C356.249 347.388 356.365 347.113 356.596 346.885C356.831 346.657 357.167 346.483 357.604 346.364C358.045 346.245 358.569 346.185 359.177 346.185ZM359.177 346.673C358.704 346.673 358.294 346.714 357.947 346.798C357.6 346.882 357.333 347.002 357.146 347.16C356.96 347.314 356.866 347.498 356.866 347.71C356.866 347.922 356.96 348.105 357.146 348.26C357.333 348.414 357.6 348.532 357.947 348.612C358.294 348.696 358.704 348.737 359.177 348.737C359.65 348.737 360.058 348.696 360.403 348.612C360.75 348.532 361.017 348.414 361.203 348.26C361.39 348.105 361.483 347.922 361.483 347.71C361.483 347.498 361.39 347.314 361.203 347.16C361.017 347.002 360.75 346.882 360.403 346.798C360.058 346.714 359.65 346.673 359.177 346.673ZM365.434 343.363C365.659 344.135 365.773 344.962 365.777 345.843C365.773 346.718 365.659 347.541 365.434 348.313C365.212 349.085 364.887 349.805 364.46 350.474H363.866C364.091 350.114 364.297 349.68 364.484 349.172C364.67 348.663 364.818 348.122 364.928 347.546C365.04 346.967 365.097 346.399 365.097 345.843C365.097 345.286 365.04 344.722 364.928 344.15C364.818 343.574 364.67 343.032 364.484 342.524C364.297 342.012 364.091 341.578 363.866 341.221H364.46C364.887 341.877 365.212 342.591 365.434 343.363Z" fill="#666464"/>
<path d="M24.4297 28.5566V290.217H353.5" stroke="#DDDDDD" stroke-width="0.96" stroke-miterlimit="10" stroke-linecap="round"/>
<path d="M1.64453 289.459L4.5918 286.488C4.94727 286.121 5.2207 285.824 5.41211 285.598C5.60352 285.371 5.74609 285.148 5.83984 284.93C5.9375 284.707 5.98633 284.477 5.98633 284.238C5.98633 283.969 5.91797 283.73 5.78125 283.523C5.64453 283.316 5.45703 283.156 5.21875 283.043C4.98047 282.93 4.71289 282.873 4.41602 282.873C4.10742 282.873 3.83594 282.936 3.60156 283.061C3.37109 283.182 3.19141 283.357 3.0625 283.588C2.9375 283.814 2.875 284.076 2.875 284.373H1.65039C1.65039 283.865 1.76953 283.416 2.00781 283.025C2.24609 282.635 2.57617 282.332 2.99805 282.117C3.42383 281.902 3.90625 281.795 4.44531 281.795C4.98047 281.795 5.45703 281.9 5.875 282.111C6.29297 282.318 6.61914 282.605 6.85352 282.973C7.0918 283.336 7.21094 283.744 7.21094 284.197C7.21094 284.521 7.15039 284.834 7.0293 285.135C6.9082 285.436 6.70312 285.768 6.41406 286.131C6.125 286.494 5.71094 286.941 5.17188 287.473L3.44336 289.225V289.289H7.35156V290.396H1.65039L1.64453 289.459ZM11.7402 290.514C11.0879 290.514 10.5293 290.344 10.0645 290.004C9.59961 289.664 9.24414 289.168 8.99805 288.516C8.75195 287.863 8.62891 287.076 8.62891 286.154C8.62891 285.24 8.75195 284.457 8.99805 283.805C9.24414 283.152 9.60156 282.654 10.0703 282.311C10.5391 281.967 11.0957 281.795 11.7402 281.795C12.3848 281.795 12.9414 281.967 13.4102 282.311C13.8789 282.654 14.2363 283.152 14.4824 283.805C14.7285 284.457 14.8516 285.24 14.8516 286.154C14.8516 287.076 14.7285 287.863 14.4824 288.516C14.2402 289.168 13.8848 289.664 13.416 290.004C12.9512 290.344 12.3926 290.514 11.7402 290.514ZM11.7402 289.406C12.1191 289.406 12.4453 289.281 12.7188 289.031C12.9961 288.781 13.207 288.414 13.3516 287.93C13.4961 287.441 13.5664 286.85 13.5625 286.154C13.5625 285.459 13.4902 284.867 13.3457 284.379C13.2012 283.891 12.9922 283.52 12.7188 283.266C12.4453 283.012 12.1191 282.885 11.7402 282.885C11.3613 282.885 11.0352 283.012 10.7617 283.266C10.4883 283.52 10.2773 283.891 10.1289 284.379C9.98047 284.867 9.90625 285.459 9.90625 286.154C9.90625 286.85 9.97852 287.441 10.123 287.93C10.2676 288.414 10.4785 288.781 10.7559 289.031C11.0332 289.281 11.3613 289.406 11.7402 289.406Z" fill="#545251"/>
<path d="M20.2344 308.488L23.1816 305.518C23.5371 305.15 23.8105 304.854 24.002 304.627C24.1934 304.4 24.3359 304.178 24.4297 303.959C24.5273 303.736 24.5762 303.506 24.5762 303.268C24.5762 302.998 24.5078 302.76 24.3711 302.553C24.2344 302.346 24.0469 302.186 23.8086 302.072C23.5703 301.959 23.3027 301.902 23.0059 301.902C22.6973 301.902 22.4258 301.965 22.1914 302.09C21.9609 302.211 21.7812 302.387 21.6523 302.617C21.5273 302.844 21.4648 303.105 21.4648 303.402H20.2402C20.2402 302.895 20.3594 302.445 20.5977 302.055C20.8359 301.664 21.166 301.361 21.5879 301.146C22.0137 300.932 22.4961 300.824 23.0352 300.824C23.5703 300.824 24.0469 300.93 24.4648 301.141C24.8828 301.348 25.209 301.635 25.4434 302.002C25.6816 302.365 25.8008 302.773 25.8008 303.227C25.8008 303.551 25.7402 303.863 25.6191 304.164C25.498 304.465 25.293 304.797 25.0039 305.16C24.7148 305.523 24.3008 305.971 23.7617 306.502L22.0332 308.254V308.318H25.9414V309.426H20.2402L20.2344 308.488ZM30.3301 309.543C29.6777 309.543 29.1191 309.373 28.6543 309.033C28.1895 308.693 27.834 308.197 27.5879 307.545C27.3418 306.893 27.2188 306.105 27.2188 305.184C27.2188 304.27 27.3418 303.486 27.5879 302.834C27.834 302.182 28.1914 301.684 28.6602 301.34C29.1289 300.996 29.6855 300.824 30.3301 300.824C30.9746 300.824 31.5312 300.996 32 301.34C32.4688 301.684 32.8262 302.182 33.0723 302.834C33.3184 303.486 33.4414 304.27 33.4414 305.184C33.4414 306.105 33.3184 306.893 33.0723 307.545C32.8301 308.197 32.4746 308.693 32.0059 309.033C31.541 309.373 30.9824 309.543 30.3301 309.543ZM30.3301 308.436C30.709 308.436 31.0352 308.311 31.3086 308.061C31.5859 307.811 31.7969 307.443 31.9414 306.959C32.0859 306.471 32.1562 305.879 32.1523 305.184C32.1523 304.488 32.0801 303.896 31.9355 303.408C31.791 302.92 31.582 302.549 31.3086 302.295C31.0352 302.041 30.709 301.914 30.3301 301.914C29.9512 301.914 29.625 302.041 29.3516 302.295C29.0781 302.549 28.8672 302.92 28.7188 303.408C28.5703 303.896 28.4961 304.488 28.4961 305.184C28.4961 305.879 28.5684 306.471 28.7129 306.959C28.8574 307.443 29.0684 307.811 29.3457 308.061C29.623 308.311 29.9512 308.436 30.3301 308.436Z" fill="#545251"/>
<path d="M72.7949 308.488L75.7422 305.518C76.0977 305.15 76.3711 304.854 76.5625 304.627C76.7539 304.4 76.8965 304.178 76.9902 303.959C77.0879 303.736 77.1367 303.506 77.1367 303.268C77.1367 302.998 77.0684 302.76 76.9316 302.553C76.7949 302.346 76.6074 302.186 76.3691 302.072C76.1309 301.959 75.8633 301.902 75.5664 301.902C75.2578 301.902 74.9863 301.965 74.752 302.09C74.5215 302.211 74.3418 302.387 74.2129 302.617C74.0879 302.844 74.0254 303.105 74.0254 303.402H72.8008C72.8008 302.895 72.9199 302.445 73.1582 302.055C73.3965 301.664 73.7266 301.361 74.1484 301.146C74.5742 300.932 75.0566 300.824 75.5957 300.824C76.1309 300.824 76.6074 300.93 77.0254 301.141C77.4434 301.348 77.7695 301.635 78.0039 302.002C78.2422 302.365 78.3613 302.773 78.3613 303.227C78.3613 303.551 78.3008 303.863 78.1797 304.164C78.0586 304.465 77.8535 304.797 77.5645 305.16C77.2754 305.523 76.8613 305.971 76.3223 306.502L74.5938 308.254V308.318H78.502V309.426H72.8008L72.7949 308.488ZM79.9316 308.488L82.8789 305.518C83.2344 305.15 83.5078 304.854 83.6992 304.627C83.8906 304.4 84.0332 304.178 84.127 303.959C84.2246 303.736 84.2734 303.506 84.2734 303.268C84.2734 302.998 84.2051 302.76 84.0684 302.553C83.9316 302.346 83.7441 302.186 83.5059 302.072C83.2676 301.959 83 301.902 82.7031 301.902C82.3945 301.902 82.123 301.965 81.8887 302.09C81.6582 302.211 81.4785 302.387 81.3496 302.617C81.2246 302.844 81.1621 303.105 81.1621 303.402H79.9375C79.9375 302.895 80.0566 302.445 80.2949 302.055C80.5332 301.664 80.8633 301.361 81.2852 301.146C81.7109 300.932 82.1934 300.824 82.7324 300.824C83.2676 300.824 83.7441 300.93 84.1621 301.141C84.5801 301.348 84.9062 301.635 85.1406 302.002C85.3789 302.365 85.498 302.773 85.498 303.227C85.498 303.551 85.4375 303.863 85.3164 304.164C85.1953 304.465 84.9902 304.797 84.7012 305.16C84.4121 305.523 83.998 305.971 83.459 306.502L81.7305 308.254V308.318H85.6387V309.426H79.9375L79.9316 308.488Z" fill="#545251"/>
<path d="M294.525 309.543C293.951 309.543 293.436 309.445 292.979 309.25C292.521 309.055 292.162 308.781 291.9 308.43C291.639 308.074 291.498 307.666 291.479 307.205H292.779C292.799 307.443 292.887 307.656 293.043 307.844C293.199 308.031 293.406 308.176 293.664 308.277C293.922 308.379 294.207 308.43 294.52 308.43C294.855 308.43 295.16 308.371 295.434 308.254C295.707 308.133 295.918 307.971 296.066 307.768C296.215 307.561 296.289 307.322 296.289 307.053C296.289 306.768 296.215 306.516 296.066 306.297C295.918 306.078 295.699 305.908 295.41 305.787C295.125 305.666 294.781 305.605 294.379 305.605H293.652V304.557H294.379C294.699 304.557 294.984 304.5 295.234 304.387C295.484 304.273 295.678 304.115 295.814 303.912C295.951 303.709 296.018 303.475 296.014 303.209C296.018 302.951 295.959 302.723 295.838 302.523C295.717 302.324 295.545 302.172 295.322 302.066C295.1 301.957 294.842 301.902 294.549 301.902C294.26 301.902 293.992 301.953 293.746 302.055C293.5 302.156 293.299 302.301 293.143 302.488C292.99 302.676 292.908 302.896 292.896 303.15H291.654C291.674 302.697 291.812 302.295 292.07 301.943C292.332 301.588 292.68 301.312 293.113 301.117C293.551 300.922 294.031 300.824 294.555 300.824C295.098 300.824 295.574 300.928 295.984 301.135C296.398 301.338 296.717 301.615 296.939 301.967C297.162 302.318 297.27 302.707 297.262 303.133C297.27 303.445 297.211 303.732 297.086 303.994C296.965 304.252 296.789 304.469 296.559 304.645C296.332 304.816 296.066 304.939 295.762 305.014V305.078C296.145 305.129 296.473 305.248 296.746 305.436C297.023 305.619 297.234 305.852 297.379 306.133C297.523 306.414 297.592 306.734 297.584 307.094C297.592 307.555 297.463 307.973 297.197 308.348C296.932 308.719 296.564 309.012 296.096 309.227C295.627 309.438 295.104 309.543 294.525 309.543ZM301.973 309.543C301.32 309.543 300.762 309.373 300.297 309.033C299.832 308.693 299.477 308.197 299.23 307.545C298.984 306.893 298.861 306.105 298.861 305.184C298.861 304.27 298.984 303.486 299.23 302.834C299.477 302.182 299.834 301.684 300.303 301.34C300.771 300.996 301.328 300.824 301.973 300.824C302.617 300.824 303.174 300.996 303.643 301.34C304.111 301.684 304.469 302.182 304.715 302.834C304.961 303.486 305.084 304.27 305.084 305.184C305.084 306.105 304.961 306.893 304.715 307.545C304.473 308.197 304.117 308.693 303.648 309.033C303.184 309.373 302.625 309.543 301.973 309.543ZM301.973 308.436C302.352 308.436 302.678 308.311 302.951 308.061C303.229 307.811 303.439 307.443 303.584 306.959C303.729 306.471 303.799 305.879 303.795 305.184C303.795 304.488 303.723 303.896 303.578 303.408C303.434 302.92 303.225 302.549 302.951 302.295C302.678 302.041 302.352 301.914 301.973 301.914C301.594 301.914 301.268 302.041 300.994 302.295C300.721 302.549 300.51 302.92 300.361 303.408C300.213 303.896 300.139 304.488 300.139 305.184C300.139 305.879 300.211 306.471 300.355 306.959C300.5 307.443 300.711 307.811 300.988 308.061C301.266 308.311 301.594 308.436 301.973 308.436Z" fill="#545251"/>
<path d="M351.695 309.543C351.121 309.543 350.605 309.445 350.148 309.25C349.691 309.055 349.332 308.781 349.07 308.43C348.809 308.074 348.668 307.666 348.648 307.205H349.949C349.969 307.443 350.057 307.656 350.213 307.844C350.369 308.031 350.576 308.176 350.834 308.277C351.092 308.379 351.377 308.43 351.689 308.43C352.025 308.43 352.33 308.371 352.604 308.254C352.877 308.133 353.088 307.971 353.236 307.768C353.385 307.561 353.459 307.322 353.459 307.053C353.459 306.768 353.385 306.516 353.236 306.297C353.088 306.078 352.869 305.908 352.58 305.787C352.295 305.666 351.951 305.605 351.549 305.605H350.822V304.557H351.549C351.869 304.557 352.154 304.5 352.404 304.387C352.654 304.273 352.848 304.115 352.984 303.912C353.121 303.709 353.188 303.475 353.184 303.209C353.188 302.951 353.129 302.723 353.008 302.523C352.887 302.324 352.715 302.172 352.492 302.066C352.27 301.957 352.012 301.902 351.719 301.902C351.43 301.902 351.162 301.953 350.916 302.055C350.67 302.156 350.469 302.301 350.312 302.488C350.16 302.676 350.078 302.896 350.066 303.15H348.824C348.844 302.697 348.982 302.295 349.24 301.943C349.502 301.588 349.85 301.312 350.283 301.117C350.721 300.922 351.201 300.824 351.725 300.824C352.268 300.824 352.744 300.928 353.154 301.135C353.568 301.338 353.887 301.615 354.109 301.967C354.332 302.318 354.439 302.707 354.432 303.133C354.439 303.445 354.381 303.732 354.256 303.994C354.135 304.252 353.959 304.469 353.729 304.645C353.502 304.816 353.236 304.939 352.932 305.014V305.078C353.314 305.129 353.643 305.248 353.916 305.436C354.193 305.619 354.404 305.852 354.549 306.133C354.693 306.414 354.762 306.734 354.754 307.094C354.762 307.555 354.633 307.973 354.367 308.348C354.102 308.719 353.734 309.012 353.266 309.227C352.797 309.438 352.273 309.543 351.695 309.543ZM356.184 308.488L359.131 305.518C359.486 305.15 359.76 304.854 359.951 304.627C360.143 304.4 360.285 304.178 360.379 303.959C360.477 303.736 360.525 303.506 360.525 303.268C360.525 302.998 360.457 302.76 360.32 302.553C360.184 302.346 359.996 302.186 359.758 302.072C359.52 301.959 359.252 301.902 358.955 301.902C358.646 301.902 358.375 301.965 358.141 302.09C357.91 302.211 357.73 302.387 357.602 302.617C357.477 302.844 357.414 303.105 357.414 303.402H356.189C356.189 302.895 356.309 302.445 356.547 302.055C356.785 301.664 357.115 301.361 357.537 301.146C357.963 300.932 358.445 300.824 358.984 300.824C359.52 300.824 359.996 300.93 360.414 301.141C360.832 301.348 361.158 301.635 361.393 302.002C361.631 302.365 361.75 302.773 361.75 303.227C361.75 303.551 361.689 303.863 361.568 304.164C361.447 304.465 361.242 304.797 360.953 305.16C360.664 305.523 360.25 305.971 359.711 306.502L357.982 308.254V308.318H361.891V309.426H356.189L356.184 308.488Z" fill="#545251"/>
<path d="M128.625 308.488L131.572 305.518C131.928 305.15 132.201 304.854 132.393 304.627C132.584 304.4 132.727 304.178 132.82 303.959C132.918 303.736 132.967 303.506 132.967 303.268C132.967 302.998 132.898 302.76 132.762 302.553C132.625 302.346 132.438 302.186 132.199 302.072C131.961 301.959 131.693 301.902 131.396 301.902C131.088 301.902 130.816 301.965 130.582 302.09C130.352 302.211 130.172 302.387 130.043 302.617C129.918 302.844 129.855 303.105 129.855 303.402H128.631C128.631 302.895 128.75 302.445 128.988 302.055C129.227 301.664 129.557 301.361 129.979 301.146C130.404 300.932 130.887 300.824 131.426 300.824C131.961 300.824 132.438 300.93 132.855 301.141C133.273 301.348 133.6 301.635 133.834 302.002C134.072 302.365 134.191 302.773 134.191 303.227C134.191 303.551 134.131 303.863 134.01 304.164C133.889 304.465 133.684 304.797 133.395 305.16C133.105 305.523 132.691 305.971 132.152 306.502L130.424 308.254V308.318H134.332V309.426H128.631L128.625 308.488ZM135.398 306.725L139.137 300.941H139.957V302.477H139.424L136.746 306.607V306.678H141.891V307.768H135.398V306.725ZM139.512 307.457L139.518 306.977V300.941H140.742V309.426H139.512V307.457Z" fill="#545251"/>
<path d="M186.354 308.488L189.301 305.518C189.656 305.15 189.93 304.854 190.121 304.627C190.312 304.4 190.455 304.178 190.549 303.959C190.646 303.736 190.695 303.506 190.695 303.268C190.695 302.998 190.627 302.76 190.49 302.553C190.354 302.346 190.166 302.186 189.928 302.072C189.689 301.959 189.422 301.902 189.125 301.902C188.816 301.902 188.545 301.965 188.311 302.09C188.08 302.211 187.9 302.387 187.771 302.617C187.646 302.844 187.584 303.105 187.584 303.402H186.359C186.359 302.895 186.479 302.445 186.717 302.055C186.955 301.664 187.285 301.361 187.707 301.146C188.133 300.932 188.615 300.824 189.154 300.824C189.689 300.824 190.166 300.93 190.584 301.141C191.002 301.348 191.328 301.635 191.562 302.002C191.801 302.365 191.92 302.773 191.92 303.227C191.92 303.551 191.859 303.863 191.738 304.164C191.617 304.465 191.412 304.797 191.123 305.16C190.834 305.523 190.42 305.971 189.881 306.502L188.152 308.254V308.318H192.061V309.426H186.359L186.354 308.488ZM196.566 309.543C195.992 309.535 195.465 309.402 194.984 309.145C194.508 308.887 194.117 308.455 193.812 307.85C193.512 307.244 193.361 306.449 193.361 305.465C193.361 304.492 193.496 303.658 193.766 302.963C194.035 302.264 194.418 301.732 194.914 301.369C195.41 301.006 195.996 300.824 196.672 300.824C197.188 300.824 197.646 300.924 198.049 301.123C198.455 301.318 198.785 301.592 199.039 301.943C199.297 302.295 199.459 302.697 199.525 303.15H198.248C198.186 302.912 198.084 302.703 197.943 302.523C197.807 302.34 197.631 302.199 197.416 302.102C197.201 302.004 196.953 301.955 196.672 301.955C196.238 301.955 195.867 302.076 195.559 302.318C195.25 302.557 195.014 302.904 194.85 303.361C194.686 303.818 194.602 304.367 194.598 305.008H194.691C194.848 304.77 195.035 304.564 195.254 304.393C195.477 304.221 195.727 304.09 196.004 304C196.281 303.906 196.57 303.859 196.871 303.859C197.371 303.859 197.83 303.98 198.248 304.223C198.67 304.461 199 304.791 199.238 305.213C199.48 305.635 199.602 306.113 199.602 306.648C199.602 307.195 199.475 307.689 199.221 308.131C198.967 308.572 198.609 308.918 198.148 309.168C197.688 309.418 197.16 309.543 196.566 309.543ZM196.561 308.465C196.896 308.465 197.199 308.385 197.469 308.225C197.742 308.064 197.957 307.848 198.113 307.574C198.273 307.297 198.354 306.998 198.354 306.678C198.354 306.346 198.277 306.045 198.125 305.775C197.973 305.506 197.762 305.295 197.492 305.143C197.223 304.986 196.918 304.908 196.578 304.908C196.246 304.908 195.941 304.99 195.664 305.154C195.387 305.314 195.166 305.531 195.002 305.805C194.842 306.074 194.758 306.367 194.75 306.684C194.754 306.992 194.834 307.283 194.99 307.557C195.15 307.83 195.367 308.051 195.641 308.219C195.914 308.383 196.221 308.465 196.561 308.465Z" fill="#545251"/>
<path d="M238.864 308.488L241.812 305.518C242.167 305.15 242.44 304.854 242.632 304.627C242.823 304.4 242.966 304.178 243.06 303.959C243.157 303.736 243.206 303.506 243.206 303.268C243.206 302.998 243.138 302.76 243.001 302.553C242.864 302.346 242.677 302.186 242.438 302.072C242.2 301.959 241.933 301.902 241.636 301.902C241.327 301.902 241.056 301.965 240.821 302.09C240.591 302.211 240.411 302.387 240.282 302.617C240.157 302.844 240.095 303.105 240.095 303.402H238.87C238.87 302.895 238.989 302.445 239.228 302.055C239.466 301.664 239.796 301.361 240.218 301.146C240.644 300.932 241.126 300.824 241.665 300.824C242.2 300.824 242.677 300.93 243.095 301.141C243.513 301.348 243.839 301.635 244.073 302.002C244.312 302.365 244.431 302.773 244.431 303.227C244.431 303.551 244.37 303.863 244.249 304.164C244.128 304.465 243.923 304.797 243.634 305.16C243.345 305.523 242.931 305.971 242.392 306.502L240.663 308.254V308.318H244.571V309.426H238.87L238.864 308.488ZM248.966 309.543C248.364 309.543 247.825 309.441 247.349 309.238C246.876 309.031 246.507 308.748 246.241 308.389C245.979 308.025 245.849 307.617 245.849 307.164C245.849 306.809 245.925 306.477 246.077 306.168C246.233 305.859 246.446 305.605 246.716 305.406C246.989 305.203 247.29 305.078 247.618 305.031V304.979C247.337 304.912 247.087 304.789 246.868 304.609C246.649 304.43 246.478 304.207 246.353 303.941C246.231 303.676 246.171 303.391 246.171 303.086C246.171 302.656 246.292 302.27 246.534 301.926C246.78 301.578 247.114 301.309 247.536 301.117C247.962 300.922 248.438 300.824 248.966 300.824C249.493 300.824 249.97 300.922 250.396 301.117C250.821 301.309 251.155 301.578 251.397 301.926C251.644 302.27 251.767 302.656 251.767 303.086C251.767 303.391 251.702 303.676 251.573 303.941C251.448 304.207 251.276 304.43 251.058 304.609C250.843 304.789 250.593 304.912 250.308 304.979V305.031C250.64 305.078 250.938 305.203 251.204 305.406C251.474 305.605 251.688 305.859 251.849 306.168C252.009 306.477 252.089 306.809 252.089 307.164C252.089 307.617 251.954 308.025 251.685 308.389C251.419 308.748 251.05 309.031 250.577 309.238C250.104 309.441 249.567 309.543 248.966 309.543ZM248.966 308.477C249.329 308.477 249.647 308.418 249.921 308.301C250.194 308.184 250.405 308.018 250.554 307.803C250.702 307.588 250.776 307.344 250.776 307.07C250.776 306.777 250.698 306.518 250.542 306.291C250.386 306.061 250.169 305.881 249.892 305.752C249.618 305.619 249.31 305.553 248.966 305.553C248.622 305.553 248.312 305.619 248.034 305.752C247.757 305.881 247.54 306.061 247.384 306.291C247.231 306.518 247.159 306.777 247.167 307.07C247.159 307.344 247.229 307.588 247.378 307.803C247.526 308.018 247.737 308.184 248.011 308.301C248.284 308.418 248.603 308.477 248.966 308.477ZM248.966 304.545C249.259 304.545 249.522 304.488 249.757 304.375C249.995 304.262 250.179 304.104 250.308 303.9C250.437 303.693 250.501 303.461 250.501 303.203C250.501 302.941 250.437 302.711 250.308 302.512C250.183 302.309 250.003 302.152 249.769 302.043C249.534 301.934 249.267 301.879 248.966 301.879C248.665 301.879 248.396 301.934 248.157 302.043C247.923 302.152 247.741 302.309 247.612 302.512C247.487 302.711 247.425 302.941 247.425 303.203C247.425 303.461 247.491 303.693 247.624 303.9C247.761 304.104 247.944 304.262 248.175 304.375C248.405 304.488 248.669 304.545 248.966 304.545Z" fill="#545251"/>
<g opacity="0.4">
<path opacity="0.32" d="M25.0801 154.656H354.05" stroke="#172A88" stroke-opacity="0.5" stroke-width="0.5" stroke-miterlimit="10" stroke-linecap="round"/>
<path opacity="0.32" d="M25.0801 30.7559H354.05" stroke="#172A88" stroke-width="0.5" stroke-miterlimit="10" stroke-linecap="round"/>
<path opacity="0.32" d="M25.0801 89.7168H354.05" stroke="#172A88" stroke-width="0.5" stroke-miterlimit="10" stroke-linecap="round"/>
<path opacity="0.32" d="M25.0801 219.596H354.05" stroke="#172A88" stroke-width="0.5" stroke-miterlimit="10" stroke-linecap="round"/>
<path opacity="0.32" d="M189.6 31.9062V289.456" stroke="#172A88" stroke-width="0.5" stroke-miterlimit="10" stroke-linecap="round"/>
<path opacity="0.32" d="M244.42 31.9062V289.456" stroke="#172A88" stroke-width="0.46" stroke-miterlimit="10" stroke-linecap="round"/>
<path opacity="0.32" d="M299.23 31.9062V289.456" stroke="#172A88" stroke-width="0.46" stroke-miterlimit="10" stroke-linecap="round"/>
<path opacity="0.32" d="M354.05 31.9062V289.456" stroke="#172A88" stroke-width="0.46" stroke-miterlimit="10" stroke-linecap="round"/>
<path opacity="0.32" d="M79.9805 31.9062V289.456" stroke="#172A88" stroke-width="0.46" stroke-miterlimit="10" stroke-linecap="round"/>
<path opacity="0.32" d="M134.79 31.9062V289.456" stroke="#172A88" stroke-width="0.46" stroke-miterlimit="10" stroke-linecap="round"/>
</g>
<path d="M4.65625 160.953C4.08203 160.953 3.56641 160.855 3.10938 160.66C2.65234 160.465 2.29297 160.191 2.03125 159.84C1.76953 159.484 1.62891 159.076 1.60938 158.615H2.91016C2.92969 158.854 3.01758 159.066 3.17383 159.254C3.33008 159.441 3.53711 159.586 3.79492 159.688C4.05273 159.789 4.33789 159.84 4.65039 159.84C4.98633 159.84 5.29102 159.781 5.56445 159.664C5.83789 159.543 6.04883 159.381 6.19727 159.178C6.3457 158.971 6.41992 158.732 6.41992 158.463C6.41992 158.178 6.3457 157.926 6.19727 157.707C6.04883 157.488 5.83008 157.318 5.54102 157.197C5.25586 157.076 4.91211 157.016 4.50977 157.016H3.7832V155.967H4.50977C4.83008 155.967 5.11523 155.91 5.36523 155.797C5.61523 155.684 5.80859 155.525 5.94531 155.322C6.08203 155.119 6.14844 154.885 6.14453 154.619C6.14844 154.361 6.08984 154.133 5.96875 153.934C5.84766 153.734 5.67578 153.582 5.45312 153.477C5.23047 153.367 4.97266 153.312 4.67969 153.312C4.39062 153.312 4.12305 153.363 3.87695 153.465C3.63086 153.566 3.42969 153.711 3.27344 153.898C3.12109 154.086 3.03906 154.307 3.02734 154.561H1.78516C1.80469 154.107 1.94336 153.705 2.20117 153.354C2.46289 152.998 2.81055 152.723 3.24414 152.527C3.68164 152.332 4.16211 152.234 4.68555 152.234C5.22852 152.234 5.70508 152.338 6.11523 152.545C6.5293 152.748 6.84766 153.025 7.07031 153.377C7.29297 153.729 7.40039 154.117 7.39258 154.543C7.40039 154.855 7.3418 155.143 7.2168 155.404C7.0957 155.662 6.91992 155.879 6.68945 156.055C6.46289 156.227 6.19727 156.35 5.89258 156.424V156.488C6.27539 156.539 6.60352 156.658 6.87695 156.846C7.1543 157.029 7.36523 157.262 7.50977 157.543C7.6543 157.824 7.72266 158.145 7.71484 158.504C7.72266 158.965 7.59375 159.383 7.32812 159.758C7.0625 160.129 6.69531 160.422 6.22656 160.637C5.75781 160.848 5.23438 160.953 4.65625 160.953ZM12.1035 160.953C11.4512 160.953 10.8926 160.783 10.4277 160.443C9.96289 160.104 9.60742 159.607 9.36133 158.955C9.11523 158.303 8.99219 157.516 8.99219 156.594C8.99219 155.68 9.11523 154.896 9.36133 154.244C9.60742 153.592 9.96484 153.094 10.4336 152.75C10.9023 152.406 11.459 152.234 12.1035 152.234C12.748 152.234 13.3047 152.406 13.7734 152.75C14.2422 153.094 14.5996 153.592 14.8457 154.244C15.0918 154.896 15.2148 155.68 15.2148 156.594C15.2148 157.516 15.0918 158.303 14.8457 158.955C14.6035 159.607 14.248 160.104 13.7793 160.443C13.3145 160.783 12.7559 160.953 12.1035 160.953ZM12.1035 159.846C12.4824 159.846 12.8086 159.721 13.082 159.471C13.3594 159.221 13.5703 158.854 13.7148 158.369C13.8594 157.881 13.9297 157.289 13.9258 156.594C13.9258 155.898 13.8535 155.307 13.709 154.818C13.5645 154.33 13.3555 153.959 13.082 153.705C12.8086 153.451 12.4824 153.324 12.1035 153.324C11.7246 153.324 11.3984 153.451 11.125 153.705C10.8516 153.959 10.6406 154.33 10.4922 154.818C10.3438 155.307 10.2695 155.898 10.2695 156.594C10.2695 157.289 10.3418 157.881 10.4863 158.369C10.6309 158.854 10.8418 159.221 11.1191 159.471C11.3965 159.721 11.7246 159.846 12.1035 159.846Z" fill="#545251"/>
<path d="M2.125 224.678L5.07227 221.707C5.42773 221.34 5.70117 221.043 5.89258 220.816C6.08398 220.59 6.22656 220.367 6.32031 220.148C6.41797 219.926 6.4668 219.695 6.4668 219.457C6.4668 219.188 6.39844 218.949 6.26172 218.742C6.125 218.535 5.9375 218.375 5.69922 218.262C5.46094 218.148 5.19336 218.092 4.89648 218.092C4.58789 218.092 4.31641 218.154 4.08203 218.279C3.85156 218.4 3.67188 218.576 3.54297 218.807C3.41797 219.033 3.35547 219.295 3.35547 219.592H2.13086C2.13086 219.084 2.25 218.635 2.48828 218.244C2.72656 217.854 3.05664 217.551 3.47852 217.336C3.9043 217.121 4.38672 217.014 4.92578 217.014C5.46094 217.014 5.9375 217.119 6.35547 217.33C6.77344 217.537 7.09961 217.824 7.33398 218.191C7.57227 218.555 7.69141 218.963 7.69141 219.416C7.69141 219.74 7.63086 220.053 7.50977 220.354C7.38867 220.654 7.18359 220.986 6.89453 221.35C6.60547 221.713 6.19141 222.16 5.65234 222.691L3.92383 224.443V224.508H7.83203V225.615H2.13086L2.125 224.678ZM12.1562 225.732C11.6289 225.732 11.1484 225.633 10.7148 225.434C10.2852 225.23 9.94336 224.951 9.68945 224.596C9.43945 224.24 9.30469 223.84 9.28516 223.395H10.5332C10.5605 223.637 10.6484 223.852 10.7969 224.039C10.9492 224.227 11.1426 224.377 11.377 224.49C11.6152 224.6 11.875 224.654 12.1562 224.654C12.4922 224.654 12.793 224.578 13.0586 224.426C13.3281 224.273 13.5391 224.064 13.6914 223.799C13.8438 223.529 13.9199 223.23 13.9199 222.902C13.9199 222.555 13.8418 222.248 13.6855 221.982C13.5332 221.713 13.3164 221.5 13.0352 221.344C12.7578 221.188 12.4453 221.109 12.0977 221.109C11.7461 221.102 11.4453 221.158 11.1953 221.279C10.9453 221.4 10.748 221.592 10.6035 221.854H9.39062L9.94141 217.131H14.7461V218.238H11.0137L10.7207 220.605H10.7969C10.9844 220.438 11.2188 220.301 11.5 220.195C11.7852 220.09 12.084 220.037 12.3965 220.037C12.9238 220.037 13.3984 220.158 13.8203 220.4C14.2461 220.639 14.5781 220.975 14.8164 221.408C15.0586 221.838 15.1777 222.324 15.1738 222.867C15.1777 223.414 15.0488 223.906 14.7871 224.344C14.5293 224.777 14.1699 225.117 13.709 225.363C13.252 225.609 12.7344 225.732 12.1562 225.732Z" fill="#545251"/>
<path d="M5.43896 181.963L7.64941 179.735C7.91602 179.459 8.12109 179.237 8.26465 179.067C8.4082 178.897 8.51514 178.73 8.58545 178.566C8.65869 178.399 8.69531 178.226 8.69531 178.047C8.69531 177.845 8.64404 177.667 8.5415 177.511C8.43896 177.356 8.29834 177.236 8.11963 177.151C7.94092 177.066 7.74023 177.023 7.51758 177.023C7.28613 177.023 7.08252 177.07 6.90674 177.164C6.73389 177.255 6.59912 177.387 6.50244 177.56C6.40869 177.729 6.36182 177.926 6.36182 178.148H5.44336C5.44336 177.768 5.53271 177.431 5.71143 177.138C5.89014 176.845 6.1377 176.618 6.4541 176.457C6.77344 176.295 7.13525 176.215 7.53955 176.215C7.94092 176.215 8.29834 176.294 8.61182 176.452C8.92529 176.607 9.16992 176.823 9.3457 177.098C9.52441 177.371 9.61377 177.677 9.61377 178.017C9.61377 178.26 9.56836 178.494 9.47754 178.72C9.38672 178.945 9.23291 179.194 9.01611 179.467C8.79932 179.739 8.48877 180.075 8.08447 180.473L6.78809 181.787V181.835H9.71924V182.666H5.44336L5.43896 181.963ZM13.0151 182.754C12.564 182.754 12.1597 182.678 11.8022 182.525C11.4478 182.37 11.1709 182.158 10.9717 181.888C10.7754 181.616 10.6772 181.31 10.6772 180.97C10.6772 180.703 10.7344 180.454 10.8486 180.223C10.9658 179.991 11.1255 179.801 11.3276 179.651C11.5327 179.499 11.7583 179.405 12.0044 179.37V179.331C11.7935 179.281 11.606 179.188 11.4419 179.054C11.2778 178.919 11.1489 178.752 11.0552 178.553C10.9644 178.354 10.9189 178.14 10.9189 177.911C10.9189 177.589 11.0098 177.299 11.1914 177.041C11.376 176.78 11.6265 176.578 11.9429 176.435C12.2622 176.288 12.6196 176.215 13.0151 176.215C13.4106 176.215 13.7681 176.288 14.0874 176.435C14.4067 176.578 14.6572 176.78 14.8389 177.041C15.0234 177.299 15.1157 177.589 15.1157 177.911C15.1157 178.14 15.0674 178.354 14.9707 178.553C14.877 178.752 14.748 178.919 14.584 179.054C14.4229 179.188 14.2354 179.281 14.0215 179.331V179.37C14.2705 179.405 14.4946 179.499 14.6938 179.651C14.896 179.801 15.0571 179.991 15.1772 180.223C15.2974 180.454 15.3574 180.703 15.3574 180.97C15.3574 181.31 15.2563 181.616 15.0542 181.888C14.855 182.158 14.5781 182.37 14.2236 182.525C13.8691 182.678 13.4663 182.754 13.0151 182.754ZM13.0151 181.954C13.2876 181.954 13.5264 181.91 13.7314 181.822C13.9365 181.734 14.0947 181.61 14.2061 181.449C14.3174 181.288 14.373 181.104 14.373 180.899C14.373 180.68 14.3145 180.485 14.1973 180.315C14.0801 180.142 13.9175 180.007 13.7095 179.911C13.5044 179.811 13.2729 179.761 13.0151 179.761C12.7573 179.761 12.5244 179.811 12.3164 179.911C12.1084 180.007 11.9458 180.142 11.8286 180.315C11.7144 180.485 11.6602 180.68 11.666 180.899C11.6602 181.104 11.7129 181.288 11.8242 181.449C11.9355 181.61 12.0938 181.734 12.2988 181.822C12.5039 181.91 12.7427 181.954 13.0151 181.954ZM13.0151 179.005C13.2349 179.005 13.4326 178.963 13.6084 178.878C13.7871 178.793 13.9248 178.674 14.0215 178.522C14.1182 178.367 14.1665 178.192 14.1665 177.999C14.1665 177.803 14.1182 177.63 14.0215 177.48C13.9277 177.328 13.793 177.211 13.6172 177.129C13.4414 177.047 13.2407 177.006 13.0151 177.006C12.7896 177.006 12.5874 177.047 12.4087 177.129C12.2329 177.211 12.0967 177.328 12 177.48C11.9062 177.63 11.8594 177.803 11.8594 177.999C11.8594 178.192 11.9092 178.367 12.0088 178.522C12.1113 178.674 12.249 178.793 12.4219 178.878C12.5947 178.963 12.7925 179.005 13.0151 179.005Z" fill="#9E9E9E"/>
<path d="M8.95752 139.164C8.52686 139.164 8.14014 139.091 7.79736 138.944C7.45459 138.798 7.18506 138.593 6.98877 138.329C6.79248 138.062 6.68701 137.756 6.67236 137.411H7.64795C7.6626 137.589 7.72852 137.749 7.8457 137.89C7.96289 138.03 8.11816 138.139 8.31152 138.215C8.50488 138.291 8.71875 138.329 8.95312 138.329C9.20508 138.329 9.43359 138.285 9.63867 138.197C9.84375 138.106 10.002 137.985 10.1133 137.833C10.2246 137.677 10.2803 137.499 10.2803 137.296C10.2803 137.083 10.2246 136.894 10.1133 136.729C10.002 136.565 9.83789 136.438 9.62109 136.347C9.40723 136.256 9.14941 136.211 8.84766 136.211H8.30273V135.424H8.84766C9.08789 135.424 9.30176 135.382 9.48926 135.297C9.67676 135.212 9.82178 135.093 9.92432 134.941C10.0269 134.789 10.0767 134.613 10.0737 134.414C10.0767 134.22 10.0327 134.049 9.94189 133.899C9.85107 133.75 9.72217 133.636 9.55518 133.557C9.38818 133.475 9.19482 133.434 8.9751 133.434C8.7583 133.434 8.55762 133.472 8.37305 133.548C8.18848 133.624 8.0376 133.732 7.92041 133.873C7.80615 134.014 7.74463 134.179 7.73584 134.37H6.8042C6.81885 134.03 6.92285 133.728 7.11621 133.464C7.3125 133.198 7.57324 132.991 7.89844 132.845C8.22656 132.698 8.58691 132.625 8.97949 132.625C9.38672 132.625 9.74414 132.703 10.0518 132.858C10.3623 133.01 10.6011 133.218 10.7681 133.482C10.9351 133.746 11.0156 134.037 11.0098 134.356C11.0156 134.591 10.9717 134.806 10.8779 135.002C10.7871 135.196 10.6553 135.358 10.4824 135.49C10.3125 135.619 10.1133 135.711 9.88477 135.767V135.815C10.1719 135.854 10.418 135.943 10.623 136.083C10.8311 136.221 10.9893 136.396 11.0977 136.606C11.2061 136.817 11.2573 137.058 11.2515 137.327C11.2573 137.673 11.1606 137.986 10.9614 138.268C10.7622 138.546 10.4868 138.766 10.1353 138.927C9.78369 139.085 9.39111 139.164 8.95752 139.164ZM14.7451 139.076H13.7695V133.684H13.7344L12.2183 134.677V133.75L13.7959 132.713H14.7451V139.076Z" fill="#9E9E9E"/>
<path d="M4.77637 96.1836C4.20215 96.1836 3.68652 96.0859 3.22949 95.8906C2.77246 95.6953 2.41309 95.4219 2.15137 95.0703C1.88965 94.7148 1.74902 94.3066 1.72949 93.8457H3.03027C3.0498 94.084 3.1377 94.2969 3.29395 94.4844C3.4502 94.6719 3.65723 94.8164 3.91504 94.918C4.17285 95.0195 4.45801 95.0703 4.77051 95.0703C5.10645 95.0703 5.41113 95.0117 5.68457 94.8945C5.95801 94.7734 6.16895 94.6113 6.31738 94.4082C6.46582 94.2012 6.54004 93.9629 6.54004 93.6934C6.54004 93.4082 6.46582 93.1562 6.31738 92.9375C6.16895 92.7188 5.9502 92.5488 5.66113 92.4277C5.37598 92.3066 5.03223 92.2461 4.62988 92.2461H3.90332V91.1973H4.62988C4.9502 91.1973 5.23535 91.1406 5.48535 91.0273C5.73535 90.9141 5.92871 90.7559 6.06543 90.5527C6.20215 90.3496 6.26855 90.1152 6.26465 89.8496C6.26855 89.5918 6.20996 89.3633 6.08887 89.1641C5.96777 88.9648 5.7959 88.8125 5.57324 88.707C5.35059 88.5977 5.09277 88.543 4.7998 88.543C4.51074 88.543 4.24316 88.5938 3.99707 88.6953C3.75098 88.7969 3.5498 88.9414 3.39355 89.1289C3.24121 89.3164 3.15918 89.5371 3.14746 89.791H1.90527C1.9248 89.3379 2.06348 88.9355 2.32129 88.584C2.58301 88.2285 2.93066 87.9531 3.36426 87.7578C3.80176 87.5625 4.28223 87.4648 4.80566 87.4648C5.34863 87.4648 5.8252 87.5684 6.23535 87.7754C6.64941 87.9785 6.96777 88.2559 7.19043 88.6074C7.41309 88.959 7.52051 89.3477 7.5127 89.7734C7.52051 90.0859 7.46191 90.373 7.33691 90.6348C7.21582 90.8926 7.04004 91.1094 6.80957 91.2852C6.58301 91.457 6.31738 91.5801 6.0127 91.6543V91.7188C6.39551 91.7695 6.72363 91.8887 6.99707 92.0762C7.27441 92.2598 7.48535 92.4922 7.62988 92.7734C7.77441 93.0547 7.84277 93.375 7.83496 93.7344C7.84277 94.1953 7.71387 94.6133 7.44824 94.9883C7.18262 95.3594 6.81543 95.6523 6.34668 95.8672C5.87793 96.0781 5.35449 96.1836 4.77637 96.1836ZM12.1592 96.1836C11.6318 96.1836 11.1514 96.084 10.7178 95.8848C10.2881 95.6816 9.94629 95.4023 9.69238 95.0469C9.44238 94.6914 9.30762 94.291 9.28809 93.8457H10.5361C10.5635 94.0879 10.6514 94.3027 10.7998 94.4902C10.9521 94.6777 11.1455 94.8281 11.3799 94.9414C11.6182 95.0508 11.8779 95.1055 12.1592 95.1055C12.4951 95.1055 12.7959 95.0293 13.0615 94.877C13.3311 94.7246 13.542 94.5156 13.6943 94.25C13.8467 93.9805 13.9229 93.6816 13.9229 93.3535C13.9229 93.0059 13.8447 92.6992 13.6885 92.4336C13.5361 92.1641 13.3193 91.9512 13.0381 91.7949C12.7607 91.6387 12.4482 91.5605 12.1006 91.5605C11.749 91.5527 11.4482 91.6094 11.1982 91.7305C10.9482 91.8516 10.751 92.043 10.6064 92.3047H9.39355L9.94434 87.582H14.749V88.6895H11.0166L10.7236 91.0566H10.7998C10.9873 90.8887 11.2217 90.752 11.5029 90.6465C11.7881 90.541 12.0869 90.4883 12.3994 90.4883C12.9268 90.4883 13.4014 90.6094 13.8232 90.8516C14.249 91.0898 14.5811 91.4258 14.8193 91.8594C15.0615 92.2891 15.1807 92.7754 15.1768 93.3184C15.1807 93.8652 15.0518 94.3574 14.79 94.7949C14.5322 95.2285 14.1729 95.5684 13.7119 95.8145C13.2549 96.0605 12.7373 96.1836 12.1592 96.1836Z" fill="#545251"/>
<path d="M1.46875 28.5859L5.20703 22.8027H6.02734V24.3379H5.49414L2.81641 28.4688V28.5391H7.96094V29.6289H1.46875V28.5859ZM5.58203 29.3184L5.58789 28.8379V22.8027H6.8125V31.2871H5.58203V29.3184ZM12.2207 31.4043C11.5684 31.4043 11.0098 31.2344 10.5449 30.8945C10.0801 30.5547 9.72461 30.0586 9.47852 29.4062C9.23242 28.7539 9.10938 27.9668 9.10938 27.0449C9.10938 26.1309 9.23242 25.3477 9.47852 24.6953C9.72461 24.043 10.082 23.5449 10.5508 23.2012C11.0195 22.8574 11.5762 22.6855 12.2207 22.6855C12.8652 22.6855 13.4219 22.8574 13.8906 23.2012C14.3594 23.5449 14.7168 24.043 14.9629 24.6953C15.209 25.3477 15.332 26.1309 15.332 27.0449C15.332 27.9668 15.209 28.7539 14.9629 29.4062C14.7207 30.0586 14.3652 30.5547 13.8965 30.8945C13.4316 31.2344 12.873 31.4043 12.2207 31.4043ZM12.2207 30.2969C12.5996 30.2969 12.9258 30.1719 13.1992 29.9219C13.4766 29.6719 13.6875 29.3047 13.832 28.8203C13.9766 28.332 14.0469 27.7402 14.043 27.0449C14.043 26.3496 13.9707 25.7578 13.8262 25.2695C13.6816 24.7812 13.4727 24.4102 13.1992 24.1562C12.9258 23.9023 12.5996 23.7754 12.2207 23.7754C11.8418 23.7754 11.5156 23.9023 11.2422 24.1562C10.9688 24.4102 10.7578 24.7812 10.6094 25.2695C10.4609 25.7578 10.3867 26.3496 10.3867 27.0449C10.3867 27.7402 10.459 28.332 10.6035 28.8203C10.748 29.3047 10.959 29.6719 11.2363 29.9219C11.5137 30.1719 11.8418 30.2969 12.2207 30.2969Z" fill="#545251"/>
</svg>
