<svg width="75" height="73" viewBox="0 0 75 73" fill="none" xmlns="http://www.w3.org/2000/svg">
<path d="M22.5 7.25488C22.5 14.5674 15 14.5674 15 21.8799C15 29.1924 22.5 29.1924 22.5 36.5049C22.5 43.8174 15 43.8174 15 51.1299C15 58.4424 22.5 58.4424 22.5 65.7549" stroke="white" stroke-width="3.5" stroke-linecap="round" stroke-linejoin="round"/>
<path d="M43.5 7.25488C43.5 14.5674 34.5 14.5674 34.5 21.8799C34.5 29.1924 43.5 29.1924 43.5 36.5049C43.5 43.8174 34.5 43.8174 34.5 51.1299C34.5 58.4424 43.5 58.4424 43.5 65.7549" stroke="white" stroke-width="3.5" stroke-linecap="round" stroke-linejoin="round"/>
<path d="M61.5 7.25488C61.5 14.5674 54 14.5674 54 21.8799C54 29.1924 61.5 29.1924 61.5 36.5049C61.5 43.8174 54 43.8174 54 51.1299C54 58.4424 61.5 58.4424 61.5 65.7549" stroke="white" stroke-width="3.5" stroke-linecap="round" stroke-linejoin="round"/>
</svg>
