<svg width="71" height="71" viewBox="0 0 71 71" fill="none" xmlns="http://www.w3.org/2000/svg">
<path d="M70.3662 35.3144C70.3662 34.6198 69.8029 34.0564 69.1084 34.0564H61.2883L68.7728 27.8594C69.308 27.416 69.383 26.623 68.9397 26.0877C68.4963 25.5525 67.7033 25.4775 67.1681 25.9209L57.3431 34.0564H44.9649C44.739 32.3269 44.0566 30.739 43.0406 29.4201L51.8045 20.6556L64.4893 19.4567C65.181 19.3911 65.689 18.7771 65.6234 18.0853C65.5578 17.3935 64.9467 16.8854 64.2521 16.951L54.5958 17.8641L60.1148 12.3447C60.6059 11.8536 60.6059 11.0568 60.1148 10.5656C59.6236 10.0744 58.8269 10.0744 58.3357 10.5656L52.7962 16.1055L53.7035 6.41299C53.7682 5.7212 53.2602 5.10815 52.5684 5.04253C51.8757 4.97692 51.2637 5.48592 51.1981 6.1777L50.0077 18.8942L41.2606 27.6419C39.9408 26.6258 38.354 25.9434 36.6246 25.7174V13.3384L44.7596 3.51272C45.203 2.97748 45.128 2.18445 44.5928 1.74107C44.0575 1.29769 43.2646 1.37268 42.8212 1.90793L36.6237 9.39293V1.57047C36.6237 0.875867 36.0603 0.3125 35.3658 0.3125C34.6712 0.3125 34.1079 0.875867 34.1079 1.57047V9.39105L27.9113 1.90605C27.4679 1.37081 26.6759 1.29581 26.1397 1.7392C25.6045 2.18258 25.5295 2.9756 25.9729 3.51085L34.1079 13.3365V25.7156C32.3785 25.9415 30.7907 26.6239 29.4719 27.64L20.7248 18.8924L19.5344 6.17583C19.4698 5.48404 18.8596 4.97504 18.1641 5.04066C17.4723 5.10534 16.9643 5.71932 17.029 6.41111L17.9363 16.1037L12.3968 10.5637C11.9056 10.0725 11.1089 10.0725 10.6177 10.5637C10.1266 11.0549 10.1266 11.8517 10.6177 12.3429L16.1367 17.8622L6.48039 16.9492C5.78865 16.8845 5.1747 17.3916 5.10909 18.0834C5.04348 18.7752 5.5515 19.3892 6.24325 19.4548L18.928 20.6537L27.6919 29.4182C26.6759 30.7381 25.9935 32.3251 25.7676 34.0545H13.4287L3.57751 25.874C3.04324 25.4297 2.24933 25.5037 1.80597 26.038C1.36168 26.5723 1.43573 27.3663 1.97 27.8097L9.49012 34.0545H1.62507C0.930517 34.0545 0.367188 34.6179 0.367188 35.3125C0.367188 36.0071 0.930517 36.5705 1.62507 36.5705H9.39827L1.94938 42.7206C1.41324 43.1631 1.33731 43.9561 1.77973 44.4923C2.02812 44.7941 2.38805 44.9497 2.75079 44.9497C3.03293 44.9497 3.31693 44.8551 3.55126 44.662L13.35 36.5714H25.7676C25.9935 38.3009 26.6759 39.8888 27.6919 41.2077L18.928 49.9722L6.24325 51.1711C5.5515 51.2368 5.04348 51.8507 5.10909 52.5425C5.17095 53.194 5.71835 53.6824 6.36041 53.6824C6.39978 53.6824 6.44008 53.6805 6.48039 53.6768L16.1367 52.7638L10.6177 58.2831C10.1266 58.7743 10.1266 59.571 10.6177 60.0622C10.8633 60.3078 11.1857 60.4306 11.5072 60.4306C11.8287 60.4306 12.1512 60.3078 12.3968 60.0622L17.9363 54.5223L17.029 64.2148C16.9643 64.9066 17.4723 65.5197 18.1641 65.5853C18.2044 65.589 18.2438 65.5909 18.2831 65.5909C18.9252 65.5909 19.4735 65.1016 19.5344 64.4501L20.7248 51.7336L29.4719 42.9859C30.7917 44.002 32.3785 44.6845 34.1079 44.9104V57.3288L26.0179 67.1282C25.5755 67.6644 25.6514 68.4574 26.1875 68.8999C26.4219 69.093 26.7059 69.1876 26.988 69.1876C27.3508 69.1876 27.7107 69.032 27.9591 68.7302L34.1088 61.2808V69.0545C34.1088 69.7491 34.6722 70.3125 35.3667 70.3125C36.0613 70.3125 36.6246 69.7491 36.6246 69.0545V61.188L42.869 68.7086C43.1174 69.0086 43.4764 69.1633 43.8373 69.1633C44.1203 69.1633 44.4053 69.0686 44.6406 68.8727C45.1748 68.4284 45.2489 67.6353 44.8046 67.101L36.6246 57.2491V44.9094C38.354 44.6835 39.9418 44.0011 41.2615 42.985L50.0086 51.7326L51.199 64.4492C51.2599 65.1016 51.8082 65.59 52.4503 65.59C52.4897 65.59 52.529 65.5881 52.5694 65.5843C53.2611 65.5197 53.7691 64.9066 53.7044 64.2139L52.7971 54.5213L58.3367 60.0613C58.5823 60.3069 58.9047 60.4297 59.2262 60.4297C59.5477 60.4297 59.8701 60.3069 60.1157 60.0613C60.6069 59.5701 60.6069 58.7733 60.1157 58.2821L54.5968 52.7628L64.2531 53.6758C64.2934 53.6796 64.3337 53.6815 64.373 53.6815C65.0142 53.6815 65.5625 53.1931 65.6244 52.5416C65.69 51.8498 65.1819 51.2358 64.4902 51.1702L51.8054 49.9713L43.0415 41.2068C44.0576 39.8869 44.7399 38.2999 44.9658 36.5705H57.3441L67.1691 44.706C67.4043 44.9001 67.6883 44.9947 67.9705 44.9947C68.3323 44.9947 68.6913 44.8391 68.9406 44.5392C69.3839 44.0039 69.309 43.2109 68.7737 42.7675L61.2892 36.5695H69.1093C69.8039 36.5695 70.3672 36.0062 70.3672 35.3116L70.3662 35.3144ZM35.3667 42.4807C31.415 42.4807 28.2009 39.2654 28.2009 35.3144C28.2009 31.3633 31.4159 28.1481 35.3667 28.1481C39.3175 28.1481 42.5325 31.3633 42.5325 35.3144C42.5325 39.2654 39.3175 42.4807 35.3667 42.4807Z" fill="white"/>
</svg>
