<svg width="429" height="194" viewBox="0 0 429 194" fill="none" xmlns="http://www.w3.org/2000/svg">
<path d="M144.006 44.7012C144.006 43.5966 144.901 42.7012 146.006 42.7012H165.902C167.007 42.7012 167.902 43.5966 167.902 44.7012V84.1492C167.902 85.2537 167.007 86.1492 165.902 86.1492H146.006C144.901 86.1492 144.006 85.2537 144.006 84.1492V44.7012Z" fill="#5EE9E4"/>
<path d="M245.006 44.7012C245.006 43.5966 245.901 42.7012 247.006 42.7012H270.161C271.265 42.7012 272.161 43.5966 272.161 44.7012V84.1492C272.161 85.2537 271.265 86.1492 270.161 86.1492H247.006C245.901 86.1492 245.006 85.2537 245.006 84.1492V44.7012Z" fill="#5EE9E4"/>
<path d="M357.006 44.7988C357.006 43.6943 357.901 42.7988 359.006 42.7988H389.764C390.869 42.7988 391.764 43.6943 391.764 44.7988V84.2468C391.764 85.3514 390.869 86.2468 389.764 86.2468H359.006C357.901 86.2468 357.006 85.3514 357.006 84.2468V44.7988Z" fill="#5EE9E4"/>
</svg>
