<svg width="52" height="89" viewBox="0 0 52 89" fill="none" xmlns="http://www.w3.org/2000/svg">
<g clip-path="url(#clip0_1284_128806)">
<path d="M51.126 36.8994C51.0963 36.1546 50.4765 35.5656 49.7338 35.5799C49.2493 35.5861 37.7923 35.8248 30.7946 43.2077C29.1084 44.987 27.8515 47.0031 26.9131 49.0447V28.9827C28.3606 27.4287 33.0176 21.9021 33.0176 15.1522C33.0176 7.32988 26.7636 1.15066 26.4972 0.891484C25.9635 0.37211 25.1122 0.37211 24.5785 0.891484C24.3122 1.15066 18.0582 7.32988 18.0582 15.1522C18.0582 21.9021 22.7151 27.4287 24.1626 28.9827V40.0617C23.2314 38.0641 21.9908 36.0942 20.3395 34.3527C13.3438 26.9688 1.88585 26.7311 1.40131 26.7239C1.39516 26.7239 1.38902 26.7239 1.38287 26.7239C0.646321 26.7239 0.038848 27.3058 0.00914021 28.0434C-0.0103235 28.5269 -0.387305 39.9808 6.61041 47.3647C12.2631 53.3298 20.8271 54.6308 24.1636 54.9146V66.9933C23.8215 66.4924 23.4363 66.0068 23.0009 65.5489C18.9187 61.2423 12.2723 61.103 11.9916 61.0999C11.2489 61.0897 10.6292 61.6746 10.5995 62.4194C10.5882 62.7001 10.37 69.3443 14.4522 73.651C17.4988 76.8655 21.9724 77.7578 24.1636 78.0057V86.8105C24.1636 87.5696 24.7793 88.1852 25.5384 88.1852C26.2975 88.1852 26.9131 87.5696 26.9131 86.8105V63.7757C30.2086 63.5022 38.8393 62.2206 44.5247 56.2207C51.5214 48.8378 51.1454 37.3839 51.126 36.8994ZM16.4478 71.7589C14.192 69.3792 13.5723 65.9218 13.4053 63.9847C15.3322 64.2551 18.7496 65.0603 21.0054 67.44C23.2611 69.8197 23.8809 73.277 24.0479 75.2142C22.1209 74.9438 18.7035 74.1386 16.4478 71.7589ZM25.5384 3.92577C27.161 5.8619 30.2681 10.2156 30.2681 15.1512C30.2681 20.0868 27.159 24.4436 25.5363 26.3787C23.9137 24.4487 20.8087 20.1073 20.8087 15.1512C20.8087 10.1951 23.9167 5.8619 25.5384 3.92577ZM8.60596 45.4726C3.76359 40.3629 2.91538 32.7075 2.77709 29.5708C5.90255 29.8771 13.5016 31.134 18.344 36.2437C23.0941 41.2562 23.9997 48.7138 24.1626 51.9581V52.1476C21.0351 51.8444 13.4586 50.5936 8.60493 45.4736L8.60596 45.4726ZM42.5292 54.3286C37.6868 59.4383 30.0888 60.6953 26.9623 61.0016C27.1006 57.8638 27.9488 50.2084 32.7901 45.0997C37.6325 39.99 45.2316 38.732 48.357 38.4267C48.2187 41.5645 47.3715 49.2189 42.5292 54.3286Z" fill="white"/>
</g>
<defs>
<clipPath id="clip0_1284_128806">
<rect width="51.1353" height="87.684" fill="white" transform="translate(0 0.501953)"/>
</clipPath>
</defs>
</svg>
