<svg width="361" height="351" viewBox="0 0 361 351" fill="none" xmlns="http://www.w3.org/2000/svg">
<path opacity="0.5" d="M352.03 32.8633H23.3398V176.733H352.03V32.8633Z" fill="#FFCFCF"/>
<mask id="mask0_1284_128511" style="mask-type:luminance" maskUnits="userSpaceOnUse" x="23" y="31" width="330" height="146">
<path d="M352.03 31.2637H23.3398V176.724H352.03V31.2637Z" fill="white"/>
</mask>
<g mask="url(#mask0_1284_128511)">
<g opacity="0.7">
<path d="M413.411 29.4336L267.211 253.744H267.651L413.411 30.1136V29.4336Z" fill="white"/>
<path d="M413.41 42.8926L275.98 253.743H276.43L413.41 43.5826V42.8926Z" fill="white"/>
<path d="M413.408 56.3633L284.758 253.743H285.208L413.408 57.0433V56.3633Z" fill="white"/>
<path d="M413.409 69.8242L293.539 253.744H293.979L413.409 70.5142V69.8242Z" fill="white"/>
<path d="M413.409 83.293L302.309 253.743H302.759L413.409 83.983V83.293Z" fill="white"/>
<path d="M413.41 96.7637L311.09 253.744H311.54L413.41 97.4437V96.7637Z" fill="white"/>
<path d="M413.411 110.223L319.871 253.743H320.311L413.411 110.913V110.223Z" fill="white"/>
<path d="M413.411 123.693L328.641 253.743H329.091L413.411 124.373V123.693Z" fill="white"/>
<path d="M413.412 137.152L337.422 253.742H337.872L413.412 137.842V137.152Z" fill="white"/>
<path d="M413.409 150.623L346.199 253.743H346.649L413.409 151.313V150.623Z" fill="white"/>
<path d="M27.5895 28.873L-118.98 253.743H-118.54L28.0295 28.873H27.5895Z" fill="white"/>
<path d="M36.3591 28.873L-110.211 253.743H-109.761L36.8091 28.873H36.3591Z" fill="white"/>
<path d="M45.1403 28.873L-101.43 253.743H-100.98L45.5903 28.873H45.1403Z" fill="white"/>
<path d="M53.9216 28.873L-92.6484 253.743H-92.2084L54.3616 28.873H53.9216Z" fill="white"/>
<path d="M62.6911 28.873L-83.8789 253.743H-83.4289L63.1411 28.873H62.6911Z" fill="white"/>
<path d="M71.4684 28.873L-75.1016 253.743H-74.6516L71.9184 28.873H71.4684Z" fill="white"/>
<path d="M80.2497 28.873L-66.3203 253.743H-65.8803L80.6997 28.873H80.2497Z" fill="white"/>
<path d="M89.0292 28.873L-57.5508 253.743H-57.1008L89.4692 28.873H89.0292Z" fill="white"/>
<path d="M97.8005 28.873L-48.7695 253.743H-48.3195L98.2505 28.873H97.8005Z" fill="white"/>
<path d="M106.578 28.873L-39.9922 253.743H-39.5422L107.028 28.873H106.578Z" fill="white"/>
<path d="M115.359 28.873L-31.2109 253.743H-30.7709L115.799 28.873H115.359Z" fill="white"/>
<path d="M124.129 28.873L-22.4414 253.743H-21.9914L124.579 28.873H124.129Z" fill="white"/>
<path d="M132.91 28.873L-13.6602 253.743H-13.2102L133.36 28.873H132.91Z" fill="white"/>
<path d="M141.691 28.873L-4.87891 253.743H-4.43891L142.131 28.873H141.691Z" fill="white"/>
<path d="M150.461 28.873L3.89062 253.743H4.34062L150.911 28.873H150.461Z" fill="white"/>
<path d="M159.238 28.873L12.668 253.743H13.118L159.688 28.873H159.238Z" fill="white"/>
<path d="M168.019 28.873L21.4492 253.743H21.8992L168.469 28.873H168.019Z" fill="white"/>
<path d="M176.799 28.873L30.2188 253.743H30.6687L177.239 28.873H176.799Z" fill="white"/>
<path d="M185.57 28.873L39 253.743H39.45L186.02 28.873H185.57Z" fill="white"/>
<path d="M194.351 28.873L47.7812 253.743H48.2313L194.801 28.873H194.351Z" fill="white"/>
<path d="M203.129 28.873L56.5586 253.743H56.9986L203.569 28.873H203.129Z" fill="white"/>
<path d="M211.898 28.873L65.3281 253.743H65.7781L212.348 28.873H211.898Z" fill="white"/>
<path d="M220.679 28.873L74.1094 253.743H74.5594L221.129 28.873H220.679Z" fill="white"/>
<path d="M229.461 28.873L82.8906 253.743H83.3306L229.901 28.873H229.461Z" fill="white"/>
<path d="M238.23 28.873L91.6602 253.743H92.1102L238.68 28.873H238.23Z" fill="white"/>
<path d="M247.008 28.873L100.438 253.743H100.887L247.457 28.873H247.008Z" fill="white"/>
<path d="M255.789 28.873L109.219 253.743H109.669L256.239 28.873H255.789Z" fill="white"/>
<path d="M264.57 28.873L118 253.743H118.44L265.01 28.873H264.57Z" fill="white"/>
<path d="M273.34 28.873L126.77 253.743H127.22L273.79 28.873H273.34Z" fill="white"/>
<path d="M282.121 28.873L135.551 253.743H136.001L282.571 28.873H282.121Z" fill="white"/>
<path d="M290.898 28.873L144.328 253.743H144.768L291.338 28.873H290.898Z" fill="white"/>
<path d="M299.672 28.873L153.102 253.743H153.552L300.122 28.873H299.672Z" fill="white"/>
<path d="M308.449 28.873L161.879 253.743H162.329L308.899 28.873H308.449Z" fill="white"/>
<path d="M317.23 28.873L170.66 253.743H171.1L317.68 28.873H317.23Z" fill="white"/>
<path d="M326.01 28.873L179.43 253.743H179.88L326.45 28.873H326.01Z" fill="white"/>
<path d="M334.781 28.873L188.211 253.743H188.661L335.231 28.873H334.781Z" fill="white"/>
<path d="M343.558 28.873L196.988 253.743H197.438L344.008 28.873H343.558Z" fill="white"/>
<path d="M352.34 28.873L205.77 253.743H206.21L352.78 28.873H352.34Z" fill="white"/>
<path d="M361.109 28.873L214.539 253.743H214.989L361.559 28.873H361.109Z" fill="white"/>
<path d="M369.89 28.873L223.32 253.743H223.77L370.34 28.873H369.89Z" fill="white"/>
<path d="M378.672 28.873L232.102 253.743H232.542L379.112 28.873H378.672Z" fill="white"/>
<path d="M387.441 28.873L240.871 253.743H241.321L387.891 28.873H387.441Z" fill="white"/>
<path d="M396.218 28.873L249.648 253.743H250.098L396.668 28.873H396.218Z" fill="white"/>
<path d="M405 28.873L258.43 253.743H258.88L405.45 28.873H405Z" fill="white"/>
<path d="M413.408 36.0332L271.508 253.743H271.958L413.408 36.7232V36.0332Z" fill="white"/>
<path d="M413.409 49.5039L280.289 253.744H280.729L413.409 50.1839V49.5039Z" fill="white"/>
<path d="M413.409 62.9629L289.059 253.743H289.509L413.409 63.6529V62.9629Z" fill="white"/>
<path d="M413.41 76.4336L297.84 253.744H298.29L413.41 77.1136V76.4336Z" fill="white"/>
<path d="M413.411 89.8926L306.621 253.743H307.061L413.411 90.5826V89.8926Z" fill="white"/>
<path d="M413.411 103.363L315.391 253.743H315.841L413.411 104.053V103.363Z" fill="white"/>
<path d="M413.412 116.832L324.172 253.742H324.622L413.412 117.512V116.832Z" fill="white"/>
<path d="M413.409 130.293L332.949 253.743H333.399L413.409 130.983V130.293Z" fill="white"/>
<path d="M413.41 143.764L341.73 253.744H342.17L413.41 144.444V143.764Z" fill="white"/>
<path d="M413.41 157.223L350.5 253.743H350.95L413.41 157.913V157.223Z" fill="white"/>
<path d="M23.1091 28.873L-123.461 253.743H-123.011L23.5591 28.873H23.1091Z" fill="white"/>
<path d="M31.8903 28.873L-114.68 253.743H-114.23L32.3403 28.873H31.8903Z" fill="white"/>
<path d="M40.6716 28.873L-105.898 253.743H-105.458L41.1116 28.873H40.6716Z" fill="white"/>
<path d="M49.4411 28.873L-97.1289 253.743H-96.6789L49.8911 28.873H49.4411Z" fill="white"/>
<path d="M58.2184 28.873L-88.3516 253.743H-87.9016L58.6684 28.873H58.2184Z" fill="white"/>
<path d="M66.9997 28.873L-79.5703 253.743H-79.1303L67.4497 28.873H66.9997Z" fill="white"/>
<path d="M75.7792 28.873L-70.8008 253.743H-70.3508L76.2192 28.873H75.7792Z" fill="white"/>
<path d="M84.5505 28.873L-62.0195 253.743H-61.5695L85.0005 28.873H84.5505Z" fill="white"/>
<path d="M93.3278 28.873L-53.2422 253.743H-52.7922L93.7778 28.873H93.3278Z" fill="white"/>
<path d="M102.109 28.873L-44.4609 253.743H-44.0209L102.549 28.873H102.109Z" fill="white"/>
<path d="M110.879 28.873L-35.6914 253.743H-35.2414L111.329 28.873H110.879Z" fill="white"/>
<path d="M119.66 28.873L-26.9102 253.743H-26.4602L120.11 28.873H119.66Z" fill="white"/>
<path d="M128.441 28.873L-18.1289 253.743H-17.6889L128.881 28.873H128.441Z" fill="white"/>
<path d="M137.211 28.873L-9.35938 253.743H-8.90938L137.661 28.873H137.211Z" fill="white"/>
<path d="M145.99 28.873L-0.570312 253.743H-0.130313L146.44 28.873H145.99Z" fill="white"/>
<path d="M154.769 28.873L8.19922 253.743H8.64922L155.219 28.873H154.769Z" fill="white"/>
<path d="M163.55 28.873L16.9805 253.743H17.4205L163.99 28.873H163.55Z" fill="white"/>
<path d="M172.32 28.873L25.75 253.743H26.2L172.77 28.873H172.32Z" fill="white"/>
<path d="M181.101 28.873L34.5312 253.743H34.9813L181.551 28.873H181.101Z" fill="white"/>
<path d="M189.879 28.873L43.3086 253.743H43.7486L190.319 28.873H189.879Z" fill="white"/>
<path d="M198.648 28.873L52.0781 253.743H52.5281L199.098 28.873H198.648Z" fill="white"/>
<path d="M207.429 28.873L60.8594 253.743H61.3094L207.879 28.873H207.429Z" fill="white"/>
<path d="M216.211 28.873L69.6406 253.743H70.0806L216.661 28.873H216.211Z" fill="white"/>
<path d="M224.99 28.873L78.4102 253.743H78.8602L225.43 28.873H224.99Z" fill="white"/>
<path d="M233.758 28.873L87.1875 253.743H87.6375L234.207 28.873H233.758Z" fill="white"/>
<path d="M242.539 28.873L95.9688 253.743H96.4187L242.989 28.873H242.539Z" fill="white"/>
<path d="M251.32 28.873L104.75 253.743H105.19L251.76 28.873H251.32Z" fill="white"/>
<path d="M260.09 28.873L113.52 253.743H113.97L260.54 28.873H260.09Z" fill="white"/>
<path d="M268.871 28.873L122.301 253.743H122.751L269.321 28.873H268.871Z" fill="white"/>
<path d="M277.648 28.873L131.078 253.743H131.518L278.088 28.873H277.648Z" fill="white"/>
<path d="M286.422 28.873L139.852 253.743H140.302L286.872 28.873H286.422Z" fill="white"/>
<path d="M295.199 28.873L148.629 253.743H149.079L295.649 28.873H295.199Z" fill="white"/>
<path d="M303.98 28.873L157.41 253.743H157.86L304.43 28.873H303.98Z" fill="white"/>
<path d="M312.757 28.873L166.188 253.743H166.628L313.197 28.873H312.757Z" fill="white"/>
<path d="M321.531 28.873L174.961 253.743H175.411L321.981 28.873H321.531Z" fill="white"/>
<path d="M330.308 28.873L183.738 253.743H184.188L330.758 28.873H330.308Z" fill="white"/>
<path d="M339.09 28.873L192.52 253.743H192.96L339.53 28.873H339.09Z" fill="white"/>
<path d="M347.859 28.873L201.289 253.743H201.739L348.309 28.873H347.859Z" fill="white"/>
<path d="M356.64 28.873L210.07 253.743H210.52L357.09 28.873H356.64Z" fill="white"/>
<path d="M365.422 28.873L218.852 253.743H219.292L365.872 28.873H365.422Z" fill="white"/>
<path d="M374.201 28.873L227.621 253.743H228.071L374.641 28.873H374.201Z" fill="white"/>
<path d="M382.968 28.873L236.398 253.743H236.848L383.418 28.873H382.968Z" fill="white"/>
<path d="M391.75 28.873L245.18 253.743H245.63L392.2 28.873H391.75Z" fill="white"/>
<path d="M400.531 28.873L253.961 253.743H254.401L400.971 28.873H400.531Z" fill="white"/>
<path d="M409.3 28.873L262.73 253.743H263.18L409.75 28.873H409.3Z" fill="white"/>
</g>
</g>
<path d="M352.43 176.973H23.4297V31.9727H352.43" stroke="#FF5C5C" stroke-width="1.38" stroke-miterlimit="10"/>
</svg>
