<svg width="46" height="43" viewBox="0 0 46 43" fill="none" xmlns="http://www.w3.org/2000/svg">
<path d="M29.8906 19.6758C29.8906 19.6758 31.7987 23.0086 35.119 20.8621" stroke="#202020" stroke-width="1.53" stroke-linecap="round" stroke-linejoin="round"/>
<path d="M32.3268 4.65453C29.5589 2.72134 26.2951 1.45975 22.7551 1.0957H22.7426C24.7071 4.234 25.8495 7.94346 25.8495 11.9291C25.8495 23.2332 16.692 32.3908 5.38806 32.3908C4.66626 32.3908 3.96329 32.3594 3.2666 32.2778C6.88814 38.0523 13.3027 41.9061 20.6211 41.9061C31.9251 41.9061 41.0825 32.7485 41.0825 21.4444C41.0825 19.574 40.8315 17.7663 40.3607 16.0465" stroke="#202020" stroke-width="1.53" stroke-linecap="round" stroke-linejoin="round"/>
<path d="M15.7686 9.42383H19.5345L15.7686 13.1898H19.5345" stroke="#202020" stroke-width="1.53" stroke-linecap="round" stroke-linejoin="round"/>
<path d="M8.23633 6.41016H12.0022L8.23633 10.1761H12.0022" stroke="#202020" stroke-width="1.53" stroke-linecap="round" stroke-linejoin="round"/>
<path d="M1 24.3085H5.21154C7.77235 24.3085 6.71162 27.1643 9.12807 27.1643C11.5445 27.1643 11.2307 21.4464 13.1952 18.8855C15.1598 16.3247 16.5155 26.43 17.5637 28.5201C19.0952 31.558 21.1978 29.2419 22.3841 27.4719C23.8277 25.319 26.696 25.9969 26.696 25.9969H44.9669" stroke="#202020" stroke-width="1.53" stroke-linecap="round" stroke-linejoin="round"/>
<path d="M32.0535 13.1341C30.7389 13.1341 29.7938 12.4359 29.7695 11.4351H31.0297C31.0539 11.8657 31.484 12.1508 32.0656 12.1508C32.6472 12.1508 33.0895 11.8249 33.0834 11.3653C33.0895 10.894 32.6533 10.5623 31.9505 10.5623H31.3932V9.67796H31.9505C32.5382 9.67796 32.9501 9.36959 32.9501 8.91575C32.9501 8.46192 32.6048 8.17682 32.0717 8.17682C31.5386 8.17682 31.1024 8.46192 31.0842 8.8983H29.8907C29.9089 7.90336 30.8418 7.22262 32.0656 7.22262C33.2894 7.22262 34.1497 7.93245 34.1436 8.84593C34.1497 9.49177 33.6771 9.95142 33.0107 10.062V10.1085C33.8892 10.2132 34.3738 10.7311 34.3678 11.4467C34.3738 12.43 33.3985 13.1399 32.0475 13.1399L32.0535 13.1341ZM37.4817 13.1341C36.2398 13.1282 35.0645 12.4184 35.0645 10.3122C35.0645 8.37465 36.0338 7.2168 37.5302 7.2168C38.7419 7.2168 39.5597 7.94991 39.6809 8.89248H38.4571C38.3602 8.4852 38.0088 8.24083 37.5302 8.24083C36.7184 8.24083 36.2883 8.95066 36.2822 10.0794H36.3428C36.6154 9.57323 37.2091 9.27067 37.8755 9.27067C38.9539 9.27067 39.7536 10.0503 39.7536 11.1325C39.7536 12.302 38.8327 13.1457 37.4878 13.1341H37.4817ZM37.4757 12.1915C38.0876 12.1915 38.5419 11.7435 38.5419 11.1675C38.5419 10.5914 38.1057 10.1434 37.4878 10.1434C36.8699 10.1434 36.4094 10.6031 36.4034 11.1675C36.4094 11.7318 36.8577 12.1915 37.4696 12.1915H37.4757ZM42.7343 13.1341C41.4863 13.1341 40.5715 12.4242 40.5472 11.4351H41.7589C41.7831 11.8889 42.2133 12.1915 42.7343 12.1915C43.3522 12.1915 43.7945 11.7726 43.7945 11.1733C43.7945 10.574 43.3462 10.1376 42.7161 10.1318C42.2678 10.1318 41.9528 10.2889 41.771 10.6147H40.6442L40.9653 7.29825H44.6608V8.27574H41.9952L41.8316 9.73032H41.8801C42.1042 9.44522 42.5525 9.2474 43.0796 9.2474C44.1822 9.2474 45.0001 10.0329 45.0001 11.1384C45.0001 12.302 44.0792 13.1341 42.7343 13.1341Z" fill="#202020"/>
<path d="M38.7329 41.0583H37.3838L39.4666 34.2891H41.0701L43.147 41.0583H41.8098L41.3601 39.4941H39.1826L38.727 41.0583H38.7329ZM39.508 38.4025H41.0524L40.295 35.8133H40.2536L39.508 38.4025ZM44.9991 34.2891V41.0583H43.7506V34.2891H44.9991Z" fill="#202020"/>
</svg>
