<svg width="263" height="128" viewBox="0 0 263 128" fill="none" xmlns="http://www.w3.org/2000/svg">
<path d="M260.107 39.9665C260.438 39.9665 260.707 40.2351 260.707 40.5665C260.707 40.8979 260.438 41.1665 260.107 41.1665V39.9665ZM182.668 64.6289V65.2289V64.6289ZM145.697 64.6289V65.2289V64.6289ZM68.209 64.6289V65.2289V64.6289ZM37.3646 64.0289H37.9646V65.2289H37.3646V64.0289ZM40.6114 65.2289H40.0114V64.0289H40.6114V65.2289ZM43.8581 64.0289H44.4581V65.2289H43.8581V64.0289ZM47.1049 65.2289H46.5049V64.0289H47.1049V65.2289ZM50.3517 64.0289H50.9517V65.2289H50.3517V64.0289ZM53.5985 65.2289H52.9985V64.0289H53.5985V65.2289ZM56.8452 64.0289H57.4452V65.2289H56.8452V64.0289ZM60.092 65.2289H59.492V64.0289H60.092V65.2289ZM63.3388 64.0289H63.9388V65.2289H63.3388V64.0289ZM66.5856 65.2289H65.9856V64.0289H66.5856V65.2289ZM68.7447 63.9229L69.2989 63.6931L69.7586 64.8015L69.2044 65.0314L68.7447 63.9229ZM70.6114 63.6243L70.3816 64.1785L69.2731 63.7189L69.503 63.1646L70.6114 63.6243ZM69.6089 60.957V60.357H70.8089V60.957H69.6089ZM70.8089 57.6133V58.2133H69.6089V57.6133H70.8089ZM69.6089 54.2696V53.6696H70.8089V54.2696H69.6089ZM70.8089 50.9258V51.5258H69.6089V50.9258H70.8089ZM69.6089 47.5821V46.9821H70.8089V47.5821H69.6089ZM70.8089 44.2384V44.8384H69.6089V44.2384H70.8089ZM69.8065 41.5711L70.0363 41.0169L71.1448 41.4765L70.9149 42.0308L69.8065 41.5711ZM71.6732 41.2725L71.119 41.5023L70.6593 40.3939L71.2135 40.164L71.6732 41.2725ZM73.3348 39.9665H73.9348V41.1665H73.3348V39.9665ZM75.5865 41.1665H74.9865V39.9665H75.5865V41.1665ZM77.8381 39.9665H78.4381V41.1665H77.8381V39.9665ZM80.0898 41.1665H79.4898V39.9665H80.0898V41.1665ZM82.2111 40.164L82.7653 40.3939L82.3056 41.5023L81.7514 41.2725L82.2111 40.164ZM82.5096 42.0308L82.2798 41.4765L83.3883 41.0169L83.6181 41.5711L82.5096 42.0308ZM83.8156 44.2384V44.8384H82.6156V44.2384H83.8156ZM82.6156 47.5821V46.9821H83.8156V47.5821H82.6156ZM83.8156 50.9258V51.5258H82.6156V50.9258H83.8156ZM82.6156 54.2696V53.6696H83.8156V54.2696H82.6156ZM83.8156 57.6133V58.2133H82.6156V57.6133H83.8156ZM82.6156 60.957V60.357H83.8156V60.957H82.6156ZM83.9216 63.1646L84.1515 63.7189L83.043 64.1785L82.8132 63.6243L83.9216 63.1646ZM84.2202 65.0314L83.666 64.8015L84.1257 63.6931L84.6799 63.9229L84.2202 65.0314ZM86.6828 64.0289H87.2828V65.2289H86.6828V64.0289ZM89.6173 65.2289H89.0173V64.0289H89.6173V65.2289ZM92.5517 64.0289H93.1517V65.2289H92.5517V64.0289ZM95.4861 65.2289H94.8861V64.0289H95.4861V65.2289ZM98.4205 64.0289H99.0205V65.2289H98.4205V64.0289ZM101.355 65.2289H100.755V64.0289H101.355V65.2289ZM104.289 64.0289H104.889V65.2289H104.289V64.0289ZM107.224 65.2289H106.624V64.0289H107.224V65.2289ZM110.158 64.0289H110.758V65.2289H110.158V64.0289ZM113.093 65.2289H112.493V64.0289H113.093V65.2289ZM116.027 64.0289H116.627V65.2289H116.027V64.0289ZM118.961 65.2289H118.361V64.0289H118.961V65.2289ZM120.964 63.9229L121.519 63.6931L121.978 64.8015L121.424 65.0314L120.964 63.9229ZM122.831 63.6243L122.601 64.1786L121.493 63.7189L121.723 63.1646L122.831 63.6243ZM121.829 60.957V60.357H123.029V60.957H121.829ZM123.029 57.6133V58.2133H121.829V57.6133H123.029ZM121.829 54.2696V53.6696H123.029V54.2696H121.829ZM123.029 50.9258V51.5258H121.829V50.9258H123.029ZM121.829 47.5821V46.9821H123.029V47.5821H121.829ZM123.029 44.2384V44.8384H121.829V44.2384H123.029ZM122.026 41.5711L122.256 41.0169L123.364 41.4765L123.135 42.0308L122.026 41.5711ZM123.893 41.2725L123.339 41.5023L122.879 40.3939L123.433 40.164L123.893 41.2725ZM125.868 39.9665H126.468V41.1665H125.868V39.9665ZM128.746 41.1665H128.146V39.9665H128.746V41.1665ZM131.624 39.9665H132.224V41.1665H131.624V39.9665ZM134.502 41.1665H133.902V39.9665H134.502V41.1665ZM137.38 39.9665H137.98V41.1665H137.38V39.9665ZM140.258 41.1665H139.658V39.9665H140.258V41.1665ZM142.692 40.164L143.246 40.3939L142.787 41.5023L142.233 41.2725L142.692 40.164ZM142.991 42.0308L142.761 41.4765L143.869 41.0169L144.099 41.5711L142.991 42.0308ZM144.297 44.2384V44.8384H143.097V44.2384H144.297ZM143.097 47.5821V46.9821H144.297V47.5821H143.097ZM144.297 50.9258V51.5258H143.097V50.9258H144.297ZM143.097 54.2696V53.6696H144.297V54.2696H143.097ZM144.297 57.6133V58.2133H143.097V57.6133H144.297ZM143.097 60.957V60.357H144.297V60.957H143.097ZM144.403 63.1646L144.633 63.7189L143.524 64.1785L143.294 63.6243L144.403 63.1646ZM144.701 65.0314L144.147 64.8015L144.607 63.6931L145.161 63.9229L144.701 65.0314ZM147.237 64.0289H147.837V65.2289H147.237V64.0289ZM150.318 65.2289H149.718V64.0289H150.318V65.2289ZM153.399 64.0289H153.999V65.2289H153.399V64.0289ZM156.48 65.2289H155.88V64.0289H156.48V65.2289ZM159.561 64.0289H160.161V65.2289H159.561V64.0289ZM162.642 65.2289H162.042V64.0289H162.642V65.2289ZM165.723 64.0289H166.323V65.2289H165.723V64.0289ZM168.804 65.2289H168.204V64.0289H168.804V65.2289ZM171.885 64.0289H172.485V65.2289H171.885V64.0289ZM174.966 65.2289H174.366V64.0289H174.966V65.2289ZM178.046 64.0289H178.646V65.2289H178.046V64.0289ZM181.127 65.2289H180.527V64.0289H181.127V65.2289ZM183.204 63.9229L183.758 63.6931L184.217 64.8015L183.663 65.0314L183.204 63.9229ZM185.07 63.6243L184.84 64.1786L183.732 63.7189L183.962 63.1646L185.07 63.6243ZM184.068 60.957V60.357H185.268V60.957H184.068ZM185.268 57.6133V58.2133H184.068V57.6133H185.268ZM184.068 54.2696V53.6696H185.268V54.2696H184.068ZM185.268 50.9258V51.5258H184.068V50.9258H185.268ZM184.068 47.5821V46.9821H185.268V47.5821H184.068ZM185.268 44.2384V44.8384H184.068V44.2384H185.268ZM184.265 41.5711L184.495 41.0169L185.604 41.4765L185.374 42.0308L184.265 41.5711ZM186.132 41.2725L185.578 41.5023L185.118 40.3939L185.672 40.164L186.132 41.2725ZM188.119 39.9665H188.719V41.1665H188.119V39.9665ZM191.021 41.1665H190.421V39.9665H191.021V41.1665ZM193.923 39.9665H194.523V41.1665H193.923V39.9665ZM196.825 41.1665H196.225V39.9665H196.825V41.1665ZM199.271 40.164L199.826 40.3939L199.366 41.5023L198.812 41.2725L199.271 40.164ZM199.57 42.0308L199.34 41.4765L200.449 41.0169L200.678 41.5711L199.57 42.0308ZM200.876 44.2384V44.8384H199.676V44.2384H200.876ZM199.676 47.5821V46.9821H200.876V47.5821H199.676ZM200.876 50.9258V51.5258H199.676V50.9258H200.876ZM199.676 54.2696V53.6696H200.876V54.2696H199.676ZM200.876 57.6133V58.2133H199.676V57.6133H200.876ZM199.676 60.957V60.357H200.876V60.957H199.676ZM200.982 63.1646L201.212 63.7189L200.103 64.1785L199.873 63.6243L200.982 63.1646ZM201.28 65.0314L200.726 64.8015L201.186 63.6931L201.74 63.9229L201.28 65.0314ZM203.843 64.0289H204.443V65.2289H203.843V64.0289ZM206.979 65.2289H206.379V64.0289H206.979V65.2289ZM210.114 64.0289H210.714V65.2289H210.114V64.0289ZM213.249 65.2289H212.649V64.0289H213.249V65.2289ZM216.384 64.0289H216.984V65.2289H216.384V64.0289ZM219.519 65.2289H218.919V64.0289H219.519V65.2289ZM222.654 64.0289H223.254V65.2289H222.654V64.0289ZM225.789 65.2289H225.189V64.0289H225.789V65.2289ZM228.924 64.0289H229.524V65.2289H228.924V64.0289ZM232.06 65.2289H231.46V64.0289H232.06V65.2289ZM235.195 64.0289H235.795V65.2289H235.195V64.0289ZM238.33 65.2289H237.73V64.0289H238.33V65.2289ZM240.433 63.9229L240.987 63.6931L241.447 64.8015L240.893 65.0314L240.433 63.9229ZM242.3 63.6243L242.07 64.1785L240.961 63.7189L241.191 63.1646L242.3 63.6243ZM241.297 60.957V60.357H242.497V60.957H241.297ZM242.497 57.6133V58.2133H241.297V57.6133H242.497ZM241.297 54.2696V53.6696H242.497V54.2696H241.297ZM242.497 50.9258V51.5258H241.297V50.9258H242.497ZM241.297 47.5821V46.9821H242.497V47.5821H241.297ZM242.497 44.2384V44.8384H241.297V44.2384H242.497ZM241.495 41.5711L241.725 41.0169L242.833 41.4765L242.603 42.0308L241.495 41.5711ZM243.362 41.2725L242.807 41.5023L242.348 40.3939L242.902 40.164L243.362 41.2725ZM245.248 39.9665H245.848V41.1665H245.248V39.9665ZM247.95 41.1665H247.35V39.9665H247.95V41.1665ZM250.651 39.9665H251.251V41.1665H250.651V39.9665ZM253.353 41.1665H252.753V39.9665H253.353V41.1665ZM256.054 39.9665H256.654V41.1665H256.054V39.9665ZM258.756 41.1665H258.156V39.9665H258.756V41.1665ZM35.7412 64.6289L35.7412 64.0289H37.3646V64.6289V65.2289H35.7412L35.7412 64.6289ZM40.6114 64.6289V64.0289H43.8581V64.6289V65.2289H40.6114V64.6289ZM47.1049 64.6289V64.0289H50.3517V64.6289V65.2289H47.1049V64.6289ZM53.5985 64.6289V64.0289H56.8452V64.6289V65.2289H53.5985V64.6289ZM60.092 64.6289V64.0289H63.3388V64.6289V65.2289H60.092V64.6289ZM66.5856 64.6289V64.0289H68.209V64.6289V65.2289H66.5856V64.6289ZM68.209 64.6289V64.0289C68.3999 64.0289 68.5805 63.991 68.7447 63.9229L68.9745 64.4771L69.2044 65.0314C68.897 65.1589 68.5604 65.2289 68.209 65.2289V64.6289ZM70.0572 63.3945L69.503 63.1646C69.5711 63.0004 69.6089 62.8198 69.6089 62.6289H70.209H70.8089C70.8089 62.9803 70.7389 63.3169 70.6114 63.6243L70.0572 63.3945ZM70.209 62.6289H69.6089V60.957H70.209H70.8089V62.6289H70.209ZM70.209 57.6133H69.6089V54.2696H70.209H70.8089V57.6133H70.209ZM70.209 50.9258H69.6089V47.5821H70.209H70.8089V50.9258H70.209ZM70.209 44.2384H69.6089V42.5665H70.209H70.8089V44.2384H70.209ZM70.209 42.5665H69.6089C69.6089 42.2151 69.679 41.8785 69.8065 41.5711L70.3607 41.8009L70.9149 42.0308C70.8468 42.195 70.8089 42.3756 70.8089 42.5665H70.209ZM71.4434 40.7183L71.2135 40.164C71.5209 40.0366 71.8575 39.9665 72.209 39.9665V40.5665V41.1665C72.018 41.1665 71.8374 41.2044 71.6732 41.2725L71.4434 40.7183ZM72.209 40.5665V39.9665H73.3348V40.5665V41.1665H72.209V40.5665ZM75.5865 40.5665V39.9665H77.8381V40.5665V41.1665H75.5865V40.5665ZM80.0898 40.5665V39.9665H81.2156V40.5665V41.1665H80.0898V40.5665ZM81.2156 40.5665V39.9665C81.5671 39.9665 81.9037 40.0366 82.2111 40.164L81.9812 40.7183L81.7514 41.2725C81.5871 41.2044 81.4066 41.1665 81.2156 41.1665V40.5665ZM83.0639 41.8009L83.6181 41.5711C83.7456 41.8785 83.8156 42.2151 83.8156 42.5665H83.2156H82.6156C82.6156 42.3756 82.5778 42.195 82.5096 42.0308L83.0639 41.8009ZM83.2156 42.5665H83.8156V44.2384H83.2156H82.6156V42.5665H83.2156ZM83.2156 47.5821H83.8156V50.9258H83.2156H82.6156V47.5821H83.2156ZM83.2156 54.2696H83.8156V57.6133H83.2156H82.6156V54.2696H83.2156ZM83.2156 60.957H83.8156V62.6289H83.2156H82.6156V60.957H83.2156ZM83.2156 62.6289H83.8156C83.8156 62.8198 83.8535 63.0004 83.9216 63.1646L83.3674 63.3945L82.8132 63.6243C82.6857 63.3169 82.6156 62.9803 82.6156 62.6289H83.2156ZM84.4501 64.4771L84.6799 63.9229C84.8441 63.991 85.0247 64.0289 85.2156 64.0289V64.6289V65.2289C84.8642 65.2289 84.5276 65.1589 84.2202 65.0314L84.4501 64.4771ZM85.2156 64.6289V64.0289H86.6828V64.6289V65.2289H85.2156V64.6289ZM89.6173 64.6289V64.0289H92.5517V64.6289V65.2289H89.6173V64.6289ZM95.4861 64.6289V64.0289H98.4205V64.6289V65.2289H95.4861V64.6289ZM101.355 64.6289V64.0289H104.289V64.6289V65.2289H101.355V64.6289ZM107.224 64.6289V64.0289H110.158V64.6289V65.2289H107.224V64.6289ZM113.093 64.6289V64.0289H116.027V64.6289V65.2289H113.093V64.6289ZM118.961 64.6289V64.0289H120.429V64.6289V65.2289H118.961V64.6289ZM120.429 64.6289V64.0289C120.619 64.0289 120.8 63.991 120.964 63.9229L121.194 64.4771L121.424 65.0314C121.117 65.1589 120.78 65.2289 120.429 65.2289V64.6289ZM122.277 63.3945L121.723 63.1646C121.791 63.0004 121.829 62.8198 121.829 62.6289H122.429H123.029C123.029 62.9803 122.959 63.3169 122.831 63.6243L122.277 63.3945ZM122.429 62.6289H121.829V60.957H122.429H123.029V62.6289H122.429ZM122.429 57.6133H121.829V54.2696H122.429H123.029V57.6133H122.429ZM122.429 50.9258H121.829V47.5821H122.429H123.029V50.9258H122.429ZM122.429 44.2384H121.829V42.5665H122.429H123.029V44.2384H122.429ZM122.429 42.5665H121.829C121.829 42.2151 121.899 41.8785 122.026 41.5711L122.58 41.8009L123.135 42.0308C123.066 42.195 123.029 42.3756 123.029 42.5665H122.429ZM123.663 40.7183L123.433 40.164C123.741 40.0366 124.077 39.9665 124.429 39.9665V40.5665V41.1665C124.238 41.1665 124.057 41.2044 123.893 41.2725L123.663 40.7183ZM124.429 40.5665V39.9665H125.868V40.5665V41.1665H124.429V40.5665ZM128.746 40.5665V39.9665H131.624V40.5665V41.1665H128.746V40.5665ZM134.502 40.5665V39.9665H137.38V40.5665V41.1665H134.502V40.5665ZM140.258 40.5665V39.9665H141.697V40.5665V41.1665H140.258V40.5665ZM141.697 40.5665V39.9665C142.048 39.9665 142.385 40.0366 142.692 40.164L142.462 40.7183L142.233 41.2725C142.068 41.2044 141.888 41.1665 141.697 41.1665V40.5665ZM143.545 41.8009L144.099 41.5711C144.227 41.8785 144.297 42.2151 144.297 42.5665H143.697H143.097C143.097 42.3756 143.059 42.195 142.991 42.0308L143.545 41.8009ZM143.697 42.5665H144.297V44.2384H143.697H143.097V42.5665H143.697ZM143.697 47.5821H144.297V50.9258H143.697H143.097V47.5821H143.697ZM143.697 54.2696H144.297V57.6133H143.697H143.097V54.2696H143.697ZM143.697 60.957H144.297V62.6289H143.697H143.097V60.957H143.697ZM143.697 62.6289H144.297C144.297 62.8198 144.335 63.0004 144.403 63.1646L143.849 63.3945L143.294 63.6243C143.167 63.3169 143.097 62.9803 143.097 62.6289H143.697ZM144.931 64.4771L145.161 63.9229C145.325 63.991 145.506 64.0289 145.697 64.0289V64.6289V65.2289C145.345 65.2289 145.009 65.1589 144.701 65.0314L144.931 64.4771ZM145.697 64.6289V64.0289H147.237V64.6289V65.2289H145.697V64.6289ZM150.318 64.6289V64.0289H153.399V64.6289V65.2289H150.318V64.6289ZM156.48 64.6289V64.0289H159.561V64.6289V65.2289H156.48V64.6289ZM162.642 64.6289V64.0289H165.723V64.6289V65.2289H162.642V64.6289ZM168.804 64.6289V64.0289H171.885V64.6289V65.2289H168.804V64.6289ZM174.966 64.6289V64.0289H178.046V64.6289V65.2289H174.966V64.6289ZM181.127 64.6289V64.0289H182.668V64.6289V65.2289H181.127V64.6289ZM182.668 64.6289V64.0289C182.859 64.0289 183.039 63.991 183.204 63.9229L183.433 64.4771L183.663 65.0314C183.356 65.1589 183.019 65.2289 182.668 65.2289V64.6289ZM184.516 63.3945L183.962 63.1646C184.03 63.0004 184.068 62.8198 184.068 62.6289H184.668H185.268C185.268 62.9803 185.198 63.3169 185.07 63.6243L184.516 63.3945ZM184.668 62.6289H184.068V60.957H184.668H185.268V62.6289H184.668ZM184.668 57.6133H184.068V54.2696H184.668H185.268V57.6133H184.668ZM184.668 50.9258H184.068V47.5821H184.668H185.268V50.9258H184.668ZM184.668 44.2384H184.068V42.5665H184.668H185.268V44.2384H184.668ZM184.668 42.5665H184.068C184.068 42.2151 184.138 41.8785 184.265 41.5711L184.82 41.8009L185.374 42.0308C185.306 42.195 185.268 42.3756 185.268 42.5665H184.668ZM185.902 40.7183L185.672 40.164C185.98 40.0366 186.316 39.9665 186.668 39.9665V40.5665V41.1665C186.477 41.1665 186.296 41.2044 186.132 41.2725L185.902 40.7183ZM186.668 40.5665V39.9665H188.119V40.5665V41.1665H186.668V40.5665ZM191.021 40.5665V39.9665H193.923V40.5665V41.1665H191.021V40.5665ZM196.825 40.5665V39.9665H198.276V40.5665V41.1665H196.825V40.5665ZM198.276 40.5665V39.9665C198.627 39.9665 198.964 40.0366 199.271 40.164L199.041 40.7183L198.812 41.2725C198.647 41.2044 198.467 41.1665 198.276 41.1665V40.5665ZM200.124 41.8009L200.678 41.5711C200.806 41.8785 200.876 42.2151 200.876 42.5665H200.276H199.676C199.676 42.3756 199.638 42.195 199.57 42.0308L200.124 41.8009ZM200.276 42.5665H200.876V44.2384H200.276H199.676V42.5665H200.276ZM200.276 47.5821H200.876V50.9258H200.276H199.676V47.5821H200.276ZM200.276 54.2696H200.876V57.6133H200.276H199.676V54.2696H200.276ZM200.276 60.957H200.876V62.6289H200.276H199.676V60.957H200.276ZM200.276 62.6289H200.876C200.876 62.8198 200.914 63.0004 200.982 63.1646L200.428 63.3945L199.873 63.6243C199.746 63.3169 199.676 62.9803 199.676 62.6289H200.276ZM201.51 64.4771L201.74 63.9229C201.904 63.991 202.085 64.0289 202.276 64.0289V64.6289V65.2289C201.924 65.2289 201.588 65.1589 201.28 65.0314L201.51 64.4771ZM202.276 64.6289V64.0289H203.843V64.6289V65.2289H202.276V64.6289ZM206.979 64.6289V64.0289H210.114V64.6289V65.2289H206.979V64.6289ZM213.249 64.6289V64.0289H216.384V64.6289V65.2289H213.249V64.6289ZM219.519 64.6289V64.0289H222.654V64.6289V65.2289H219.519V64.6289ZM225.789 64.6289V64.0289H228.924V64.6289V65.2289H225.789V64.6289ZM232.06 64.6289V64.0289H235.195V64.6289V65.2289H232.06V64.6289ZM238.33 64.6289V64.0289H239.897V64.6289V65.2289H238.33V64.6289ZM239.897 64.6289V64.0289C240.088 64.0289 240.269 63.991 240.433 63.9229L240.663 64.4771L240.893 65.0314C240.585 65.1589 240.249 65.2289 239.897 65.2289V64.6289ZM241.746 63.3945L241.191 63.1646C241.259 63.0004 241.297 62.8198 241.297 62.6289H241.897H242.497C242.497 62.9803 242.427 63.3169 242.3 63.6243L241.746 63.3945ZM241.897 62.6289H241.297V60.957H241.897H242.497V62.6289H241.897ZM241.897 57.6133H241.297V54.2696H241.897H242.497V57.6133H241.897ZM241.897 50.9258H241.297V47.5821H241.897H242.497V50.9258H241.897ZM241.897 44.2384H241.297V42.5665H241.897H242.497V44.2384H241.897ZM241.897 42.5665H241.297C241.297 42.2151 241.367 41.8785 241.495 41.5711L242.049 41.8009L242.603 42.0308C242.535 42.195 242.497 42.3756 242.497 42.5665H241.897ZM243.132 40.7183L242.902 40.164C243.209 40.0366 243.546 39.9665 243.897 39.9665V40.5665V41.1665C243.706 41.1665 243.526 41.2044 243.362 41.2725L243.132 40.7183ZM243.897 40.5665V39.9665H245.248V40.5665V41.1665H243.897V40.5665ZM247.95 40.5665V39.9665H250.651V40.5665V41.1665H247.95V40.5665ZM253.353 40.5665V39.9665H256.054V40.5665V41.1665H253.353V40.5665ZM258.756 40.5665V39.9665H260.107V40.5665V41.1665H258.756V40.5665Z" fill="#52A3FF"/>
</svg>
