<svg width="52" height="51" viewBox="0 0 52 51" fill="none" xmlns="http://www.w3.org/2000/svg">
<mask id="path-1-outside-1_1284_117459" maskUnits="userSpaceOnUse" x="0" y="0" width="52" height="51" fill="black">
<rect fill="white" width="52" height="51"/>
<path d="M51.6506 25.5355C51.6506 25.0486 51.243 24.6537 50.7404 24.6537H45.0819L50.4976 20.3097C50.8849 19.9989 50.9391 19.443 50.6183 19.0679C50.2975 18.6927 49.7238 18.6401 49.3365 18.9509L42.2272 24.6537H33.2704C33.107 23.4414 32.6132 22.3283 31.878 21.4038L38.2195 15.26L47.3981 14.4196C47.8986 14.3736 48.2662 13.9432 48.2187 13.4583C48.1713 12.9734 47.7291 12.6173 47.2265 12.6632L40.2393 13.3032L44.2328 9.43434C44.5882 9.09002 44.5882 8.5315 44.2328 8.18719C43.8774 7.84288 43.3009 7.84288 42.9455 8.18719L38.9371 12.0706L39.5936 5.27631C39.6404 4.79138 39.2728 4.36164 38.7723 4.31565C38.2711 4.26965 37.8282 4.62645 37.7807 5.11138L36.9193 14.0254L30.59 20.1573C29.6351 19.445 28.4868 18.9667 27.2355 18.8083V10.1308L33.1219 3.24329C33.4427 2.86809 33.3885 2.3122 33.0012 2.0014C32.6139 1.6906 32.0401 1.74316 31.7193 2.11836L27.2348 7.36518V1.88181C27.2348 1.39491 26.8272 1 26.3246 1C25.8221 1 25.4144 1.39491 25.4144 1.88181V7.36386L20.9306 2.11704C20.6098 1.74185 20.0367 1.68928 19.6488 2.00008C19.2615 2.31088 19.2072 2.86678 19.528 3.24197L25.4144 10.1295V18.807C24.1631 18.9653 23.0142 19.4437 22.0599 20.156L15.7306 14.0241L14.8692 5.11006C14.8224 4.62513 14.3809 4.26834 13.8777 4.31433C13.3771 4.35967 13.0095 4.79006 13.0563 5.27499L13.7128 12.0692L9.70447 8.18587C9.34908 7.84156 8.77258 7.84156 8.41718 8.18587C8.06179 8.53019 8.06179 9.08871 8.41718 9.43302L12.4106 13.3019L5.42345 12.6619C4.92291 12.6166 4.47867 12.9721 4.43119 13.457C4.38372 13.9419 4.75132 14.3723 5.25186 14.4183L14.4304 15.2587L20.7719 21.4025C20.0367 22.3276 19.543 23.4401 19.3795 24.6524H10.4512L3.32296 18.918C2.93636 18.6066 2.3619 18.6585 2.04109 19.033C1.71961 19.4076 1.77319 19.9641 2.15978 20.2749L7.60126 24.6524H1.91019C1.40762 24.6524 1 25.0473 1 25.5342C1 26.0211 1.40762 26.416 1.91019 26.416H7.5348L2.14486 30.7272C1.75691 31.0373 1.70197 31.5932 2.0221 31.969C2.20183 32.1806 2.46228 32.2897 2.72475 32.2897C2.9289 32.2897 3.13441 32.2233 3.30397 32.088L10.3942 26.4167H19.3795C19.543 27.629 20.0367 28.7421 20.7719 29.6666L14.4304 35.8104L5.25186 36.6508C4.75132 36.6968 4.38372 37.1272 4.43119 37.6121C4.47596 38.0688 4.87205 38.4111 5.33664 38.4111C5.36512 38.4111 5.39429 38.4098 5.42345 38.4072L12.4106 37.7672L8.41718 41.6361C8.06179 41.9804 8.06179 42.5389 8.41718 42.8832C8.59488 43.0554 8.82819 43.1415 9.06083 43.1415C9.29346 43.1415 9.52677 43.0554 9.70447 42.8832L13.7128 38.9999L13.0563 45.7941C13.0095 46.279 13.3771 46.7088 13.8777 46.7548C13.9068 46.7574 13.9353 46.7587 13.9638 46.7587C14.4284 46.7587 14.8252 46.4157 14.8692 45.959L15.7306 37.045L22.0599 30.9131C23.0148 31.6254 24.1631 32.1037 25.4144 32.2621V40.9672L19.5606 47.8363C19.2405 48.2122 19.2954 48.7681 19.6833 49.0782C19.8529 49.2136 20.0584 49.2799 20.2626 49.2799C20.525 49.2799 20.7855 49.1709 20.9652 48.9593L25.4151 43.7374V49.1866C25.4151 49.6735 25.8227 50.0684 26.3253 50.0684C26.8279 50.0684 27.2355 49.6735 27.2355 49.1866V43.6724L31.7539 48.9442C31.9336 49.1544 32.1934 49.2629 32.4545 49.2629C32.6593 49.2629 32.8655 49.1965 33.0358 49.0592C33.4224 48.7477 33.4759 48.1918 33.1545 47.8173L27.2355 40.9113V32.2614C28.4868 32.1031 29.6358 31.6247 30.5907 30.9125L36.92 37.0444L37.7814 45.9584C37.8255 46.4157 38.2222 46.758 38.6868 46.758C38.7153 46.758 38.7438 46.7567 38.773 46.7541C39.2735 46.7088 39.6411 46.279 39.5943 45.7934L38.9378 38.9992L42.9461 42.8826C43.1238 43.0547 43.3572 43.1408 43.5898 43.1408C43.8224 43.1408 44.0557 43.0547 44.2334 42.8826C44.5888 42.5382 44.5888 41.9797 44.2334 41.6354L40.24 37.7665L47.2272 38.4065C47.2563 38.4091 47.2855 38.4104 47.314 38.4104C47.7779 38.4104 48.1747 38.0681 48.2194 37.6114C48.2669 37.1265 47.8993 36.6961 47.3988 36.6501L38.2202 35.8097L31.8787 29.666C32.6139 28.7408 33.1077 27.6283 33.2711 26.416H42.2279L49.3372 32.1189C49.5074 32.2549 49.7129 32.3212 49.917 32.3212C50.1788 32.3212 50.4386 32.2122 50.619 32.0019C50.9398 31.6267 50.8856 31.0708 50.4983 30.76L45.0826 26.4154H50.7411C51.2437 26.4154 51.6513 26.0205 51.6513 25.5336L51.6506 25.5355ZM26.3253 30.5589C23.4659 30.5589 21.1402 28.3051 21.1402 25.5355C21.1402 22.7659 23.4665 20.5121 26.3253 20.5121C29.1841 20.5121 31.5104 22.7659 31.5104 25.5355C31.5104 28.3051 29.1841 30.5589 26.3253 30.5589Z"/>
</mask>
<path d="M51.6506 25.5355C51.6506 25.0486 51.243 24.6537 50.7404 24.6537H45.0819L50.4976 20.3097C50.8849 19.9989 50.9391 19.443 50.6183 19.0679C50.2975 18.6927 49.7238 18.6401 49.3365 18.9509L42.2272 24.6537H33.2704C33.107 23.4414 32.6132 22.3283 31.878 21.4038L38.2195 15.26L47.3981 14.4196C47.8986 14.3736 48.2662 13.9432 48.2187 13.4583C48.1713 12.9734 47.7291 12.6173 47.2265 12.6632L40.2393 13.3032L44.2328 9.43434C44.5882 9.09002 44.5882 8.5315 44.2328 8.18719C43.8774 7.84288 43.3009 7.84288 42.9455 8.18719L38.9371 12.0706L39.5936 5.27631C39.6404 4.79138 39.2728 4.36164 38.7723 4.31565C38.2711 4.26965 37.8282 4.62645 37.7807 5.11138L36.9193 14.0254L30.59 20.1573C29.6351 19.445 28.4868 18.9667 27.2355 18.8083V10.1308L33.1219 3.24329C33.4427 2.86809 33.3885 2.3122 33.0012 2.0014C32.6139 1.6906 32.0401 1.74316 31.7193 2.11836L27.2348 7.36518V1.88181C27.2348 1.39491 26.8272 1 26.3246 1C25.8221 1 25.4144 1.39491 25.4144 1.88181V7.36386L20.9306 2.11704C20.6098 1.74185 20.0367 1.68928 19.6488 2.00008C19.2615 2.31088 19.2072 2.86678 19.528 3.24197L25.4144 10.1295V18.807C24.1631 18.9653 23.0142 19.4437 22.0599 20.156L15.7306 14.0241L14.8692 5.11006C14.8224 4.62513 14.3809 4.26834 13.8777 4.31433C13.3771 4.35967 13.0095 4.79006 13.0563 5.27499L13.7128 12.0692L9.70447 8.18587C9.34908 7.84156 8.77258 7.84156 8.41718 8.18587C8.06179 8.53019 8.06179 9.08871 8.41718 9.43302L12.4106 13.3019L5.42345 12.6619C4.92291 12.6166 4.47867 12.9721 4.43119 13.457C4.38372 13.9419 4.75132 14.3723 5.25186 14.4183L14.4304 15.2587L20.7719 21.4025C20.0367 22.3276 19.543 23.4401 19.3795 24.6524H10.4512L3.32296 18.918C2.93636 18.6066 2.3619 18.6585 2.04109 19.033C1.71961 19.4076 1.77319 19.9641 2.15978 20.2749L7.60126 24.6524H1.91019C1.40762 24.6524 1 25.0473 1 25.5342C1 26.0211 1.40762 26.416 1.91019 26.416H7.5348L2.14486 30.7272C1.75691 31.0373 1.70197 31.5932 2.0221 31.969C2.20183 32.1806 2.46228 32.2897 2.72475 32.2897C2.9289 32.2897 3.13441 32.2233 3.30397 32.088L10.3942 26.4167H19.3795C19.543 27.629 20.0367 28.7421 20.7719 29.6666L14.4304 35.8104L5.25186 36.6508C4.75132 36.6968 4.38372 37.1272 4.43119 37.6121C4.47596 38.0688 4.87205 38.4111 5.33664 38.4111C5.36512 38.4111 5.39429 38.4098 5.42345 38.4072L12.4106 37.7672L8.41718 41.6361C8.06179 41.9804 8.06179 42.5389 8.41718 42.8832C8.59488 43.0554 8.82819 43.1415 9.06083 43.1415C9.29346 43.1415 9.52677 43.0554 9.70447 42.8832L13.7128 38.9999L13.0563 45.7941C13.0095 46.279 13.3771 46.7088 13.8777 46.7548C13.9068 46.7574 13.9353 46.7587 13.9638 46.7587C14.4284 46.7587 14.8252 46.4157 14.8692 45.959L15.7306 37.045L22.0599 30.9131C23.0148 31.6254 24.1631 32.1037 25.4144 32.2621V40.9672L19.5606 47.8363C19.2405 48.2122 19.2954 48.7681 19.6833 49.0782C19.8529 49.2136 20.0584 49.2799 20.2626 49.2799C20.525 49.2799 20.7855 49.1709 20.9652 48.9593L25.4151 43.7374V49.1866C25.4151 49.6735 25.8227 50.0684 26.3253 50.0684C26.8279 50.0684 27.2355 49.6735 27.2355 49.1866V43.6724L31.7539 48.9442C31.9336 49.1544 32.1934 49.2629 32.4545 49.2629C32.6593 49.2629 32.8655 49.1965 33.0358 49.0592C33.4224 48.7477 33.4759 48.1918 33.1545 47.8173L27.2355 40.9113V32.2614C28.4868 32.1031 29.6358 31.6247 30.5907 30.9125L36.92 37.0444L37.7814 45.9584C37.8255 46.4157 38.2222 46.758 38.6868 46.758C38.7153 46.758 38.7438 46.7567 38.773 46.7541C39.2735 46.7088 39.6411 46.279 39.5943 45.7934L38.9378 38.9992L42.9461 42.8826C43.1238 43.0547 43.3572 43.1408 43.5898 43.1408C43.8224 43.1408 44.0557 43.0547 44.2334 42.8826C44.5888 42.5382 44.5888 41.9797 44.2334 41.6354L40.24 37.7665L47.2272 38.4065C47.2563 38.4091 47.2855 38.4104 47.314 38.4104C47.7779 38.4104 48.1747 38.0681 48.2194 37.6114C48.2669 37.1265 47.8993 36.6961 47.3988 36.6501L38.2202 35.8097L31.8787 29.666C32.6139 28.7408 33.1077 27.6283 33.2711 26.416H42.2279L49.3372 32.1189C49.5074 32.2549 49.7129 32.3212 49.917 32.3212C50.1788 32.3212 50.4386 32.2122 50.619 32.0019C50.9398 31.6267 50.8856 31.0708 50.4983 30.76L45.0826 26.4154H50.7411C51.2437 26.4154 51.6513 26.0205 51.6513 25.5336L51.6506 25.5355ZM26.3253 30.5589C23.4659 30.5589 21.1402 28.3051 21.1402 25.5355C21.1402 22.7659 23.4665 20.5121 26.3253 20.5121C29.1841 20.5121 31.5104 22.7659 31.5104 25.5355C31.5104 28.3051 29.1841 30.5589 26.3253 30.5589Z" fill="white"/>
<path d="M51.6506 25.5355C51.6506 25.0486 51.243 24.6537 50.7404 24.6537H45.0819L50.4976 20.3097C50.8849 19.9989 50.9391 19.443 50.6183 19.0679C50.2975 18.6927 49.7238 18.6401 49.3365 18.9509L42.2272 24.6537H33.2704C33.107 23.4414 32.6132 22.3283 31.878 21.4038L38.2195 15.26L47.3981 14.4196C47.8986 14.3736 48.2662 13.9432 48.2187 13.4583C48.1713 12.9734 47.7291 12.6173 47.2265 12.6632L40.2393 13.3032L44.2328 9.43434C44.5882 9.09002 44.5882 8.5315 44.2328 8.18719C43.8774 7.84288 43.3009 7.84288 42.9455 8.18719L38.9371 12.0706L39.5936 5.27631C39.6404 4.79138 39.2728 4.36164 38.7723 4.31565C38.2711 4.26965 37.8282 4.62645 37.7807 5.11138L36.9193 14.0254L30.59 20.1573C29.6351 19.445 28.4868 18.9667 27.2355 18.8083V10.1308L33.1219 3.24329C33.4427 2.86809 33.3885 2.3122 33.0012 2.0014C32.6139 1.6906 32.0401 1.74316 31.7193 2.11836L27.2348 7.36518V1.88181C27.2348 1.39491 26.8272 1 26.3246 1C25.8221 1 25.4144 1.39491 25.4144 1.88181V7.36386L20.9306 2.11704C20.6098 1.74185 20.0367 1.68928 19.6488 2.00008C19.2615 2.31088 19.2072 2.86678 19.528 3.24197L25.4144 10.1295V18.807C24.1631 18.9653 23.0142 19.4437 22.0599 20.156L15.7306 14.0241L14.8692 5.11006C14.8224 4.62513 14.3809 4.26834 13.8777 4.31433C13.3771 4.35967 13.0095 4.79006 13.0563 5.27499L13.7128 12.0692L9.70447 8.18587C9.34908 7.84156 8.77258 7.84156 8.41718 8.18587C8.06179 8.53019 8.06179 9.08871 8.41718 9.43302L12.4106 13.3019L5.42345 12.6619C4.92291 12.6166 4.47867 12.9721 4.43119 13.457C4.38372 13.9419 4.75132 14.3723 5.25186 14.4183L14.4304 15.2587L20.7719 21.4025C20.0367 22.3276 19.543 23.4401 19.3795 24.6524H10.4512L3.32296 18.918C2.93636 18.6066 2.3619 18.6585 2.04109 19.033C1.71961 19.4076 1.77319 19.9641 2.15978 20.2749L7.60126 24.6524H1.91019C1.40762 24.6524 1 25.0473 1 25.5342C1 26.0211 1.40762 26.416 1.91019 26.416H7.5348L2.14486 30.7272C1.75691 31.0373 1.70197 31.5932 2.0221 31.969C2.20183 32.1806 2.46228 32.2897 2.72475 32.2897C2.9289 32.2897 3.13441 32.2233 3.30397 32.088L10.3942 26.4167H19.3795C19.543 27.629 20.0367 28.7421 20.7719 29.6666L14.4304 35.8104L5.25186 36.6508C4.75132 36.6968 4.38372 37.1272 4.43119 37.6121C4.47596 38.0688 4.87205 38.4111 5.33664 38.4111C5.36512 38.4111 5.39429 38.4098 5.42345 38.4072L12.4106 37.7672L8.41718 41.6361C8.06179 41.9804 8.06179 42.5389 8.41718 42.8832C8.59488 43.0554 8.82819 43.1415 9.06083 43.1415C9.29346 43.1415 9.52677 43.0554 9.70447 42.8832L13.7128 38.9999L13.0563 45.7941C13.0095 46.279 13.3771 46.7088 13.8777 46.7548C13.9068 46.7574 13.9353 46.7587 13.9638 46.7587C14.4284 46.7587 14.8252 46.4157 14.8692 45.959L15.7306 37.045L22.0599 30.9131C23.0148 31.6254 24.1631 32.1037 25.4144 32.2621V40.9672L19.5606 47.8363C19.2405 48.2122 19.2954 48.7681 19.6833 49.0782C19.8529 49.2136 20.0584 49.2799 20.2626 49.2799C20.525 49.2799 20.7855 49.1709 20.9652 48.9593L25.4151 43.7374V49.1866C25.4151 49.6735 25.8227 50.0684 26.3253 50.0684C26.8279 50.0684 27.2355 49.6735 27.2355 49.1866V43.6724L31.7539 48.9442C31.9336 49.1544 32.1934 49.2629 32.4545 49.2629C32.6593 49.2629 32.8655 49.1965 33.0358 49.0592C33.4224 48.7477 33.4759 48.1918 33.1545 47.8173L27.2355 40.9113V32.2614C28.4868 32.1031 29.6358 31.6247 30.5907 30.9125L36.92 37.0444L37.7814 45.9584C37.8255 46.4157 38.2222 46.758 38.6868 46.758C38.7153 46.758 38.7438 46.7567 38.773 46.7541C39.2735 46.7088 39.6411 46.279 39.5943 45.7934L38.9378 38.9992L42.9461 42.8826C43.1238 43.0547 43.3572 43.1408 43.5898 43.1408C43.8224 43.1408 44.0557 43.0547 44.2334 42.8826C44.5888 42.5382 44.5888 41.9797 44.2334 41.6354L40.24 37.7665L47.2272 38.4065C47.2563 38.4091 47.2855 38.4104 47.314 38.4104C47.7779 38.4104 48.1747 38.0681 48.2194 37.6114C48.2669 37.1265 47.8993 36.6961 47.3988 36.6501L38.2202 35.8097L31.8787 29.666C32.6139 28.7408 33.1077 27.6283 33.2711 26.416H42.2279L49.3372 32.1189C49.5074 32.2549 49.7129 32.3212 49.917 32.3212C50.1788 32.3212 50.4386 32.2122 50.619 32.0019C50.9398 31.6267 50.8856 31.0708 50.4983 30.76L45.0826 26.4154H50.7411C51.2437 26.4154 51.6513 26.0205 51.6513 25.5336L51.6506 25.5355ZM26.3253 30.5589C23.4659 30.5589 21.1402 28.3051 21.1402 25.5355C21.1402 22.7659 23.4665 20.5121 26.3253 20.5121C29.1841 20.5121 31.5104 22.7659 31.5104 25.5355C31.5104 28.3051 29.1841 30.5589 26.3253 30.5589Z" stroke="white" stroke-width="0.6" mask="url(#path-1-outside-1_1284_117459)"/>
</svg>
