<svg width="31" height="31" viewBox="0 0 31 31" fill="none" xmlns="http://www.w3.org/2000/svg">
<path d="M22.5677 22.5675C26.7223 18.4129 26.7223 11.677 22.5677 7.52238C18.4131 3.36779 11.6771 3.36777 7.52256 7.52237C3.36796 11.677 3.36798 18.4129 7.52257 22.5675C11.6772 26.7221 18.4131 26.7221 22.5677 22.5675Z" fill="white"/>
<path d="M22.4483 15.2844C22.4483 15.1375 22.3253 15.0183 22.1736 15.0183H20.4662L22.1004 13.7075C22.2172 13.6138 22.2336 13.446 22.1368 13.3328C22.04 13.2196 21.8668 13.2037 21.75 13.2975L19.6048 15.0183H16.9021C16.8528 14.6525 16.7038 14.3166 16.4819 14.0377L18.3955 12.1838L21.1651 11.9302C21.3161 11.9163 21.427 11.7865 21.4127 11.6401C21.3984 11.4938 21.265 11.3863 21.1133 11.4002L19.0049 11.5933L20.2099 10.4259C20.3172 10.322 20.3172 10.1535 20.2099 10.0496C20.1027 9.94568 19.9288 9.94568 19.8215 10.0496L18.612 11.2214L18.8101 9.17123C18.8242 9.0249 18.7133 8.89523 18.5623 8.88135C18.411 8.86747 18.2774 8.97513 18.2631 9.12146L18.0031 11.8112L16.0933 13.6615C15.8051 13.4466 15.4587 13.3023 15.0811 13.2545V10.6361L16.8573 8.55777C16.9541 8.44455 16.9377 8.27681 16.8208 8.18303C16.704 8.08925 16.5308 8.10511 16.434 8.21832L15.0809 9.80154V8.14694C15.0809 8.00002 14.9579 7.88086 14.8062 7.88086C14.6546 7.88086 14.5316 8.00002 14.5316 8.14694V9.80114L13.1786 8.21793C13.0818 8.10471 12.9088 8.08885 12.7918 8.18263C12.6749 8.27642 12.6585 8.44416 12.7553 8.55737L14.5316 10.6357V13.2541C14.154 13.3019 13.8073 13.4462 13.5193 13.6611L11.6095 11.8108L11.3496 9.12106C11.3354 8.97474 11.2022 8.86707 11.0504 8.88095C10.8993 8.89463 10.7884 9.0245 10.8025 9.17083L11.0006 11.221L9.79111 10.0492C9.68387 9.94529 9.50991 9.94529 9.40267 10.0492C9.29543 10.1531 9.29543 10.3216 9.40267 10.4255L10.6077 11.5929L8.49932 11.3998C8.34828 11.3861 8.21423 11.4934 8.19991 11.6397C8.18558 11.7861 8.2965 11.9159 8.44754 11.9298L11.2172 12.1834L13.1307 14.0373C12.9088 14.3164 12.7599 14.6521 12.7105 15.0179H10.0164L7.8655 13.2876C7.74884 13.1936 7.5755 13.2093 7.4787 13.3223C7.38169 13.4353 7.39786 13.6032 7.51451 13.697L9.15647 15.0179H7.4392C7.28755 15.0179 7.16455 15.1371 7.16455 15.284C7.16455 15.4309 7.28755 15.5501 7.4392 15.5501H9.13641L7.51001 16.851C7.39295 16.9446 7.37637 17.1123 7.47297 17.2257C7.5272 17.2896 7.60579 17.3225 7.68499 17.3225C7.74659 17.3225 7.8086 17.3024 7.85977 17.2616L9.99924 15.5503H12.7105C12.7599 15.9161 12.9088 16.252 13.1307 16.531L11.2172 18.3848L8.44754 18.6384C8.2965 18.6523 8.18558 18.7822 8.19991 18.9285C8.21341 19.0663 8.33293 19.1696 8.47312 19.1696C8.48172 19.1696 8.49052 19.1692 8.49932 19.1684L10.6077 18.9753L9.40267 20.1427C9.29543 20.2466 9.29543 20.4151 9.40267 20.519C9.45629 20.571 9.52669 20.597 9.59689 20.597C9.66709 20.597 9.73749 20.571 9.79111 20.519L11.0006 19.3472L10.8025 21.3974C10.7884 21.5437 10.8993 21.6734 11.0504 21.6873C11.0592 21.6881 11.0678 21.6885 11.0763 21.6885C11.2165 21.6885 11.3363 21.585 11.3496 21.4472L11.6095 18.7574L13.5193 16.9071C13.8075 17.122 14.154 17.2664 14.5316 17.3141V19.9409L12.7652 22.0136C12.6686 22.127 12.6852 22.2948 12.8022 22.3884C12.8534 22.4292 12.9154 22.4492 12.977 22.4492C13.0562 22.4492 13.1348 22.4163 13.189 22.3525L14.5318 20.7768V22.4211C14.5318 22.568 14.6548 22.6872 14.8064 22.6872C14.9581 22.6872 15.0811 22.568 15.0811 22.4211V20.7572L16.4445 22.3479C16.4987 22.4114 16.5771 22.4441 16.6559 22.4441C16.7177 22.4441 16.7799 22.4241 16.8313 22.3826C16.9479 22.2886 16.9641 22.1209 16.8671 22.0079L15.0811 19.924V17.3139C15.4587 17.2662 15.8053 17.1218 16.0935 16.9069L18.0033 18.7572L18.2633 21.447C18.2766 21.585 18.3963 21.6883 18.5365 21.6883C18.5451 21.6883 18.5537 21.6879 18.5625 21.6871C18.7135 21.6734 18.8244 21.5437 18.8103 21.3972L18.6122 19.347L19.8217 20.5188C19.8753 20.5708 19.9457 20.5968 20.0159 20.5968C20.0861 20.5968 20.1565 20.5708 20.2102 20.5188C20.3174 20.4149 20.3174 20.2464 20.2102 20.1425L19.0051 18.9751L21.1135 19.1682C21.1223 19.169 21.1311 19.1694 21.1397 19.1694C21.2797 19.1694 21.3994 19.0661 21.4129 18.9283C21.4272 18.782 21.3163 18.6521 21.1653 18.6382L18.3957 18.3846L16.4821 16.5308C16.704 16.2516 16.853 15.9159 16.9023 15.5501H19.605L21.7502 17.2709C21.8016 17.312 21.8636 17.332 21.9252 17.332C22.0042 17.332 22.0826 17.2991 22.137 17.2356C22.2338 17.1224 22.2174 16.9547 22.1006 16.8609L20.4664 15.5499H22.1738C22.3255 15.5499 22.4485 15.4307 22.4485 15.2838L22.4483 15.2844ZM14.8064 16.8002C13.9436 16.8002 13.2418 16.1201 13.2418 15.2844C13.2418 14.4487 13.9438 13.7686 14.8064 13.7686C15.669 13.7686 16.371 14.4487 16.371 15.2844C16.371 16.1201 15.669 16.8002 14.8064 16.8002Z" fill="#52A3FF"/>
</svg>
