<svg width="335" height="291" viewBox="0 0 335 291" fill="none" xmlns="http://www.w3.org/2000/svg">
<path d="M24.4758 5.98276C24.4758 6.56195 24.3712 7.10091 24.1701 7.61574C23.969 8.12253 23.6714 8.57301 23.2853 8.95109C22.8991 9.32917 22.4245 9.61072 21.8695 9.79574L21.2822 8.91087C21.7568 8.74998 22.1671 8.5167 22.505 8.21102C22.8428 7.90534 23.1002 7.56748 23.2772 7.18135C23.4542 6.79523 23.5427 6.39302 23.5427 5.98276V5.32313H24.4758V5.98276ZM26.6075 5.0818V6.00689H21.6201V5.0818H26.6075ZM24.0816 10.0371V11.0024H27.9027V10.0371H29.0289V13.7294H22.9474V10.0371H24.0816ZM24.701 5.9908C24.701 6.36888 24.7815 6.73892 24.9504 7.10091C25.1193 7.4629 25.3607 7.78467 25.6905 8.07427C26.0203 8.36386 26.4145 8.58106 26.873 8.7339L26.3099 9.61072C25.7709 9.4257 25.3124 9.1522 24.9343 8.79021C24.5562 8.42821 24.2666 8.00187 24.0736 7.52726C23.8805 7.0446 23.784 6.53781 23.784 5.9908V5.32313H24.7091V5.9908H24.701ZM24.0816 12.8123H27.9027V11.8792H24.0816V12.8123ZM28.2003 6.73892V7.67205H26.3099V6.73892H28.2003ZM29.0369 4.61523V9.65094H27.9107V4.61523H29.0369Z" fill="#545251"/>
<path d="M38.7617 9.42421V10.3252H30.3555V9.42421H38.7617ZM34.9085 6.23064C34.9085 6.7133 34.7557 7.1316 34.442 7.50164C34.1363 7.87167 33.6939 8.16931 33.1147 8.39455C32.5435 8.61979 31.8678 8.77263 31.0956 8.83698L30.7416 7.9682C31.4093 7.91994 31.9885 7.81536 32.4631 7.65448C32.9377 7.49359 33.2997 7.28444 33.541 7.04311C33.7823 6.80178 33.903 6.52828 33.903 6.23869V6.06171H34.9005V6.23869L34.9085 6.23064ZM37.9332 5.47448V6.37544H31.176V5.47448H37.9332ZM37.7321 11.0331V13.8325H36.5898V11.934H31.2806V11.0331H37.7321ZM35.1096 4.59766V5.933H33.9834V4.59766H35.1096ZM35.1096 8.40259V9.81034H33.9834V8.40259H35.1096ZM35.174 6.23064C35.174 6.52023 35.2947 6.7857 35.5279 7.03507C35.7693 7.2764 36.1313 7.48555 36.6059 7.64643C37.0805 7.80732 37.6597 7.91189 38.3354 7.96016L37.9814 8.82894C37.2011 8.76458 36.5254 8.61174 35.9543 8.3865C35.3832 8.16126 34.9407 7.86363 34.635 7.49359C34.3293 7.12355 34.1765 6.70525 34.1765 6.2226V6.04562H35.174V6.2226V6.23064Z" fill="#545251"/>
<path d="M48.6731 9.42438V10.3414H40.2588V9.42438H48.6731ZM44.4659 4.86328C45.1336 4.86328 45.7128 4.93568 46.2116 5.08852C46.7103 5.24136 47.0964 5.45856 47.3699 5.74011C47.6434 6.02166 47.7802 6.35147 47.7802 6.72955C47.7802 7.10763 47.6434 7.46158 47.3699 7.74313C47.0964 8.02468 46.7103 8.24992 46.2116 8.39471C45.7128 8.54755 45.1256 8.61995 44.4659 8.61995C43.8063 8.61995 43.211 8.54755 42.7123 8.39471C42.2136 8.24187 41.8274 8.02468 41.5459 7.74313C41.2724 7.46158 41.1356 7.11568 41.1356 6.72955C41.1356 6.35147 41.2724 6.02166 41.5459 5.74011C41.8194 5.45856 42.2055 5.24136 42.7123 5.08852C43.211 4.93568 43.7983 4.86328 44.4659 4.86328ZM42.4468 10.9689V13.0523H41.3046V10.9689H42.4468ZM47.7239 12.7386V13.6557H41.2965V12.7386H47.7239ZM44.4659 5.76424C44.0235 5.76424 43.6374 5.80446 43.3156 5.87686C42.9939 5.94926 42.7445 6.06188 42.5755 6.20667C42.4066 6.35147 42.3181 6.5204 42.3262 6.72151C42.3262 6.9387 42.4066 7.11568 42.5755 7.26047C42.7445 7.40527 42.9939 7.51789 43.3156 7.59029C43.6374 7.66269 44.0235 7.70291 44.474 7.70291C44.9245 7.70291 45.3106 7.66269 45.6324 7.59029C45.9541 7.51789 46.1955 7.40527 46.3724 7.26047C46.5414 7.11568 46.6299 6.9387 46.6299 6.72151C46.6299 6.5204 46.5414 6.35147 46.3724 6.20667C46.2035 6.06188 45.9541 5.94926 45.6324 5.87686C45.3106 5.80446 44.9245 5.76424 44.474 5.76424H44.4659ZM45.0371 8.09708V9.85877H43.9028V8.09708H45.0371Z" fill="#545251"/>
<path d="M57.7461 11.8147V12.7478H49.3076V11.8147H57.7461ZM56.7244 5.29883V6.20783H51.4635V9.21638H50.3293V5.29883H56.7244ZM56.7968 8.80613V9.70708H50.3293V8.80613H56.7968ZM54.0698 9.20834V12.1365H52.9436V9.20834H54.0698Z" fill="#545251"/>
<path d="M61.3265 14.7018L61.053 14.9351C59.5809 13.5676 58.873 11.9346 58.873 10.0281C58.873 8.1216 59.5809 6.48862 61.053 5.12109L61.3265 5.35438C60.0958 7.13216 59.7177 8.36293 59.7177 10.0361C59.7177 11.7093 60.0958 12.9401 61.3265 14.7179V14.7018Z" fill="#545251"/>
<path d="M63.8684 8.95158C63.5547 8.95158 63.2651 8.87114 62.9997 8.7183C62.7342 8.56546 62.525 8.35631 62.3641 8.09085C62.2113 7.82539 62.1309 7.53579 62.1309 7.22207C62.1309 6.90834 62.2113 6.61875 62.3641 6.35329C62.517 6.08783 62.7261 5.87868 62.9997 5.72584C63.2651 5.57299 63.5547 5.49255 63.8684 5.49255C64.1821 5.49255 64.4718 5.57299 64.7372 5.72584C65.0027 5.87868 65.2118 6.08783 65.3727 6.35329C65.5255 6.61875 65.606 6.90834 65.606 7.22207C65.606 7.53579 65.5255 7.82539 65.3727 8.09085C65.2199 8.35631 65.0027 8.56546 64.7372 8.7183C64.4718 8.87114 64.1821 8.95158 63.8684 8.95158ZM63.8684 8.03454C64.0213 8.03454 64.158 7.99432 64.2787 7.92192C64.4074 7.84952 64.5039 7.75299 64.5763 7.62428C64.6487 7.49557 64.6809 7.36687 64.6809 7.21402C64.6809 7.06118 64.6487 6.93248 64.5763 6.80377C64.5039 6.6831 64.4074 6.57853 64.2787 6.50613C64.15 6.43373 64.0132 6.40155 63.8684 6.40155C63.7236 6.40155 63.5869 6.43373 63.4582 6.50613C63.3295 6.57853 63.2329 6.67506 63.1605 6.80377C63.0881 6.92443 63.0479 7.06118 63.0479 7.21402C63.0479 7.36687 63.0881 7.50362 63.1605 7.62428C63.2329 7.74495 63.3295 7.84952 63.4582 7.92192C63.5869 7.99432 63.7156 8.03454 63.8684 8.03454ZM71.6472 8.03454C71.599 7.74495 71.4944 7.49557 71.3255 7.27838C71.1565 7.06118 70.9554 6.90834 70.706 6.79572C70.4567 6.6831 70.1832 6.62679 69.8855 6.62679C69.4753 6.62679 69.1133 6.73137 68.8076 6.93248C68.5019 7.13358 68.2526 7.43122 68.0836 7.82539C67.9067 8.21956 67.8182 8.68612 67.8182 9.23313C67.8182 9.78014 67.9067 10.2628 68.0836 10.6489C68.2606 11.0431 68.5019 11.3327 68.8076 11.5338C69.1213 11.7349 69.4753 11.8314 69.8775 11.8314C70.1751 11.8314 70.4486 11.7751 70.69 11.6705C70.9313 11.566 71.1404 11.4131 71.3094 11.204C71.4783 11.0029 71.5909 10.7535 71.6472 10.472H72.9906C72.9263 10.9546 72.7493 11.381 72.4758 11.7671C72.2023 12.1532 71.8403 12.4589 71.3898 12.6841C70.9393 12.9094 70.4326 13.022 69.8614 13.022C69.2098 13.022 68.6226 12.8691 68.1158 12.5635C67.609 12.2578 67.2068 11.8234 66.9172 11.2442C66.6276 10.6731 66.4828 9.99734 66.4828 9.21705C66.4828 8.43675 66.6276 7.76103 66.9172 7.18989C67.2068 6.61875 67.609 6.17631 68.1238 5.87063C68.6387 5.56495 69.2179 5.41211 69.8694 5.41211C70.4164 5.41211 70.9072 5.51668 71.3496 5.71779C71.792 5.92694 72.1621 6.22458 72.4436 6.6107C72.7332 7.00487 72.9102 7.4634 72.9906 8.00236H71.6472V8.03454Z" fill="#545251"/>
<path d="M73.7158 5.34656L73.9893 5.11328C75.4614 6.48885 76.1693 8.11379 76.1693 10.0203C76.1693 11.9268 75.4614 13.5598 73.9893 14.9273L73.7158 14.694C74.9466 12.9162 75.3247 11.6854 75.3247 10.0122C75.3247 8.33903 74.9466 7.10826 73.7158 5.33048V5.34656Z" fill="#545251"/>
<path d="M262.136 265.617C262.136 266.196 262.031 266.735 261.822 267.242C261.613 267.748 261.315 268.183 260.913 268.553C260.519 268.923 260.036 269.196 259.481 269.381L258.91 268.489C259.393 268.336 259.811 268.11 260.149 267.821C260.495 267.523 260.752 267.193 260.929 266.807C261.106 266.429 261.195 266.035 261.195 265.617V264.909H262.136V265.617ZM266.609 269.816V272.213H261.613V273.275H260.511V271.368H265.482V270.701H260.487V269.816H266.617H266.609ZM266.882 272.929V273.83H260.503V272.929H266.882ZM262.369 265.617C262.369 266.019 262.45 266.397 262.619 266.759C262.787 267.121 263.045 267.435 263.383 267.708C263.721 267.982 264.131 268.191 264.606 268.336L264.042 269.213C263.487 269.044 263.013 268.778 262.619 268.424C262.224 268.07 261.927 267.652 261.718 267.177C261.516 266.695 261.412 266.18 261.412 265.617V264.909H262.361V265.617H262.369ZM266.592 264.684V269.389H265.466V264.684H266.592Z" fill="#545251"/>
<path d="M269.505 265.737V271.063H268.371V265.737H269.505ZM268.982 270.612C269.513 270.612 270.036 270.596 270.551 270.556C271.066 270.516 271.597 270.443 272.144 270.331L272.265 271.32C271.677 271.425 271.114 271.497 270.575 271.537C270.036 271.578 269.513 271.602 268.982 271.602H268.371V270.612H268.982ZM273.777 264.853V273.444H272.715V264.853H273.777ZM275.104 268.312V269.237H273.463V268.312H275.104ZM275.892 264.684V273.902H274.798V264.684H275.892Z" fill="#545251"/>
<path d="M285.487 269.495V270.412H277.081V269.495H285.487ZM281.272 264.934C281.94 264.934 282.519 265.006 283.018 265.159C283.516 265.312 283.903 265.529 284.176 265.81C284.45 266.092 284.586 266.422 284.586 266.8C284.586 267.178 284.45 267.532 284.176 267.813C283.903 268.095 283.516 268.32 283.018 268.465C282.519 268.61 281.932 268.69 281.272 268.69C280.612 268.69 280.017 268.618 279.518 268.465C279.02 268.312 278.634 268.095 278.352 267.813C278.079 267.532 277.942 267.186 277.942 266.8C277.942 266.422 278.079 266.092 278.352 265.81C278.626 265.529 279.012 265.312 279.518 265.159C280.017 265.006 280.604 264.934 281.272 264.934ZM279.253 271.039V273.123H278.111V271.039H279.253ZM284.538 272.809V273.734H278.111V272.809H284.538ZM281.272 265.835C280.83 265.835 280.444 265.875 280.122 265.947C279.8 266.02 279.551 266.132 279.382 266.277C279.213 266.422 279.124 266.591 279.132 266.792C279.132 267.009 279.213 267.186 279.382 267.331C279.551 267.476 279.8 267.588 280.122 267.661C280.444 267.733 280.83 267.773 281.28 267.773C281.731 267.773 282.117 267.733 282.439 267.661C282.76 267.588 283.002 267.476 283.179 267.331C283.356 267.186 283.436 267.009 283.436 266.792C283.436 266.591 283.348 266.422 283.179 266.277C283.01 266.132 282.76 266.02 282.439 265.947C282.117 265.875 281.731 265.835 281.28 265.835H281.272ZM281.843 268.167V269.929H280.709V268.167H281.843Z" fill="#545251"/>
<path d="M294.554 271.883V272.816H286.115V271.883H294.554ZM293.54 265.367V266.276H288.279V269.285H287.145V265.359H293.54V265.367ZM293.612 268.875V269.776H287.145V268.875H293.612ZM290.885 269.277V272.205H289.759V269.277H290.885Z" fill="#545251"/>
<path d="M298.142 274.77L297.868 275.003C296.396 273.628 295.688 272.003 295.688 270.096C295.688 268.19 296.396 266.557 297.868 265.189L298.142 265.423C296.911 267.201 296.533 268.431 296.533 270.105C296.533 271.778 296.911 273.008 298.142 274.786V274.77Z" fill="#545251"/>
<path d="M300.676 269.02C300.362 269.02 300.073 268.939 299.807 268.787C299.542 268.634 299.333 268.425 299.172 268.159C299.019 267.894 298.938 267.604 298.938 267.29C298.938 266.977 299.019 266.687 299.172 266.422C299.325 266.156 299.534 265.947 299.807 265.794C300.081 265.641 300.362 265.561 300.676 265.561C300.99 265.561 301.279 265.641 301.545 265.794C301.81 265.947 302.019 266.156 302.18 266.422C302.333 266.687 302.414 266.977 302.414 267.29C302.414 267.604 302.333 267.894 302.18 268.159C302.019 268.425 301.81 268.634 301.545 268.787C301.279 268.939 300.99 269.02 300.676 269.02ZM300.676 268.103C300.821 268.103 300.966 268.063 301.086 267.99C301.215 267.918 301.312 267.821 301.384 267.693C301.456 267.572 301.488 267.435 301.488 267.282C301.488 267.13 301.456 266.993 301.384 266.872C301.312 266.751 301.215 266.647 301.086 266.574C300.958 266.502 300.821 266.47 300.676 266.47C300.531 266.47 300.395 266.502 300.266 266.574C300.137 266.647 300.041 266.743 299.968 266.872C299.896 266.993 299.856 267.13 299.856 267.282C299.856 267.435 299.888 267.572 299.968 267.693C300.041 267.813 300.137 267.918 300.266 267.99C300.395 268.063 300.531 268.103 300.676 268.103ZM308.455 268.103C308.407 267.813 308.302 267.564 308.141 267.347C307.98 267.138 307.771 266.977 307.522 266.864C307.272 266.751 306.999 266.695 306.701 266.695C306.291 266.695 305.929 266.8 305.623 267.001C305.31 267.202 305.068 267.5 304.899 267.894C304.73 268.288 304.634 268.754 304.634 269.301C304.634 269.849 304.722 270.331 304.899 270.717C305.076 271.103 305.318 271.401 305.623 271.602C305.937 271.803 306.291 271.9 306.693 271.9C306.991 271.9 307.264 271.843 307.506 271.739C307.747 271.634 307.956 271.473 308.125 271.272C308.294 271.071 308.407 270.822 308.463 270.54H309.806C309.742 271.023 309.565 271.449 309.291 271.835C309.018 272.222 308.656 272.527 308.205 272.752C307.755 272.978 307.248 273.09 306.677 273.09C306.025 273.09 305.438 272.937 304.931 272.632C304.425 272.326 304.022 271.892 303.733 271.313C303.443 270.741 303.298 270.066 303.298 269.285C303.298 268.505 303.443 267.829 303.733 267.258C304.022 266.687 304.425 266.245 304.94 265.939C305.454 265.633 306.034 265.48 306.685 265.48C307.232 265.48 307.723 265.585 308.165 265.786C308.608 265.987 308.978 266.293 309.267 266.679C309.557 267.065 309.734 267.532 309.814 268.071H308.471L308.455 268.103Z" fill="#545251"/>
<path d="M310.521 265.415L310.795 265.182C312.267 266.557 312.975 268.182 312.975 270.089C312.975 271.995 312.267 273.628 310.795 274.996L310.521 274.762C311.752 272.985 312.13 271.754 312.13 270.081C312.13 268.407 311.752 267.177 310.521 265.399V265.415Z" fill="#545251"/>
<path d="M314 282.38C314 283.033 313.917 283.652 313.75 284.238C313.584 284.823 313.34 285.375 313.018 285.893H312.54C312.718 285.613 312.875 285.279 313.012 284.891C313.151 284.503 313.259 284.092 313.336 283.656C313.415 283.221 313.454 282.795 313.454 282.38C313.454 281.963 313.415 281.537 313.336 281.101C313.259 280.666 313.151 280.254 313.012 279.866C312.875 279.478 312.718 279.145 312.54 278.867H313.018C313.34 279.385 313.584 279.937 313.75 280.522C313.917 281.108 314 281.727 314 282.38Z" fill="#666464"/>
<path d="M311.872 281.802V282.222H305.629V281.802H311.872ZM311.134 280.685V281.094H306.43V280.685H311.134ZM311.085 278.811V279.225H306.913V280.877H306.43V278.811H311.085ZM308.747 282.88C309.233 282.88 309.652 282.929 310.003 283.026C310.357 283.121 310.626 283.261 310.813 283.446C311.001 283.629 311.096 283.849 311.096 284.107C311.096 284.367 311.001 284.587 310.813 284.769C310.626 284.952 310.357 285.091 310.006 285.186C309.655 285.283 309.235 285.331 308.747 285.331C308.256 285.331 307.834 285.283 307.481 285.186C307.13 285.091 306.86 284.952 306.672 284.769C306.485 284.587 306.392 284.367 306.392 284.107C306.392 283.849 306.486 283.629 306.675 283.446C306.863 283.261 307.133 283.121 307.484 283.026C307.837 282.929 308.258 282.88 308.747 282.88ZM308.747 283.273C308.366 283.275 308.036 283.31 307.756 283.377C307.478 283.443 307.264 283.539 307.114 283.665C306.964 283.79 306.889 283.937 306.891 284.107C306.889 284.279 306.964 284.427 307.114 284.552C307.264 284.676 307.478 284.77 307.756 284.834C308.036 284.9 308.366 284.933 308.747 284.933C309.125 284.933 309.454 284.9 309.732 284.834C310.012 284.77 310.227 284.676 310.377 284.552C310.529 284.427 310.605 284.279 310.607 284.107C310.605 283.937 310.529 283.79 310.377 283.665C310.227 283.539 310.012 283.443 309.732 283.377C309.454 283.31 309.125 283.275 308.747 283.273Z" fill="#666464"/>
<path d="M302.094 280.722V281.142H300.371V280.722H302.094ZM300.373 279.061C300.372 279.647 300.26 280.18 300.039 280.661C299.819 281.143 299.477 281.569 299.012 281.94C298.549 282.312 297.962 282.617 297.25 282.857L297.047 282.459C297.695 282.243 298.226 281.976 298.642 281.658C299.059 281.337 299.367 280.974 299.567 280.568C299.766 280.162 299.867 279.715 299.868 279.229V279.061H300.373ZM300.132 279.061V279.479H297.338V279.061H300.132ZM299.805 280.703L297.088 280.919L296.995 280.502L299.805 280.362V280.703ZM302.481 278.51V283.601H301.99V278.51H302.481ZM302.687 284.772V285.187H298.214V284.772H302.687ZM298.708 283.087V284.976H298.214V283.087H298.708Z" fill="#666464"/>
<path d="M291.792 279.05C292.121 279.052 292.413 279.15 292.667 279.344C292.924 279.538 293.123 279.814 293.266 280.172C293.408 280.529 293.481 280.945 293.482 281.418C293.481 281.892 293.408 282.308 293.266 282.664C293.123 283.021 292.924 283.297 292.667 283.493C292.413 283.687 292.121 283.784 291.792 283.784C291.461 283.784 291.166 283.687 290.908 283.493C290.65 283.297 290.45 283.021 290.307 282.664C290.166 282.308 290.097 281.892 290.099 281.418C290.097 280.945 290.166 280.529 290.307 280.172C290.45 279.814 290.65 279.538 290.908 279.344C291.166 279.15 291.461 279.052 291.792 279.05ZM291.792 279.484C291.552 279.485 291.339 279.568 291.153 279.731C290.968 279.893 290.823 280.121 290.719 280.414C290.616 280.707 290.565 281.042 290.565 281.418C290.565 281.795 290.616 282.131 290.719 282.426C290.823 282.718 290.968 282.946 291.153 283.109C291.339 283.272 291.552 283.353 291.792 283.353C292.03 283.353 292.242 283.272 292.429 283.109C292.615 282.944 292.761 282.716 292.865 282.423C292.969 282.13 293.021 281.795 293.021 281.418C293.021 281.042 292.969 280.708 292.865 280.417C292.761 280.124 292.615 279.896 292.429 279.733C292.242 279.569 292.03 279.485 291.792 279.484ZM295.609 278.504V285.362H295.126V278.504H295.609ZM295.349 281.166V281.575H293.31V281.166H295.349Z" fill="#666464"/>
<path d="M287.286 281.218V281.633H285.92V281.218H287.286ZM288.947 278.504V285.354H288.469V278.504H288.947ZM287.585 278.666V284.994H287.111V278.666H287.585ZM284.654 279.113C284.947 279.113 285.203 279.209 285.423 279.401C285.644 279.592 285.815 279.863 285.936 280.216C286.059 280.57 286.121 280.982 286.123 281.454C286.121 281.928 286.059 282.342 285.936 282.697C285.815 283.05 285.644 283.323 285.423 283.515C285.203 283.707 284.947 283.802 284.654 283.801C284.362 283.802 284.105 283.707 283.883 283.515C283.664 283.323 283.493 283.05 283.373 282.697C283.254 282.342 283.194 281.928 283.194 281.454C283.194 280.982 283.254 280.57 283.373 280.216C283.493 279.863 283.664 279.592 283.883 279.401C284.105 279.209 284.362 279.113 284.654 279.113ZM284.654 279.566C284.455 279.566 284.279 279.645 284.127 279.802C283.977 279.959 283.861 280.181 283.779 280.466C283.697 280.75 283.656 281.079 283.658 281.454C283.656 281.827 283.697 282.157 283.779 282.442C283.861 282.728 283.977 282.949 284.127 283.106C284.279 283.264 284.455 283.342 284.654 283.342C284.856 283.342 285.032 283.264 285.184 283.109C285.336 282.953 285.453 282.732 285.535 282.445C285.618 282.158 285.659 281.827 285.659 281.454C285.659 281.079 285.618 280.75 285.535 280.466C285.453 280.181 285.336 279.959 285.184 279.802C285.032 279.645 284.856 279.566 284.654 279.566Z" fill="#666464"/>
<path d="M280.366 282.094V282.585H278.003V282.094H280.366Z" fill="#666464"/>
<path d="M271.202 279.847C271.202 280.195 271.115 280.519 270.941 280.819C270.767 281.119 270.53 281.376 270.23 281.59C269.932 281.804 269.596 281.967 269.223 282.078L268.998 281.689C269.329 281.595 269.631 281.458 269.904 281.277C270.178 281.096 270.396 280.882 270.557 280.635C270.718 280.388 270.798 280.125 270.798 279.847V279.532H271.202V279.847ZM271.281 279.847C271.281 280.107 271.363 280.352 271.526 280.583C271.69 280.813 271.912 281.013 272.19 281.181C272.47 281.347 272.776 281.472 273.109 281.554L272.887 281.936C272.508 281.839 272.167 281.691 271.863 281.491C271.561 281.292 271.323 281.051 271.147 280.769C270.971 280.488 270.884 280.18 270.886 279.847V279.532H271.281V279.847ZM272.876 279.227V279.636H269.196V279.227H272.876ZM271.292 278.467V279.46H270.798V278.467H271.292ZM274.465 280.248V280.651H272.659V280.248H274.465ZM274.64 278.502V282.111H274.157V278.502H274.64ZM274.64 282.463V284.013H270.741V285.078H270.26V283.629H274.157V282.861H270.241V282.463H274.64ZM274.923 284.861V285.265H270.26V284.861H274.923Z" fill="#666464"/>
<path d="M268.394 282.061V282.473H262.123V282.061H268.394ZM267.573 278.686V280.228H263.435V281.197H262.952V279.852H267.085V279.089H262.927V278.686H267.573ZM267.724 281.005V281.397H262.952V281.005H267.724ZM267.565 283.167V285.253H262.993V283.167H267.565ZM263.473 283.571V284.841H267.085V283.571H263.473Z" fill="#666464"/>
<path d="M260.56 280.076V280.494H258.386V280.076H260.56ZM260.56 282.258V282.673H258.386V282.258H260.56ZM257.091 279.05C257.42 279.052 257.712 279.15 257.966 279.344C258.222 279.538 258.422 279.814 258.565 280.172C258.707 280.529 258.779 280.945 258.781 281.418C258.779 281.892 258.707 282.308 258.565 282.664C258.422 283.021 258.222 283.297 257.966 283.493C257.712 283.687 257.42 283.784 257.091 283.784C256.76 283.784 256.465 283.687 256.207 283.493C255.949 283.297 255.749 283.021 255.606 282.664C255.465 282.308 255.396 281.892 255.397 281.418C255.396 280.945 255.465 280.529 255.606 280.172C255.749 279.814 255.949 279.538 256.207 279.344C256.465 279.15 256.76 279.052 257.091 279.05ZM257.091 279.484C256.851 279.485 256.638 279.568 256.451 279.731C256.267 279.893 256.122 280.121 256.018 280.414C255.915 280.707 255.864 281.042 255.864 281.418C255.864 281.795 255.915 282.131 256.018 282.426C256.122 282.718 256.267 282.946 256.451 283.109C256.638 283.272 256.851 283.353 257.091 283.353C257.329 283.353 257.541 283.272 257.727 283.109C257.914 282.944 258.06 282.716 258.164 282.423C258.268 282.13 258.32 281.795 258.32 281.418C258.32 281.042 258.268 280.708 258.164 280.417C258.06 280.124 257.914 279.896 257.727 279.733C257.541 279.569 257.329 279.485 257.091 279.484ZM260.908 278.504V285.362H260.425V278.504H260.908Z" fill="#666464"/>
<path d="M253.156 282.378C253.156 281.725 253.239 281.106 253.406 280.52C253.572 279.935 253.817 279.383 254.139 278.865H254.616C254.439 279.145 254.281 279.479 254.141 279.867C254.004 280.255 253.896 280.666 253.818 281.102C253.741 281.537 253.702 281.963 253.702 282.378C253.702 282.795 253.741 283.221 253.818 283.657C253.896 284.092 254.004 284.504 254.141 284.892C254.281 285.28 254.439 285.613 254.616 285.891H254.139C253.817 285.373 253.572 284.821 253.406 284.236C253.239 283.651 253.156 283.031 253.156 282.378Z" fill="#666464"/>
<path d="M39.084 27.3709C39.084 27.1576 39.2572 26.9844 39.4705 26.9844C39.6837 26.9844 39.857 27.1576 39.857 27.3709V237.471H304.183L304.261 237.479C304.437 237.515 304.569 237.671 304.569 237.857C304.569 238.044 304.437 238.199 304.261 238.235L304.183 238.243H39.084V27.3709Z" fill="#DDDDDD"/>
<path d="M29.2611 238.112C28.7389 238.112 28.2889 237.974 27.9111 237.699C27.5356 237.423 27.2489 237.022 27.0511 236.495C26.8556 235.966 26.7578 235.332 26.7578 234.592C26.7578 233.856 26.8567 233.226 27.0545 232.702C27.2545 232.175 27.5422 231.774 27.9178 231.499C28.2933 231.221 28.7411 231.082 29.2611 231.082C29.7833 231.082 30.2322 231.221 30.6077 231.499C30.9833 231.776 31.2699 232.178 31.4677 232.702C31.6677 233.226 31.7677 233.856 31.7677 234.592C31.7677 235.332 31.6688 235.966 31.471 236.495C31.2733 237.022 30.9866 237.423 30.6111 237.699C30.2355 237.974 29.7855 238.112 29.2611 238.112ZM29.2611 237.219C29.57 237.219 29.8344 237.117 30.0544 236.915C30.2744 236.713 30.4422 236.416 30.5577 236.025C30.6755 235.632 30.7344 235.154 30.7344 234.592C30.7344 234.032 30.6755 233.555 30.5577 233.162C30.44 232.769 30.2711 232.471 30.0511 232.269C29.8311 232.066 29.5677 231.965 29.2611 231.965C28.9567 231.965 28.6944 232.066 28.4744 232.269C28.2544 232.471 28.0856 232.769 27.9678 233.162C27.85 233.555 27.7911 234.032 27.7911 234.592C27.7911 235.154 27.8489 235.632 27.9645 236.025C28.08 236.416 28.2478 236.713 28.4678 236.915C28.69 237.117 28.9544 237.219 29.2611 237.219Z" fill="#545251"/>
<path d="M21.1469 238.002L21.1436 237.249L23.5102 234.859C23.7946 234.565 24.0124 234.326 24.1635 234.142C24.3168 233.958 24.4335 233.779 24.5135 233.605C24.5957 233.43 24.6368 233.245 24.6368 233.052C24.6368 232.832 24.5813 232.639 24.4701 232.472C24.359 232.305 24.2079 232.178 24.0168 232.089C23.8257 231.998 23.6102 231.952 23.3702 231.952C23.1213 231.952 22.9035 232.002 22.7169 232.102C22.5302 232.2 22.3857 232.341 22.2835 232.525C22.1813 232.708 22.1302 232.919 22.1302 233.159H21.1436C21.1436 232.748 21.2391 232.385 21.4302 232.072C21.6235 231.756 21.8902 231.513 22.2302 231.342C22.5724 231.169 22.9591 231.082 23.3902 231.082C23.8213 231.082 24.2057 231.166 24.5435 231.335C24.8812 231.502 25.1446 231.733 25.3335 232.029C25.5246 232.324 25.6212 232.655 25.6235 233.022C25.6212 233.284 25.5712 233.535 25.4735 233.775C25.3757 234.015 25.209 234.282 24.9735 234.575C24.7401 234.869 24.4079 235.227 23.9768 235.652L22.5902 237.062V237.112H25.7335V238.002H21.1469Z" fill="#545251"/>
<path d="M44.2152 253.42C43.693 253.42 43.243 253.283 42.8652 253.007C42.4897 252.732 42.203 252.33 42.0052 251.804C41.8097 251.275 41.7119 250.641 41.7119 249.901C41.7119 249.165 41.8108 248.535 42.0086 248.011C42.2086 247.484 42.4963 247.083 42.8719 246.807C43.2474 246.53 43.6952 246.391 44.2152 246.391C44.7374 246.391 45.1863 246.53 45.5618 246.807C45.9374 247.085 46.224 247.486 46.4218 248.011C46.6218 248.535 46.7218 249.165 46.7218 249.901C46.7218 250.641 46.6229 251.275 46.4251 251.804C46.2274 252.33 45.9407 252.732 45.5652 253.007C45.1896 253.283 44.7396 253.42 44.2152 253.42ZM44.2152 252.527C44.5241 252.527 44.7885 252.426 45.0085 252.224C45.2285 252.022 45.3963 251.725 45.5118 251.334C45.6296 250.941 45.6885 250.463 45.6885 249.901C45.6885 249.341 45.6296 248.864 45.5118 248.471C45.3941 248.077 45.2252 247.779 45.0052 247.577C44.7852 247.375 44.5219 247.274 44.2152 247.274C43.9108 247.274 43.6485 247.375 43.4285 247.577C43.2085 247.779 43.0397 248.077 42.9219 248.471C42.8041 248.864 42.7452 249.341 42.7452 249.901C42.7452 250.463 42.803 250.941 42.9186 251.334C43.0341 251.725 43.2019 252.022 43.4219 252.224C43.6441 252.426 43.9085 252.527 44.2152 252.527Z" fill="#545251"/>
<path d="M36.101 253.31L36.0977 252.557L38.4643 250.167C38.7487 249.874 38.9665 249.635 39.1176 249.451C39.2709 249.266 39.3876 249.087 39.4676 248.914C39.5498 248.738 39.5909 248.554 39.5909 248.361C39.5909 248.141 39.5354 247.947 39.4242 247.781C39.3131 247.614 39.162 247.486 38.9709 247.397C38.7798 247.306 38.5643 247.261 38.3243 247.261C38.0754 247.261 37.8576 247.311 37.671 247.411C37.4843 247.508 37.3399 247.649 37.2376 247.834C37.1354 248.016 37.0843 248.227 37.0843 248.467H36.0977C36.0977 248.056 36.1932 247.694 36.3843 247.381C36.5776 247.065 36.8443 246.822 37.1843 246.651C37.5265 246.477 37.9132 246.391 38.3443 246.391C38.7754 246.391 39.1598 246.475 39.4976 246.644C39.8353 246.811 40.0987 247.042 40.2876 247.337C40.4787 247.633 40.5753 247.964 40.5776 248.331C40.5753 248.593 40.5253 248.844 40.4276 249.084C40.3298 249.324 40.1631 249.591 39.9276 249.884C39.6942 250.177 39.362 250.536 38.9309 250.961L37.5443 252.37V252.42H40.6876V253.31H36.101Z" fill="#545251"/>
<path d="M84.1215 253.31L84.1182 252.557L86.4848 250.167C86.7692 249.874 86.987 249.635 87.1381 249.451C87.2914 249.266 87.4081 249.087 87.4881 248.914C87.5703 248.738 87.6114 248.554 87.6114 248.361C87.6114 248.141 87.5559 247.947 87.4448 247.781C87.3336 247.614 87.1825 247.486 86.9914 247.397C86.8003 247.306 86.5848 247.261 86.3448 247.261C86.0959 247.261 85.8781 247.311 85.6915 247.411C85.5048 247.508 85.3604 247.649 85.2581 247.834C85.1559 248.016 85.1048 248.227 85.1048 248.467H84.1182C84.1182 248.056 84.2137 247.694 84.4048 247.381C84.5982 247.065 84.8648 246.822 85.2048 246.651C85.547 246.477 85.9337 246.391 86.3648 246.391C86.7959 246.391 87.1803 246.475 87.5181 246.644C87.8559 246.811 88.1192 247.042 88.3081 247.337C88.4992 247.633 88.5958 247.964 88.5981 248.331C88.5958 248.593 88.5458 248.844 88.4481 249.084C88.3503 249.324 88.1836 249.591 87.9481 249.884C87.7147 250.177 87.3825 250.536 86.9514 250.961L85.5648 252.37V252.42H88.7081V253.31H84.1215Z" fill="#545251"/>
<path d="M78.3803 253.31L78.377 252.557L80.7436 250.167C81.028 249.874 81.2458 249.635 81.3969 249.451C81.5502 249.266 81.6669 249.087 81.7469 248.914C81.8291 248.738 81.8702 248.554 81.8702 248.361C81.8702 248.141 81.8147 247.947 81.7035 247.781C81.5924 247.614 81.4413 247.486 81.2502 247.397C81.0591 247.306 80.8436 247.261 80.6036 247.261C80.3547 247.261 80.1369 247.311 79.9503 247.411C79.7636 247.508 79.6191 247.649 79.5169 247.834C79.4147 248.016 79.3636 248.227 79.3636 248.467H78.377C78.377 248.056 78.4725 247.694 78.6636 247.381C78.8569 247.065 79.1236 246.822 79.4636 246.651C79.8058 246.477 80.1925 246.391 80.6236 246.391C81.0547 246.391 81.4391 246.475 81.7769 246.644C82.1146 246.811 82.378 247.042 82.5669 247.337C82.758 247.633 82.8546 247.964 82.8569 248.331C82.8546 248.593 82.8046 248.844 82.7069 249.084C82.6091 249.324 82.4424 249.591 82.2069 249.884C81.9735 250.177 81.6413 250.536 81.2102 250.961L79.8236 252.37V252.42H82.9668V253.31H78.3803Z" fill="#545251"/>
<path d="M262.722 253.42C262.2 253.42 261.75 253.283 261.372 253.007C260.997 252.732 260.71 252.33 260.512 251.804C260.317 251.275 260.219 250.641 260.219 249.901C260.219 249.165 260.318 248.535 260.515 248.011C260.715 247.484 261.003 247.083 261.379 246.807C261.754 246.53 262.202 246.391 262.722 246.391C263.244 246.391 263.693 246.53 264.069 246.807C264.444 247.085 264.731 247.486 264.929 248.011C265.129 248.535 265.229 249.165 265.229 249.901C265.229 250.641 265.13 251.275 264.932 251.804C264.734 252.33 264.448 252.732 264.072 253.007C263.696 253.283 263.246 253.42 262.722 253.42ZM262.722 252.527C263.031 252.527 263.295 252.426 263.515 252.224C263.735 252.022 263.903 251.725 264.019 251.334C264.136 250.941 264.195 250.463 264.195 249.901C264.195 249.341 264.136 248.864 264.019 248.471C263.901 248.077 263.732 247.779 263.512 247.577C263.292 247.375 263.029 247.274 262.722 247.274C262.418 247.274 262.155 247.375 261.935 247.577C261.715 247.779 261.546 248.077 261.429 248.471C261.311 248.864 261.252 249.341 261.252 249.901C261.252 250.463 261.31 250.941 261.425 251.334C261.541 251.725 261.709 252.022 261.929 252.224C262.151 252.426 262.415 252.527 262.722 252.527Z" fill="#545251"/>
<path d="M256.745 253.404C256.281 253.404 255.864 253.325 255.495 253.167C255.129 253.009 254.839 252.789 254.625 252.507C254.414 252.223 254.303 251.896 254.292 251.527H255.342C255.353 251.723 255.421 251.895 255.545 252.044C255.67 252.193 255.835 252.308 256.042 252.39C256.251 252.47 256.482 252.51 256.735 252.51C257.009 252.51 257.253 252.465 257.469 252.374C257.686 252.28 257.856 252.149 257.979 251.98C258.101 251.809 258.161 251.616 258.159 251.401C258.161 251.174 258.101 250.973 257.979 250.797C257.859 250.622 257.682 250.485 257.449 250.387C257.217 250.289 256.942 250.241 256.622 250.241H256.042V249.394H256.622C256.88 249.394 257.109 249.348 257.309 249.257C257.509 249.166 257.664 249.039 257.775 248.877C257.889 248.713 257.945 248.523 257.945 248.307C257.945 248.101 257.896 247.918 257.799 247.761C257.703 247.601 257.565 247.477 257.385 247.391C257.205 247.304 256.996 247.261 256.759 247.261C256.527 247.261 256.313 247.302 256.115 247.384C255.918 247.464 255.756 247.579 255.632 247.731C255.51 247.882 255.444 248.057 255.435 248.257H254.435C254.446 247.895 254.555 247.572 254.762 247.287C254.971 247.003 255.251 246.783 255.602 246.627C255.955 246.47 256.344 246.391 256.769 246.391C257.204 246.391 257.586 246.475 257.915 246.644C258.246 246.811 258.502 247.036 258.682 247.321C258.862 247.603 258.951 247.914 258.949 248.254C258.951 248.505 258.902 248.734 258.802 248.941C258.702 249.147 258.561 249.321 258.379 249.461C258.199 249.601 257.986 249.701 257.742 249.761V249.814C258.049 249.858 258.312 249.954 258.532 250.101C258.752 250.247 258.92 250.435 259.035 250.664C259.151 250.893 259.207 251.151 259.205 251.437C259.207 251.808 259.102 252.144 258.889 252.444C258.677 252.744 258.384 252.979 258.009 253.15C257.633 253.319 257.212 253.404 256.745 253.404Z" fill="#545251"/>
<path d="M306.336 253.31L306.333 252.557L308.7 250.167C308.984 249.874 309.202 249.635 309.353 249.451C309.506 249.266 309.623 249.087 309.703 248.914C309.785 248.738 309.826 248.554 309.826 248.361C309.826 248.141 309.771 247.947 309.66 247.781C309.548 247.614 309.397 247.486 309.206 247.397C309.015 247.306 308.8 247.261 308.56 247.261C308.311 247.261 308.093 247.311 307.906 247.411C307.72 247.508 307.575 247.649 307.473 247.834C307.371 248.016 307.32 248.227 307.32 248.467H306.333C306.333 248.056 306.429 247.694 306.62 247.381C306.813 247.065 307.08 246.822 307.42 246.651C307.762 246.477 308.149 246.391 308.58 246.391C309.011 246.391 309.395 246.475 309.733 246.644C310.071 246.811 310.334 247.042 310.523 247.337C310.714 247.633 310.811 247.964 310.813 248.331C310.811 248.593 310.761 248.844 310.663 249.084C310.565 249.324 310.398 249.591 310.163 249.884C309.93 250.177 309.597 250.536 309.166 250.961L307.78 252.37V252.42H310.923V253.31H306.336Z" fill="#545251"/>
<path d="M302.734 253.404C302.269 253.404 301.852 253.325 301.484 253.167C301.117 253.009 300.827 252.789 300.614 252.507C300.402 252.223 300.291 251.896 300.28 251.527H301.33C301.341 251.723 301.409 251.895 301.534 252.044C301.658 252.193 301.824 252.308 302.03 252.39C302.239 252.47 302.47 252.51 302.724 252.51C302.997 252.51 303.241 252.465 303.457 252.374C303.675 252.28 303.845 252.149 303.967 251.98C304.089 251.809 304.149 251.616 304.147 251.401C304.149 251.174 304.089 250.973 303.967 250.797C303.847 250.622 303.67 250.485 303.437 250.387C303.206 250.289 302.93 250.241 302.61 250.241H302.03V249.394H302.61C302.868 249.394 303.097 249.348 303.297 249.257C303.497 249.166 303.652 249.039 303.764 248.877C303.877 248.713 303.934 248.523 303.934 248.307C303.934 248.101 303.885 247.918 303.787 247.761C303.691 247.601 303.554 247.477 303.374 247.391C303.194 247.304 302.985 247.261 302.747 247.261C302.516 247.261 302.301 247.302 302.104 247.384C301.906 247.464 301.745 247.579 301.62 247.731C301.498 247.882 301.432 248.057 301.424 248.257H300.424C300.435 247.895 300.544 247.572 300.75 247.287C300.959 247.003 301.239 246.783 301.59 246.627C301.944 246.47 302.332 246.391 302.757 246.391C303.192 246.391 303.575 246.475 303.904 246.644C304.235 246.811 304.49 247.036 304.67 247.321C304.85 247.603 304.939 247.914 304.937 248.254C304.939 248.505 304.89 248.734 304.79 248.941C304.69 249.147 304.549 249.321 304.367 249.461C304.187 249.601 303.975 249.701 303.73 249.761V249.814C304.037 249.858 304.3 249.954 304.52 250.101C304.74 250.247 304.908 250.435 305.023 250.664C305.139 250.893 305.196 251.151 305.193 251.437C305.196 251.808 305.09 252.144 304.877 252.444C304.666 252.744 304.372 252.979 303.997 253.15C303.621 253.319 303.2 253.404 302.734 253.404Z" fill="#545251"/>
<path d="M128.735 251.978V251.141L131.749 246.484H132.405V247.718H131.979L129.822 251.048V251.101H133.962V251.978H128.735ZM132.045 253.311V251.724L132.052 251.341V246.484H133.035V253.311H132.045Z" fill="#545251"/>
<path d="M123.292 253.31L123.289 252.557L125.656 250.167C125.94 249.874 126.158 249.635 126.309 249.451C126.462 249.266 126.579 249.087 126.659 248.914C126.741 248.738 126.782 248.554 126.782 248.361C126.782 248.141 126.727 247.947 126.616 247.781C126.505 247.614 126.353 247.486 126.162 247.397C125.971 247.306 125.756 247.261 125.516 247.261C125.267 247.261 125.049 247.311 124.862 247.411C124.676 247.508 124.531 247.649 124.429 247.834C124.327 248.016 124.276 248.227 124.276 248.467H123.289C123.289 248.056 123.385 247.694 123.576 247.381C123.769 247.065 124.036 246.822 124.376 246.651C124.718 246.477 125.105 246.391 125.536 246.391C125.967 246.391 126.351 246.475 126.689 246.644C127.027 246.811 127.29 247.042 127.479 247.337C127.67 247.633 127.767 247.964 127.769 248.331C127.767 248.593 127.717 248.844 127.619 249.084C127.521 249.324 127.355 249.591 127.119 249.884C126.886 250.177 126.553 250.536 126.122 250.961L124.736 252.37V252.42H127.879V253.31H123.292Z" fill="#545251"/>
<path d="M177.938 253.404C177.476 253.399 177.051 253.294 176.665 253.087C176.28 252.878 175.967 252.53 175.725 252.044C175.482 251.557 175.361 250.917 175.361 250.124C175.361 249.339 175.469 248.668 175.685 248.111C175.9 247.551 176.208 247.124 176.608 246.831C177.008 246.537 177.48 246.391 178.025 246.391C178.436 246.391 178.806 246.471 179.135 246.631C179.463 246.788 179.729 247.008 179.931 247.291C180.136 247.573 180.265 247.895 180.318 248.257H179.295C179.246 248.068 179.165 247.903 179.051 247.761C178.94 247.616 178.797 247.503 178.621 247.421C178.448 247.338 178.249 247.297 178.025 247.297C177.676 247.297 177.376 247.396 177.125 247.594C176.874 247.789 176.682 248.072 176.551 248.441C176.422 248.807 176.358 249.247 176.358 249.761H176.435C176.557 249.567 176.707 249.402 176.885 249.264C177.065 249.124 177.265 249.018 177.485 248.947C177.707 248.874 177.941 248.837 178.188 248.837C178.59 248.837 178.959 248.933 179.295 249.124C179.632 249.315 179.898 249.582 180.091 249.924C180.287 250.266 180.385 250.651 180.385 251.077C180.385 251.517 180.282 251.915 180.078 252.27C179.873 252.626 179.586 252.905 179.215 253.107C178.843 253.309 178.418 253.408 177.938 253.404ZM177.935 252.534C178.203 252.534 178.448 252.47 178.668 252.344C178.888 252.215 179.061 252.04 179.188 251.821C179.315 251.601 179.378 251.358 179.378 251.094C179.378 250.836 179.316 250.599 179.191 250.384C179.069 250.166 178.899 249.994 178.681 249.867C178.466 249.741 178.223 249.677 177.955 249.677C177.686 249.677 177.439 249.744 177.215 249.877C176.99 250.008 176.812 250.184 176.681 250.404C176.552 250.622 176.487 250.856 176.485 251.107C176.485 251.358 176.547 251.594 176.671 251.814C176.798 252.032 176.971 252.206 177.191 252.337C177.414 252.468 177.661 252.534 177.935 252.534Z" fill="#545251"/>
<path d="M169.731 253.31L169.728 252.557L172.094 250.167C172.379 249.874 172.596 249.635 172.747 249.451C172.901 249.266 173.017 249.087 173.097 248.914C173.18 248.738 173.221 248.554 173.221 248.361C173.221 248.141 173.165 247.947 173.054 247.781C172.943 247.614 172.792 247.486 172.601 247.397C172.41 247.306 172.194 247.261 171.954 247.261C171.705 247.261 171.487 247.311 171.301 247.411C171.114 247.508 170.97 247.649 170.868 247.834C170.765 248.016 170.714 248.227 170.714 248.467H169.728C169.728 248.056 169.823 247.694 170.014 247.381C170.208 247.065 170.474 246.822 170.814 246.651C171.156 246.477 171.543 246.391 171.974 246.391C172.405 246.391 172.79 246.475 173.127 246.644C173.465 246.811 173.729 247.042 173.917 247.337C174.109 247.633 174.205 247.964 174.207 248.331C174.205 248.593 174.155 248.844 174.057 249.084C173.96 249.324 173.793 249.591 173.557 249.884C173.324 250.177 172.992 250.536 172.561 250.961L171.174 252.37V252.42H174.317V253.31H169.731Z" fill="#545251"/>
<path d="M220.096 253.404C219.609 253.404 219.175 253.322 218.793 253.157C218.41 252.993 218.113 252.766 217.899 252.477C217.688 252.186 217.584 251.857 217.586 251.491C217.584 251.206 217.645 250.941 217.769 250.694C217.894 250.445 218.065 250.239 218.283 250.077C218.503 249.915 218.745 249.813 219.009 249.771V249.734C218.78 249.683 218.577 249.585 218.399 249.441C218.224 249.294 218.087 249.114 217.989 248.901C217.892 248.687 217.843 248.457 217.843 248.211C217.843 247.866 217.939 247.555 218.133 247.277C218.328 247 218.597 246.783 218.939 246.627C219.284 246.47 219.669 246.391 220.096 246.391C220.52 246.391 220.903 246.47 221.243 246.627C221.583 246.783 221.85 247 222.046 247.277C222.241 247.555 222.339 247.866 222.339 248.211C222.339 248.457 222.289 248.687 222.189 248.901C222.091 249.114 221.955 249.294 221.779 249.441C221.604 249.585 221.403 249.683 221.176 249.734V249.771C221.438 249.813 221.678 249.915 221.896 250.077C222.114 250.239 222.286 250.445 222.413 250.694C222.539 250.941 222.604 251.206 222.606 251.491C222.604 251.857 222.495 252.186 222.279 252.477C222.064 252.766 221.766 252.993 221.386 253.157C221.006 253.322 220.576 253.404 220.096 253.404ZM220.096 252.557C220.387 252.557 220.641 252.51 220.859 252.417C221.079 252.322 221.249 252.188 221.369 252.017C221.489 251.844 221.549 251.645 221.549 251.421C221.549 251.189 221.486 250.983 221.359 250.801C221.235 250.616 221.061 250.472 220.839 250.367C220.619 250.261 220.371 250.207 220.096 250.207C219.818 250.207 219.567 250.261 219.343 250.367C219.12 250.472 218.947 250.616 218.823 250.801C218.698 250.985 218.638 251.192 218.643 251.421C218.638 251.645 218.695 251.844 218.813 252.017C218.93 252.188 219.099 252.322 219.319 252.417C219.542 252.51 219.8 252.557 220.096 252.557ZM220.096 249.384C220.331 249.384 220.543 249.338 220.729 249.247C220.918 249.154 221.065 249.026 221.169 248.864C221.276 248.699 221.329 248.512 221.329 248.301C221.329 248.092 221.277 247.907 221.173 247.747C221.07 247.585 220.925 247.459 220.736 247.371C220.549 247.282 220.336 247.237 220.096 247.237C219.849 247.237 219.633 247.282 219.446 247.371C219.259 247.459 219.114 247.585 219.009 247.747C218.907 247.907 218.856 248.092 218.856 248.301C218.856 248.512 218.908 248.699 219.013 248.864C219.119 249.026 219.266 249.154 219.453 249.247C219.642 249.338 219.856 249.384 220.096 249.384Z" fill="#545251"/>
<path d="M211.971 253.31L211.968 252.557L214.334 250.167C214.619 249.874 214.837 249.635 214.988 249.451C215.141 249.266 215.258 249.087 215.338 248.914C215.42 248.738 215.461 248.554 215.461 248.361C215.461 248.141 215.405 247.947 215.294 247.781C215.183 247.614 215.032 247.486 214.841 247.397C214.65 247.306 214.434 247.261 214.194 247.261C213.946 247.261 213.728 247.311 213.541 247.411C213.354 247.508 213.21 247.649 213.108 247.834C213.006 248.016 212.954 248.227 212.954 248.467H211.968C211.968 248.056 212.063 247.694 212.254 247.381C212.448 247.065 212.714 246.822 213.054 246.651C213.397 246.477 213.783 246.391 214.214 246.391C214.645 246.391 215.03 246.475 215.368 246.644C215.705 246.811 215.969 247.042 216.158 247.337C216.349 247.633 216.445 247.964 216.448 248.331C216.445 248.593 216.395 248.844 216.298 249.084C216.2 249.324 216.033 249.591 215.798 249.884C215.564 250.177 215.232 250.536 214.801 250.961L213.414 252.37V252.42H216.558V253.31H211.971Z" fill="#545251"/>
<g opacity="0.4">
<path opacity="0.32" d="M304.625 128.607L304.666 128.611C304.757 128.63 304.826 128.711 304.826 128.809C304.826 128.906 304.757 128.987 304.666 129.006L304.625 129.01H39.9931C39.882 129.01 39.792 128.92 39.792 128.809C39.792 128.697 39.882 128.607 39.9931 128.607H304.625Z" fill="#172A88" fill-opacity="0.5"/>
<path opacity="0.32" d="M304.625 28.9395L304.666 28.9434C304.757 28.9622 304.826 29.0434 304.826 29.1406C304.826 29.2377 304.757 29.319 304.666 29.3377L304.625 29.3417H39.9931C39.882 29.3417 39.792 29.2516 39.792 29.1406C39.792 29.0295 39.882 28.9395 39.9931 28.9395H304.625Z" fill="#172A88"/>
<path opacity="0.32" d="M304.625 76.3672L304.666 76.3711C304.757 76.3899 304.826 76.4711 304.826 76.5683C304.826 76.6655 304.757 76.7467 304.666 76.7655L304.625 76.7694H39.9931C39.882 76.7694 39.792 76.6794 39.792 76.5683C39.792 76.4572 39.882 76.3672 39.9931 76.3672H304.625Z" fill="#172A88"/>
<path opacity="0.32" d="M304.625 180.846L304.666 180.85C304.757 180.868 304.826 180.95 304.826 181.047C304.826 181.144 304.757 181.225 304.666 181.244L304.625 181.248H39.9931C39.882 181.248 39.792 181.158 39.792 181.047C39.792 180.936 39.882 180.846 39.9931 180.846H304.625Z" fill="#172A88"/>
<path opacity="0.32" d="M172.136 237.244V30.0644C172.136 29.9533 172.226 29.8633 172.337 29.8633C172.448 29.8633 172.538 29.9533 172.538 30.0644V237.244C172.538 237.355 172.448 237.445 172.337 237.445C172.226 237.445 172.136 237.355 172.136 237.244Z" fill="#172A88"/>
<path opacity="0.32" d="M216.251 237.244V30.0643C216.251 29.9621 216.334 29.8789 216.436 29.8789C216.539 29.8789 216.622 29.9621 216.622 30.0643V237.244C216.622 237.346 216.539 237.43 216.436 237.43C216.334 237.43 216.251 237.346 216.251 237.244Z" fill="#172A88"/>
<path opacity="0.32" d="M260.342 237.244V30.0643C260.342 29.9621 260.425 29.8789 260.527 29.8789C260.629 29.8789 260.713 29.9621 260.713 30.0643V237.244C260.713 237.346 260.629 237.43 260.527 237.43C260.425 237.43 260.342 237.346 260.342 237.244Z" fill="#172A88"/>
<path opacity="0.32" d="M304.439 237.244V30.0643C304.439 29.9621 304.523 29.8789 304.625 29.8789C304.727 29.8789 304.81 29.9621 304.81 30.0643V237.244C304.81 237.346 304.727 237.43 304.625 237.43C304.523 237.43 304.439 237.346 304.439 237.244Z" fill="#172A88"/>
<path opacity="0.32" d="M83.9707 237.244V30.0643C83.9707 29.9621 84.0539 29.8789 84.1561 29.8789C84.2583 29.8789 84.3415 29.9621 84.3415 30.0643V237.244C84.3415 237.346 84.2583 237.43 84.1561 237.43C84.0539 237.43 83.9707 237.346 83.9707 237.244Z" fill="#172A88"/>
<path opacity="0.32" d="M128.062 237.244V30.0643C128.062 29.9621 128.145 29.8789 128.247 29.8789C128.349 29.8789 128.432 29.9621 128.432 30.0643V237.244C128.432 237.346 128.349 237.43 128.247 237.43C128.145 237.43 128.062 237.346 128.062 237.244Z" fill="#172A88"/>
</g>
<path d="M29.5433 133.891C29.0211 133.891 28.5711 133.753 28.1933 133.478C27.8178 133.202 27.5311 132.801 27.3334 132.275C27.1378 131.746 27.04 131.111 27.04 130.371C27.04 129.636 27.1389 129.006 27.3367 128.481C27.5367 127.955 27.8245 127.554 28.2 127.278C28.5756 127 29.0233 126.861 29.5433 126.861C30.0655 126.861 30.5144 127 30.89 127.278C31.2655 127.556 31.5522 127.957 31.7499 128.481C31.9499 129.006 32.0499 129.636 32.0499 130.371C32.0499 131.111 31.951 131.746 31.7533 132.275C31.5555 132.801 31.2688 133.202 30.8933 133.478C30.5177 133.753 30.0677 133.891 29.5433 133.891ZM29.5433 132.998C29.8522 132.998 30.1166 132.897 30.3366 132.695C30.5566 132.492 30.7244 132.196 30.84 131.805C30.9577 131.411 31.0166 130.933 31.0166 130.371C31.0166 129.811 30.9577 129.335 30.84 128.941C30.7222 128.548 30.5533 128.25 30.3333 128.048C30.1133 127.846 29.85 127.745 29.5433 127.745C29.2389 127.745 28.9767 127.846 28.7567 128.048C28.5367 128.25 28.3678 128.548 28.25 128.941C28.1322 129.335 28.0733 129.811 28.0733 130.371C28.0733 130.933 28.1311 131.411 28.2467 131.805C28.3622 132.196 28.53 132.492 28.75 132.695C28.9722 132.897 29.2367 132.998 29.5433 132.998Z" fill="#545251"/>
<path d="M23.5666 133.875C23.1021 133.875 22.6855 133.796 22.3166 133.638C21.9499 133.48 21.6599 133.26 21.4466 132.978C21.2355 132.693 21.1244 132.367 21.1133 131.998H22.1633C22.1744 132.193 22.2421 132.366 22.3666 132.515C22.491 132.663 22.6566 132.779 22.8632 132.861C23.0721 132.941 23.3032 132.981 23.5566 132.981C23.8299 132.981 24.0743 132.936 24.2899 132.845C24.5076 132.751 24.6776 132.62 24.7999 132.451C24.9221 132.28 24.9821 132.087 24.9799 131.871C24.9821 131.645 24.9221 131.443 24.7999 131.268C24.6799 131.092 24.5032 130.956 24.2699 130.858C24.0388 130.76 23.7632 130.711 23.4432 130.711H22.8632V129.865H23.4432C23.701 129.865 23.9299 129.819 24.1299 129.728C24.3299 129.637 24.4854 129.51 24.5965 129.348C24.7099 129.183 24.7665 128.994 24.7665 128.778C24.7665 128.571 24.7176 128.389 24.6199 128.231C24.5243 128.071 24.3865 127.948 24.2065 127.861C24.0265 127.775 23.8177 127.731 23.5799 127.731C23.3488 127.731 23.1343 127.772 22.9366 127.855C22.7388 127.935 22.5777 128.05 22.4533 128.201C22.331 128.352 22.2655 128.528 22.2566 128.728H21.2566C21.2677 128.366 21.3766 128.042 21.5833 127.758C21.7922 127.474 22.0721 127.254 22.4233 127.098C22.7766 126.94 23.1655 126.861 23.5899 126.861C24.0254 126.861 24.4077 126.946 24.7365 127.115C25.0676 127.281 25.3232 127.507 25.5032 127.791C25.6832 128.074 25.7721 128.385 25.7698 128.725C25.7721 128.976 25.7232 129.205 25.6232 129.411C25.5232 129.618 25.3821 129.791 25.1999 129.931C25.0199 130.071 24.8076 130.171 24.5632 130.231V130.285C24.8699 130.329 25.1332 130.425 25.3532 130.571C25.5732 130.718 25.741 130.906 25.8565 131.135C25.9721 131.363 26.0287 131.621 26.0265 131.908C26.0287 132.279 25.9232 132.615 25.7098 132.915C25.4987 133.215 25.2054 133.45 24.8299 133.621C24.4543 133.79 24.0332 133.875 23.5666 133.875Z" fill="#545251"/>
<path d="M29.5961 185.984C29.1694 185.984 28.7828 185.904 28.4361 185.744C28.0917 185.582 27.8172 185.359 27.6128 185.074C27.4084 184.79 27.2995 184.468 27.2861 184.108H28.2961C28.3117 184.299 28.3794 184.472 28.4994 184.628C28.6194 184.781 28.775 184.901 28.9661 184.988C29.1594 185.072 29.3694 185.114 29.5961 185.114C29.8672 185.114 30.1105 185.053 30.3261 184.931C30.5438 184.809 30.7127 184.641 30.8327 184.428C30.9549 184.214 31.016 183.973 31.016 183.704C31.016 183.433 30.9527 183.189 30.8261 182.971C30.7016 182.751 30.5272 182.579 30.3027 182.454C30.0805 182.33 29.8294 182.267 29.5494 182.264C29.2672 182.262 29.0239 182.31 28.8194 182.408C28.6172 182.505 28.4583 182.658 28.3428 182.864H27.3661L27.8128 179.064H31.6794V179.954H28.6728L28.4394 181.861H28.5061C28.6017 181.772 28.7161 181.694 28.8494 181.628C28.985 181.559 29.1328 181.506 29.2928 181.468C29.4528 181.428 29.6183 181.408 29.7894 181.408C30.2138 181.408 30.5961 181.506 30.9361 181.701C31.276 181.894 31.5416 182.164 31.7327 182.511C31.926 182.858 32.0227 183.248 32.0227 183.681C32.0227 184.121 31.9194 184.517 31.7127 184.868C31.506 185.217 31.2183 185.49 30.8494 185.688C30.4805 185.885 30.0627 185.984 29.5961 185.984Z" fill="#545251"/>
<path d="M21.5317 185.891L21.5283 185.137L23.8949 182.747C24.1794 182.454 24.3971 182.215 24.5483 182.031C24.7016 181.846 24.8182 181.667 24.8982 181.494C24.9805 181.318 25.0216 181.134 25.0216 180.941C25.0216 180.721 24.966 180.527 24.8549 180.361C24.7438 180.194 24.5927 180.066 24.4016 179.977C24.2105 179.886 23.9949 179.841 23.7549 179.841C23.5061 179.841 23.2883 179.891 23.1016 179.991C22.915 180.088 22.7705 180.23 22.6683 180.414C22.5661 180.596 22.515 180.807 22.515 181.047H21.5283C21.5283 180.636 21.6239 180.274 21.815 179.961C22.0083 179.645 22.275 179.402 22.615 179.231C22.9572 179.057 23.3438 178.971 23.7749 178.971C24.206 178.971 24.5905 179.055 24.9282 179.224C25.266 179.391 25.5293 179.622 25.7182 179.917C25.9093 180.213 26.006 180.544 26.0082 180.911C26.006 181.173 25.956 181.424 25.8582 181.664C25.7604 181.904 25.5938 182.171 25.3582 182.464C25.1249 182.757 24.7927 183.116 24.3616 183.541L22.975 184.951V185.001H26.1182V185.891H21.5317Z" fill="#545251"/>
<path d="M30.2897 151.41C29.9247 151.41 29.5989 151.349 29.3122 151.225C29.0256 151.102 28.8023 150.932 28.6423 150.715C28.4839 150.497 28.4056 150.25 28.4073 149.975C28.4056 149.762 28.4514 149.563 28.5448 149.378C28.6381 149.191 28.7664 149.037 28.9298 148.915C29.0948 148.794 29.2764 148.717 29.4747 148.685V148.658C29.3031 148.62 29.1506 148.546 29.0173 148.438C28.8856 148.328 28.7831 148.193 28.7098 148.033C28.6364 147.873 28.5998 147.7 28.5998 147.515C28.5998 147.257 28.6723 147.024 28.8173 146.815C28.9639 146.607 29.1656 146.445 29.4222 146.328C29.6806 146.21 29.9697 146.15 30.2897 146.15C30.6081 146.15 30.8947 146.21 31.1497 146.328C31.4047 146.445 31.6055 146.607 31.7522 146.815C31.8989 147.024 31.9722 147.257 31.9722 147.515C31.9722 147.7 31.9347 147.873 31.8597 148.033C31.7864 148.193 31.6839 148.328 31.5522 148.438C31.4205 148.546 31.2697 148.62 31.0997 148.658V148.685C31.2964 148.717 31.4764 148.794 31.6397 148.915C31.803 149.037 31.9322 149.191 32.0272 149.378C32.1222 149.563 32.1705 149.762 32.1722 149.975C32.1705 150.25 32.0889 150.497 31.9272 150.715C31.7655 150.932 31.5422 151.102 31.2572 151.225C30.9722 151.349 30.6497 151.41 30.2897 151.41ZM30.2897 150.775C30.5081 150.775 30.6989 150.74 30.8622 150.67C31.0272 150.599 31.1547 150.499 31.2447 150.37C31.3347 150.24 31.3797 150.091 31.3797 149.923C31.3797 149.749 31.3322 149.594 31.2372 149.458C31.1439 149.319 31.0139 149.211 30.8472 149.133C30.6822 149.053 30.4964 149.013 30.2897 149.013C30.0814 149.013 29.8931 149.053 29.7247 149.133C29.5581 149.211 29.4281 149.319 29.3347 149.458C29.2414 149.596 29.1964 149.751 29.1998 149.923C29.1964 150.091 29.2389 150.24 29.3272 150.37C29.4156 150.499 29.5422 150.599 29.7072 150.67C29.8739 150.74 30.0681 150.775 30.2897 150.775ZM30.2897 148.395C30.4664 148.395 30.6247 148.361 30.7647 148.293C30.9064 148.223 31.0164 148.127 31.0947 148.005C31.1747 147.882 31.2147 147.741 31.2147 147.583C31.2147 147.426 31.1755 147.288 31.0972 147.168C31.0205 147.046 30.9114 146.952 30.7697 146.885C30.6297 146.819 30.4697 146.785 30.2897 146.785C30.1047 146.785 29.9422 146.819 29.8022 146.885C29.6622 146.952 29.5531 147.046 29.4747 147.168C29.3981 147.288 29.3597 147.426 29.3597 147.583C29.3597 147.741 29.3989 147.882 29.4772 148.005C29.5572 148.127 29.6672 148.223 29.8072 148.293C29.9489 148.361 30.1097 148.395 30.2897 148.395Z" fill="#9E9E9E"/>
<path d="M24.1968 151.34L24.1943 150.775L25.9693 148.983C26.1826 148.763 26.346 148.584 26.4593 148.445C26.5743 148.307 26.6618 148.173 26.7218 148.043C26.7834 147.911 26.8143 147.773 26.8143 147.628C26.8143 147.463 26.7726 147.318 26.6893 147.193C26.6059 147.068 26.4926 146.972 26.3493 146.905C26.206 146.837 26.0443 146.803 25.8643 146.803C25.6776 146.803 25.5143 146.84 25.3743 146.915C25.2343 146.989 25.126 147.095 25.0493 147.233C24.9727 147.37 24.9343 147.528 24.9343 147.708H24.1943C24.1943 147.4 24.266 147.128 24.4093 146.893C24.5543 146.656 24.7543 146.474 25.0093 146.345C25.266 146.215 25.556 146.15 25.8793 146.15C26.2026 146.15 26.491 146.214 26.7443 146.34C26.9976 146.465 27.1951 146.639 27.3368 146.86C27.4801 147.082 27.5526 147.33 27.5543 147.605C27.5526 147.802 27.5151 147.99 27.4418 148.17C27.3684 148.35 27.2434 148.55 27.0668 148.77C26.8918 148.99 26.6426 149.259 26.3193 149.578L25.2793 150.635V150.673H27.6368V151.34H24.1968Z" fill="#9E9E9E"/>
<path d="M31.6711 111.156V116.276H30.8911V111.936H30.8611L29.6387 112.734V111.991L30.9111 111.156H31.6711Z" fill="#9E9E9E"/>
<path d="M27.0255 116.346C26.6772 116.346 26.3647 116.287 26.088 116.168C25.813 116.05 25.5955 115.885 25.4355 115.673C25.2772 115.46 25.1939 115.215 25.1855 114.938H25.973C25.9814 115.085 26.0322 115.214 26.1255 115.326C26.2189 115.438 26.343 115.524 26.498 115.586C26.6547 115.646 26.828 115.676 27.018 115.676C27.223 115.676 27.4063 115.642 27.568 115.573C27.7313 115.503 27.8588 115.405 27.9505 115.278C28.0421 115.15 28.0871 115.005 28.0855 114.843C28.0871 114.673 28.0421 114.523 27.9505 114.391C27.8605 114.259 27.728 114.157 27.553 114.083C27.3797 114.01 27.173 113.973 26.933 113.973H26.498V113.338H26.933C27.1263 113.338 27.298 113.304 27.448 113.236C27.598 113.168 27.7147 113.073 27.798 112.951C27.883 112.828 27.9255 112.685 27.9255 112.523C27.9255 112.368 27.8888 112.232 27.8155 112.113C27.7438 111.993 27.6405 111.901 27.5055 111.836C27.3705 111.771 27.2138 111.738 27.0355 111.738C26.8622 111.738 26.7013 111.769 26.553 111.831C26.4047 111.891 26.2839 111.978 26.1905 112.091C26.0989 112.204 26.0497 112.336 26.043 112.486H25.293C25.3014 112.214 25.383 111.972 25.538 111.758C25.6947 111.545 25.9047 111.38 26.168 111.263C26.433 111.145 26.7247 111.086 27.043 111.086C27.3697 111.086 27.6563 111.149 27.903 111.276C28.1513 111.401 28.343 111.57 28.478 111.783C28.613 111.995 28.6796 112.228 28.678 112.483C28.6796 112.672 28.643 112.843 28.568 112.998C28.493 113.153 28.3871 113.283 28.2505 113.388C28.1155 113.493 27.9563 113.568 27.773 113.613V113.653C28.003 113.687 28.2005 113.758 28.3655 113.868C28.5305 113.978 28.6563 114.119 28.743 114.291C28.8296 114.463 28.8721 114.656 28.8705 114.871C28.8721 115.149 28.793 115.401 28.633 115.626C28.4746 115.851 28.2546 116.027 27.973 116.156C27.6913 116.282 27.3755 116.346 27.0255 116.346Z" fill="#9E9E9E"/>
<path d="M29.5902 81.7734C29.1636 81.7734 28.7769 81.6934 28.4302 81.5334C28.0858 81.3711 27.8114 81.1478 27.6069 80.8634C27.4025 80.5789 27.2936 80.2567 27.2803 79.8967H28.2903C28.3058 80.0878 28.3736 80.2612 28.4936 80.4167C28.6136 80.5701 28.7691 80.6901 28.9602 80.7767C29.1536 80.8612 29.3636 80.9034 29.5902 80.9034C29.8613 80.9034 30.1047 80.8423 30.3202 80.7201C30.538 80.5978 30.7069 80.4301 30.8269 80.2167C30.9491 80.0034 31.0102 79.7623 31.0102 79.4934C31.0102 79.2223 30.9469 78.9779 30.8202 78.7601C30.6958 78.5401 30.5213 78.3679 30.2969 78.2434C30.0747 78.119 29.8235 78.0557 29.5436 78.0534C29.2613 78.0512 29.018 78.099 28.8136 78.1968C28.6114 78.2945 28.4525 78.4468 28.3369 78.6534H27.3603L27.8069 74.8535H31.6735V75.7435H28.6669L28.4336 77.6501H28.5002C28.5958 77.5612 28.7102 77.4835 28.8436 77.4168C28.9791 77.3479 29.1269 77.2946 29.2869 77.2568C29.4469 77.2168 29.6124 77.1968 29.7836 77.1968C30.208 77.1968 30.5902 77.2946 30.9302 77.4901C31.2702 77.6835 31.5357 77.9534 31.7268 78.3001C31.9202 78.6468 32.0168 79.0368 32.0168 79.4701C32.0168 79.9101 31.9135 80.3056 31.7068 80.6567C31.5002 81.0056 31.2124 81.2789 30.8435 81.4767C30.4746 81.6745 30.0569 81.7734 29.5902 81.7734Z" fill="#545251"/>
<path d="M23.6623 81.771C23.1978 81.771 22.7812 81.6921 22.4123 81.5343C22.0456 81.3766 21.7556 81.1566 21.5423 80.8743C21.3312 80.5899 21.2201 80.2632 21.209 79.8944H22.259C22.2701 80.0899 22.3378 80.2621 22.4623 80.411C22.5867 80.5599 22.7523 80.6755 22.9589 80.7577C23.1678 80.8377 23.3989 80.8777 23.6523 80.8777C23.9256 80.8777 24.17 80.8321 24.3856 80.741C24.6034 80.6477 24.7733 80.5166 24.8956 80.3477C25.0178 80.1766 25.0778 79.9833 25.0756 79.7677C25.0778 79.541 25.0178 79.3399 24.8956 79.1644C24.7756 78.9888 24.5989 78.8522 24.3656 78.7544C24.1345 78.6566 23.8589 78.6077 23.5389 78.6077H22.9589V77.7611H23.5389C23.7967 77.7611 24.0256 77.7155 24.2256 77.6244C24.4256 77.5333 24.5811 77.4066 24.6922 77.2444C24.8056 77.08 24.8622 76.89 24.8622 76.6744C24.8622 76.4678 24.8133 76.2856 24.7156 76.1278C24.62 75.9678 24.4822 75.8445 24.3022 75.7578C24.1223 75.6711 23.9134 75.6278 23.6756 75.6278C23.4445 75.6278 23.23 75.6689 23.0323 75.7511C22.8345 75.8311 22.6734 75.9467 22.549 76.0978C22.4267 76.2489 22.3612 76.4244 22.3523 76.6244H21.3523C21.3634 76.2622 21.4723 75.9389 21.679 75.6545C21.8879 75.37 22.1679 75.15 22.519 74.9945C22.8723 74.8367 23.2612 74.7578 23.6856 74.7578C24.1211 74.7578 24.5034 74.8423 24.8322 75.0111C25.1633 75.1778 25.4189 75.4034 25.5989 75.6878C25.7789 75.97 25.8678 76.2811 25.8655 76.6211C25.8678 76.8722 25.8189 77.1011 25.7189 77.3078C25.6189 77.5144 25.4778 77.6877 25.2956 77.8277C25.1156 77.9677 24.9033 78.0677 24.6589 78.1277V78.1811C24.9656 78.2255 25.2289 78.3211 25.4489 78.4677C25.6689 78.6144 25.8367 78.8022 25.9522 79.031C26.0678 79.2599 26.1244 79.5177 26.1222 79.8044C26.1244 80.1755 26.0189 80.511 25.8055 80.811C25.5944 81.111 25.3011 81.3466 24.9256 81.5177C24.55 81.6865 24.1289 81.771 23.6623 81.771Z" fill="#545251"/>
<path d="M29.6468 29.6783C29.1246 29.6783 28.6746 29.5405 28.2969 29.265C27.9213 28.9894 27.6347 28.5883 27.4369 28.0616C27.2413 27.5328 27.1436 26.8983 27.1436 26.1584C27.1436 25.4228 27.2424 24.7928 27.4402 24.2684C27.6402 23.7417 27.928 23.3406 28.3035 23.0651C28.6791 22.7873 29.1268 22.6484 29.6468 22.6484C30.169 22.6484 30.6179 22.7873 30.9935 23.0651C31.369 23.3429 31.6557 23.744 31.8534 24.2684C32.0534 24.7928 32.1534 25.4228 32.1534 26.1584C32.1534 26.8983 32.0546 27.5328 31.8568 28.0616C31.659 28.5883 31.3723 28.9894 30.9968 29.265C30.6213 29.5405 30.1713 29.6783 29.6468 29.6783ZM29.6468 28.785C29.9557 28.785 30.2202 28.6839 30.4401 28.4816C30.6601 28.2794 30.8279 27.9828 30.9435 27.5917C31.0612 27.1983 31.1201 26.7206 31.1201 26.1584C31.1201 25.5984 31.0612 25.1217 30.9435 24.7284C30.8257 24.3351 30.6568 24.0373 30.4368 23.8351C30.2168 23.6329 29.9535 23.5318 29.6468 23.5318C29.3424 23.5318 29.0802 23.6329 28.8602 23.8351C28.6402 24.0373 28.4713 24.3351 28.3535 24.7284C28.2358 25.1217 28.1769 25.5984 28.1769 26.1584C28.1769 26.7206 28.2346 27.1983 28.3502 27.5917C28.4657 27.9828 28.6335 28.2794 28.8535 28.4816C29.0757 28.6839 29.3402 28.785 29.6468 28.785Z" fill="#545251"/>
<path d="M20.999 28.2354V27.3987L24.0123 22.7422H24.6689V23.9755H24.2423L22.0857 27.3054V27.3587H26.2256V28.2354H20.999ZM24.3089 29.5687V27.9821L24.3156 27.5987V22.7422H25.2989V29.5687H24.3089Z" fill="#545251"/>
</svg>
