<svg width="66" height="52" viewBox="0 0 66 52" fill="none" xmlns="http://www.w3.org/2000/svg">
<path d="M42.7194 0.183594H22.9767C10.287 0.183594 0 10.4706 0 23.1603C0 35.85 10.287 46.1371 22.9767 46.1371H42.7194C55.4091 46.1371 65.6961 35.85 65.6961 23.1603C65.6961 10.4706 55.4091 0.183594 42.7194 0.183594Z" fill="white"/>
<path d="M39.0617 43.2177L30.3505 51.7925L30.2793 39.5742L39.0617 43.2177Z" fill="white"/>
<path d="M8.89891 30.9609V29.334L13.0825 22.8125H15.6665V29.3066H16.9243V30.9609H15.6665V32.7109H13.7114V30.9609H8.89891ZM10.977 29.3066H13.7388V25.0684H13.643L10.977 29.2246V29.3066ZM18.9822 32.834C18.3396 32.834 17.8201 32.3213 17.8338 31.6855C17.8201 31.0566 18.3396 30.5439 18.9822 30.5508C19.5906 30.5439 20.117 31.0566 20.117 31.6855C20.117 32.3213 19.5906 32.834 18.9822 32.834ZM25.0049 32.8477C22.9405 32.8477 21.4297 31.6309 21.3955 29.9219H23.3916C23.4395 30.6943 24.1436 31.2275 25.0049 31.2207C26.0303 31.2275 26.7618 30.5029 26.7549 29.4707C26.7618 28.418 26.0166 27.6865 24.9776 27.6797C24.2325 27.6797 23.7129 27.96 23.419 28.5137H21.5596L22.0928 22.8125H28.1905V24.4941H23.7881L23.5147 26.9961H23.5967C23.959 26.5107 24.711 26.1553 25.5791 26.1621C27.3975 26.1553 28.751 27.5156 28.751 29.416C28.751 31.4189 27.2334 32.8477 25.0049 32.8477ZM31.4984 29.1758C30.4388 29.1758 29.8675 28.4043 29.8675 27.291C29.8675 26.1729 30.4681 25.3965 31.4984 25.3965C32.5579 25.3965 33.1243 26.1729 33.1292 27.291C33.1243 28.4141 32.5433 29.1758 31.4984 29.1758ZM30.8636 27.291C30.8685 27.9014 31.0882 28.3018 31.4984 28.3066C31.9183 28.3018 32.1282 27.9014 32.1331 27.291C32.1282 26.6807 31.9378 26.2656 31.4984 26.2656C31.0833 26.2705 30.8685 26.6904 30.8636 27.291ZM30.8831 32.7109L35.7464 25.6406H36.8402L31.9769 32.7109H30.8831ZM34.6429 31.0605C34.6429 29.9424 35.2435 29.1709 36.264 29.166C37.3333 29.1709 37.8997 29.9424 37.9046 31.0605C37.8997 32.1836 37.3187 32.9453 36.264 32.9453C35.2142 32.9453 34.6429 32.1738 34.6429 31.0605ZM35.639 31.0605C35.6439 31.6709 35.8636 32.0762 36.264 32.0762C36.6937 32.0762 36.9036 31.6709 36.9085 31.0605C36.9036 30.4502 36.7083 30.0352 36.264 30.0449C35.8538 30.04 35.6439 30.46 35.639 31.0605ZM39.0816 32.7109V25.6406H41.855C43.4614 25.6406 44.3843 26.6318 44.3843 28.0234C44.3843 29.4346 43.4468 30.4062 41.8159 30.4062H40.5464V32.7109H39.0816ZM40.5464 29.2246H41.5816C42.4507 29.2246 42.8755 28.7363 42.8706 28.0234C42.8755 27.3203 42.4507 26.8467 41.5816 26.8418H40.5464V29.2246Z" fill="#202020"/>
<path d="M17.6775 7.94081C17.6885 9.15081 19.0525 10.3938 21.1315 10.6688L20.6475 11.6368C19.0085 11.3838 17.6995 10.5698 17.0615 9.46981C16.4235 10.5698 15.1255 11.3838 13.4975 11.6368L13.0135 10.6688C15.0705 10.3938 16.4345 9.16181 16.4455 7.94081V7.43481H17.6775V7.94081ZM12.6395 13.4408V12.4728H21.4835V13.4408H17.6335V16.8288H16.4455V13.4408H12.6395ZM26.3484 7.94081V8.71081H28.3064V7.14881H29.4944V14.2108H28.3064V11.7688H26.3484V12.6048H21.7944V7.94081H26.3484ZM22.9824 11.6588H25.1824V8.88681H22.9824V11.6588ZM23.0924 16.6528V13.5508H24.3024V15.6848H29.7144V16.6528H23.0924ZM26.3484 10.8008H28.3064V9.70081H26.3484V10.8008ZM40.3903 8.44681V9.39281H32.3603V8.44681H35.7703V7.25881H36.9583V8.44681H40.3903ZM31.9643 15.8168V14.8488H34.1643V13.1988C33.4713 12.8798 33.0863 12.3738 33.0863 11.7248C33.0863 10.5588 34.3403 9.87681 36.3643 9.87681C38.3883 9.87681 39.6423 10.5588 39.6423 11.7248C39.6423 12.3738 39.2683 12.8688 38.5863 13.1878V14.8488H40.8303V15.8168H31.9643ZM34.3183 11.7248C34.3073 12.3298 35.0553 12.6488 36.3643 12.6488C37.6623 12.6488 38.4103 12.3298 38.4103 11.7248C38.4103 11.1198 37.6623 10.8008 36.3643 10.8008C35.0553 10.8008 34.3073 11.1198 34.3183 11.7248ZM35.3523 14.8488H37.3983V13.5068C37.0793 13.5508 36.7383 13.5728 36.3643 13.5728C36.0013 13.5728 35.6603 13.5508 35.3523 13.5178V14.8488ZM45.1231 7.23681C47.3231 7.22581 48.5991 7.81981 48.5991 8.88681C48.5991 9.97581 47.3231 10.5588 45.1231 10.5588C42.9011 10.5588 41.6141 9.97581 41.6031 8.88681C41.6141 7.81981 42.9011 7.22581 45.1231 7.23681ZM40.7011 11.9668V11.0208H49.5451V11.9668H47.2351V12.7368H48.4451V15.1128H42.9231V15.8388H48.7091V16.7628H41.7351V14.2768H47.2571V13.6388H41.7351V12.7368H42.9891V11.9668H40.7011ZM42.8571 8.88681C42.8571 9.42581 43.6271 9.67881 45.1231 9.67881C46.6081 9.67881 47.3781 9.42581 47.3671 8.88681C47.3781 8.39181 46.6081 8.11681 45.1231 8.11681C43.6271 8.11681 42.8571 8.39181 42.8571 8.88681ZM44.1551 12.7368H46.0471V11.9668H44.1551V12.7368Z" fill="#202020"/>
</svg>
