<svg width="61" height="46" viewBox="0 0 61 46" fill="none" xmlns="http://www.w3.org/2000/svg">
<path d="M27.5179 0.0699426C27.3366 0.485001 27.0647 0.553768 26.8575 0.739193C21.436 5.56023 18.0646 12.354 16.8999 21.2501C16.7051 22.7347 16.6194 24.2452 16.5737 25.758C16.5559 26.3376 16.6952 26.52 17.0984 26.5126C18.5462 26.4905 19.9933 26.5022 21.441 26.5114C21.597 26.5114 21.8115 26.4009 21.8954 26.6422C21.9835 26.8896 21.7807 27.0468 21.6851 27.2144C18.2983 33.1179 14.9047 39.0128 11.5216 44.9194C11.3045 45.3007 11.1707 45.3916 10.9192 44.9575C7.40841 38.9348 3.88902 32.922 0.372715 26.9068C0.335721 26.8448 0.32154 26.7539 0.296877 26.6772C0.461502 26.3788 0.685317 26.5126 0.877071 26.5108C2.09727 26.4991 3.31684 26.4696 4.53704 26.5212C5.06359 26.5445 5.22945 26.302 5.31084 25.5726C6.23261 17.2076 8.95293 10.3506 13.9669 5.46752C14.5113 4.93765 15.065 4.42005 15.6483 3.97C16.5022 3.30935 17.4265 2.84456 18.3396 2.36626C19.2928 1.86586 20.2701 1.44528 21.2603 1.10575C21.314 1.08794 21.3682 1.07075 21.4219 1.0511C23.7722 0.270107 25.8655 0.0625762 27.5179 0.0699426Z" fill="white"/>
<path d="M33.4157 45.2445C33.597 44.8295 33.8689 44.7607 34.0761 44.5753C39.4976 39.7542 42.869 32.9604 44.0337 24.0643C44.2285 22.5797 44.3142 21.0693 44.3598 19.5564C44.3777 18.9768 44.2384 18.7945 43.8351 18.8018C42.3874 18.8239 40.9403 18.8123 39.4926 18.8031C39.3366 18.8031 39.1221 18.9136 39.0382 18.6723C38.9501 18.4248 39.1529 18.2677 39.2485 18.1C42.6353 12.1965 46.0289 6.30163 49.412 0.395056C49.6291 0.013769 49.7629 -0.0771014 50.0144 0.356989C53.5252 6.37961 57.0446 12.3924 60.5609 18.4077C60.5979 18.4697 60.6121 18.5605 60.6367 18.6373C60.4721 18.9357 60.2483 18.8018 60.0565 18.8037C58.8363 18.8153 57.6168 18.8448 56.3966 18.7932C55.87 18.7699 55.7041 19.0124 55.6228 19.7419C54.701 28.1068 51.9807 34.9639 46.9667 39.8469C46.4223 40.3768 45.8686 40.8944 45.2853 41.3445C44.4314 42.0051 43.5071 42.4699 42.594 42.9482C41.6408 43.4486 40.6635 43.8692 39.6733 44.2087C39.6196 44.2265 39.5654 44.2437 39.5117 44.2634C37.1614 45.0443 35.0681 45.2519 33.4157 45.2445Z" fill="white"/>
</svg>
