<svg width="16" height="25" viewBox="0 0 16 25" fill="none" xmlns="http://www.w3.org/2000/svg">
<path d="M14.2095 5.4573C14.2706 5.46184 14.3044 5.46537 14.3044 5.46537V5.4573H15.1758V0.296117H14.3044C14.3044 0.296117 8.97104 -0.431974 5.09971 3.66732V0.296117H0.125V24.1492H5.09971V20.9081C9.27539 24.9005 15.1083 24.1986 15.1083 24.1986V22.9577C9.67319 23.1755 6.62094 20.605 5.09971 18.6562L4.98032 18.4999C4.16172 17.4123 3.83046 16.5546 3.83046 16.5546V19.4665V22.8412H1.39424V1.60406H3.83095V8.35202C3.83095 8.35202 6.17078 1.47296 13.9071 1.59196V3.93103C4.67744 4.22297 5.269 12.2663 5.269 12.2663C5.70888 21.2761 14.3044 20.4875 14.3044 20.4875H15.1758V15.3264H13.3483C10.3279 15.0823 10.3279 12.2138 10.3279 12.2138C10.5564 9.11893 13.2465 9.28885 13.2465 9.28885H15.1078V7.69754H13.1198C8.75428 8.01117 8.9319 12.3792 8.9319 12.3792C8.93337 12.415 8.93532 12.4498 8.93728 12.4851C9.14964 16.1866 12.1451 16.6948 13.9066 16.6706V19.0999C6.26522 18.9426 6.68993 12.2663 6.68993 12.2663C7.19684 5.77092 12.4138 5.41242 13.9066 5.44368V5.4573H14.2095Z" fill="#010101"/>
</svg>
