<svg width="320" height="281" viewBox="0 0 320 281" fill="none" xmlns="http://www.w3.org/2000/svg">
<g clip-path="url(#clip0_1284_127185)">
<path d="M98.8069 51.7275C98.8069 52.6886 99.4426 53.625 100.665 54.3643L102.572 55.4733C110.568 60.3525 114.945 64.3693 122.134 68.3861C129.322 72.4029 135.826 74.7933 144.751 79.9683C152.747 84.8475 157.124 88.8397 164.312 92.8811C171.501 96.9225 178.005 99.2883 186.93 104.463L188.837 105.572C191.331 107.026 195.39 107.001 197.884 105.572L251.261 74.1525C252.508 73.4133 253.12 72.4768 253.12 71.5158" stroke="#999999" stroke-width="0.5" stroke-linecap="round" stroke-linejoin="round"/>
<path d="M98.8069 55.0293C98.8069 55.9904 99.4426 56.9268 100.665 57.6661L102.572 58.775C110.568 63.6543 114.945 67.6711 122.134 71.6879C129.322 75.7047 135.826 78.095 144.751 83.27C152.747 88.1493 157.124 92.1661 164.312 96.1829C171.501 100.2 178.005 102.59 186.93 107.765L188.837 108.874C191.331 110.328 195.39 110.303 197.884 108.874L251.261 77.4543C252.508 76.715 253.12 75.7786 253.12 74.8175" stroke="#999999" stroke-width="0.5" stroke-linecap="round" stroke-linejoin="round"/>
<path d="M98.8069 58.332C98.8069 59.2931 99.4426 60.2295 100.665 60.9688L102.572 62.0777C110.568 66.957 114.945 70.9738 122.134 74.9906C129.322 79.0074 135.826 81.3977 144.751 86.5727C152.747 91.452 157.124 95.4688 164.312 99.4856C171.501 103.502 178.005 105.893 186.93 111.068L188.837 112.177C191.331 113.631 195.39 113.606 197.884 112.177L251.261 80.757C252.508 80.0177 253.12 79.0813 253.12 78.1202" stroke="#999999" stroke-width="0.5" stroke-linecap="round" stroke-linejoin="round"/>
<path d="M98.8069 61.6582C98.8069 62.6193 99.4426 63.5557 100.665 64.295L102.572 65.4039C110.568 70.2832 114.945 74.3 122.134 78.3168C129.322 82.3336 135.826 84.7239 144.751 89.8989C152.747 94.7782 157.124 98.795 164.312 102.812C171.501 106.829 178.005 109.219 186.93 114.394L188.837 115.503C191.331 116.957 195.39 116.932 197.884 115.503L251.261 84.0832C252.508 83.3439 253.12 82.4075 253.12 81.4464" stroke="#999999" stroke-width="0.5" stroke-linecap="round" stroke-linejoin="round"/>
<path d="M98.8069 64.9609C98.8069 65.922 99.4426 66.8584 100.665 67.5977L102.572 68.7067C110.568 73.5859 114.945 77.6027 122.134 81.6195C129.322 85.6363 135.826 88.0267 144.751 93.2017C152.747 98.0809 157.124 102.098 164.312 106.115C171.501 110.131 178.005 112.522 186.93 117.697L188.837 118.806C191.331 120.26 195.39 120.235 197.884 118.806L251.261 87.3859C252.508 86.6467 253.12 85.7102 253.12 84.7492" stroke="#999999" stroke-width="0.5" stroke-linecap="round" stroke-linejoin="round"/>
<path d="M98.8069 68.2627C98.8069 69.2238 99.4426 70.1602 100.665 70.8995L102.572 72.0084C110.568 76.8877 114.945 80.9045 122.134 84.9213C129.322 88.9381 135.826 91.3284 144.751 96.5034C152.747 101.383 157.124 105.399 164.312 109.416C171.501 113.433 178.005 115.823 186.93 120.998L188.837 122.107C191.331 123.561 195.39 123.537 197.884 122.107L251.261 90.6877C252.508 89.9484 253.12 89.012 253.12 88.0509" stroke="#999999" stroke-width="0.5" stroke-linecap="round" stroke-linejoin="round"/>
<path d="M98.8069 71.5654C98.8069 72.5265 99.4426 73.4629 100.665 74.2022L102.572 75.3111C110.568 80.1904 114.945 84.2072 122.134 88.224C129.322 92.2408 135.826 94.6311 144.751 99.8061C152.747 104.685 157.124 108.702 164.312 112.719C171.501 116.736 178.005 119.126 186.93 124.301L188.837 125.41C191.331 126.864 195.39 126.839 197.884 125.41L251.261 93.9904C252.508 93.2511 253.12 92.3147 253.12 91.3536" stroke="#999999" stroke-width="0.5" stroke-linecap="round" stroke-linejoin="round"/>
<path d="M98.8069 74.8672C98.8069 75.8283 99.4426 76.7647 100.665 77.504L102.572 78.6129C110.568 83.4922 114.945 87.509 122.134 91.5258C129.322 95.5425 135.826 97.9329 144.751 103.108C152.747 107.987 157.124 112.004 164.312 116.021C171.501 120.038 178.005 122.428 186.93 127.603L188.837 128.712C191.331 130.166 195.39 130.141 197.884 128.712L251.261 97.2922C252.508 96.5529 253.12 95.6165 253.12 94.6554" stroke="#999999" stroke-width="0.5" stroke-linecap="round" stroke-linejoin="round"/>
<path d="M98.8069 78.1689C98.8069 79.13 99.4426 80.0664 100.665 80.8057L102.572 81.9147C110.568 86.7939 114.945 90.8107 122.134 94.8275C129.322 98.8443 135.826 101.235 144.751 106.41C152.747 111.289 157.124 115.306 164.312 119.323C171.501 123.339 178.005 125.73 186.93 130.905L188.837 132.014C191.331 133.468 195.39 133.443 197.884 132.014L251.261 100.594C252.508 99.8547 253.12 98.9182 253.12 97.9572" stroke="#999999" stroke-width="0.5" stroke-linecap="round" stroke-linejoin="round"/>
<path d="M98.8069 81.4717C98.8069 82.4328 99.4426 83.3692 100.665 84.1085L102.572 85.2174C110.568 90.0967 114.945 94.0888 122.134 98.1302C129.322 102.172 135.826 104.537 144.751 109.712C152.747 114.592 157.124 118.608 164.312 122.625C171.501 126.642 178.005 129.032 186.93 134.207L188.837 135.316C191.331 136.77 195.39 136.746 197.884 135.316L251.261 103.897C252.508 103.157 253.12 102.221 253.12 101.26" stroke="#999999" stroke-width="0.5" stroke-linecap="round" stroke-linejoin="round"/>
<path d="M98.8069 84.7734C98.8069 85.7345 99.4426 86.6709 100.665 87.4102L102.572 88.5191C110.568 93.3984 114.945 97.4152 122.134 101.432C129.322 105.449 135.826 107.839 144.751 113.014C152.747 117.893 157.124 121.91 164.312 125.927C171.501 129.944 178.005 132.334 186.93 137.509L188.837 138.618C191.331 140.072 195.39 140.047 197.884 138.618L251.261 107.198C252.508 106.459 253.12 105.523 253.12 104.562" stroke="#999999" stroke-width="0.5" stroke-linecap="round" stroke-linejoin="round"/>
<path d="M98.8069 88.0762C98.8069 89.0372 99.4426 89.9737 100.665 90.713L102.572 91.8219C110.568 96.7012 114.945 100.718 122.134 104.735C129.322 108.752 135.826 111.142 144.751 116.317C152.747 121.196 157.124 125.213 164.312 129.23C171.501 133.247 178.005 135.637 186.93 140.812L188.837 141.921C191.331 143.375 195.39 143.35 197.884 141.921L251.261 110.501C252.508 109.762 253.12 108.825 253.12 107.864" stroke="#999999" stroke-width="0.5" stroke-linecap="round" stroke-linejoin="round"/>
<path d="M98.8069 91.3779C98.8069 92.339 99.4426 93.2754 100.665 94.0147L102.572 95.1237C110.568 100.003 114.945 104.02 122.134 108.037C129.322 112.053 135.826 114.444 144.751 119.619C152.747 124.498 157.124 128.515 164.312 132.532C171.501 136.548 178.005 138.939 186.93 144.114L188.837 145.223C191.331 146.677 195.39 146.652 197.884 145.223L251.261 113.803C252.508 113.064 253.12 112.127 253.12 111.166" stroke="#999999" stroke-width="0.5" stroke-linecap="round" stroke-linejoin="round"/>
<path d="M98.8069 94.7051C98.8069 95.6661 99.4426 96.6026 100.665 97.3419L102.572 98.4508C110.568 103.33 114.945 107.347 122.134 111.364C129.322 115.38 135.826 117.771 144.751 122.946C152.747 127.825 157.124 131.842 164.312 135.859C171.501 139.875 178.005 142.266 186.93 147.441L188.837 148.55C191.331 150.004 195.39 149.979 197.884 148.55L251.261 117.13C252.508 116.391 253.12 115.454 253.12 114.493" stroke="#999999" stroke-width="0.5" stroke-linecap="round" stroke-linejoin="round"/>
<path d="M98.8069 98.0068C98.8069 98.9679 99.4426 99.9043 100.665 100.644L102.572 101.753C110.568 106.632 114.945 110.649 122.134 114.665C129.322 118.682 135.826 121.073 144.751 126.248C152.747 131.127 157.124 135.144 164.312 139.16C171.501 143.177 178.005 145.568 186.93 150.743L188.837 151.851C191.331 153.305 195.39 153.281 197.884 151.851L251.261 120.432C252.508 119.693 253.12 118.756 253.12 117.795" stroke="#999999" stroke-width="0.5" stroke-linecap="round" stroke-linejoin="round"/>
<path d="M98.8069 101.309C98.8069 102.27 99.4426 103.206 100.665 103.945L102.572 105.054C110.568 109.934 114.945 113.95 122.134 117.967C129.322 121.984 135.826 124.374 144.751 129.549C152.747 134.429 157.124 138.445 164.312 142.462C171.501 146.479 178.005 148.869 186.93 154.044L188.837 155.153C191.331 156.607 195.39 156.583 197.884 155.153L251.261 123.734C252.508 122.994 253.12 122.058 253.12 121.097" stroke="#999999" stroke-width="0.5" stroke-linecap="round" stroke-linejoin="round"/>
<path d="M98.8069 104.611C98.8069 105.572 99.4426 106.509 100.665 107.248L102.572 108.357C110.568 113.236 114.945 117.253 122.134 121.27C129.322 125.287 135.826 127.677 144.751 132.852C152.747 137.731 157.124 141.748 164.312 145.765C171.501 149.782 178.005 152.172 186.93 157.347L188.837 158.456C191.331 159.91 195.39 159.885 197.884 158.456L251.261 127.036C252.508 126.297 253.12 125.361 253.12 124.4" stroke="#999999" stroke-width="0.5" stroke-linecap="round" stroke-linejoin="round"/>
<path d="M98.8069 107.913C98.8069 108.874 99.4426 109.811 100.665 110.55L102.572 111.659C110.568 116.538 114.945 120.555 122.134 124.572C129.322 128.588 135.826 130.979 144.751 136.154C152.747 141.033 157.124 145.05 164.312 149.067C171.501 153.083 178.005 155.474 186.93 160.649L188.837 161.758C191.331 163.212 195.39 163.187 197.884 161.758L251.261 130.338C252.508 129.599 253.12 128.662 253.12 127.701" stroke="#999999" stroke-width="0.5" stroke-linecap="round" stroke-linejoin="round"/>
<path d="M98.8069 111.216C98.8069 112.177 99.4426 113.113 100.665 113.853L102.572 114.962C110.568 119.841 114.945 123.858 122.134 127.874C129.322 131.891 135.826 134.282 144.751 139.457C152.747 144.336 157.124 148.353 164.312 152.369C171.501 156.386 178.005 158.777 186.93 163.952L188.837 165.06C191.331 166.514 195.39 166.49 197.884 165.06L251.261 133.641C252.508 132.902 253.12 131.965 253.12 131.004" stroke="#999999" stroke-width="0.5" stroke-linecap="round" stroke-linejoin="round"/>
<path d="M98.8069 114.518C98.8069 115.479 99.4426 116.415 100.665 117.154L102.572 118.263C110.568 123.143 114.945 127.159 122.134 131.176C129.322 135.193 135.826 137.583 144.751 142.758C152.747 147.638 157.124 151.654 164.312 155.671C171.501 159.688 178.005 162.078 186.93 167.253L188.837 168.362C191.331 169.816 195.39 169.792 197.884 168.362L251.261 136.943C252.508 136.203 253.12 135.267 253.12 134.306" stroke="#999999" stroke-width="0.5" stroke-linecap="round" stroke-linejoin="round"/>
<path d="M98.8069 117.819C98.8069 118.78 99.4426 119.717 100.665 120.456L102.572 121.565C110.568 126.444 114.945 130.461 122.134 134.478C129.322 138.495 135.826 140.885 144.751 146.06C152.747 150.939 157.124 154.956 164.312 158.973C171.501 162.99 178.005 165.38 186.93 170.555L188.837 171.664C191.331 173.118 195.39 173.093 197.884 171.664L251.261 140.244C252.508 139.505 253.12 138.569 253.12 137.608" stroke="#999999" stroke-width="0.5" stroke-linecap="round" stroke-linejoin="round"/>
<path d="M98.8069 121.122C98.8069 122.083 99.4426 123.02 100.665 123.759L102.572 124.868C110.568 129.747 114.945 133.764 122.134 137.781C129.322 141.797 135.826 144.188 144.751 149.363C152.747 154.242 157.124 158.259 164.312 162.276C171.501 166.292 178.005 168.683 186.93 173.858L188.837 174.967C191.331 176.421 195.39 176.396 197.884 174.967L251.261 143.547C252.508 142.808 253.12 141.871 253.12 140.91" stroke="#999999" stroke-width="0.5" stroke-linecap="round" stroke-linejoin="round"/>
<path d="M98.8069 124.448C98.8069 125.409 99.4426 126.346 100.665 127.085L102.572 128.194C110.568 133.073 114.945 137.09 122.134 141.107C129.322 145.124 135.826 147.514 144.751 152.689C152.747 157.568 157.124 161.585 164.312 165.602C171.501 169.619 178.005 172.009 186.93 177.184L188.837 178.293C191.331 179.747 195.39 179.722 197.884 178.293L251.261 146.873C252.508 146.134 253.12 145.198 253.12 144.236" stroke="#999999" stroke-width="0.5" stroke-linecap="round" stroke-linejoin="round"/>
<path d="M98.8069 127.751C98.8069 128.712 99.4426 129.648 100.665 130.388L102.572 131.497C110.568 136.376 114.945 140.393 122.134 144.41C129.322 148.426 135.826 150.817 144.751 155.992C152.747 160.871 157.124 164.888 164.312 168.905C171.501 172.921 178.005 175.312 186.93 180.487L188.837 181.596C191.331 183.05 195.39 183.025 197.884 181.596L251.261 150.176C252.508 149.437 253.12 148.5 253.12 147.539" stroke="#999999" stroke-width="0.5" stroke-linecap="round" stroke-linejoin="round"/>
<path d="M98.8069 131.053C98.8069 132.014 99.4426 132.95 100.665 133.69L102.572 134.798C110.568 139.678 114.945 143.695 122.134 147.711C129.322 151.728 135.826 154.118 144.751 159.293C152.747 164.173 157.124 168.19 164.312 172.206C171.501 176.223 178.005 178.613 186.93 183.788L188.837 184.897C191.331 186.351 195.39 186.327 197.884 184.897L251.261 153.478C252.508 152.738 253.12 151.802 253.12 150.841" stroke="#999999" stroke-width="0.5" stroke-linecap="round" stroke-linejoin="round"/>
<path d="M98.8069 134.355C98.8069 135.317 99.4426 136.253 100.665 136.992L102.572 138.101C110.568 142.98 114.945 146.997 122.134 151.014C129.322 155.031 135.826 157.421 144.751 162.596C152.747 167.475 157.124 171.492 164.312 175.509C171.501 179.526 178.005 181.916 186.93 187.091L188.837 188.2C191.331 189.654 195.39 189.629 197.884 188.2L251.261 156.78C252.508 156.041 253.12 155.105 253.12 154.144" stroke="#999999" stroke-width="0.5" stroke-linecap="round" stroke-linejoin="round"/>
<path d="M98.8069 137.657C98.8069 138.618 99.4426 139.555 100.665 140.294L102.572 141.403C110.568 146.282 114.945 150.299 122.134 154.316C129.322 158.333 135.826 160.723 144.751 165.898C152.747 170.777 157.124 174.794 164.312 178.811C171.501 182.828 178.005 185.218 186.93 190.393L188.837 191.502C191.331 192.956 195.39 192.931 197.884 191.502L251.261 160.082C252.508 159.343 253.12 158.407 253.12 157.445" stroke="#999999" stroke-width="0.5" stroke-linecap="round" stroke-linejoin="round"/>
<path d="M98.8069 140.959C98.8069 141.92 99.4426 142.856 100.665 143.596L102.572 144.705C110.568 149.584 114.945 153.601 122.134 157.618C129.322 161.634 135.826 164.025 144.751 169.2C152.747 174.079 157.124 178.096 164.312 182.113C171.501 186.129 178.005 188.52 186.93 193.695L188.837 194.804C191.331 196.258 195.39 196.233 197.884 194.804L251.261 163.384C252.508 162.645 253.12 161.708 253.12 160.747" stroke="#999999" stroke-width="0.5" stroke-linecap="round" stroke-linejoin="round"/>
<path d="M98.8069 144.262C98.8069 145.223 99.4426 146.159 100.665 146.899L102.572 148.007C110.568 152.887 114.945 156.904 122.134 160.92C129.322 164.937 135.826 167.327 144.751 172.502C152.747 177.382 157.124 181.398 164.312 185.415C171.501 189.432 178.005 191.822 186.93 196.997L188.837 198.106C191.331 199.56 195.39 199.536 197.884 198.106L251.261 166.687C252.508 165.947 253.12 165.011 253.12 164.05" stroke="#999999" stroke-width="0.5" stroke-linecap="round" stroke-linejoin="round"/>
<path d="M98.8069 147.563C98.8069 148.525 99.4426 149.461 100.665 150.2L102.572 151.309C110.568 156.188 114.945 160.205 122.134 164.222C129.322 168.239 135.826 170.629 144.751 175.804C152.747 180.683 157.124 184.7 164.312 188.717C171.501 192.734 178.005 195.124 186.93 200.299L188.837 201.408C191.331 202.862 195.39 202.837 197.884 201.408L251.261 169.988C252.508 169.249 253.12 168.313 253.12 167.352" stroke="#999999" stroke-width="0.5" stroke-linecap="round" stroke-linejoin="round"/>
<path d="M98.8069 150.866C98.8069 151.827 99.4426 152.764 100.665 153.503L102.572 154.612C110.568 159.491 114.945 163.508 122.134 167.525C129.322 171.542 135.826 173.932 144.751 179.107C152.747 183.986 157.124 188.003 164.312 192.02C171.501 196.037 178.005 198.427 186.93 203.602L188.837 204.711C191.331 206.165 195.39 206.14 197.884 204.711L251.261 173.291C252.508 172.552 253.12 171.615 253.12 170.654" stroke="#999999" stroke-width="0.5" stroke-linecap="round" stroke-linejoin="round"/>
<path d="M98.8069 157.495C98.8069 158.456 99.4426 159.393 100.665 160.132L102.572 161.241C110.568 166.12 114.945 170.137 122.134 174.154C129.322 178.17 135.826 180.561 144.751 185.736C152.747 190.615 157.124 194.607 164.312 198.649C171.501 202.69 178.005 205.056 186.93 210.231L188.837 211.34C191.331 212.794 195.39 212.769 197.884 211.34L251.261 179.92C252.508 179.181 253.12 178.244 253.12 177.283" stroke="#999999" stroke-width="0.5" stroke-linecap="round" stroke-linejoin="round"/>
<path d="M98.8069 160.797C98.8069 161.758 99.4426 162.694 100.665 163.434L102.572 164.543C110.568 169.422 114.945 173.439 122.134 177.455C129.322 181.472 135.826 183.863 144.751 189.038C152.747 193.917 157.124 197.934 164.312 201.95C171.501 205.967 178.005 208.358 186.93 213.533L188.837 214.642C191.331 216.095 195.39 216.071 197.884 214.642L251.261 183.222C252.508 182.483 253.12 181.546 253.12 180.585" stroke="#999999" stroke-width="0.5" stroke-linecap="round" stroke-linejoin="round"/>
<path d="M98.8069 154.192C98.8069 155.153 99.4426 156.09 100.665 156.829L102.572 157.938C110.568 162.817 114.945 166.834 122.134 170.851C129.322 174.868 135.826 177.258 144.751 182.433C152.747 187.312 157.124 191.329 164.312 195.346C171.501 199.363 178.005 201.753 186.93 206.928L188.837 208.037C191.331 209.491 195.39 209.466 197.884 208.037L251.261 176.617C252.508 175.878 253.12 174.942 253.12 173.981" stroke="black" stroke-width="0.5" stroke-linecap="round" stroke-linejoin="round"/>
<path d="M98.6113 48.7705C98.6113 49.5837 99.2471 50.3477 100.078 50.8405L189.766 103.034C191.331 104.143 195.292 104.143 196.882 103.034L251.946 70.9984C252.802 70.5302 253.438 69.7416 253.413 68.9284" stroke="black" stroke-width="0.5" stroke-linecap="round" stroke-linejoin="round"/>
<path d="M162.234 14.6647L251.922 66.8583C252.777 67.3265 253.413 68.1151 253.389 68.9283V184.676C253.389 185.489 252.753 186.253 251.922 186.746L196.857 218.781C195.292 219.89 191.331 219.89 189.742 218.781L100.078 166.563C99.2226 166.095 98.5868 165.306 98.6113 164.493V48.7704C98.6113 47.9572 99.247 47.1933 100.078 46.7004L155.143 14.6647C156.708 13.5558 160.669 13.5558 162.258 14.6647H162.234Z" stroke="#030000" stroke-linecap="round" stroke-linejoin="round"/>
<path d="M191.355 31.5703L129.004 67.401" stroke="black" stroke-width="0.7" stroke-linecap="round" stroke-linejoin="round"/>
<path d="M253.389 69.3232C253.389 68.51 252.777 67.7214 251.922 67.2532L162.527 14.5914C160.962 13.4578 157.001 13.4332 155.412 14.5421L100.201 46.3068C99.3447 46.775 98.709 47.5389 98.709 48.3768" stroke="black" stroke-width="0.3" stroke-linecap="round" stroke-linejoin="round"/>
<path d="M159.935 23.4383C158.762 22.6251 156.268 22.6744 154.996 23.4137C153.749 24.1529 153.749 25.5576 154.996 26.2722C156.219 26.9869 158.664 27.0115 159.935 26.2969C161.207 25.5822 161.305 24.1037 159.935 23.4383Z" stroke="black" stroke-width="0.7" stroke-linecap="round" stroke-linejoin="round"/>
<path d="M253.389 69.3236C253.389 70.1368 252.753 70.9008 251.897 71.3936L196.686 103.134C195.121 104.243 191.135 104.218 189.57 103.084L100.176 50.4225C99.3447 49.9297 98.709 49.1658 98.709 48.3525" stroke="black" stroke-width="0.7" stroke-linecap="round" stroke-linejoin="round"/>
<path d="M182.577 68.0168C182.577 66.7107 183.066 65.4047 183.922 64.2465C184.705 63.1868 185.829 62.2504 187.199 61.4618C188.544 60.6979 190.133 60.0818 191.844 59.6382C193.703 59.17 195.732 58.9482 197.737 58.9482C199.742 58.9482 201.772 59.2193 203.63 59.6875C205.342 60.1311 206.931 60.7718 208.276 61.5604C209.621 62.349 210.721 63.31 211.503 64.3697C212.359 65.5279 212.824 66.834 212.824 68.1647V71.7625C212.824 72.97 212.359 74.1775 211.528 75.2618C211.112 75.804 210.623 76.2968 210.11 76.7404C209.596 77.184 209.034 77.5782 208.398 77.9479C205.831 79.4265 201.747 80.5107 197.639 80.4861C193.532 80.4861 189.375 79.3525 186.954 77.8493C184.411 76.3954 182.504 74.0543 182.553 71.6147V68.0168H182.577Z" stroke="black" stroke-width="0.7" stroke-linecap="round" stroke-linejoin="round"/>
<path d="M183.262 68.0176C184.362 79.2794 210.941 79.4272 212.164 68.1654" stroke="black" stroke-width="0.3" stroke-linecap="round" stroke-linejoin="round"/>
<path d="M219.67 59.9833C233.387 67.8937 229.475 80.3876 216.174 85.7105C204.779 90.3433 191.527 90.3433 180.059 85.9569C168.762 81.8415 161.207 70.4072 173.017 61.5851C186.416 52.418 205.537 52.418 219.646 59.9833H219.67Z" stroke="#999999" stroke-width="0.3" stroke-linecap="round" stroke-linejoin="round"/>
<path d="M131.327 34.6265L131.987 34.2568L130.96 32.6797L130.374 33L131.229 34.1829L129.224 33.69L128.637 34.0104L131.327 34.6265Z" fill="#808080"/>
<path d="M133.503 32.1126C133.503 32.1126 133.21 31.8908 133.332 31.669C133.381 31.5951 133.454 31.5212 133.577 31.4472C133.675 31.3733 133.797 31.324 133.919 31.2994C134.335 31.2254 134.653 31.3979 134.701 31.3979L133.503 32.0879V32.1126ZM134.75 30.9051C134.579 30.9051 134.31 30.8804 133.992 30.979C133.723 31.0529 133.479 31.1515 133.259 31.2747C132.917 31.4719 132.794 31.6197 132.77 31.6444C132.696 31.7183 132.55 31.8908 132.599 32.0879C132.648 32.2604 132.819 32.4329 133.039 32.5562C133.259 32.6794 133.528 32.7779 133.846 32.8026C134.384 32.8272 134.897 32.6301 135.239 32.4083C135.582 32.2112 135.728 32.0633 135.777 31.9894C136.046 31.669 135.851 31.4472 135.826 31.4226L135.19 31.7922C135.19 31.7922 135.239 31.8908 135.19 32.014C135.142 32.0879 135.068 32.1619 134.97 32.2358C134.775 32.3344 134.506 32.4329 134.139 32.3837C134.066 32.359 133.968 32.3344 133.87 32.2851L135.655 31.2501C135.655 31.2501 135.533 31.1762 135.484 31.1515C135.337 31.0776 135.093 30.9297 134.775 30.9051" fill="#808080"/>
<path d="M125.41 35.8829L126.657 36.6221L124.432 36.4496L123.747 36.8686L125.606 37.9529L125.972 37.7064L125.948 37.5339L124.897 36.9179L127.122 37.0657L127.806 36.6714L125.948 35.5625L125.41 35.8829Z" fill="#808080"/>
<path d="M136.56 29.4266L137.807 30.1659L135.582 29.9934L134.897 30.4123L136.755 31.4966L137.147 31.2501L137.122 31.0776L136.071 30.4369L138.296 30.6094L138.98 30.2151L137.122 29.1309L136.56 29.4266Z" fill="#808080"/>
<path d="M133.405 33.4182V33.2211L131.718 32.2354L131.18 32.5557L133.039 33.64L133.405 33.4182Z" fill="#808080"/>
<path d="M129.102 35.0452C129.42 35.2424 129.249 35.5381 128.907 35.7352C128.638 35.8831 128.393 35.9077 128.197 35.8091C128.1 35.7352 128.075 35.7352 128.075 35.7106C128.051 35.612 128.271 35.4641 128.271 35.4641C128.271 35.4641 128.613 35.2424 128.76 35.1191C128.858 35.0452 128.907 34.9959 128.931 34.9466L129.102 35.0452ZM129.029 34.3799C128.882 34.2813 128.54 34.1827 127.928 34.4045C127.757 34.4784 127.586 34.5524 127.415 34.6509C126.853 34.9713 126.681 35.2424 126.755 35.4395C126.779 35.5134 126.828 35.5627 126.902 35.612L127.464 35.2916C127.244 35.1191 127.513 34.9466 127.684 34.8481C128.051 34.6263 128.32 34.577 128.491 34.6756C128.686 34.7988 128.54 34.8974 128.222 35.1191C127.782 35.4149 127.586 35.5381 127.513 35.6613C127.342 35.8831 127.342 35.9816 127.635 36.1541C127.831 36.2774 128.124 36.3513 128.564 36.2281C128.858 36.1295 129.273 35.9324 129.444 35.7352C129.616 35.5381 129.616 35.4395 129.616 35.3409L129.86 35.4888L130.251 35.267V35.0699L129.053 34.3799H129.029Z" fill="#808080"/>
</g>
<path d="M272.46 153.045C272.46 153.429 272.384 153.765 272.232 154.053C272.088 154.333 271.88 154.561 271.608 154.737C271.336 154.913 271.024 155.041 270.672 155.121V155.169C271.36 155.249 271.872 155.465 272.208 155.817C272.552 156.161 272.724 156.617 272.724 157.185C272.724 157.681 272.604 158.125 272.364 158.517C272.132 158.901 271.768 159.205 271.272 159.429C270.784 159.645 270.156 159.753 269.388 159.753C268.932 159.753 268.508 159.717 268.116 159.645C267.724 159.573 267.352 159.453 267 159.285V158.133C267.36 158.317 267.744 158.457 268.152 158.553C268.568 158.649 268.964 158.697 269.34 158.697C270.068 158.697 270.592 158.561 270.912 158.289C271.232 158.009 271.392 157.621 271.392 157.125C271.392 156.805 271.308 156.545 271.14 156.345C270.972 156.137 270.716 155.985 270.372 155.889C270.028 155.785 269.6 155.733 269.088 155.733H268.308V154.689H269.1C269.588 154.689 269.984 154.629 270.288 154.509C270.592 154.381 270.816 154.205 270.96 153.981C271.104 153.757 271.176 153.501 271.176 153.213C271.176 152.829 271.048 152.533 270.792 152.325C270.544 152.109 270.184 152.001 269.712 152.001C269.424 152.001 269.156 152.033 268.908 152.097C268.668 152.161 268.448 152.245 268.248 152.349C268.048 152.453 267.852 152.569 267.66 152.697L267.036 151.821C267.252 151.661 267.492 151.513 267.756 151.377C268.028 151.241 268.328 151.137 268.656 151.065C268.992 150.985 269.356 150.945 269.748 150.945C270.636 150.945 271.308 151.141 271.764 151.533C272.228 151.917 272.46 152.421 272.46 153.045ZM279.088 153.045C279.088 153.429 279.012 153.765 278.86 154.053C278.716 154.333 278.508 154.561 278.236 154.737C277.964 154.913 277.652 155.041 277.3 155.121V155.169C277.988 155.249 278.5 155.465 278.836 155.817C279.18 156.161 279.352 156.617 279.352 157.185C279.352 157.681 279.232 158.125 278.992 158.517C278.76 158.901 278.396 159.205 277.9 159.429C277.412 159.645 276.784 159.753 276.016 159.753C275.56 159.753 275.136 159.717 274.744 159.645C274.352 159.573 273.98 159.453 273.628 159.285V158.133C273.988 158.317 274.372 158.457 274.78 158.553C275.196 158.649 275.592 158.697 275.968 158.697C276.696 158.697 277.22 158.561 277.54 158.289C277.86 158.009 278.02 157.621 278.02 157.125C278.02 156.805 277.936 156.545 277.768 156.345C277.6 156.137 277.344 155.985 277 155.889C276.656 155.785 276.228 155.733 275.716 155.733H274.936V154.689H275.728C276.216 154.689 276.612 154.629 276.916 154.509C277.22 154.381 277.444 154.205 277.588 153.981C277.732 153.757 277.804 153.501 277.804 153.213C277.804 152.829 277.676 152.533 277.42 152.325C277.172 152.109 276.812 152.001 276.34 152.001C276.052 152.001 275.784 152.033 275.536 152.097C275.296 152.161 275.076 152.245 274.876 152.349C274.676 152.453 274.48 152.569 274.288 152.697L273.664 151.821C273.88 151.661 274.12 151.513 274.384 151.377C274.656 151.241 274.956 151.137 275.284 151.065C275.62 150.985 275.984 150.945 276.376 150.945C277.264 150.945 277.936 151.141 278.392 151.533C278.856 151.917 279.088 152.421 279.088 153.045ZM286.051 159.633H280.291V158.649L282.499 156.405C282.931 155.965 283.291 155.585 283.579 155.265C283.867 154.937 284.083 154.625 284.227 154.329C284.371 154.025 284.443 153.697 284.443 153.345C284.443 152.905 284.315 152.577 284.059 152.361C283.803 152.137 283.471 152.025 283.063 152.025C282.671 152.025 282.319 152.101 282.007 152.253C281.695 152.397 281.371 152.601 281.035 152.865L280.351 152.013C280.583 151.813 280.831 151.633 281.095 151.473C281.367 151.313 281.667 151.185 281.995 151.089C282.331 150.993 282.699 150.945 283.099 150.945C283.643 150.945 284.111 151.041 284.503 151.233C284.895 151.417 285.195 151.681 285.403 152.025C285.619 152.369 285.727 152.773 285.727 153.237C285.727 153.581 285.675 153.905 285.571 154.209C285.467 154.505 285.315 154.797 285.115 155.085C284.923 155.373 284.687 155.665 284.407 155.961C284.127 156.257 283.819 156.569 283.483 156.897L281.887 158.445V158.505H286.051V159.633ZM294.61 153.045C295.338 153.045 295.886 153.233 296.254 153.609C296.622 153.985 296.806 154.589 296.806 155.421V159.633H295.534V155.589C295.534 155.093 295.434 154.721 295.234 154.473C295.042 154.217 294.738 154.089 294.322 154.089C293.746 154.089 293.334 154.269 293.086 154.629C292.838 154.981 292.714 155.493 292.714 156.165V159.633H291.454V155.589C291.454 155.261 291.406 154.985 291.31 154.761C291.222 154.537 291.09 154.369 290.914 154.257C290.738 154.145 290.51 154.089 290.23 154.089C289.83 154.089 289.514 154.177 289.282 154.353C289.05 154.529 288.882 154.789 288.778 155.133C288.682 155.469 288.634 155.881 288.634 156.369V159.633H287.362V153.165H288.37L288.55 154.029H288.622C288.758 153.805 288.922 153.621 289.114 153.477C289.314 153.333 289.534 153.225 289.774 153.153C290.014 153.081 290.262 153.045 290.518 153.045C291.006 153.045 291.418 153.133 291.754 153.309C292.09 153.477 292.334 153.737 292.486 154.089H292.582C292.79 153.729 293.078 153.465 293.446 153.297C293.814 153.129 294.202 153.045 294.61 153.045ZM305.761 153.045C306.489 153.045 307.037 153.233 307.405 153.609C307.773 153.985 307.957 154.589 307.957 155.421V159.633H306.685V155.589C306.685 155.093 306.585 154.721 306.385 154.473C306.193 154.217 305.889 154.089 305.473 154.089C304.897 154.089 304.485 154.269 304.237 154.629C303.989 154.981 303.865 155.493 303.865 156.165V159.633H302.605V155.589C302.605 155.261 302.557 154.985 302.461 154.761C302.373 154.537 302.241 154.369 302.065 154.257C301.889 154.145 301.661 154.089 301.381 154.089C300.981 154.089 300.665 154.177 300.433 154.353C300.201 154.529 300.033 154.789 299.929 155.133C299.833 155.469 299.785 155.881 299.785 156.369V159.633H298.513V153.165H299.521L299.701 154.029H299.773C299.909 153.805 300.073 153.621 300.265 153.477C300.465 153.333 300.685 153.225 300.925 153.153C301.165 153.081 301.413 153.045 301.669 153.045C302.157 153.045 302.569 153.133 302.905 153.309C303.241 153.477 303.485 153.737 303.637 154.089H303.733C303.941 153.729 304.229 153.465 304.597 153.297C304.965 153.129 305.353 153.045 305.761 153.045Z" fill="#A6A5A3"/>
<path d="M226.948 227.633H225.688V221.945C225.688 221.745 225.688 221.561 225.688 221.393C225.696 221.217 225.704 221.049 225.712 220.889C225.72 220.721 225.728 220.561 225.736 220.409C225.632 220.513 225.524 220.613 225.412 220.709C225.3 220.805 225.172 220.917 225.028 221.045L224.092 221.801L223.444 220.985L225.892 219.065H226.948V227.633ZM235.412 222.725C235.412 223.213 235.376 223.701 235.304 224.189C235.232 224.669 235.112 225.125 234.944 225.557C234.776 225.981 234.536 226.361 234.224 226.697C233.92 227.025 233.532 227.285 233.06 227.477C232.596 227.661 232.032 227.753 231.368 227.753C231.208 227.753 231.02 227.745 230.804 227.729C230.588 227.713 230.408 227.685 230.264 227.645V226.577C230.416 226.625 230.584 226.661 230.768 226.685C230.96 226.709 231.144 226.721 231.32 226.721C231.872 226.721 232.324 226.641 232.676 226.481C233.036 226.313 233.32 226.081 233.528 225.785C233.744 225.489 233.9 225.145 233.996 224.753C234.092 224.361 234.148 223.945 234.164 223.505H234.092C233.972 223.689 233.824 223.857 233.648 224.009C233.472 224.161 233.256 224.281 233 224.369C232.752 224.457 232.452 224.501 232.1 224.501C231.612 224.501 231.18 224.397 230.804 224.189C230.436 223.981 230.152 223.685 229.952 223.301C229.752 222.909 229.652 222.433 229.652 221.873C229.652 221.265 229.764 220.745 229.988 220.313C230.22 219.873 230.544 219.537 230.96 219.305C231.384 219.073 231.876 218.957 232.436 218.957C232.852 218.957 233.24 219.033 233.6 219.185C233.96 219.337 234.276 219.569 234.548 219.881C234.82 220.193 235.032 220.585 235.184 221.057C235.336 221.529 235.412 222.085 235.412 222.725ZM232.448 220.001C231.992 220.001 231.62 220.153 231.332 220.457C231.044 220.761 230.9 221.225 230.9 221.849C230.9 222.361 231.02 222.765 231.26 223.061C231.508 223.357 231.888 223.505 232.4 223.505C232.752 223.505 233.056 223.433 233.312 223.289C233.568 223.137 233.768 222.953 233.912 222.737C234.056 222.513 234.128 222.281 234.128 222.041C234.128 221.801 234.092 221.561 234.02 221.321C233.948 221.081 233.844 220.861 233.708 220.661C233.572 220.461 233.396 220.301 233.18 220.181C232.972 220.061 232.728 220.001 232.448 220.001ZM237.287 227.633L240.707 220.193H236.207V219.065H242.075V219.977L238.667 227.633H237.287ZM250.61 221.045C251.338 221.045 251.886 221.233 252.254 221.609C252.622 221.985 252.806 222.589 252.806 223.421V227.633H251.534V223.589C251.534 223.093 251.434 222.721 251.234 222.473C251.042 222.217 250.738 222.089 250.322 222.089C249.746 222.089 249.334 222.269 249.086 222.629C248.838 222.981 248.714 223.493 248.714 224.165V227.633H247.454V223.589C247.454 223.261 247.406 222.985 247.31 222.761C247.222 222.537 247.09 222.369 246.914 222.257C246.738 222.145 246.51 222.089 246.23 222.089C245.83 222.089 245.514 222.177 245.282 222.353C245.05 222.529 244.882 222.789 244.778 223.133C244.682 223.469 244.634 223.881 244.634 224.369V227.633H243.362V221.165H244.37L244.55 222.029H244.622C244.758 221.805 244.922 221.621 245.114 221.477C245.314 221.333 245.534 221.225 245.774 221.153C246.014 221.081 246.262 221.045 246.518 221.045C247.006 221.045 247.418 221.133 247.754 221.309C248.09 221.477 248.334 221.737 248.486 222.089H248.582C248.79 221.729 249.078 221.465 249.446 221.297C249.814 221.129 250.202 221.045 250.61 221.045ZM261.761 221.045C262.489 221.045 263.037 221.233 263.405 221.609C263.773 221.985 263.957 222.589 263.957 223.421V227.633H262.685V223.589C262.685 223.093 262.585 222.721 262.385 222.473C262.193 222.217 261.889 222.089 261.473 222.089C260.897 222.089 260.485 222.269 260.237 222.629C259.989 222.981 259.865 223.493 259.865 224.165V227.633H258.605V223.589C258.605 223.261 258.557 222.985 258.461 222.761C258.373 222.537 258.241 222.369 258.065 222.257C257.889 222.145 257.661 222.089 257.381 222.089C256.981 222.089 256.665 222.177 256.433 222.353C256.201 222.529 256.033 222.789 255.929 223.133C255.833 223.469 255.785 223.881 255.785 224.369V227.633H254.513V221.165H255.521L255.701 222.029H255.773C255.909 221.805 256.073 221.621 256.265 221.477C256.465 221.333 256.685 221.225 256.925 221.153C257.165 221.081 257.413 221.045 257.669 221.045C258.157 221.045 258.569 221.133 258.905 221.309C259.241 221.477 259.485 221.737 259.637 222.089H259.733C259.941 221.729 260.229 221.465 260.597 221.297C260.965 221.129 261.353 221.045 261.761 221.045Z" fill="#A6A5A3"/>
<path d="M100.46 209.045C100.46 209.429 100.384 209.765 100.232 210.053C100.088 210.333 99.8804 210.561 99.6084 210.737C99.3364 210.913 99.0244 211.041 98.6724 211.121V211.169C99.3604 211.249 99.8724 211.465 100.208 211.817C100.552 212.161 100.724 212.617 100.724 213.185C100.724 213.681 100.604 214.125 100.364 214.517C100.132 214.901 99.7684 215.205 99.2724 215.429C98.7844 215.645 98.1564 215.753 97.3884 215.753C96.9324 215.753 96.5084 215.717 96.1164 215.645C95.7244 215.573 95.3524 215.453 95.0004 215.285V214.133C95.3604 214.317 95.7444 214.457 96.1524 214.553C96.5684 214.649 96.9644 214.697 97.3404 214.697C98.0684 214.697 98.5924 214.561 98.9124 214.289C99.2324 214.009 99.3924 213.621 99.3924 213.125C99.3924 212.805 99.3084 212.545 99.1404 212.345C98.9724 212.137 98.7164 211.985 98.3724 211.889C98.0284 211.785 97.6004 211.733 97.0884 211.733H96.3084V210.689H97.1004C97.5884 210.689 97.9844 210.629 98.2884 210.509C98.5924 210.381 98.8164 210.205 98.9604 209.981C99.1044 209.757 99.1764 209.501 99.1764 209.213C99.1764 208.829 99.0484 208.533 98.7924 208.325C98.5444 208.109 98.1844 208.001 97.7124 208.001C97.4244 208.001 97.1564 208.033 96.9084 208.097C96.6684 208.161 96.4484 208.245 96.2484 208.349C96.0484 208.453 95.8524 208.569 95.6604 208.697L95.0364 207.821C95.2524 207.661 95.4924 207.513 95.7564 207.377C96.0284 207.241 96.3284 207.137 96.6564 207.065C96.9924 206.985 97.3564 206.945 97.7484 206.945C98.6364 206.945 99.3084 207.141 99.7644 207.533C100.228 207.917 100.46 208.421 100.46 209.045ZM105.576 215.633H104.316V209.945C104.316 209.745 104.316 209.561 104.316 209.393C104.324 209.217 104.332 209.049 104.34 208.889C104.348 208.721 104.356 208.561 104.364 208.409C104.26 208.513 104.152 208.613 104.04 208.709C103.928 208.805 103.8 208.917 103.656 209.045L102.72 209.801L102.072 208.985L104.52 207.065H105.576V215.633ZM114.063 211.337C114.063 212.033 114.007 212.653 113.895 213.197C113.791 213.741 113.623 214.205 113.391 214.589C113.167 214.965 112.867 215.253 112.491 215.453C112.123 215.653 111.679 215.753 111.159 215.753C110.503 215.753 109.963 215.577 109.539 215.225C109.115 214.873 108.799 214.369 108.591 213.713C108.383 213.049 108.279 212.257 108.279 211.337C108.279 210.409 108.371 209.617 108.555 208.961C108.747 208.305 109.055 207.805 109.479 207.461C109.903 207.109 110.463 206.933 111.159 206.933C111.815 206.933 112.355 207.109 112.779 207.461C113.211 207.805 113.531 208.305 113.739 208.961C113.955 209.617 114.063 210.409 114.063 211.337ZM109.551 211.337C109.551 212.081 109.603 212.701 109.707 213.197C109.811 213.693 109.979 214.065 110.211 214.313C110.451 214.561 110.767 214.685 111.159 214.685C111.551 214.685 111.863 214.565 112.095 214.325C112.335 214.077 112.507 213.705 112.611 213.209C112.723 212.705 112.779 212.081 112.779 211.337C112.779 210.593 112.723 209.977 112.611 209.489C112.507 208.993 112.335 208.621 112.095 208.373C111.863 208.125 111.551 208.001 111.159 208.001C110.767 208.001 110.451 208.125 110.211 208.373C109.979 208.621 109.811 208.993 109.707 209.489C109.603 209.977 109.551 210.593 109.551 211.337ZM122.61 209.045C123.338 209.045 123.886 209.233 124.254 209.609C124.622 209.985 124.806 210.589 124.806 211.421V215.633H123.534V211.589C123.534 211.093 123.434 210.721 123.234 210.473C123.042 210.217 122.738 210.089 122.322 210.089C121.746 210.089 121.334 210.269 121.086 210.629C120.838 210.981 120.714 211.493 120.714 212.165V215.633H119.454V211.589C119.454 211.261 119.406 210.985 119.31 210.761C119.222 210.537 119.09 210.369 118.914 210.257C118.738 210.145 118.51 210.089 118.23 210.089C117.83 210.089 117.514 210.177 117.282 210.353C117.05 210.529 116.882 210.789 116.778 211.133C116.682 211.469 116.634 211.881 116.634 212.369V215.633H115.362V209.165H116.37L116.55 210.029H116.622C116.758 209.805 116.922 209.621 117.114 209.477C117.314 209.333 117.534 209.225 117.774 209.153C118.014 209.081 118.262 209.045 118.518 209.045C119.006 209.045 119.418 209.133 119.754 209.309C120.09 209.477 120.334 209.737 120.486 210.089H120.582C120.79 209.729 121.078 209.465 121.446 209.297C121.814 209.129 122.202 209.045 122.61 209.045ZM133.761 209.045C134.489 209.045 135.037 209.233 135.405 209.609C135.773 209.985 135.957 210.589 135.957 211.421V215.633H134.685V211.589C134.685 211.093 134.585 210.721 134.385 210.473C134.193 210.217 133.889 210.089 133.473 210.089C132.897 210.089 132.485 210.269 132.237 210.629C131.989 210.981 131.865 211.493 131.865 212.165V215.633H130.605V211.589C130.605 211.261 130.557 210.985 130.461 210.761C130.373 210.537 130.241 210.369 130.065 210.257C129.889 210.145 129.661 210.089 129.381 210.089C128.981 210.089 128.665 210.177 128.433 210.353C128.201 210.529 128.033 210.789 127.929 211.133C127.833 211.469 127.785 211.881 127.785 212.369V215.633H126.513V209.165H127.521L127.701 210.029H127.773C127.909 209.805 128.073 209.621 128.265 209.477C128.465 209.333 128.685 209.225 128.925 209.153C129.165 209.081 129.413 209.045 129.669 209.045C130.157 209.045 130.569 209.133 130.905 209.309C131.241 209.477 131.485 209.737 131.637 210.089H131.733C131.941 209.729 132.229 209.465 132.597 209.297C132.965 209.129 133.353 209.045 133.761 209.045Z" fill="#A6A5A3"/>
<defs>
<clipPath id="clip0_1284_127185">
<rect width="156" height="207" fill="white" transform="translate(98 13.2109)"/>
</clipPath>
</defs>
</svg>
