<svg width="63" height="63" viewBox="0 0 63 63" fill="none" xmlns="http://www.w3.org/2000/svg">
<path d="M47.25 47.25C55.9485 38.5515 55.9485 24.4485 47.25 15.75C38.5515 7.05154 24.4485 7.05151 15.75 15.75C7.05152 24.4485 7.05154 38.5515 15.75 47.25C24.4485 55.9485 38.5515 55.9485 47.25 47.25Z" fill="white"/>
<path d="M25.3 19.5078C25.3 22.5328 22 22.5328 22 25.5578C22 28.5828 25.3 28.5828 25.3 31.6078C25.3 34.6328 22 34.6328 22 37.6578C22 40.6828 25.3 40.6828 25.3 43.7078" stroke="#FF5C5C" stroke-width="1.5" stroke-linecap="round" stroke-linejoin="round"/>
<path d="M33.508 19.5078C33.508 22.5328 30.208 22.5328 30.208 25.5578C30.208 28.5828 33.508 28.5828 33.508 31.6078C33.508 34.6328 30.208 34.6328 30.208 37.6578C30.208 40.6828 33.508 40.6828 33.508 43.7078" stroke="#FF5C5C" stroke-width="1.5" stroke-linecap="round" stroke-linejoin="round"/>
<path d="M41.2082 19.5078C41.2082 22.5328 37.9082 22.5328 37.9082 25.5578C37.9082 28.5828 41.2082 28.5828 41.2082 31.6078C41.2082 34.6328 37.9082 34.6328 37.9082 37.6578C37.9082 40.6828 41.2082 40.6828 41.2082 43.7078" stroke="#FF5C5C" stroke-width="1.5" stroke-linecap="round" stroke-linejoin="round"/>
</svg>
