<svg width="431" height="195" viewBox="0 0 431 195" fill="none" xmlns="http://www.w3.org/2000/svg">
<path d="M113.5 131.504C113.5 130.399 114.395 129.504 115.5 129.504H133.224C134.329 129.504 135.224 130.399 135.224 131.504V170.952C135.224 172.056 134.329 172.952 133.224 172.952H115.5C114.395 172.952 113.5 172.056 113.5 170.952V131.504Z" fill="#5CAFEB"/>
<path d="M304.5 131.504C304.5 130.399 305.395 129.504 306.5 129.504H328.569C329.673 129.504 330.569 130.399 330.569 131.504V170.952C330.569 172.056 329.673 172.952 328.569 172.952H306.5C305.395 172.952 304.5 172.056 304.5 170.952V131.504Z" fill="#5CAFEB"/>
<path d="M199.5 131.504C199.5 130.399 200.395 129.504 201.5 129.504H233.345C234.449 129.504 235.345 130.399 235.345 131.504V170.952C235.345 172.056 234.449 172.952 233.345 172.952H201.5C200.395 172.952 199.5 172.056 199.5 170.952V131.504Z" fill="#5CAFEB"/>
</svg>
