<svg width="48" height="80" viewBox="0 0 48 80" fill="none" xmlns="http://www.w3.org/2000/svg">
<g clip-path="url(#clip0_1284_128821)">
<path d="M36.1052 14.3883C30.611 6.36004 25.2018 0.703467 24.9747 0.466689C24.6828 0.162261 24.2789 -0.00976562 23.8565 -0.00976562C23.4342 -0.00976562 23.0312 0.162261 22.7383 0.466689C22.5112 0.703467 17.1011 6.36004 11.6079 14.3883C4.14887 25.2868 0.367188 34.8536 0.367188 42.8229C0.367188 47.3284 1.60133 51.5672 4.03483 55.4224C5.95708 58.4666 8.62445 61.2683 11.9625 63.7492C16.1946 66.894 20.3889 68.7032 22.3063 69.4386V78.4401C22.3063 79.2963 23.0003 79.9902 23.8565 79.9902C24.7128 79.9902 25.4067 79.2963 25.4067 78.4401V69.4386C27.3241 68.7032 31.5185 66.894 35.7505 63.7492C39.0886 61.2683 41.756 58.4666 43.6782 55.4224C46.1117 51.5672 47.3459 47.3284 47.3459 42.8229C47.3459 34.8536 43.5642 25.2868 36.1052 14.3873V14.3883ZM41.0814 53.7272C39.3756 56.4419 36.9827 58.9595 33.9693 61.2094C30.7231 63.6332 27.4391 65.2269 25.4067 66.0899V57.9225L37.8332 45.496C38.4391 44.891 38.4391 43.9091 37.8332 43.3042C37.2282 42.6982 36.2463 42.6982 35.6413 43.3042L25.4067 53.5388V45.1037L33.7674 36.743C34.3733 36.137 34.3733 35.1561 33.7674 34.5501C33.1624 33.9442 32.1805 33.9451 31.5755 34.5501L25.4067 40.7189V29.0221C25.4067 28.1658 24.7128 27.4719 23.8565 27.4719C23.0003 27.4719 22.3063 28.1658 22.3063 29.0221V45.9077L16.1376 39.739C15.5326 39.133 14.5507 39.133 13.9447 39.739C13.3397 40.3439 13.3397 41.3259 13.9447 41.9308L22.3054 50.2915V58.7266L12.0708 48.492C11.4658 47.886 10.4839 47.886 9.87793 48.492C9.27293 49.097 9.27293 50.0789 9.87793 50.6839L22.3044 63.1104V66.089C20.272 65.2259 16.988 63.6332 13.7418 61.2094C10.7284 58.9595 8.33549 56.4419 6.62972 53.7272C4.53061 50.3862 3.46656 46.7176 3.46656 42.8229C3.46656 33.7016 9.27004 23.2988 14.138 16.1781C18.0395 10.4713 21.9845 5.90485 23.8546 3.82797C25.7256 5.90485 29.6697 10.4713 33.5712 16.1781C38.4391 23.2988 44.2426 33.7016 44.2426 42.8229C44.2426 46.7176 43.1786 50.3872 41.0795 53.7272H41.0814Z" fill="white"/>
</g>
<defs>
<clipPath id="clip0_1284_128821">
<rect width="46.9787" height="80" fill="white" transform="translate(0.367188 -0.00976562)"/>
</clipPath>
</defs>
</svg>
