<?xml version="1.0" encoding="UTF-8"?>
<svg id="_레이어_1" data-name="레이어_1" xmlns="http://www.w3.org/2000/svg" version="1.1" xmlns:xlink="http://www.w3.org/1999/xlink" viewBox="0 0 750 50">
  <!-- Generator: Adobe Illustrator 29.5.1, SVG Export Plug-In . SVG Version: 2.1.0 Build 141)  -->
  <defs>
    <style>
      .st0 {
        stroke-width: .2px;
      }

      .st0, .st1, .st2, .st3, .st4, .st5, .st6, .st7 {
        fill: none;
      }

      .st0, .st5, .st7 {
        stroke: #202020;
      }

      .st8 {
        mask: url(#mask-1);
      }

      .st1, .st2, .st3, .st4, .st6 {
        stroke: #222;
      }

      .st1, .st2, .st3, .st6 {
        stroke-width: 1.2px;
      }

      .st1, .st2, .st4, .st5, .st7 {
        stroke-linecap: round;
      }

      .st1, .st3 {
        stroke-miterlimit: 10;
      }

      .st9 {
        fill: #fff;
      }

      .st10 {
        mask: url(#mask);
      }

      .st2, .st4, .st6, .st7 {
        stroke-linejoin: round;
      }

      .st4 {
        stroke-width: 2px;
      }

      .st5 {
        stroke-width: 1.5px;
      }

      .st11 {
        fill: #202020;
      }

      .st12 {
        fill: #222;
      }
    </style>
    <mask id="mask" x="275.2" y="5.4" width="23" height="22" maskUnits="userSpaceOnUse">
      <g id="path-38-outside-1_1480_4034">
        <rect class="st9" x="275.2" y="5.4" width="23" height="22"/>
        <path d="M297.5,16.6c0-.2-.2-.4-.4-.4h-2.4l2.3-1.8c.2-.1.2-.4,0-.5-.1-.2-.4-.2-.5,0l-3,2.4h-3.8c0-.5-.3-1-.6-1.4l2.7-2.6,3.9-.4c.2,0,.4-.2.3-.4,0-.2-.2-.4-.4-.3l-2.9.3,1.7-1.6c.1-.1.1-.4,0-.5-.1-.1-.4-.1-.5,0l-1.7,1.6.3-2.8c0-.2-.1-.4-.3-.4-.2,0-.4.1-.4.3l-.4,3.7-2.7,2.6c-.4-.3-.9-.5-1.4-.6v-3.6l2.5-2.9c.1-.2.1-.4,0-.5-.2-.1-.4-.1-.5,0l-1.9,2.2v-2.3c0-.2-.2-.4-.4-.4s-.4.2-.4.4v2.3l-1.9-2.2c-.1-.2-.4-.2-.5,0-.2.1-.2.4,0,.5l2.5,2.9v3.6c-.5,0-1,.3-1.4.6l-2.7-2.6-.4-3.7c0-.2-.2-.4-.4-.3-.2,0-.4.2-.3.4l.3,2.8-1.7-1.6c-.2-.1-.4-.1-.5,0-.1.1-.1.4,0,.5l1.7,1.6-2.9-.3c-.2,0-.4.1-.4.3,0,.2.1.4.3.4l3.8.4,2.7,2.6c-.3.4-.5.9-.6,1.4h-3.7l-3-2.4c-.2-.1-.4-.1-.5,0-.1.2-.1.4,0,.5l2.3,1.8h-2.4c-.2,0-.4.2-.4.4s.2.4.4.4h2.4l-2.3,1.8c-.2.1-.2.4,0,.5,0,0,.2.1.3.1s.2,0,.2,0l3-2.4h3.8c0,.5.3,1,.6,1.4l-2.7,2.6-3.8.4c-.2,0-.4.2-.3.4,0,.2.2.3.4.3s0,0,0,0l2.9-.3-1.7,1.6c-.1.1-.1.4,0,.5,0,0,.2.1.3.1s.2,0,.3-.1l1.7-1.6-.3,2.8c0,.2.1.4.3.4,0,0,0,0,0,0,.2,0,.4-.1.4-.3l.4-3.7,2.7-2.6c.4.3.9.5,1.4.6v3.7l-2.5,2.9c-.1.2-.1.4,0,.5,0,0,.2,0,.2,0s.2,0,.3-.1l1.9-2.2v2.3c0,.2.2.4.4.4s.4-.2.4-.4v-2.3l1.9,2.2c0,0,.2.1.3.1s.2,0,.2,0c.2-.1.2-.4,0-.5l-2.5-2.9v-3.6c.5,0,1-.3,1.4-.6l2.7,2.6.4,3.7c0,.2.2.3.4.3s0,0,0,0c.2,0,.4-.2.3-.4l-.3-2.8,1.7,1.6c0,0,.2.1.3.1s.2,0,.3-.1c.1-.1.1-.4,0-.5l-1.7-1.6,2.9.3s0,0,0,0c.2,0,.4-.1.4-.3,0-.2-.1-.4-.3-.4l-3.8-.4-2.7-2.6c.3-.4.5-.9.6-1.4h3.8l3,2.4c0,0,.2,0,.2,0s.2,0,.3-.1c.1-.2.1-.4,0-.5l-2.3-1.8h2.4c.2,0,.4-.2.4-.4h0ZM286.9,18.8c-1.2,0-2.2-.9-2.2-2.1s1-2.1,2.2-2.1,2.2.9,2.2,2.1-1,2.1-2.2,2.1Z"/>
      </g>
    </mask>
    <mask id="mask-1" x="305.8" y="4.9" width="36.6" height="40.7" maskUnits="userSpaceOnUse">
      <g id="mask0_1480_4034">
        <path d="M337.6,32.4c0-7.3-13.2-27.5-13.2-27.5,0,0-13.2,20.2-13.2,27.5s5.9,13.2,13.2,13.2,13.2-5.9,13.2-13.2Z"/>
      </g>
    </mask>
  </defs>
  <path class="st2" d="M70.1,11.1c-6.8,2.1-11.7,8.4-11.7,15.9s7.5,16.7,16.7,16.7,16.7-7.5,16.7-16.7-4.9-13.8-11.7-15.9"/>
  <path class="st2" d="M75,7.6v7.7"/>
  <path class="st12" d="M70.7,28.2h1.7v-7.4l-3.2.3v1.3h1.5v5.9Z"/>
  <path class="st12" d="M77.6,23.4c-.3,0-.5,0-.7.1-.2,0-.4.1-.5.2l.2-1.5h2.9v-1.3h-4.3l-.4,4.1h1.5c0,0,.1-.2.3-.3.1,0,.3-.1.5-.1s.5.1.7.3c.1.2.2.5.2,1s0,.7-.2.9c-.1.2-.3.3-.7.3s-.5,0-.6-.2c-.2-.1-.2-.3-.2-.6h-1.7c0,.7.2,1.2.7,1.6.5.4,1.1.5,1.8.5s1.5-.2,1.9-.7c.4-.5.6-1.1.6-1.8s-.2-1.4-.5-1.8c-.4-.4-.9-.6-1.6-.6h0Z"/>
  <path class="st12" d="M69.7,31.7c-.2,0-.4,0-.6.1-.2,0-.3.2-.4.4v-2.2h-1v5.5h1v-2.8c0,0,.2-.2.3-.2.1,0,.3,0,.4,0s.3,0,.4.2c0,.1.1.3.1.6v2.3h1v-2.3c0-.5-.1-1-.3-1.2s-.5-.4-.9-.4h0Z"/>
  <path class="st12" d="M73.5,31.7c-.6,0-1,.2-1.3.5-.3.4-.5.8-.5,1.4h0c0,.6.2,1.1.5,1.5.3.4.8.5,1.3.5s1-.2,1.3-.5c.3-.4.5-.8.5-1.4h0c0-.6-.2-1.1-.5-1.5-.3-.4-.8-.5-1.3-.5h0ZM74.3,33.7c0,.3,0,.6-.2.8-.1.2-.3.3-.6.3s-.5-.1-.6-.3c-.1-.2-.2-.5-.2-.8h0c0-.4,0-.7.2-.9.1-.2.3-.3.6-.3s.5.1.6.3c.1.2.2.5.2.8h0c0,0,0,0,0,0Z"/>
  <path class="st12" d="M78.3,34.5c0,.1-.2.2-.3.2-.1,0-.3,0-.4,0s-.3,0-.4-.2c0-.1-.1-.3-.1-.7v-2.2h-1v2.2c0,.6.1,1,.3,1.3.2.3.5.4.9.4s.4,0,.6-.2c.2-.1.3-.3.4-.5v.6h1v-3.8h-1v2.8h0Z"/>
  <path class="st12" d="M82.3,31.7s0,0-.1,0c-.2,0-.3,0-.5.2s-.3.3-.3.5v-.6h-1v3.8h1v-2.6c0-.1.1-.2.2-.3,0,0,.2,0,.4,0h.4s.1-.9.1-.9c0,0,0,0-.1,0h0Z"/>
  <path class="st6" d="M134.6,8.3h-18.9c-1.8,0-3.2,1.4-3.2,3.2v26.9c0,1.8,1.4,3.2,3.2,3.2h18.9c1.8,0,3.2-1.4,3.2-3.2V11.6c0-1.8-1.4-3.2-3.2-3.2Z"/>
  <path class="st6" d="M130.6,8.3v2.8c0,.6-.5,1.1-1.1,1.1h-8.6c-.6,0-1.1-.5-1.1-1.1v-2.8"/>
  <path class="st6" d="M119.9,29.6h10.5"/>
  <path class="st6" d="M121,23.3l2.7,2.7,5.5-5.2"/>
  <path class="st2" d="M170,20.9v-9c0-2.7,2.2-4.9,4.9-4.9s4.9,2.2,4.9,4.9v3.5"/>
  <path class="st2" d="M170,36.5h9.8"/>
  <path class="st2" d="M170.7,29.4l3.2,3.3,5.1-5.1"/>
  <path class="st2" d="M183.3,20.9h-16.8c-1.8,0-3.3,1.5-3.3,3.3v15.6c0,1.8,1.5,3.3,3.3,3.3h16.8c1.8,0,3.3-1.5,3.3-3.3v-15.6c0-1.8-1.5-3.3-3.3-3.3Z"/>
  <path class="st2" d="M235.2,25.3c0-5.4-9.8-20.4-9.8-20.4,0,0-9.8,15-9.8,20.4s4.4,9.8,9.8,9.8,9.8-4.4,9.8-9.8Z"/>
  <path class="st2" d="M208,35.5c4.3,0,4.3,4.1,8.6,4.1s4.3-4.1,8.6-4.1,4.3,4.1,8.6,4.1,4.3-4.1,8.6-4.1"/>
  <path class="st2" d="M208,41.3c4.3,0,4.3,4.1,8.6,4.1s4.3-4.1,8.6-4.1,4.3,4.1,8.6,4.1,4.3-4.1,8.6-4.1"/>
  <path class="st2" d="M229.1,28.4c.9-.8,1.4-2,1.4-3.3s-.5-2.4-1.4-3.3"/>
  <path class="st7" d="M260.3,8c0,2.3-2.5,2.3-2.5,4.5s2.5,2.3,2.5,4.5-2.5,2.3-2.5,4.5,2.5,2.3,2.5,4.5"/>
  <path class="st7" d="M266.4,8c0,2.3-2.5,2.3-2.5,4.5s2.5,2.3,2.5,4.5-2.5,2.3-2.5,4.5,2.5,2.3,2.5,4.5"/>
  <path class="st7" d="M272.1,8c0,2.3-2.5,2.3-2.5,4.5s2.5,2.3,2.5,4.5-2.5,2.3-2.5,4.5,2.5,2.3,2.5,4.5"/>
  <path class="st11" d="M297.5,16.6c0-.2-.2-.4-.4-.4h-2.4l2.3-1.8c.2-.1.2-.4,0-.5-.1-.2-.4-.2-.5,0l-3,2.4h-3.8c0-.5-.3-1-.6-1.4l2.7-2.6,3.9-.4c.2,0,.4-.2.3-.4,0-.2-.2-.4-.4-.3l-2.9.3,1.7-1.6c.1-.1.1-.4,0-.5-.1-.1-.4-.1-.5,0l-1.7,1.6.3-2.8c0-.2-.1-.4-.3-.4-.2,0-.4.1-.4.3l-.4,3.7-2.7,2.6c-.4-.3-.9-.5-1.4-.6v-3.6l2.5-2.9c.1-.2.1-.4,0-.5-.2-.1-.4-.1-.5,0l-1.9,2.2v-2.3c0-.2-.2-.4-.4-.4s-.4.2-.4.4v2.3l-1.9-2.2c-.1-.2-.4-.2-.5,0-.2.1-.2.4,0,.5l2.5,2.9v3.6c-.5,0-1,.3-1.4.6l-2.7-2.6-.4-3.7c0-.2-.2-.4-.4-.3-.2,0-.4.2-.3.4l.3,2.8-1.7-1.6c-.2-.1-.4-.1-.5,0-.1.1-.1.4,0,.5l1.7,1.6-2.9-.3c-.2,0-.4.1-.4.3,0,.2.1.4.3.4l3.8.4,2.7,2.6c-.3.4-.5.9-.6,1.4h-3.7l-3-2.4c-.2-.1-.4-.1-.5,0-.1.2-.1.4,0,.5l2.3,1.8h-2.4c-.2,0-.4.2-.4.4s.2.4.4.4h2.4l-2.3,1.8c-.2.1-.2.4,0,.5,0,0,.2.1.3.1s.2,0,.2,0l3-2.4h3.8c0,.5.3,1,.6,1.4l-2.7,2.6-3.8.4c-.2,0-.4.2-.3.4,0,.2.2.3.4.3s0,0,0,0l2.9-.3-1.7,1.6c-.1.1-.1.4,0,.5,0,0,.2.1.3.1s.2,0,.3-.1l1.7-1.6-.3,2.8c0,.2.1.4.3.4,0,0,0,0,0,0,.2,0,.4-.1.4-.3l.4-3.7,2.7-2.6c.4.3.9.5,1.4.6v3.7l-2.5,2.9c-.1.2-.1.4,0,.5,0,0,.2,0,.2,0s.2,0,.3-.1l1.9-2.2v2.3c0,.2.2.4.4.4s.4-.2.4-.4v-2.3l1.9,2.2c0,0,.2.1.3.1s.2,0,.2,0c.2-.1.2-.4,0-.5l-2.5-2.9v-3.6c.5,0,1-.3,1.4-.6l2.7,2.6.4,3.7c0,.2.2.3.4.3s0,0,0,0c.2,0,.4-.2.3-.4l-.3-2.8,1.7,1.6c0,0,.2.1.3.1s.2,0,.3-.1c.1-.1.1-.4,0-.5l-1.7-1.6,2.9.3s0,0,0,0c.2,0,.4-.1.4-.3,0-.2-.1-.4-.3-.4l-3.8-.4-2.7-2.6c.3-.4.5-.9.6-1.4h3.8l3,2.4c0,0,.2,0,.2,0s.2,0,.3-.1c.1-.2.1-.4,0-.5l-2.3-1.8h2.4c.2,0,.4-.2.4-.4h0ZM286.9,18.8c-1.2,0-2.2-.9-2.2-2.1s1-2.1,2.2-2.1,2.2.9,2.2,2.1-1,2.1-2.2,2.1Z"/>
  <g class="st10">
    <path class="st0" d="M297.5,16.6c0-.2-.2-.4-.4-.4h-2.4l2.3-1.8c.2-.1.2-.4,0-.5-.1-.2-.4-.2-.5,0l-3,2.4h-3.8c0-.5-.3-1-.6-1.4l2.7-2.6,3.9-.4c.2,0,.4-.2.3-.4,0-.2-.2-.4-.4-.3l-2.9.3,1.7-1.6c.1-.1.1-.4,0-.5-.1-.1-.4-.1-.5,0l-1.7,1.6.3-2.8c0-.2-.1-.4-.3-.4-.2,0-.4.1-.4.3l-.4,3.7-2.7,2.6c-.4-.3-.9-.5-1.4-.6v-3.6l2.5-2.9c.1-.2.1-.4,0-.5-.2-.1-.4-.1-.5,0l-1.9,2.2v-2.3c0-.2-.2-.4-.4-.4s-.4.2-.4.4v2.3l-1.9-2.2c-.1-.2-.4-.2-.5,0-.2.1-.2.4,0,.5l2.5,2.9v3.6c-.5,0-1,.3-1.4.6l-2.7-2.6-.4-3.7c0-.2-.2-.4-.4-.3-.2,0-.4.2-.3.4l.3,2.8-1.7-1.6c-.2-.1-.4-.1-.5,0-.1.1-.1.4,0,.5l1.7,1.6-2.9-.3c-.2,0-.4.1-.4.3,0,.2.1.4.3.4l3.8.4,2.7,2.6c-.3.4-.5.9-.6,1.4h-3.7l-3-2.4c-.2-.1-.4-.1-.5,0-.1.2-.1.4,0,.5l2.3,1.8h-2.4c-.2,0-.4.2-.4.4s.2.4.4.4h2.4l-2.3,1.8c-.2.1-.2.4,0,.5,0,0,.2.1.3.1s.2,0,.2,0l3-2.4h3.8c0,.5.3,1,.6,1.4l-2.7,2.6-3.8.4c-.2,0-.4.2-.3.4,0,.2.2.3.4.3s0,0,0,0l2.9-.3-1.7,1.6c-.1.1-.1.4,0,.5,0,0,.2.1.3.1s.2,0,.3-.1l1.7-1.6-.3,2.8c0,.2.1.4.3.4,0,0,0,0,0,0,.2,0,.4-.1.4-.3l.4-3.7,2.7-2.6c.4.3.9.5,1.4.6v3.7l-2.5,2.9c-.1.2-.1.4,0,.5,0,0,.2,0,.2,0s.2,0,.3-.1l1.9-2.2v2.3c0,.2.2.4.4.4s.4-.2.4-.4v-2.3l1.9,2.2c0,0,.2.1.3.1s.2,0,.2,0c.2-.1.2-.4,0-.5l-2.5-2.9v-3.6c.5,0,1-.3,1.4-.6l2.7,2.6.4,3.7c0,.2.2.3.4.3s0,0,0,0c.2,0,.4-.2.3-.4l-.3-2.8,1.7,1.6c0,0,.2.1.3.1s.2,0,.3-.1c.1-.1.1-.4,0-.5l-1.7-1.6,2.9.3s0,0,0,0c.2,0,.4-.1.4-.3,0-.2-.1-.4-.3-.4l-3.8-.4-2.7-2.6c.3-.4.5-.9.6-1.4h3.8l3,2.4c0,0,.2,0,.2,0s.2,0,.3-.1c.1-.2.1-.4,0-.5l-2.3-1.8h2.4c.2,0,.4-.2.4-.4h0ZM286.9,18.8c-1.2,0-2.2-.9-2.2-2.1s1-2.1,2.2-2.1,2.2.9,2.2,2.1-1,2.1-2.2,2.1Z"/>
  </g>
  <path class="st7" d="M292.8,33.2h-30.6c-2.9,0-5.2,2.3-5.2,5.2s2.3,5.2,5.2,5.2h30.6c2.9,0,5.2-2.3,5.2-5.2s-2.3-5.2-5.2-5.2Z"/>
  <g class="st8">
    <path class="st2" d="M306.4,27.2c4.4,0,4.4,4.6,8.9,4.6s4.4-4.6,8.8-4.6,4.4,4.6,8.9,4.6,4.4-4.6,8.9-4.6"/>
  </g>
  <path class="st2" d="M337.6,32.4c0-7.3-13.2-27.5-13.2-27.5,0,0-13.2,20.2-13.2,27.5s5.9,13.2,13.2,13.2,13.2-5.9,13.2-13.2Z"/>
  <path class="st2" d="M338.4,11.4c1.6,0,2.9-1.3,2.9-2.9s-1.3-2.9-2.9-2.9-2.9,1.3-2.9,2.9,1.3,2.9,2.9,2.9Z"/>
  <path class="st2" d="M386.2,40.8h1.3c1.9,0,3.5-1.6,3.5-3.5V12c0-1.9-1.6-3.5-3.5-3.5h-25.3c-1.9,0-3.5,1.5-3.5,3.5s1.5,3.5,3.5,3.5h20.4c2,0,3.6,1.6,3.6,3.6v22.8c0,2-1.6,3.6-3.6,3.6h-20.3c-2,0-3.6-1.6-3.6-3.6V12"/>
  <path class="st12" d="M370.7,5.1h6.2c1.3,0,2.3,1.1,2.3,2.3v8h-10.9v-8c0-1.3,1.1-2.3,2.3-2.3Z"/>
  <path class="st2" d="M403.9,40.1l19-32c.9-1.5,3-1.5,3.9,0l19.4,32.3c.9,1.5-.2,3.4-2,3.4l-38.3-.2c-1.7,0-2.8-1.9-1.9-3.4h0Z"/>
  <path class="st4" d="M424.6,20.4v11.2"/>
  <path class="st12" d="M424.7,36.1c.2,0,.3-.2.3-.3s-.2-.3-.3-.3-.3.2-.3.3.2.3.3.3Z"/>
  <path class="st12" d="M424.5,37c.8,0,1.5-.7,1.5-1.5s-.7-1.5-1.5-1.5-1.5.7-1.5,1.5.7,1.5,1.5,1.5Z"/>
  <path class="st1" d="M475,29.9c2.7,0,4.9-2.2,4.9-4.9s-2.2-4.9-4.9-4.9-4.9,2.2-4.9,4.9,2.2,4.9,4.9,4.9Z"/>
  <path class="st1" d="M475,29.9v13.8"/>
  <path class="st1" d="M475,6.2v13.8"/>
  <path class="st1" d="M479.5,10.5l-4.5,4.5-4.5-4.5"/>
  <path class="st1" d="M477.8,7.6l-2.8,2.8-2.8-2.8"/>
  <path class="st1" d="M470.5,39.5l4.5-4.5,4.5,4.5"/>
  <path class="st1" d="M472.2,42.4l2.8-2.8,2.8,2.8"/>
  <path class="st1" d="M470.1,25h-13.8"/>
  <path class="st1" d="M493.7,25h-13.8"/>
  <path class="st1" d="M489.5,29.5l-4.5-4.5,4.5-4.5"/>
  <path class="st1" d="M492.4,27.8l-2.8-2.8,2.8-2.8"/>
  <path class="st1" d="M460.5,20.5l4.5,4.5-4.5,4.5"/>
  <path class="st1" d="M457.6,22.2l2.8,2.8-2.8,2.8"/>
  <path class="st1" d="M471.5,21.5l-7.9-7.9"/>
  <path class="st1" d="M486.4,36.4l-7.9-7.9"/>
  <path class="st1" d="M482.1,36.4v-4.3h4.3"/>
  <path class="st1" d="M467.9,13.6v4.3h-4.3"/>
  <path class="st1" d="M471.5,28.5l-7.9,7.9"/>
  <path class="st1" d="M486.4,13.6l-7.9,7.9"/>
  <path class="st1" d="M486.4,17.9h-4.3v-4.3"/>
  <path class="st1" d="M463.6,32.1h4.3v4.3"/>
  <path class="st2" d="M516.8,11.5h15.9c2,0,3.6,1.6,3.6,3.6v7c0,6.4-5.2,11.5-11.5,11.5s-11.5-5.2-11.5-11.5v-7c0-2,1.6-3.6,3.6-3.6Z"/>
  <path class="st2" d="M518.8,6.2v5.2"/>
  <path class="st2" d="M530.6,6.2v5.2"/>
  <path class="st2" d="M524.7,33.6v8.7"/>
  <path class="st2" d="M513.2,18.9h23.1"/>
  <path class="st3" d="M590.7,36h-31.2c-2.2,0-3.9,1.7-3.9,3.9s1.7,3.9,3.9,3.9h31.2c2.2,0,3.9-1.7,3.9-3.9s-1.7-3.9-3.9-3.9Z"/>
  <path class="st3" d="M560.6,36v-16c0-8,6.5-14.5,14.5-14.5s14.5,6.5,14.5,14.5v16"/>
  <path class="st3" d="M575.1,26.4c1.5,0,2.7-1.2,2.7-2.7s-1.2-2.7-2.7-2.7-2.7,1.2-2.7,2.7,1.2,2.7,2.7,2.7Z"/>
  <path class="st3" d="M575.1,26.4v9.6"/>
  <path class="st2" d="M623.4,31.1V8.3c0-1.9-1.5-3.4-3.4-3.4s-3.4,1.5-3.4,3.4v22.8c-2.4,1.2-4,3.7-4,6.6,0,4.1,3.3,7.4,7.4,7.4s7.4-3.3,7.4-7.4-1.6-5.4-4-6.6Z"/>
  <path class="st12" d="M620.6,35.1V15.3c0-.4-.3-.7-.7-.7s-.7.3-.7.7v19.8c-1.1.3-2,1.3-2,2.6s1.2,2.7,2.7,2.7,2.7-1.2,2.7-2.7-.8-2.3-2-2.6h0Z"/>
  <path class="st2" d="M630.2,7.8h7.3"/>
  <path class="st2" d="M630.2,11.8h3.1"/>
  <path class="st2" d="M630.2,15.8h3.1"/>
  <path class="st2" d="M630.2,19.9h7.3"/>
  <path class="st2" d="M630.2,23.9h3.1"/>
  <path class="st2" d="M630.2,28h3.1"/>
  <path class="st2" d="M674.9,6.9c-1.1,8.7-10.1,16.4-10,22.3.2,12.8,20,12.8,20,0,0-5.9-8.9-13.7-10-22.3h0Z"/>
  <path class="st2" d="M674.9,21.6c-.5,3.7-4.3,7-4.3,9.5,0,5.4,8.5,5.4,8.5,0,0-2.5-3.8-5.8-4.3-9.5Z"/>
  <path class="st2" d="M663.2,43.1h23.4"/>
  <path class="st2" d="M733,9.4l-28.3,6.9c-1.4.4-2.3,1.8-2,3.3l5.2,21.4c.4,1.4,1.8,2.3,3.3,2l28.3-6.9c1.4-.4,2.3-1.8,2-3.3l-5.2-21.4c-.4-1.4-1.8-2.3-3.3-2Z"/>
  <path class="st12" d="M721.4,18.8c-.1-.6-.7-1-1.3-.8-.6.1-1,.7-.8,1.3l2.4,9.8c.1.6.7,1,1.3.8.6-.1,1-.7.8-1.3l-2.4-9.8Z"/>
  <path class="st12" d="M723.8,34.3c.6,0,1.1-.5,1.1-1.1s-.5-1.1-1.1-1.1-1.1.5-1.1,1.1.5,1.1,1.1,1.1Z"/>
  <path class="st12" d="M725.7,6.7l1.2-.3c.3,0,.6.1.6.4l.9,3.7-2.2.6-.9-3.7c0-.3.1-.6.4-.6h0Z"/>
  <path class="st2" d="M703.1,43.1h45.4"/>
  <g>
    <path d="M17.4,38.5c0,1.4-1.1,2.5-2.5,2.5s-2.5-1.1-2.5-2.5,1.1-2.5,2.5-2.5,2.5,1.1,2.5,2.5Z"/>
    <path d="M15.4,19.8h-1.1v17.2h1.1v-17.2Z"/>
    <path d="M12.2,33.9c-.3,0-.6-.3-.6-.6V15.4c0-1.8,1.4-3.2,3.2-3.2s3.2,1.4,3.2,3.2v17.9c0,.3-.3.6-.6.6s-.6-.3-.6-.6V15.4c0-1.1-.9-2.1-2.1-2.1s-2.1.9-2.1,2.1v18c0,.3-.3.6-.6.6Z"/>
    <path d="M16.9,32.6v1.2c1.8.8,3.1,2.6,3.1,4.7s-2.3,5.1-5.1,5.1-5.1-2.3-5.1-5.1,1.2-3.9,3-4.7v-1.2c-2.4.9-4.1,3.2-4.1,5.9s2.8,6.3,6.3,6.3,6.3-2.8,6.3-6.3-1.8-5.1-4.3-5.9"/>
    <path d="M26.3,13.5h-6.2v1.1h6.2v-1.1Z"/>
    <path d="M26.3,22.9h-6.2v1.1h6.2v-1.1Z"/>
    <path d="M23.2,16.6h-3.1v1.1h3.1v-1.1Z"/>
    <path d="M23.2,19.7h-3.1v1.1h3.1v-1.1Z"/>
    <path d="M23.2,26h-3.1v1.1h3.1v-1.1Z"/>
    <path d="M23.2,29.2h-3.1v1.1h3.1v-1.1Z"/>
    <path d="M33.9,20.6c.2,0,.3,0,.4.2.1.1.2.3.2.5v2.1c1.3-.7,3.6-2.4,5-5.2.8-1.5,1.2-3,1.1-4.6h0c0-4.2-3.2-7.4-7.2-7.4s-7.2,3.2-7.2,7.2,3.2,7.2,7.2,7.2.2,0,.2,0h.1s0,0,0,0M33.9,25c-.1,0-.2,0-.3-.1-.2-.1-.3-.3-.3-.5v-2.5c-4.6-.1-8.2-3.9-8.2-8.5s3.8-8.5,8.5-8.5,8.5,3.8,8.5,8.5h0c0,.1-.6.2-.6.2h.6c0,1.8-.4,3.5-1.3,5.2-2.1,4.3-6.3,6.1-6.5,6.2,0,0-.2,0-.2,0"/>
    <path class="st11" d="M35,18c0,.6-.4,1-1,1s-1-.4-1-1,.4-1,1-1,1,.4,1,1Z"/>
    <path class="st5" d="M34,9v6"/>
  </g>
</svg>