<svg width="25" height="25" viewBox="0 0 25 25" fill="none" xmlns="http://www.w3.org/2000/svg">
<path d="M15.6502 4.49938C14.0129 1.99056 12.4009 0.222885 12.3332 0.148892C12.2462 0.0537582 12.1259 0 12 0C11.8741 0 11.754 0.0537582 11.6668 0.148892C11.5991 0.222885 9.98683 1.99056 8.3498 4.49938C6.12697 7.90518 5 10.8948 5 13.3852C5 14.7932 5.36778 16.1178 6.09298 17.3225C6.66583 18.2739 7.46073 19.1494 8.4555 19.9247C9.71668 20.9074 10.9666 21.4728 11.538 21.7026V24.5156C11.538 24.7832 11.7448 25 12 25C12.2552 25 12.462 24.7832 12.462 24.5156V21.7026C13.0334 21.4728 14.2833 20.9074 15.5445 19.9247C16.5393 19.1494 17.3342 18.2739 17.907 17.3225C18.6322 16.1178 19 14.7932 19 13.3852C19 10.8948 17.873 7.90548 15.6502 4.49938ZM17.1331 16.7928C16.6248 17.6412 15.9117 18.4279 15.0137 19.131C14.0463 19.8884 13.0676 20.3865 12.462 20.6562V18.1038L16.1652 14.2206C16.3457 14.0315 16.3457 13.7247 16.1652 13.5356C15.9849 13.3462 15.6922 13.3462 15.512 13.5356L12.462 16.7339V14.0979L14.9535 11.4852C15.1341 11.2959 15.1341 10.9893 14.9535 10.8C14.7732 10.6106 14.4806 10.6109 14.3003 10.8L12.462 12.7277V9.07246C12.462 8.80488 12.2552 8.58803 12 8.58803C11.7448 8.58803 11.538 8.80488 11.538 9.07246V14.3492L9.69969 12.4215C9.5194 12.2321 9.22678 12.2321 9.0462 12.4215C8.86591 12.6105 8.86591 12.9174 9.0462 13.1064L11.5377 15.7192V18.3551L8.48776 15.1568C8.30747 14.9674 8.01485 14.9674 7.83427 15.1568C7.65398 15.3459 7.65398 15.6527 7.83427 15.8418L11.5375 19.725V20.6558C10.9318 20.3862 9.95314 19.8884 8.98572 19.131C8.08772 18.4279 7.37461 17.6412 6.86628 16.7928C6.24073 15.7487 5.92364 14.6023 5.92364 13.3852C5.92364 10.5348 7.65312 7.28394 9.10381 5.05871C10.2665 3.27533 11.4421 1.84832 11.9994 1.19929C12.557 1.84832 13.7324 3.27533 14.895 5.05871C16.3457 7.28394 18.0752 10.5348 18.0752 13.3852C18.0752 14.6023 17.7587 15.7491 17.1331 16.7928Z" fill="white"/>
</svg>
