<svg width="263" height="128" viewBox="0 0 263 128" fill="none" xmlns="http://www.w3.org/2000/svg">
<path d="M35.7412 90.6445H260.107" stroke="#A6A5A3" stroke-width="0.5" stroke-dasharray="1.26 1.26"/>
<path d="M35.7412 64.6289H260.107" stroke="#A6A5A3" stroke-width="0.5" stroke-dasharray="1.26 1.26"/>
<path d="M35.7412 38.6172H260.107" stroke="#A6A5A3" stroke-width="0.5" stroke-dasharray="1.26 1.26"/>
<path d="M35.7412 13.2539H260.107" stroke="#A6A5A3" stroke-dasharray="1.26 1.26"/>
<path d="M35.7412 2.2461C35.7412 1.14153 36.6366 0.246094 37.7412 0.246094H45.4472C46.5518 0.246094 47.4472 1.14152 47.4472 2.24609V24.2595C47.4472 25.364 46.5518 26.2595 45.4472 26.2595H37.7412C36.6366 26.2595 35.7412 25.3641 35.7412 24.2595V2.2461Z" fill="#C9C9C9" fill-opacity="0.4"/>
<path d="M89.7188 27.6094C89.7188 26.5048 90.6142 25.6094 91.7188 25.6094H102.026C103.131 25.6094 104.026 26.5048 104.026 27.6094V49.6228C104.026 50.7273 103.131 51.6228 102.026 51.6228H91.7187C90.6142 51.6228 89.7188 50.7273 89.7188 49.6228V27.6094Z" fill="#5EE9E4" fill-opacity="0.25" style="mix-blend-mode:luminosity"/>
<path d="M150.2 27.6094C150.2 26.5048 151.096 25.6094 152.2 25.6094H164.459C165.563 25.6094 166.459 26.5048 166.459 27.6094V49.6228C166.459 50.7273 165.563 51.6228 164.459 51.6228H152.2C151.096 51.6228 150.2 50.7273 150.2 49.6228V27.6094Z" fill="#5EE9E4" fill-opacity="0.25" style="mix-blend-mode:luminosity"/>
<path d="M217.185 27.6094C217.185 26.5048 218.08 25.6094 219.185 25.6094H235.995C237.1 25.6094 237.995 26.5048 237.995 27.6094V49.6228C237.995 50.7273 237.1 51.6228 235.995 51.6228H219.185C218.08 51.6228 217.185 50.7273 217.185 49.6228V27.6094Z" fill="#5EE9E4" fill-opacity="0.25" style="mix-blend-mode:luminosity"/>
<path d="M47.4473 53.623C47.4473 52.5185 48.3427 51.623 49.4473 51.623H68.209C69.3135 51.623 70.209 52.5185 70.209 53.623V75.6364C70.209 76.741 69.3135 77.6364 68.209 77.6364H49.4473C48.3427 77.6364 47.4473 76.741 47.4473 75.6364V53.623Z" fill="#71798C" style="mix-blend-mode:luminosity"/>
<path d="M104.026 53.623C104.026 52.5185 104.922 51.623 106.026 51.623H120.236C121.34 51.623 122.236 52.5185 122.236 53.623V75.6364C122.236 76.741 121.34 77.6364 120.236 77.6364H106.026C104.922 77.6364 104.026 76.741 104.026 75.6364V53.623Z" fill="#71798C" style="mix-blend-mode:luminosity"/>
<path d="M166.459 53.623C166.459 52.5185 167.354 51.623 168.459 51.623H182.668C183.773 51.623 184.668 52.5185 184.668 53.623V75.6364C184.668 76.741 183.773 77.6364 182.668 77.6364H168.459C167.354 77.6364 166.459 76.741 166.459 75.6364V53.623Z" fill="#71798C" style="mix-blend-mode:luminosity"/>
<path d="M200.275 53.623C200.275 52.5185 201.171 51.623 202.275 51.623H215.184C216.289 51.623 217.184 52.5185 217.184 53.623V75.6364C217.184 76.741 216.289 77.6364 215.184 77.6364H202.275C201.171 77.6364 200.275 76.741 200.275 75.6364V53.623Z" fill="#71798C" style="mix-blend-mode:luminosity"/>
<path d="M237.995 53.623C237.995 52.5185 238.891 51.623 239.995 51.623H258.106C259.211 51.623 260.106 52.5185 260.106 53.623V75.6364C260.106 76.741 259.211 77.6364 258.106 77.6364H239.995C238.891 77.6364 237.995 76.741 237.995 75.6364V53.623Z" fill="#71798C" style="mix-blend-mode:luminosity"/>
<path d="M83.2148 53.623C83.2148 52.5185 84.1103 51.623 85.2148 51.623H87.7182C88.8228 51.623 89.7182 52.5185 89.7182 53.623V75.6364C89.7182 76.741 88.8228 77.6364 87.7182 77.6364H85.2148C84.1103 77.6364 83.2148 76.741 83.2148 75.6364V53.623Z" fill="#71798C" style="mix-blend-mode:luminosity"/>
<path d="M143.696 53.623C143.696 52.5185 144.592 51.623 145.696 51.623H148.2C149.304 51.623 150.2 52.5185 150.2 53.623V75.6364C150.2 76.741 149.304 77.6364 148.2 77.6364H145.696C144.592 77.6364 143.696 76.741 143.696 75.6364V53.623Z" fill="#71798C" style="mix-blend-mode:luminosity"/>
<path d="M6.57146 88.9707C6.56609 91.5059 4.8366 93.144 1.98455 93.8154L1.49041 92.8701C3.81609 92.3706 5.09441 91.2588 5.2824 89.9375H2.00603V88.9707H6.57146ZM2.82244 97.8975V96.9307H4.13299V95.0078H2.89763V94.0732H9.52556V95.0078H8.29021V96.9307H9.62224V97.8975H2.82244ZM5.30388 96.9307H7.10857V95.0078H5.30388V96.9307ZM8.18279 93.6006V88.3477H9.38592V93.6006H8.18279ZM18.9204 93.3535V94.3096H10.0688V93.3535H18.9204ZM10.9819 90.6143C10.9819 89.3843 12.3623 88.6431 14.4839 88.6484C16.6001 88.6431 17.9805 89.3843 17.9858 90.6143C17.9805 91.8496 16.6001 92.6016 14.4839 92.6016C12.3623 92.6016 10.9819 91.8496 10.9819 90.6143ZM11.1646 97.8545V95.0293H12.3569V96.8877H17.9214V97.8545H11.1646ZM12.228 90.6143C12.2173 91.2749 13.0713 91.6294 14.4839 91.624C15.9019 91.6294 16.7505 91.2749 16.7505 90.6143C16.7505 89.9751 15.9019 89.6045 14.4839 89.6045C13.0713 89.6045 12.2173 89.9751 12.228 90.6143ZM22.2889 89.9912C22.2835 91.1782 23.057 92.3276 24.5985 92.8057L23.9969 93.7617C22.9066 93.4072 22.1278 92.6929 21.6981 91.8013C21.263 92.7949 20.4573 93.5898 19.3133 93.9766L18.6903 93.0205C20.2694 92.5156 21.075 91.2803 21.0858 90.002V89.9053H19.0233V88.9492H24.2977V89.9053H22.2889V89.9912ZM20.2049 97.9297V94.3955H26.4783V97.9297H20.2049ZM21.3865 96.9629H25.2967V95.3408H21.3865V96.9629ZM25.286 93.998V88.3369H26.4783V90.6143H27.8319V91.5918H26.4783V93.998H25.286Z" fill="#5CBBFF"/>
<path d="M4.21013 62.6348C5.68181 62.6401 6.77752 63.5479 6.78826 64.8262C6.77752 66.1099 5.68181 67.0122 4.21013 67.0176C2.72771 67.0122 1.63201 66.1099 1.63201 64.8262C1.63201 63.5479 2.72771 62.6401 4.21013 62.6348ZM2.79217 64.8262C2.79217 65.5781 3.39373 66.0508 4.21013 66.0508C5.02654 66.0508 5.62273 65.5781 5.6281 64.8262C5.62273 64.0903 5.02654 63.6177 4.21013 63.623C3.39373 63.6177 2.79217 64.0903 2.79217 64.8262ZM3.10369 68.5859V67.6514H9.549V70.1865H4.29607V70.9707H9.83904V71.916H3.12517V69.3057H8.35662V68.5859H3.10369ZM8.34588 67.2324V62.3232H9.549V67.2324H8.34588ZM17.8696 62.334V65.1377H19.2231V66.126H17.8696V69.4775H16.6772V62.334H17.8696ZM10.5435 67.8984V63.0215H11.7251V64.5039H13.9917V63.0215H15.1733V67.8984H10.5435ZM11.6499 71.8408V68.7578H12.8423V70.874H18.2563V71.8408H11.6499ZM11.7251 66.9531H13.9917V65.4277H11.7251V66.9531ZM22.4305 63.9775C22.4251 65.1646 23.1986 66.314 24.7401 66.792L24.1385 67.748C23.0482 67.3936 22.2694 66.6792 21.8397 65.7876C21.4046 66.7812 20.5989 67.5762 19.4549 67.9629L18.8319 67.0068C20.411 66.502 21.2166 65.2666 21.2274 63.9883V63.8916H19.1649V62.9355H24.4393V63.8916H22.4305V63.9775ZM20.3465 71.916V68.3818H26.6199V71.916H20.3465ZM21.5281 70.9492H25.4383V69.3271H21.5281V70.9492ZM25.4276 67.9844V62.3232H26.6199V64.6006H27.9735V65.5781H26.6199V67.9844H25.4276Z" fill="#A1B4E5"/>
<path d="M10.0109 10.9355V20.6465H8.8615V15.6836H7.94842V20.2061H6.83123V11.1289H7.94842V14.7168H8.8615V10.9355H10.0109ZM1.36345 17.7891C2.41082 16.355 2.76531 14.8618 2.84588 13.0625H1.66424V12.1064H3.86638C3.86638 14.3516 3.59783 16.4839 2.29803 18.3369L1.36345 17.7891ZM3.65154 18.4229C4.8117 16.7954 5.07488 14.98 5.12322 13.0625H4.16717V12.1064H6.16521C6.16521 14.4053 5.9826 16.9082 4.59685 18.9385L3.65154 18.4229ZM12.8638 11.6553C14.1743 11.6553 15.1465 12.751 15.3184 14.5234H17.1714V10.9463H18.353V20.668H17.1714V15.4902H15.3291C15.2002 17.3647 14.2119 18.5195 12.8638 18.5195C11.4028 18.5195 10.3662 17.1929 10.3716 15.082C10.3662 12.9873 11.4028 11.6553 12.8638 11.6553ZM11.521 15.082C11.5156 16.5752 12.0635 17.4399 12.8638 17.4453C13.6694 17.4399 14.2119 16.5752 14.2173 15.082C14.2119 13.5996 13.6694 12.7295 12.8638 12.7295C12.0635 12.7295 11.5156 13.5996 11.521 15.082ZM26.6199 10.957V13.0625H27.9842V14.0508H26.6199V16.4248H25.4276V10.957H26.6199ZM19.3797 15.834V11.4297H20.5828V14.8511C21.8236 14.835 23.1395 14.7222 24.5574 14.4482L24.6971 15.4258C23.0858 15.748 21.5926 15.834 20.1854 15.834H19.3797ZM20.3358 20.5283V16.8975H26.6199V20.5283H20.3358ZM21.5067 19.583H25.449V17.832H21.5067V19.583Z" fill="#CECECE"/>
<path d="M4.48406 45.0645V37.2871H7.40594C9.18914 37.2871 10.1398 38.2861 10.1452 39.7686C10.1398 40.8267 9.65642 41.6108 8.74334 41.9814L10.4245 45.0645H8.86687L7.34148 42.2178H5.88054V45.0645H4.48406ZM5.88054 41.0469H7.19109C8.24383 41.0522 8.71648 40.6011 8.71648 39.7686C8.71648 38.9414 8.24383 38.458 7.19109 38.458H5.88054V41.0469ZM10.5918 45.0645V37.2871H15.6514V38.458H11.9883V40.585H15.3828V41.7559H11.9883V43.8828H15.6729V45.0645H10.5918ZM16.2376 37.2871H17.9564L20.2659 42.9375H20.3626L22.6722 37.2871H24.3909V45.0645H23.0482V39.7148H22.973L20.8138 45.043H19.8148L17.6556 39.6934H17.5911V45.0645H16.2376V37.2871Z" fill="#5EE9E4"/>
<path d="M212.961 115.78V125.405H211.983V120.389H210.791V124.933H209.824V115.963H210.791V119.551H211.983V115.78H212.961ZM208.739 116.865V122.87H205.001V116.865H208.739ZM205.968 117.671V122.054H207.783V117.671H205.968ZM221.239 120.904V121.721H214.535V116.575H221.142V117.402H215.567V118.702H220.938V119.508H215.567V120.904H221.239ZM222.238 123.354V124.191H213.429V123.354H222.238ZM232.133 115.78V120.732H231.112V118.262H229.082V117.435H231.112V115.78H232.133ZM232.133 121.184V123.579H226.858V124.471H232.466V125.287H225.859V122.806H231.123V121.989H225.838V121.184H232.133ZM227.492 116.93C227.492 118.154 228.373 119.293 229.823 119.755L229.286 120.55C228.228 120.185 227.428 119.459 227.009 118.541C226.584 119.572 225.757 120.383 224.624 120.775L224.076 119.959C225.58 119.476 226.472 118.283 226.482 116.93V116.092H227.492V116.93ZM240.883 115.78V121.506H239.863V119.067H238.069V118.229H239.863V115.78H240.883ZM237.66 121.774C239.68 121.774 240.915 122.44 240.915 123.59C240.915 124.739 239.68 125.395 237.66 125.405C235.641 125.395 234.395 124.739 234.406 123.59C234.395 122.44 235.641 121.774 237.66 121.774ZM237.66 122.569C236.253 122.569 235.415 122.935 235.415 123.59C235.415 124.234 236.253 124.61 237.66 124.6C239.068 124.61 239.906 124.234 239.906 123.59C239.906 122.935 239.068 122.569 237.66 122.569ZM236.307 117.478C236.307 118.702 237.177 119.884 238.627 120.378L238.101 121.184C237.021 120.808 236.226 120.04 235.813 119.089C235.388 120.168 234.545 121.033 233.396 121.452L232.859 120.636C234.352 120.12 235.265 118.82 235.265 117.488V117.273H233.181V116.446H238.369V117.273H236.307V117.478ZM252.314 120.851V121.688H243.538V120.851H247.416V119.916C245.611 119.814 244.483 119.116 244.483 117.982C244.483 116.79 245.826 116.06 247.921 116.049C250.005 116.06 251.358 116.79 251.358 117.982C251.358 119.116 250.22 119.814 248.426 119.916V120.851H252.314ZM251.326 124.374V125.201H244.644V122.408H245.676V124.374H251.326ZM247.921 116.876C246.449 116.876 245.525 117.295 245.536 117.982C245.525 118.713 246.449 119.11 247.921 119.11C249.393 119.11 250.306 118.713 250.306 117.982C250.306 117.295 249.393 116.876 247.921 116.876ZM260.087 120.217V121.033H257.176V123.386H261.097V124.224H252.288V123.386H256.166V121.033H253.384V116.521H260.001V117.349H254.405V120.217H260.087Z" fill="#E6E6E6"/>
<path d="M185.465 118.881H199.122" stroke="#52A3FF" stroke-linecap="round" stroke-linejoin="round" stroke-dasharray="3 3"/>
</svg>
