<svg width="335" height="291" viewBox="0 0 335 291" fill="none" xmlns="http://www.w3.org/2000/svg">
<path opacity="0.5" d="M38.7842 75.1973V238.385H151.306L308.08 157.82V75.6881L38.7842 75.1973Z" fill="#0E5DB7" fill-opacity="0.5"/>
<mask id="mask0_369_116749" style="mask-type:luminance" maskUnits="userSpaceOnUse" x="38" y="75" width="271" height="164">
<path d="M38.7842 75.1973V238.826L151.306 238.385L308.08 157.82L307.916 75.1973H38.7842Z" fill="white"/>
</mask>
<g mask="url(#mask0_369_116749)">
<g opacity="0.7">
<path d="M430.918 69.3555L280.272 242.851H280.739L430.918 69.8872V69.3555Z" fill="white"/>
<path d="M430.919 79.7695L289.321 242.851H289.779L430.919 80.3013V79.7695Z" fill="white"/>
<path d="M430.918 90.1836L298.36 242.85H298.818L430.918 90.7154V90.1836Z" fill="white"/>
<path d="M430.919 100.6L307.409 242.852H307.867L430.919 101.131V100.6Z" fill="white"/>
<path d="M42.4246 68.9219L-108.598 242.851H-108.14L42.8827 68.9219H42.4246Z" fill="white"/>
<path d="M51.4636 68.9219L-99.5586 242.851H-99.1004L51.9218 68.9219H51.4636Z" fill="white"/>
<path d="M60.5125 68.9219L-90.5098 242.851H-90.0516L60.9706 68.9219H60.5125Z" fill="white"/>
<path d="M69.5535 68.9219L-81.4688 242.851H-81.0106L70.0116 68.9219H69.5535Z" fill="white"/>
<path d="M78.5926 68.9219L-72.4297 242.851H-71.9634L79.0589 68.9219H78.5926Z" fill="white"/>
<path d="M87.6414 68.9219L-63.3809 242.851H-62.9227L88.0995 68.9219H87.6414Z" fill="white"/>
<path d="M96.6804 68.9219L-54.3418 242.851H-53.8755L97.1468 68.9219H96.6804Z" fill="white"/>
<path d="M105.729 68.9219L-45.293 242.851H-44.8348L106.187 68.9219H105.729Z" fill="white"/>
<path d="M114.769 68.9219L-36.2529 242.851H-35.7866L115.227 68.9219H114.769Z" fill="white"/>
<path d="M123.818 68.9219L-27.2041 242.851H-26.746L124.276 68.9219H123.818Z" fill="white"/>
<path d="M132.859 68.9219L-18.1631 242.851H-17.7049L133.317 68.9219H132.859Z" fill="white"/>
<path d="M141.898 68.9219L-9.12402 242.851H-8.6577L142.365 68.9219H141.898Z" fill="white"/>
<path d="M150.947 68.9219L-0.0751953 242.851H0.382943L151.405 68.9219H150.947Z" fill="white"/>
<path d="M159.987 68.9219L8.96484 242.851H9.43116L160.453 68.9219H159.987Z" fill="white"/>
<path d="M169.035 68.9219L18.0127 242.851H18.4708L169.493 68.9219H169.035Z" fill="white"/>
<path d="M178.075 68.9219L27.0527 242.851H27.5191L178.533 68.9219H178.075Z" fill="white"/>
<path d="M187.122 68.9219L36.0996 242.851H36.5577L187.58 68.9219H187.122Z" fill="white"/>
<path d="M196.163 68.9219L45.1406 242.851H45.5988L196.621 68.9219H196.163Z" fill="white"/>
<path d="M205.204 68.9219L54.1816 242.851H54.648L205.67 68.9219H205.204Z" fill="white"/>
<path d="M214.251 68.9219L63.2285 242.851H63.6867L214.709 68.9219H214.251Z" fill="white"/>
<path d="M223.292 68.9219L72.2695 242.851H72.7359L223.758 68.9219H223.292Z" fill="white"/>
<path d="M232.341 68.9219L81.3184 242.851H81.7765L232.799 68.9219H232.341Z" fill="white"/>
<path d="M241.38 68.9219L90.3574 242.851H90.8237L241.838 68.9219H241.38Z" fill="white"/>
<path d="M250.428 68.9219L99.4053 242.851H99.8634L250.886 68.9219H250.428Z" fill="white"/>
<path d="M259.468 68.9219L108.445 242.851H108.903L259.926 68.9219H259.468Z" fill="white"/>
<path d="M268.508 68.9219L117.485 242.851H117.952L268.974 68.9219H268.508Z" fill="white"/>
<path d="M277.556 68.9219L126.534 242.851H126.992L278.015 68.9219H277.556Z" fill="white"/>
<path d="M286.595 68.9219L135.573 242.851H136.04L287.062 68.9219H286.595Z" fill="white"/>
<path d="M295.644 68.9219L144.622 242.851H145.08L296.102 68.9219H295.644Z" fill="white"/>
<path d="M304.683 68.9219L153.661 242.851H154.127L305.141 68.9219H304.683Z" fill="white"/>
<path d="M313.732 68.9219L162.71 242.851H163.168L314.19 68.9219H313.732Z" fill="white"/>
<path d="M322.773 68.9219L171.751 242.851H172.209L323.231 68.9219H322.773Z" fill="white"/>
<path d="M331.812 68.9219L180.79 242.851H181.256L332.279 68.9219H331.812Z" fill="white"/>
<path d="M340.862 68.9219L189.84 242.851H190.298L341.32 68.9219H340.862Z" fill="white"/>
<path d="M349.901 68.9219L198.879 242.851H199.345L350.367 68.9219H349.901Z" fill="white"/>
<path d="M358.95 68.9219L207.928 242.851H208.386L359.408 68.9219H358.95Z" fill="white"/>
<path d="M367.991 68.9219L216.969 242.851H217.435L368.449 68.9219H367.991Z" fill="white"/>
<path d="M377.038 68.9219L226.016 242.851H226.474L377.496 68.9219H377.038Z" fill="white"/>
<path d="M386.079 68.9219L235.057 242.851H235.515L386.537 68.9219H386.079Z" fill="white"/>
<path d="M395.118 68.9219L244.104 242.851H244.562L395.584 68.9219H395.118Z" fill="white"/>
<path d="M404.166 68.9219L253.144 242.851H253.602L404.624 68.9219H404.166Z" fill="white"/>
<path d="M413.207 68.9219L262.185 242.851H262.651L413.673 68.9219H413.207Z" fill="white"/>
<path d="M422.254 68.9219L271.231 242.851H271.69L422.712 68.9219H422.254Z" fill="white"/>
<path d="M430.919 74.4609L284.707 242.852H285.173L430.919 74.9927V74.4609Z" fill="white"/>
<path d="M430.918 84.875L293.755 242.851H294.213L430.918 85.4068V84.875Z" fill="white"/>
<path d="M430.917 95.2969L302.794 242.85H303.26L430.917 95.8205V95.2969Z" fill="white"/>
<path d="M46.8592 68.9219L-104.163 242.851H-103.705L47.3173 68.9219H46.8592Z" fill="white"/>
<path d="M55.8992 68.9219L-95.123 242.851H-94.6567L56.3655 68.9219H55.8992Z" fill="white"/>
<path d="M64.947 68.9219L-86.0752 242.851H-85.6171L65.4052 68.9219H64.947Z" fill="white"/>
<path d="M73.9871 68.9219L-77.0352 242.851H-76.577L74.4452 68.9219H73.9871Z" fill="white"/>
<path d="M83.0359 68.9219L-67.9863 242.851H-67.5282L83.494 68.9219H83.0359Z" fill="white"/>
<path d="M92.075 68.9219L-58.9473 242.851H-58.4891L92.5331 68.9219H92.075Z" fill="white"/>
<path d="M101.116 68.9219L-49.9062 242.851H-49.4399L101.582 68.9219H101.116Z" fill="white"/>
<path d="M110.163 68.9219L-40.8594 242.851H-40.4012L110.621 68.9219H110.163Z" fill="white"/>
<path d="M119.204 68.9219L-31.8184 242.851H-31.352L119.67 68.9219H119.204Z" fill="white"/>
<path d="M128.253 68.9219L-22.7695 242.851H-22.3114L128.711 68.9219H128.253Z" fill="white"/>
<path d="M137.292 68.9219L-13.7305 242.851H-13.2723L137.75 68.9219H137.292Z" fill="white"/>
<path d="M146.34 68.9219L-4.68262 242.851H-4.22448L146.798 68.9219H146.34Z" fill="white"/>
<path d="M155.38 68.9219L4.35742 242.851H4.81556L155.838 68.9219H155.38Z" fill="white"/>
<path d="M164.42 68.9219L13.3975 242.851H13.8638L164.886 68.9219H164.42Z" fill="white"/>
<path d="M173.469 68.9219L22.4463 242.851H22.9044L173.927 68.9219H173.469Z" fill="white"/>
<path d="M182.508 68.9219L31.4854 242.851H31.9517L182.974 68.9219H182.508Z" fill="white"/>
<path d="M191.558 68.9219L40.5361 242.851H40.9943L192.017 68.9219H191.558Z" fill="white"/>
<path d="M200.597 68.9219L49.5752 242.851H50.0333L201.056 68.9219H200.597Z" fill="white"/>
<path d="M209.645 68.9219L58.623 242.851H59.0812L210.103 68.9219H209.645Z" fill="white"/>
<path d="M218.686 68.9219L67.6641 242.851H68.1222L219.144 68.9219H218.686Z" fill="white"/>
<path d="M227.725 68.9219L76.7031 242.851H77.1694L228.192 68.9219H227.725Z" fill="white"/>
<path d="M236.774 68.9219L85.752 242.851H86.2101L237.232 68.9219H236.774Z" fill="white"/>
<path d="M245.813 68.9219L94.791 242.851H95.2573L246.28 68.9219H245.813Z" fill="white"/>
<path d="M254.862 68.9219L103.84 242.851H104.298L255.32 68.9219H254.862Z" fill="white"/>
<path d="M263.903 68.9219L112.881 242.851H113.339L264.361 68.9219H263.903Z" fill="white"/>
<path d="M272.95 68.9219L121.928 242.851H122.386L273.408 68.9219H272.95Z" fill="white"/>
<path d="M281.991 68.9219L130.969 242.851H131.427L282.449 68.9219H281.991Z" fill="white"/>
<path d="M291.03 68.9219L140.008 242.851H140.474L291.496 68.9219H291.03Z" fill="white"/>
<path d="M300.078 68.9219L149.056 242.851H149.514L300.536 68.9219H300.078Z" fill="white"/>
<path d="M309.119 68.9219L158.097 242.851H158.563L309.585 68.9219H309.119Z" fill="white"/>
<path d="M318.166 68.9219L167.144 242.851H167.602L318.624 68.9219H318.166Z" fill="white"/>
<path d="M327.207 68.9219L176.185 242.851H176.643L327.665 68.9219H327.207Z" fill="white"/>
<path d="M336.256 68.9219L185.233 242.851H185.692L336.714 68.9219H336.256Z" fill="white"/>
<path d="M345.295 68.9219L194.272 242.851H194.731L345.753 68.9219H345.295Z" fill="white"/>
<path d="M354.336 68.9219L203.313 242.851H203.78L354.802 68.9219H354.336Z" fill="white"/>
<path d="M363.383 68.9219L212.36 242.851H212.818L363.841 68.9219H363.383Z" fill="white"/>
<path d="M372.424 68.9219L221.401 242.851H221.868L372.89 68.9219H372.424Z" fill="white"/>
<path d="M381.471 68.9219L230.449 242.851H230.907L381.93 68.9219H381.471Z" fill="white"/>
<path d="M390.511 68.9219L239.488 242.851H239.946L390.969 68.9219H390.511Z" fill="white"/>
<path d="M399.561 68.9219L248.539 242.851H248.997L400.019 68.9219H399.561Z" fill="white"/>
<path d="M408.6 68.9219L257.578 242.851H258.036L409.059 68.9219H408.6Z" fill="white"/>
<path d="M417.641 68.9219L266.619 242.851H267.085L418.108 68.9219H417.641Z" fill="white"/>
<path d="M426.69 68.9219L275.668 242.851H276.126L427.148 68.9219H426.69Z" fill="white"/>
</g>
</g>
<path d="M307.916 75.1973H38.7842V238.606H150.897L307.973 157.82" stroke="#0E5DB7" stroke-width="1.14535" stroke-miterlimit="10"/>
</svg>
