<svg width="66" height="52" viewBox="0 0 66 52" fill="none" xmlns="http://www.w3.org/2000/svg">
<path d="M42.7194 0H22.9767C10.287 0 0 10.287 0 22.9767C0 35.6664 10.287 45.9535 22.9767 45.9535H42.7194C55.4091 45.9535 65.6961 35.6664 65.6961 22.9767C65.6961 10.287 55.4091 0 42.7194 0Z" fill="white"/>
<path d="M39.5109 43.0341L30.7997 51.6089L30.7285 39.3906L39.5109 43.0341Z" fill="white"/>
<path d="M17.4548 32.6641C15.281 32.6641 13.7224 31.4678 13.6814 29.7383H15.7595C15.7937 30.4766 16.5114 30.9619 17.4685 30.9688C18.4529 30.9619 19.157 30.415 19.1501 29.6152C19.157 28.8086 18.4392 28.2412 17.2771 28.2344H16.3611V26.7168H17.2771C18.2546 26.7168 18.9382 26.1836 18.9314 25.4043C18.9382 24.6455 18.3571 24.126 17.4821 24.1328C16.6071 24.126 15.8894 24.6182 15.8552 25.377H13.8864C13.9206 23.6748 15.4519 22.4922 17.4821 22.4922C19.5466 22.4922 20.9206 23.7158 20.9138 25.2812C20.9206 26.3887 20.1482 27.1748 19.0407 27.373V27.4551C20.4968 27.6328 21.2966 28.5146 21.2829 29.752C21.2966 31.4473 19.6902 32.6641 17.4548 32.6641ZM26.0615 22.4922C28.1123 22.499 30.0537 23.7227 30.0537 27.3184C30.0605 30.6816 28.4678 32.6641 25.9795 32.6641C23.9902 32.6641 22.623 31.4131 22.4248 29.7383H24.4482C24.6191 30.4697 25.1865 30.9004 25.9795 30.9004C27.3262 30.9004 28.0371 29.6904 28.0439 27.7148H27.9619C27.4971 28.5898 26.5195 29.1094 25.4189 29.1094C23.6416 29.1094 22.3291 27.7695 22.3154 25.9238C22.3154 23.9346 23.8262 22.4854 26.0615 22.4922ZM24.3252 25.8691C24.3252 26.8467 25.043 27.6055 26.0615 27.6055C27.0664 27.6055 27.8389 26.8057 27.8389 25.8555C27.8252 24.9121 27.0869 24.1123 26.0752 24.1055C25.0635 24.1123 24.3115 24.8848 24.3252 25.8691ZM32.8011 28.9922C31.7415 28.9922 31.1702 28.2207 31.1702 27.1074C31.1702 25.9893 31.7708 25.2129 32.8011 25.2129C33.8606 25.2129 34.427 25.9893 34.4319 27.1074C34.427 28.2305 33.846 28.9922 32.8011 28.9922ZM32.1663 27.1074C32.1712 27.7178 32.3909 28.1182 32.8011 28.123C33.221 28.1182 33.4309 27.7178 33.4358 27.1074C33.4309 26.4971 33.2405 26.082 32.8011 26.082C32.386 26.0869 32.1712 26.5068 32.1663 27.1074ZM32.1858 32.5273L37.0491 25.457H38.1429L33.2796 32.5273H32.1858ZM35.9456 30.877C35.9456 29.7588 36.5462 28.9873 37.5667 28.9824C38.636 28.9873 39.2024 29.7588 39.2073 30.877C39.2024 32 38.6214 32.7617 37.5667 32.7617C36.5169 32.7617 35.9456 31.9902 35.9456 30.877ZM36.9417 30.877C36.9466 31.4873 37.1663 31.8926 37.5667 31.8926C37.9964 31.8926 38.2063 31.4873 38.2112 30.877C38.2063 30.2666 38.011 29.8516 37.5667 29.8613C37.1565 29.8564 36.9466 30.2764 36.9417 30.877Z" fill="#202020"/>
<path d="M26.8182 6.84608V13.9741H25.6962V10.6521H24.7942V13.6881H23.6942V7.00008H24.7942V9.66208H25.6962V6.84608H26.8182ZM18.3262 11.5981C19.2942 10.7181 19.6572 9.87108 19.7562 8.56208H18.6122V7.59408H20.8562C20.8562 9.55208 20.5812 10.9381 19.2062 12.2581L18.3262 11.5981ZM20.0422 16.3501V13.2261H21.2522V15.3821H27.0822V16.3501H20.0422ZM20.6142 12.1481C21.6042 11.0811 21.9562 10.0251 22.0442 8.56208H21.1202V7.59408H23.1442C23.1332 9.65108 22.8912 11.2571 21.5602 12.7201L20.6142 12.1481ZM32.6541 9.15608C32.6541 10.9381 33.6001 12.7201 35.1621 13.4021L34.4581 14.3481C33.3471 13.8311 32.5221 12.8081 32.0711 11.5431C31.6311 12.9071 30.7951 14.0291 29.6181 14.5901L28.8921 13.5781C30.5091 12.8851 31.4551 11.0261 31.4661 9.15608V7.61608H32.6541V9.15608ZM35.8661 16.5481V6.82408H37.0761V16.5481H35.8661ZM45.395 6.82408V9.61808H46.759V10.6081H45.395V13.8201H44.185V6.82408H45.395ZM37.695 11.8841C39.928 11.2241 41.248 10.0141 41.446 8.54008H38.113V7.57208H42.755C42.755 10.1461 41.072 11.9831 38.201 12.8301L37.695 11.8841ZM39.147 16.3501V13.1161H40.357V15.3821H45.747V16.3501H39.147Z" fill="#202020"/>
</svg>
