<svg width="44" height="44" viewBox="0 0 44 44" fill="none" xmlns="http://www.w3.org/2000/svg">
<circle cx="22.25" cy="21.9961" r="21.75" fill="white"/>
<path d="M22.0283 7.92871C22.2961 7.84006 22.583 7.82904 22.8555 7.89551L22.9717 7.92871L32.9717 11.2393C33.5855 11.4426 34 12.0164 34 12.6631V25.8291C33.8913 26.6172 33.2543 28.0978 31.5801 29.833C30.0041 31.4664 27.5294 33.3031 23.7852 34.9648L23.0195 35.2949C22.7257 35.4177 22.3971 35.4362 22.0928 35.3496L21.9639 35.3057C17.6317 33.6001 14.8772 31.5972 13.2129 29.833C11.5299 28.049 11.0002 26.5545 11 25.8672V12.6611C11 12.0553 11.3639 11.5141 11.916 11.2812L12.0283 11.2393L22.0283 7.92871Z" stroke="#373737"/>
<path d="M22.0283 10.5459C22.2962 10.4572 22.5829 10.4462 22.8555 10.5127L22.9717 10.5459L30.7891 13.1338C31.4029 13.337 31.8182 13.911 31.8184 14.5576V25.0596C31.7318 25.6757 31.2288 26.8567 29.8887 28.2539C28.6261 29.5702 26.6401 31.0565 23.6309 32.4072L23.0156 32.6758C22.7234 32.7993 22.3986 32.8175 22.0967 32.7305L21.9688 32.6865C18.4863 31.2978 16.2758 29.6769 14.9434 28.2559C13.5924 26.8149 13.1818 25.6242 13.1816 25.0986V14.5576C13.1817 13.9514 13.5461 13.4096 14.0977 13.1768L14.21 13.1338L22.0283 10.5459Z" stroke="#373737"/>
<path d="M22.6182 28.2774V13.791" stroke="#373737" stroke-miterlimit="10" stroke-linecap="round"/>
<path d="M20.5138 27.4593C20.3184 27.6545 20.3183 27.9711 20.5135 28.1664C20.7087 28.3617 21.0253 28.3618 21.2206 28.1666L20.5138 27.4593ZM22.611 26.0703L22.2576 25.7166L20.5138 27.4593L20.8672 27.813L21.2206 28.1666L22.9645 26.424L22.611 26.0703Z" fill="#373737"/>
<path d="M21.2206 14.242C21.0253 14.0468 20.7087 14.0469 20.5135 14.2423C20.3183 14.4376 20.3184 14.7542 20.5138 14.9494L21.2206 14.242ZM22.611 16.3383L22.9645 15.9847L21.2206 14.242L20.8672 14.5957L20.5138 14.9494L22.2576 16.692L22.611 16.3383Z" fill="#373737"/>
<path d="M17.3502 25.5767C17.1557 25.7727 17.1569 26.0893 17.3529 26.2838C17.5489 26.4784 17.8654 26.4772 18.06 26.2812L17.3502 25.5767ZM17.7051 25.9289L18.06 26.2812L22.9208 21.3835L22.5659 21.0312L22.2111 20.679L17.3502 25.5767L17.7051 25.9289Z" fill="#373737"/>
<path d="M20.0254 24.0684C20.0254 23.7922 19.8015 23.5684 19.5254 23.5684C19.2492 23.5684 19.0254 23.7922 19.0254 24.0684H20.0254ZM19.5254 24.0684H19.0254V26.5558H19.5254H20.0254V24.0684H19.5254Z" fill="#373737"/>
<path d="M17.0537 23.5684C16.7776 23.5684 16.5537 23.7922 16.5537 24.0684C16.5537 24.3445 16.7776 24.5684 17.0537 24.5684V23.5684ZM19.5257 24.0684V23.5684H17.0537V24.0684V24.5684H19.5257V24.0684Z" fill="#373737"/>
<path d="M17.797 15.7591C17.5906 15.5756 17.2746 15.5942 17.0911 15.8006C16.9077 16.007 16.9263 16.3231 17.1327 16.5065L17.797 15.7591ZM17.4648 16.1328L17.1327 16.5065L22.3893 21.1791L22.7215 20.8054L23.0537 20.4317L17.797 15.7591L17.4648 16.1328Z" fill="#373737"/>
<path d="M20.0254 15.4473C20.0254 15.1711 19.8015 14.9473 19.5254 14.9473C19.2492 14.9473 19.0254 15.1711 19.0254 15.4473H20.0254ZM19.5254 17.93H20.0254V15.4473H19.5254H19.0254V17.93H19.5254Z" fill="#373737"/>
<path d="M17.0205 17.4297C16.7444 17.4297 16.5205 17.6535 16.5205 17.9297C16.5205 18.2058 16.7444 18.4297 17.0205 18.4297V17.4297ZM19.5258 17.9297V17.4297H17.0205V17.9297V18.4297H19.5258V17.9297Z" fill="#373737"/>
<path d="M15.7363 20.4805C15.4602 20.4805 15.2363 20.7043 15.2363 20.9805C15.2363 21.2566 15.4602 21.4805 15.7363 21.4805V20.4805ZM15.7363 20.9805V21.4805H22.7604V20.9805V20.4805H15.7363V20.9805Z" fill="#373737"/>
<path d="M16.9237 18.8475C16.7284 18.6523 16.4118 18.6524 16.2166 18.8477C16.0214 19.0431 16.0215 19.3596 16.2169 19.5548L16.9237 18.8475ZM18.3498 20.9795L18.7032 20.6258L16.9237 18.8475L16.5703 19.2012L16.2169 19.5548L17.9963 21.3331L18.3498 20.9795Z" fill="#373737"/>
<path d="M16.2169 22.4051C16.0215 22.6003 16.0214 22.9169 16.2166 23.1122C16.4118 23.3075 16.7284 23.3076 16.9237 23.1124L16.2169 22.4051ZM18.3498 20.9805L17.9963 20.6268L16.2169 22.4051L16.5703 22.7587L16.9237 23.1124L18.7032 21.3341L18.3498 20.9805Z" fill="#373737"/>
<path d="M23.8506 27.8175C26.6481 27.8175 28.911 25.5771 28.9562 22.801V22.7226C28.9562 22.6442 28.9455 22.5777 28.9336 22.4993C28.6509 19.2053 25.2487 17.3236 24.0561 14.2969" stroke="#373737" stroke-miterlimit="10" stroke-linecap="round"/>
<path d="M24.1572 26.2843C25.5922 26.2843 26.7599 25.1166 26.7599 23.6816" stroke="#373737" stroke-miterlimit="10" stroke-linecap="round"/>
</svg>
