<svg width="66" height="52" viewBox="0 0 66 52" fill="none" xmlns="http://www.w3.org/2000/svg">
<path d="M42.7194 0H22.9767C10.287 0 0 10.287 0 22.9767C0 35.6664 10.287 45.9535 22.9767 45.9535H42.7194C55.4091 45.9535 65.6961 35.6664 65.6961 22.9767C65.6961 10.287 55.4091 0 42.7194 0Z" fill="white"/>
<path d="M40.0637 43.0341L31.3525 51.6089L31.2812 39.3906L40.0637 43.0341Z" fill="white"/>
<path d="M13.8432 32.6641C11.7993 32.6572 9.84422 31.4336 9.85106 27.8105C9.85789 24.4678 11.4507 22.4922 13.9253 22.4922C15.9145 22.4922 17.2817 23.75 17.48 25.377H15.4565C15.2925 24.6865 14.7251 24.2559 13.9253 24.2559C12.5786 24.2559 11.8745 25.4658 11.8608 27.4141H11.9565C12.4145 26.5322 13.3921 26.0195 14.4858 26.0195C16.27 26.0195 17.5962 27.3525 17.5893 29.2188C17.5962 31.2285 16.0786 32.6709 13.8432 32.6641ZM12.0659 29.2734C12.0796 30.2441 12.8179 31.0439 13.8296 31.0371C14.8481 31.0439 15.5932 30.2715 15.5932 29.2734C15.5932 28.2822 14.8618 27.5166 13.8569 27.5098C12.8452 27.5166 12.0796 28.3096 12.0659 29.2734ZM19.5242 32.6504C18.8816 32.6504 18.3621 32.1377 18.3757 31.502C18.3621 30.873 18.8816 30.3604 19.5242 30.3672C20.1326 30.3604 20.6589 30.873 20.6589 31.502C20.6589 32.1377 20.1326 32.6504 19.5242 32.6504ZM21.8282 30.7773V29.1504L26.0118 22.6289H28.5957V29.123H29.8536V30.7773H28.5957V32.5273H26.6407V30.7773H21.8282ZM23.9063 29.123H26.668V24.8848H26.5723L23.9063 29.041V29.123ZM32.5462 28.9922C31.4866 28.9922 30.9154 28.2207 30.9154 27.1074C30.9154 25.9893 31.5159 25.2129 32.5462 25.2129C33.6058 25.2129 34.1722 25.9893 34.1771 27.1074C34.1722 28.2305 33.5911 28.9922 32.5462 28.9922ZM31.9114 27.1074C31.9163 27.7178 32.1361 28.1182 32.5462 28.123C32.9661 28.1182 33.1761 27.7178 33.181 27.1074C33.1761 26.4971 32.9857 26.082 32.5462 26.082C32.1312 26.0869 31.9163 26.5068 31.9114 27.1074ZM31.931 32.5273L36.7943 25.457H37.888L33.0247 32.5273H31.931ZM35.6907 30.877C35.6907 29.7588 36.2913 28.9873 37.3118 28.9824C38.3812 28.9873 38.9476 29.7588 38.9525 30.877C38.9476 32 38.3665 32.7617 37.3118 32.7617C36.262 32.7617 35.6907 31.9902 35.6907 30.877ZM36.6868 30.877C36.6917 31.4873 36.9114 31.8926 37.3118 31.8926C37.7415 31.8926 37.9515 31.4873 37.9564 30.877C37.9515 30.2666 37.7562 29.8516 37.3118 29.8613C36.9017 29.8564 36.6917 30.2764 36.6868 30.877ZM40.1294 32.5273V25.457H42.9029C44.5093 25.457 45.4321 26.4482 45.4321 27.8398C45.4321 29.251 44.4946 30.2227 42.8638 30.2227H41.5943V32.5273H40.1294ZM41.5943 29.041H42.6294C43.4986 29.041 43.9234 28.5527 43.9185 27.8398C43.9234 27.1367 43.4986 26.6631 42.6294 26.6582H41.5943V29.041Z" fill="#202020"/>
<path d="M18.5838 8.43691C18.5948 9.64691 19.9588 10.8899 22.0378 11.1649L21.5538 12.1329C19.9148 11.8799 18.6058 11.0659 17.9678 9.96591C17.3298 11.0659 16.0318 11.8799 14.4038 12.1329L13.9198 11.1649C15.9768 10.8899 17.3408 9.65791 17.3518 8.43691V7.93091H18.5838V8.43691ZM13.5458 13.9369V12.9689H22.3898V13.9369H18.5398V17.3249H17.3518V13.9369H13.5458ZM27.2546 8.43691V9.20691H29.2126V7.64491H30.4006V14.7069H29.2126V12.2649H27.2546V13.1009H22.7006V8.43691H27.2546ZM23.8886 12.1549H26.0886V9.38291H23.8886V12.1549ZM23.9986 17.1489V14.0469H25.2086V16.1809H30.6206V17.1489H23.9986ZM27.2546 11.2969H29.2126V10.1969H27.2546V11.2969ZM41.2965 8.94291V9.88891H33.2665V8.94291H36.6765V7.75491H37.8645V8.94291H41.2965ZM32.8705 16.3129V15.3449H35.0705V13.6949C34.3775 13.3759 33.9925 12.8699 33.9925 12.2209C33.9925 11.0549 35.2465 10.3729 37.2705 10.3729C39.2945 10.3729 40.5485 11.0549 40.5485 12.2209C40.5485 12.8699 40.1745 13.3649 39.4925 13.6839V15.3449H41.7365V16.3129H32.8705ZM35.2245 12.2209C35.2135 12.8259 35.9615 13.1449 37.2705 13.1449C38.5685 13.1449 39.3165 12.8259 39.3165 12.2209C39.3165 11.6159 38.5685 11.2969 37.2705 11.2969C35.9615 11.2969 35.2135 11.6159 35.2245 12.2209ZM36.2585 15.3449H38.3045V14.0029C37.9855 14.0469 37.6445 14.0689 37.2705 14.0689C36.9075 14.0689 36.5665 14.0469 36.2585 14.0139V15.3449ZM46.0294 7.73291C48.2294 7.72191 49.5054 8.31591 49.5054 9.38291C49.5054 10.4719 48.2294 11.0549 46.0294 11.0549C43.8074 11.0549 42.5204 10.4719 42.5094 9.38291C42.5204 8.31591 43.8074 7.72191 46.0294 7.73291ZM41.6074 12.4629V11.5169H50.4514V12.4629H48.1414V13.2329H49.3514V15.6089H43.8294V16.3349H49.6154V17.2589H42.6414V14.7729H48.1634V14.1349H42.6414V13.2329H43.8954V12.4629H41.6074ZM43.7634 9.38291C43.7634 9.92191 44.5334 10.1749 46.0294 10.1749C47.5144 10.1749 48.2844 9.92191 48.2734 9.38291C48.2844 8.88791 47.5144 8.61291 46.0294 8.61291C44.5334 8.61291 43.7634 8.88791 43.7634 9.38291ZM45.0614 13.2329H46.9534V12.4629H45.0614V13.2329Z" fill="#202020"/>
</svg>
