<svg width="31" height="31" viewBox="0 0 31 31" fill="none" xmlns="http://www.w3.org/2000/svg">
<path d="M22.5677 22.5677C26.7223 18.4131 26.7223 11.6772 22.5677 7.52257C18.4131 3.36798 11.6771 3.36796 7.52256 7.52255C3.36796 11.6771 3.36798 18.4131 7.52257 22.5677C11.6772 26.7223 18.4131 26.7223 22.5677 22.5677Z" fill="white"/>
<path d="M22.4483 15.2846C22.4483 15.1377 22.3253 15.0185 22.1736 15.0185H20.4662L22.1004 13.7077C22.2172 13.6139 22.2336 13.4462 22.1368 13.333C22.04 13.2198 21.8668 13.2039 21.75 13.2977L19.6048 15.0185H16.9021C16.8528 14.6527 16.7038 14.3168 16.4819 14.0378L18.3955 12.184L21.1651 11.9304C21.3161 11.9165 21.427 11.7866 21.4127 11.6403C21.3984 11.494 21.265 11.3865 21.1133 11.4004L19.0049 11.5935L20.2099 10.4261C20.3172 10.3222 20.3172 10.1537 20.2099 10.0498C20.1027 9.94587 19.9288 9.94587 19.8215 10.0498L18.612 11.2216L18.8101 9.17141C18.8242 9.02509 18.7133 8.89542 18.5623 8.88154C18.411 8.86766 18.2774 8.97532 18.2631 9.12165L18.0031 11.8114L16.0933 13.6617C15.8051 13.4468 15.4587 13.3025 15.0811 13.2547V10.6363L16.8573 8.55795C16.9541 8.44474 16.9377 8.277 16.8208 8.18322C16.704 8.08943 16.5308 8.1053 16.434 8.21851L15.0809 9.80173V8.14713C15.0809 8.00021 14.9579 7.88105 14.8062 7.88105C14.6546 7.88105 14.5316 8.00021 14.5316 8.14713V9.80133L13.1786 8.21811C13.0818 8.1049 12.9088 8.08904 12.7918 8.18282C12.6749 8.2766 12.6585 8.44434 12.7553 8.55756L14.5316 10.6359V13.2543C14.154 13.3021 13.8073 13.4464 13.5193 13.6613L11.6095 11.811L11.3496 9.12125C11.3354 8.97492 11.2022 8.86726 11.0504 8.88114C10.8993 8.89482 10.7884 9.02469 10.8025 9.17102L11.0006 11.2212L9.79111 10.0494C9.68387 9.94548 9.50991 9.94548 9.40267 10.0494C9.29543 10.1533 9.29543 10.3218 9.40267 10.4257L10.6077 11.5931L8.49932 11.4C8.34828 11.3863 8.21423 11.4936 8.19991 11.6399C8.18558 11.7863 8.2965 11.9161 8.44754 11.93L11.2172 12.1836L13.1307 14.0375C12.9088 14.3166 12.7599 14.6523 12.7105 15.0181H10.0164L7.8655 13.2878C7.74884 13.1938 7.5755 13.2095 7.4787 13.3225C7.38169 13.4355 7.39786 13.6034 7.51451 13.6972L9.15647 15.0181H7.4392C7.28755 15.0181 7.16455 15.1373 7.16455 15.2842C7.16455 15.4311 7.28755 15.5503 7.4392 15.5503H9.13641L7.51001 16.8512C7.39295 16.9447 7.37637 17.1125 7.47297 17.2259C7.5272 17.2897 7.60579 17.3227 7.68499 17.3227C7.74659 17.3227 7.8086 17.3026 7.85977 17.2618L9.99924 15.5505H12.7105C12.7599 15.9163 12.9088 16.2522 13.1307 16.5311L11.2172 18.385L8.44754 18.6386C8.2965 18.6525 8.18558 18.7823 8.19991 18.9287C8.21341 19.0665 8.33293 19.1698 8.47312 19.1698C8.48172 19.1698 8.49052 19.1694 8.49932 19.1686L10.6077 18.9755L9.40267 20.1429C9.29543 20.2468 9.29543 20.4153 9.40267 20.5192C9.45629 20.5712 9.52669 20.5971 9.59689 20.5971C9.66709 20.5971 9.73749 20.5712 9.79111 20.5192L11.0006 19.3474L10.8025 21.3976C10.7884 21.5439 10.8993 21.6736 11.0504 21.6875C11.0592 21.6882 11.0678 21.6886 11.0763 21.6886C11.2165 21.6886 11.3363 21.5851 11.3496 21.4473L11.6095 18.7576L13.5193 16.9073C13.8075 17.1222 14.154 17.2665 14.5316 17.3143V19.9411L12.7652 22.0138C12.6686 22.1272 12.6852 22.295 12.8022 22.3886C12.8534 22.4294 12.9154 22.4494 12.977 22.4494C13.0562 22.4494 13.1348 22.4165 13.189 22.3527L14.5318 20.777V22.4213C14.5318 22.5682 14.6548 22.6874 14.8064 22.6874C14.9581 22.6874 15.0811 22.5682 15.0811 22.4213V20.7574L16.4445 22.3481C16.4987 22.4116 16.5771 22.4443 16.6559 22.4443C16.7177 22.4443 16.7799 22.4242 16.8313 22.3828C16.9479 22.2888 16.9641 22.1211 16.8671 22.0081L15.0811 19.9242V17.3141C15.4587 17.2663 15.8053 17.122 16.0935 16.9071L18.0033 18.7574L18.2633 21.4471C18.2766 21.5851 18.3963 21.6884 18.5365 21.6884C18.5451 21.6884 18.5537 21.6881 18.5625 21.6873C18.7135 21.6736 18.8244 21.5439 18.8103 21.3974L18.6122 19.3472L19.8217 20.519C19.8753 20.571 19.9457 20.5969 20.0159 20.5969C20.0861 20.5969 20.1565 20.571 20.2102 20.519C20.3174 20.4151 20.3174 20.2466 20.2102 20.1427L19.0051 18.9753L21.1135 19.1684C21.1223 19.1692 21.1311 19.1696 21.1397 19.1696C21.2797 19.1696 21.3994 19.0663 21.4129 18.9285C21.4272 18.7821 21.3163 18.6523 21.1653 18.6384L18.3957 18.3848L16.4821 16.5309C16.704 16.2518 16.853 15.9161 16.9023 15.5503H19.605L21.7502 17.2711C21.8016 17.3121 21.8636 17.3322 21.9252 17.3322C22.0042 17.3322 22.0826 17.2993 22.137 17.2358C22.2338 17.1226 22.2174 16.9549 22.1006 16.8611L20.4664 15.5501H22.1738C22.3255 15.5501 22.4485 15.4309 22.4485 15.284L22.4483 15.2846ZM14.8064 16.8004C13.9436 16.8004 13.2418 16.1203 13.2418 15.2846C13.2418 14.4489 13.9438 13.7688 14.8064 13.7688C15.669 13.7688 16.371 14.4489 16.371 15.2846C16.371 16.1203 15.669 16.8004 14.8064 16.8004Z" fill="#B5B5B5"/>
</svg>
