<svg width="707" height="280" viewBox="0 0 707 280" fill="none" xmlns="http://www.w3.org/2000/svg">
<g opacity="0.8" filter="url(#filter0_f_2_2)">
<path d="M576.211 45.949L359 41V238.419C487.186 240.431 540.814 236.408 669 238.419L576.211 45.949Z" fill="url(#paint0_linear_2_2)" fill-opacity="0.7" style="mix-blend-mode:lighten"/>
<path d="M576.211 45.949L359 41V238.419C487.186 240.431 540.814 236.408 669 238.419L576.211 45.949Z" fill="black" fill-opacity="0.2" style="mix-blend-mode:soft-light"/>
</g>
<g opacity="0.8" filter="url(#filter1_f_2_2)">
<path d="M176.614 52.6295L359 38L354.505 232.513L38 242L176.614 52.6295Z" fill="url(#paint1_linear_2_2)" fill-opacity="0.7" style="mix-blend-mode:lighten"/>
<path d="M176.614 52.6295L359 38L354.505 232.513L38 242L176.614 52.6295Z" fill="black" fill-opacity="0.2" style="mix-blend-mode:soft-light"/>
</g>
<defs>
<filter id="filter0_f_2_2" x="321" y="3" width="386" height="274" filterUnits="userSpaceOnUse" color-interpolation-filters="sRGB">
<feFlood flood-opacity="0" result="BackgroundImageFix"/>
<feBlend mode="normal" in="SourceGraphic" in2="BackgroundImageFix" result="shape"/>
<feGaussianBlur stdDeviation="19" result="effect1_foregroundBlur_2_2"/>
</filter>
<filter id="filter1_f_2_2" x="0" y="0" width="397" height="280" filterUnits="userSpaceOnUse" color-interpolation-filters="sRGB">
<feFlood flood-opacity="0" result="BackgroundImageFix"/>
<feBlend mode="normal" in="SourceGraphic" in2="BackgroundImageFix" result="shape"/>
<feGaussianBlur stdDeviation="19" result="effect1_foregroundBlur_2_2"/>
</filter>
<linearGradient id="paint0_linear_2_2" x1="515.896" y1="-648.238" x2="515.896" y2="243.569" gradientUnits="userSpaceOnUse">
<stop offset="0.759615" stop-color="#FF5C5C" stop-opacity="0"/>
<stop offset="1" stop-color="#F4A3A3"/>
</linearGradient>
<linearGradient id="paint1_linear_2_2" x1="203.34" y1="-854.199" x2="203.34" y2="228.895" gradientUnits="userSpaceOnUse">
<stop offset="0.759615" stop-color="#FF3131" stop-opacity="0"/>
<stop offset="1" stop-color="#FF5C5C"/>
</linearGradient>
</defs>
</svg>
