<svg width="265" height="129" viewBox="0 0 265 129" fill="none" xmlns="http://www.w3.org/2000/svg">
<path d="M36.2705 91.0957H260.636" stroke="#A6A5A3" stroke-width="0.5" stroke-dasharray="1.26 1.26"/>
<path d="M36.2705 65.084H260.636" stroke="#A6A5A3" stroke-width="0.5" stroke-dasharray="1.26 1.26"/>
<path d="M36.2705 39.0703H260.636" stroke="#A6A5A3" stroke-width="0.5" stroke-dasharray="1.26 1.26"/>
<path d="M36.2705 13.707H260.636" stroke="#A6A5A3" stroke-width="0.5" stroke-dasharray="1.26 1.26"/>
<path d="M36.2705 2.69922C36.2705 1.59465 37.1659 0.699219 38.2705 0.699219H45.9765C47.0811 0.699219 47.9765 1.59465 47.9765 2.69922V24.7126C47.9765 25.8172 47.0811 26.7126 45.9765 26.7126H38.2705C37.1659 26.7126 36.2705 25.8172 36.2705 24.7126V2.69922Z" fill="#C9C9C9" fill-opacity="0.4"/>
<path d="M70.7383 80.0898C70.7383 78.9853 71.6337 78.0898 72.7383 78.0898H81.745C82.8495 78.0898 83.745 78.9853 83.745 80.0898V102.103C83.745 103.208 82.8495 104.103 81.745 104.103H72.7383C71.6337 104.103 70.7383 103.208 70.7383 102.103V80.0898Z" fill="#648FFF" fill-opacity="0.3"/>
<path d="M185.491 80.209C185.491 79.1044 186.387 78.209 187.491 78.209H199.099C200.204 78.209 201.099 79.1044 201.099 80.209V102.222C201.099 103.327 200.204 104.222 199.099 104.222H187.491C186.387 104.222 185.491 103.327 185.491 102.222V80.209Z" fill="#648FFF" fill-opacity="0.3"/>
<path d="M122.765 80.0898C122.765 78.9853 123.66 78.0898 124.765 78.0898H142.226C143.33 78.0898 144.226 78.9853 144.226 80.0898V102.103C144.226 103.208 143.33 104.103 142.226 104.103H124.765C123.66 104.103 122.765 103.208 122.765 102.103V80.0898Z" fill="#648FFF" fill-opacity="0.3"/>
<path d="M47.9766 54.0742C47.9766 52.9697 48.872 52.0742 49.9766 52.0742H68.7383C69.8428 52.0742 70.7383 52.9696 70.7383 54.0742V76.0876C70.7383 77.1922 69.8428 78.0876 68.7383 78.0876H49.9766C48.872 78.0876 47.9766 77.1922 47.9766 76.0876V54.0742Z" fill="#AFC5FF" fill-opacity="0.3"/>
<path d="M104.556 54.0742C104.556 52.9697 105.451 52.0742 106.556 52.0742H120.765C121.87 52.0742 122.765 52.9696 122.765 54.0742V76.0876C122.765 77.1922 121.87 78.0876 120.765 78.0876H106.556C105.451 78.0876 104.556 77.1922 104.556 76.0876V54.0742Z" fill="#AFC5FF" fill-opacity="0.3"/>
<path d="M166.988 54.0742C166.988 52.9697 167.884 52.0742 168.988 52.0742H183.198C184.302 52.0742 185.198 52.9696 185.198 54.0742V76.0876C185.198 77.1922 184.302 78.0876 183.198 78.0876H168.988C167.884 78.0876 166.988 77.1922 166.988 76.0876V54.0742Z" fill="#AFC5FF" fill-opacity="0.3"/>
<path d="M200.805 54.0742C200.805 52.9697 201.7 52.0742 202.805 52.0742H215.713C216.818 52.0742 217.713 52.9696 217.713 54.0742V76.0876C217.713 77.1922 216.818 78.0876 215.713 78.0876H202.805C201.7 78.0876 200.805 77.1922 200.805 76.0876V54.0742Z" fill="#AFC5FF" fill-opacity="0.3"/>
<path d="M238.525 54.0742C238.525 52.9697 239.421 52.0742 240.525 52.0742H258.637C259.741 52.0742 260.637 52.9696 260.637 54.0742V76.0876C260.637 77.1922 259.741 78.0876 258.637 78.0876H240.525C239.421 78.0876 238.525 77.1922 238.525 76.0876V54.0742Z" fill="#AFC5FF" fill-opacity="0.3"/>
<path d="M83.7441 54.0742C83.7441 52.9697 84.6396 52.0742 85.7441 52.0742H88.2475C89.3521 52.0742 90.2475 52.9696 90.2475 54.0742V76.0876C90.2475 77.1922 89.3521 78.0876 88.2475 78.0876H85.7441C84.6396 78.0876 83.7441 77.1922 83.7441 76.0876V54.0742Z" fill="#AFC5FF" fill-opacity="0.3"/>
<path d="M144.226 54.0742C144.226 52.9697 145.121 52.0742 146.226 52.0742H148.729C149.834 52.0742 150.729 52.9696 150.729 54.0742V76.0876C150.729 77.1922 149.834 78.0876 148.729 78.0876H146.226C145.121 78.0876 144.226 77.1922 144.226 76.0876V54.0742Z" fill="#AFC5FF" fill-opacity="0.3"/>
<path d="M6.57146 89.4238C6.56072 91.959 4.84197 93.5918 1.98455 94.2686L1.49041 93.3232C3.81609 92.8237 5.09441 91.7119 5.2824 90.3906H2.00603V89.4238H6.57146ZM9.38592 88.8008V94.0537H8.18279V88.8008H9.38592ZM9.52556 94.5264V95.4609H8.29021V97.3838H9.62224V98.3506H2.82244V97.3838H4.13299V95.4609H2.89763V94.5264H9.52556ZM5.30388 97.3838H7.10857V95.4609H5.30388V97.3838ZM18.9204 93.8066V94.7627H10.0688V93.8066H18.9204ZM17.9214 97.3408V98.3076H11.1646V95.4824H12.3569V97.3408H17.9214ZM14.4839 89.1016C16.6001 89.1016 17.9751 89.8428 17.9858 91.0674C17.9751 92.3027 16.6001 93.0547 14.4839 93.0547C12.3677 93.0547 10.9819 92.3027 10.9819 91.0674C10.9819 89.8428 12.3677 89.1016 14.4839 89.1016ZM14.4839 90.0576C13.0767 90.0576 12.2173 90.4229 12.228 91.0674C12.2173 91.7227 13.0767 92.0879 14.4839 92.0771C15.9019 92.0879 16.7505 91.7227 16.7505 91.0674C16.7505 90.4229 15.9019 90.0576 14.4839 90.0576ZM22.2889 90.4443C22.2781 91.6367 23.0516 92.7754 24.5985 93.2588L23.9969 94.2148C22.9066 93.8657 22.1331 93.1514 21.6981 92.2598C21.2684 93.2534 20.452 94.0483 19.3133 94.4297L18.6903 93.4736C20.2694 92.9688 21.075 91.7334 21.0858 90.4551V90.3584H19.0233V89.4023H24.2977V90.3584H22.2889V90.4443ZM26.4783 88.79V91.0674H27.8319V92.0449H26.4783V94.4512H25.286V88.79H26.4783ZM26.4783 94.8486V98.3828H20.2049V94.8486H26.4783ZM21.3865 95.7939V97.416H25.2967V95.7939H21.3865Z" fill="#5CBBFF"/>
<path d="M4.13982 63.0879C5.6115 63.0879 6.7072 64.001 6.71795 65.2793C6.7072 66.5684 5.6115 67.4707 4.13982 67.4707C2.6574 67.4707 1.5617 66.5684 1.5617 65.2793C1.5617 64.001 2.6574 63.0879 4.13982 63.0879ZM4.13982 64.0762C3.32342 64.0762 2.72185 64.5381 2.72185 65.2793C2.72185 66.0312 3.32342 66.5039 4.13982 66.5039C4.95623 66.5039 5.55779 66.0312 5.55779 65.2793C5.55779 64.5381 4.95623 64.0762 4.13982 64.0762ZM9.47869 62.7764V67.6855H8.27556V62.7764H9.47869ZM9.47869 68.1045V70.6396H4.22576V71.4238H9.76873V72.3691H3.05486V69.7588H8.28631V69.0391H3.03338V68.1045H9.47869ZM17.7993 62.7871V65.5908H19.1528V66.5791H17.7993V69.9307H16.6069V62.7871H17.7993ZM18.186 71.3271V72.2939H11.5796V69.2109H12.772V71.3271H18.186ZM11.6548 63.4746V64.957H13.9214V63.4746H15.103V68.3516H10.4731V63.4746H11.6548ZM11.6548 67.4062H13.9214V65.8809H11.6548V67.4062ZM22.3602 64.4307C22.3494 65.623 23.1229 66.7617 24.6697 67.2451L24.0682 68.2012C22.9779 67.8521 22.2044 67.1377 21.7694 66.2461C21.3397 67.2397 20.5233 68.0347 19.3846 68.416L18.7615 67.46C20.3406 66.9551 21.1463 65.7197 21.1571 64.4414V64.3447H19.0946V63.3887H24.369V64.3447H22.3602V64.4307ZM26.5496 62.7764V65.0537H27.9031V66.0312H26.5496V68.4375H25.3572V62.7764H26.5496ZM26.5496 68.835V72.3691H20.2762V68.835H26.5496ZM21.4578 69.7803V71.4023H25.368V69.7803H21.4578Z" fill="#A1B4E5"/>
<path d="M9.9406 11.3887V21.0996H8.79119V16.1367H7.8781V20.6592H6.76092V11.582H7.8781V15.1699H8.79119V11.3887H9.9406ZM3.79607 12.5596C3.79607 14.8047 3.52752 16.9424 2.22771 18.79L1.29314 18.2422C2.34051 16.8135 2.70037 15.3149 2.78631 13.5156H1.59392V12.5596H3.79607ZM6.0949 12.5596C6.0949 14.8584 5.91228 17.3613 4.52654 19.3916L3.58123 18.876C4.74138 17.2485 5.00457 15.4331 5.05291 13.5156H4.09685V12.5596H6.0949ZM12.7935 12.1084C14.1094 12.1084 15.0815 13.2041 15.2534 14.9766H17.1011V11.3994H18.2827V21.1211H17.1011V15.9434H15.2642C15.1353 17.8179 14.147 18.9727 12.7935 18.9727C11.3325 18.9727 10.3013 17.6514 10.3013 15.5352C10.3013 13.4404 11.3325 12.1084 12.7935 12.1084ZM12.7935 13.1826C11.9878 13.1826 11.4399 14.0527 11.4507 15.5352C11.4399 17.0283 11.9878 17.8984 12.7935 17.8984C13.5991 17.8984 14.1362 17.0283 14.147 15.5352C14.1362 14.0527 13.5991 13.1826 12.7935 13.1826ZM26.5496 11.4102V13.5156H27.9139V14.5039H26.5496V16.8779H25.3572V11.4102H26.5496ZM26.5496 17.3506V20.9814H20.2655V17.3506H26.5496ZM21.4363 18.2852V20.0361H25.3787V18.2852H21.4363ZM20.5125 11.8828V15.2988C21.7586 15.2881 23.0692 15.1753 24.4871 14.9014L24.6268 15.8789C23.0155 16.2012 21.5223 16.2871 20.1151 16.2871H19.3094V11.8828H20.5125Z" fill="#CECECE"/>
<path d="M5.01238 45.5176V37.7402H7.93426C9.71746 37.7402 10.6735 38.7393 10.6735 40.2217C10.6735 41.2798 10.1901 42.064 9.27703 42.4346L10.9528 45.5176H9.39519L7.8698 42.6709H6.40886V45.5176H5.01238ZM6.40886 41.5H7.71941C8.77215 41.5 9.2448 41.0488 9.2448 40.2217C9.2448 39.3945 8.77215 38.9111 7.71941 38.9111H6.40886V41.5ZM11.1201 45.5176V37.7402H16.1797V38.9111H12.5166V41.0381H15.9111V42.209H12.5166V44.3359H16.2012V45.5176H11.1201ZM16.7659 37.7402H18.4847L20.7943 43.3906H20.8909L23.2005 37.7402H24.9193V45.5176H23.5765V40.168H23.5013L21.3421 45.4961H20.3431L18.1839 40.1465H18.1195V45.5176H16.7659V37.7402Z" fill="#5EE9E4"/>
<path d="M214.996 116.532V126.157H214.019V121.141H212.826V125.685H211.859V116.715H212.826V120.303H214.019V116.532H214.996ZM210.774 117.617V123.622H207.036V117.617H210.774ZM208.003 118.423V122.806H209.818V118.423H208.003ZM223.274 121.656V122.473H216.571V117.327H223.177V118.154H217.602V119.454H222.973V120.26H217.602V121.656H223.274ZM224.273 124.105V124.943H215.464V124.105H224.273ZM234.168 116.532V121.484H233.147V119.014H231.117V118.187H233.147V116.532H234.168ZM234.168 121.936V124.331H228.894V125.223H234.501V126.039H227.894V123.558H233.158V122.741H227.873V121.936H234.168ZM229.527 117.682C229.527 118.906 230.408 120.045 231.858 120.507L231.321 121.302C230.263 120.937 229.463 120.211 229.044 119.293C228.62 120.324 227.792 121.135 226.659 121.527L226.111 120.711C227.615 120.228 228.507 119.035 228.518 117.682V116.844H229.527V117.682ZM242.918 116.532V122.258H241.898V119.819H240.104V118.981H241.898V116.532H242.918ZM239.696 122.526C241.715 122.526 242.95 123.192 242.95 124.342C242.95 125.491 241.715 126.146 239.696 126.157C237.676 126.146 236.43 125.491 236.441 124.342C236.43 123.192 237.676 122.526 239.696 122.526ZM239.696 123.321C238.288 123.321 237.45 123.687 237.45 124.342C237.45 124.986 238.288 125.362 239.696 125.352C241.103 125.362 241.941 124.986 241.941 124.342C241.941 123.687 241.103 123.321 239.696 123.321ZM238.342 118.229C238.342 119.454 239.212 120.636 240.662 121.13L240.136 121.936C239.056 121.56 238.262 120.792 237.848 119.841C237.424 120.92 236.58 121.785 235.431 122.204L234.894 121.388C236.387 120.872 237.3 119.572 237.3 118.24V118.025H235.216V117.198H240.405V118.025H238.342V118.229ZM254.35 121.603V122.44H245.573V121.603H249.451V120.668C247.646 120.566 246.518 119.868 246.518 118.734C246.518 117.542 247.861 116.812 249.956 116.801C252.04 116.812 253.393 117.542 253.393 118.734C253.393 119.868 252.255 120.566 250.461 120.668V121.603H254.35ZM253.361 125.126V125.953H246.68V123.16H247.711V125.126H253.361ZM249.956 117.628C248.484 117.628 247.56 118.047 247.571 118.734C247.56 119.465 248.484 119.862 249.956 119.862C251.428 119.862 252.341 119.465 252.341 118.734C252.341 118.047 251.428 117.628 249.956 117.628ZM262.122 120.969V121.785H259.211V124.138H263.132V124.976H254.323V124.138H258.201V121.785H255.419V117.273H262.036V118.101H256.44V120.969H262.122Z" fill="#E6E6E6"/>
<path d="M187.5 119.633H201.157" stroke="#FF5C5C" stroke-linecap="round" stroke-linejoin="round" stroke-dasharray="3 3"/>
</svg>
