<svg width="335" height="291" viewBox="0 0 335 291" fill="none" xmlns="http://www.w3.org/2000/svg">
<path d="M23.534 3.65834C23.534 4.24737 23.4277 4.79549 23.2232 5.31907C23.0186 5.83447 22.7159 6.2926 22.3232 6.67711C21.9305 7.06161 21.4479 7.34795 20.8834 7.54429L20.2861 6.64438C20.7688 6.48077 21.1861 6.24352 21.5297 5.93264C21.8733 5.62177 22.1351 5.27817 22.3151 4.88548C22.495 4.4928 22.585 4.09193 22.585 3.66652V2.99568H23.534V3.66652V3.65834ZM25.7021 2.74207V3.68288H20.6297V2.74207H25.7021ZM23.1332 7.78154V8.76325H27.0192V7.78154H28.1646V11.5366H21.9878V7.78154H23.1414H23.1332ZM23.7631 3.66652C23.7631 4.05102 23.8449 4.42735 24.0167 4.79549C24.1885 5.16363 24.434 5.49087 24.7694 5.78539C25.1048 6.0799 25.5057 6.30078 25.972 6.45622L25.3994 7.35613C24.8512 7.16797 24.3849 6.88981 24.0004 6.52167C23.6159 6.15353 23.3213 5.71994 23.125 5.23726C22.9286 4.74641 22.8305 4.23101 22.8305 3.6747V2.99568H23.7713V3.6747L23.7631 3.66652ZM23.1332 10.604H27.0192V9.65497H23.1332V10.604ZM27.3219 4.42735V5.37634H25.3994V4.42735H27.3219ZM28.1728 2.26758V7.38885H27.0274V2.26758H28.1728Z" fill="#545251"/>
<path d="M38.0639 7.15857V8.07483H29.5146V7.15857H38.0639ZM34.1452 3.91073C34.1452 4.40159 33.9897 4.827 33.6707 5.20332C33.3598 5.57965 32.9098 5.88234 32.3208 6.11141C31.7399 6.34047 31.0527 6.49591 30.2673 6.56136L29.9073 5.67782C30.5864 5.62873 31.1754 5.52238 31.6581 5.35058C32.1408 5.18696 32.5089 4.97426 32.7544 4.72883C32.9998 4.4834 33.1225 4.20525 33.1225 3.91073V3.73075H34.137V3.91073H34.1452ZM37.2213 3.14172V4.05799H30.3491V3.14172H37.2213ZM37.0168 8.79476V11.6417H35.855V9.71102H30.4555V8.79476H37.0168ZM34.3497 2.25V3.60804H33.2043V2.25H34.3497ZM34.3497 6.11959V7.55125H33.2043V6.11959H34.3497ZM34.4152 3.91073C34.4152 4.20525 34.5379 4.4834 34.7751 4.72883C35.0124 4.97426 35.3887 5.18696 35.8714 5.35058C36.3541 5.5142 36.9431 5.62873 37.6303 5.67782L37.2704 6.56136C36.4768 6.49591 35.7896 6.34047 35.2087 6.11141C34.6279 5.88234 34.1779 5.57965 33.867 5.20332C33.5561 4.83518 33.4007 4.40159 33.4007 3.91073V3.73075H34.4152V3.91073Z" fill="#545251"/>
<path d="M48.1503 7.16008V8.09271H39.5928V7.16008H48.1503ZM43.8633 2.52148C44.5424 2.52148 45.1314 2.59511 45.6386 2.75055C46.1459 2.90599 46.5386 3.12687 46.8167 3.41321C47.0949 3.69954 47.234 4.03496 47.234 4.41946C47.234 4.80397 47.0949 5.16393 46.8167 5.45026C46.5386 5.7366 46.1459 5.96566 45.6386 6.11292C45.1314 6.26836 44.5342 6.34199 43.8633 6.34199C43.1925 6.34199 42.5871 6.26836 42.0798 6.11292C41.5726 5.95748 41.1799 5.7366 40.8936 5.45026C40.6154 5.16393 40.4763 4.81215 40.4763 4.41946C40.4763 4.03496 40.6154 3.69954 40.8936 3.41321C41.1717 3.12687 41.5644 2.90599 42.0798 2.75055C42.5871 2.59511 43.1843 2.52148 43.8633 2.52148ZM41.8099 8.73082V10.8497H40.6481V8.73082H41.8099ZM47.1767 10.5306V11.4633H40.64V10.5306H47.1767ZM43.8633 3.43775C43.4134 3.43775 43.0207 3.47866 42.6934 3.55228C42.3662 3.62591 42.1126 3.74045 41.9408 3.8877C41.769 4.03496 41.679 4.20676 41.6871 4.41128C41.6871 4.63217 41.769 4.81215 41.9408 4.95941C42.1126 5.10666 42.3662 5.2212 42.6934 5.29483C43.0207 5.36845 43.4134 5.40936 43.8715 5.40936C44.3297 5.40936 44.7224 5.36845 45.0496 5.29483C45.3768 5.2212 45.6223 5.10666 45.8023 4.95941C45.9741 4.81215 46.0641 4.63217 46.0641 4.41128C46.0641 4.20676 45.9741 4.03496 45.8023 3.8877C45.6305 3.74045 45.3768 3.62591 45.0496 3.55228C44.7224 3.47866 44.3297 3.43775 43.8715 3.43775H43.8633ZM44.4442 5.81023V7.60185H43.2907V5.81023H44.4442Z" fill="#545251"/>
<path d="M57.3721 9.5875V10.5365H48.79V9.5875H57.3721ZM56.3412 2.96094V3.88538H50.9908V6.94506H49.8372V2.96094H56.3412ZM56.4149 6.52783V7.4441H49.8372V6.52783H56.4149ZM53.6333 6.93688V9.91474H52.4879V6.93688H53.6333Z" fill="#545251"/>
<path d="M61.0119 12.5248L60.7337 12.762C59.2365 11.3631 58.5166 9.71051 58.5166 7.77163C58.5166 5.83274 59.2365 4.17201 60.7337 2.78125L61.0119 3.0185C59.7601 4.82649 59.3756 6.07817 59.3756 7.77981C59.3756 9.48145 59.7601 10.7331 61.0119 12.5411V12.5248Z" fill="#545251"/>
<path d="M63.5972 6.67579C63.2781 6.67579 62.9836 6.59398 62.7136 6.43854C62.4437 6.2831 62.231 6.0704 62.0673 5.80043C61.9119 5.53046 61.8301 5.23594 61.8301 4.91688C61.8301 4.59783 61.9119 4.30331 62.0673 4.03334C62.2228 3.76337 62.4355 3.55067 62.7136 3.39523C62.9836 3.23979 63.2781 3.15798 63.5972 3.15798C63.9163 3.15798 64.2108 3.23979 64.4808 3.39523C64.7507 3.55067 64.9635 3.76337 65.1271 4.03334C65.2907 4.30331 65.3643 4.59783 65.3643 4.91688C65.3643 5.23594 65.2825 5.53046 65.1271 5.80043C64.9716 6.0704 64.7507 6.2831 64.4808 6.43854C64.2108 6.59398 63.9163 6.67579 63.5972 6.67579ZM63.5972 5.74316C63.7526 5.74316 63.8917 5.70226 64.0144 5.62863C64.1453 5.555 64.2435 5.45683 64.3171 5.32593C64.3908 5.20322 64.4235 5.06414 64.4235 4.9087C64.4235 4.75327 64.3908 4.61419 64.3171 4.49148C64.2435 4.36876 64.1453 4.26241 64.0144 4.18878C63.8835 4.11515 63.7445 4.08243 63.5972 4.08243C63.4499 4.08243 63.3109 4.11515 63.18 4.18878C63.0491 4.26241 62.9509 4.36058 62.8773 4.49148C62.8036 4.62237 62.7627 4.75327 62.7627 4.9087C62.7627 5.06414 62.8036 5.20322 62.8773 5.32593C62.9509 5.44865 63.0491 5.555 63.18 5.62863C63.3109 5.70226 63.4418 5.74316 63.5972 5.74316ZM71.5084 5.74316C71.4593 5.44865 71.3529 5.19504 71.1811 4.97415C71.0175 4.76145 70.8048 4.59783 70.5512 4.48329C70.2976 4.36876 70.0194 4.31149 69.7167 4.31149C69.2995 4.31149 68.9313 4.41785 68.6204 4.62237C68.3095 4.82689 68.0559 5.12959 67.8841 5.53046C67.7041 5.93132 67.6142 6.40582 67.6142 6.96212C67.6142 7.51843 67.7041 8.00928 67.8841 8.40197C68.0641 8.80283 68.3095 9.09735 68.6204 9.30187C68.9313 9.5064 69.2995 9.60457 69.7085 9.60457C70.0112 9.60457 70.2894 9.5473 70.5348 9.44095C70.7803 9.3346 70.993 9.17098 71.1648 8.96645C71.3366 8.76193 71.4511 8.50832 71.5084 8.22199H72.8746C72.8092 8.71284 72.6292 9.14643 72.351 9.53912C72.0729 9.9318 71.7047 10.2427 71.2466 10.4717C70.7884 10.7008 70.273 10.8153 69.6922 10.8153C69.0295 10.8153 68.4323 10.6599 67.9169 10.349C67.4014 10.0382 66.9924 9.59639 66.6979 9.00736C66.4033 8.42651 66.2561 7.73931 66.2561 6.94576C66.2561 6.15221 66.4033 5.46501 66.6979 4.88416C66.9924 4.30331 67.4014 3.85336 67.925 3.54249C68.4486 3.23161 69.0377 3.07617 69.7003 3.07617C70.2567 3.07617 70.7557 3.18252 71.2057 3.38705C71.6556 3.59975 72.032 3.90245 72.3183 4.29513C72.6128 4.68782 72.7928 5.16231 72.8746 5.71044H71.5084V5.74316Z" fill="#545251"/>
<path d="M73.6104 3.01068L73.8885 2.77344C75.3857 4.1642 76.1056 5.82493 76.1056 7.76382C76.1056 9.7027 75.3857 11.3634 73.8885 12.7542L73.6104 12.5169C74.8621 10.709 75.2466 9.45727 75.2466 7.75563C75.2466 6.054 74.8621 4.80231 73.6104 2.99432V3.01068Z" fill="#545251"/>
<path d="M262.257 267.709C262.257 268.298 262.151 268.846 261.938 269.361C261.725 269.877 261.423 270.319 261.014 270.695C260.613 271.071 260.122 271.349 259.557 271.537L258.977 270.629C259.467 270.474 259.893 270.245 260.236 269.95C260.588 269.648 260.85 269.312 261.03 268.92C261.21 268.535 261.292 268.134 261.292 267.709V266.989H262.249V267.709H262.257ZM266.806 271.979V274.417H261.725V275.497H260.605V273.558H265.66V272.879H260.58V271.979H266.814H266.806ZM267.084 275.145V276.062H260.596V275.145H267.084ZM262.494 267.709C262.494 268.118 262.576 268.502 262.748 268.87C262.92 269.239 263.182 269.558 263.525 269.836C263.869 270.114 264.286 270.327 264.769 270.474L264.196 271.366C263.632 271.194 263.149 270.924 262.748 270.564C262.347 270.204 262.044 269.779 261.832 269.296C261.627 268.805 261.521 268.281 261.521 267.709V266.989H262.486V267.709H262.494ZM266.789 266.76V271.546H265.652V266.76H266.789Z" fill="#545251"/>
<path d="M269.751 267.831V273.247H268.598V267.831H269.751ZM269.219 272.789C269.759 272.789 270.291 272.773 270.815 272.732C271.338 272.691 271.878 272.617 272.435 272.503L272.557 273.509C271.96 273.615 271.387 273.689 270.839 273.73C270.299 273.771 269.759 273.795 269.219 273.795H268.598V272.789H269.219ZM274.095 266.932V275.669H273.015V266.932H274.095ZM275.445 270.449V271.39H273.776V270.449H275.445ZM276.247 266.76V276.135H275.134V266.76H276.247Z" fill="#545251"/>
<path d="M286.008 271.652V272.585H277.45V271.652H286.008ZM281.721 267.014C282.4 267.014 282.989 267.087 283.504 267.243C284.02 267.398 284.404 267.619 284.682 267.905C284.96 268.192 285.099 268.527 285.099 268.912C285.099 269.296 284.96 269.656 284.682 269.943C284.404 270.229 284.011 270.458 283.504 270.605C282.997 270.752 282.4 270.834 281.721 270.834C281.042 270.834 280.444 270.761 279.937 270.605C279.43 270.45 279.037 270.229 278.751 269.943C278.465 269.656 278.334 269.304 278.334 268.912C278.334 268.527 278.473 268.192 278.751 267.905C279.029 267.619 279.422 267.398 279.937 267.243C280.453 267.087 281.042 267.014 281.721 267.014ZM279.667 273.223V275.342H278.506V273.223H279.667ZM285.042 275.023V275.964H278.514V275.023H285.042ZM281.721 267.93C281.271 267.93 280.878 267.971 280.551 268.044C280.224 268.118 279.97 268.233 279.798 268.38C279.626 268.527 279.536 268.699 279.545 268.903C279.545 269.124 279.626 269.304 279.798 269.452C279.97 269.599 280.224 269.713 280.551 269.787C280.878 269.861 281.271 269.902 281.729 269.902C282.187 269.902 282.58 269.861 282.907 269.787C283.234 269.713 283.48 269.599 283.66 269.452C283.831 269.304 283.921 269.124 283.921 268.903C283.921 268.699 283.831 268.527 283.66 268.38C283.488 268.233 283.234 268.118 282.907 268.044C282.58 267.971 282.187 267.93 281.729 267.93H281.721ZM282.302 270.302V272.094H281.148V270.302H282.302Z" fill="#545251"/>
<path d="M295.226 274.082V275.031H286.645V274.082H295.226ZM294.196 267.455V268.38H288.845V271.44H287.692V267.447H294.196V267.455ZM294.269 271.022V271.939H287.692V271.022H294.269ZM291.496 271.431V274.409H290.351V271.431H291.496Z" fill="#545251"/>
<path d="M298.875 277.019L298.597 277.256C297.1 275.857 296.38 274.205 296.38 272.266C296.38 270.327 297.1 268.666 298.597 267.275L298.875 267.513C297.623 269.321 297.239 270.572 297.239 272.274C297.239 273.976 297.623 275.227 298.875 277.035V277.019Z" fill="#545251"/>
<path d="M301.453 271.17C301.134 271.17 300.839 271.088 300.569 270.933C300.299 270.777 300.086 270.565 299.923 270.295C299.759 270.025 299.686 269.73 299.686 269.411C299.686 269.092 299.767 268.797 299.923 268.527C300.078 268.258 300.299 268.045 300.569 267.889C300.839 267.734 301.134 267.652 301.453 267.652C301.772 267.652 302.066 267.734 302.336 267.889C302.606 268.045 302.819 268.258 302.983 268.527C303.146 268.797 303.22 269.092 303.22 269.411C303.22 269.73 303.138 270.025 302.983 270.295C302.827 270.565 302.606 270.777 302.336 270.933C302.066 271.088 301.772 271.17 301.453 271.17ZM301.453 270.237C301.608 270.237 301.747 270.196 301.87 270.123C302.001 270.049 302.099 269.951 302.173 269.82C302.246 269.697 302.279 269.558 302.279 269.403C302.279 269.247 302.246 269.108 302.173 268.986C302.099 268.863 302.001 268.757 301.87 268.683C301.739 268.609 301.6 268.577 301.453 268.577C301.305 268.577 301.166 268.609 301.035 268.683C300.913 268.757 300.806 268.855 300.733 268.986C300.659 269.108 300.618 269.247 300.618 269.403C300.618 269.558 300.651 269.697 300.733 269.82C300.806 269.943 300.905 270.049 301.035 270.123C301.166 270.196 301.305 270.237 301.453 270.237ZM309.372 270.237C309.323 269.943 309.216 269.689 309.053 269.468C308.881 269.256 308.677 269.092 308.423 268.977C308.169 268.863 307.891 268.806 307.588 268.806C307.171 268.806 306.803 268.912 306.492 269.117C306.181 269.321 305.928 269.624 305.756 270.025C305.584 270.425 305.494 270.9 305.494 271.456C305.494 272.013 305.584 272.503 305.756 272.896C305.928 273.289 306.181 273.592 306.492 273.796C306.811 274.001 307.171 274.099 307.58 274.099C307.883 274.099 308.161 274.042 308.407 273.935C308.652 273.829 308.865 273.665 309.036 273.461C309.208 273.256 309.323 273.003 309.38 272.716H310.746C310.681 273.207 310.509 273.641 310.223 274.033C309.945 274.426 309.576 274.737 309.118 274.966C308.66 275.195 308.145 275.31 307.564 275.31C306.901 275.31 306.304 275.154 305.789 274.843C305.273 274.532 304.864 274.091 304.57 273.502C304.275 272.921 304.128 272.233 304.128 271.44C304.128 270.646 304.275 269.959 304.57 269.378C304.864 268.797 305.273 268.347 305.797 268.037C306.312 267.726 306.909 267.57 307.572 267.57C308.128 267.57 308.627 267.677 309.077 267.881C309.527 268.094 309.904 268.397 310.198 268.789C310.493 269.182 310.673 269.656 310.755 270.205H309.388L309.372 270.237Z" fill="#545251"/>
<path d="M311.466 267.505L311.744 267.268C313.241 268.667 313.961 270.319 313.961 272.258C313.961 274.197 313.241 275.858 311.744 277.248L311.466 277.011C312.718 275.203 313.102 273.951 313.102 272.25C313.102 270.548 312.718 269.296 311.466 267.488V267.505Z" fill="#545251"/>
<path d="M253.119 284.659C253.119 283.996 253.201 283.366 253.373 282.769C253.545 282.172 253.79 281.616 254.117 281.084H254.6C254.42 281.37 254.256 281.706 254.117 282.107C253.978 282.507 253.864 282.917 253.79 283.367C253.708 283.808 253.675 284.242 253.675 284.667C253.675 285.093 253.716 285.526 253.79 285.968C253.872 286.41 253.978 286.827 254.117 287.228C254.256 287.629 254.42 287.964 254.6 288.242H254.117C253.79 287.719 253.545 287.154 253.373 286.557C253.201 285.96 253.119 285.33 253.119 284.667V284.659Z" fill="#666464"/>
<path d="M257.121 281.273C257.456 281.273 257.751 281.371 258.012 281.576C258.274 281.772 258.479 282.05 258.618 282.418C258.765 282.778 258.839 283.204 258.839 283.687C258.839 284.169 258.765 284.586 258.618 284.955C258.471 285.315 258.274 285.601 258.012 285.797C257.751 285.994 257.456 286.092 257.121 286.092C256.785 286.092 256.483 285.994 256.221 285.797C255.959 285.601 255.755 285.323 255.607 284.955C255.46 284.595 255.395 284.169 255.395 283.687C255.395 283.204 255.46 282.778 255.607 282.418C255.755 282.059 255.959 281.772 256.221 281.576C256.483 281.379 256.785 281.281 257.121 281.273ZM257.121 281.715C256.875 281.715 256.663 281.797 256.474 281.968C256.286 282.132 256.139 282.369 256.033 282.664C255.926 282.958 255.877 283.302 255.877 283.687C255.877 284.071 255.926 284.406 256.033 284.709C256.139 285.012 256.286 285.241 256.474 285.405C256.663 285.568 256.883 285.65 257.121 285.65C257.358 285.65 257.579 285.568 257.767 285.405C257.955 285.241 258.102 285.004 258.209 284.709C258.315 284.415 258.372 284.071 258.372 283.687C258.372 283.302 258.323 282.967 258.209 282.664C258.102 282.369 257.955 282.132 257.767 281.968C257.579 281.805 257.358 281.715 257.121 281.715ZM260.647 282.32V282.746H258.438V282.32H260.647ZM260.647 284.537V284.955H258.438V284.537H260.647ZM260.999 280.717V287.687H260.508V280.717H260.999Z" fill="#666464"/>
<path d="M268.615 284.34V284.758H262.242V284.34H268.615ZM267.781 280.904V282.475H263.576V283.457H263.085V282.091H267.29V281.313H263.06V280.904H267.789H267.781ZM267.936 283.26V283.661H263.085V283.26H267.936ZM267.773 285.461V287.58H263.126V285.461H267.773ZM263.617 285.87V287.163H267.29V285.87H263.617Z" fill="#666464"/>
<path d="M271.478 282.083C271.478 282.434 271.388 282.762 271.216 283.072C271.044 283.383 270.799 283.637 270.496 283.858C270.193 284.079 269.85 284.242 269.473 284.357L269.244 283.964C269.58 283.866 269.89 283.727 270.169 283.547C270.447 283.359 270.668 283.146 270.831 282.892C270.995 282.639 271.077 282.377 271.077 282.091V281.772H271.486V282.091L271.478 282.083ZM273.179 281.453V281.87H269.44V281.453H273.179ZM274.971 284.741V286.32H271.003V287.4H270.512V285.928H274.472V285.142H270.488V284.741H274.963H274.971ZM275.257 287.188V287.597H270.52V287.188H275.257ZM271.568 280.684V281.698H271.06V280.684H271.568ZM271.559 282.083C271.559 282.344 271.641 282.598 271.805 282.827C271.968 283.064 272.197 283.261 272.484 283.432C272.77 283.604 273.081 283.727 273.416 283.809L273.187 284.193C272.803 284.095 272.459 283.948 272.148 283.743C271.838 283.539 271.6 283.293 271.42 283.007C271.24 282.721 271.15 282.41 271.159 282.066V281.747H271.559V282.066V282.083ZM274.791 282.492V282.901H272.95V282.492H274.791ZM274.971 280.716V284.39H274.48V280.716H274.971Z" fill="#666464"/>
<path d="M280.797 284.373V284.872H278.392V284.373H280.797Z" fill="#666464"/>
<path d="M285.157 281.339C285.451 281.339 285.713 281.437 285.942 281.633C286.163 281.829 286.343 282.108 286.466 282.468C286.588 282.828 286.654 283.245 286.654 283.727C286.654 284.21 286.588 284.627 286.466 284.987C286.343 285.347 286.171 285.625 285.942 285.822C285.713 286.018 285.459 286.116 285.157 286.108C284.854 286.108 284.6 286.01 284.371 285.822C284.142 285.625 283.97 285.347 283.856 284.987C283.733 284.627 283.676 284.202 283.676 283.727C283.676 283.253 283.733 282.828 283.856 282.468C283.978 282.108 284.15 281.829 284.371 281.633C284.592 281.437 284.854 281.339 285.157 281.339ZM285.157 281.797C284.952 281.797 284.772 281.879 284.625 282.034C284.478 282.189 284.355 282.418 284.273 282.705C284.191 282.991 284.15 283.327 284.15 283.711C284.15 284.087 284.191 284.423 284.273 284.717C284.355 285.004 284.478 285.233 284.625 285.396C284.772 285.56 284.96 285.634 285.157 285.634C285.353 285.634 285.541 285.552 285.697 285.396C285.852 285.241 285.966 285.012 286.056 284.717C286.138 284.423 286.179 284.087 286.179 283.711C286.179 283.335 286.138 282.991 286.056 282.705C285.975 282.418 285.852 282.189 285.697 282.034C285.541 281.87 285.361 281.797 285.157 281.797ZM287.832 283.474V283.891H286.441V283.474H287.832ZM288.134 280.88V287.319H287.652V280.88H288.134ZM289.517 280.717V287.679H289.034V280.717H289.517Z" fill="#666464"/>
<path d="M292.414 281.273C292.75 281.273 293.044 281.371 293.306 281.576C293.568 281.78 293.764 282.05 293.911 282.418C294.059 282.787 294.132 283.204 294.132 283.687C294.132 284.169 294.059 284.586 293.911 284.955C293.764 285.315 293.56 285.601 293.306 285.797C293.052 285.994 292.75 286.092 292.414 286.092C292.079 286.092 291.776 285.994 291.514 285.797C291.253 285.601 291.048 285.323 290.909 284.955C290.762 284.595 290.696 284.169 290.696 283.687C290.696 283.204 290.77 282.778 290.909 282.418C291.048 282.059 291.253 281.772 291.514 281.576C291.776 281.379 292.079 281.281 292.414 281.273ZM292.414 281.715C292.169 281.715 291.956 281.797 291.768 281.968C291.58 282.132 291.433 282.369 291.326 282.664C291.22 282.958 291.171 283.302 291.171 283.687C291.171 284.071 291.22 284.406 291.326 284.709C291.433 285.012 291.58 285.241 291.768 285.405C291.956 285.568 292.169 285.65 292.414 285.65C292.66 285.65 292.872 285.568 293.061 285.405C293.249 285.241 293.396 285.004 293.502 284.709C293.609 284.415 293.658 284.071 293.658 283.687C293.658 283.302 293.609 282.967 293.502 282.664C293.396 282.369 293.249 282.132 293.061 281.968C292.872 281.805 292.652 281.715 292.414 281.715ZM296.039 283.425V283.842H293.961V283.425H296.039ZM296.3 280.717V287.687H295.809V280.717H296.3Z" fill="#666464"/>
<path d="M300.57 282.958L297.805 283.179L297.707 282.754L300.562 282.614V282.958H300.57ZM301.143 281.289C301.143 281.886 301.029 282.426 300.808 282.917C300.587 283.408 300.235 283.842 299.76 284.218C299.286 284.594 298.689 284.905 297.969 285.151L297.764 284.742C298.427 284.521 298.967 284.251 299.384 283.923C299.81 283.596 300.12 283.228 300.325 282.819C300.53 282.41 300.628 281.952 300.636 281.461V281.289H301.151H301.143ZM300.898 281.289V281.715H298.059V281.289H300.898ZM299.45 285.38V287.302H298.951V285.38H299.45ZM303.499 287.098V287.515H298.951V287.098H303.499ZM302.894 282.974V283.4H301.143V282.974H302.894ZM303.287 280.725V285.903H302.787V280.725H303.287Z" fill="#666464"/>
<path d="M312.842 284.071V284.496H306.493V284.071H312.842ZM309.659 285.167C310.158 285.167 310.584 285.216 310.935 285.314C311.287 285.412 311.565 285.551 311.762 285.74C311.958 285.928 312.048 286.149 312.048 286.41C312.048 286.672 311.95 286.901 311.762 287.081C311.574 287.269 311.295 287.409 310.944 287.507C310.584 287.605 310.158 287.654 309.659 287.654C309.16 287.654 308.735 287.605 308.375 287.507C308.015 287.409 307.745 287.269 307.549 287.081C307.36 286.893 307.262 286.672 307.262 286.41C307.262 286.149 307.36 285.92 307.549 285.74C307.737 285.56 308.015 285.412 308.375 285.314C308.735 285.216 309.16 285.167 309.659 285.167ZM312.04 281.027V281.453H307.794V283.13H307.303V281.027H312.04ZM312.089 282.934V283.351H307.303V282.934H312.089ZM309.659 285.568C309.275 285.568 308.939 285.601 308.653 285.674C308.367 285.74 308.154 285.838 307.998 285.969C307.843 286.1 307.769 286.247 307.769 286.419C307.769 286.59 307.843 286.746 307.998 286.869C308.154 286.991 308.367 287.089 308.653 287.155C308.939 287.22 309.275 287.253 309.659 287.253C310.044 287.253 310.379 287.22 310.665 287.155C310.952 287.089 311.165 286.991 311.32 286.869C311.475 286.746 311.549 286.59 311.557 286.419C311.557 286.247 311.475 286.091 311.32 285.969C311.165 285.838 310.952 285.74 310.665 285.674C310.379 285.609 310.044 285.568 309.659 285.568Z" fill="#666464"/>
<path d="M315 284.659C315 285.322 314.918 285.952 314.747 286.549C314.575 287.147 314.329 287.703 314.002 288.235H313.52C313.7 287.948 313.863 287.613 314.002 287.212C314.141 286.811 314.248 286.402 314.329 285.952C314.411 285.51 314.444 285.077 314.444 284.651C314.444 284.226 314.403 283.792 314.329 283.351C314.248 282.909 314.141 282.492 314.002 282.091C313.863 281.69 313.7 281.354 313.52 281.076H314.002C314.329 281.6 314.583 282.164 314.747 282.761C314.91 283.359 315 283.989 315 284.651V284.659Z" fill="#666464"/>
<path d="M38.7832 25.4102V239.475H307.997" stroke="#DDDDDD" stroke-width="1.05" stroke-miterlimit="10" stroke-linecap="round"/>
<path d="M20.1475 240.44V239.671L22.5527 237.242C22.839 236.947 23.0599 236.702 23.2154 236.513C23.3708 236.325 23.4853 236.145 23.5753 235.965C23.6571 235.785 23.698 235.597 23.698 235.401C23.698 235.18 23.6408 234.984 23.5262 234.812C23.4117 234.64 23.2563 234.509 23.0681 234.419C22.8717 234.329 22.6509 234.28 22.4136 234.28C22.1764 234.28 21.9391 234.329 21.7509 234.427C21.5628 234.525 21.4155 234.673 21.3092 234.861C21.2028 235.049 21.1537 235.262 21.1537 235.507H20.1475C20.1475 235.09 20.2456 234.722 20.442 234.403C20.6383 234.084 20.9083 233.838 21.2519 233.658C21.5955 233.486 21.9882 233.396 22.43 233.396C22.8717 233.396 23.2563 233.478 23.5999 233.65C23.9435 233.822 24.2134 234.059 24.4016 234.354C24.5898 234.648 24.6961 234.992 24.6961 235.36C24.6961 235.63 24.647 235.884 24.5407 236.129C24.4425 236.374 24.2707 236.644 24.0335 236.947C23.7962 237.242 23.4526 237.61 23.019 238.043L21.6119 239.475V239.524H24.8107V240.432H20.1475V240.44Z" fill="#545251"/>
<path d="M28.4011 240.555C27.8694 240.555 27.4112 240.415 27.0267 240.137C26.6422 239.859 26.3559 239.45 26.1513 238.91C25.955 238.37 25.8486 237.732 25.8486 236.979C25.8486 236.227 25.9468 235.589 26.1513 235.057C26.3559 234.525 26.6422 234.116 27.0267 233.83C27.4112 233.552 27.8612 233.404 28.3929 233.404C28.9247 233.404 29.3828 233.543 29.7592 233.83C30.1437 234.116 30.43 234.517 30.6345 235.057C30.8391 235.589 30.9372 236.227 30.9372 236.979C30.9372 237.732 30.8391 238.378 30.6345 238.91C30.43 239.45 30.1437 239.859 29.7592 240.137C29.3747 240.415 28.9165 240.555 28.3848 240.555H28.4011ZM28.4011 239.646C28.712 239.646 28.982 239.548 29.211 239.336C29.4319 239.131 29.6037 238.828 29.7264 238.427C29.8492 238.027 29.9064 237.544 29.9064 236.971C29.9064 236.399 29.8492 235.916 29.7264 235.515C29.6037 235.114 29.4319 234.811 29.211 234.607C28.9902 234.402 28.7202 234.296 28.4093 234.296C28.0984 234.296 27.8366 234.402 27.6076 234.607C27.3867 234.811 27.2149 235.114 27.0922 235.515C26.9694 235.916 26.9122 236.399 26.9122 236.971C26.9122 237.544 26.9694 238.027 27.0922 238.427C27.2067 238.828 27.3785 239.131 27.6076 239.336C27.8284 239.54 28.0984 239.646 28.4093 239.646H28.4011Z" fill="#545251"/>
<path d="M35.3558 256.009V255.24L37.7611 252.81C38.0474 252.515 38.2683 252.27 38.4237 252.082C38.5792 251.894 38.6937 251.714 38.7755 251.534C38.8573 251.354 38.8982 251.166 38.8982 250.969C38.8982 250.748 38.841 250.552 38.7264 250.38C38.6119 250.208 38.4565 250.077 38.2683 249.987C38.0719 249.897 37.8511 249.848 37.6138 249.848C37.3766 249.848 37.1393 249.897 36.9511 249.996C36.763 250.094 36.6157 250.241 36.5094 250.429C36.403 250.617 36.3539 250.83 36.3539 251.076H35.3477C35.3477 250.658 35.4458 250.29 35.6422 249.971C35.8385 249.652 36.1085 249.407 36.4521 249.227C36.7957 249.055 37.1884 248.965 37.6302 248.965C38.0719 248.965 38.4565 249.047 38.8001 249.218C39.1437 249.39 39.4136 249.628 39.6018 249.922C39.79 250.217 39.8963 250.56 39.8963 250.928C39.8963 251.198 39.8472 251.452 39.7409 251.697C39.6427 251.943 39.4709 252.213 39.2337 252.515C38.9964 252.81 38.6528 253.178 38.2192 253.612L36.8121 255.043V255.092H40.0109V256.001H35.3477L35.3558 256.009Z" fill="#545251"/>
<path d="M43.6101 256.123C43.0783 256.123 42.6202 255.984 42.2357 255.706C41.8512 255.428 41.5648 255.018 41.3603 254.479C41.164 253.939 41.0576 253.3 41.0576 252.548C41.0576 251.795 41.1558 251.157 41.3603 250.625C41.5648 250.093 41.8512 249.684 42.2357 249.398C42.6202 249.112 43.0702 248.973 43.6019 248.973C44.1337 248.973 44.5918 249.112 44.9682 249.398C45.3527 249.684 45.639 250.085 45.8435 250.625C46.0481 251.157 46.1462 251.795 46.1462 252.548C46.1462 253.3 46.0481 253.947 45.8435 254.479C45.639 255.018 45.3527 255.428 44.9682 255.706C44.5836 255.984 44.1255 256.123 43.5937 256.123H43.6101ZM43.6101 255.215C43.921 255.215 44.191 255.117 44.42 254.904C44.6409 254.699 44.8127 254.397 44.9354 253.996C45.0581 253.595 45.1154 253.112 45.1154 252.54C45.1154 251.967 45.0581 251.484 44.9354 251.083C44.8127 250.682 44.6409 250.38 44.42 250.175C44.1991 249.971 43.9292 249.864 43.6183 249.864C43.3074 249.864 43.0456 249.971 42.8165 250.175C42.5957 250.38 42.4239 250.682 42.3011 251.083C42.1784 251.484 42.1212 251.967 42.1212 252.54C42.1212 253.112 42.1784 253.595 42.3011 253.996C42.4239 254.397 42.5875 254.699 42.8165 254.904C43.0374 255.108 43.3074 255.215 43.6183 255.215H43.6101Z" fill="#545251"/>
<path d="M79.558 256.009V255.24L81.9632 252.81C82.2495 252.515 82.4704 252.27 82.6259 252.082C82.7813 251.894 82.8959 251.714 82.9777 251.534C83.0595 251.354 83.1004 251.166 83.1004 250.969C83.1004 250.748 83.0431 250.552 82.9286 250.38C82.814 250.208 82.6586 250.077 82.4704 249.987C82.2741 249.897 82.0532 249.848 81.816 249.848C81.5787 249.848 81.3415 249.897 81.1533 249.996C80.9651 250.094 80.8179 250.241 80.7115 250.429C80.6052 250.617 80.5561 250.83 80.5561 251.076H79.5498C79.5498 250.658 79.648 250.29 79.8443 249.971C80.0407 249.652 80.3106 249.407 80.6542 249.227C80.9978 249.055 81.3905 248.965 81.8323 248.965C82.2741 248.965 82.6586 249.047 83.0022 249.218C83.3458 249.39 83.6158 249.628 83.8039 249.922C83.9921 250.217 84.0985 250.56 84.0985 250.928C84.0985 251.198 84.0494 251.452 83.943 251.697C83.8449 251.943 83.6731 252.213 83.4358 252.515C83.1986 252.81 82.8549 253.178 82.4214 253.612L81.0142 255.043V255.092H84.213V256.001H79.5498L79.558 256.009Z" fill="#545251"/>
<path d="M85.3994 256.009V255.24L87.8046 252.81C88.091 252.515 88.3119 252.27 88.4673 252.082C88.6227 251.894 88.7373 251.714 88.8273 251.534C88.9091 251.354 88.95 251.166 88.95 250.969C88.95 250.748 88.8927 250.552 88.7782 250.38C88.6637 250.208 88.5082 250.077 88.32 249.987C88.1237 249.897 87.9028 249.848 87.6656 249.848C87.4283 249.848 87.1911 249.897 87.0029 249.996C86.8147 250.094 86.6675 250.241 86.5611 250.429C86.4548 250.617 86.4057 250.83 86.4057 251.076H85.3994C85.3994 250.658 85.4976 250.29 85.6939 249.971C85.8903 249.652 86.1603 249.407 86.5039 249.227C86.8475 249.055 87.2402 248.965 87.6819 248.965C88.1237 248.965 88.5082 249.047 88.8518 249.218C89.1954 249.39 89.4654 249.628 89.6536 249.922C89.8417 250.217 89.9481 250.56 89.9481 250.928C89.9481 251.198 89.899 251.452 89.7926 251.697C89.6945 251.943 89.5227 252.213 89.2854 252.515C89.0482 252.81 88.7046 253.178 88.271 253.612L86.8638 255.043V255.092H90.0626V256.001H85.3994V256.009Z" fill="#545251"/>
<path d="M304.169 256.108C303.695 256.108 303.277 256.027 302.901 255.871C302.525 255.708 302.23 255.487 302.017 255.2C301.805 254.914 301.69 254.579 301.674 254.202H302.737C302.746 254.399 302.819 254.579 302.942 254.726C303.073 254.881 303.236 254.996 303.449 255.078C303.662 255.159 303.891 255.2 304.153 255.2C304.431 255.2 304.676 255.151 304.897 255.061C305.118 254.971 305.29 254.832 305.413 254.66C305.535 254.489 305.601 254.292 305.593 254.071C305.593 253.842 305.535 253.638 305.413 253.458C305.29 253.278 305.11 253.139 304.873 253.041C304.635 252.942 304.357 252.893 304.03 252.893H303.441V252.034H304.03C304.292 252.034 304.521 251.985 304.725 251.895C304.93 251.805 305.085 251.674 305.2 251.511C305.314 251.347 305.372 251.151 305.372 250.93C305.372 250.709 305.323 250.537 305.224 250.374C305.126 250.21 304.987 250.087 304.799 249.997C304.619 249.907 304.406 249.866 304.161 249.866C303.915 249.866 303.711 249.907 303.506 249.989C303.302 250.071 303.138 250.185 303.016 250.341C302.893 250.496 302.819 250.676 302.811 250.873H301.797C301.805 250.504 301.919 250.177 302.132 249.883C302.345 249.596 302.631 249.367 302.983 249.212C303.343 249.056 303.735 248.975 304.169 248.975C304.603 248.975 305.004 249.056 305.339 249.228C305.674 249.4 305.936 249.629 306.116 249.915C306.296 250.202 306.386 250.521 306.386 250.864C306.386 251.118 306.337 251.355 306.239 251.56C306.141 251.773 305.993 251.944 305.813 252.092C305.633 252.239 305.413 252.337 305.167 252.394V252.452C305.478 252.492 305.748 252.591 305.969 252.746C306.19 252.893 306.362 253.09 306.484 253.319C306.607 253.548 306.656 253.81 306.656 254.104C306.656 254.48 306.55 254.824 306.337 255.127C306.124 255.429 305.822 255.675 305.437 255.847C305.053 256.018 304.627 256.108 304.153 256.108H304.169Z" fill="#545251"/>
<path d="M307.835 256.011V255.242L310.241 252.812C310.527 252.517 310.748 252.272 310.903 252.084C311.059 251.896 311.173 251.716 311.255 251.536C311.337 251.356 311.378 251.168 311.378 250.971C311.378 250.75 311.32 250.554 311.206 250.382C311.091 250.21 310.936 250.079 310.748 249.989C310.551 249.899 310.331 249.85 310.093 249.85C309.856 249.85 309.619 249.899 309.431 249.998C309.242 250.096 309.095 250.243 308.989 250.431C308.882 250.619 308.833 250.832 308.833 251.078H307.827C307.827 250.66 307.925 250.292 308.122 249.973C308.318 249.654 308.588 249.409 308.94 249.229C309.283 249.057 309.676 248.967 310.118 248.967C310.56 248.967 310.944 249.049 311.288 249.22C311.631 249.392 311.901 249.629 312.089 249.924C312.278 250.219 312.384 250.562 312.384 250.93C312.384 251.2 312.327 251.454 312.229 251.699C312.13 251.945 311.959 252.215 311.721 252.509C311.484 252.804 311.14 253.172 310.707 253.605L309.3 255.037V255.086H312.499V255.994H307.835V256.011Z" fill="#545251"/>
<path d="M124.938 256.009V255.24L127.344 252.81C127.63 252.515 127.851 252.27 128.006 252.082C128.162 251.894 128.276 251.714 128.366 251.534C128.448 251.354 128.489 251.166 128.489 250.969C128.489 250.748 128.432 250.552 128.317 250.38C128.203 250.208 128.047 250.077 127.859 249.987C127.663 249.897 127.442 249.848 127.205 249.848C126.967 249.848 126.73 249.897 126.542 249.996C126.354 250.094 126.207 250.241 126.1 250.429C125.994 250.617 125.945 250.83 125.945 251.076H124.938C124.938 250.658 125.037 250.29 125.233 249.971C125.429 249.652 125.699 249.407 126.043 249.227C126.387 249.055 126.779 248.965 127.221 248.965C127.663 248.965 128.047 249.047 128.391 249.218C128.734 249.39 129.004 249.628 129.193 249.922C129.381 250.217 129.487 250.56 129.487 250.928C129.487 251.198 129.438 251.452 129.332 251.697C129.234 251.943 129.062 252.213 128.824 252.507C128.587 252.802 128.244 253.17 127.81 253.604L126.403 255.035V255.084H129.602V255.992H124.938V256.009Z" fill="#545251"/>
<path d="M130.484 254.658V253.808L133.552 249.071H134.223V250.322H133.79L131.597 253.709V253.767H135.81V254.658H130.493H130.484ZM133.847 256.008V254.004V249.062H134.845V256.008H133.839H133.847Z" fill="#545251"/>
<path d="M166.72 256.009V255.24L169.051 252.81C169.329 252.507 169.542 252.27 169.698 252.082C169.845 251.894 169.959 251.714 170.041 251.534C170.123 251.354 170.164 251.166 170.164 250.969C170.164 250.748 170.107 250.552 170 250.38C169.894 250.208 169.739 250.077 169.55 249.987C169.362 249.897 169.149 249.848 168.912 249.848C168.675 249.848 168.454 249.897 168.266 249.996C168.086 250.094 167.939 250.241 167.841 250.429C167.742 250.617 167.693 250.83 167.693 251.076H166.72C166.72 250.658 166.818 250.29 167.006 249.971C167.194 249.652 167.456 249.407 167.791 249.227C168.127 249.055 168.511 248.965 168.937 248.965C169.362 248.965 169.739 249.047 170.074 249.218C170.409 249.39 170.663 249.628 170.851 249.922C171.039 250.225 171.129 250.56 171.137 250.936C171.137 251.206 171.088 251.46 170.99 251.705C170.892 251.951 170.728 252.221 170.499 252.515C170.27 252.81 169.943 253.178 169.518 253.612L168.151 255.043V255.092H171.252V256.001H166.736L166.72 256.009Z" fill="#545251"/>
<path d="M174.811 256.107C174.352 256.107 173.935 255.992 173.559 255.779C173.183 255.567 172.872 255.215 172.634 254.724C172.397 254.225 172.274 253.579 172.274 252.769C172.274 251.959 172.381 251.288 172.593 250.723C172.806 250.151 173.109 249.725 173.502 249.423C173.894 249.128 174.361 248.973 174.901 248.973C175.31 248.973 175.67 249.054 175.997 249.218C176.324 249.382 176.586 249.603 176.782 249.889C176.987 250.175 177.109 250.503 177.159 250.871H176.152C176.103 250.683 176.021 250.511 175.915 250.363C175.8 250.216 175.661 250.102 175.49 250.02C175.318 249.938 175.121 249.897 174.901 249.897C174.557 249.897 174.262 249.995 174.017 250.2C173.772 250.396 173.583 250.691 173.452 251.059C173.322 251.435 173.264 251.877 173.264 252.401H173.338C173.461 252.204 173.608 252.032 173.78 251.893C173.96 251.754 174.156 251.648 174.369 251.574C174.581 251.501 174.819 251.468 175.056 251.468C175.449 251.468 175.817 251.566 176.144 251.762C176.479 251.959 176.733 252.229 176.929 252.572C177.118 252.924 177.216 253.309 177.216 253.742C177.216 254.176 177.118 254.593 176.913 254.953C176.709 255.313 176.43 255.599 176.062 255.804C175.694 256.008 175.277 256.107 174.802 256.107H174.811ZM174.802 255.223C175.064 255.223 175.31 255.158 175.522 255.027C175.735 254.896 175.907 254.716 176.038 254.495C176.169 254.274 176.226 254.029 176.226 253.759C176.226 253.489 176.169 253.251 176.046 253.039C175.923 252.818 175.76 252.646 175.547 252.515C175.334 252.384 175.097 252.319 174.827 252.319C174.557 252.319 174.32 252.384 174.099 252.523C173.878 252.662 173.706 252.834 173.575 253.063C173.444 253.284 173.379 253.521 173.379 253.783C173.379 254.037 173.444 254.274 173.567 254.503C173.69 254.724 173.862 254.904 174.082 255.035C174.303 255.166 174.541 255.231 174.811 255.231L174.802 255.223Z" fill="#545251"/>
<path d="M213.343 256.009V255.24L215.748 252.81C216.034 252.507 216.255 252.27 216.411 252.082C216.566 251.894 216.681 251.714 216.771 251.534C216.852 251.354 216.893 251.166 216.893 250.969C216.893 250.748 216.836 250.552 216.722 250.38C216.607 250.208 216.452 250.077 216.263 249.987C216.067 249.897 215.854 249.848 215.609 249.848C215.363 249.848 215.134 249.897 214.946 249.996C214.758 250.094 214.611 250.241 214.504 250.429C214.398 250.617 214.349 250.83 214.349 251.076H213.343C213.343 250.658 213.441 250.29 213.637 249.971C213.834 249.652 214.104 249.407 214.447 249.227C214.791 249.055 215.184 248.965 215.625 248.965C216.067 248.965 216.452 249.047 216.795 249.218C217.139 249.39 217.409 249.628 217.597 249.922C217.793 250.225 217.891 250.56 217.891 250.936C217.891 251.206 217.842 251.46 217.736 251.705C217.638 251.951 217.466 252.221 217.229 252.515C216.992 252.818 216.648 253.178 216.214 253.612L214.807 255.043V255.092H218.006V256.001H213.343V256.009Z" fill="#545251"/>
<path d="M221.605 256.107C221.106 256.107 220.664 256.025 220.28 255.853C219.887 255.689 219.593 255.452 219.372 255.158C219.159 254.863 219.053 254.528 219.053 254.159C219.053 253.873 219.11 253.603 219.241 253.35C219.364 253.096 219.544 252.891 219.764 252.728C219.985 252.564 220.231 252.458 220.501 252.417V252.376C220.264 252.327 220.059 252.221 219.879 252.073C219.699 251.926 219.56 251.746 219.462 251.525C219.364 251.312 219.315 251.075 219.315 250.822C219.315 250.47 219.413 250.159 219.609 249.873C219.805 249.586 220.084 249.365 220.427 249.21C220.779 249.054 221.172 248.973 221.605 248.973C222.039 248.973 222.423 249.054 222.767 249.21C223.111 249.374 223.389 249.586 223.585 249.873C223.781 250.159 223.88 250.47 223.88 250.822C223.88 251.075 223.83 251.304 223.732 251.525C223.634 251.746 223.495 251.926 223.315 252.073C223.135 252.221 222.931 252.319 222.701 252.376V252.417C222.971 252.458 223.209 252.564 223.43 252.728C223.65 252.891 223.822 253.104 223.953 253.35C224.084 253.603 224.15 253.873 224.15 254.159C224.15 254.536 224.035 254.863 223.814 255.158C223.593 255.452 223.291 255.681 222.906 255.853C222.521 256.017 222.08 256.107 221.597 256.107H221.605ZM221.605 255.248C221.9 255.248 222.162 255.198 222.382 255.1C222.603 255.002 222.775 254.871 222.898 254.691C223.021 254.519 223.078 254.315 223.078 254.086C223.078 253.857 223.012 253.644 222.89 253.456C222.767 253.268 222.587 253.12 222.358 253.014C222.137 252.908 221.883 252.85 221.597 252.85C221.311 252.85 221.057 252.908 220.836 253.014C220.607 253.12 220.435 253.268 220.304 253.456C220.174 253.644 220.116 253.857 220.124 254.086C220.124 254.315 220.174 254.519 220.296 254.691C220.419 254.863 220.591 255.002 220.812 255.1C221.041 255.198 221.303 255.248 221.597 255.248H221.605ZM221.605 252.016C221.842 252.016 222.063 251.967 222.252 251.877C222.44 251.779 222.595 251.656 222.701 251.484C222.808 251.312 222.865 251.124 222.865 250.912C222.865 250.699 222.816 250.511 222.71 250.347C222.603 250.183 222.456 250.053 222.268 249.963C222.08 249.873 221.859 249.823 221.613 249.823C221.368 249.823 221.139 249.873 220.951 249.963C220.763 250.053 220.615 250.183 220.509 250.347C220.403 250.511 220.354 250.699 220.354 250.912C220.354 251.124 220.411 251.321 220.517 251.484C220.623 251.648 220.771 251.779 220.967 251.877C221.155 251.967 221.376 252.016 221.622 252.016H221.605Z" fill="#545251"/>
<path d="M257.503 256.108C257.045 256.108 256.636 256.027 256.276 255.871C255.916 255.708 255.629 255.487 255.425 255.2C255.22 254.914 255.106 254.579 255.098 254.202H256.128C256.137 254.399 256.202 254.579 256.325 254.726C256.448 254.873 256.611 254.996 256.816 255.078C257.02 255.159 257.249 255.2 257.495 255.2C257.765 255.2 258.002 255.151 258.215 255.061C258.427 254.963 258.591 254.832 258.714 254.66C258.836 254.489 258.894 254.292 258.894 254.071C258.894 253.842 258.836 253.638 258.722 253.458C258.599 253.278 258.427 253.139 258.198 253.041C257.969 252.942 257.699 252.893 257.38 252.893H256.807V252.034H257.38C257.634 252.034 257.855 251.985 258.059 251.895C258.264 251.805 258.411 251.674 258.517 251.511C258.624 251.347 258.681 251.151 258.681 250.93C258.681 250.709 258.632 250.537 258.542 250.374C258.452 250.21 258.313 250.087 258.133 249.997C257.953 249.907 257.748 249.866 257.519 249.866C257.29 249.866 257.077 249.907 256.889 249.989C256.693 250.071 256.538 250.194 256.415 250.341C256.292 250.496 256.227 250.676 256.218 250.873H255.237C255.245 250.504 255.359 250.177 255.556 249.883C255.76 249.596 256.038 249.367 256.382 249.212C256.726 249.056 257.11 248.975 257.527 248.975C257.945 248.975 258.329 249.056 258.656 249.228C258.984 249.4 259.229 249.629 259.409 249.915C259.589 250.202 259.671 250.521 259.671 250.864C259.671 251.118 259.622 251.355 259.524 251.56C259.425 251.764 259.286 251.944 259.106 252.092C258.926 252.239 258.722 252.337 258.476 252.394V252.452C258.779 252.501 259.033 252.591 259.254 252.746C259.466 252.893 259.638 253.09 259.744 253.319C259.851 253.548 259.916 253.81 259.908 254.104C259.908 254.48 259.81 254.824 259.597 255.127C259.385 255.429 259.098 255.675 258.73 255.847C258.362 256.018 257.945 256.108 257.487 256.108H257.503Z" fill="#545251"/>
<path d="M263.378 256.125C262.863 256.125 262.421 255.986 262.053 255.708C261.685 255.429 261.398 255.02 261.21 254.48C261.022 253.941 260.924 253.302 260.924 252.55C260.924 251.797 261.022 251.159 261.218 250.627C261.415 250.095 261.693 249.686 262.069 249.4C262.437 249.122 262.879 248.975 263.386 248.975C263.894 248.975 264.344 249.114 264.712 249.4C265.08 249.678 265.366 250.087 265.562 250.627C265.759 251.159 265.857 251.805 265.857 252.55C265.857 253.294 265.759 253.949 265.562 254.48C265.366 255.012 265.088 255.429 264.72 255.708C264.352 255.986 263.91 256.125 263.394 256.125H263.378ZM263.378 255.217C263.681 255.217 263.943 255.11 264.155 254.906C264.368 254.701 264.54 254.399 264.654 253.998C264.769 253.597 264.826 253.114 264.826 252.542C264.826 251.969 264.769 251.486 264.654 251.085C264.54 250.684 264.376 250.382 264.155 250.177C263.943 249.973 263.681 249.866 263.378 249.866C263.075 249.866 262.822 249.973 262.601 250.177C262.388 250.382 262.216 250.684 262.102 251.085C261.987 251.486 261.93 251.969 261.93 252.542C261.93 253.114 261.987 253.597 262.102 253.998C262.216 254.399 262.38 254.701 262.601 254.906C262.822 255.11 263.075 255.217 263.378 255.217Z" fill="#545251"/>
<g opacity="0.4">
<path opacity="0.5" d="M39.3154 128.574H307.997" stroke="#172A88" stroke-opacity="0.5" stroke-width="0.5" stroke-miterlimit="10" stroke-linecap="round"/>
<path opacity="0.32" d="M39.3154 27.2109H307.997" stroke="#172A88" stroke-width="0.5" stroke-miterlimit="10" stroke-linecap="round"/>
<path opacity="0.32" d="M39.3154 75.4453H307.727" stroke="#172A88" stroke-width="0.5" stroke-miterlimit="10" stroke-linecap="round"/>
<path opacity="0.25" d="M39.3154 181.701H307.997" stroke="#172A88" stroke-width="0.5" stroke-miterlimit="10" stroke-linecap="round"/>
<path opacity="0.5" d="M173.968 28.1523V238.855" stroke="#172A88" stroke-opacity="0.5" stroke-width="0.5" stroke-miterlimit="10" stroke-linecap="round"/>
<path opacity="0.25" d="M218.646 28.1523V238.855" stroke="#172A88" stroke-width="0.5" stroke-miterlimit="10" stroke-linecap="round"/>
<path opacity="0.25" d="M263.321 28.1523V238.855" stroke="#172A88" stroke-width="0.5" stroke-miterlimit="10" stroke-linecap="round"/>
<path opacity="0.32" d="M307.998 28.1523V238.855" stroke="#172A88" stroke-width="0.5" stroke-miterlimit="10" stroke-linecap="round"/>
<path opacity="0.25" d="M84.6152 28.1523V238.855" stroke="#172A88" stroke-width="0.5" stroke-miterlimit="10" stroke-linecap="round"/>
<path opacity="0.25" d="M129.292 28.1523V238.855" stroke="#172A88" stroke-width="0.5" stroke-miterlimit="10" stroke-linecap="round"/>
</g>
<path d="M22.6095 132.091C22.135 132.091 21.7177 132.009 21.3414 131.854C20.9651 131.69 20.6706 131.469 20.4579 131.183C20.2452 130.896 20.1306 130.561 20.1143 130.185H21.186C21.1942 130.381 21.2678 130.561 21.3905 130.708C21.5132 130.856 21.685 130.978 21.8977 131.06C22.1104 131.142 22.3395 131.183 22.6013 131.183C22.8795 131.183 23.1249 131.134 23.3458 131.044C23.5667 130.946 23.7385 130.815 23.8612 130.643C23.9839 130.471 24.0493 130.275 24.0412 130.054C24.0412 129.825 23.9839 129.62 23.8612 129.44C23.7385 129.26 23.5585 129.121 23.3212 129.023C23.084 128.925 22.8058 128.876 22.4786 128.876H21.8895V128.017H22.4786C22.7404 128.017 22.9694 127.968 23.174 127.878C23.3785 127.788 23.5339 127.657 23.6485 127.493C23.763 127.33 23.8203 127.133 23.8203 126.912C23.8203 126.691 23.7712 126.52 23.673 126.356C23.5748 126.192 23.4358 126.07 23.2476 125.98C23.0676 125.89 22.8549 125.849 22.6095 125.849C22.364 125.849 22.1595 125.89 21.955 125.971C21.7505 126.053 21.5868 126.176 21.4641 126.323C21.3414 126.471 21.2678 126.659 21.2596 126.855H20.2615C20.2697 126.487 20.3842 126.16 20.5969 125.865C20.8096 125.571 21.096 125.35 21.4478 125.194C21.8077 125.039 22.2004 124.957 22.634 124.957C23.0676 124.957 23.4685 125.039 23.8039 125.211C24.1393 125.382 24.4011 125.612 24.5811 125.898C24.7611 126.184 24.8511 126.503 24.8511 126.847C24.8511 127.1 24.802 127.338 24.7038 127.542C24.6057 127.747 24.4584 127.927 24.2784 128.074C24.0984 128.221 23.8775 128.319 23.6321 128.377V128.434C23.943 128.483 24.213 128.573 24.4339 128.728C24.6547 128.876 24.8265 129.072 24.9493 129.301C25.072 129.53 25.1211 129.792 25.1211 130.087C25.1211 130.463 25.0147 130.806 24.802 131.109C24.5893 131.412 24.2866 131.657 23.9021 131.829C23.5176 132.001 23.0922 132.091 22.6177 132.091H22.6095Z" fill="#545251"/>
<path d="M28.6892 132.107C28.1574 132.107 27.6993 131.968 27.3148 131.69C26.9303 131.412 26.6439 131.003 26.4394 130.463C26.2349 129.923 26.1367 129.285 26.1367 128.532C26.1367 127.779 26.2349 127.141 26.4394 126.61C26.6439 126.078 26.9303 125.669 27.3148 125.382C27.6993 125.104 28.1493 124.957 28.681 124.957C29.2128 124.957 29.6709 125.096 30.0473 125.382C30.4318 125.661 30.7181 126.07 30.9226 126.61C31.1272 127.141 31.2253 127.788 31.2253 128.532C31.2253 129.277 31.1272 129.931 30.9226 130.463C30.7181 131.003 30.4318 131.412 30.0473 131.69C29.6628 131.968 29.2046 132.107 28.6728 132.107H28.6892ZM28.6892 131.199C29.0001 131.199 29.2701 131.093 29.4991 130.888C29.72 130.684 29.8918 130.381 30.0145 129.98C30.1373 129.579 30.1945 129.097 30.1945 128.524C30.1945 127.951 30.1373 127.469 30.0145 127.068C29.8918 126.667 29.72 126.364 29.4991 126.16C29.2782 125.955 29.0083 125.849 28.6974 125.849C28.3865 125.849 28.1247 125.955 27.8956 126.16C27.6748 126.364 27.503 126.667 27.3802 127.068C27.2575 127.469 27.2003 127.951 27.2003 128.524C27.2003 129.097 27.2575 129.579 27.3802 129.98C27.4948 130.381 27.6666 130.684 27.8956 130.888C28.1165 131.093 28.3865 131.199 28.6974 131.199H28.6892Z" fill="#545251"/>
<path d="M20.54 187.444V186.675L22.9453 184.245C23.2316 183.943 23.4525 183.706 23.6079 183.517C23.7634 183.329 23.8779 183.149 23.9679 182.969C24.0497 182.789 24.0906 182.601 24.0906 182.405C24.0906 182.184 24.0333 181.988 23.9188 181.816C23.8043 181.644 23.6488 181.513 23.4607 181.423C23.2643 181.333 23.0434 181.284 22.8062 181.284C22.5689 181.284 22.3317 181.333 22.1435 181.431C21.9554 181.529 21.8081 181.677 21.7017 181.865C21.5954 182.053 21.5463 182.266 21.5463 182.511H20.54C20.54 182.094 20.6382 181.726 20.8346 181.407C21.0309 181.088 21.3009 180.842 21.6445 180.662C21.9881 180.49 22.3808 180.4 22.8226 180.4C23.2643 180.4 23.6488 180.482 23.9924 180.654C24.336 180.826 24.606 181.063 24.7942 181.358C24.9905 181.66 25.0887 181.996 25.0887 182.372C25.0887 182.642 25.0396 182.896 24.9333 183.141C24.8351 183.386 24.6633 183.656 24.426 183.951C24.1888 184.245 23.8452 184.614 23.4116 185.047L22.0044 186.479V186.528H25.2032V187.436H20.54V187.444Z" fill="#545251"/>
<path d="M28.736 187.542C28.3024 187.542 27.9097 187.46 27.558 187.296C27.2062 187.133 26.928 186.903 26.7153 186.617C26.5108 186.331 26.3962 186.004 26.3799 185.635H27.4107C27.4271 185.832 27.4925 186.004 27.6152 186.159C27.7379 186.314 27.8934 186.437 28.0897 186.527C28.2861 186.617 28.4988 186.658 28.7278 186.658C29.006 186.658 29.2514 186.593 29.4723 186.47C29.6932 186.347 29.865 186.175 29.9877 185.954C30.1104 185.742 30.1759 185.496 30.1759 185.218C30.1759 184.94 30.1104 184.695 29.9877 184.474C29.8568 184.253 29.685 184.073 29.456 183.95C29.2269 183.827 28.9733 183.762 28.6869 183.754C28.4006 183.754 28.1552 183.803 27.9425 183.901C27.7379 183.999 27.5743 184.155 27.4598 184.367H26.4699L26.928 180.506H30.8631V181.414H27.8034L27.5661 183.353H27.6316C27.7298 183.263 27.8443 183.181 27.9834 183.116C28.1224 183.05 28.2697 182.993 28.4333 182.952C28.5969 182.911 28.7606 182.895 28.9406 182.895C29.3741 182.895 29.7587 182.993 30.1104 183.189C30.454 183.386 30.724 183.664 30.9204 184.016C31.1167 184.367 31.2149 184.768 31.2149 185.202C31.2149 185.635 31.1085 186.053 30.8958 186.404C30.6831 186.764 30.3968 187.043 30.0204 187.239C29.6441 187.443 29.2187 187.542 28.7442 187.542H28.736Z" fill="#545251"/>
<path d="M23.2471 149.853V149.28L25.0469 147.456C25.2678 147.235 25.4314 147.047 25.5459 146.908C25.6605 146.769 25.7505 146.63 25.8159 146.499C25.8814 146.368 25.9059 146.229 25.9059 146.081C25.9059 145.91 25.865 145.771 25.775 145.64C25.6932 145.509 25.5787 145.411 25.4314 145.345C25.2842 145.28 25.1205 145.239 24.9405 145.239C24.7606 145.239 24.5806 145.28 24.4415 145.353C24.3024 145.427 24.1879 145.533 24.1143 145.672C24.0406 145.812 23.9997 145.975 23.9997 146.155H23.2471C23.2471 145.844 23.3207 145.566 23.468 145.329C23.6152 145.092 23.8197 144.903 24.0815 144.773C24.3433 144.642 24.6378 144.576 24.9651 144.576C25.2923 144.576 25.5869 144.642 25.8486 144.764C26.1023 144.895 26.3068 145.067 26.454 145.296C26.6013 145.525 26.6749 145.771 26.6749 146.057C26.6749 146.253 26.634 146.45 26.5604 146.63C26.4868 146.81 26.3559 147.014 26.1841 147.243C26.0041 147.464 25.7505 147.742 25.4232 148.061L24.3679 149.141V149.182H26.7649V149.861H23.2634L23.2471 149.853Z" fill="#9E9E9E"/>
<path d="M29.4413 149.926C29.0731 149.926 28.7377 149.861 28.4432 149.738C28.1487 149.615 27.9278 149.435 27.7642 149.214C27.6006 148.994 27.5187 148.74 27.5269 148.462C27.5269 148.249 27.576 148.045 27.666 147.856C27.7642 147.668 27.8951 147.513 28.0587 147.39C28.2223 147.267 28.4105 147.186 28.615 147.153V147.128C28.4432 147.087 28.2878 147.014 28.1487 146.907C28.0178 146.793 27.9114 146.662 27.8378 146.498C27.7642 146.335 27.7233 146.163 27.7233 145.975C27.7233 145.713 27.7969 145.476 27.9442 145.263C28.0914 145.05 28.2959 144.887 28.5577 144.764C28.8195 144.641 29.114 144.584 29.4413 144.584C29.7685 144.584 30.0549 144.641 30.3167 144.764C30.5785 144.887 30.783 145.05 30.9302 145.263C31.0775 145.476 31.1511 145.713 31.1511 145.975C31.1511 146.163 31.1102 146.335 31.0366 146.498C30.963 146.662 30.8566 146.801 30.7257 146.907C30.5948 147.014 30.4394 147.096 30.2676 147.128V147.153C30.4639 147.186 30.6521 147.259 30.8157 147.39C30.9793 147.513 31.1102 147.668 31.2084 147.856C31.3066 148.045 31.3557 148.249 31.3557 148.462C31.3557 148.74 31.2738 148.994 31.1102 149.214C30.9466 149.435 30.7175 149.607 30.4312 149.738C30.1449 149.861 29.8094 149.926 29.4495 149.926H29.4413ZM29.4413 149.28C29.6622 149.28 29.8585 149.247 30.0221 149.174C30.1858 149.1 30.3167 149.002 30.4067 148.871C30.4966 148.74 30.5457 148.585 30.5457 148.421C30.5457 148.257 30.4966 148.085 30.3985 147.946C30.3003 147.807 30.1694 147.693 30.0058 147.619C29.834 147.537 29.6458 147.496 29.4413 147.496C29.2368 147.496 29.0404 147.537 28.8686 147.619C28.6968 147.701 28.5659 147.807 28.4677 147.955C28.3696 148.094 28.3287 148.249 28.3287 148.429C28.3287 148.601 28.3696 148.748 28.4596 148.879C28.5496 149.01 28.6805 149.108 28.8441 149.182C29.0159 149.255 29.2122 149.288 29.4331 149.288L29.4413 149.28ZM29.4413 146.858C29.6213 146.858 29.7849 146.826 29.924 146.752C30.0712 146.678 30.1776 146.58 30.2594 146.457C30.3412 146.335 30.3821 146.187 30.3821 146.032C30.3821 145.877 30.3412 145.729 30.2676 145.607C30.1858 145.484 30.0794 145.386 29.9322 145.32C29.7849 145.255 29.6295 145.222 29.4413 145.222C29.2531 145.222 29.0895 145.255 28.9422 145.32C28.8032 145.386 28.6886 145.484 28.6068 145.607C28.525 145.729 28.4923 145.868 28.4923 146.032C28.4923 146.196 28.5332 146.335 28.615 146.457C28.6968 146.58 28.8114 146.678 28.9504 146.752C29.0895 146.826 29.2531 146.858 29.4413 146.858Z" fill="#9E9E9E"/>
<path d="M26.128 114.265C25.7762 114.265 25.4571 114.208 25.179 114.085C24.9008 113.962 24.6799 113.799 24.5163 113.578C24.3527 113.365 24.2709 113.111 24.2627 112.833H25.0644C25.0726 112.98 25.1217 113.111 25.2199 113.226C25.3181 113.34 25.4408 113.43 25.5962 113.488C25.7516 113.553 25.9316 113.578 26.128 113.578C26.3325 113.578 26.5207 113.545 26.6925 113.471C26.8643 113.398 26.987 113.299 27.077 113.169C27.167 113.038 27.2161 112.89 27.2161 112.727C27.2161 112.555 27.1751 112.4 27.077 112.269C26.987 112.138 26.8479 112.031 26.6761 111.958C26.4961 111.884 26.2916 111.843 26.0462 111.843H25.6044V111.197H26.0462C26.2425 111.197 26.4143 111.164 26.5698 111.091C26.7252 111.017 26.8397 110.927 26.9297 110.796C27.0115 110.673 27.0606 110.526 27.0606 110.362C27.0606 110.199 27.0279 110.068 26.9461 109.945C26.8725 109.823 26.7661 109.733 26.627 109.667C26.4879 109.602 26.3325 109.569 26.1525 109.569C25.9725 109.569 25.8089 109.602 25.6617 109.659C25.5144 109.724 25.3917 109.806 25.2935 109.929C25.2035 110.043 25.1462 110.174 25.1381 110.33H24.3772C24.3854 110.052 24.4672 109.806 24.6308 109.593C24.7863 109.373 24.999 109.209 25.269 109.086C25.5389 108.964 25.8335 108.906 26.1607 108.906C26.4879 108.906 26.7825 108.972 27.0361 109.094C27.2897 109.217 27.486 109.397 27.6169 109.61C27.756 109.823 27.8215 110.06 27.8215 110.322C27.8215 110.51 27.7887 110.69 27.7069 110.845C27.6251 111.001 27.5269 111.132 27.3879 111.238C27.2488 111.344 27.0852 111.418 26.897 111.467V111.508C27.1342 111.541 27.3306 111.614 27.5024 111.729C27.6742 111.843 27.7969 111.982 27.8869 112.162C27.9769 112.334 28.0178 112.53 28.0178 112.751C28.0178 113.038 27.936 113.291 27.7805 113.52C27.6169 113.749 27.396 113.929 27.1097 114.06C26.8234 114.191 26.5043 114.257 26.1443 114.257L26.128 114.265Z" fill="#9E9E9E"/>
<path d="M30.8579 108.989V114.192H30.0643V109.774H30.0316L28.7881 110.584V109.831L30.0807 108.98H30.8497L30.8579 108.989Z" fill="#9E9E9E"/>
<path d="M22.7081 81.5499C22.2336 81.5499 21.8164 81.4681 21.44 81.3126C21.0637 81.149 20.7692 80.9281 20.5565 80.6418C20.3438 80.3555 20.2293 80.02 20.2129 79.6437H21.2846C21.2928 79.8401 21.3664 80.02 21.4891 80.1673C21.6119 80.3146 21.7837 80.4373 21.9964 80.5191C22.2091 80.6009 22.4381 80.6418 22.6999 80.6418C22.9781 80.6418 23.2235 80.5927 23.4444 80.5027C23.6653 80.4045 23.8371 80.2736 23.9598 80.1018C24.0825 79.93 24.148 79.7337 24.1398 79.5128C24.1398 79.2837 24.0825 79.0792 23.9598 78.8992C23.8371 78.7192 23.6571 78.5802 23.4199 78.482C23.1826 78.3838 22.9045 78.3347 22.5772 78.3347H21.9882V77.4757H22.5772C22.839 77.4757 23.0681 77.4266 23.2726 77.3366C23.4771 77.2467 23.6326 77.1158 23.7471 76.9521C23.8616 76.7885 23.9189 76.5922 23.9189 76.3713C23.9189 76.1504 23.8698 75.9786 23.7716 75.815C23.6735 75.6514 23.5344 75.5286 23.3462 75.4386C23.1662 75.3487 22.9535 75.3077 22.7081 75.3077C22.4627 75.3077 22.2582 75.3487 22.0536 75.4305C21.8491 75.5123 21.6855 75.635 21.5628 75.7822C21.44 75.9295 21.3664 76.1177 21.3582 76.314H20.3438C20.352 75.9459 20.4665 75.6186 20.6792 75.3241C20.8919 75.0296 21.1783 74.8087 21.53 74.6533C21.89 74.4978 22.2827 74.416 22.7163 74.416C23.1499 74.416 23.5508 74.4978 23.8862 74.6696C24.2216 74.8414 24.4834 75.0705 24.6634 75.3568C24.8434 75.6432 24.9334 75.9622 24.9334 76.3058C24.9334 76.5594 24.8843 76.7967 24.7861 77.0012C24.6879 77.2057 24.5407 77.3857 24.3607 77.533C24.1807 77.6803 23.9598 77.7784 23.7144 77.8357V77.893C24.0253 77.942 24.2952 78.032 24.5161 78.1875C24.737 78.3347 24.9088 78.5311 25.0315 78.7602C25.1542 78.9892 25.2033 79.251 25.2033 79.5455C25.2033 79.9219 25.097 80.2655 24.8843 80.5682C24.6716 80.8709 24.3689 81.1163 23.9844 81.2881C23.5998 81.4599 23.1744 81.5499 22.6999 81.5499H22.7081Z" fill="#545251"/>
<path d="M28.737 81.5494C28.3034 81.5494 27.9107 81.4676 27.5589 81.3039C27.2071 81.1403 26.929 80.9112 26.7163 80.6249C26.5118 80.3386 26.3972 80.0113 26.3809 79.6432H27.4117C27.428 79.8395 27.4935 80.0113 27.6162 80.1668C27.7389 80.3222 27.8944 80.4449 28.0907 80.5349C28.287 80.6249 28.4998 80.6658 28.7288 80.6658C29.007 80.6658 29.2524 80.6004 29.4733 80.4777C29.6942 80.3549 29.866 80.1831 29.9887 79.9622C30.1114 79.7495 30.1769 79.5041 30.1769 79.226C30.1769 78.9478 30.1114 78.7024 29.9887 78.4815C29.8578 78.2606 29.686 78.0806 29.4569 77.9579C29.2279 77.8352 28.9743 77.7697 28.6879 77.7615C28.4016 77.7615 28.1561 77.8106 27.9434 77.9088C27.7389 78.007 27.5753 78.1624 27.4608 78.3751H26.4709L26.929 74.5137H30.8641V75.4218H27.8044L27.5671 77.3607H27.6326C27.7307 77.2707 27.8453 77.1889 27.9843 77.1234C28.1234 77.058 28.2707 77.0007 28.4343 76.9598C28.5979 76.9189 28.7615 76.9025 28.9415 76.9025C29.3751 76.9025 29.7596 77.0007 30.1114 77.1971C30.455 77.3934 30.725 77.6716 30.9213 78.0233C31.1177 78.3751 31.2159 78.776 31.2159 79.2096C31.2159 79.6432 31.1095 80.0604 30.8968 80.4122C30.6841 80.7722 30.3978 81.0503 30.0214 81.2467C29.6451 81.4512 29.2197 81.5494 28.7452 81.5494H28.737Z" fill="#545251"/>
<path d="M20 27.1033V26.2525L23.0679 21.5156H23.7387V22.7673H23.3051L21.1126 26.1543V26.2115H25.3259V27.1033H20ZM23.3624 28.4613V26.457V21.5156H24.3605V28.4613H23.3542H23.3624Z" fill="#545251"/>
<path d="M28.7937 28.576C28.2619 28.576 27.8038 28.4369 27.4193 28.1588C27.0348 27.8806 26.7484 27.4716 26.5439 26.9316C26.3394 26.3917 26.2412 25.7536 26.2412 25.0009C26.2412 24.2482 26.3394 23.6101 26.5439 23.0784C26.7484 22.5466 27.0348 22.1375 27.4193 21.8512C27.8038 21.573 28.2537 21.4258 28.7855 21.4258C29.3173 21.4258 29.7754 21.5649 30.1518 21.8512C30.5363 22.1294 30.8226 22.5384 31.0271 23.0784C31.2317 23.6101 31.3298 24.2564 31.3298 25.0009C31.3298 25.7454 31.2317 26.3999 31.0271 26.9316C30.8226 27.4716 30.5363 27.8806 30.1518 28.1588C29.7672 28.4369 29.3091 28.576 28.7773 28.576H28.7937ZM28.7937 27.6679C29.1046 27.6679 29.3746 27.5616 29.6036 27.357C29.8245 27.1525 29.9963 26.8498 30.119 26.4489C30.2417 26.0481 30.299 25.5654 30.299 24.9927C30.299 24.42 30.2417 23.9374 30.119 23.5365C29.9963 23.1356 29.8245 22.8329 29.6036 22.6284C29.3827 22.4239 29.1128 22.3175 28.8019 22.3175C28.491 22.3175 28.2292 22.4239 28.0001 22.6284C27.7792 22.8329 27.6074 23.1356 27.4847 23.5365C27.362 23.9374 27.3047 24.42 27.3047 24.9927C27.3047 25.5654 27.362 26.0481 27.4847 26.4489C27.5993 26.8498 27.7711 27.1525 28.0001 27.357C28.221 27.5616 28.491 27.6679 28.8019 27.6679H28.7937Z" fill="#545251"/>
</svg>
