<svg width="1200" height="80" viewBox="0 0 1200 80" fill="none" xmlns="http://www.w3.org/2000/svg">
<path d="M28.8976 59.5493C28.8976 61.8305 27.0441 63.671 24.776 63.671C22.5078 63.671 20.6543 61.8305 20.6543 59.5493C20.6543 57.2682 22.4948 55.4277 24.776 55.4277C27.0571 55.4277 28.8976 57.2812 28.8976 59.5493Z" fill="#202020"/>
<path d="M25.5798 28.4297H23.6875V56.9959H25.5798V28.4297Z" fill="#202020"/>
<path d="M20.2392 51.9157C19.7207 51.9157 19.293 51.488 19.293 50.9695V21.0294C19.293 18.0873 21.6908 15.6895 24.633 15.6895C27.5751 15.6895 29.9729 18.0873 29.9729 21.0294V50.8399C29.9729 51.3583 29.5452 51.7861 29.0268 51.7861C28.5083 51.7861 28.0806 51.3583 28.0806 50.8399V21.0294C28.0806 19.1242 26.5382 17.5818 24.633 17.5818C22.7277 17.5818 21.1853 19.1242 21.1853 21.0294V50.9695C21.1853 51.488 20.7576 51.9157 20.2392 51.9157Z" fill="#202020"/>
<path d="M28.1087 49.6611V51.6701C31.1675 52.9792 33.319 56.0121 33.319 59.5504C33.319 64.2683 29.4825 68.1047 24.7647 68.1047C20.0469 68.1047 16.2104 64.2683 16.2104 59.5504C16.2104 56.1028 18.2583 53.1347 21.2004 51.7868V49.7519C17.1955 51.2165 14.3311 55.053 14.3311 59.5504C14.3311 65.3052 19.023 69.9971 24.7777 69.9971C30.5324 69.9971 35.2243 65.3052 35.2243 59.5504C35.2243 54.9622 32.2432 51.0609 28.1216 49.6611" fill="#202020"/>
<path d="M43.6837 17.8281H33.3926V19.7204H43.6837V17.8281Z" fill="#202020"/>
<path d="M43.6837 33.5498H33.3926V35.4421H43.6837V33.5498Z" fill="#202020"/>
<path d="M38.5641 23H33.3926V24.8923H38.5641V23Z" fill="#202020"/>
<path d="M38.5641 28.249H33.3926V30.1413H38.5641V28.249Z" fill="#202020"/>
<path d="M38.5641 38.7344H33.3926V40.6267H38.5641V38.7344Z" fill="#202020"/>
<path d="M38.5641 44.0352H33.3926V45.9275H38.5641V44.0352Z" fill="#202020"/>
<path d="M50.4974 32.3225C50.7002 32.3768 50.8727 32.5059 50.9814 32.6799C51.0971 32.8662 51.1297 33.0923 51.0702 33.3145L50.3713 35.9225C52.2039 35.4197 55.6968 34.1297 58.286 31.1897C59.7481 29.6352 60.7287 27.8688 61.2226 25.9098L61.2666 25.7456C62.6021 20.7614 59.6843 15.6936 54.7581 14.3736C49.8319 13.0536 44.7711 15.9836 43.4511 20.9099C42.1311 25.8361 45.0585 30.9065 49.9751 32.2239C50.0717 32.2498 50.1683 32.2757 50.2701 32.2822L50.4439 32.3288C50.4439 32.3288 50.4755 32.3269 50.4852 32.3295M49.0202 37.7967C48.8657 37.7553 48.7312 37.6778 48.6289 37.5572C48.4455 37.3528 48.3847 37.0777 48.4571 36.8072L49.288 33.7066C43.6761 32.0476 40.3715 26.1825 41.896 20.4932C43.4204 14.8039 49.4011 11.2611 55.187 12.8114C60.9729 14.3617 64.4069 20.3236 62.8591 26.0999C62.8436 26.1578 62.8281 26.2158 62.8126 26.2737L62.0198 26.1027L62.8022 26.3124C62.2507 28.525 61.1301 30.5438 59.495 32.2798C55.4494 36.869 49.6174 37.7703 49.3694 37.8074C49.2624 37.8202 49.1484 37.8207 49.0421 37.7922" fill="#202020"/>
<path d="M52.7568 18V25" stroke="#202020" stroke-width="2" stroke-linecap="round"/>
<path d="M53.8311 28.5C53.8311 29.0523 53.3834 29.5 52.8311 29.5C52.2788 29.5 51.8311 29.0523 51.8311 28.5C51.8311 27.9477 52.2788 27.5 52.8311 27.5C53.3834 27.5 53.8311 27.9477 53.8311 28.5Z" fill="#202020"/>
<path d="M112.877 19.0146C103.083 22.0473 95.9678 31.1751 95.9678 41.9672C95.9678 55.2372 106.73 65.9997 120 65.9997C133.27 65.9997 144.033 55.2372 144.033 41.9672C144.033 31.1751 136.917 22.0473 127.123 19.0146" stroke="#202020" stroke-width="2" stroke-linecap="round" stroke-linejoin="round"/>
<path d="M120 14V25.1545" stroke="#202020" stroke-width="2" stroke-linecap="round" stroke-linejoin="round"/>
<path d="M113.779 43.6536H116.22V32.9873L111.663 33.3571V35.2211H113.779V43.6536Z" fill="#202020"/>
<path d="M123.676 36.7306C123.314 36.738 122.981 36.7898 122.678 36.8785C122.374 36.9673 122.123 37.0782 121.923 37.2188L122.19 35.0293H126.369V33.1357H120.207L119.601 39.031L121.79 39.1568C121.864 38.9423 122.005 38.7721 122.204 38.6316C122.404 38.4911 122.663 38.4245 122.988 38.4245C123.44 38.4245 123.765 38.5872 123.972 38.9201C124.179 39.2529 124.283 39.7041 124.283 40.2885C124.283 40.8729 124.194 41.2501 124.017 41.5238C123.839 41.7975 123.521 41.938 123.07 41.938C122.685 41.938 122.374 41.8344 122.145 41.6199C121.916 41.4054 121.797 41.117 121.797 40.7471L119.408 40.895V40.9394C119.371 41.8049 119.726 42.5002 120.466 43.0327C121.206 43.5653 122.079 43.8242 123.077 43.8242C124.342 43.8242 125.267 43.4914 125.851 42.8182C126.435 42.1451 126.731 41.3019 126.731 40.2885C126.731 39.1494 126.465 38.2765 125.94 37.6552C125.415 37.0339 124.66 36.738 123.684 36.7528L123.676 36.7306Z" fill="#202020"/>
<path d="M112.322 48.617C112.019 48.617 111.745 48.6836 111.493 48.8241C111.242 48.9647 111.035 49.157 110.865 49.4085V46.3018H109.385V54.1869H110.865V50.1851C110.968 50.052 111.101 49.9484 111.272 49.8745C111.442 49.8005 111.634 49.7635 111.863 49.7635C112.137 49.7635 112.344 49.8523 112.477 50.0298C112.61 50.2073 112.684 50.5106 112.684 50.9322V54.1869H114.164V50.9396C114.164 50.1482 114.001 49.5638 113.676 49.1792C113.35 48.7945 112.906 48.6096 112.337 48.6096L112.322 48.617Z" fill="#202020"/>
<path d="M117.818 48.6172C117.011 48.6172 116.383 48.8761 115.924 49.4012C115.465 49.9264 115.243 50.5921 115.243 51.4058V51.5094C115.243 52.3304 115.473 53.0035 115.931 53.5213C116.39 54.0391 117.019 54.298 117.832 54.298C118.646 54.298 119.267 54.0391 119.726 53.5213C120.185 53.0035 120.414 52.3304 120.414 51.5094V51.4058C120.414 50.5848 120.185 49.919 119.726 49.4012C119.267 48.8835 118.631 48.6246 117.825 48.6246L117.818 48.6172ZM118.927 51.5094C118.927 52.005 118.838 52.4044 118.661 52.7077C118.483 53.0109 118.202 53.1663 117.825 53.1663C117.448 53.1663 117.152 53.0183 116.974 52.7151C116.797 52.4118 116.708 52.0124 116.708 51.5168V51.4132C116.708 50.9324 116.797 50.533 116.974 50.2297C117.152 49.9264 117.433 49.7637 117.81 49.7637C118.187 49.7637 118.476 49.919 118.653 50.2223C118.831 50.5256 118.92 50.925 118.92 51.4132V51.5168L118.927 51.5094Z" fill="#202020"/>
<path d="M124.785 52.6925C124.674 52.8405 124.541 52.9514 124.371 53.0254C124.201 53.0994 124.001 53.1363 123.765 53.1363C123.491 53.1363 123.291 53.0476 123.158 52.8701C123.025 52.6925 122.966 52.3671 122.966 51.8863V48.7056H121.494V51.8789C121.494 52.6999 121.657 53.3065 121.982 53.6985C122.307 54.0905 122.759 54.2829 123.336 54.2829C123.676 54.2829 123.979 54.2015 124.238 54.0462C124.497 53.8908 124.711 53.6615 124.882 53.3657L125.037 54.1719H126.257V48.6982H124.778V52.6777L124.785 52.6925Z" fill="#202020"/>
<path d="M130.422 48.632C130.363 48.6172 130.289 48.6172 130.215 48.6172C129.949 48.6172 129.712 48.6985 129.512 48.8539C129.313 49.0092 129.142 49.2385 129.017 49.527L128.95 48.7207H127.582V54.1944H129.054V50.496C129.128 50.3333 129.239 50.2001 129.379 50.1114C129.52 50.0226 129.705 49.9782 129.919 49.9782L130.459 49.993L130.614 48.6837C130.548 48.669 130.489 48.6542 130.422 48.6394V48.632Z" fill="#202020"/>
<path d="M213.574 16H186.426C183.867 16 181.792 18.075 181.792 20.6346V59.3654C181.792 61.925 183.867 64 186.426 64H213.574C216.133 64 218.208 61.925 218.208 59.3654V20.6346C218.208 18.075 216.133 16 213.574 16Z" stroke="#202020" stroke-width="2" stroke-linejoin="round"/>
<path d="M207.841 16V19.9679C207.841 20.8765 207.102 21.6151 206.194 21.6151H193.8C192.891 21.6151 192.152 20.8765 192.152 19.9679V16" stroke="#202020" stroke-width="2" stroke-linejoin="round"/>
<path d="M192.44 46.6572H207.553" stroke="#202020" stroke-width="2" stroke-linejoin="round"/>
<path d="M194.101 37.6172L197.977 41.5459L205.893 33.9893" stroke="#202020" stroke-width="2" stroke-linejoin="round"/>
<path d="M272.948 34.0682V21.0518C272.948 17.1572 276.106 14 280 14C283.895 14 287.052 17.1572 287.052 21.0518V26.0397" stroke="#202020" stroke-width="2" stroke-linecap="round" stroke-linejoin="round"/>
<path d="M272.948 56.5752H287.052" stroke="#202020" stroke-width="2" stroke-linecap="round" stroke-linejoin="round"/>
<path d="M274.024 46.2862L278.664 51.0052L285.976 43.6055" stroke="#202020" stroke-width="2" stroke-linecap="round" stroke-linejoin="round"/>
<path d="M292.125 34.0684H267.875C265.268 34.0684 263.154 36.1821 263.154 38.7894V61.2793C263.154 63.8867 265.268 66.0003 267.875 66.0003H292.125C294.732 66.0003 296.846 63.8867 296.846 61.2793V38.7894C296.846 36.1821 294.732 34.0684 292.125 34.0684Z" stroke="#202020" stroke-width="2" stroke-linecap="round" stroke-linejoin="round"/>
<path d="M374.538 40.2653C374.538 33.0287 360.167 13 360.167 13C360.167 13 345.796 33.0287 345.796 40.2653C345.796 47.5018 352.231 53.3659 360.167 53.3659C368.103 53.3659 374.538 47.4996 374.538 40.2653Z" stroke="#202020" stroke-width="2" stroke-linecap="round" stroke-linejoin="round"/>
<path d="M334.739 53.9121C341.053 53.9121 341.053 59.3565 347.368 59.3565C353.684 59.3565 353.682 53.9121 359.998 53.9121C366.313 53.9121 366.313 59.3565 372.629 59.3565C378.945 59.3565 378.945 53.9121 385.261 53.9121" stroke="#202020" stroke-width="2" stroke-linecap="round" stroke-linejoin="round"/>
<path d="M334.739 61.5557C341.053 61.5557 341.053 67.0001 347.368 67.0001C353.684 67.0001 353.682 61.5557 359.998 61.5557C366.313 61.5557 366.313 67.0001 372.629 67.0001C378.945 67.0001 378.945 61.5557 385.261 61.5557" stroke="#202020" stroke-width="2" stroke-linecap="round" stroke-linejoin="round"/>
<path d="M365.558 44.3975C366.827 43.304 367.619 41.7546 367.619 40.0351C367.619 38.3156 366.827 36.7686 365.558 35.6729" stroke="#202020" stroke-width="2" stroke-linecap="round" stroke-linejoin="round"/>
<mask id="mask0_1490_3909" style="mask-type:alpha" maskUnits="userSpaceOnUse" x="496" y="10" width="42" height="60">
<path d="M537.931 50.29C537.931 39.7775 517.048 10.6729 517.048 10.6729C517.048 10.6729 496.165 39.7775 496.165 50.29C496.165 60.8024 505.516 69.3266 517.048 69.3266C528.58 69.3266 537.931 60.8024 537.931 50.29Z" fill="black"/>
</mask>
<g mask="url(#mask0_1490_3909)">
<path d="M488.759 42.7764C495.75 42.7764 495.75 49.4037 502.738 49.4037C509.726 49.4037 509.729 42.7764 516.718 42.7764C523.706 42.7764 523.709 49.4037 530.7 49.4037C537.691 49.4037 537.691 42.7764 544.682 42.7764" stroke="#202020" stroke-width="2" stroke-linecap="round" stroke-linejoin="round"/>
</g>
<path d="M537.931 50.29C537.931 39.7775 517.048 10.6729 517.048 10.6729C517.048 10.6729 496.165 39.7775 496.165 50.29C496.165 60.8024 505.516 69.3266 517.048 69.3266C528.58 69.3266 537.931 60.8024 537.931 50.29Z" stroke="#202020" stroke-width="2" stroke-linecap="round" stroke-linejoin="round"/>
<path d="M539.245 20.0494C541.78 20.0494 543.835 18.1762 543.835 15.8655C543.835 13.5548 541.78 11.6816 539.245 11.6816C536.71 11.6816 534.655 13.5548 534.655 15.8655C534.655 18.1762 536.71 20.0494 539.245 20.0494Z" stroke="#202020" stroke-width="2" stroke-linecap="round" stroke-linejoin="round"/>
<path d="M617.94 62.342H619.977C623.028 62.342 625.505 60.0846 625.505 57.3028V20.8849C625.505 18.1031 623.028 15.8457 619.977 15.8457H579.963C576.944 15.8457 574.495 18.0776 574.495 20.8303C574.495 23.5829 576.944 25.8149 579.963 25.8149H612.22C615.379 25.8149 617.94 28.1488 617.94 31.0289V63.813C617.94 66.6931 615.379 69.027 612.22 69.027H580.215C577.056 69.027 574.495 66.6931 574.495 63.813V20.8849" stroke="#202020" stroke-width="2" stroke-linecap="round" stroke-linejoin="round"/>
<path d="M593.487 10.9736H603.281C605.33 10.9736 606.991 12.4883 606.991 14.3561V25.8146H589.777V14.3561C589.777 12.4883 591.438 10.9736 593.487 10.9736Z" fill="#202020"/>
<path d="M653.398 58.4344L677.291 18.3863C678.39 16.5436 681.075 16.5372 682.185 18.3715L706.59 58.7214C707.732 60.6109 706.352 63.0148 704.13 62.9999L655.834 62.6981C653.636 62.6854 652.281 60.3112 653.402 58.4344H653.398Z" stroke="#202020" stroke-width="2" stroke-linecap="round" stroke-linejoin="round"/>
<path d="M679.485 33.8174V47.8582" stroke="#202020" stroke-width="3" stroke-linecap="round" stroke-linejoin="round"/>
<path d="M679.531 53.4529C679.773 53.4529 679.969 53.2586 679.969 53.019C679.969 52.7793 679.773 52.585 679.531 52.585C679.289 52.585 679.094 52.7793 679.094 53.019C679.094 53.2586 679.289 53.4529 679.531 53.4529Z" fill="#202020" stroke="#202020" stroke-width="3"/>
<path d="M679.531 54.3206C680.256 54.3206 680.844 53.7377 680.844 53.0187C680.844 52.2997 680.256 51.7168 679.531 51.7168C678.806 51.7168 678.219 52.2997 678.219 53.0187C678.219 53.7377 678.806 54.3206 679.531 54.3206Z" fill="#202020"/>
<path d="M760 47.1221C763.878 47.1221 767.023 43.9339 767.023 40.001C767.023 36.0681 763.878 32.8799 760 32.8799C756.122 32.8799 752.979 36.0681 752.979 40.001C752.979 43.9339 756.122 47.1221 760 47.1221Z" stroke="#202020" stroke-width="2" stroke-miterlimit="10" stroke-linecap="round"/>
<path d="M760.001 47.1221V66.9999" stroke="#202020" stroke-width="2" stroke-miterlimit="10" stroke-linecap="round"/>
<path d="M760.001 13V32.8779" stroke="#202020" stroke-width="2" stroke-miterlimit="10" stroke-linecap="round"/>
<path d="M766.358 19.1201L760.002 25.5678L753.643 19.1201" stroke="#202020" stroke-width="2" stroke-miterlimit="10" stroke-linecap="round"/>
<path d="M763.946 14.9492L760.001 18.9498L756.054 14.9492" stroke="#202020" stroke-width="2" stroke-miterlimit="10" stroke-linecap="round"/>
<path d="M753.643 60.8801L760.002 54.4346L766.358 60.8801" stroke="#202020" stroke-width="2" stroke-miterlimit="10" stroke-linecap="round"/>
<path d="M756.054 65.0525L760.001 61.0518L763.946 65.0525" stroke="#202020" stroke-width="2" stroke-miterlimit="10" stroke-linecap="round"/>
<path d="M752.977 40.001H733.375" stroke="#202020" stroke-width="2" stroke-miterlimit="10" stroke-linecap="round"/>
<path d="M786.625 40.001H767.023" stroke="#202020" stroke-width="2" stroke-miterlimit="10" stroke-linecap="round"/>
<path d="M780.591 46.4459L774.235 40.0004L780.591 33.5527" stroke="#202020" stroke-width="2" stroke-miterlimit="10" stroke-linecap="round"/>
<path d="M784.705 44.0015L780.76 40.0008L784.705 35.998" stroke="#202020" stroke-width="2" stroke-miterlimit="10" stroke-linecap="round"/>
<path d="M739.41 33.5527L745.768 40.0004L739.41 46.4459" stroke="#202020" stroke-width="2" stroke-miterlimit="10" stroke-linecap="round"/>
<path d="M735.298 35.998L739.243 40.0008L735.298 44.0015" stroke="#202020" stroke-width="2" stroke-miterlimit="10" stroke-linecap="round"/>
<path d="M755.034 34.9638L743.867 23.6396" stroke="#202020" stroke-width="2" stroke-miterlimit="10" stroke-linecap="round"/>
<path d="M776.135 56.3625L764.966 45.0361" stroke="#202020" stroke-width="2" stroke-miterlimit="10" stroke-linecap="round"/>
<path d="M770.066 56.3621V50.207H776.135" stroke="#202020" stroke-width="2" stroke-miterlimit="10" stroke-linecap="round"/>
<path d="M749.937 23.6396V29.7946H743.867" stroke="#202020" stroke-width="2" stroke-miterlimit="10" stroke-linecap="round"/>
<path d="M755.034 45.0361L743.867 56.3625" stroke="#202020" stroke-width="2" stroke-miterlimit="10" stroke-linecap="round"/>
<path d="M776.135 23.6396L764.966 34.9638" stroke="#202020" stroke-width="2" stroke-miterlimit="10" stroke-linecap="round"/>
<path d="M776.135 29.7946H770.066V23.6396" stroke="#202020" stroke-width="2" stroke-miterlimit="10" stroke-linecap="round"/>
<path d="M743.867 50.207H749.937V56.3621" stroke="#202020" stroke-width="2" stroke-miterlimit="10" stroke-linecap="round"/>
<path d="M828.57 21.5557H851.43C854.3 21.5557 856.63 23.8863 856.63 26.756V36.7843C856.63 45.9638 849.177 53.4143 840 53.4143C830.823 53.4143 823.37 45.9638 823.37 36.7843V26.756C823.37 23.8863 825.701 21.5557 828.57 21.5557Z" stroke="#202020" stroke-width="2" stroke-linecap="round" stroke-linejoin="round"/>
<path d="M831.513 14V21.5553" stroke="#202020" stroke-width="2" stroke-linecap="round" stroke-linejoin="round"/>
<path d="M848.487 14V21.5553" stroke="#202020" stroke-width="2" stroke-linecap="round" stroke-linejoin="round"/>
<path d="M840 53.4141V66.0002" stroke="#202020" stroke-width="2" stroke-linecap="round" stroke-linejoin="round"/>
<path d="M823.37 32.25H856.63" stroke="#202020" stroke-width="2" stroke-linecap="round" stroke-linejoin="round"/>
<path d="M942.4 56.3203H897.6C894.507 56.3203 892 58.8375 892 61.9427C892 65.0479 894.507 67.5651 897.6 67.5651H942.4C945.493 67.5651 948 65.0479 948 61.9427C948 58.8375 945.493 56.3203 942.4 56.3203Z" stroke="#202020" stroke-width="2" stroke-miterlimit="10"/>
<path d="M899.233 56.3208V33.2847C899.233 21.771 908.531 12.4346 920.001 12.4346C931.472 12.4346 940.767 21.771 940.767 33.2847V56.3208" stroke="#202020" stroke-width="2" stroke-miterlimit="10"/>
<path d="M920 42.5237C922.132 42.5237 923.859 40.7892 923.859 38.6495C923.859 36.5099 922.132 34.7754 920 34.7754C917.869 34.7754 916.142 36.5099 916.142 38.6495C916.142 40.7892 917.869 42.5237 920 42.5237Z" stroke="#202020" stroke-width="2" stroke-miterlimit="10"/>
<path d="M920.001 42.5234V56.3204" stroke="#202020" stroke-width="2" stroke-miterlimit="10"/>
<path d="M997.387 48.7499V15.9143C997.387 13.2002 994.974 11 991.997 11C989.019 11 986.606 13.2002 986.606 15.9143V48.7499C982.822 50.5331 980.236 54.1286 980.236 58.2787C980.236 64.2007 985.5 69 991.997 69C998.493 69 1003.76 64.2007 1003.76 58.2787C1003.76 54.1286 1001.17 50.5331 997.387 48.7499Z" stroke="#202020" stroke-width="2" stroke-miterlimit="10" stroke-linecap="round" stroke-linejoin="round"/>
<path d="M993.089 54.5384V26.0648C993.089 25.5148 992.6 25.0684 991.996 25.0684C991.393 25.0684 990.903 25.5148 990.903 26.0648V54.5384C989.088 54.978 987.748 56.4816 987.748 58.276C987.748 60.4153 989.65 62.1466 991.994 62.1466C994.338 62.1466 996.24 60.4131 996.24 58.276C996.24 56.4816 994.899 54.978 993.084 54.5384H993.089Z" fill="#202020"/>
<path d="M1008.25 15.1699H1019.76" stroke="#202020" stroke-width="2" stroke-miterlimit="10" stroke-linecap="round" stroke-linejoin="round"/>
<path d="M1008.25 20.9912H1013.15" stroke="#202020" stroke-width="2" stroke-miterlimit="10" stroke-linecap="round" stroke-linejoin="round"/>
<path d="M1008.25 26.8115H1013.15" stroke="#202020" stroke-width="2" stroke-miterlimit="10" stroke-linecap="round" stroke-linejoin="round"/>
<path d="M1008.25 32.6318H1019.76" stroke="#202020" stroke-width="2" stroke-miterlimit="10" stroke-linecap="round" stroke-linejoin="round"/>
<path d="M1008.25 38.4521H1013.15" stroke="#202020" stroke-width="2" stroke-miterlimit="10" stroke-linecap="round" stroke-linejoin="round"/>
<path d="M1008.25 44.2754H1013.15" stroke="#202020" stroke-width="2" stroke-miterlimit="10" stroke-linecap="round" stroke-linejoin="round"/>
<path fill-rule="evenodd" clip-rule="evenodd" d="M1080 14C1078.42 26.5702 1065.43 37.6501 1065.58 46.1015C1065.88 64.4968 1094.35 64.4968 1094.42 46.1015C1094.5 37.6501 1081.58 26.4277 1080 14Z" stroke="#202020" stroke-width="2" stroke-linecap="round" stroke-linejoin="round"/>
<path fill-rule="evenodd" clip-rule="evenodd" d="M1080 35.1162C1079.33 40.4726 1073.79 45.194 1073.86 48.7966C1073.98 56.6346 1086.11 56.6346 1086.15 48.7966C1086.18 45.1961 1080.67 40.4143 1080 35.1162Z" stroke="#202020" stroke-width="2" stroke-linecap="round" stroke-linejoin="round"/>
<path d="M1063.17 66H1096.83" stroke="#202020" stroke-width="2" stroke-linecap="round" stroke-linejoin="round"/>
<path d="M1168.9 21.68L1136.05 29.8376C1134.37 30.2561 1133.33 31.9804 1133.75 33.6891L1139.84 58.9066C1140.25 60.6152 1141.95 61.6612 1143.63 61.2428L1176.48 53.0852C1178.16 52.6668 1179.2 50.9424 1178.78 49.2337L1172.69 24.0163C1172.28 22.3076 1170.58 21.2616 1168.9 21.68Z" stroke="#202020" stroke-width="2" stroke-linecap="round" stroke-linejoin="round"/>
<path d="M1155.51 32.8523C1155.34 32.1516 1154.65 31.7226 1153.95 31.8942C1153.26 32.0658 1152.84 32.773 1153.01 33.4738L1155.79 44.985C1155.96 45.6858 1156.66 46.1148 1157.35 45.9432C1158.04 45.7716 1158.46 45.0643 1158.29 44.3635L1155.51 32.8523Z" fill="#202020"/>
<path d="M1158.27 51.064C1158.98 51.064 1159.56 50.4791 1159.56 49.7576C1159.56 49.0361 1158.98 48.4512 1158.27 48.4512C1157.56 48.4512 1156.98 49.0361 1156.98 49.7576C1156.98 50.4791 1157.56 51.064 1158.27 51.064Z" fill="#202020"/>
<path d="M1160.45 18.502L1161.88 18.1467C1162.21 18.0659 1162.54 18.2678 1162.62 18.5996L1163.68 22.9787L1161.06 23.6274L1160.01 19.2483C1159.93 18.9183 1160.13 18.5833 1160.45 18.502Z" fill="#202020"/>
<path d="M1134.19 61.5029H1187" stroke="#202020" stroke-width="2" stroke-linecap="round" stroke-linejoin="round"/>
<path d="M433.8 18.1826C433.8 21.2076 430.5 21.2076 430.5 24.2326C430.5 27.2576 433.8 27.2576 433.8 30.2826C433.8 33.3076 430.5 33.3076 430.5 36.3326C430.5 39.3576 433.8 39.3576 433.8 42.3826" stroke="#202020" stroke-width="2.5" stroke-linecap="round" stroke-linejoin="round"/>
<path d="M442.008 18.1826C442.008 21.2076 438.708 21.2076 438.708 24.2326C438.708 27.2576 442.008 27.2576 442.008 30.2826C442.008 33.3076 438.708 33.3076 438.708 36.3326C438.708 39.3576 442.008 39.3576 442.008 42.3826" stroke="#202020" stroke-width="2.5" stroke-linecap="round" stroke-linejoin="round"/>
<path d="M449.708 18.1826C449.708 21.2076 446.408 21.2076 446.408 24.2326C446.408 27.2576 449.708 27.2576 449.708 30.2826C449.708 33.3076 446.408 33.3076 446.408 36.3326C446.408 39.3576 449.708 39.3576 449.708 42.3826" stroke="#202020" stroke-width="2.5" stroke-linecap="round" stroke-linejoin="round"/>
<path d="M460.545 52.0283H419.455C415.614 52.0283 412.5 55.1418 412.5 58.9826C412.5 62.8233 415.614 65.9368 419.455 65.9368H460.545C464.386 65.9368 467.5 62.8233 467.5 58.9826C467.5 55.1418 464.386 52.0283 460.545 52.0283Z" stroke="#202020" stroke-width="2.5" stroke-linecap="round" stroke-linejoin="round"/>
</svg>
