<svg width="321" height="281" viewBox="0 0 321 281" fill="none" xmlns="http://www.w3.org/2000/svg">
<path d="M248.497 29.0547H270.148C272.265 29.0547 273.985 30.7703 273.985 32.8915V234.893C273.985 237.011 272.269 238.73 270.148 238.73H248.497" stroke="#918BB1" stroke-miterlimit="10"/>
<path d="M252.334 230.55H265.78C267.488 230.55 268.87 229.164 268.87 227.459V40.3207C268.87 38.6123 267.485 37.2305 265.78 37.2305H252.334" stroke="#918BB1" stroke-width="0.75" stroke-miterlimit="10"/>
<path d="M216.412 29.0547H248.497C250.614 29.0547 252.334 30.7703 252.334 32.8915V234.893C252.334 237.011 250.618 238.73 248.497 238.73H216.412" stroke="#759FA3" stroke-miterlimit="10"/>
<path d="M220.249 230.55H244.129C245.837 230.55 247.219 229.164 247.219 227.459V40.3207C247.219 38.6123 245.834 37.2305 244.129 37.2305H220.249" stroke="#759FA3" stroke-width="0.75" stroke-miterlimit="10"/>
<path d="M166.17 238.726H122.724C120.607 238.726 118.887 237.011 118.887 234.889V32.8915C118.887 30.7739 120.603 29.0547 122.724 29.0547H216.41C218.528 29.0547 220.247 30.7703 220.247 32.8915V234.893C220.247 237.011 218.531 238.73 216.41 238.73H172.965" stroke="#A49879" stroke-miterlimit="10"/>
<path d="M212.041 37.2305H127.092C125.383 37.2305 124.001 38.6159 124.001 40.3207V227.463C124.001 229.171 125.387 230.553 127.092 230.553H163.376C164.916 230.553 166.165 231.802 166.165 233.342V250.857H172.963V233.342C172.963 231.802 174.213 230.553 175.752 230.553H212.037C213.746 230.553 215.128 229.168 215.128 227.463V40.3207C215.128 38.6123 213.742 37.2305 212.037 37.2305H212.041Z" stroke="#A49879" stroke-width="0.75" stroke-miterlimit="10"/>
<path d="M112.502 29.0547H110.776C109.569 29.0547 108.59 30.0345 108.59 31.2405V236.54C108.59 237.746 109.569 238.726 110.776 238.726H112.502" stroke="#D9D9D9" stroke-miterlimit="10"/>
<path d="M140.472 91.9828C140.472 92.4948 140.348 92.9308 140.1 93.2908C139.852 93.6508 139.496 93.9308 139.032 94.1308C138.568 94.3228 138.016 94.4188 137.376 94.4188C137.064 94.4188 136.764 94.3988 136.476 94.3588C136.188 94.3268 135.92 94.2788 135.672 94.2148C135.424 94.1508 135.204 94.0708 135.012 93.9748V92.7508C135.332 92.8948 135.708 93.0268 136.14 93.1468C136.572 93.2588 137.012 93.3148 137.46 93.3148C137.844 93.3148 138.164 93.2628 138.42 93.1588C138.676 93.0548 138.868 92.9108 138.996 92.7268C139.124 92.5428 139.188 92.3268 139.188 92.0788C139.188 91.8148 139.12 91.5948 138.984 91.4188C138.856 91.2348 138.652 91.0668 138.372 90.9148C138.1 90.7548 137.732 90.5868 137.268 90.4108C136.948 90.2908 136.656 90.1588 136.392 90.0148C136.136 89.8628 135.908 89.6868 135.708 89.4868C135.516 89.2868 135.368 89.0548 135.264 88.7908C135.16 88.5268 135.108 88.2188 135.108 87.8668C135.108 87.3948 135.224 86.9908 135.456 86.6548C135.696 86.3188 136.024 86.0628 136.44 85.8868C136.856 85.7028 137.34 85.6108 137.892 85.6108C138.356 85.6108 138.784 85.6588 139.176 85.7548C139.576 85.8428 139.956 85.9668 140.316 86.1268L139.908 87.1948C139.58 87.0588 139.248 86.9468 138.912 86.8588C138.576 86.7708 138.224 86.7268 137.856 86.7268C137.536 86.7268 137.268 86.7748 137.052 86.8708C136.836 86.9668 136.672 87.0988 136.56 87.2668C136.456 87.4348 136.404 87.6308 136.404 87.8548C136.404 88.1188 136.464 88.3388 136.584 88.5148C136.704 88.6908 136.896 88.8548 137.16 89.0068C137.424 89.1508 137.772 89.3108 138.204 89.4868C138.684 89.6708 139.092 89.8708 139.428 90.0868C139.772 90.3028 140.032 90.5628 140.208 90.8668C140.384 91.1628 140.472 91.5348 140.472 91.9828ZM144.463 93.5908C144.463 93.2788 144.543 93.0588 144.703 92.9308C144.863 92.8028 145.055 92.7388 145.279 92.7388C145.511 92.7388 145.707 92.8028 145.867 92.9308C146.027 93.0588 146.107 93.2788 146.107 93.5908C146.107 93.9028 146.027 94.1268 145.867 94.2628C145.707 94.3988 145.511 94.4668 145.279 94.4668C145.055 94.4668 144.863 94.3988 144.703 94.2628C144.543 94.1268 144.463 93.9028 144.463 93.5908ZM144.463 88.5508C144.463 88.2228 144.543 87.9948 144.703 87.8668C144.863 87.7388 145.055 87.6748 145.279 87.6748C145.511 87.6748 145.707 87.7388 145.867 87.8668C146.027 87.9948 146.107 88.2228 146.107 88.5508C146.107 88.8548 146.027 89.0748 145.867 89.2108C145.707 89.3468 145.511 89.4148 145.279 89.4148C145.055 89.4148 144.863 89.3468 144.703 89.2108C144.543 89.0748 144.463 88.8548 144.463 88.5508ZM154.029 94.2988H152.769V88.6108C152.769 88.4108 152.769 88.2268 152.769 88.0588C152.777 87.8828 152.785 87.7148 152.793 87.5548C152.801 87.3868 152.809 87.2268 152.817 87.0748C152.713 87.1788 152.605 87.2788 152.493 87.3748C152.381 87.4708 152.253 87.5828 152.109 87.7108L151.173 88.4668L150.525 87.6508L152.973 85.7308H154.029V94.2988ZM158.605 93.0388C158.533 93.3188 158.441 93.6228 158.329 93.9508C158.217 94.2788 158.097 94.6028 157.969 94.9228C157.841 95.2508 157.709 95.5588 157.573 95.8468H156.649C156.729 95.5348 156.805 95.2028 156.877 94.8508C156.957 94.5068 157.029 94.1668 157.093 93.8308C157.157 93.4948 157.209 93.1868 157.249 92.9068H158.521L158.605 93.0388ZM165.558 90.0028C165.558 90.6988 165.502 91.3188 165.39 91.8628C165.286 92.4068 165.118 92.8708 164.886 93.2548C164.662 93.6308 164.362 93.9188 163.986 94.1188C163.618 94.3188 163.174 94.4188 162.654 94.4188C161.998 94.4188 161.458 94.2428 161.034 93.8908C160.61 93.5388 160.294 93.0348 160.086 92.3788C159.878 91.7148 159.774 90.9228 159.774 90.0028C159.774 89.0748 159.866 88.2828 160.05 87.6268C160.242 86.9708 160.55 86.4708 160.974 86.1268C161.398 85.7748 161.958 85.5988 162.654 85.5988C163.31 85.5988 163.85 85.7748 164.274 86.1268C164.706 86.4708 165.026 86.9708 165.234 87.6268C165.45 88.2828 165.558 89.0748 165.558 90.0028ZM161.046 90.0028C161.046 90.7468 161.098 91.3668 161.202 91.8628C161.306 92.3588 161.474 92.7308 161.706 92.9788C161.946 93.2268 162.262 93.3508 162.654 93.3508C163.046 93.3508 163.358 93.2308 163.59 92.9908C163.83 92.7428 164.002 92.3708 164.106 91.8748C164.218 91.3708 164.274 90.7468 164.274 90.0028C164.274 89.2588 164.218 88.6428 164.106 88.1548C164.002 87.6588 163.83 87.2868 163.59 87.0388C163.358 86.7908 163.046 86.6668 162.654 86.6668C162.262 86.6668 161.946 86.7908 161.706 87.0388C161.474 87.2868 161.306 87.6588 161.202 88.1548C161.098 88.6428 161.046 89.2588 161.046 90.0028ZM172.185 90.0028C172.185 90.6988 172.129 91.3188 172.017 91.8628C171.913 92.4068 171.745 92.8708 171.513 93.2548C171.289 93.6308 170.989 93.9188 170.613 94.1188C170.245 94.3188 169.801 94.4188 169.281 94.4188C168.625 94.4188 168.085 94.2428 167.661 93.8908C167.237 93.5388 166.921 93.0348 166.713 92.3788C166.505 91.7148 166.401 90.9228 166.401 90.0028C166.401 89.0748 166.493 88.2828 166.677 87.6268C166.869 86.9708 167.177 86.4708 167.601 86.1268C168.025 85.7748 168.585 85.5988 169.281 85.5988C169.937 85.5988 170.477 85.7748 170.901 86.1268C171.333 86.4708 171.653 86.9708 171.861 87.6268C172.077 88.2828 172.185 89.0748 172.185 90.0028ZM167.673 90.0028C167.673 90.7468 167.725 91.3668 167.829 91.8628C167.933 92.3588 168.101 92.7308 168.333 92.9788C168.573 93.2268 168.889 93.3508 169.281 93.3508C169.673 93.3508 169.985 93.2308 170.217 92.9908C170.457 92.7428 170.629 92.3708 170.733 91.8748C170.845 91.3708 170.901 90.7468 170.901 90.0028C170.901 89.2588 170.845 88.6428 170.733 88.1548C170.629 87.6588 170.457 87.2868 170.217 87.0388C169.985 86.7908 169.673 86.6668 169.281 86.6668C168.889 86.6668 168.573 86.7908 168.333 87.0388C168.101 87.2868 167.933 87.6588 167.829 88.1548C167.725 88.6428 167.673 89.2588 167.673 90.0028ZM178.812 90.0028C178.812 90.6988 178.756 91.3188 178.644 91.8628C178.54 92.4068 178.372 92.8708 178.14 93.2548C177.916 93.6308 177.616 93.9188 177.24 94.1188C176.872 94.3188 176.428 94.4188 175.908 94.4188C175.252 94.4188 174.712 94.2428 174.288 93.8908C173.864 93.5388 173.548 93.0348 173.34 92.3788C173.132 91.7148 173.028 90.9228 173.028 90.0028C173.028 89.0748 173.12 88.2828 173.304 87.6268C173.496 86.9708 173.804 86.4708 174.228 86.1268C174.652 85.7748 175.212 85.5988 175.908 85.5988C176.564 85.5988 177.104 85.7748 177.528 86.1268C177.96 86.4708 178.28 86.9708 178.488 87.6268C178.704 88.2828 178.812 89.0748 178.812 90.0028ZM174.3 90.0028C174.3 90.7468 174.352 91.3668 174.456 91.8628C174.56 92.3588 174.728 92.7308 174.96 92.9788C175.2 93.2268 175.516 93.3508 175.908 93.3508C176.3 93.3508 176.612 93.2308 176.844 92.9908C177.084 92.7428 177.256 92.3708 177.36 91.8748C177.472 91.3708 177.528 90.7468 177.528 90.0028C177.528 89.2588 177.472 88.6428 177.36 88.1548C177.256 87.6588 177.084 87.2868 176.844 87.0388C176.612 86.7908 176.3 86.6668 175.908 86.6668C175.516 86.6668 175.2 86.7908 174.96 87.0388C174.728 87.2868 174.56 87.6588 174.456 88.1548C174.352 88.6428 174.3 89.2588 174.3 90.0028ZM187.359 87.7108C188.087 87.7108 188.635 87.8988 189.003 88.2748C189.371 88.6508 189.555 89.2548 189.555 90.0868V94.2988H188.283V90.2548C188.283 89.7588 188.183 89.3868 187.983 89.1388C187.791 88.8828 187.487 88.7548 187.071 88.7548C186.495 88.7548 186.083 88.9348 185.835 89.2948C185.587 89.6468 185.463 90.1588 185.463 90.8308V94.2988H184.203V90.2548C184.203 89.9268 184.155 89.6508 184.059 89.4268C183.971 89.2028 183.839 89.0348 183.663 88.9228C183.487 88.8108 183.259 88.7548 182.979 88.7548C182.579 88.7548 182.263 88.8428 182.031 89.0188C181.799 89.1948 181.631 89.4548 181.527 89.7988C181.431 90.1348 181.383 90.5468 181.383 91.0348V94.2988H180.111V87.8308H181.119L181.299 88.6948H181.371C181.507 88.4708 181.671 88.2868 181.863 88.1428C182.063 87.9988 182.283 87.8908 182.523 87.8188C182.763 87.7468 183.011 87.7108 183.267 87.7108C183.755 87.7108 184.167 87.7988 184.503 87.9748C184.839 88.1428 185.083 88.4028 185.235 88.7548H185.331C185.539 88.3948 185.827 88.1308 186.195 87.9628C186.563 87.7948 186.951 87.7108 187.359 87.7108ZM198.51 87.7108C199.238 87.7108 199.786 87.8988 200.154 88.2748C200.522 88.6508 200.706 89.2548 200.706 90.0868V94.2988H199.434V90.2548C199.434 89.7588 199.334 89.3868 199.134 89.1388C198.942 88.8828 198.638 88.7548 198.222 88.7548C197.646 88.7548 197.234 88.9348 196.986 89.2948C196.738 89.6468 196.614 90.1588 196.614 90.8308V94.2988H195.354V90.2548C195.354 89.9268 195.306 89.6508 195.21 89.4268C195.122 89.2028 194.99 89.0348 194.814 88.9228C194.638 88.8108 194.41 88.7548 194.13 88.7548C193.73 88.7548 193.414 88.8428 193.182 89.0188C192.95 89.1948 192.782 89.4548 192.678 89.7988C192.582 90.1348 192.534 90.5468 192.534 91.0348V94.2988H191.262V87.8308H192.27L192.45 88.6948H192.522C192.658 88.4708 192.822 88.2868 193.014 88.1428C193.214 87.9988 193.434 87.8908 193.674 87.8188C193.914 87.7468 194.162 87.7108 194.418 87.7108C194.906 87.7108 195.318 87.7988 195.654 87.9748C195.99 88.1428 196.234 88.4028 196.386 88.7548H196.482C196.69 88.3948 196.978 88.1308 197.346 87.9628C197.714 87.7948 198.102 87.7108 198.51 87.7108Z" fill="#A49879"/>
<path d="M219.759 97.4434L214.759 94.5566L214.759 100.33L219.759 97.4434ZM119.266 97.4434L124.266 100.33L124.266 94.5566L119.266 97.4434ZM215.259 97.4434L215.259 96.9434L123.766 96.9434L123.766 97.4434L123.766 97.9434L215.259 97.9434L215.259 97.4434Z" fill="#A49879"/>
<path d="M53.3571 141.053H52.0971V135.365C52.0971 135.165 52.0971 134.981 52.0971 134.813C52.1051 134.637 52.1131 134.469 52.1211 134.309C52.1291 134.141 52.1371 133.981 52.1451 133.829C52.0411 133.933 51.9331 134.033 51.8211 134.129C51.7091 134.225 51.5811 134.337 51.4371 134.465L50.5011 135.221L49.8531 134.405L52.3011 132.485H53.3571V141.053ZM57.9323 139.793C57.8603 140.073 57.7683 140.377 57.6563 140.705C57.5443 141.033 57.4243 141.357 57.2963 141.677C57.1683 142.005 57.0363 142.313 56.9003 142.601H55.9763C56.0563 142.289 56.1323 141.957 56.2043 141.605C56.2843 141.261 56.3563 140.921 56.4203 140.585C56.4843 140.249 56.5363 139.941 56.5763 139.661H57.8483L57.9323 139.793ZM64.8616 136.145C64.8616 136.633 64.8256 137.121 64.7536 137.609C64.6816 138.089 64.5616 138.545 64.3936 138.977C64.2256 139.401 63.9856 139.781 63.6736 140.117C63.3696 140.445 62.9816 140.705 62.5096 140.897C62.0456 141.081 61.4816 141.173 60.8176 141.173C60.6576 141.173 60.4696 141.165 60.2536 141.149C60.0376 141.133 59.8576 141.105 59.7136 141.065V139.997C59.8656 140.045 60.0336 140.081 60.2176 140.105C60.4096 140.129 60.5936 140.141 60.7696 140.141C61.3216 140.141 61.7736 140.061 62.1256 139.901C62.4856 139.733 62.7696 139.501 62.9776 139.205C63.1936 138.909 63.3496 138.565 63.4456 138.173C63.5416 137.781 63.5976 137.365 63.6136 136.925H63.5416C63.4216 137.109 63.2736 137.277 63.0976 137.429C62.9216 137.581 62.7056 137.701 62.4496 137.789C62.2016 137.877 61.9016 137.921 61.5496 137.921C61.0616 137.921 60.6296 137.817 60.2536 137.609C59.8856 137.401 59.6016 137.105 59.4016 136.721C59.2016 136.329 59.1016 135.853 59.1016 135.293C59.1016 134.685 59.2136 134.165 59.4376 133.733C59.6696 133.293 59.9936 132.957 60.4096 132.725C60.8336 132.493 61.3256 132.377 61.8856 132.377C62.3016 132.377 62.6896 132.453 63.0496 132.605C63.4096 132.757 63.7256 132.989 63.9976 133.301C64.2696 133.613 64.4816 134.005 64.6336 134.477C64.7856 134.949 64.8616 135.505 64.8616 136.145ZM61.8976 133.421C61.4416 133.421 61.0696 133.573 60.7816 133.877C60.4936 134.181 60.3496 134.645 60.3496 135.269C60.3496 135.781 60.4696 136.185 60.7096 136.481C60.9576 136.777 61.3376 136.925 61.8496 136.925C62.2016 136.925 62.5056 136.853 62.7616 136.709C63.0176 136.557 63.2176 136.373 63.3616 136.157C63.5056 135.933 63.5776 135.701 63.5776 135.461C63.5776 135.221 63.5416 134.981 63.4696 134.741C63.3976 134.501 63.2936 134.281 63.1576 134.081C63.0216 133.881 62.8456 133.721 62.6296 133.601C62.4216 133.481 62.1776 133.421 61.8976 133.421ZM68.5727 135.737C69.1407 135.737 69.6367 135.837 70.0607 136.037C70.4847 136.237 70.8127 136.525 71.0447 136.901C71.2847 137.277 71.4047 137.737 71.4047 138.281C71.4047 138.881 71.2767 139.397 71.0207 139.829C70.7647 140.261 70.3927 140.593 69.9047 140.825C69.4247 141.057 68.8367 141.173 68.1407 141.173C67.7007 141.173 67.2847 141.133 66.8927 141.053C66.5007 140.973 66.1687 140.857 65.8967 140.705V139.541C66.1847 139.709 66.5327 139.845 66.9407 139.949C67.3567 140.053 67.7527 140.105 68.1287 140.105C68.5367 140.105 68.8847 140.045 69.1727 139.925C69.4687 139.797 69.6967 139.609 69.8567 139.361C70.0247 139.105 70.1087 138.785 70.1087 138.401C70.1087 137.881 69.9447 137.485 69.6167 137.213C69.2967 136.933 68.7887 136.793 68.0927 136.793C67.8687 136.793 67.6167 136.813 67.3367 136.853C67.0647 136.893 66.8447 136.933 66.6767 136.973L66.0887 136.625L66.4127 132.485H70.8167V133.613H67.5167L67.3247 135.857C67.4607 135.833 67.6327 135.809 67.8407 135.785C68.0487 135.753 68.2927 135.737 68.5727 135.737ZM78.1399 136.757C78.1399 137.453 78.0839 138.073 77.9719 138.617C77.8679 139.161 77.6999 139.625 77.4679 140.009C77.2439 140.385 76.9439 140.673 76.5679 140.873C76.1999 141.073 75.7559 141.173 75.2359 141.173C74.5799 141.173 74.0399 140.997 73.6159 140.645C73.1919 140.293 72.8759 139.789 72.6679 139.133C72.4599 138.469 72.3559 137.677 72.3559 136.757C72.3559 135.829 72.4479 135.037 72.6319 134.381C72.8239 133.725 73.1319 133.225 73.5559 132.881C73.9799 132.529 74.5399 132.353 75.2359 132.353C75.8919 132.353 76.4319 132.529 76.8559 132.881C77.2879 133.225 77.6079 133.725 77.8159 134.381C78.0319 135.037 78.1399 135.829 78.1399 136.757ZM73.6279 136.757C73.6279 137.501 73.6799 138.121 73.7839 138.617C73.8879 139.113 74.0559 139.485 74.2879 139.733C74.5279 139.981 74.8439 140.105 75.2359 140.105C75.6279 140.105 75.9399 139.985 76.1719 139.745C76.4119 139.497 76.5839 139.125 76.6879 138.629C76.7999 138.125 76.8559 137.501 76.8559 136.757C76.8559 136.013 76.7999 135.397 76.6879 134.909C76.5839 134.413 76.4119 134.041 76.1719 133.793C75.9399 133.545 75.6279 133.421 75.2359 133.421C74.8439 133.421 74.5279 133.545 74.2879 133.793C74.0559 134.041 73.8879 134.413 73.7839 134.909C73.6799 135.397 73.6279 136.013 73.6279 136.757ZM86.6871 134.465C87.4151 134.465 87.9631 134.653 88.3311 135.029C88.6991 135.405 88.8831 136.009 88.8831 136.841V141.053H87.6111V137.009C87.6111 136.513 87.5111 136.141 87.3111 135.893C87.1191 135.637 86.8151 135.509 86.3991 135.509C85.8231 135.509 85.4111 135.689 85.1631 136.049C84.9151 136.401 84.7911 136.913 84.7911 137.585V141.053H83.5311V137.009C83.5311 136.681 83.4831 136.405 83.3871 136.181C83.2991 135.957 83.1671 135.789 82.9911 135.677C82.8151 135.565 82.5871 135.509 82.3071 135.509C81.9071 135.509 81.5911 135.597 81.3591 135.773C81.1271 135.949 80.9591 136.209 80.8551 136.553C80.7591 136.889 80.7111 137.301 80.7111 137.789V141.053H79.4391V134.585H80.4471L80.6271 135.449H80.6991C80.8351 135.225 80.9991 135.041 81.1911 134.897C81.3911 134.753 81.6111 134.645 81.8511 134.573C82.0911 134.501 82.3391 134.465 82.5951 134.465C83.0831 134.465 83.4951 134.553 83.8311 134.729C84.1671 134.897 84.4111 135.157 84.5631 135.509H84.6591C84.8671 135.149 85.1551 134.885 85.5231 134.717C85.8911 134.549 86.2791 134.465 86.6871 134.465ZM97.8378 134.465C98.5658 134.465 99.1138 134.653 99.4818 135.029C99.8498 135.405 100.034 136.009 100.034 136.841V141.053H98.7618V137.009C98.7618 136.513 98.6618 136.141 98.4618 135.893C98.2698 135.637 97.9658 135.509 97.5498 135.509C96.9738 135.509 96.5618 135.689 96.3138 136.049C96.0658 136.401 95.9418 136.913 95.9418 137.585V141.053H94.6818V137.009C94.6818 136.681 94.6338 136.405 94.5378 136.181C94.4498 135.957 94.3178 135.789 94.1418 135.677C93.9658 135.565 93.7378 135.509 93.4578 135.509C93.0578 135.509 92.7418 135.597 92.5098 135.773C92.2778 135.949 92.1098 136.209 92.0058 136.553C91.9098 136.889 91.8618 137.301 91.8618 137.789V141.053H90.5898V134.585H91.5978L91.7778 135.449H91.8498C91.9858 135.225 92.1498 135.041 92.3418 134.897C92.5418 134.753 92.7618 134.645 93.0018 134.573C93.2418 134.501 93.4898 134.465 93.7458 134.465C94.2338 134.465 94.6458 134.553 94.9818 134.729C95.3178 134.897 95.5618 135.157 95.7138 135.509H95.8098C96.0178 135.149 96.3058 134.885 96.6738 134.717C97.0418 134.549 97.4298 134.465 97.8378 134.465Z" fill="#A6A5A3"/>
<path d="M143.71 129.081C143.71 129.761 143.622 130.381 143.446 130.941C143.27 131.493 143.006 131.965 142.654 132.357C142.302 132.749 141.862 133.041 141.334 133.233L143.386 135.417H141.61L139.978 133.485C139.938 133.485 139.894 133.485 139.846 133.485C139.806 133.493 139.766 133.497 139.726 133.497C139.046 133.497 138.454 133.393 137.95 133.185C137.454 132.969 137.038 132.669 136.702 132.285C136.374 131.893 136.13 131.425 135.97 130.881C135.81 130.337 135.73 129.733 135.73 129.069C135.73 128.189 135.874 127.421 136.162 126.765C136.45 126.109 136.89 125.597 137.482 125.229C138.082 124.861 138.834 124.677 139.738 124.677C140.618 124.677 141.35 124.861 141.934 125.229C142.526 125.589 142.97 126.101 143.266 126.765C143.562 127.421 143.71 128.193 143.71 129.081ZM137.098 129.081C137.098 129.769 137.19 130.361 137.374 130.857C137.558 131.345 137.846 131.725 138.238 131.997C138.63 132.261 139.126 132.393 139.726 132.393C140.334 132.393 140.83 132.261 141.214 131.997C141.598 131.725 141.882 131.345 142.066 130.857C142.25 130.361 142.342 129.769 142.342 129.081C142.342 128.049 142.134 127.245 141.718 126.669C141.31 126.085 140.65 125.793 139.738 125.793C139.13 125.793 138.63 125.925 138.238 126.189C137.846 126.453 137.558 126.829 137.374 127.317C137.19 127.805 137.098 128.393 137.098 129.081ZM147.885 132.669C147.885 132.357 147.965 132.137 148.125 132.009C148.285 131.881 148.477 131.817 148.701 131.817C148.933 131.817 149.129 131.881 149.289 132.009C149.449 132.137 149.529 132.357 149.529 132.669C149.529 132.981 149.449 133.205 149.289 133.341C149.129 133.477 148.933 133.545 148.701 133.545C148.477 133.545 148.285 133.477 148.125 133.341C147.965 133.205 147.885 132.981 147.885 132.669ZM147.885 127.629C147.885 127.301 147.965 127.073 148.125 126.945C148.285 126.817 148.477 126.753 148.701 126.753C148.933 126.753 149.129 126.817 149.289 126.945C149.449 127.073 149.529 127.301 149.529 127.629C149.529 127.933 149.449 128.153 149.289 128.289C149.129 128.425 148.933 128.493 148.701 128.493C148.477 128.493 148.285 128.425 148.125 128.289C147.965 128.153 147.885 127.933 147.885 127.629ZM157.452 133.377H156.192V127.689C156.192 127.489 156.192 127.305 156.192 127.137C156.2 126.961 156.208 126.793 156.216 126.633C156.224 126.465 156.232 126.305 156.24 126.153C156.136 126.257 156.028 126.357 155.916 126.453C155.804 126.549 155.676 126.661 155.532 126.789L154.596 127.545L153.948 126.729L156.396 124.809H157.452V133.377ZM162.027 132.117C161.955 132.397 161.863 132.701 161.751 133.029C161.639 133.357 161.519 133.681 161.391 134.001C161.263 134.329 161.131 134.637 160.995 134.925H160.071C160.151 134.613 160.227 134.281 160.299 133.929C160.379 133.585 160.451 133.245 160.515 132.909C160.579 132.573 160.631 132.265 160.671 131.985H161.943L162.027 132.117ZM169.292 131.481H168.104V133.377H166.868V131.481H162.896V130.473L166.844 124.773H168.104V130.401H169.292V131.481ZM166.868 128.073C166.868 127.881 166.868 127.697 166.868 127.521C166.876 127.345 166.884 127.177 166.892 127.017C166.9 126.849 166.904 126.697 166.904 126.561C166.912 126.417 166.92 126.289 166.928 126.177H166.88C166.816 126.337 166.736 126.501 166.64 126.669C166.552 126.837 166.46 126.985 166.364 127.113L164.096 130.401H166.868V128.073ZM172.667 128.061C173.235 128.061 173.731 128.161 174.155 128.361C174.579 128.561 174.907 128.849 175.139 129.225C175.379 129.601 175.499 130.061 175.499 130.605C175.499 131.205 175.371 131.721 175.115 132.153C174.859 132.585 174.487 132.917 173.999 133.149C173.519 133.381 172.931 133.497 172.235 133.497C171.795 133.497 171.379 133.457 170.987 133.377C170.595 133.297 170.263 133.181 169.991 133.029V131.865C170.279 132.033 170.627 132.169 171.035 132.273C171.451 132.377 171.847 132.429 172.223 132.429C172.631 132.429 172.979 132.369 173.267 132.249C173.563 132.121 173.791 131.933 173.951 131.685C174.119 131.429 174.203 131.109 174.203 130.725C174.203 130.205 174.039 129.809 173.711 129.537C173.391 129.257 172.883 129.117 172.187 129.117C171.963 129.117 171.711 129.137 171.431 129.177C171.159 129.217 170.939 129.257 170.771 129.297L170.183 128.949L170.507 124.809H174.911V125.937H171.611L171.419 128.181C171.555 128.157 171.727 128.133 171.935 128.109C172.143 128.077 172.387 128.061 172.667 128.061ZM182.234 129.081C182.234 129.777 182.178 130.397 182.066 130.941C181.962 131.485 181.794 131.949 181.562 132.333C181.338 132.709 181.038 132.997 180.662 133.197C180.294 133.397 179.85 133.497 179.33 133.497C178.674 133.497 178.134 133.321 177.71 132.969C177.286 132.617 176.97 132.113 176.762 131.457C176.554 130.793 176.45 130.001 176.45 129.081C176.45 128.153 176.542 127.361 176.726 126.705C176.918 126.049 177.226 125.549 177.65 125.205C178.074 124.853 178.634 124.677 179.33 124.677C179.986 124.677 180.526 124.853 180.95 125.205C181.382 125.549 181.702 126.049 181.91 126.705C182.126 127.361 182.234 128.153 182.234 129.081ZM177.722 129.081C177.722 129.825 177.774 130.445 177.878 130.941C177.982 131.437 178.15 131.809 178.382 132.057C178.622 132.305 178.938 132.429 179.33 132.429C179.722 132.429 180.034 132.309 180.266 132.069C180.506 131.821 180.678 131.449 180.782 130.953C180.894 130.449 180.95 129.825 180.95 129.081C180.95 128.337 180.894 127.721 180.782 127.233C180.678 126.737 180.506 126.365 180.266 126.117C180.034 125.869 179.722 125.745 179.33 125.745C178.938 125.745 178.622 125.869 178.382 126.117C178.15 126.365 177.982 126.737 177.878 127.233C177.774 127.721 177.722 128.337 177.722 129.081ZM190.782 126.789C191.51 126.789 192.058 126.977 192.426 127.353C192.794 127.729 192.978 128.333 192.978 129.165V133.377H191.706V129.333C191.706 128.837 191.606 128.465 191.406 128.217C191.214 127.961 190.91 127.833 190.494 127.833C189.918 127.833 189.506 128.013 189.258 128.373C189.01 128.725 188.886 129.237 188.886 129.909V133.377H187.626V129.333C187.626 129.005 187.578 128.729 187.482 128.505C187.394 128.281 187.262 128.113 187.086 128.001C186.91 127.889 186.682 127.833 186.402 127.833C186.002 127.833 185.686 127.921 185.454 128.097C185.222 128.273 185.054 128.533 184.95 128.877C184.854 129.213 184.806 129.625 184.806 130.113V133.377H183.534V126.909H184.542L184.722 127.773H184.794C184.93 127.549 185.094 127.365 185.286 127.221C185.486 127.077 185.706 126.969 185.946 126.897C186.186 126.825 186.434 126.789 186.69 126.789C187.178 126.789 187.59 126.877 187.926 127.053C188.262 127.221 188.506 127.481 188.658 127.833H188.754C188.962 127.473 189.25 127.209 189.618 127.041C189.986 126.873 190.374 126.789 190.782 126.789ZM201.932 126.789C202.66 126.789 203.208 126.977 203.576 127.353C203.944 127.729 204.128 128.333 204.128 129.165V133.377H202.856V129.333C202.856 128.837 202.756 128.465 202.556 128.217C202.364 127.961 202.06 127.833 201.644 127.833C201.068 127.833 200.656 128.013 200.408 128.373C200.16 128.725 200.036 129.237 200.036 129.909V133.377H198.776V129.333C198.776 129.005 198.728 128.729 198.632 128.505C198.544 128.281 198.412 128.113 198.236 128.001C198.06 127.889 197.832 127.833 197.552 127.833C197.152 127.833 196.836 127.921 196.604 128.097C196.372 128.273 196.204 128.533 196.1 128.877C196.004 129.213 195.956 129.625 195.956 130.113V133.377H194.684V126.909H195.692L195.872 127.773H195.944C196.08 127.549 196.244 127.365 196.436 127.221C196.636 127.077 196.856 126.969 197.096 126.897C197.336 126.825 197.584 126.789 197.84 126.789C198.328 126.789 198.74 126.877 199.076 127.053C199.412 127.221 199.656 127.481 199.808 127.833H199.904C200.112 127.473 200.4 127.209 200.768 127.041C201.136 126.873 201.524 126.789 201.932 126.789Z" fill="#759FA3"/>
<path d="M251.654 136.521L246.654 133.635V139.408L251.654 136.521ZM119.059 136.521L124.059 139.408V133.635L119.059 136.521ZM247.154 136.521V136.021L123.559 136.021V136.521V137.021L247.154 137.021V136.521Z" fill="#759FA3"/>
<path d="M143.211 172.457H141.711L138.903 168.509L138.063 169.205V172.457H136.767V163.889H138.063V168.029C138.271 167.781 138.479 167.537 138.687 167.297C138.895 167.057 139.103 166.817 139.311 166.577L141.627 163.889H143.115L139.839 167.633L143.211 172.457ZM146.663 171.749C146.663 171.437 146.743 171.217 146.903 171.089C147.063 170.961 147.255 170.897 147.479 170.897C147.711 170.897 147.907 170.961 148.067 171.089C148.227 171.217 148.307 171.437 148.307 171.749C148.307 172.061 148.227 172.285 148.067 172.421C147.907 172.557 147.711 172.625 147.479 172.625C147.255 172.625 147.063 172.557 146.903 172.421C146.743 172.285 146.663 172.061 146.663 171.749ZM146.663 166.709C146.663 166.381 146.743 166.153 146.903 166.025C147.063 165.897 147.255 165.833 147.479 165.833C147.711 165.833 147.907 165.897 148.067 166.025C148.227 166.153 148.307 166.381 148.307 166.709C148.307 167.013 148.227 167.233 148.067 167.369C147.907 167.505 147.711 167.573 147.479 167.573C147.255 167.573 147.063 167.505 146.903 167.369C146.743 167.233 146.663 167.013 146.663 166.709ZM156.229 172.457H154.969V166.769C154.969 166.569 154.969 166.385 154.969 166.217C154.977 166.041 154.985 165.873 154.993 165.713C155.001 165.545 155.009 165.385 155.017 165.233C154.913 165.337 154.805 165.437 154.693 165.533C154.581 165.629 154.453 165.741 154.309 165.869L153.373 166.625L152.725 165.809L155.173 163.889H156.229V172.457ZM160.804 171.197C160.732 171.477 160.64 171.781 160.528 172.109C160.416 172.437 160.296 172.761 160.168 173.081C160.04 173.409 159.908 173.717 159.772 174.005H158.848C158.928 173.693 159.004 173.361 159.076 173.009C159.156 172.665 159.228 172.325 159.292 171.989C159.356 171.653 159.408 171.345 159.448 171.065H160.72L160.804 171.197ZM162.022 168.809C162.022 168.313 162.054 167.825 162.118 167.345C162.19 166.865 162.31 166.413 162.478 165.989C162.654 165.557 162.894 165.177 163.198 164.849C163.502 164.513 163.886 164.253 164.35 164.069C164.822 163.877 165.39 163.781 166.054 163.781C166.222 163.781 166.41 163.789 166.618 163.805C166.834 163.813 167.01 163.837 167.146 163.877V164.945C166.994 164.897 166.826 164.861 166.642 164.837C166.466 164.813 166.29 164.801 166.114 164.801C165.562 164.801 165.106 164.885 164.746 165.053C164.386 165.221 164.102 165.453 163.894 165.749C163.686 166.045 163.534 166.389 163.438 166.781C163.342 167.165 163.282 167.585 163.258 168.041H163.33C163.45 167.849 163.598 167.677 163.774 167.525C163.95 167.373 164.166 167.253 164.422 167.165C164.678 167.077 164.974 167.033 165.31 167.033C165.806 167.033 166.238 167.137 166.606 167.345C166.982 167.553 167.27 167.853 167.47 168.245C167.678 168.637 167.782 169.113 167.782 169.673C167.782 170.273 167.666 170.793 167.434 171.233C167.21 171.665 166.89 171.997 166.474 172.229C166.066 172.461 165.574 172.577 164.998 172.577C164.582 172.577 164.194 172.501 163.834 172.349C163.474 172.197 163.158 171.965 162.886 171.653C162.614 171.341 162.402 170.949 162.25 170.477C162.098 169.997 162.022 169.441 162.022 168.809ZM164.986 171.521C165.442 171.521 165.814 171.373 166.102 171.077C166.39 170.773 166.534 170.305 166.534 169.673C166.534 169.169 166.406 168.769 166.15 168.473C165.902 168.177 165.526 168.029 165.022 168.029C164.678 168.029 164.378 168.101 164.122 168.245C163.866 168.389 163.666 168.573 163.522 168.797C163.378 169.021 163.306 169.249 163.306 169.481C163.306 169.729 163.342 169.973 163.414 170.213C163.486 170.453 163.59 170.673 163.726 170.873C163.87 171.073 164.046 171.233 164.254 171.353C164.462 171.465 164.706 171.521 164.986 171.521ZM171.445 167.141C172.013 167.141 172.509 167.241 172.933 167.441C173.357 167.641 173.685 167.929 173.917 168.305C174.157 168.681 174.277 169.141 174.277 169.685C174.277 170.285 174.149 170.801 173.893 171.233C173.637 171.665 173.265 171.997 172.777 172.229C172.297 172.461 171.709 172.577 171.013 172.577C170.573 172.577 170.157 172.537 169.765 172.457C169.373 172.377 169.041 172.261 168.769 172.109V170.945C169.057 171.113 169.405 171.249 169.813 171.353C170.229 171.457 170.625 171.509 171.001 171.509C171.409 171.509 171.757 171.449 172.045 171.329C172.341 171.201 172.569 171.013 172.729 170.765C172.897 170.509 172.981 170.189 172.981 169.805C172.981 169.285 172.817 168.889 172.489 168.617C172.169 168.337 171.661 168.197 170.965 168.197C170.741 168.197 170.489 168.217 170.209 168.257C169.937 168.297 169.717 168.337 169.549 168.377L168.961 168.029L169.285 163.889H173.689V165.017H170.389L170.197 167.261C170.333 167.237 170.505 167.213 170.713 167.189C170.921 167.157 171.165 167.141 171.445 167.141ZM181.012 168.161C181.012 168.857 180.956 169.477 180.844 170.021C180.74 170.565 180.572 171.029 180.34 171.413C180.116 171.789 179.816 172.077 179.44 172.277C179.072 172.477 178.628 172.577 178.108 172.577C177.452 172.577 176.912 172.401 176.488 172.049C176.064 171.697 175.748 171.193 175.54 170.537C175.332 169.873 175.228 169.081 175.228 168.161C175.228 167.233 175.32 166.441 175.504 165.785C175.696 165.129 176.004 164.629 176.428 164.285C176.852 163.933 177.412 163.757 178.108 163.757C178.764 163.757 179.304 163.933 179.728 164.285C180.16 164.629 180.48 165.129 180.688 165.785C180.904 166.441 181.012 167.233 181.012 168.161ZM176.5 168.161C176.5 168.905 176.552 169.525 176.656 170.021C176.76 170.517 176.928 170.889 177.16 171.137C177.4 171.385 177.716 171.509 178.108 171.509C178.5 171.509 178.812 171.389 179.044 171.149C179.284 170.901 179.456 170.529 179.56 170.033C179.672 169.529 179.728 168.905 179.728 168.161C179.728 167.417 179.672 166.801 179.56 166.313C179.456 165.817 179.284 165.445 179.044 165.197C178.812 164.949 178.5 164.825 178.108 164.825C177.716 164.825 177.4 164.949 177.16 165.197C176.928 165.445 176.76 165.817 176.656 166.313C176.552 166.801 176.5 167.417 176.5 168.161ZM189.559 165.869C190.287 165.869 190.835 166.057 191.203 166.433C191.571 166.809 191.755 167.413 191.755 168.245V172.457H190.483V168.413C190.483 167.917 190.383 167.545 190.183 167.297C189.991 167.041 189.687 166.913 189.271 166.913C188.695 166.913 188.283 167.093 188.035 167.453C187.787 167.805 187.663 168.317 187.663 168.989V172.457H186.403V168.413C186.403 168.085 186.355 167.809 186.259 167.585C186.171 167.361 186.039 167.193 185.863 167.081C185.687 166.969 185.459 166.913 185.179 166.913C184.779 166.913 184.463 167.001 184.231 167.177C183.999 167.353 183.831 167.613 183.727 167.957C183.631 168.293 183.583 168.705 183.583 169.193V172.457H182.311V165.989H183.319L183.499 166.853H183.571C183.707 166.629 183.871 166.445 184.063 166.301C184.263 166.157 184.483 166.049 184.723 165.977C184.963 165.905 185.211 165.869 185.467 165.869C185.955 165.869 186.367 165.957 186.703 166.133C187.039 166.301 187.283 166.561 187.435 166.913H187.531C187.739 166.553 188.027 166.289 188.395 166.121C188.763 165.953 189.151 165.869 189.559 165.869ZM200.71 165.869C201.438 165.869 201.986 166.057 202.354 166.433C202.722 166.809 202.906 167.413 202.906 168.245V172.457H201.634V168.413C201.634 167.917 201.534 167.545 201.334 167.297C201.142 167.041 200.838 166.913 200.422 166.913C199.846 166.913 199.434 167.093 199.186 167.453C198.938 167.805 198.814 168.317 198.814 168.989V172.457H197.554V168.413C197.554 168.085 197.506 167.809 197.41 167.585C197.322 167.361 197.19 167.193 197.014 167.081C196.838 166.969 196.61 166.913 196.33 166.913C195.93 166.913 195.614 167.001 195.382 167.177C195.15 167.353 194.982 167.613 194.878 167.957C194.782 168.293 194.734 168.705 194.734 169.193V172.457H193.462V165.989H194.47L194.65 166.853H194.722C194.858 166.629 195.022 166.445 195.214 166.301C195.414 166.157 195.634 166.049 195.874 165.977C196.114 165.905 196.362 165.869 196.618 165.869C197.106 165.869 197.518 165.957 197.854 166.133C198.19 166.301 198.434 166.561 198.586 166.913H198.682C198.89 166.553 199.178 166.289 199.546 166.121C199.914 165.953 200.302 165.869 200.71 165.869Z" fill="#918BB1"/>
<path d="M273.288 175.602L268.288 172.715V178.488L273.288 175.602ZM119.059 175.602L124.059 178.488V172.715L119.059 175.602ZM268.788 175.602V175.102L123.559 175.102V175.602V176.102L268.788 176.102V175.602Z" fill="#918BB1"/>
</svg>
