<svg width="321" height="281" viewBox="0 0 321 281" fill="none" xmlns="http://www.w3.org/2000/svg">
<path d="M234.75 31.0547H256.18C257.934 31.0547 259.358 32.4785 259.358 34.2324V245.27C259.358 247.024 257.934 248.448 256.18 248.448H234.75" stroke="#918BB1" stroke-miterlimit="10"/>
<path d="M237.927 34.957H252.895C254.53 34.957 255.858 36.3271 255.858 38.0196V241.478C255.858 243.17 254.53 244.541 252.895 244.541H237.927" stroke="#918BB1" stroke-width="0.75" stroke-miterlimit="10"/>
<path d="M202.035 31.0547H234.753C236.506 31.0547 237.93 32.4785 237.93 34.2324V245.27C237.93 247.024 236.506 248.448 234.753 248.448H202.035" stroke="#759FA3" stroke-miterlimit="10"/>
<path d="M205.212 34.957H231.463C233.098 34.957 234.426 36.3271 234.426 38.0196V241.478C234.426 243.17 233.098 244.541 231.463 244.541H205.212" stroke="#759FA3" stroke-width="0.75" stroke-miterlimit="10"/>
<path d="M159.136 248.452H104.493C102.739 248.452 101.315 247.028 101.315 245.274V34.2324C101.315 32.4785 102.739 31.0547 104.493 31.0547H202.035C203.789 31.0547 205.213 32.4785 205.213 34.2324V245.27C205.213 247.024 203.789 248.448 202.035 248.448H159.136V248.452Z" stroke="#A49879" stroke-miterlimit="10"/>
<path d="M158.741 244.544H107.782C106.147 244.544 104.819 243.174 104.819 241.482V38.0235C104.819 36.331 106.147 34.9609 107.782 34.9609H198.75C200.385 34.9609 201.713 36.331 201.713 38.0235V241.482C201.713 243.174 200.385 244.544 198.75 244.544H158.745H158.741Z" stroke="#A49879" stroke-width="0.75" stroke-miterlimit="10"/>
<path d="M93.9279 31.0898H92.0819C90.7924 31.0898 89.7446 32.1337 89.7446 33.4271L89.7446 245.992C89.7446 247.281 90.7924 248.329 92.0819 248.329H93.9279" stroke="#D9D9D9" stroke-miterlimit="10"/>
<path d="M34.0408 149.188H27.3208V148.039L29.8968 145.421C30.4008 144.908 30.8208 144.465 31.1568 144.091C31.4928 143.709 31.7448 143.345 31.9128 142.999C32.0808 142.645 32.1648 142.262 32.1648 141.851C32.1648 141.338 32.0155 140.955 31.7168 140.703C31.4182 140.442 31.0308 140.311 30.5548 140.311C30.0975 140.311 29.6868 140.4 29.3228 140.577C28.9588 140.745 28.5808 140.983 28.1888 141.291L27.3908 140.297C27.6615 140.064 27.9508 139.854 28.2588 139.667C28.5762 139.481 28.9262 139.331 29.3088 139.219C29.7008 139.107 30.1302 139.051 30.5968 139.051C31.2315 139.051 31.7775 139.163 32.2348 139.387C32.6922 139.602 33.0422 139.91 33.2848 140.311C33.5368 140.713 33.6628 141.184 33.6628 141.725C33.6628 142.127 33.6022 142.505 33.4808 142.859C33.3595 143.205 33.1822 143.545 32.9488 143.881C32.7248 144.217 32.4495 144.558 32.1228 144.903C31.7962 145.249 31.4368 145.613 31.0448 145.995L29.1828 147.801V147.871H34.0408V149.188ZM36.5025 147.717C36.4185 148.044 36.3112 148.399 36.1805 148.781C36.0499 149.164 35.9099 149.542 35.7605 149.916C35.6112 150.298 35.4572 150.658 35.2985 150.994H34.2205C34.3139 150.63 34.4025 150.242 34.4865 149.832C34.5799 149.43 34.6639 149.033 34.7385 148.641C34.8132 148.249 34.8739 147.89 34.9205 147.563H36.4045L36.5025 147.717ZM43.8947 144.175C43.8947 144.987 43.8293 145.711 43.6987 146.345C43.5773 146.98 43.3813 147.521 43.1107 147.969C42.8493 148.408 42.4993 148.744 42.0607 148.977C41.6313 149.211 41.1133 149.328 40.5067 149.328C39.7413 149.328 39.1113 149.122 38.6167 148.711C38.122 148.301 37.7533 147.713 37.5107 146.947C37.268 146.173 37.1467 145.249 37.1467 144.175C37.1467 143.093 37.254 142.169 37.4687 141.403C37.6927 140.638 38.052 140.055 38.5467 139.653C39.0413 139.243 39.6947 139.037 40.5067 139.037C41.272 139.037 41.902 139.243 42.3967 139.653C42.9007 140.055 43.274 140.638 43.5167 141.403C43.7687 142.169 43.8947 143.093 43.8947 144.175ZM38.6307 144.175C38.6307 145.043 38.6913 145.767 38.8127 146.345C38.934 146.924 39.13 147.358 39.4007 147.647C39.6807 147.937 40.0493 148.081 40.5067 148.081C40.964 148.081 41.328 147.941 41.5987 147.661C41.8787 147.372 42.0793 146.938 42.2007 146.359C42.3313 145.771 42.3967 145.043 42.3967 144.175C42.3967 143.307 42.3313 142.589 42.2007 142.019C42.0793 141.441 41.8787 141.007 41.5987 140.717C41.328 140.428 40.964 140.283 40.5067 140.283C40.0493 140.283 39.6807 140.428 39.4007 140.717C39.13 141.007 38.934 141.441 38.8127 142.019C38.6913 142.589 38.6307 143.307 38.6307 144.175ZM50.9064 144.175C50.9064 144.987 50.8411 145.711 50.7104 146.345C50.5891 146.98 50.3931 147.521 50.1224 147.969C49.8611 148.408 49.5111 148.744 49.0724 148.977C48.6431 149.211 48.1251 149.328 47.5184 149.328C46.7531 149.328 46.1231 149.122 45.6284 148.711C45.1337 148.301 44.7651 147.713 44.5224 146.947C44.2797 146.173 44.1584 145.249 44.1584 144.175C44.1584 143.093 44.2657 142.169 44.4804 141.403C44.7044 140.638 45.0637 140.055 45.5584 139.653C46.0531 139.243 46.7064 139.037 47.5184 139.037C48.2837 139.037 48.9137 139.243 49.4084 139.653C49.9124 140.055 50.2857 140.638 50.5284 141.403C50.7804 142.169 50.9064 143.093 50.9064 144.175ZM45.6424 144.175C45.6424 145.043 45.7031 145.767 45.8244 146.345C45.9457 146.924 46.1417 147.358 46.4124 147.647C46.6924 147.937 47.0611 148.081 47.5184 148.081C47.9757 148.081 48.3397 147.941 48.6104 147.661C48.8904 147.372 49.0911 146.938 49.2124 146.359C49.3431 145.771 49.4084 145.043 49.4084 144.175C49.4084 143.307 49.3431 142.589 49.2124 142.019C49.0911 141.441 48.8904 141.007 48.6104 140.717C48.3397 140.428 47.9757 140.283 47.5184 140.283C47.0611 140.283 46.6924 140.428 46.4124 140.717C46.1417 141.007 45.9457 141.441 45.8244 142.019C45.7031 142.589 45.6424 143.307 45.6424 144.175ZM57.9181 144.175C57.9181 144.987 57.8528 145.711 57.7221 146.345C57.6008 146.98 57.4048 147.521 57.1341 147.969C56.8728 148.408 56.5228 148.744 56.0841 148.977C55.6548 149.211 55.1368 149.328 54.5301 149.328C53.7648 149.328 53.1348 149.122 52.6401 148.711C52.1454 148.301 51.7768 147.713 51.5341 146.947C51.2914 146.173 51.1701 145.249 51.1701 144.175C51.1701 143.093 51.2774 142.169 51.4921 141.403C51.7161 140.638 52.0754 140.055 52.5701 139.653C53.0648 139.243 53.7181 139.037 54.5301 139.037C55.2954 139.037 55.9254 139.243 56.4201 139.653C56.9241 140.055 57.2974 140.638 57.5401 141.403C57.7921 142.169 57.9181 143.093 57.9181 144.175ZM52.6541 144.175C52.6541 145.043 52.7148 145.767 52.8361 146.345C52.9574 146.924 53.1534 147.358 53.4241 147.647C53.7041 147.937 54.0728 148.081 54.5301 148.081C54.9874 148.081 55.3514 147.941 55.6221 147.661C55.9021 147.372 56.1028 146.938 56.2241 146.359C56.3548 145.771 56.4201 145.043 56.4201 144.175C56.4201 143.307 56.3548 142.589 56.2241 142.019C56.1028 141.441 55.9021 141.007 55.6221 140.717C55.3514 140.428 54.9874 140.283 54.5301 140.283C54.0728 140.283 53.7041 140.428 53.4241 140.717C53.1534 141.007 52.9574 141.441 52.8361 142.019C52.7148 142.589 52.6541 143.307 52.6541 144.175ZM67.1698 141.501C68.0192 141.501 68.6585 141.721 69.0878 142.159C69.5172 142.598 69.7318 143.303 69.7318 144.273V149.188H68.2478V144.469C68.2478 143.891 68.1312 143.457 67.8978 143.167C67.6738 142.869 67.3192 142.719 66.8338 142.719C66.1618 142.719 65.6812 142.929 65.3918 143.349C65.1025 143.76 64.9578 144.357 64.9578 145.141V149.188H63.4878V144.469C63.4878 144.087 63.4318 143.765 63.3198 143.503C63.2172 143.242 63.0632 143.046 62.8578 142.915C62.6525 142.785 62.3865 142.719 62.0598 142.719C61.5932 142.719 61.2245 142.822 60.9538 143.027C60.6832 143.233 60.4872 143.536 60.3658 143.937C60.2538 144.329 60.1978 144.81 60.1978 145.379V149.188H58.7138V141.641H59.8898L60.0998 142.649H60.1838C60.3425 142.388 60.5338 142.173 60.7578 142.005C60.9912 141.837 61.2478 141.711 61.5278 141.627C61.8078 141.543 62.0972 141.501 62.3958 141.501C62.9652 141.501 63.4458 141.604 63.8378 141.809C64.2298 142.005 64.5145 142.309 64.6918 142.719H64.8038C65.0465 142.299 65.3825 141.991 65.8118 141.796C66.2412 141.599 66.6938 141.501 67.1698 141.501ZM79.4589 141.501C80.3082 141.501 80.9476 141.721 81.3769 142.159C81.8062 142.598 82.0209 143.303 82.0209 144.273V149.188H80.5369V144.469C80.5369 143.891 80.4202 143.457 80.1869 143.167C79.9629 142.869 79.6082 142.719 79.1229 142.719C78.4509 142.719 77.9702 142.929 77.6809 143.349C77.3916 143.76 77.2469 144.357 77.2469 145.141V149.188H75.7769V144.469C75.7769 144.087 75.7209 143.765 75.6089 143.503C75.5062 143.242 75.3522 143.046 75.1469 142.915C74.9416 142.785 74.6756 142.719 74.3489 142.719C73.8822 142.719 73.5136 142.822 73.2429 143.027C72.9722 143.233 72.7762 143.536 72.6549 143.937C72.5429 144.329 72.4869 144.81 72.4869 145.379V149.188H71.0029V141.641H72.1789L72.3889 142.649H72.4729C72.6316 142.388 72.8229 142.173 73.0469 142.005C73.2802 141.837 73.5369 141.711 73.8169 141.627C74.0969 141.543 74.3862 141.501 74.6849 141.501C75.2542 141.501 75.7349 141.604 76.1269 141.809C76.5189 142.005 76.8036 142.309 76.9809 142.719H77.0929C77.3356 142.299 77.6716 141.991 78.1009 141.796C78.5302 141.599 78.9829 141.501 79.4589 141.501Z" fill="#A6A5A3"/>
<path d="M126.22 96.2003C126.22 96.7977 126.075 97.3063 125.786 97.7263C125.496 98.1463 125.081 98.473 124.54 98.7063C123.998 98.9303 123.354 99.0423 122.608 99.0423C122.244 99.0423 121.894 99.019 121.558 98.9723C121.222 98.935 120.909 98.879 120.62 98.8043C120.33 98.7297 120.074 98.6363 119.85 98.5243V97.0963C120.223 97.2643 120.662 97.4183 121.166 97.5583C121.67 97.689 122.183 97.7543 122.706 97.7543C123.154 97.7543 123.527 97.6937 123.826 97.5723C124.124 97.451 124.348 97.283 124.498 97.0683C124.647 96.8537 124.722 96.6017 124.722 96.3123C124.722 96.0043 124.642 95.7477 124.484 95.5423C124.334 95.3277 124.096 95.1317 123.77 94.9543C123.452 94.7677 123.023 94.5717 122.482 94.3663C122.108 94.2263 121.768 94.0723 121.46 93.9043C121.161 93.727 120.895 93.5217 120.662 93.2883C120.438 93.055 120.265 92.7843 120.144 92.4763C120.022 92.1683 119.962 91.809 119.962 91.3983C119.962 90.8477 120.097 90.3763 120.368 89.9843C120.648 89.5923 121.03 89.2937 121.516 89.0883C122.001 88.8737 122.566 88.7663 123.21 88.7663C123.751 88.7663 124.25 88.8223 124.708 88.9343C125.174 89.037 125.618 89.1817 126.038 89.3683L125.562 90.6143C125.179 90.4557 124.792 90.325 124.4 90.2223C124.008 90.1197 123.597 90.0683 123.168 90.0683C122.794 90.0683 122.482 90.1243 122.23 90.2363C121.978 90.3483 121.786 90.5023 121.656 90.6983C121.534 90.8943 121.474 91.123 121.474 91.3843C121.474 91.6923 121.544 91.949 121.684 92.1543C121.824 92.3597 122.048 92.551 122.356 92.7283C122.664 92.8963 123.07 93.083 123.574 93.2883C124.134 93.503 124.61 93.7363 125.002 93.9883C125.403 94.2403 125.706 94.5437 125.912 94.8983C126.117 95.2437 126.22 95.6777 126.22 96.2003ZM129.436 98.0763C129.436 97.7123 129.529 97.4557 129.716 97.3063C129.902 97.157 130.126 97.0823 130.388 97.0823C130.658 97.0823 130.887 97.157 131.074 97.3063C131.26 97.4557 131.354 97.7123 131.354 98.0763C131.354 98.4403 131.26 98.7017 131.074 98.8603C130.887 99.019 130.658 99.0983 130.388 99.0983C130.126 99.0983 129.902 99.019 129.716 98.8603C129.529 98.7017 129.436 98.4403 129.436 98.0763ZM129.436 92.1963C129.436 91.8137 129.529 91.5477 129.716 91.3983C129.902 91.249 130.126 91.1743 130.388 91.1743C130.658 91.1743 130.887 91.249 131.074 91.3983C131.26 91.5477 131.354 91.8137 131.354 92.1963C131.354 92.551 131.26 92.8077 131.074 92.9663C130.887 93.125 130.658 93.2043 130.388 93.2043C130.126 93.2043 129.902 93.125 129.716 92.9663C129.529 92.8077 129.436 92.551 129.436 92.1963ZM139.156 98.9023H137.686V92.2663C137.686 92.033 137.686 91.8183 137.686 91.6223C137.696 91.417 137.705 91.221 137.714 91.0343C137.724 90.8383 137.733 90.6517 137.742 90.4743C137.621 90.5957 137.495 90.7123 137.364 90.8243C137.234 90.9363 137.084 91.067 136.916 91.2163L135.824 92.0983L135.068 91.1463L137.924 88.9063H139.156V98.9023ZM143.774 97.4323C143.69 97.759 143.583 98.1137 143.452 98.4963C143.321 98.879 143.181 99.257 143.032 99.6303C142.883 100.013 142.729 100.372 142.57 100.708H141.492C141.585 100.344 141.674 99.957 141.758 99.5463C141.851 99.145 141.935 98.7483 142.01 98.3563C142.085 97.9643 142.145 97.605 142.192 97.2783H143.676L143.774 97.4323ZM148.996 98.9023H147.526V92.2663C147.526 92.033 147.526 91.8183 147.526 91.6223C147.536 91.417 147.545 91.221 147.554 91.0343C147.564 90.8383 147.573 90.6517 147.582 90.4743C147.461 90.5957 147.335 90.7123 147.204 90.8243C147.074 90.9363 146.924 91.067 146.756 91.2163L145.664 92.0983L144.908 91.1463L147.764 88.9063H148.996V98.9023ZM158.178 93.8903C158.178 94.7023 158.113 95.4257 157.982 96.0603C157.861 96.695 157.665 97.2363 157.394 97.6843C157.133 98.123 156.783 98.459 156.344 98.6923C155.915 98.9257 155.397 99.0423 154.79 99.0423C154.025 99.0423 153.395 98.837 152.9 98.4263C152.405 98.0157 152.037 97.4277 151.794 96.6623C151.551 95.8877 151.43 94.9637 151.43 93.8903C151.43 92.8077 151.537 91.8837 151.752 91.1183C151.976 90.353 152.335 89.7697 152.83 89.3683C153.325 88.9577 153.978 88.7523 154.79 88.7523C155.555 88.7523 156.185 88.9577 156.68 89.3683C157.184 89.7697 157.557 90.353 157.8 91.1183C158.052 91.8837 158.178 92.8077 158.178 93.8903ZM152.914 93.8903C152.914 94.7583 152.975 95.4817 153.096 96.0603C153.217 96.639 153.413 97.073 153.684 97.3623C153.964 97.6517 154.333 97.7963 154.79 97.7963C155.247 97.7963 155.611 97.6563 155.882 97.3763C156.162 97.087 156.363 96.653 156.484 96.0743C156.615 95.4863 156.68 94.7583 156.68 93.8903C156.68 93.0223 156.615 92.3037 156.484 91.7343C156.363 91.1557 156.162 90.7217 155.882 90.4323C155.611 90.143 155.247 89.9983 154.79 89.9983C154.333 89.9983 153.964 90.143 153.684 90.4323C153.413 90.7217 153.217 91.1557 153.096 91.7343C152.975 92.3037 152.914 93.0223 152.914 93.8903ZM165.19 93.8903C165.19 94.7023 165.124 95.4257 164.994 96.0603C164.872 96.695 164.676 97.2363 164.406 97.6843C164.144 98.123 163.794 98.459 163.356 98.6923C162.926 98.9257 162.408 99.0423 161.802 99.0423C161.036 99.0423 160.406 98.837 159.912 98.4263C159.417 98.0157 159.048 97.4277 158.806 96.6623C158.563 95.8877 158.442 94.9637 158.442 93.8903C158.442 92.8077 158.549 91.8837 158.764 91.1183C158.988 90.353 159.347 89.7697 159.842 89.3683C160.336 88.9577 160.99 88.7523 161.802 88.7523C162.567 88.7523 163.197 88.9577 163.692 89.3683C164.196 89.7697 164.569 90.353 164.812 91.1183C165.064 91.8837 165.19 92.8077 165.19 93.8903ZM159.926 93.8903C159.926 94.7583 159.986 95.4817 160.108 96.0603C160.229 96.639 160.425 97.073 160.696 97.3623C160.976 97.6517 161.344 97.7963 161.802 97.7963C162.259 97.7963 162.623 97.6563 162.894 97.3763C163.174 97.087 163.374 96.653 163.496 96.0743C163.626 95.4863 163.692 94.7583 163.692 93.8903C163.692 93.0223 163.626 92.3037 163.496 91.7343C163.374 91.1557 163.174 90.7217 162.894 90.4323C162.623 90.143 162.259 89.9983 161.802 89.9983C161.344 89.9983 160.976 90.143 160.696 90.4323C160.425 90.7217 160.229 91.1557 160.108 91.7343C159.986 92.3037 159.926 93.0223 159.926 93.8903ZM174.441 91.2163C175.291 91.2163 175.93 91.4357 176.359 91.8743C176.789 92.313 177.003 93.0177 177.003 93.9883V98.9023H175.519V94.1843C175.519 93.6057 175.403 93.1717 175.169 92.8823C174.945 92.5837 174.591 92.4343 174.105 92.4343C173.433 92.4343 172.953 92.6443 172.663 93.0643C172.374 93.475 172.229 94.0723 172.229 94.8563V98.9023H170.759V94.1843C170.759 93.8017 170.703 93.4797 170.591 93.2183C170.489 92.957 170.335 92.761 170.129 92.6303C169.924 92.4997 169.658 92.4343 169.331 92.4343C168.865 92.4343 168.496 92.537 168.225 92.7423C167.955 92.9477 167.759 93.251 167.637 93.6523C167.525 94.0443 167.469 94.525 167.469 95.0943V98.9023H165.985V91.3563H167.161L167.371 92.3643H167.455C167.614 92.103 167.805 91.8883 168.029 91.7203C168.263 91.5523 168.519 91.4263 168.799 91.3423C169.079 91.2583 169.369 91.2163 169.667 91.2163C170.237 91.2163 170.717 91.319 171.109 91.5243C171.501 91.7203 171.786 92.0237 171.963 92.4343H172.075C172.318 92.0143 172.654 91.7063 173.083 91.5103C173.513 91.3143 173.965 91.2163 174.441 91.2163ZM186.73 91.2163C187.58 91.2163 188.219 91.4357 188.648 91.8743C189.078 92.313 189.292 93.0177 189.292 93.9883V98.9023H187.808V94.1843C187.808 93.6057 187.692 93.1717 187.458 92.8823C187.234 92.5837 186.88 92.4343 186.394 92.4343C185.722 92.4343 185.242 92.6443 184.952 93.0643C184.663 93.475 184.518 94.0723 184.518 94.8563V98.9023H183.048V94.1843C183.048 93.8017 182.992 93.4797 182.88 93.2183C182.778 92.957 182.624 92.761 182.418 92.6303C182.213 92.4997 181.947 92.4343 181.62 92.4343C181.154 92.4343 180.785 92.537 180.514 92.7423C180.244 92.9477 180.048 93.251 179.926 93.6523C179.814 94.0443 179.758 94.525 179.758 95.0943V98.9023H178.274V91.3563H179.45L179.66 92.3643H179.744C179.903 92.103 180.094 91.8883 180.318 91.7203C180.552 91.5523 180.808 91.4263 181.088 91.3423C181.368 91.2583 181.658 91.2163 181.956 91.2163C182.526 91.2163 183.006 91.319 183.398 91.5243C183.79 91.7203 184.075 92.0237 184.252 92.4343H184.364C184.607 92.0143 184.943 91.7063 185.372 91.5103C185.802 91.3143 186.254 91.2163 186.73 91.2163Z" fill="#A49879"/>
<path d="M204.573 104.605L199.573 101.719V107.492L204.573 104.605ZM101.752 104.605L106.752 107.492V101.719L101.752 104.605ZM200.073 104.605V104.105L106.252 104.105V104.605V105.105L200.073 105.105V104.605Z" fill="#A49879"/>
<path d="M125.839 135.92C125.839 136.713 125.736 137.436 125.531 138.09C125.325 138.734 125.017 139.284 124.607 139.742C124.196 140.199 123.683 140.54 123.067 140.764L125.461 143.312H123.389L121.485 141.058C121.438 141.058 121.387 141.058 121.331 141.058C121.284 141.067 121.237 141.072 121.191 141.072C120.397 141.072 119.707 140.95 119.119 140.708C118.54 140.456 118.055 140.106 117.663 139.658C117.28 139.2 116.995 138.654 116.809 138.02C116.622 137.385 116.529 136.68 116.529 135.906C116.529 134.879 116.697 133.983 117.033 133.218C117.369 132.452 117.882 131.855 118.573 131.426C119.273 130.996 120.15 130.782 121.205 130.782C122.231 130.782 123.085 130.996 123.767 131.426C124.457 131.846 124.975 132.443 125.321 133.218C125.666 133.983 125.839 134.884 125.839 135.92ZM118.125 135.92C118.125 136.722 118.232 137.413 118.447 137.992C118.661 138.561 118.997 139.004 119.455 139.322C119.912 139.63 120.491 139.784 121.191 139.784C121.9 139.784 122.479 139.63 122.927 139.322C123.375 139.004 123.706 138.561 123.921 137.992C124.135 137.413 124.243 136.722 124.243 135.92C124.243 134.716 124 133.778 123.515 133.106C123.039 132.424 122.269 132.084 121.205 132.084C120.495 132.084 119.912 132.238 119.455 132.546C118.997 132.854 118.661 133.292 118.447 133.862C118.232 134.431 118.125 135.117 118.125 135.92ZM129.27 140.106C129.27 139.742 129.363 139.485 129.55 139.336C129.736 139.186 129.96 139.112 130.222 139.112C130.492 139.112 130.721 139.186 130.908 139.336C131.094 139.485 131.188 139.742 131.188 140.106C131.188 140.47 131.094 140.731 130.908 140.89C130.721 141.048 130.492 141.128 130.222 141.128C129.96 141.128 129.736 141.048 129.55 140.89C129.363 140.731 129.27 140.47 129.27 140.106ZM129.27 134.226C129.27 133.843 129.363 133.577 129.55 133.428C129.736 133.278 129.96 133.204 130.222 133.204C130.492 133.204 130.721 133.278 130.908 133.428C131.094 133.577 131.188 133.843 131.188 134.226C131.188 134.58 131.094 134.837 130.908 134.996C130.721 135.154 130.492 135.234 130.222 135.234C129.96 135.234 129.736 135.154 129.55 134.996C129.363 134.837 129.27 134.58 129.27 134.226ZM138.99 140.932H137.52V134.296C137.52 134.062 137.52 133.848 137.52 133.652C137.53 133.446 137.539 133.25 137.548 133.064C137.558 132.868 137.567 132.681 137.576 132.504C137.455 132.625 137.329 132.742 137.198 132.854C137.068 132.966 136.918 133.096 136.75 133.246L135.658 134.128L134.902 133.176L137.758 130.936H138.99V140.932ZM143.608 139.462C143.524 139.788 143.417 140.143 143.286 140.526C143.155 140.908 143.015 141.286 142.866 141.66C142.717 142.042 142.563 142.402 142.404 142.738H141.326C141.419 142.374 141.508 141.986 141.592 141.576C141.685 141.174 141.769 140.778 141.844 140.386C141.919 139.994 141.979 139.634 142.026 139.308H143.51L143.608 139.462ZM147.57 134.73C148.233 134.73 148.812 134.846 149.306 135.08C149.801 135.313 150.184 135.649 150.454 136.088C150.734 136.526 150.874 137.063 150.874 137.698C150.874 138.398 150.725 139 150.426 139.504C150.128 140.008 149.694 140.395 149.124 140.666C148.564 140.936 147.878 141.072 147.066 141.072C146.553 141.072 146.068 141.025 145.61 140.932C145.153 140.838 144.766 140.703 144.448 140.526V139.168C144.784 139.364 145.19 139.522 145.666 139.644C146.152 139.765 146.614 139.826 147.052 139.826C147.528 139.826 147.934 139.756 148.27 139.616C148.616 139.466 148.882 139.247 149.068 138.958C149.264 138.659 149.362 138.286 149.362 137.838C149.362 137.231 149.171 136.769 148.788 136.452C148.415 136.125 147.822 135.962 147.01 135.962C146.749 135.962 146.455 135.985 146.128 136.032C145.811 136.078 145.554 136.125 145.358 136.172L144.672 135.766L145.05 130.936H150.188V132.252H146.338L146.114 134.87C146.273 134.842 146.474 134.814 146.716 134.786C146.959 134.748 147.244 134.73 147.57 134.73ZM154.582 134.73C155.245 134.73 155.823 134.846 156.318 135.08C156.813 135.313 157.195 135.649 157.466 136.088C157.746 136.526 157.886 137.063 157.886 137.698C157.886 138.398 157.737 139 157.438 139.504C157.139 140.008 156.705 140.395 156.136 140.666C155.576 140.936 154.89 141.072 154.078 141.072C153.565 141.072 153.079 141.025 152.622 140.932C152.165 140.838 151.777 140.703 151.46 140.526V139.168C151.796 139.364 152.202 139.522 152.678 139.644C153.163 139.765 153.625 139.826 154.064 139.826C154.54 139.826 154.946 139.756 155.282 139.616C155.627 139.466 155.893 139.247 156.08 138.958C156.276 138.659 156.374 138.286 156.374 137.838C156.374 137.231 156.183 136.769 155.8 136.452C155.427 136.125 154.834 135.962 154.022 135.962C153.761 135.962 153.467 135.985 153.14 136.032C152.823 136.078 152.566 136.125 152.37 136.172L151.684 135.766L152.062 130.936H157.2V132.252H153.35L153.126 134.87C153.285 134.842 153.485 134.814 153.728 134.786C153.971 134.748 154.255 134.73 154.582 134.73ZM165.024 135.92C165.024 136.732 164.958 137.455 164.828 138.09C164.706 138.724 164.51 139.266 164.24 139.714C163.978 140.152 163.628 140.488 163.19 140.722C162.76 140.955 162.242 141.072 161.636 141.072C160.87 141.072 160.24 140.866 159.746 140.456C159.251 140.045 158.882 139.457 158.64 138.692C158.397 137.917 158.276 136.993 158.276 135.92C158.276 134.837 158.383 133.913 158.598 133.148C158.822 132.382 159.181 131.799 159.676 131.398C160.17 130.987 160.824 130.782 161.636 130.782C162.401 130.782 163.031 130.987 163.526 131.398C164.03 131.799 164.403 132.382 164.646 133.148C164.898 133.913 165.024 134.837 165.024 135.92ZM159.76 135.92C159.76 136.788 159.82 137.511 159.942 138.09C160.063 138.668 160.259 139.102 160.53 139.392C160.81 139.681 161.178 139.826 161.636 139.826C162.093 139.826 162.457 139.686 162.728 139.406C163.008 139.116 163.208 138.682 163.33 138.104C163.46 137.516 163.526 136.788 163.526 135.92C163.526 135.052 163.46 134.333 163.33 133.764C163.208 133.185 163.008 132.751 162.728 132.462C162.457 132.172 162.093 132.028 161.636 132.028C161.178 132.028 160.81 132.172 160.53 132.462C160.259 132.751 160.063 133.185 159.942 133.764C159.82 134.333 159.76 135.052 159.76 135.92ZM174.275 133.246C175.125 133.246 175.764 133.465 176.193 133.904C176.623 134.342 176.837 135.047 176.837 136.018V140.932H175.353V136.214C175.353 135.635 175.237 135.201 175.003 134.912C174.779 134.613 174.425 134.464 173.939 134.464C173.267 134.464 172.787 134.674 172.497 135.094C172.208 135.504 172.063 136.102 172.063 136.886V140.932H170.593V136.214C170.593 135.831 170.537 135.509 170.425 135.248C170.323 134.986 170.169 134.79 169.963 134.66C169.758 134.529 169.492 134.464 169.165 134.464C168.699 134.464 168.33 134.566 168.059 134.772C167.789 134.977 167.593 135.28 167.471 135.682C167.359 136.074 167.303 136.554 167.303 137.124V140.932H165.819V133.386H166.995L167.205 134.394H167.289C167.448 134.132 167.639 133.918 167.863 133.75C168.097 133.582 168.353 133.456 168.633 133.372C168.913 133.288 169.203 133.246 169.501 133.246C170.071 133.246 170.551 133.348 170.943 133.554C171.335 133.75 171.62 134.053 171.797 134.464H171.909C172.152 134.044 172.488 133.736 172.917 133.54C173.347 133.344 173.799 133.246 174.275 133.246ZM186.564 133.246C187.414 133.246 188.053 133.465 188.482 133.904C188.912 134.342 189.126 135.047 189.126 136.018V140.932H187.642V136.214C187.642 135.635 187.526 135.201 187.292 134.912C187.068 134.613 186.714 134.464 186.228 134.464C185.556 134.464 185.076 134.674 184.786 135.094C184.497 135.504 184.352 136.102 184.352 136.886V140.932H182.882V136.214C182.882 135.831 182.826 135.509 182.714 135.248C182.612 134.986 182.458 134.79 182.252 134.66C182.047 134.529 181.781 134.464 181.454 134.464C180.988 134.464 180.619 134.566 180.348 134.772C180.078 134.977 179.882 135.28 179.76 135.682C179.648 136.074 179.592 136.554 179.592 137.124V140.932H178.108V133.386H179.284L179.494 134.394H179.578C179.737 134.132 179.928 133.918 180.152 133.75C180.386 133.582 180.642 133.456 180.922 133.372C181.202 133.288 181.492 133.246 181.79 133.246C182.36 133.246 182.84 133.348 183.232 133.554C183.624 133.75 183.909 134.053 184.086 134.464H184.198C184.441 134.044 184.777 133.736 185.206 133.54C185.636 133.344 186.088 133.246 186.564 133.246Z" fill="#759FA3"/>
<path d="M237.596 146.633L232.596 143.746V149.52L237.596 146.633ZM101.753 146.633L106.753 149.52V143.746L101.753 146.633ZM233.096 146.633V146.133L106.253 146.133V146.633V147.133L233.096 147.133V146.633Z" fill="#759FA3"/>
<path d="M125.267 182.959H123.517L120.241 178.353L119.261 179.165V182.959H117.749V172.963H119.261V177.793C119.504 177.504 119.747 177.219 119.989 176.939C120.232 176.659 120.475 176.379 120.717 176.099L123.419 172.963H125.155L121.333 177.331L125.267 182.959ZM127.854 182.133C127.854 181.769 127.947 181.512 128.134 181.363C128.32 181.214 128.544 181.139 128.806 181.139C129.076 181.139 129.305 181.214 129.492 181.363C129.678 181.512 129.772 181.769 129.772 182.133C129.772 182.497 129.678 182.758 129.492 182.917C129.305 183.076 129.076 183.155 128.806 183.155C128.544 183.155 128.32 183.076 128.134 182.917C127.947 182.758 127.854 182.497 127.854 182.133ZM127.854 176.253C127.854 175.87 127.947 175.604 128.134 175.455C128.32 175.306 128.544 175.231 128.806 175.231C129.076 175.231 129.305 175.306 129.492 175.455C129.678 175.604 129.772 175.87 129.772 176.253C129.772 176.608 129.678 176.864 129.492 177.023C129.305 177.182 129.076 177.261 128.806 177.261C128.544 177.261 128.32 177.182 128.134 177.023C127.947 176.864 127.854 176.608 127.854 176.253ZM137.575 182.959H136.105V176.323C136.105 176.09 136.105 175.875 136.105 175.679C136.114 175.474 136.123 175.278 136.133 175.091C136.142 174.895 136.151 174.708 136.161 174.531C136.039 174.652 135.913 174.769 135.783 174.881C135.652 174.993 135.503 175.124 135.335 175.273L134.243 176.155L133.487 175.203L136.343 172.963H137.575V182.959ZM142.192 181.489C142.108 181.816 142.001 182.17 141.87 182.553C141.74 182.936 141.6 183.314 141.45 183.687C141.301 184.07 141.147 184.429 140.988 184.765H139.91C140.004 184.401 140.092 184.014 140.176 183.603C140.27 183.202 140.354 182.805 140.428 182.413C140.503 182.021 140.564 181.662 140.61 181.335H142.094L142.192 181.489ZM144.012 182.959L148.002 174.279H142.752V172.963H149.598V174.027L145.622 182.959H144.012ZM156.596 177.947C156.596 178.759 156.531 179.482 156.4 180.117C156.279 180.752 156.083 181.293 155.812 181.741C155.551 182.18 155.201 182.516 154.762 182.749C154.333 182.982 153.815 183.099 153.208 183.099C152.443 183.099 151.813 182.894 151.318 182.483C150.823 182.072 150.455 181.484 150.212 180.719C149.969 179.944 149.848 179.02 149.848 177.947C149.848 176.864 149.955 175.94 150.17 175.175C150.394 174.41 150.753 173.826 151.248 173.425C151.743 173.014 152.396 172.809 153.208 172.809C153.973 172.809 154.603 173.014 155.098 173.425C155.602 173.826 155.975 174.41 156.218 175.175C156.47 175.94 156.596 176.864 156.596 177.947ZM151.332 177.947C151.332 178.815 151.393 179.538 151.514 180.117C151.635 180.696 151.831 181.13 152.102 181.419C152.382 181.708 152.751 181.853 153.208 181.853C153.665 181.853 154.029 181.713 154.3 181.433C154.58 181.144 154.781 180.71 154.902 180.131C155.033 179.543 155.098 178.815 155.098 177.947C155.098 177.079 155.033 176.36 154.902 175.791C154.781 175.212 154.58 174.778 154.3 174.489C154.029 174.2 153.665 174.055 153.208 174.055C152.751 174.055 152.382 174.2 152.102 174.489C151.831 174.778 151.635 175.212 151.514 175.791C151.393 176.36 151.332 177.079 151.332 177.947ZM163.608 177.947C163.608 178.759 163.542 179.482 163.412 180.117C163.29 180.752 163.094 181.293 162.824 181.741C162.562 182.18 162.212 182.516 161.774 182.749C161.344 182.982 160.826 183.099 160.22 183.099C159.454 183.099 158.824 182.894 158.33 182.483C157.835 182.072 157.466 181.484 157.224 180.719C156.981 179.944 156.86 179.02 156.86 177.947C156.86 176.864 156.967 175.94 157.182 175.175C157.406 174.41 157.765 173.826 158.26 173.425C158.754 173.014 159.408 172.809 160.22 172.809C160.985 172.809 161.615 173.014 162.11 173.425C162.614 173.826 162.987 174.41 163.23 175.175C163.482 175.94 163.608 176.864 163.608 177.947ZM158.344 177.947C158.344 178.815 158.404 179.538 158.526 180.117C158.647 180.696 158.843 181.13 159.114 181.419C159.394 181.708 159.762 181.853 160.22 181.853C160.677 181.853 161.041 181.713 161.312 181.433C161.592 181.144 161.792 180.71 161.914 180.131C162.044 179.543 162.11 178.815 162.11 177.947C162.11 177.079 162.044 176.36 161.914 175.791C161.792 175.212 161.592 174.778 161.312 174.489C161.041 174.2 160.677 174.055 160.22 174.055C159.762 174.055 159.394 174.2 159.114 174.489C158.843 174.778 158.647 175.212 158.526 175.791C158.404 176.36 158.344 177.079 158.344 177.947ZM172.86 175.273C173.709 175.273 174.348 175.492 174.778 175.931C175.207 176.37 175.422 177.074 175.422 178.045V182.959H173.938V178.241C173.938 177.662 173.821 177.228 173.588 176.939C173.364 176.64 173.009 176.491 172.524 176.491C171.852 176.491 171.371 176.701 171.082 177.121C170.792 177.532 170.648 178.129 170.648 178.913V182.959H169.178V178.241C169.178 177.858 169.122 177.536 169.01 177.275C168.907 177.014 168.753 176.818 168.548 176.687C168.342 176.556 168.076 176.491 167.75 176.491C167.283 176.491 166.914 176.594 166.644 176.799C166.373 177.004 166.177 177.308 166.056 177.709C165.944 178.101 165.888 178.582 165.888 179.151V182.959H164.404V175.413H165.58L165.79 176.421H165.874C166.032 176.16 166.224 175.945 166.448 175.777C166.681 175.609 166.938 175.483 167.218 175.399C167.498 175.315 167.787 175.273 168.086 175.273C168.655 175.273 169.136 175.376 169.528 175.581C169.92 175.777 170.204 176.08 170.382 176.491H170.494C170.736 176.071 171.072 175.763 171.502 175.567C171.931 175.371 172.384 175.273 172.86 175.273ZM185.149 175.273C185.998 175.273 186.637 175.492 187.067 175.931C187.496 176.37 187.711 177.074 187.711 178.045V182.959H186.227V178.241C186.227 177.662 186.11 177.228 185.877 176.939C185.653 176.64 185.298 176.491 184.813 176.491C184.141 176.491 183.66 176.701 183.371 177.121C183.081 177.532 182.937 178.129 182.937 178.913V182.959H181.467V178.241C181.467 177.858 181.411 177.536 181.299 177.275C181.196 177.014 181.042 176.818 180.837 176.687C180.631 176.556 180.365 176.491 180.039 176.491C179.572 176.491 179.203 176.594 178.933 176.799C178.662 177.004 178.466 177.308 178.345 177.709C178.233 178.101 178.177 178.582 178.177 179.151V182.959H176.693V175.413H177.869L178.079 176.421H178.163C178.321 176.16 178.513 175.945 178.737 175.777C178.97 175.609 179.227 175.483 179.507 175.399C179.787 175.315 180.076 175.273 180.375 175.273C180.944 175.273 181.425 175.376 181.817 175.581C182.209 175.777 182.493 176.08 182.671 176.491H182.783C183.025 176.071 183.361 175.763 183.791 175.567C184.22 175.371 184.673 175.273 185.149 175.273Z" fill="#918BB1"/>
<path d="M258.612 188.66L253.612 185.773V191.547L258.612 188.66ZM101.755 188.66L106.755 191.547V185.773L101.755 188.66ZM254.112 188.66V188.16L106.255 188.16V188.66V189.16L254.112 189.16V188.66Z" fill="#918BB1"/>
</svg>
