<svg width="361" height="351" viewBox="0 0 361 351" fill="none" xmlns="http://www.w3.org/2000/svg">
<path d="M22.9609 29.0645V290.724H352.031" stroke="#DDDDDD" stroke-width="1.05" stroke-miterlimit="10" stroke-linecap="round"/>
<path d="M296.119 325.234C296.119 325.954 295.989 326.624 295.729 327.254C295.469 327.884 295.099 328.424 294.599 328.884C294.109 329.344 293.509 329.684 292.819 329.914L292.109 328.804C292.709 328.614 293.229 328.334 293.649 327.974C294.079 327.604 294.399 327.194 294.619 326.714C294.839 326.244 294.939 325.754 294.939 325.234V324.354H296.109V325.234H296.119ZM301.679 330.454V333.434H295.469V334.754H294.099V332.384H300.279V331.554H294.069V330.454H301.689H301.679ZM302.019 334.324V335.444H294.089V334.324H302.019ZM296.409 325.234C296.409 325.734 296.509 326.204 296.719 326.654C296.929 327.104 297.249 327.494 297.669 327.834C298.089 328.174 298.599 328.434 299.189 328.614L298.489 329.704C297.799 329.494 297.209 329.164 296.719 328.724C296.229 328.284 295.859 327.764 295.599 327.174C295.349 326.574 295.219 325.934 295.219 325.234V324.354H296.399V325.234H296.409ZM301.659 324.074V329.924H300.269V324.074H301.659Z" fill="#545251"/>
<path d="M305.277 325.384V332.004H303.867V325.384H305.277ZM304.627 331.444C305.287 331.444 305.937 331.424 306.577 331.374C307.217 331.324 307.877 331.234 308.557 331.094L308.707 332.324C307.977 332.454 307.277 332.544 306.607 332.594C305.947 332.644 305.287 332.674 304.627 332.674H303.867V331.444H304.627ZM310.587 324.284V334.964H309.267V324.284H310.587ZM312.237 328.584V329.734H310.197V328.584H312.237ZM313.217 324.074V335.534H311.857V324.074H313.217Z" fill="#545251"/>
<path d="M325.147 330.055V331.195H314.688V330.055H325.147ZM319.917 324.385C320.747 324.385 321.468 324.475 322.098 324.665C322.728 324.855 323.197 325.125 323.537 325.475C323.877 325.825 324.047 326.235 324.047 326.705C324.047 327.175 323.877 327.615 323.537 327.965C323.197 328.315 322.718 328.595 322.098 328.775C321.478 328.955 320.747 329.055 319.917 329.055C319.087 329.055 318.357 328.965 317.737 328.775C317.117 328.585 316.637 328.315 316.287 327.965C315.937 327.615 315.777 327.185 315.777 326.705C315.777 326.235 315.947 325.825 316.287 325.475C316.627 325.125 317.107 324.855 317.737 324.665C318.367 324.475 319.087 324.385 319.917 324.385ZM317.397 331.975V334.565H315.977V331.975H317.397ZM323.967 334.175V335.325H315.987V334.175H323.967ZM319.917 325.505C319.367 325.505 318.887 325.555 318.487 325.645C318.087 325.735 317.778 325.875 317.568 326.055C317.358 326.235 317.247 326.445 317.257 326.695C317.257 326.965 317.358 327.185 317.568 327.365C317.778 327.545 318.087 327.685 318.487 327.775C318.887 327.865 319.367 327.915 319.927 327.915C320.487 327.915 320.967 327.865 321.367 327.775C321.767 327.685 322.067 327.545 322.287 327.365C322.497 327.185 322.607 326.965 322.607 326.695C322.607 326.445 322.497 326.235 322.287 326.055C322.077 325.875 321.767 325.735 321.367 325.645C320.967 325.555 320.487 325.505 319.927 325.505H319.917ZM320.617 328.405V330.595H319.207V328.405H320.617Z" fill="#545251"/>
<path d="M336.427 333.024V334.184H325.938V333.024H336.427ZM335.158 324.924V326.054H328.617V329.794H327.207V324.914H335.158V324.924ZM335.247 329.284V330.404H327.207V329.284H335.247ZM331.857 329.784V333.424H330.457V329.784H331.857Z" fill="#545251"/>
<path d="M340.878 336.613L340.538 336.903C338.708 335.193 337.828 333.173 337.828 330.803C337.828 328.433 338.708 326.403 340.538 324.703L340.878 324.993C339.348 327.203 338.878 328.733 338.878 330.813C338.878 332.893 339.348 334.423 340.878 336.633V336.613Z" fill="#545251"/>
<path d="M344.027 329.464C343.637 329.464 343.277 329.364 342.947 329.174C342.617 328.984 342.357 328.724 342.157 328.394C341.957 328.064 341.867 327.704 341.867 327.314C341.867 326.924 341.967 326.564 342.157 326.234C342.347 325.904 342.617 325.644 342.947 325.454C343.277 325.264 343.637 325.164 344.027 325.164C344.417 325.164 344.777 325.264 345.107 325.454C345.437 325.644 345.697 325.904 345.897 326.234C346.097 326.564 346.187 326.924 346.187 327.314C346.187 327.704 346.087 328.064 345.897 328.394C345.707 328.724 345.437 328.984 345.107 329.174C344.777 329.364 344.417 329.464 344.027 329.464ZM344.027 328.324C344.217 328.324 344.387 328.274 344.537 328.184C344.697 328.094 344.817 327.974 344.907 327.814C344.997 327.664 345.037 327.494 345.037 327.304C345.037 327.114 344.997 326.944 344.907 326.794C344.817 326.644 344.697 326.514 344.537 326.424C344.377 326.334 344.207 326.294 344.027 326.294C343.847 326.294 343.677 326.334 343.517 326.424C343.367 326.514 343.237 326.634 343.147 326.794C343.057 326.944 343.007 327.114 343.007 327.304C343.007 327.494 343.047 327.664 343.147 327.814C343.237 327.964 343.357 328.094 343.517 328.184C343.677 328.274 343.847 328.324 344.027 328.324ZM353.707 328.324C353.647 327.964 353.517 327.654 353.317 327.384C353.107 327.124 352.857 326.924 352.547 326.784C352.237 326.644 351.897 326.574 351.527 326.574C351.017 326.574 350.567 326.704 350.187 326.954C349.807 327.204 349.497 327.574 349.287 328.064C349.077 328.554 348.967 329.134 348.967 329.814C348.967 330.494 349.077 331.094 349.287 331.574C349.497 332.054 349.807 332.424 350.187 332.674C350.577 332.924 351.017 333.044 351.517 333.044C351.887 333.044 352.227 332.974 352.527 332.844C352.827 332.714 353.087 332.514 353.297 332.264C353.507 332.014 353.647 331.704 353.717 331.354H355.387C355.307 331.954 355.097 332.484 354.747 332.964C354.407 333.444 353.957 333.824 353.397 334.104C352.837 334.384 352.207 334.524 351.497 334.524C350.687 334.524 349.957 334.334 349.327 333.954C348.697 333.574 348.197 333.034 347.837 332.314C347.477 331.604 347.297 330.764 347.297 329.794C347.297 328.824 347.477 327.984 347.837 327.274C348.197 326.564 348.697 326.014 349.337 325.634C349.967 325.254 350.697 325.064 351.507 325.064C352.187 325.064 352.797 325.194 353.347 325.444C353.897 325.704 354.357 326.074 354.717 326.554C355.077 327.034 355.297 327.614 355.397 328.284H353.727L353.707 328.324Z" fill="#545251"/>
<path d="M356.27 324.983L356.61 324.693C358.44 326.403 359.32 328.423 359.32 330.793C359.32 333.163 358.44 335.193 356.61 336.893L356.27 336.603C357.8 334.393 358.27 332.863 358.27 330.783C358.27 328.703 357.8 327.173 356.27 324.963V324.983Z" fill="#545251"/>
<path d="M0.179688 291.903V290.963L3.11969 287.993C3.46969 287.623 3.73969 287.333 3.92969 287.103C4.11969 286.873 4.25969 286.653 4.36969 286.433C4.46969 286.213 4.51969 285.983 4.51969 285.743C4.51969 285.473 4.44969 285.233 4.30969 285.023C4.16969 284.813 3.97969 284.653 3.74969 284.543C3.50969 284.433 3.23969 284.373 2.94969 284.373C2.65969 284.373 2.36969 284.433 2.13969 284.553C1.90969 284.673 1.72969 284.853 1.59969 285.083C1.46969 285.313 1.40969 285.573 1.40969 285.873H0.179688C0.179688 285.363 0.299688 284.913 0.539688 284.523C0.779688 284.133 1.10969 283.833 1.52969 283.613C1.94969 283.403 2.42969 283.293 2.96969 283.293C3.50969 283.293 3.97969 283.393 4.39969 283.603C4.81969 283.813 5.14969 284.103 5.37969 284.463C5.61969 284.833 5.73969 285.243 5.73969 285.703C5.73969 286.033 5.67969 286.343 5.54969 286.643C5.42969 286.943 5.21969 287.273 4.92969 287.633C4.63969 288.003 4.21969 288.443 3.68969 288.973L1.96969 290.723V290.783H5.87969V291.893H0.179688V291.903Z" fill="#545251"/>
<path d="M10.2684 292.043C9.61844 292.043 9.05844 291.873 8.58844 291.533C8.11844 291.193 7.76844 290.693 7.51844 290.033C7.27844 289.373 7.14844 288.593 7.14844 287.673C7.14844 286.753 7.26844 285.973 7.51844 285.323C7.76844 284.673 8.11844 284.173 8.58844 283.823C9.05844 283.473 9.60844 283.303 10.2584 283.303C10.9084 283.303 11.4684 283.473 11.9284 283.823C12.3984 284.163 12.7484 284.663 12.9984 285.323C13.2484 285.973 13.3684 286.753 13.3684 287.673C13.3684 288.593 13.2484 289.383 12.9984 290.033C12.7484 290.683 12.3984 291.193 11.9284 291.533C11.4584 291.873 10.8984 292.043 10.2484 292.043H10.2684ZM10.2684 290.933C10.6484 290.933 10.9784 290.803 11.2584 290.553C11.5284 290.303 11.7384 289.933 11.8884 289.443C12.0384 288.953 12.1084 288.363 12.1084 287.663C12.1084 286.963 12.0384 286.373 11.8884 285.883C11.7384 285.393 11.5284 285.023 11.2584 284.773C10.9884 284.523 10.6584 284.393 10.2784 284.393C9.89844 284.393 9.57844 284.513 9.29844 284.773C9.02844 285.023 8.81844 285.393 8.66844 285.883C8.51844 286.373 8.44844 286.963 8.44844 287.663C8.44844 288.363 8.51844 288.953 8.66844 289.443C8.80844 289.933 9.01844 290.303 9.29844 290.553C9.57844 290.803 9.89844 290.933 10.2784 290.933H10.2684Z" fill="#545251"/>
<path d="M21.9911 302.453V310.943H20.7011V303.753H20.6511L18.6211 305.073V303.843L20.7311 302.463H21.9911V302.453Z" fill="#545251"/>
<path d="M23.9688 309.283V308.243L27.7188 302.453H28.5387V303.983H28.0087L25.3287 308.123V308.193H30.4787V309.283H23.9787H23.9688ZM28.0887 310.933V308.483V302.443H29.3087V310.933H28.0787H28.0887Z" fill="#545251"/>
<path d="M76.2098 302.453V310.943H74.9198V303.753H74.8698L72.8398 305.073V303.843L74.9498 302.463H76.2098V302.453Z" fill="#545251"/>
<path d="M81.4422 311.054C80.8722 311.054 80.3422 310.914 79.8622 310.654C79.3822 310.394 78.9922 309.964 78.6922 309.364C78.3922 308.754 78.2422 307.964 78.2422 306.974C78.2422 305.984 78.3722 305.164 78.6422 304.474C78.9122 303.774 79.2922 303.254 79.7922 302.884C80.2922 302.514 80.8722 302.334 81.5522 302.334C82.0622 302.334 82.5222 302.434 82.9322 302.634C83.3422 302.834 83.6722 303.104 83.9222 303.454C84.1722 303.804 84.3322 304.204 84.4022 304.654H83.1322C83.0722 304.414 82.9722 304.214 82.8322 304.034C82.6922 303.854 82.5122 303.714 82.3022 303.614C82.0822 303.514 81.8422 303.464 81.5622 303.464C81.1322 303.464 80.7522 303.584 80.4422 303.834C80.1322 304.084 79.8922 304.424 79.7322 304.884C79.5722 305.344 79.4922 305.884 79.4922 306.524H79.5922C79.7422 306.284 79.9322 306.074 80.1522 305.904C80.3722 305.734 80.6222 305.604 80.9022 305.514C81.1722 305.424 81.4722 305.384 81.7722 305.384C82.2722 305.384 82.7322 305.504 83.1522 305.744C83.5722 305.984 83.9022 306.314 84.1422 306.734C84.3822 307.164 84.5022 307.634 84.5022 308.164C84.5022 308.694 84.3722 309.204 84.1222 309.644C83.8722 310.084 83.5122 310.434 83.0522 310.684C82.5922 310.934 82.0622 311.054 81.4622 311.054H81.4422ZM81.4422 309.974C81.7722 309.974 82.0822 309.894 82.3522 309.734C82.6222 309.574 82.8422 309.354 83.0022 309.084C83.1622 308.814 83.2422 308.514 83.2422 308.184C83.2422 307.854 83.1622 307.564 83.0122 307.304C82.8622 307.034 82.6522 306.824 82.3822 306.664C82.1122 306.504 81.8122 306.424 81.4722 306.424C81.1322 306.424 80.8322 306.504 80.5522 306.674C80.2722 306.834 80.0522 307.054 79.8922 307.324C79.7322 307.594 79.6522 307.884 79.6422 308.204C79.6422 308.514 79.7222 308.804 79.8722 309.084C80.0322 309.354 80.2422 309.574 80.5222 309.734C80.8022 309.894 81.1022 309.974 81.4422 309.974Z" fill="#545251"/>
<path d="M344.338 310.934V309.994L347.278 307.024C347.628 306.664 347.898 306.364 348.088 306.134C348.278 305.904 348.418 305.684 348.518 305.464C348.618 305.244 348.668 305.014 348.668 304.774C348.668 304.504 348.598 304.264 348.458 304.054C348.318 303.844 348.128 303.684 347.898 303.574C347.668 303.464 347.388 303.404 347.098 303.404C346.808 303.404 346.518 303.464 346.288 303.584C346.058 303.704 345.878 303.884 345.748 304.114C345.618 304.344 345.558 304.604 345.558 304.904H344.328C344.328 304.394 344.448 303.944 344.688 303.554C344.928 303.164 345.258 302.864 345.678 302.644C346.098 302.434 346.578 302.324 347.118 302.324C347.658 302.324 348.128 302.424 348.548 302.634C348.968 302.844 349.298 303.134 349.528 303.494C349.768 303.864 349.888 304.274 349.888 304.724C349.888 305.054 349.828 305.364 349.698 305.664C349.578 305.964 349.368 306.294 349.078 306.654C348.788 307.024 348.368 307.464 347.838 307.994L346.118 309.744V309.804H350.028V310.914H344.328L344.338 310.934Z" fill="#545251"/>
<path d="M354.548 311.054C353.978 311.054 353.448 310.914 352.968 310.654C352.488 310.394 352.098 309.964 351.798 309.364C351.498 308.754 351.348 307.964 351.348 306.974C351.348 305.984 351.478 305.164 351.748 304.474C352.018 303.784 352.398 303.254 352.898 302.884C353.398 302.514 353.978 302.334 354.658 302.334C355.168 302.334 355.628 302.434 356.038 302.634C356.448 302.834 356.778 303.104 357.028 303.454C357.278 303.804 357.438 304.204 357.508 304.654H356.238C356.178 304.414 356.078 304.214 355.938 304.034C355.798 303.854 355.618 303.714 355.398 303.614C355.178 303.514 354.938 303.464 354.658 303.464C354.228 303.464 353.848 303.584 353.538 303.834C353.228 304.084 352.988 304.434 352.828 304.884C352.668 305.344 352.588 305.884 352.588 306.524H352.688C352.838 306.284 353.028 306.074 353.248 305.904C353.468 305.734 353.718 305.604 353.998 305.514C354.278 305.424 354.568 305.384 354.868 305.384C355.368 305.384 355.828 305.504 356.248 305.744C356.668 305.984 356.998 306.314 357.238 306.734C357.478 307.164 357.598 307.634 357.598 308.164C357.598 308.694 357.468 309.204 357.218 309.644C356.968 310.084 356.608 310.434 356.148 310.684C355.688 310.934 355.158 311.054 354.558 311.054H354.548ZM354.548 309.974C354.878 309.974 355.188 309.894 355.458 309.734C355.728 309.574 355.948 309.354 356.108 309.084C356.268 308.814 356.348 308.504 356.348 308.184C356.348 307.864 356.268 307.564 356.118 307.304C355.968 307.034 355.758 306.824 355.488 306.664C355.218 306.504 354.918 306.424 354.578 306.424C354.238 306.424 353.938 306.504 353.658 306.674C353.378 306.834 353.158 307.054 352.998 307.324C352.838 307.594 352.758 307.884 352.748 308.204C352.748 308.514 352.828 308.804 352.978 309.084C353.128 309.364 353.348 309.574 353.628 309.734C353.908 309.894 354.208 309.984 354.548 309.984V309.974Z" fill="#545251"/>
<path d="M131.862 302.453V310.943H130.572V303.753H130.522L128.492 305.073V303.843L130.602 302.463H131.862V302.453Z" fill="#545251"/>
<path d="M136.991 311.054C136.391 311.054 135.841 310.954 135.371 310.744C134.901 310.534 134.531 310.254 134.261 309.894C133.991 309.534 133.871 309.124 133.871 308.674C133.871 308.324 133.941 307.994 134.101 307.684C134.251 307.374 134.471 307.124 134.741 306.924C135.011 306.724 135.311 306.594 135.641 306.544V306.504C135.361 306.444 135.101 306.314 134.881 306.134C134.661 305.954 134.491 305.734 134.371 305.464C134.251 305.194 134.191 304.914 134.191 304.604C134.191 304.174 134.311 303.794 134.551 303.444C134.791 303.104 135.131 302.824 135.551 302.634C135.981 302.434 136.461 302.344 136.991 302.344C137.521 302.344 137.991 302.444 138.421 302.634C138.841 302.824 139.181 303.094 139.421 303.444C139.661 303.794 139.781 304.174 139.781 304.604C139.781 304.914 139.721 305.194 139.601 305.464C139.481 305.724 139.311 305.954 139.091 306.134C138.871 306.314 138.621 306.434 138.341 306.504V306.544C138.671 306.594 138.961 306.724 139.241 306.924C139.511 307.124 139.721 307.384 139.881 307.684C140.041 307.994 140.121 308.324 140.121 308.674C140.121 309.134 139.981 309.534 139.711 309.894C139.441 310.254 139.071 310.534 138.601 310.744C138.131 310.944 137.591 311.054 137.001 311.054H136.991ZM136.991 310.004C137.351 310.004 137.671 309.944 137.941 309.824C138.211 309.704 138.421 309.544 138.571 309.324C138.721 309.114 138.791 308.864 138.791 308.584C138.791 308.304 138.711 308.044 138.561 307.814C138.401 307.584 138.191 307.404 137.911 307.274C137.641 307.144 137.331 307.074 136.981 307.074C136.631 307.074 136.321 307.144 136.051 307.274C135.771 307.404 135.561 307.584 135.401 307.814C135.241 308.044 135.171 308.304 135.181 308.584C135.181 308.864 135.241 309.114 135.391 309.324C135.541 309.534 135.751 309.704 136.021 309.824C136.291 309.944 136.621 310.004 136.981 310.004H136.991ZM136.991 306.054C137.281 306.054 137.551 305.994 137.781 305.884C138.011 305.764 138.201 305.614 138.331 305.404C138.461 305.204 138.531 304.964 138.531 304.704C138.531 304.444 138.471 304.214 138.341 304.014C138.211 303.814 138.031 303.654 137.801 303.544C137.571 303.434 137.301 303.374 137.001 303.374C136.701 303.374 136.421 303.434 136.191 303.544C135.961 303.654 135.781 303.814 135.651 304.014C135.521 304.214 135.461 304.444 135.461 304.704C135.461 304.964 135.531 305.204 135.661 305.404C135.791 305.604 135.971 305.764 136.211 305.884C136.441 305.994 136.711 306.054 137.011 306.054H136.991Z" fill="#545251"/>
<path d="M180.66 310.934V309.994L183.51 307.024C183.85 306.654 184.11 306.364 184.3 306.134C184.48 305.904 184.62 305.684 184.72 305.464C184.82 305.244 184.87 305.014 184.87 304.774C184.87 304.504 184.8 304.264 184.67 304.054C184.54 303.844 184.35 303.684 184.12 303.574C183.89 303.464 183.63 303.404 183.34 303.404C183.05 303.404 182.78 303.464 182.55 303.584C182.33 303.704 182.15 303.884 182.03 304.114C181.91 304.344 181.85 304.604 181.85 304.904H180.66C180.66 304.394 180.78 303.944 181.01 303.554C181.24 303.164 181.56 302.864 181.97 302.644C182.38 302.434 182.85 302.324 183.37 302.324C183.89 302.324 184.35 302.424 184.76 302.634C185.17 302.844 185.48 303.134 185.71 303.494C185.94 303.864 186.05 304.274 186.06 304.734C186.06 305.064 186 305.374 185.88 305.674C185.76 305.974 185.56 306.304 185.28 306.664C185 307.024 184.6 307.474 184.08 308.004L182.41 309.754V309.814H186.2V310.924H180.68L180.66 310.934Z" fill="#545251"/>
<path d="M190.44 311.074C189.81 311.074 189.27 310.904 188.82 310.564C188.37 310.224 188.02 309.724 187.78 309.064C187.54 308.404 187.43 307.624 187.43 306.704C187.43 305.784 187.55 305.004 187.79 304.354C188.03 303.704 188.38 303.204 188.83 302.854C189.28 302.514 189.82 302.334 190.45 302.334C191.08 302.334 191.62 302.504 192.07 302.854C192.52 303.194 192.87 303.694 193.11 304.354C193.35 305.004 193.47 305.794 193.47 306.704C193.47 307.614 193.35 308.414 193.11 309.064C192.87 309.724 192.53 310.224 192.07 310.564C191.61 310.904 191.08 311.074 190.45 311.074H190.44ZM190.44 309.964C190.81 309.964 191.13 309.834 191.4 309.584C191.66 309.334 191.87 308.964 192.01 308.474C192.15 307.984 192.22 307.394 192.22 306.694C192.22 305.994 192.15 305.404 192.01 304.914C191.87 304.424 191.67 304.054 191.4 303.804C191.13 303.554 190.82 303.424 190.45 303.424C190.08 303.424 189.77 303.554 189.5 303.804C189.23 304.054 189.03 304.424 188.89 304.914C188.75 305.404 188.68 305.994 188.68 306.694C188.68 307.394 188.75 307.984 188.89 308.474C189.03 308.964 189.23 309.334 189.5 309.584C189.77 309.834 190.08 309.964 190.45 309.964H190.44Z" fill="#545251"/>
<path d="M236.209 310.934V309.994L239.149 307.024C239.499 306.664 239.769 306.364 239.959 306.134C240.149 305.904 240.289 305.684 240.389 305.464C240.489 305.244 240.539 305.014 240.539 304.774C240.539 304.504 240.469 304.264 240.329 304.054C240.189 303.844 239.999 303.684 239.769 303.574C239.539 303.464 239.259 303.404 238.969 303.404C238.679 303.404 238.389 303.464 238.159 303.584C237.929 303.704 237.749 303.884 237.619 304.114C237.489 304.344 237.429 304.604 237.429 304.904H236.199C236.199 304.394 236.319 303.944 236.559 303.554C236.799 303.164 237.129 302.864 237.559 302.644C237.979 302.434 238.459 302.324 238.999 302.324C239.539 302.324 240.009 302.424 240.429 302.634C240.849 302.844 241.179 303.134 241.409 303.494C241.639 303.854 241.769 304.274 241.769 304.724C241.769 305.054 241.709 305.364 241.579 305.664C241.459 305.964 241.249 306.294 240.959 306.654C240.669 307.024 240.249 307.464 239.719 307.994L237.999 309.744V309.804H241.909V310.914H236.209V310.934Z" fill="#545251"/>
<path d="M243.352 310.934V309.994L246.292 307.024C246.642 306.664 246.912 306.364 247.102 306.134C247.292 305.904 247.432 305.684 247.542 305.464C247.652 305.244 247.692 305.014 247.692 304.774C247.692 304.504 247.622 304.264 247.482 304.054C247.342 303.844 247.152 303.684 246.922 303.574C246.682 303.464 246.412 303.404 246.122 303.404C245.832 303.404 245.542 303.464 245.312 303.584C245.082 303.704 244.902 303.884 244.772 304.114C244.642 304.344 244.582 304.604 244.582 304.904H243.352C243.352 304.394 243.472 303.944 243.712 303.554C243.952 303.164 244.282 302.864 244.712 302.644C245.132 302.434 245.612 302.324 246.152 302.324C246.692 302.324 247.162 302.424 247.582 302.634C248.002 302.844 248.332 303.134 248.562 303.494C248.792 303.854 248.922 304.274 248.922 304.724C248.922 305.054 248.852 305.364 248.732 305.664C248.612 305.964 248.402 306.294 248.112 306.654C247.822 307.024 247.402 307.464 246.872 307.994L245.152 309.744V309.804H249.062V310.914H243.362L243.352 310.934Z" fill="#545251"/>
<path d="M288.969 310.934V309.994L291.809 307.024C292.149 306.654 292.409 306.364 292.599 306.134C292.779 305.904 292.919 305.684 293.019 305.464C293.119 305.244 293.169 305.014 293.169 304.774C293.169 304.504 293.099 304.264 292.969 304.054C292.839 303.844 292.659 303.684 292.429 303.574C292.199 303.464 291.939 303.404 291.649 303.404C291.359 303.404 291.089 303.464 290.859 303.584C290.639 303.704 290.459 303.884 290.339 304.114C290.219 304.344 290.159 304.604 290.159 304.904H288.969C288.969 304.394 289.089 303.944 289.319 303.554C289.549 303.164 289.869 302.864 290.279 302.644C290.689 302.434 291.149 302.324 291.669 302.324C292.189 302.324 292.649 302.424 293.049 302.634C293.459 302.844 293.769 303.134 293.999 303.494C294.229 303.864 294.339 304.274 294.349 304.734C294.349 305.064 294.289 305.374 294.169 305.674C294.049 305.974 293.849 306.304 293.569 306.664C293.289 307.024 292.889 307.474 292.369 308.004L290.699 309.754V309.814H294.479V310.924H288.969V310.934Z" fill="#545251"/>
<path d="M295.508 309.283V308.243L299.128 302.453H299.918V303.983H299.408L296.818 308.123V308.193H301.788V309.283H295.508ZM299.488 310.933V308.483V302.443H300.668V310.933H299.478H299.488Z" fill="#545251"/>
<path d="M3.19062 160.462C2.61063 160.462 2.10063 160.362 1.64062 160.172C1.18062 159.972 0.820625 159.702 0.560625 159.352C0.300625 159.002 0.160625 158.592 0.140625 158.132H1.45062C1.46062 158.372 1.55062 158.592 1.70062 158.772C1.85062 158.952 2.06063 159.102 2.32063 159.202C2.58063 159.302 2.86063 159.352 3.18062 159.352C3.52062 159.352 3.82062 159.292 4.09062 159.182C4.36062 159.062 4.57062 158.902 4.72062 158.692C4.87063 158.482 4.95063 158.242 4.94063 157.972C4.94063 157.692 4.87063 157.442 4.72062 157.222C4.57062 157.002 4.35063 156.832 4.06063 156.712C3.77063 156.592 3.43062 156.532 3.03062 156.532H2.31063V155.482H3.03062C3.35062 155.482 3.63062 155.422 3.88062 155.312C4.13062 155.202 4.32063 155.042 4.46063 154.842C4.60063 154.642 4.67062 154.402 4.67062 154.132C4.67062 153.862 4.61062 153.652 4.49062 153.452C4.37063 153.252 4.20062 153.102 3.97062 152.992C3.75062 152.882 3.49062 152.832 3.19062 152.832C2.89062 152.832 2.64062 152.882 2.39062 152.982C2.14062 153.082 1.94062 153.232 1.79062 153.412C1.64062 153.592 1.55062 153.822 1.54062 154.062H0.320625C0.330625 153.612 0.470625 153.212 0.730625 152.852C0.990625 152.492 1.34062 152.222 1.77062 152.032C2.21062 151.842 2.69062 151.742 3.22062 151.742C3.75062 151.742 4.24062 151.842 4.65062 152.052C5.06062 152.262 5.38063 152.542 5.60063 152.892C5.82062 153.242 5.93062 153.632 5.93062 154.052C5.93062 154.362 5.87063 154.652 5.75063 154.902C5.63063 155.152 5.45062 155.372 5.23063 155.552C5.01063 155.732 4.74063 155.852 4.44063 155.922V155.992C4.82063 156.052 5.15062 156.162 5.42062 156.352C5.69062 156.532 5.90062 156.772 6.05062 157.052C6.20062 157.332 6.26062 157.652 6.26062 158.012C6.26062 158.472 6.13062 158.892 5.87063 159.262C5.61063 159.632 5.24062 159.932 4.77063 160.142C4.30063 160.352 3.78062 160.462 3.20062 160.462H3.19062Z" fill="#545251"/>
<path d="M10.62 160.482C9.97 160.482 9.41 160.312 8.94 159.972C8.47 159.632 8.12 159.132 7.87 158.472C7.62 157.812 7.5 157.032 7.5 156.112C7.5 155.192 7.62 154.412 7.87 153.762C8.12 153.112 8.47 152.612 8.94 152.262C9.41 151.922 9.96 151.742 10.61 151.742C11.26 151.742 11.82 151.912 12.28 152.262C12.75 152.602 13.1 153.102 13.35 153.762C13.6 154.412 13.72 155.202 13.72 156.112C13.72 157.022 13.6 157.822 13.35 158.472C13.1 159.132 12.75 159.632 12.28 159.972C11.81 160.312 11.25 160.482 10.6 160.482H10.62ZM10.62 159.372C11 159.372 11.33 159.242 11.61 158.992C11.88 158.742 12.09 158.372 12.24 157.882C12.39 157.392 12.46 156.802 12.46 156.102C12.46 155.402 12.39 154.812 12.24 154.322C12.09 153.832 11.88 153.462 11.61 153.212C11.34 152.962 11.01 152.832 10.63 152.832C10.25 152.832 9.93 152.962 9.65 153.212C9.38 153.462 9.17 153.832 9.02 154.322C8.87 154.812 8.8 155.402 8.8 156.102C8.8 156.802 8.87 157.392 9.02 157.882C9.16 158.372 9.37 158.742 9.65 158.992C9.92 159.242 10.25 159.372 10.63 159.372H10.62Z" fill="#545251"/>
<path d="M0.660156 227.124V226.184L3.60016 223.214C3.95016 222.844 4.22016 222.554 4.41016 222.324C4.60016 222.094 4.74016 221.874 4.85016 221.654C4.95016 221.434 5.00016 221.204 5.00016 220.964C5.00016 220.694 4.93016 220.454 4.79016 220.244C4.65016 220.034 4.46016 219.874 4.23016 219.764C3.99016 219.654 3.72016 219.594 3.43016 219.594C3.14016 219.594 2.85016 219.654 2.62016 219.774C2.39016 219.894 2.21016 220.074 2.08016 220.304C1.95016 220.534 1.89016 220.794 1.89016 221.094H0.660156C0.660156 220.584 0.780156 220.134 1.02016 219.744C1.26016 219.354 1.59016 219.054 2.01016 218.834C2.43016 218.624 2.91016 218.514 3.45016 218.514C3.99016 218.514 4.46016 218.614 4.88016 218.824C5.30016 219.034 5.63016 219.324 5.86016 219.684C6.10016 220.054 6.22016 220.464 6.22016 220.924C6.22016 221.254 6.16016 221.564 6.03016 221.864C5.91016 222.164 5.70016 222.494 5.41016 222.854C5.12016 223.214 4.70016 223.664 4.17016 224.194L2.45016 225.944V226.004H6.36016V227.114H0.660156V227.124Z" fill="#545251"/>
<path d="M10.6808 227.245C10.1508 227.245 9.67078 227.145 9.24078 226.945C8.81078 226.745 8.47078 226.465 8.21078 226.115C7.96078 225.765 7.82078 225.365 7.80078 224.915H9.06078C9.08078 225.155 9.16078 225.365 9.31078 225.555C9.46078 225.745 9.65078 225.895 9.89078 226.005C10.1308 226.115 10.3908 226.165 10.6708 226.165C11.0108 226.165 11.3108 226.085 11.5808 225.935C11.8508 225.785 12.0608 225.575 12.2108 225.305C12.3608 225.045 12.4408 224.745 12.4408 224.405C12.4408 224.065 12.3608 223.765 12.2108 223.495C12.0508 223.225 11.8408 223.005 11.5608 222.855C11.2808 222.705 10.9708 222.625 10.6208 222.615C10.2708 222.615 9.97078 222.675 9.71078 222.795C9.46078 222.915 9.26078 223.105 9.12078 223.365H7.91078L8.47078 218.645H13.2808V219.755H9.54078L9.25078 222.125H9.33078C9.45078 222.015 9.59078 221.915 9.76078 221.835C9.93078 221.755 10.1108 221.685 10.3108 221.635C10.5108 221.585 10.7108 221.565 10.9308 221.565C11.4608 221.565 11.9308 221.685 12.3608 221.925C12.7808 222.165 13.1108 222.505 13.3508 222.935C13.5908 223.365 13.7108 223.855 13.7108 224.385C13.7108 224.915 13.5808 225.425 13.3208 225.855C13.0608 226.295 12.7108 226.635 12.2508 226.875C11.7908 227.125 11.2708 227.245 10.6908 227.245H10.6808Z" fill="#545251"/>
<path d="M3.30781 97.6829C2.72781 97.6829 2.21781 97.5829 1.75781 97.3929C1.29781 97.1929 0.937813 96.9229 0.677813 96.5729C0.417813 96.2229 0.277812 95.8129 0.257812 95.3529H1.56781C1.57781 95.5929 1.66781 95.8129 1.81781 95.9929C1.96781 96.1729 2.17781 96.3229 2.43781 96.4229C2.69781 96.5229 2.97781 96.5729 3.29781 96.5729C3.63781 96.5729 3.93781 96.5129 4.20781 96.4029C4.47781 96.2829 4.68781 96.1229 4.83781 95.9129C4.98781 95.7029 5.06781 95.4629 5.05781 95.1929C5.05781 94.9129 4.98781 94.6629 4.83781 94.4429C4.68781 94.2229 4.46781 94.0529 4.17781 93.9329C3.88781 93.8129 3.54781 93.7529 3.14781 93.7529H2.42781V92.7029H3.14781C3.46781 92.7029 3.74781 92.6429 3.99781 92.5329C4.24781 92.4229 4.43781 92.2629 4.57781 92.0629C4.71781 91.8629 4.78781 91.6229 4.78781 91.3529C4.78781 91.0829 4.72781 90.8729 4.60781 90.6729C4.48781 90.4729 4.31781 90.3229 4.08781 90.2129C3.86781 90.1029 3.60781 90.0529 3.30781 90.0529C3.00781 90.0529 2.75781 90.1029 2.50781 90.2029C2.25781 90.3029 2.05781 90.4529 1.90781 90.6329C1.75781 90.8129 1.66781 91.0429 1.65781 91.2829H0.417813C0.427813 90.8329 0.567813 90.4329 0.827812 90.0729C1.08781 89.7129 1.43781 89.4429 1.86781 89.2529C2.30781 89.0629 2.78781 88.9629 3.31781 88.9629C3.84781 88.9629 4.33781 89.0629 4.74781 89.2729C5.15781 89.4829 5.47781 89.7629 5.69781 90.1129C5.91781 90.4629 6.02781 90.8529 6.02781 91.2729C6.02781 91.5829 5.96781 91.8729 5.84781 92.1229C5.72781 92.3729 5.54781 92.5929 5.32781 92.7729C5.10781 92.9529 4.83781 93.0729 4.53781 93.1429V93.2129C4.91781 93.2729 5.24781 93.3829 5.51781 93.5729C5.78781 93.7529 5.99781 93.9929 6.14781 94.2729C6.29781 94.5529 6.35781 94.8729 6.35781 95.2329C6.35781 95.6929 6.22781 96.1129 5.96781 96.4829C5.70781 96.8529 5.33781 97.1529 4.86781 97.3629C4.39781 97.5729 3.87781 97.6829 3.29781 97.6829H3.30781Z" fill="#545251"/>
<path d="M10.6769 97.682C10.1469 97.682 9.66688 97.582 9.23688 97.382C8.80688 97.182 8.46687 96.902 8.20687 96.552C7.95687 96.202 7.81687 95.802 7.79688 95.352H9.05688C9.07688 95.592 9.15688 95.802 9.30688 95.992C9.45688 96.182 9.64688 96.332 9.88688 96.442C10.1269 96.552 10.3869 96.602 10.6669 96.602C11.0069 96.602 11.3069 96.522 11.5769 96.372C11.8469 96.222 12.0569 96.012 12.2069 95.742C12.3569 95.482 12.4369 95.182 12.4369 94.842C12.4369 94.502 12.3569 94.202 12.2069 93.932C12.0469 93.662 11.8369 93.442 11.5569 93.292C11.2769 93.142 10.9669 93.062 10.6169 93.052C10.2669 93.052 9.96687 93.112 9.70687 93.232C9.45687 93.352 9.25687 93.542 9.11687 93.802H7.90687L8.46688 89.082H13.2769V90.192H9.53687L9.24687 92.562H9.32687C9.44687 92.452 9.58688 92.352 9.75688 92.272C9.92688 92.192 10.1069 92.122 10.3069 92.072C10.5069 92.022 10.7069 92.002 10.9269 92.002C11.4569 92.002 11.9269 92.122 12.3569 92.362C12.7769 92.602 13.1069 92.942 13.3469 93.372C13.5869 93.802 13.7069 94.292 13.7069 94.822C13.7069 95.352 13.5769 95.862 13.3169 96.292C13.0569 96.732 12.7069 97.072 12.2469 97.312C11.7869 97.562 11.2669 97.682 10.6869 97.682H10.6769Z" fill="#545251"/>
<path d="M0 31.1327V30.0927L3.75 24.3027H4.57V25.8327H4.04L1.36 29.9727V30.0427H6.51V31.1327H0ZM4.11 32.7927V30.3427V24.3027H5.33V32.7927H4.1H4.11Z" fill="#545251"/>
<path d="M10.7489 32.9334C10.0989 32.9334 9.53891 32.7634 9.06891 32.4234C8.59891 32.0834 8.24891 31.5834 7.99891 30.9234C7.74891 30.2634 7.62891 29.4834 7.62891 28.5634C7.62891 27.6434 7.74891 26.8634 7.99891 26.2134C8.24891 25.5634 8.59891 25.0634 9.06891 24.7134C9.53891 24.3734 10.0889 24.1934 10.7389 24.1934C11.3889 24.1934 11.9489 24.3634 12.4089 24.7134C12.8789 25.0534 13.2289 25.5534 13.4789 26.2134C13.7289 26.8634 13.8489 27.6534 13.8489 28.5634C13.8489 29.4734 13.7289 30.2734 13.4789 30.9234C13.2289 31.5834 12.8789 32.0834 12.4089 32.4234C11.9389 32.7634 11.3789 32.9334 10.7289 32.9334H10.7489ZM10.7489 31.8234C11.1289 31.8234 11.4589 31.6934 11.7389 31.4434C12.0089 31.1934 12.2189 30.8234 12.3689 30.3334C12.5189 29.8434 12.5889 29.2534 12.5889 28.5534C12.5889 27.8534 12.5189 27.2634 12.3689 26.7734C12.2189 26.2834 12.0089 25.9134 11.7389 25.6634C11.4689 25.4134 11.1389 25.2834 10.7589 25.2834C10.3789 25.2834 10.0589 25.4134 9.77891 25.6634C9.50891 25.9134 9.29891 26.2834 9.14891 26.7734C8.99891 27.2634 8.92891 27.8534 8.92891 28.5534C8.92891 29.2534 8.99891 29.8434 9.14891 30.3334C9.28891 30.8234 9.49891 31.1934 9.77891 31.4434C10.0489 31.6934 10.3789 31.8234 10.7589 31.8234H10.7489Z" fill="#545251"/>
<path d="M284.949 345.954C284.949 345.144 285.049 344.374 285.259 343.644C285.469 342.914 285.769 342.234 286.169 341.584H286.759C286.539 341.934 286.339 342.344 286.169 342.834C285.999 343.324 285.859 343.824 285.769 344.374C285.669 344.914 285.629 345.444 285.629 345.964C285.629 346.484 285.679 347.014 285.769 347.554C285.869 348.094 285.999 348.604 286.169 349.094C286.339 349.584 286.539 349.994 286.759 350.334H286.169C285.769 349.694 285.469 349.004 285.259 348.274C285.049 347.544 284.949 346.774 284.949 345.964V345.954Z" fill="#666464"/>
<path d="M291.877 342.073C291.877 342.883 291.747 343.663 291.467 344.383C291.197 345.113 290.767 345.783 290.187 346.393C289.607 347.003 288.857 347.533 287.947 347.973L287.617 347.483C288.437 347.083 289.127 346.613 289.667 346.073C290.217 345.533 290.627 344.923 290.887 344.273C291.157 343.613 291.287 342.913 291.287 342.163V342.073H291.877ZM291.567 342.073V342.573H287.967V342.073H291.567ZM294.027 345.783V346.293H291.457V345.783H294.027ZM294.117 343.523V344.023H291.557V343.523H294.117ZM294.577 341.113V349.633H293.977V341.113H294.577Z" fill="#666464"/>
<path d="M303.869 344.834V345.334H296.109V344.834H303.869ZM299.989 341.244C300.609 341.244 301.149 341.304 301.589 341.424C302.039 341.534 302.379 341.704 302.609 341.924C302.849 342.144 302.959 342.414 302.959 342.724C302.959 343.034 302.839 343.314 302.609 343.534C302.369 343.754 302.029 343.924 301.589 344.034C301.139 344.144 300.609 344.204 299.979 344.204C299.359 344.204 298.819 344.144 298.369 344.034C297.919 343.924 297.579 343.754 297.349 343.534C297.119 343.314 296.999 343.044 296.999 342.724C296.999 342.404 297.119 342.144 297.349 341.924C297.589 341.704 297.929 341.534 298.369 341.424C298.819 341.304 299.349 341.254 299.979 341.244H299.989ZM302.849 346.214V348.024H297.679V349.164H297.089V347.564H302.249V346.694H297.059V346.214H302.839H302.849ZM303.119 349.044V349.544H297.089V349.044H303.119ZM299.989 341.724C299.509 341.724 299.089 341.764 298.729 341.844C298.379 341.924 298.109 342.044 297.919 342.194C297.729 342.344 297.639 342.524 297.639 342.724C297.639 342.924 297.729 343.114 297.919 343.264C298.109 343.414 298.379 343.534 298.729 343.614C299.079 343.694 299.509 343.734 299.989 343.734C300.469 343.734 300.899 343.694 301.249 343.614C301.609 343.534 301.879 343.414 302.069 343.264C302.259 343.114 302.359 342.934 302.359 342.724C302.359 342.514 302.269 342.344 302.069 342.194C301.879 342.044 301.609 341.924 301.249 341.844C300.889 341.764 300.469 341.724 299.989 341.724ZM300.289 345.114V346.474H299.679V345.114H300.289Z" fill="#666464"/>
<path d="M307.39 342.804C307.39 343.234 307.28 343.634 307.07 344.014C306.86 344.394 306.56 344.704 306.19 344.974C305.82 345.244 305.4 345.444 304.94 345.584L304.66 345.104C305.07 344.984 305.45 344.814 305.79 344.594C306.13 344.364 306.4 344.104 306.6 343.794C306.8 343.484 306.9 343.164 306.9 342.814V342.424H307.4V342.814L307.39 342.804ZM309.47 342.034V342.544H304.9V342.034H309.47ZM311.66 346.054V347.984H306.81V349.304H306.21V347.504H311.05V346.544H306.18V346.054H311.65H311.66ZM312.01 349.044V349.544H306.22V349.044H312.01ZM307.5 341.094V342.334H306.88V341.094H307.5ZM307.49 342.804C307.49 343.124 307.59 343.434 307.79 343.714C307.99 344.004 308.27 344.244 308.62 344.454C308.97 344.664 309.35 344.814 309.76 344.914L309.48 345.384C309.01 345.264 308.59 345.084 308.21 344.834C307.83 344.584 307.54 344.284 307.32 343.934C307.1 343.584 306.99 343.204 307 342.784V342.394H307.49V342.784V342.804ZM311.44 343.304V343.804H309.19V343.304H311.44ZM311.66 341.134V345.624H311.06V341.134H311.66Z" fill="#666464"/>
<path d="M318.78 345.604V346.214H315.84V345.604H318.78Z" fill="#666464"/>
<path d="M329.97 348.004V348.524H322.18V348.004H329.97ZM323.73 341.754V343.354H328.38V341.754H328.98V346.084H323.12V341.754H323.73ZM323.73 345.574H328.38V343.874H323.73V345.574ZM326.35 345.884V348.184H325.75V345.884H326.35Z" fill="#666464"/>
<path d="M333.12 341.463C333.54 341.463 333.91 341.543 334.24 341.703C334.57 341.863 334.83 342.083 335.02 342.363C335.21 342.643 335.3 342.973 335.3 343.333C335.3 343.693 335.2 344.023 335.02 344.303C334.83 344.583 334.57 344.803 334.24 344.963C333.91 345.123 333.54 345.193 333.12 345.193C332.7 345.193 332.32 345.123 331.99 344.963C331.66 344.803 331.4 344.583 331.21 344.303C331.02 344.023 330.93 343.693 330.93 343.333C330.93 342.973 331.02 342.653 331.21 342.363C331.4 342.083 331.66 341.863 331.99 341.703C332.32 341.543 332.7 341.463 333.12 341.463ZM333.12 341.983C332.82 341.983 332.54 342.043 332.3 342.153C332.06 342.263 331.87 342.433 331.73 342.643C331.59 342.853 331.52 343.083 331.53 343.333C331.53 343.593 331.59 343.823 331.73 344.023C331.87 344.233 332.06 344.393 332.3 344.503C332.54 344.623 332.82 344.673 333.12 344.673C333.42 344.673 333.69 344.613 333.93 344.503C334.17 344.383 334.36 344.223 334.5 344.023C334.64 343.813 334.71 343.583 334.71 343.333C334.71 343.083 334.64 342.853 334.5 342.643C334.36 342.433 334.17 342.273 333.93 342.153C333.69 342.033 333.42 341.973 333.12 341.983ZM337.71 345.973V347.933H332.84V349.313H332.25V347.463H337.1V346.473H332.22V345.973H337.7H337.71ZM338.04 349.023V349.523H332.26V349.023H338.04ZM337.71 341.133V345.533H337.1V341.133H337.71Z" fill="#666464"/>
<path d="M343.379 341.953V344.853H340.189V347.223H339.589V344.333H342.789V342.463H339.559V341.953H343.379ZM340.229 347.063C341.069 347.063 341.779 347.043 342.359 347.003C342.939 346.963 343.529 346.883 344.129 346.773L344.179 347.293C343.559 347.403 342.959 347.483 342.369 347.523C341.779 347.563 341.059 347.593 340.229 347.593H339.599V347.063H340.229ZM345.829 344.473V344.993H343.909V344.473H345.829ZM346.259 341.133V349.653H345.659V341.133H346.259Z" fill="#666464"/>
<path d="M357.947 345.234V345.754H350.188V345.234H357.947ZM354.057 346.574C354.667 346.574 355.187 346.634 355.617 346.754C356.047 346.874 356.388 347.044 356.628 347.274C356.868 347.504 356.977 347.774 356.977 348.094C356.977 348.414 356.858 348.694 356.628 348.914C356.398 349.144 356.058 349.314 355.628 349.434C355.188 349.554 354.667 349.614 354.057 349.614C353.447 349.614 352.927 349.554 352.487 349.434C352.047 349.314 351.717 349.144 351.477 348.914C351.247 348.684 351.128 348.414 351.128 348.094C351.128 347.774 351.247 347.494 351.477 347.274C351.707 347.054 352.047 346.874 352.487 346.754C352.927 346.634 353.447 346.574 354.057 346.574ZM356.967 341.514V342.034H351.777V344.084H351.177V341.514H356.967ZM357.027 343.844V344.354H351.177V343.844H357.027ZM354.057 347.064C353.587 347.064 353.177 347.104 352.827 347.194C352.477 347.274 352.217 347.394 352.027 347.554C351.837 347.714 351.747 347.894 351.747 348.104C351.747 348.314 351.837 348.504 352.027 348.654C352.217 348.804 352.477 348.924 352.827 349.004C353.177 349.084 353.587 349.124 354.057 349.124C354.527 349.124 354.937 349.084 355.287 349.004C355.637 348.924 355.897 348.804 356.087 348.654C356.277 348.504 356.368 348.314 356.378 348.104C356.378 347.894 356.277 347.704 356.087 347.554C355.897 347.394 355.637 347.274 355.287 347.194C354.937 347.114 354.527 347.064 354.057 347.064Z" fill="#666464"/>
<path d="M360.599 345.954C360.599 346.764 360.499 347.534 360.289 348.264C360.079 348.994 359.779 349.674 359.379 350.324H358.789C359.009 349.974 359.209 349.564 359.379 349.074C359.549 348.584 359.679 348.084 359.779 347.534C359.879 346.994 359.919 346.464 359.919 345.944C359.919 345.424 359.869 344.894 359.779 344.354C359.679 343.814 359.549 343.304 359.379 342.814C359.209 342.324 359.009 341.914 358.789 341.574H359.379C359.779 342.214 360.089 342.904 360.289 343.634C360.489 344.364 360.599 345.134 360.599 345.944V345.954Z" fill="#666464"/>
<g opacity="0.4">
<path opacity="0.5" d="M23.6094 155.164H352.029" stroke="#172A88" stroke-opacity="0.5" stroke-width="0.5" stroke-miterlimit="10" stroke-linecap="round"/>
<path opacity="0.32" d="M23.6094 31.2637H352.029" stroke="#172A88" stroke-width="0.5" stroke-miterlimit="10" stroke-linecap="round"/>
<path opacity="0.25" d="M23.6094 90.2246H351.759" stroke="#172A88" stroke-width="0.5" stroke-miterlimit="10" stroke-linecap="round"/>
<path opacity="0.25" d="M23.6094 220.104H352.029" stroke="#172A88" stroke-width="0.5" stroke-miterlimit="10" stroke-linecap="round"/>
<path opacity="0.5" d="M188.199 32.4141V289.964" stroke="#172A88" stroke-opacity="0.5" stroke-width="0.5" stroke-miterlimit="10" stroke-linecap="round"/>
<path opacity="0.25" d="M242.809 32.4141V289.964" stroke="#172A88" stroke-width="0.5" stroke-miterlimit="10" stroke-linecap="round"/>
<path opacity="0.25" d="M297.418 32.4141V289.964" stroke="#172A88" stroke-width="0.5" stroke-miterlimit="10" stroke-linecap="round"/>
<path opacity="0.32" d="M352.031 32.4141V289.964" stroke="#172A88" stroke-width="0.5" stroke-miterlimit="10" stroke-linecap="round"/>
<path opacity="0.25" d="M78.9805 32.4141V289.964" stroke="#172A88" stroke-width="0.5" stroke-miterlimit="10" stroke-linecap="round"/>
<path opacity="0.25" d="M133.59 32.4141V289.964" stroke="#172A88" stroke-width="0.5" stroke-miterlimit="10" stroke-linecap="round"/>
</g>
<path d="M4.32156 2.47344C4.32156 3.19344 4.19156 3.86344 3.94156 4.50344C3.69156 5.14344 3.32156 5.69344 2.84156 6.16344C2.36156 6.63344 1.77156 6.98344 1.08156 7.22344L0.351562 6.12344C0.941562 5.92344 1.45156 5.63344 1.87156 5.25344C2.29156 4.87344 2.61156 4.45344 2.83156 3.97344C3.05156 3.49344 3.16156 3.00344 3.16156 2.48344V1.66344H4.32156V2.48344V2.47344ZM6.97156 1.35344V2.50344H0.771563V1.35344H6.97156ZM3.83156 7.51344V8.71344H8.58156V7.51344H9.99156V12.1034H2.43156V7.51344H3.84156H3.83156ZM4.60156 2.48344C4.60156 2.95344 4.70156 3.41344 4.91156 3.86344C5.12156 4.31344 5.42156 4.71344 5.83156 5.07344C6.24156 5.43344 6.73156 5.70344 7.30156 5.89344L6.59156 6.99344C5.92156 6.76344 5.35156 6.42344 4.88156 5.97344C4.41156 5.52344 4.05156 4.99344 3.81156 4.40344C3.57156 3.80344 3.45156 3.17344 3.45156 2.49344V1.66344H4.60156V2.49344V2.48344ZM3.83156 10.9634H8.58156V9.80344H3.83156V10.9634ZM8.95156 3.41344V4.57344H6.60156V3.41344H8.95156ZM9.99156 0.773438V7.03344H8.58156V0.773438H9.99156Z" fill="#545251"/>
<path d="M22.0811 6.75391V7.87391H11.6211V6.75391H22.0811ZM17.2911 2.78391C17.2911 3.38391 17.1011 3.90391 16.7111 4.36391C16.3311 4.82391 15.7811 5.19391 15.0611 5.47391C14.3411 5.75391 13.5111 5.94391 12.5511 6.02391L12.1111 4.94391C12.9411 4.88391 13.6611 4.75391 14.2511 4.54391C14.8411 4.34391 15.2911 4.08391 15.5911 3.78391C15.8911 3.48391 16.0411 3.14391 16.0411 2.78391V2.56391H17.2811V2.78391H17.2911ZM21.0511 1.84391V2.96391H12.6511V1.84391H21.0511ZM20.8011 8.75391V12.2339H19.3811V9.87391H12.7811V8.75391H20.8011ZM17.5411 0.753906V2.41391H16.1411V0.753906H17.5411ZM17.5411 5.48391V7.23391H16.1411V5.48391H17.5411ZM17.6211 2.78391C17.6211 3.14391 17.7711 3.48391 18.0611 3.78391C18.3511 4.08391 18.8111 4.34391 19.4011 4.54391C19.9911 4.74391 20.7111 4.88391 21.5511 4.94391L21.1111 6.02391C20.1411 5.94391 19.3011 5.75391 18.5911 5.47391C17.8811 5.19391 17.3311 4.82391 16.9511 4.36391C16.5711 3.91391 16.3811 3.38391 16.3811 2.78391V2.56391H17.6211V2.78391Z" fill="#545251"/>
<path d="M34.4109 6.75398V7.89398H23.9609V6.75398H34.4109ZM29.1709 1.08398C30.0009 1.08398 30.7209 1.17398 31.3509 1.36398C31.9709 1.55398 32.4509 1.82398 32.7909 2.17398C33.1309 2.52398 33.3009 2.93398 33.3009 3.40398C33.3009 3.87398 33.1309 4.31398 32.7909 4.66398C32.4509 5.01398 31.9709 5.29398 31.3509 5.47398C30.7309 5.66398 30.0009 5.75398 29.1709 5.75398C28.3409 5.75398 27.6109 5.66398 26.9909 5.47398C26.3709 5.28398 25.8909 5.01398 25.5409 4.66398C25.2009 4.31398 25.0309 3.88398 25.0309 3.40398C25.0309 2.93398 25.2009 2.52398 25.5409 2.17398C25.8809 1.82398 26.3609 1.55398 26.9909 1.36398C27.6209 1.17398 28.3409 1.08398 29.1709 1.08398ZM26.6609 8.67398V11.264H25.2409V8.67398H26.6609ZM33.2209 10.874V12.014H25.2309V10.874H33.2209ZM29.1709 2.20398C28.6209 2.20398 28.1409 2.25398 27.7409 2.34398C27.3409 2.43398 27.0309 2.57398 26.8209 2.75398C26.6109 2.93398 26.5009 3.14398 26.5109 3.39398C26.5109 3.66398 26.6109 3.88398 26.8209 4.06398C27.0309 4.24398 27.3409 4.38398 27.7409 4.47398C28.1409 4.56398 28.6209 4.61398 29.1809 4.61398C29.7409 4.61398 30.2209 4.56398 30.6209 4.47398C31.0209 4.38398 31.3209 4.24398 31.5409 4.06398C31.7509 3.88398 31.8609 3.66398 31.8609 3.39398C31.8609 3.14398 31.7509 2.93398 31.5409 2.75398C31.3309 2.57398 31.0209 2.43398 30.6209 2.34398C30.2209 2.25398 29.7409 2.20398 29.1809 2.20398H29.1709ZM29.8809 5.10398V7.29398H28.4709V5.10398H29.8809Z" fill="#545251"/>
<path d="M45.6814 9.725V10.885H35.1914V9.725H45.6814ZM44.4214 1.625V2.755H37.8814V6.495H36.4714V1.625H44.4214ZM44.5114 5.985V7.105H36.4714V5.985H44.5114ZM41.1114 6.485V10.125H39.7114V6.485H41.1114Z" fill="#545251"/>
<path d="M50.132 13.3143L49.792 13.6043C47.962 11.8943 47.082 9.8743 47.082 7.5043C47.082 5.1343 47.962 3.1043 49.792 1.4043L50.132 1.6943C48.602 3.9043 48.132 5.4343 48.132 7.5143C48.132 9.5943 48.612 11.1243 50.132 13.3343V13.3143Z" fill="#545251"/>
<path d="M53.2928 6.16367C52.9028 6.16367 52.5428 6.06367 52.2128 5.87367C51.8828 5.68367 51.6228 5.42367 51.4228 5.09367C51.2328 4.76367 51.1328 4.40367 51.1328 4.01367C51.1328 3.62367 51.2328 3.26367 51.4228 2.93367C51.6128 2.60367 51.8728 2.34367 52.2128 2.15367C52.5428 1.96367 52.9028 1.86367 53.2928 1.86367C53.6828 1.86367 54.0428 1.96367 54.3728 2.15367C54.7028 2.34367 54.9628 2.60367 55.1628 2.93367C55.3528 3.26367 55.4528 3.62367 55.4528 4.01367C55.4528 4.40367 55.3528 4.76367 55.1628 5.09367C54.9728 5.42367 54.7028 5.68367 54.3728 5.87367C54.0428 6.06367 53.6828 6.16367 53.2928 6.16367ZM53.2928 5.02367C53.4828 5.02367 53.6528 4.97367 53.8028 4.88367C53.9628 4.79367 54.0828 4.67367 54.1728 4.51367C54.2628 4.36367 54.3028 4.19367 54.3028 4.00367C54.3028 3.81367 54.2628 3.64367 54.1728 3.49367C54.0828 3.34367 53.9628 3.21367 53.8028 3.12367C53.6428 3.03367 53.4728 2.99367 53.2928 2.99367C53.1128 2.99367 52.9428 3.03367 52.7828 3.12367C52.6228 3.21367 52.5028 3.33367 52.4128 3.49367C52.3228 3.65367 52.2728 3.81367 52.2728 4.00367C52.2728 4.19367 52.3228 4.36367 52.4128 4.51367C52.5028 4.66367 52.6228 4.79367 52.7828 4.88367C52.9428 4.97367 53.1028 5.02367 53.2928 5.02367ZM62.9628 5.02367C62.9028 4.66367 62.7728 4.35367 62.5628 4.08367C62.3628 3.82367 62.1028 3.62367 61.7928 3.48367C61.4828 3.34367 61.1428 3.27367 60.7728 3.27367C60.2628 3.27367 59.8128 3.40367 59.4328 3.65367C59.0428 3.90367 58.7428 4.27367 58.5328 4.76367C58.3128 5.25367 58.2028 5.83367 58.2028 6.51367C58.2028 7.19367 58.3128 7.79367 58.5328 8.27367C58.7528 8.76367 59.0528 9.12367 59.4328 9.37367C59.8228 9.62367 60.2628 9.74367 60.7628 9.74367C61.1328 9.74367 61.4728 9.67367 61.7728 9.54367C62.0728 9.41367 62.3328 9.21367 62.5428 8.96367C62.7528 8.71367 62.8928 8.40367 62.9628 8.05367H64.6328C64.5528 8.65367 64.3328 9.18367 63.9928 9.66367C63.6528 10.1437 63.2028 10.5237 62.6428 10.8037C62.0828 11.0837 61.4528 11.2237 60.7428 11.2237C59.9328 11.2237 59.2028 11.0337 58.5728 10.6537C57.9428 10.2737 57.4428 9.73367 57.0828 9.01367C56.7228 8.30367 56.5428 7.46367 56.5428 6.49367C56.5428 5.52367 56.7228 4.68367 57.0828 3.97367C57.4428 3.26367 57.9428 2.71367 58.5828 2.33367C59.2228 1.95367 59.9428 1.76367 60.7528 1.76367C61.4328 1.76367 62.0428 1.89367 62.5928 2.14367C63.1428 2.39367 63.6028 2.77367 63.9528 3.25367C64.3128 3.73367 64.5328 4.31367 64.6328 4.98367H62.9628V5.02367Z" fill="#545251"/>
<path d="M65.5312 1.68453L65.8713 1.39453C67.7013 3.09453 68.5813 5.12453 68.5813 7.49453C68.5813 9.86453 67.7013 11.8945 65.8713 13.5945L65.5312 13.3045C67.0612 11.0945 67.5312 9.56453 67.5312 7.48453C67.5312 5.40453 67.0512 3.87453 65.5312 1.66453V1.68453Z" fill="#545251"/>
</svg>
