<svg width="112" height="88" viewBox="0 0 112 88" fill="none" xmlns="http://www.w3.org/2000/svg">
<path d="M72.8142 0.251953H39.5442C18.1598 0.251953 0.824219 17.5875 0.824219 38.972C0.824219 60.3564 18.1598 77.692 39.5442 77.692H72.8142C94.1987 77.692 111.534 60.3564 111.534 38.972C111.534 17.5875 94.1987 0.251953 72.8142 0.251953Z" fill="white"/>
<path d="M67.2141 72.7728L52.5341 87.2228L52.4141 66.6328L67.2141 72.7728Z" fill="white"/>
<path d="M30.0098 59.2676C25.3516 59.2676 22.0118 56.7041 21.9239 52.998H26.377C26.4503 54.5801 27.9884 55.6201 30.0391 55.6348C32.1485 55.6201 33.6573 54.4482 33.6427 52.7344C33.6573 51.0059 32.1192 49.79 29.629 49.7754H27.6661V46.5234H29.629C31.7237 46.5234 33.1886 45.3809 33.1739 43.7109C33.1886 42.085 31.9434 40.9717 30.0684 40.9863C28.1934 40.9717 26.6553 42.0264 26.5821 43.6523H22.3634C22.4366 40.0049 25.7178 37.4707 30.0684 37.4707C34.4923 37.4707 37.4366 40.0928 37.4219 43.4473C37.4366 45.8203 35.7813 47.5049 33.4083 47.9297V48.1055C36.5284 48.4863 38.2423 50.376 38.213 53.0273C38.2423 56.6602 34.7999 59.2676 30.0098 59.2676ZM48.4528 37.4707C52.8473 37.4854 57.0075 40.1074 57.0075 47.8125C57.0221 55.0195 53.6091 59.2676 48.277 59.2676C44.0143 59.2676 41.0846 56.5869 40.6598 52.998H44.9958C45.362 54.5654 46.5778 55.4883 48.277 55.4883C51.1628 55.4883 52.6862 52.8955 52.7009 48.6621H52.5251C51.529 50.5371 49.4343 51.6504 47.0759 51.6504C43.2673 51.6504 40.4548 48.7793 40.4255 44.8242C40.4255 40.5615 43.6628 37.4561 48.4528 37.4707ZM44.7321 44.707C44.7321 46.8018 46.2702 48.4277 48.4528 48.4277C50.6061 48.4277 52.2614 46.7139 52.2614 44.6777C52.2321 42.6562 50.6501 40.9424 48.4821 40.9277C46.3141 40.9424 44.7028 42.5977 44.7321 44.707ZM62.0676 52.6113C60.1604 52.6113 59.1321 51.2227 59.1321 49.2188C59.1321 47.2061 60.2132 45.8086 62.0676 45.8086C63.9749 45.8086 64.9944 47.2061 65.0032 49.2188C64.9944 51.2402 63.9485 52.6113 62.0676 52.6113ZM60.9251 49.2188C60.9339 50.3174 61.3294 51.0381 62.0676 51.0469C62.8235 51.0381 63.2014 50.3174 63.2102 49.2188C63.2014 48.1201 62.8587 47.373 62.0676 47.373C61.3206 47.3818 60.9339 48.1377 60.9251 49.2188ZM60.9602 58.9746L69.7141 46.248H71.6829L62.929 58.9746H60.9602ZM67.7278 56.0039C67.7278 53.9912 68.8089 52.6025 70.6458 52.5938C72.5706 52.6025 73.5901 53.9912 73.5989 56.0039C73.5901 58.0254 72.5442 59.3965 70.6458 59.3965C68.7561 59.3965 67.7278 58.0078 67.7278 56.0039ZM69.5208 56.0039C69.5296 57.1025 69.9251 57.832 70.6458 57.832C71.4192 57.832 71.7971 57.1025 71.8059 56.0039C71.7971 54.9053 71.4456 54.1582 70.6458 54.1758C69.9075 54.167 69.5296 54.9229 69.5208 56.0039Z" fill="#202020"/>
<path d="M47.5598 12.8214V23.1894H45.9278V18.3574H44.6158V22.7734H43.0158V13.0454H44.6158V16.9174H45.9278V12.8214H47.5598ZM35.2078 19.7334C36.6158 18.4534 37.1438 17.2214 37.2878 15.3174H35.6238V13.9094H38.8878C38.8878 16.7574 38.4878 18.7734 36.4878 20.6934L35.2078 19.7334ZM37.7038 26.6454V22.1014H39.4638V25.2374H47.9438V26.6454H37.7038ZM38.5358 20.5334C39.9758 18.9814 40.4878 17.4454 40.6158 15.3174H39.2718V13.9094H42.2158C42.1998 16.9014 41.8478 19.2374 39.9118 21.3654L38.5358 20.5334ZM56.0484 16.1814C56.0484 18.7734 57.4244 21.3654 59.6964 22.3574L58.6724 23.7334C57.0564 22.9814 55.8564 21.4934 55.2004 19.6534C54.5604 21.6374 53.3444 23.2694 51.6324 24.0854L50.5764 22.6134C52.9284 21.6054 54.3044 18.9014 54.3204 16.1814V13.9414H56.0484V16.1814ZM60.7204 26.9334V12.7894H62.4804V26.9334H60.7204ZM74.5805 12.7894V16.8534H76.5645V18.2934H74.5805V22.9654H72.8205V12.7894H74.5805ZM63.3805 20.1494C66.6285 19.1894 68.5485 17.4294 68.8365 15.2854H63.9885V13.8774H70.7405C70.7405 17.6214 68.2925 20.2934 64.1165 21.5254L63.3805 20.1494ZM65.4925 26.6454V21.9414H67.2525V25.2374H75.0925V26.6454H65.4925Z" fill="#202020"/>
</svg>
