<svg width="368" height="351" viewBox="0 0 368 351" fill="none" xmlns="http://www.w3.org/2000/svg">
<g clip-path="url(#clip0_1405_8405)">
<path opacity="0.5" d="M24.4297 89.7168V219.597H109.87L353.5 114.667V89.7168H24.4297Z" fill="#AFD4FF"/>
<mask id="mask0_1405_8405" style="mask-type:luminance" maskUnits="userSpaceOnUse" x="24" y="89" width="330" height="131">
<path d="M24.4297 89.7168V219.597H109.87L353.5 114.667V89.7168H24.4297Z" fill="white"/>
</mask>
<g mask="url(#mask0_1405_8405)">
<g opacity="0.7">
<path d="M503.749 82.5762L319.609 294.646H320.179L503.749 83.2262V82.5762Z" fill="white"/>
<path d="M503.749 95.3066L330.669 294.647H331.229L503.749 95.9566V95.3066Z" fill="white"/>
<path d="M503.75 108.037L341.72 294.647H342.28L503.75 108.687V108.037Z" fill="white"/>
<path d="M503.749 120.768L352.779 294.648H353.339L503.749 121.418V120.768Z" fill="white"/>
<path d="M28.8793 82.0469L-155.721 294.647H-155.161L29.4393 82.0469H28.8793Z" fill="white"/>
<path d="M39.9291 82.0469L-144.671 294.647H-144.101L40.4891 82.0469H39.9291Z" fill="white"/>
<path d="M50.9897 82.0469L-133.61 294.647H-133.05L51.5497 82.0469H50.9897Z" fill="white"/>
<path d="M62.0394 82.0469L-122.561 294.647H-122.001L62.5994 82.0469H62.0394Z" fill="white"/>
<path d="M73.0893 82.0469L-111.511 294.647H-110.941L73.6592 82.0469H73.0893Z" fill="white"/>
<path d="M84.1498 82.0469L-100.45 294.647H-99.8902L84.7098 82.0469H84.1498Z" fill="white"/>
<path d="M95.1996 82.0469L-89.4004 294.647H-88.8304L95.7696 82.0469H95.1996Z" fill="white"/>
<path d="M106.259 82.0469L-78.3408 294.647H-77.7808L106.819 82.0469H106.259Z" fill="white"/>
<path d="M117.309 82.0469L-67.291 294.647H-66.721L117.869 82.0469H117.309Z" fill="white"/>
<path d="M128.37 82.0469L-56.2305 294.647H-55.6705L128.93 82.0469H128.37Z" fill="white"/>
<path d="M139.419 82.0469L-45.1807 294.647H-44.6207L139.979 82.0469H139.419Z" fill="white"/>
<path d="M150.469 82.0469L-34.1309 294.647H-33.5609L151.039 82.0469H150.469Z" fill="white"/>
<path d="M161.53 82.0469L-23.0703 294.647H-22.5103L162.09 82.0469H161.53Z" fill="white"/>
<path d="M172.579 82.0469L-12.0205 294.647H-11.4505L173.149 82.0469H172.579Z" fill="white"/>
<path d="M183.639 82.0469L-0.960938 294.647H-0.40094L184.199 82.0469H183.639Z" fill="white"/>
<path d="M194.69 82.0469L10.0898 294.647H10.6598L195.25 82.0469H194.69Z" fill="white"/>
<path d="M205.749 82.0469L21.1494 294.647H21.7094L206.309 82.0469H205.749Z" fill="white"/>
<path d="M216.799 82.0469L32.1992 294.647H32.7592L217.359 82.0469H216.799Z" fill="white"/>
<path d="M227.849 82.0469L43.249 294.647H43.819L228.419 82.0469H227.849Z" fill="white"/>
<path d="M238.91 82.0469L54.3096 294.647H54.8696L239.47 82.0469H238.91Z" fill="white"/>
<path d="M249.959 82.0469L65.3594 294.647H65.9294L250.529 82.0469H249.959Z" fill="white"/>
<path d="M261.019 82.0469L76.4189 294.647H76.9789L261.579 82.0469H261.019Z" fill="white"/>
<path d="M272.07 82.0469L87.4697 294.647H88.0397L272.63 82.0469H272.07Z" fill="white"/>
<path d="M283.129 82.0469L98.5293 294.647H99.0893L283.689 82.0469H283.129Z" fill="white"/>
<path d="M294.179 82.0469L109.579 294.647H110.139L294.739 82.0469H294.179Z" fill="white"/>
<path d="M305.23 82.0469L120.64 294.647H121.2L305.8 82.0469H305.23Z" fill="white"/>
<path d="M316.289 82.0469L131.689 294.647H132.249L316.849 82.0469H316.289Z" fill="white"/>
<path d="M327.339 82.0469L142.739 294.647H143.309L327.909 82.0469H327.339Z" fill="white"/>
<path d="M338.4 82.0469L153.8 294.647H154.36L338.96 82.0469H338.4Z" fill="white"/>
<path d="M349.45 82.0469L164.85 294.647H165.42L350.01 82.0469H349.45Z" fill="white"/>
<path d="M360.509 82.0469L175.909 294.647H176.469L361.069 82.0469H360.509Z" fill="white"/>
<path d="M371.559 82.0469L186.959 294.647H187.519L372.119 82.0469H371.559Z" fill="white"/>
<path d="M382.61 82.0469L198.02 294.647H198.58L383.18 82.0469H382.61Z" fill="white"/>
<path d="M393.669 82.0469L209.069 294.647H209.629L394.229 82.0469H393.669Z" fill="white"/>
<path d="M404.719 82.0469L220.119 294.647H220.689L405.289 82.0469H404.719Z" fill="white"/>
<path d="M415.78 82.0469L231.18 294.647H231.74L416.34 82.0469H415.78Z" fill="white"/>
<path d="M426.829 82.0469L242.229 294.647H242.799L427.39 82.0469H426.829Z" fill="white"/>
<path d="M437.889 82.0469L253.289 294.647H253.849L438.449 82.0469H437.889Z" fill="white"/>
<path d="M448.94 82.0469L264.34 294.647H264.9L449.5 82.0469H448.94Z" fill="white"/>
<path d="M459.989 82.0469L275.399 294.647H275.959L460.559 82.0469H459.989Z" fill="white"/>
<path d="M471.049 82.0469L286.449 294.647H287.009L471.609 82.0469H471.049Z" fill="white"/>
<path d="M482.099 82.0469L297.499 294.647H298.069L482.669 82.0469H482.099Z" fill="white"/>
<path d="M493.16 82.0469L308.56 294.647H309.12L493.72 82.0469H493.16Z" fill="white"/>
<path d="M503.749 88.8164L325.029 294.646H325.599L503.749 89.4664V88.8164Z" fill="white"/>
<path d="M503.75 101.547L336.09 294.647H336.65L503.75 102.197V101.547Z" fill="white"/>
<path d="M503.75 114.277L347.14 294.647H347.71L503.75 114.927V114.277Z" fill="white"/>
<path d="M34.2992 82.0469L-150.301 294.647H-149.741L34.8592 82.0469H34.2992Z" fill="white"/>
<path d="M45.349 82.0469L-139.251 294.647H-138.681L45.919 82.0469H45.349Z" fill="white"/>
<path d="M56.4096 82.0469L-128.19 294.647H-127.63L56.9696 82.0469H56.4096Z" fill="white"/>
<path d="M67.4594 82.0469L-117.141 294.647H-116.571L68.0194 82.0469H67.4594Z" fill="white"/>
<path d="M78.519 82.0469L-106.081 294.647H-105.521L79.0789 82.0469H78.519Z" fill="white"/>
<path d="M89.5697 82.0469L-95.0303 294.647H-94.4703L90.1297 82.0469H89.5697Z" fill="white"/>
<path d="M100.62 82.0469L-83.9805 294.647H-83.4105L101.19 82.0469H100.62Z" fill="white"/>
<path d="M111.679 82.0469L-72.9209 294.647H-72.3609L112.239 82.0469H111.679Z" fill="white"/>
<path d="M122.729 82.0469L-61.8711 294.647H-61.3011L123.299 82.0469H122.729Z" fill="white"/>
<path d="M133.789 82.0469L-50.8105 294.647H-50.2505L134.349 82.0469H133.789Z" fill="white"/>
<path d="M144.839 82.0469L-39.7607 294.647H-39.1907L145.399 82.0469H144.839Z" fill="white"/>
<path d="M155.9 82.0469L-28.7002 294.647H-28.1402L156.46 82.0469H155.9Z" fill="white"/>
<path d="M166.95 82.0469L-17.6504 294.647H-17.0904L167.51 82.0469H166.95Z" fill="white"/>
<path d="M177.999 82.0469L-6.60059 294.647H-6.03061L178.569 82.0469H177.999Z" fill="white"/>
<path d="M189.059 82.0469L4.45898 294.647H5.01898L189.619 82.0469H189.059Z" fill="white"/>
<path d="M200.11 82.0469L15.5098 294.647H16.0798L200.68 82.0469H200.11Z" fill="white"/>
<path d="M211.169 82.0469L26.5693 294.647H27.1293L211.729 82.0469H211.169Z" fill="white"/>
<path d="M222.219 82.0469L37.6191 294.647H38.1891L222.779 82.0469H222.219Z" fill="white"/>
<path d="M233.28 82.0469L48.6797 294.647H49.2397L233.84 82.0469H233.28Z" fill="white"/>
<path d="M244.329 82.0469L59.7295 294.647H60.2895L244.89 82.0469H244.329Z" fill="white"/>
<path d="M255.379 82.0469L70.7793 294.647H71.3493L255.949 82.0469H255.379Z" fill="white"/>
<path d="M266.44 82.0469L81.8398 294.647H82.3998L267 82.0469H266.44Z" fill="white"/>
<path d="M277.49 82.0469L92.8896 294.647H93.4597L278.06 82.0469H277.49Z" fill="white"/>
<path d="M288.549 82.0469L103.949 294.647H104.509L289.109 82.0469H288.549Z" fill="white"/>
<path d="M299.599 82.0469L114.999 294.647H115.569L300.159 82.0469H299.599Z" fill="white"/>
<path d="M310.66 82.0469L126.06 294.647H126.62L311.22 82.0469H310.66Z" fill="white"/>
<path d="M321.709 82.0469L137.109 294.647H137.669L322.269 82.0469H321.709Z" fill="white"/>
<path d="M332.759 82.0469L148.159 294.647H148.729L333.329 82.0469H332.759Z" fill="white"/>
<path d="M343.82 82.0469L159.22 294.647H159.78L344.38 82.0469H343.82Z" fill="white"/>
<path d="M354.87 82.0469L170.27 294.647H170.84L355.44 82.0469H354.87Z" fill="white"/>
<path d="M365.929 82.0469L181.329 294.647H181.889L366.489 82.0469H365.929Z" fill="white"/>
<path d="M376.979 82.0469L192.379 294.647H192.949L377.539 82.0469H376.979Z" fill="white"/>
<path d="M388.039 82.0469L203.439 294.647H203.999L388.599 82.0469H388.039Z" fill="white"/>
<path d="M399.089 82.0469L214.489 294.647H215.049L399.649 82.0469H399.089Z" fill="white"/>
<path d="M410.139 82.0469L225.539 294.647H226.109L410.709 82.0469H410.139Z" fill="white"/>
<path d="M421.2 82.0469L236.6 294.647H237.16L421.76 82.0469H421.2Z" fill="white"/>
<path d="M432.249 82.0469L247.649 294.647H248.219L432.819 82.0469H432.249Z" fill="white"/>
<path d="M443.309 82.0469L258.709 294.647H259.269L443.869 82.0469H443.309Z" fill="white"/>
<path d="M454.36 82.0469L269.76 294.647H270.33L454.92 82.0469H454.36Z" fill="white"/>
<path d="M465.419 82.0469L280.819 294.647H281.379L465.979 82.0469H465.419Z" fill="white"/>
<path d="M476.469 82.0469L291.869 294.647H292.429L477.029 82.0469H476.469Z" fill="white"/>
<path d="M487.52 82.0469L302.93 294.647H303.49L488.09 82.0469H487.52Z" fill="white"/>
<path d="M498.579 82.0469L313.979 294.647H314.539L499.14 82.0469H498.579Z" fill="white"/>
</g>
</g>
<path d="M353.5 89.7168H24.4297V219.597H108.32L353.5 114.667" stroke="#52A3FF" stroke-width="1.4" stroke-miterlimit="10"/>
</g>
<defs>
<clipPath id="clip0_1405_8405">
<rect width="366.2" height="350.26" fill="white" transform="translate(0.900391 0.246094)"/>
</clipPath>
</defs>
</svg>
