<svg width="111" height="88" viewBox="0 0 111 88" fill="none" xmlns="http://www.w3.org/2000/svg">
<path d="M72.115 0.529297H38.845C17.4605 0.529297 0.125 17.8648 0.125 39.2493C0.125 60.6338 17.4605 77.9693 38.845 77.9693H72.115C93.4995 77.9693 110.835 60.6338 110.835 39.2493C110.835 17.8648 93.4995 0.529297 72.115 0.529297Z" fill="white"/>
<path d="M22.2392 59.5449C17.8593 59.5303 13.6698 56.9082 13.6845 49.1445C13.6991 41.9814 17.1122 37.748 22.415 37.748C26.6777 37.748 29.6073 40.4434 30.0322 43.9297H25.6962C25.3447 42.4502 24.1288 41.5273 22.415 41.5273C19.5292 41.5273 18.0204 44.1201 17.9911 48.2949H18.1962C19.1777 46.4053 21.2724 45.3066 23.6161 45.3066C27.4394 45.3066 30.2812 48.1631 30.2665 52.1621C30.2812 56.4688 27.0292 59.5596 22.2392 59.5449ZM18.4306 52.2793C18.4599 54.3594 20.0419 56.0732 22.2099 56.0586C24.3925 56.0732 25.9892 54.418 25.9892 52.2793C25.9892 50.1553 24.4218 48.5146 22.2685 48.5C20.1005 48.5146 18.4599 50.2139 18.4306 52.2793ZM34.4126 59.5156C33.0357 59.5156 31.9224 58.417 31.9517 57.0547C31.9224 55.707 33.0357 54.6084 34.4126 54.623C35.7163 54.6084 36.8443 55.707 36.8443 57.0547C36.8443 58.417 35.7163 59.5156 34.4126 59.5156ZM39.3497 55.502V52.0156L48.3146 38.041H53.8517V51.957H56.547V55.502H53.8517V59.252H49.6622V55.502H39.3497ZM43.8029 51.957H49.7208V42.875H49.5157L43.8029 51.7812V51.957ZM61.49 52.8887C59.5827 52.8887 58.5544 51.5 58.5544 49.4961C58.5544 47.4834 59.6355 46.0859 61.49 46.0859C63.3972 46.0859 64.4167 47.4834 64.4255 49.4961C64.4167 51.5176 63.3708 52.8887 61.49 52.8887ZM60.3474 49.4961C60.3562 50.5947 60.7517 51.3154 61.49 51.3242C62.2458 51.3154 62.6238 50.5947 62.6325 49.4961C62.6238 48.3975 62.281 47.6504 61.49 47.6504C60.7429 47.6592 60.3562 48.415 60.3474 49.4961ZM60.3825 59.252L69.1364 46.5254H71.1052L62.3513 59.252H60.3825ZM67.1501 56.2812C67.1501 54.2686 68.2312 52.8799 70.0681 52.8711C71.9929 52.8799 73.0124 54.2686 73.0212 56.2812C73.0124 58.3027 71.9665 59.6738 70.0681 59.6738C68.1784 59.6738 67.1501 58.2852 67.1501 56.2812ZM68.9431 56.2812C68.9519 57.3799 69.3474 58.1094 70.0681 58.1094C70.8415 58.1094 71.2195 57.3799 71.2282 56.2812C71.2195 55.1826 70.8679 54.4355 70.0681 54.4531C69.3298 54.4443 68.9519 55.2002 68.9431 56.2812ZM75.1397 59.252V46.5254H80.1319C83.0235 46.5254 84.6847 48.3096 84.6847 50.8145C84.6847 53.3545 82.9972 55.1035 80.0616 55.1035H77.7764V59.252H75.1397ZM77.7764 52.9766H79.6397C81.2042 52.9766 81.9688 52.0977 81.96 50.8145C81.9688 49.5488 81.2042 48.6963 79.6397 48.6875H77.7764V52.9766Z" fill="#202020"/>
<path d="M66.5148 73.0502L51.8348 87.5002L51.7148 66.9102L66.5148 73.0502Z" fill="white"/>
<path d="M35.3097 15.7C35.3257 17.46 37.3097 19.268 40.3337 19.668L39.6297 21.076C37.2457 20.708 35.3417 19.524 34.4137 17.924C33.4857 19.524 31.5977 20.708 29.2297 21.076L28.5257 19.668C31.5177 19.268 33.5017 17.476 33.5177 15.7V14.964H35.3097V15.7ZM27.9817 23.7V22.292H40.8457V23.7H35.2457V28.628H33.5177V23.7H27.9817ZM47.9218 15.7V16.82H50.7698V14.548H52.4978V24.82H50.7698V21.268H47.9218V22.484H41.2978V15.7H47.9218ZM43.0258 21.108H46.2258V17.076H43.0258V21.108ZM43.1858 28.372V23.86H44.9458V26.964H52.8178V28.372H43.1858ZM47.9218 19.86H50.7698V18.26H47.9218V19.86ZM68.3465 16.436V17.812H56.6665V16.436H61.6265V14.708H63.3545V16.436H68.3465ZM56.0905 27.156V25.748H59.2905V23.348C58.2825 22.884 57.7225 22.148 57.7225 21.204C57.7225 19.508 59.5465 18.516 62.4905 18.516C65.4345 18.516 67.2585 19.508 67.2585 21.204C67.2585 22.148 66.7145 22.868 65.7225 23.332V25.748H68.9865V27.156H56.0905ZM59.5145 21.204C59.4985 22.084 60.5865 22.548 62.4905 22.548C64.3785 22.548 65.4665 22.084 65.4665 21.204C65.4665 20.324 64.3785 19.86 62.4905 19.86C60.5865 19.86 59.4985 20.324 59.5145 21.204ZM61.0185 25.748H63.9945V23.796C63.5305 23.86 63.0345 23.892 62.4905 23.892C61.9625 23.892 61.4665 23.86 61.0185 23.812V25.748ZM75.2306 14.676C78.4306 14.66 80.2866 15.524 80.2866 17.076C80.2866 18.66 78.4306 19.508 75.2306 19.508C71.9986 19.508 70.1266 18.66 70.1106 17.076C70.1266 15.524 71.9986 14.66 75.2306 14.676ZM68.7986 21.556V20.18H81.6626V21.556H78.3026V22.676H80.0626V26.132H72.0306V27.188H80.4466V28.532H70.3026V24.916H78.3346V23.988H70.3026V22.676H72.1266V21.556H68.7986ZM71.9346 17.076C71.9346 17.86 73.0546 18.228 75.2306 18.228C77.3906 18.228 78.5106 17.86 78.4946 17.076C78.5106 16.356 77.3906 15.956 75.2306 15.956C73.0546 15.956 71.9346 16.356 71.9346 17.076ZM73.8226 22.676H76.5746V21.556H73.8226V22.676Z" fill="#202020"/>
</svg>
