<svg width="429" height="194" viewBox="0 0 429 194" fill="none" xmlns="http://www.w3.org/2000/svg">
<path d="M53.7744 151.322H428.513" stroke="#A6A5A3" stroke-width="0.5" stroke-dasharray="1.26 1.26"/>
<path d="M53.7744 107.873H428.513" stroke="#A6A5A3" stroke-width="0.5" stroke-dasharray="1.26 1.26"/>
<path d="M53.7744 64.4258H428.513" stroke="#A6A5A3" stroke-width="0.5" stroke-dasharray="1.26 1.26"/>
<path d="M53.7744 22.0645H428.513" stroke="#A6A5A3" stroke-width="0.5" stroke-dasharray="1.26 1.26"/>
<path d="M53.7744 2.33984C53.7744 1.23527 54.6698 0.339844 55.7744 0.339844H71.326C72.4306 0.339844 73.326 1.23527 73.326 2.33984V41.7878C73.326 42.8924 72.4306 43.7878 71.326 43.7878H55.7744C54.6698 43.7878 53.7744 42.8924 53.7744 41.7878V2.33984Z" fill="#C9C9C9" fill-opacity="0.4"/>
<path d="M111.342 131.598C111.342 130.493 112.237 129.598 113.342 129.598H131.066C132.17 129.598 133.066 130.493 133.066 131.598V171.046C133.066 172.15 132.17 173.046 131.066 173.046H113.342C112.237 173.046 111.342 172.15 111.342 171.046V131.598Z" fill="#648FFF" fill-opacity="0.3"/>
<path d="M303.006 131.799C303.006 130.694 303.901 129.799 305.006 129.799H327.075C328.179 129.799 329.075 130.694 329.075 131.799V171.247C329.075 172.351 328.179 173.247 327.075 173.247H305.006C303.901 173.247 303.006 172.351 303.006 171.247V131.799Z" fill="#648FFF" fill-opacity="0.3"/>
<path d="M198.238 131.598C198.238 130.493 199.134 129.598 200.238 129.598H232.083C233.187 129.598 234.083 130.493 234.083 131.598V171.046C234.083 172.15 233.187 173.046 232.083 173.046H200.238C199.134 173.046 198.238 172.15 198.238 171.046V131.598Z" fill="#648FFF" fill-opacity="0.3"/>
<path d="M73.3262 88.1484C73.3262 87.0439 74.2216 86.1484 75.3262 86.1484H109.343C110.448 86.1484 111.343 87.0439 111.343 88.1484V127.596C111.343 128.701 110.448 129.596 109.343 129.596H75.3262C74.2216 129.596 73.3262 128.701 73.3262 127.596V88.1484Z" fill="#AFC5FF" fill-opacity="0.3"/>
<path d="M167.825 88.1484C167.825 87.0439 168.721 86.1484 169.825 86.1484H196.239C197.343 86.1484 198.239 87.0439 198.239 88.1484V127.596C198.239 128.701 197.343 129.596 196.239 129.596H169.825C168.721 129.596 167.825 128.701 167.825 127.596V88.1484Z" fill="#AFC5FF" fill-opacity="0.3"/>
<path d="M272.102 88.1484C272.102 87.0439 272.997 86.1484 274.102 86.1484H300.515C301.62 86.1484 302.515 87.0439 302.515 88.1484V127.596C302.515 128.701 301.62 129.596 300.515 129.596H274.102C272.997 129.596 272.102 128.701 272.102 127.596V88.1484Z" fill="#AFC5FF" fill-opacity="0.3"/>
<path d="M328.583 88.1484C328.583 87.0439 329.478 86.1484 330.583 86.1484H354.824C355.929 86.1484 356.824 87.0439 356.824 88.1484V127.596C356.824 128.701 355.929 129.596 354.824 129.596H330.583C329.478 129.596 328.583 128.701 328.583 127.596V88.1484Z" fill="#AFC5FF" fill-opacity="0.3"/>
<path d="M391.583 88.1484C391.583 87.0439 392.478 86.1484 393.583 86.1484H426.514C427.618 86.1484 428.514 87.0439 428.514 88.1484V127.596C428.514 128.701 427.618 129.596 426.514 129.596H393.583C392.478 129.596 391.583 128.701 391.583 127.596V88.1484Z" fill="#AFC5FF" fill-opacity="0.3"/>
<path d="M133.066 88.1484C133.066 87.0439 133.962 86.1484 135.066 86.1484H141.928C143.033 86.1484 143.928 87.0439 143.928 88.1484V127.596C143.928 128.701 143.033 129.596 141.928 129.596H135.066C133.962 129.596 133.066 128.701 133.066 127.596V88.1484Z" fill="#AFC5FF" fill-opacity="0.3"/>
<path d="M234.083 88.1484C234.083 87.0439 234.978 86.1484 236.083 86.1484H242.945C244.05 86.1484 244.945 87.0439 244.945 88.1484V127.596C244.945 128.701 244.05 129.596 242.945 129.596H236.083C234.978 129.596 234.083 128.701 234.083 127.596V88.1484Z" fill="#AFC5FF" fill-opacity="0.3"/>
<path d="M8.03387 145.388C8.0242 148.608 5.82462 150.691 2.19409 151.552L1.56564 150.343C4.5242 149.71 6.15818 148.298 6.39022 146.616H2.2231V145.388H8.03387ZM3.25763 156.739V155.511H4.93028V153.07H3.36398V151.88H11.7901V153.07H10.219V155.511H11.9158V156.739H3.25763ZM6.4144 155.511H8.72033V153.07H6.4144V155.511ZM10.0836 151.271V144.59H11.6112V151.271H10.0836ZM23.9502 150.962V152.175H12.6912V150.962H23.9502ZM13.8611 147.472C13.8562 145.91 15.6111 144.967 18.3134 144.977C21.0061 144.967 22.7609 145.91 22.7609 147.472C22.7609 149.043 21.0061 150 18.3134 150.005C15.6111 150 13.8562 149.043 13.8611 147.472ZM14.0786 156.695V153.089H15.6062V155.463H22.6788V156.695H14.0786ZM15.437 147.472C15.4274 148.313 16.5151 148.767 18.3134 148.767C20.1118 148.767 21.1995 148.313 21.1995 147.472C21.1995 146.659 20.1118 146.19 18.3134 146.186C16.5151 146.19 15.4274 146.659 15.437 147.472ZM28.4479 146.688C28.4431 148.192 29.4245 149.652 31.3872 150.266L30.6282 151.479C29.2359 151.034 28.2449 150.121 27.6986 148.985C27.1475 150.251 26.113 151.266 24.6579 151.759L23.8651 150.541C25.8761 149.898 26.9058 148.322 26.9107 146.693V146.572H24.3002V145.349H31.0053V146.572H28.4479V146.688ZM25.8036 156.782V152.291H33.785V156.782H25.8036ZM27.3022 155.554H32.2815V153.495H27.3022V155.554ZM32.2573 151.779V144.581H33.785V147.476H35.5108V148.719H33.785V151.779H32.2573Z" fill="#5CBBFF"/>
<path d="M4.85293 101.525C6.72379 101.53 8.11605 102.69 8.12089 104.319C8.11605 105.948 6.72379 107.099 4.85293 107.104C2.96274 107.099 1.56564 105.948 1.57047 104.319C1.56564 102.69 2.96274 101.53 4.85293 101.525ZM3.04975 104.319C3.04009 105.271 3.80873 105.871 4.85293 105.871C5.88746 105.871 6.64644 105.271 6.64644 104.319C6.64644 103.376 5.88746 102.777 4.85293 102.782C3.80873 102.777 3.04009 103.376 3.04975 104.319ZM3.43166 109.095V107.911H11.6354V111.14H4.94962V112.131H12.0076V113.335H3.47033V110.019H10.1223V109.095H3.43166ZM10.1126 107.37V101.133H11.6354V107.37H10.1126ZM22.4419 101.143V104.706H24.1677V105.963H22.4419V110.231H20.9143V101.143H22.4419ZM13.1118 108.225V102.023H14.6152V103.908H17.4964V102.023H19.0144V108.225H13.1118ZM14.5234 113.248V109.313H16.0365V112.015H22.9253V113.248H14.5234ZM14.6152 107.021H17.4964V105.083H14.6152V107.021ZM28.4479 103.241C28.4431 104.745 29.4245 106.204 31.3872 106.818L30.6282 108.032C29.2359 107.587 28.2449 106.673 27.6986 105.537C27.1475 106.804 26.113 107.819 24.6579 108.312L23.8651 107.094C25.8761 106.451 26.9058 104.875 26.9107 103.246V103.125H24.3002V101.902H31.0053V103.125H28.4479V103.241ZM25.8036 113.335V108.844H33.785V113.335H25.8036ZM27.3022 112.107H32.2815V110.048H27.3022V112.107ZM32.2573 108.332V101.133H33.785V104.029H35.5108V105.271H33.785V108.332H32.2573Z" fill="#A1B4E5"/>
<path d="M12.2302 15.3047V27.6641H10.7673V21.3477H9.60515V27.1035H8.18328V15.5508H9.60515V20.1172H10.7673V15.3047H12.2302ZM4.40984 16.7949C4.40984 19.6523 4.06804 22.373 2.41375 24.7246L1.22429 24.0273C2.5573 22.209 3.01531 20.3018 3.12469 18.0117H1.60711V16.7949H4.40984ZM7.33562 16.7949C7.33562 19.7207 7.1032 22.9062 5.33953 25.4902L4.1364 24.834C5.61297 22.7627 5.94793 20.4521 6.00945 18.0117H4.79265V16.7949H7.33562ZM16.0674 16.2207C17.7422 16.2207 18.9795 17.6152 19.1982 19.8711H21.5498V15.3184H23.0537V27.6914H21.5498V21.1016H19.2119C19.0479 23.4873 17.79 24.957 16.0674 24.957C14.208 24.957 12.8955 23.2754 12.8955 20.582C12.8955 17.916 14.208 16.2207 16.0674 16.2207ZM16.0674 17.5879C15.042 17.5879 14.3447 18.6953 14.3584 20.582C14.3447 22.4824 15.042 23.5898 16.0674 23.5898C17.0928 23.5898 17.7764 22.4824 17.79 20.582C17.7764 18.6953 17.0928 17.5879 16.0674 17.5879ZM33.7816 15.332V18.0117H35.5179V19.2695H33.7816V22.291H32.264V15.332H33.7816ZM33.7816 22.8926V27.5137H25.7835V22.8926H33.7816ZM27.2738 24.082V26.3105H32.2913V24.082H27.2738ZM26.098 15.9336V20.2812C27.6839 20.2676 29.3519 20.124 31.1566 19.7754L31.3343 21.0195C29.2835 21.4297 27.3831 21.5391 25.5921 21.5391H24.5667V15.9336H26.098Z" fill="#CECECE"/>
<path d="M5.95623 68.8223V58.9217H9.65927C11.9362 58.9217 13.1496 60.198 13.1496 62.0881C13.1496 63.4321 12.5357 64.4279 11.3658 64.8969L13.5122 68.8223H11.5205L9.57709 65.1917H7.7304V68.8223H5.95623ZM7.7304 63.7125H9.39822C10.7325 63.7125 11.3319 63.142 11.3319 62.0881C11.3319 61.0343 10.7325 60.4107 9.38855 60.4107H7.7304V63.7125ZM13.936 68.8223V58.9217H20.3656V60.4203H15.7102V63.1178H20.0272V64.6116H15.7102V67.3236H20.3994V68.8223H13.936ZM21.328 58.9217H23.5082L26.4523 66.1151H26.5683L29.5172 58.9217H31.6974V68.8223H29.9861V62.0108H29.8943L27.1484 68.7933H25.8722L23.1215 61.9866H23.0393V68.8223H21.328V58.9217Z" fill="#5EE9E4"/>
<path d="M378.966 182.087V191.712H377.988V186.695H376.796V191.239H375.829V182.27H376.796V185.857H377.988V182.087H378.966ZM374.744 183.172V189.177H371.006V183.172H374.744ZM371.973 183.978V188.36H373.788V183.978H371.973ZM387.243 187.211V188.027H380.54V182.882H387.147V183.709H381.572V185.009H386.943V185.814H381.572V187.211H387.243ZM388.243 189.66V190.498H379.434V189.66H388.243ZM398.138 182.087V187.039H397.117V184.568H395.087V183.741H397.117V182.087H398.138ZM398.138 187.49V189.886H392.863V190.777H398.471V191.594H391.864V189.112H397.128V188.296H391.843V187.49H398.138ZM393.497 183.236C393.497 184.461 394.378 185.6 395.828 186.062L395.291 186.856C394.233 186.491 393.433 185.766 393.014 184.848C392.589 185.879 391.762 186.69 390.629 187.082L390.081 186.266C391.585 185.782 392.477 184.59 392.487 183.236V182.398H393.497V183.236ZM406.888 182.087V187.812H405.867V185.374H404.074V184.536H405.867V182.087H406.888ZM403.665 188.081C405.685 188.081 406.92 188.747 406.92 189.896C406.92 191.046 405.685 191.701 403.665 191.712C401.646 191.701 400.4 191.046 400.41 189.896C400.4 188.747 401.646 188.081 403.665 188.081ZM403.665 188.876C402.258 188.876 401.42 189.241 401.42 189.896C401.42 190.541 402.258 190.917 403.665 190.906C405.073 190.917 405.91 190.541 405.91 189.896C405.91 189.241 405.073 188.876 403.665 188.876ZM402.312 183.784C402.312 185.009 403.182 186.19 404.632 186.685L404.106 187.49C403.026 187.114 402.231 186.346 401.818 185.396C401.393 186.475 400.55 187.34 399.401 187.759L398.864 186.942C400.357 186.427 401.27 185.127 401.27 183.795V183.58H399.186V182.753H404.374V183.58H402.312V183.784ZM418.319 187.157V187.995H409.543V187.157H413.421V186.223C411.616 186.121 410.488 185.422 410.488 184.289C410.488 183.097 411.831 182.366 413.926 182.355C416.01 182.366 417.363 183.097 417.363 184.289C417.363 185.422 416.225 186.121 414.431 186.223V187.157H418.319ZM417.331 190.681V191.508H410.649V188.715H411.681V190.681H417.331ZM413.926 183.183C412.454 183.183 411.53 183.602 411.541 184.289C411.53 185.02 412.454 185.417 413.926 185.417C415.397 185.417 416.31 185.02 416.31 184.289C416.31 183.602 415.397 183.183 413.926 183.183ZM426.092 186.523V187.34H423.181V189.692H427.102V190.53H418.293V189.692H422.171V187.34H419.389V182.828H426.006V183.655H420.409V186.523H426.092Z" fill="#E6E6E6"/>
<path d="M338.83 188.799H361.64" stroke="#FF5C5C" stroke-width="2" stroke-linecap="round" stroke-linejoin="round" stroke-dasharray="2.1 5"/>
</svg>
