<svg width="136" height="239" viewBox="0 0 136 239" fill="none" xmlns="http://www.w3.org/2000/svg">
<g filter="url(#filter0_d_1284_178006)">
<path d="M26 170.41C26 156.418 33.086 143.339 44.666 135.647V49.509C44.666 36.6895 55.1333 26.2598 68.001 26.2598C80.8667 26.2598 91.334 36.6895 91.334 49.509V135.647C102.914 143.339 110 156.418 110 170.41C110 193.486 91.1589 212.26 67.999 212.26C44.8411 212.258 26 193.484 26 170.41ZM54 49.509V138.231C54 139.896 53.1078 141.432 51.6593 142.264C41.5897 148.033 35.332 158.818 35.332 170.41C35.332 188.358 49.9862 202.959 67.999 202.959C86.0118 202.959 100.666 188.358 100.666 170.41C100.666 158.818 94.4103 148.033 84.3387 142.264C82.8901 141.434 81.9979 139.896 81.9979 138.231V49.509C81.9979 41.8161 75.7176 35.5582 67.9969 35.5582C60.2763 35.5582 53.9959 41.8161 53.9959 49.509H54Z" fill="white"/>
</g>
<circle cx="68" cy="169.152" r="21" fill="#52A3FF"/>
<rect x="62" y="90.1523" width="13" height="80" rx="6.5" fill="#52A3FF"/>
<defs>
<filter id="filter0_d_1284_178006" x="0" y="0.259766" width="136" height="238" filterUnits="userSpaceOnUse" color-interpolation-filters="sRGB">
<feFlood flood-opacity="0" result="BackgroundImageFix"/>
<feColorMatrix in="SourceAlpha" type="matrix" values="0 0 0 0 0 0 0 0 0 0 0 0 0 0 0 0 0 0 127 0" result="hardAlpha"/>
<feMorphology radius="4" operator="dilate" in="SourceAlpha" result="effect1_dropShadow_1284_178006"/>
<feOffset/>
<feGaussianBlur stdDeviation="11"/>
<feComposite in2="hardAlpha" operator="out"/>
<feColorMatrix type="matrix" values="0 0 0 0 0 0 0 0 0 0 0 0 0 0 0 0 0 0 0.28 0"/>
<feBlend mode="normal" in2="BackgroundImageFix" result="effect1_dropShadow_1284_178006"/>
<feBlend mode="normal" in="SourceGraphic" in2="effect1_dropShadow_1284_178006" result="shape"/>
</filter>
</defs>
</svg>
