<svg width="72" height="69" viewBox="0 0 72 69" fill="none" xmlns="http://www.w3.org/2000/svg">
<mask id="path-1-outside-1_1284_129506" maskUnits="userSpaceOnUse" x="0" y="-0.442383" width="72" height="70" fill="black">
<rect fill="white" y="-0.442383" width="72" height="70"/>
<path d="M70.9991 34.4657C70.9991 33.7928 70.4357 33.247 69.7412 33.247H61.9211L69.4056 27.2436C69.9408 26.8141 70.0158 26.0459 69.5725 25.5274C69.1291 25.0088 68.3361 24.9362 67.8009 25.3657L57.9759 33.247H45.5977C45.3718 31.5716 44.6894 30.0333 43.6734 28.7556L52.4373 20.265L65.1221 19.1035C65.8138 19.04 66.3218 18.4452 66.2562 17.775C66.1906 17.1048 65.5795 16.6126 64.8849 16.6762L55.2287 17.5607L60.7476 12.2139C61.2387 11.738 61.2387 10.9661 60.7476 10.4903C60.2564 10.0145 59.4597 10.0145 58.9686 10.4903L53.429 15.8571L54.3363 6.46746C54.401 5.79729 53.893 5.2034 53.2012 5.13984C52.5085 5.07627 51.8965 5.56936 51.8309 6.23953L50.6405 18.5587L41.8934 27.033C40.5737 26.0486 38.9868 25.3875 37.2574 25.1687V13.1764L45.3924 3.65783C45.8358 3.13932 45.7608 2.37107 45.2256 1.94155C44.6904 1.51202 43.8974 1.58467 43.454 2.10319L37.2565 9.35428V1.77627C37.2565 1.10338 36.6932 0.557617 35.9986 0.557617C35.304 0.557617 34.7407 1.10338 34.7407 1.77627V9.35246L28.5441 2.10137C28.1007 1.58285 27.3087 1.5102 26.7726 1.93973C26.2373 2.36926 26.1624 3.1375 26.6057 3.65602L34.7407 13.1746V25.1668C33.0114 25.3857 31.4235 26.0468 30.1047 27.0312L21.3577 18.5569L20.1673 6.23772C20.1026 5.56755 19.4924 5.07445 18.7969 5.13802C18.1052 5.20068 17.5971 5.79548 17.6618 6.46565L18.5691 15.8553L13.0296 10.4885C12.5384 10.0126 11.7417 10.0126 11.2505 10.4885C10.7594 10.9643 10.7594 11.7362 11.2505 12.212L16.7695 17.5589L7.1132 16.6744C6.42146 16.6117 5.80751 17.103 5.7419 17.7732C5.67629 18.4433 6.18432 19.0381 6.87606 19.1017L19.5608 20.2632L28.3248 28.7538C27.3087 30.0324 26.6263 31.5698 26.4004 33.2452H14.0616L4.21032 25.3203C3.67605 24.8899 2.88214 24.9616 2.43879 25.4792C1.9945 25.9968 2.06854 26.766 2.60282 27.1955L10.1229 33.2452H2.25788C1.56333 33.2452 1 33.791 1 34.4639C1 35.1368 1.56333 35.6825 2.25788 35.6825H10.0311L2.5822 41.6405C2.04605 42.0691 1.97013 42.8374 2.41254 43.3568C2.66093 43.6492 3.02086 43.7999 3.38361 43.7999C3.66574 43.7999 3.94975 43.7082 4.18408 43.5212L13.9828 35.6834H26.4004C26.6263 37.3589 27.3087 38.8972 28.3248 40.1748L19.5608 48.6655L6.87606 49.8269C6.18432 49.8905 5.67629 50.4853 5.7419 51.1555C5.80377 51.7866 6.35116 52.2597 6.99322 52.2597C7.03259 52.2597 7.0729 52.2579 7.1132 52.2542L16.7695 51.3698L11.2505 56.7166C10.7594 57.1924 10.7594 57.9643 11.2505 58.4402C11.4961 58.6781 11.8185 58.797 12.14 58.797C12.4615 58.797 12.784 58.6781 13.0296 58.4402L18.5691 53.0733L17.6618 62.463C17.5971 63.1332 18.1052 63.7271 18.7969 63.7906C18.8372 63.7943 18.8766 63.7961 18.9159 63.7961C19.558 63.7961 20.1063 63.322 20.1673 62.6909L21.3577 50.3718L30.1047 41.8975C31.4245 42.8819 33.0114 43.5429 34.7407 43.7618V55.7922L26.6507 65.2853C26.2083 65.8048 26.2842 66.573 26.8204 67.0016C27.0547 67.1887 27.3387 67.2804 27.6208 67.2804C27.9836 67.2804 28.3435 67.1297 28.5919 66.8373L34.7416 59.6207V67.1515C34.7416 67.8244 35.305 68.3701 35.9995 68.3701C36.6941 68.3701 37.2574 67.8244 37.2574 67.1515V59.5308L43.5018 66.8164C43.7502 67.107 44.1092 67.2568 44.4701 67.2568C44.7532 67.2568 45.0381 67.1651 45.2734 66.9753C45.8076 66.5449 45.8817 65.7766 45.4374 65.259L37.2574 55.715V43.7609C38.9868 43.542 40.5746 42.8809 41.8943 41.8966L50.6414 50.3709L51.8318 62.69C51.8927 63.322 52.4411 63.7952 53.0831 63.7952C53.1225 63.7952 53.1619 63.7933 53.2022 63.7897C53.8939 63.7271 54.4019 63.1332 54.3373 62.4621L53.4299 53.0724L58.9695 58.4392C59.2151 58.6772 59.5375 58.7961 59.859 58.7961C60.1805 58.7961 60.503 58.6772 60.7485 58.4392C61.2397 57.9634 61.2397 57.1915 60.7485 56.7157L55.2296 51.3689L64.8859 52.2533C64.9262 52.257 64.9665 52.2588 65.0058 52.2588C65.647 52.2588 66.1953 51.7857 66.2572 51.1545C66.3228 50.4844 65.8147 49.8896 65.123 49.826L52.4383 48.6646L43.6743 40.1739C44.6904 38.8953 45.3727 37.3579 45.5986 35.6825H57.9769L67.8019 43.5638C68.0371 43.7518 68.3211 43.8435 68.6033 43.8435C68.9651 43.8435 69.3241 43.6928 69.5734 43.4022C70.0168 42.8837 69.9418 42.1154 69.4066 41.6859L61.9221 35.6816H69.7421C70.4367 35.6816 71 35.1359 71 34.463L70.9991 34.4657ZM35.9995 41.408C32.0478 41.408 28.8337 38.2933 28.8337 34.4657C28.8337 30.6381 32.0487 27.5233 35.9995 27.5233C39.9503 27.5233 43.1653 30.6381 43.1653 34.4657C43.1653 38.2933 39.9503 41.408 35.9995 41.408Z"/>
</mask>
<path d="M70.9991 34.4657C70.9991 33.7928 70.4357 33.247 69.7412 33.247H61.9211L69.4056 27.2436C69.9408 26.8141 70.0158 26.0459 69.5725 25.5274C69.1291 25.0088 68.3361 24.9362 67.8009 25.3657L57.9759 33.247H45.5977C45.3718 31.5716 44.6894 30.0333 43.6734 28.7556L52.4373 20.265L65.1221 19.1035C65.8138 19.04 66.3218 18.4452 66.2562 17.775C66.1906 17.1048 65.5795 16.6126 64.8849 16.6762L55.2287 17.5607L60.7476 12.2139C61.2387 11.738 61.2387 10.9661 60.7476 10.4903C60.2564 10.0145 59.4597 10.0145 58.9686 10.4903L53.429 15.8571L54.3363 6.46746C54.401 5.79729 53.893 5.2034 53.2012 5.13984C52.5085 5.07627 51.8965 5.56936 51.8309 6.23953L50.6405 18.5587L41.8934 27.033C40.5737 26.0486 38.9868 25.3875 37.2574 25.1687V13.1764L45.3924 3.65783C45.8358 3.13932 45.7608 2.37107 45.2256 1.94155C44.6904 1.51202 43.8974 1.58467 43.454 2.10319L37.2565 9.35428V1.77627C37.2565 1.10338 36.6932 0.557617 35.9986 0.557617C35.304 0.557617 34.7407 1.10338 34.7407 1.77627V9.35246L28.5441 2.10137C28.1007 1.58285 27.3087 1.5102 26.7726 1.93973C26.2373 2.36926 26.1624 3.1375 26.6057 3.65602L34.7407 13.1746V25.1668C33.0114 25.3857 31.4235 26.0468 30.1047 27.0312L21.3577 18.5569L20.1673 6.23772C20.1026 5.56755 19.4924 5.07445 18.7969 5.13802C18.1052 5.20068 17.5971 5.79548 17.6618 6.46565L18.5691 15.8553L13.0296 10.4885C12.5384 10.0126 11.7417 10.0126 11.2505 10.4885C10.7594 10.9643 10.7594 11.7362 11.2505 12.212L16.7695 17.5589L7.1132 16.6744C6.42146 16.6117 5.80751 17.103 5.7419 17.7732C5.67629 18.4433 6.18432 19.0381 6.87606 19.1017L19.5608 20.2632L28.3248 28.7538C27.3087 30.0324 26.6263 31.5698 26.4004 33.2452H14.0616L4.21032 25.3203C3.67605 24.8899 2.88214 24.9616 2.43879 25.4792C1.9945 25.9968 2.06854 26.766 2.60282 27.1955L10.1229 33.2452H2.25788C1.56333 33.2452 1 33.791 1 34.4639C1 35.1368 1.56333 35.6825 2.25788 35.6825H10.0311L2.5822 41.6405C2.04605 42.0691 1.97013 42.8374 2.41254 43.3568C2.66093 43.6492 3.02086 43.7999 3.38361 43.7999C3.66574 43.7999 3.94975 43.7082 4.18408 43.5212L13.9828 35.6834H26.4004C26.6263 37.3589 27.3087 38.8972 28.3248 40.1748L19.5608 48.6655L6.87606 49.8269C6.18432 49.8905 5.67629 50.4853 5.7419 51.1555C5.80377 51.7866 6.35116 52.2597 6.99322 52.2597C7.03259 52.2597 7.0729 52.2579 7.1132 52.2542L16.7695 51.3698L11.2505 56.7166C10.7594 57.1924 10.7594 57.9643 11.2505 58.4402C11.4961 58.6781 11.8185 58.797 12.14 58.797C12.4615 58.797 12.784 58.6781 13.0296 58.4402L18.5691 53.0733L17.6618 62.463C17.5971 63.1332 18.1052 63.7271 18.7969 63.7906C18.8372 63.7943 18.8766 63.7961 18.9159 63.7961C19.558 63.7961 20.1063 63.322 20.1673 62.6909L21.3577 50.3718L30.1047 41.8975C31.4245 42.8819 33.0114 43.5429 34.7407 43.7618V55.7922L26.6507 65.2853C26.2083 65.8048 26.2842 66.573 26.8204 67.0016C27.0547 67.1887 27.3387 67.2804 27.6208 67.2804C27.9836 67.2804 28.3435 67.1297 28.5919 66.8373L34.7416 59.6207V67.1515C34.7416 67.8244 35.305 68.3701 35.9995 68.3701C36.6941 68.3701 37.2574 67.8244 37.2574 67.1515V59.5308L43.5018 66.8164C43.7502 67.107 44.1092 67.2568 44.4701 67.2568C44.7532 67.2568 45.0381 67.1651 45.2734 66.9753C45.8076 66.5449 45.8817 65.7766 45.4374 65.259L37.2574 55.715V43.7609C38.9868 43.542 40.5746 42.8809 41.8943 41.8966L50.6414 50.3709L51.8318 62.69C51.8927 63.322 52.4411 63.7952 53.0831 63.7952C53.1225 63.7952 53.1619 63.7933 53.2022 63.7897C53.8939 63.7271 54.4019 63.1332 54.3373 62.4621L53.4299 53.0724L58.9695 58.4392C59.2151 58.6772 59.5375 58.7961 59.859 58.7961C60.1805 58.7961 60.503 58.6772 60.7485 58.4392C61.2397 57.9634 61.2397 57.1915 60.7485 56.7157L55.2296 51.3689L64.8859 52.2533C64.9262 52.257 64.9665 52.2588 65.0058 52.2588C65.647 52.2588 66.1953 51.7857 66.2572 51.1545C66.3228 50.4844 65.8147 49.8896 65.123 49.826L52.4383 48.6646L43.6743 40.1739C44.6904 38.8953 45.3727 37.3579 45.5986 35.6825H57.9769L67.8019 43.5638C68.0371 43.7518 68.3211 43.8435 68.6033 43.8435C68.9651 43.8435 69.3241 43.6928 69.5734 43.4022C70.0168 42.8837 69.9418 42.1154 69.4066 41.6859L61.9221 35.6816H69.7421C70.4367 35.6816 71 35.1359 71 34.463L70.9991 34.4657ZM35.9995 41.408C32.0478 41.408 28.8337 38.2933 28.8337 34.4657C28.8337 30.6381 32.0487 27.5233 35.9995 27.5233C39.9503 27.5233 43.1653 30.6381 43.1653 34.4657C43.1653 38.2933 39.9503 41.408 35.9995 41.408Z" fill="white"/>
<path d="M70.9991 34.4657C70.9991 33.7928 70.4357 33.247 69.7412 33.247H61.9211L69.4056 27.2436C69.9408 26.8141 70.0158 26.0459 69.5725 25.5274C69.1291 25.0088 68.3361 24.9362 67.8009 25.3657L57.9759 33.247H45.5977C45.3718 31.5716 44.6894 30.0333 43.6734 28.7556L52.4373 20.265L65.1221 19.1035C65.8138 19.04 66.3218 18.4452 66.2562 17.775C66.1906 17.1048 65.5795 16.6126 64.8849 16.6762L55.2287 17.5607L60.7476 12.2139C61.2387 11.738 61.2387 10.9661 60.7476 10.4903C60.2564 10.0145 59.4597 10.0145 58.9686 10.4903L53.429 15.8571L54.3363 6.46746C54.401 5.79729 53.893 5.2034 53.2012 5.13984C52.5085 5.07627 51.8965 5.56936 51.8309 6.23953L50.6405 18.5587L41.8934 27.033C40.5737 26.0486 38.9868 25.3875 37.2574 25.1687V13.1764L45.3924 3.65783C45.8358 3.13932 45.7608 2.37107 45.2256 1.94155C44.6904 1.51202 43.8974 1.58467 43.454 2.10319L37.2565 9.35428V1.77627C37.2565 1.10338 36.6932 0.557617 35.9986 0.557617C35.304 0.557617 34.7407 1.10338 34.7407 1.77627V9.35246L28.5441 2.10137C28.1007 1.58285 27.3087 1.5102 26.7726 1.93973C26.2373 2.36926 26.1624 3.1375 26.6057 3.65602L34.7407 13.1746V25.1668C33.0114 25.3857 31.4235 26.0468 30.1047 27.0312L21.3577 18.5569L20.1673 6.23772C20.1026 5.56755 19.4924 5.07445 18.7969 5.13802C18.1052 5.20068 17.5971 5.79548 17.6618 6.46565L18.5691 15.8553L13.0296 10.4885C12.5384 10.0126 11.7417 10.0126 11.2505 10.4885C10.7594 10.9643 10.7594 11.7362 11.2505 12.212L16.7695 17.5589L7.1132 16.6744C6.42146 16.6117 5.80751 17.103 5.7419 17.7732C5.67629 18.4433 6.18432 19.0381 6.87606 19.1017L19.5608 20.2632L28.3248 28.7538C27.3087 30.0324 26.6263 31.5698 26.4004 33.2452H14.0616L4.21032 25.3203C3.67605 24.8899 2.88214 24.9616 2.43879 25.4792C1.9945 25.9968 2.06854 26.766 2.60282 27.1955L10.1229 33.2452H2.25788C1.56333 33.2452 1 33.791 1 34.4639C1 35.1368 1.56333 35.6825 2.25788 35.6825H10.0311L2.5822 41.6405C2.04605 42.0691 1.97013 42.8374 2.41254 43.3568C2.66093 43.6492 3.02086 43.7999 3.38361 43.7999C3.66574 43.7999 3.94975 43.7082 4.18408 43.5212L13.9828 35.6834H26.4004C26.6263 37.3589 27.3087 38.8972 28.3248 40.1748L19.5608 48.6655L6.87606 49.8269C6.18432 49.8905 5.67629 50.4853 5.7419 51.1555C5.80377 51.7866 6.35116 52.2597 6.99322 52.2597C7.03259 52.2597 7.0729 52.2579 7.1132 52.2542L16.7695 51.3698L11.2505 56.7166C10.7594 57.1924 10.7594 57.9643 11.2505 58.4402C11.4961 58.6781 11.8185 58.797 12.14 58.797C12.4615 58.797 12.784 58.6781 13.0296 58.4402L18.5691 53.0733L17.6618 62.463C17.5971 63.1332 18.1052 63.7271 18.7969 63.7906C18.8372 63.7943 18.8766 63.7961 18.9159 63.7961C19.558 63.7961 20.1063 63.322 20.1673 62.6909L21.3577 50.3718L30.1047 41.8975C31.4245 42.8819 33.0114 43.5429 34.7407 43.7618V55.7922L26.6507 65.2853C26.2083 65.8048 26.2842 66.573 26.8204 67.0016C27.0547 67.1887 27.3387 67.2804 27.6208 67.2804C27.9836 67.2804 28.3435 67.1297 28.5919 66.8373L34.7416 59.6207V67.1515C34.7416 67.8244 35.305 68.3701 35.9995 68.3701C36.6941 68.3701 37.2574 67.8244 37.2574 67.1515V59.5308L43.5018 66.8164C43.7502 67.107 44.1092 67.2568 44.4701 67.2568C44.7532 67.2568 45.0381 67.1651 45.2734 66.9753C45.8076 66.5449 45.8817 65.7766 45.4374 65.259L37.2574 55.715V43.7609C38.9868 43.542 40.5746 42.8809 41.8943 41.8966L50.6414 50.3709L51.8318 62.69C51.8927 63.322 52.4411 63.7952 53.0831 63.7952C53.1225 63.7952 53.1619 63.7933 53.2022 63.7897C53.8939 63.7271 54.4019 63.1332 54.3373 62.4621L53.4299 53.0724L58.9695 58.4392C59.2151 58.6772 59.5375 58.7961 59.859 58.7961C60.1805 58.7961 60.503 58.6772 60.7485 58.4392C61.2397 57.9634 61.2397 57.1915 60.7485 56.7157L55.2296 51.3689L64.8859 52.2533C64.9262 52.257 64.9665 52.2588 65.0058 52.2588C65.647 52.2588 66.1953 51.7857 66.2572 51.1545C66.3228 50.4844 65.8147 49.8896 65.123 49.826L52.4383 48.6646L43.6743 40.1739C44.6904 38.8953 45.3727 37.3579 45.5986 35.6825H57.9769L67.8019 43.5638C68.0371 43.7518 68.3211 43.8435 68.6033 43.8435C68.9651 43.8435 69.3241 43.6928 69.5734 43.4022C70.0168 42.8837 69.9418 42.1154 69.4066 41.6859L61.9221 35.6816H69.7421C70.4367 35.6816 71 35.1359 71 34.463L70.9991 34.4657ZM35.9995 41.408C32.0478 41.408 28.8337 38.2933 28.8337 34.4657C28.8337 30.6381 32.0487 27.5233 35.9995 27.5233C39.9503 27.5233 43.1653 30.6381 43.1653 34.4657C43.1653 38.2933 39.9503 41.408 35.9995 41.408Z" stroke="white" stroke-width="0.6" mask="url(#path-1-outside-1_1284_129506)"/>
</svg>
