<svg width="40" height="41" viewBox="0 0 40 41" fill="none" xmlns="http://www.w3.org/2000/svg">
<path d="M14.5956 35.5449C14.5956 36.681 13.6726 37.5976 12.5429 37.5976C11.4133 37.5976 10.4902 36.681 10.4902 35.5449C10.4902 34.4088 11.4069 33.4922 12.5429 33.4922C13.679 33.4922 14.5956 34.4153 14.5956 35.5449Z" fill="black"/>
<path d="M12.9444 20.0469H12.002V34.2738H12.9444V20.0469Z" fill="black"/>
<path d="M10.2798 31.745C10.0216 31.745 9.80859 31.532 9.80859 31.2738V16.3626C9.80859 14.8973 11.0028 13.7031 12.4681 13.7031C13.9334 13.7031 15.1276 14.8973 15.1276 16.3626V31.2092C15.1276 31.4674 14.9145 31.6804 14.6563 31.6804C14.3981 31.6804 14.1851 31.4674 14.1851 31.2092V16.3626C14.1851 15.4137 13.417 14.6456 12.4681 14.6456C11.5192 14.6456 10.751 15.4137 10.751 16.3626V31.2738C10.751 31.532 10.538 31.745 10.2798 31.745Z" fill="black"/>
<path d="M14.2016 30.6172V31.6177C15.7249 32.2697 16.7965 33.7802 16.7965 35.5424C16.7965 37.892 14.8858 39.8027 12.5362 39.8027C10.1865 39.8027 8.27583 37.892 8.27583 35.5424C8.27583 33.8253 9.29572 32.3471 10.761 31.6758V30.6624C8.76641 31.3918 7.33984 33.3025 7.33984 35.5424C7.33984 38.4084 9.67657 40.7452 12.5426 40.7452C15.4087 40.7452 17.7454 38.4084 17.7454 35.5424C17.7454 33.2573 16.2607 31.3143 14.208 30.6172" fill="black"/>
<path d="M21.9593 14.7656H16.834V15.7081H21.9593V14.7656Z" fill="black"/>
<path d="M21.9593 22.5938H16.834V23.5362H21.9593V22.5938Z" fill="black"/>
<path d="M19.4095 17.3438H16.834V18.2862H19.4095V17.3438Z" fill="black"/>
<path d="M19.4095 19.9531H16.834V20.8956H19.4095V19.9531Z" fill="black"/>
<path d="M19.4095 25.1797H16.834V26.1221H19.4095V25.1797Z" fill="black"/>
<path d="M19.4095 27.8203H16.834V28.7627H19.4095V27.8203Z" fill="black"/>
<path d="M28.3316 20.5035C28.4671 20.5035 28.5962 20.5552 28.6931 20.6455C28.7963 20.7423 28.8544 20.8779 28.8544 21.0264V22.7692C29.9131 22.1495 31.8754 20.7617 32.9986 18.496C33.6505 17.2824 33.9668 16.0173 33.9475 14.7133V14.6036C33.9475 11.2728 31.2815 8.6004 27.9895 8.6004C24.6974 8.6004 22.0315 11.2728 22.0315 14.5649C22.0315 17.8569 24.7038 20.5293 27.9895 20.5293C28.054 20.5293 28.1186 20.5293 28.1831 20.5164H28.2993C28.2993 20.5164 28.3187 20.51 28.3251 20.51M28.3251 24.1635C28.2218 24.1635 28.125 24.1377 28.0411 24.0796C27.8926 23.9828 27.8087 23.8214 27.8087 23.6407V21.5686C24.0325 21.4718 20.9922 18.3669 20.9922 14.5649C20.9922 10.7628 24.1293 7.55469 27.9959 7.55469C31.8625 7.55469 34.9996 10.6983 34.9996 14.5584C34.9996 14.5971 34.9996 14.6359 34.9996 14.6746L34.4768 14.7004H34.9996C35.0255 16.1722 34.664 17.6181 33.9346 18.9737C32.1788 22.511 28.6931 24.0473 28.5446 24.1119C28.48 24.1377 28.409 24.1571 28.338 24.1571" fill="black"/>
<path d="M29.1225 16.6347C28.832 16.6347 28.5996 16.4023 28.5996 16.1118V10.4378C28.5996 10.2313 28.7223 10.0441 28.9095 9.96014C29.0966 9.87623 29.3161 9.9085 29.471 10.0441L31.9046 12.2194C32.1176 12.4131 32.137 12.7423 31.9433 12.9553C31.7497 13.1683 31.4205 13.1877 31.2074 12.994L29.6453 11.5997V16.1053C29.6453 16.3958 29.4129 16.6282 29.1225 16.6282" fill="black"/>
<path d="M26.5926 15.5692C26.0891 15.5692 25.6824 15.9758 25.6824 16.4793C25.6824 16.9828 26.0891 17.3895 26.5926 17.3895H27.7093C28.2128 17.3895 28.6195 16.9828 28.6195 16.4793C28.6195 15.9758 28.2128 15.5692 27.7093 15.5692H26.5926ZM27.7093 18.4352H26.5926C25.5146 18.4352 24.6367 17.5573 24.6367 16.4793C24.6367 15.4013 25.5146 14.5234 26.5926 14.5234H27.7093C28.7873 14.5234 29.6652 15.4013 29.6652 16.4793C29.6652 17.5573 28.7873 18.4352 27.7093 18.4352Z" fill="black"/>
</svg>
