<svg width="130" height="100" viewBox="0 0 130 100" fill="none" xmlns="http://www.w3.org/2000/svg">
<g clip-path="url(#clip0_110_12917)">
<path d="M120.351 38.1514C114.115 35.6275 106.558 38.1514 99.6324 45.1213C99.2215 45.5468 99.2215 46.2071 99.6324 46.618C100.043 47.0288 100.718 47.0288 101.129 46.618C107.512 40.191 114.056 37.8872 119.559 40.1176C124.196 41.9958 127.233 46.9408 127.307 52.7222C127.409 60.7926 121.848 68.0707 112.428 72.1646C108.657 73.808 105.296 75.4221 102.098 77.1829L103.418 78.8704C106.47 77.2123 109.684 75.6569 113.264 74.1015C123.492 69.6554 129.537 61.6437 129.42 52.6782C129.332 46.0457 125.781 40.3377 120.351 38.1367V38.1514Z" stroke="black" stroke-width="0.4" stroke-linecap="round" stroke-linejoin="round"/>
<path d="M107.937 38.225C108.744 37.7554 109.889 38.225 110.505 39.2815C111.121 40.338 110.945 41.5705 110.138 42.0401L102.508 46.4568C101.701 46.9264 100.556 46.4568 99.9399 45.4003C99.3236 44.3438 99.4997 43.1113 100.307 42.6417L107.937 38.225Z" fill="white"/>
<path d="M105.339 39.7369L104.693 40.1037C105.104 39.8689 105.618 39.8689 106.087 40.089L106.733 39.7222C106.249 39.5168 105.75 39.5021 105.339 39.7369Z" fill="#808080"/>
<path d="M107.394 40.1465L106.748 40.5133C106.939 40.6894 107.115 40.9095 107.262 41.159C107.863 42.2154 107.702 43.448 106.895 43.9176L107.54 43.5507C108.347 43.0812 108.509 41.8486 107.907 40.7921C107.761 40.5427 107.584 40.3372 107.394 40.1465Z" fill="#808080"/>
<path d="M109.256 40.0002C108.655 38.9437 107.496 38.4742 106.689 38.9437L106.043 39.3106C106.85 38.841 107.995 39.3106 108.611 40.3671C108.758 40.6312 108.86 40.8953 108.919 41.1594L109.565 40.7926C109.506 40.5285 109.403 40.2497 109.256 40.0002Z" fill="#808080"/>
<path d="M108.948 42.0114C108.875 42.4956 108.64 42.9065 108.244 43.1266L108.89 42.7597C109.286 42.5249 109.521 42.1141 109.594 41.6445L108.948 42.0114Z" fill="#808080"/>
<path d="M105.545 44.6949L106.191 44.3281C106.587 44.0933 106.822 43.6824 106.895 43.2129L106.249 43.5797C106.176 44.064 105.941 44.4748 105.545 44.6949Z" fill="#808080"/>
<path d="M106.557 41.5705C105.956 40.514 104.796 40.0445 103.989 40.514L103.344 40.8809C104.151 40.4113 105.31 40.8809 105.912 41.9374C106.058 42.2015 106.161 42.4656 106.22 42.7297L106.865 42.3629C106.807 42.0988 106.704 41.82 106.557 41.5705Z" fill="#808080"/>
<path d="M100.307 42.641C101.114 42.1714 102.258 42.641 102.875 43.6975C103.491 44.754 103.315 45.9866 102.508 46.4561" stroke="black" stroke-width="0.11" stroke-linecap="round" stroke-linejoin="round"/>
<path d="M107.937 38.225C108.744 37.7554 109.889 38.225 110.505 39.2815C111.121 40.338 110.945 41.5705 110.138 42.0401L102.508 46.4568C101.701 46.9264 100.556 46.4568 99.9399 45.4003C99.3236 44.3438 99.4997 43.1113 100.307 42.6417L107.937 38.225Z" stroke="black" stroke-width="0.4" stroke-linecap="round" stroke-linejoin="round"/>
<path d="M41.8775 59.3828C40.4688 60.2045 39.7645 61.2757 39.7938 62.3615V75.4063C39.7938 76.4481 40.4982 77.5046 41.8922 78.297L58.033 87.6147C60.3661 88.9646 63.9171 89.1114 66.2502 87.7467L108.304 63.4767C109.713 62.655 110.417 61.5838 110.388 60.498V47.4533C110.388 46.4114 109.684 45.3549 108.29 44.5626L92.1489 35.2449C89.8159 33.8949 86.2649 33.7482 83.9318 35.1128L41.8775 59.3828Z" fill="white"/>
<path d="M110.387 47.4531C110.387 48.5096 109.698 49.5661 108.304 50.3732L66.2493 74.6431C63.6228 76.1545 60.6587 76.0225 58.0175 74.4964L41.8766 65.1787C40.4826 64.3717 39.793 63.3152 39.793 62.2587" stroke="#939598" stroke-width="0.13" stroke-linecap="round" stroke-linejoin="round"/>
<path d="M110.387 51.416C110.387 52.4725 109.698 53.529 108.304 54.336L66.2493 78.606C63.7548 80.044 60.5266 79.912 58.0175 78.4593L41.8766 69.1416C40.4826 68.3346 39.793 67.2781 39.793 66.2216" stroke="#231F20" stroke-width="0.13" stroke-linecap="round" stroke-linejoin="round"/>
<path d="M41.8775 59.3828C40.4688 60.2045 39.7645 61.2757 39.7938 62.3615V75.4063C39.7938 76.4481 40.4982 77.5046 41.8922 78.297L58.033 87.6147C60.3661 88.9646 63.9171 89.1114 66.2502 87.7467L108.304 63.4767C109.713 62.655 110.417 61.5838 110.388 60.498V47.4533C110.388 46.4114 109.684 45.3549 108.29 44.5626L92.1489 35.2449C89.8159 33.8949 86.2649 33.7482 83.9318 35.1128L41.8775 59.3828Z" stroke="#231F20" stroke-width="0.4" stroke-linecap="round" stroke-linejoin="round"/>
<path d="M54.2185 59.7789L54.4239 58.4436L53.162 59.1772L52.6777 58.8984L54.6733 57.7539L55.1135 58.0034L54.9081 59.2946L56.1407 58.5903L56.6102 58.8691L54.6146 60.0136L54.2185 59.7789Z" fill="#BCBEC0"/>
<path d="M63.7858 65.2964L63.9912 63.9611L62.7293 64.6948L62.2598 64.416L64.2407 63.2715L64.6956 63.5209L64.4901 64.8269L65.708 64.1079L66.1776 64.3867L64.1967 65.5312L63.7858 65.2964Z" fill="#BCBEC0"/>
<path d="M58.1657 62.0539L57.7695 61.8338L58.9141 60.2051L59.413 60.4839L58.5766 61.5991L60.4988 61.1148L60.983 61.3936L58.1657 62.0539Z" fill="#BCBEC0"/>
<path d="M61.1743 61.4961L61.6585 61.7749L59.6629 62.9194L59.1934 62.6553L61.1743 61.4961Z" fill="#BCBEC0"/>
<path d="M56.8163 59.6765L56.332 59.3977C56.5081 59.3243 56.7576 59.2656 57.007 59.2656C57.3592 59.2656 57.638 59.3683 57.9461 59.5591C58.2689 59.7499 58.4744 59.9259 58.4744 60.1167C58.4744 60.2634 58.401 60.4395 58.1515 60.5862L56.8749 61.3199L56.4054 61.0411L56.5815 60.9384C56.5815 60.9384 56.4054 60.9384 56.1266 60.8797C55.9065 60.8357 55.7304 60.7477 55.5397 60.6449C55.3049 60.5129 55.2609 60.3808 55.2315 60.2341C55.2022 60.0873 55.3049 59.9406 55.4956 59.8379C55.7157 59.7058 55.9212 59.6325 56.2293 59.6912C56.5081 59.7352 56.7429 59.8526 57.0364 60.0286L57.6086 60.3515C57.8581 60.2047 57.9901 59.97 57.6086 59.7499C57.3445 59.6031 57.0364 59.6178 56.8016 59.6765M56.7576 60.2341C56.4788 60.0727 56.1706 59.9846 56.0092 60.102C55.7598 60.2634 55.9799 60.4102 56.0826 60.4689C56.332 60.6156 56.5668 60.689 56.7722 60.7036C56.9923 60.7036 57.1391 60.6303 57.2858 60.5422C57.2858 60.5422 56.8896 60.3074 56.7722 60.2488" fill="#BCBEC0"/>
<path d="M61.2475 63.5067C60.9247 63.316 60.9394 63.0812 61.1888 62.9051C61.1888 62.9051 61.2328 62.8758 61.2768 62.8464L62.8616 63.7562C63.2284 63.5508 63.4192 63.3307 63.4632 63.1106C63.5072 62.8758 63.3458 62.6557 63.0083 62.4502C62.7002 62.2742 62.348 62.1861 61.9518 62.2008C61.5556 62.2008 61.2182 62.3035 60.9247 62.4796C60.5872 62.6704 60.4258 62.8758 60.4258 63.1106C60.4258 63.3307 60.5872 63.5214 60.8953 63.6975C61.1741 63.8589 61.4823 63.9469 61.8344 63.9616C62.0986 63.9616 62.3627 63.9323 62.5975 63.8589L62.1279 63.5801C61.8491 63.6535 61.5263 63.6241 61.2622 63.4774M62.6708 62.6703C62.9936 62.8611 62.979 63.0959 62.7295 63.272L61.629 62.641C61.9372 62.4943 62.348 62.4943 62.6708 62.6703Z" fill="#BCBEC0"/>
<path d="M93.1768 43.0214C93.1768 43.3002 92.7953 43.535 92.3111 43.535C91.8268 43.535 91.4453 43.3002 91.4453 43.0214C91.4453 42.7426 91.8268 42.5078 92.3111 42.5078C92.7953 42.5078 93.1768 42.7426 93.1768 43.0214Z" fill="#231F20"/>
<path d="M107.277 45.1348C108.114 45.619 108.114 46.9396 107.277 47.4238L65.2231 71.6938C64.3133 72.2221 63.3449 72.4862 62.3324 72.4862C61.2319 72.4862 60.1314 72.178 59.0602 71.5471L42.9194 62.2294C41.9509 61.6718 41.9362 60.5126 42.9194 59.9403" stroke="#BCBEC0" stroke-width="0.13" stroke-linecap="round" stroke-linejoin="round"/>
<path d="M49.3333 79.8815L41.7031 84.2983C40.8961 84.7678 39.7368 84.2982 39.1352 83.2418C38.5189 82.1853 38.695 80.9527 39.5021 80.4831L47.1323 76.0664" fill="white"/>
<path d="M39.502 80.4828C40.309 80.0132 41.4682 80.4828 42.0698 81.5393C42.6861 82.5958 42.51 83.8284 41.703 84.2979" stroke="black" stroke-width="0.11" stroke-linecap="round" stroke-linejoin="round"/>
<path d="M47.1172 76.0668C47.9242 75.5972 49.0834 76.0668 49.6851 77.1233C50.3013 78.1798 50.1253 79.4123 49.3182 79.8819" stroke="black" stroke-width="0.4" stroke-linecap="round" stroke-linejoin="round"/>
<path d="M45.3709 82.1706C46.178 81.701 46.3394 80.4685 45.7378 79.412C45.1215 78.3555 43.977 77.8859 43.1699 78.3555L43.8156 77.9887C44.6226 77.5191 45.7818 77.9886 46.3834 79.0451C46.9997 80.1016 46.8236 81.3342 46.0166 81.8038L45.3709 82.1706Z" fill="#808080"/>
<path d="M44.0213 82.9479C44.8284 82.4784 44.9898 81.2458 44.3882 80.1893C43.7866 79.1328 42.6274 78.6633 41.8203 79.1328L42.4659 78.766C43.273 78.2964 44.4322 78.766 45.0338 79.8225C45.6501 80.879 45.474 82.1116 44.667 82.5811L44.0213 82.9479Z" fill="#808080"/>
<path d="M42.6717 83.7272C43.4788 83.2577 43.6402 82.0251 43.0386 80.9686C42.4223 79.9121 41.2777 79.4426 40.4707 79.9121L41.1163 79.5453C41.9234 79.0757 43.0826 79.5453 43.6842 80.6018C44.3005 81.6583 44.1244 82.8909 43.3174 83.3604L42.6717 83.7272Z" fill="#808080"/>
<path d="M49.3333 79.8815L41.7031 84.2983C40.8961 84.7678 39.7368 84.2982 39.1352 83.2418C38.5189 82.1853 38.695 80.9527 39.5021 80.4831L47.1323 76.0664" stroke="black" stroke-width="0.4" stroke-linecap="round" stroke-linejoin="round"/>
<path d="M102.92 78.4153C102.92 78.4153 102.891 78.4153 102.861 78.4153C96.3318 84.989 92.5166 87.2194 87.1608 89.3471C84.6223 90.3595 82.1865 90.1834 80.6604 88.9069C79.5306 87.9677 79.0464 86.5004 79.3398 85.0037C79.8827 82.2891 82.7001 79.9707 87.0581 78.6354C89.9341 77.755 93.0742 77.4468 96.1117 77.168C98.0045 76.992 99.9414 76.8012 101.82 76.4784C101.952 76.3463 102.084 76.1996 102.231 76.0675C102.627 75.6567 103.287 75.642 103.713 76.0529C104.123 76.449 104.138 77.08 103.742 77.5202C103.713 77.7256 103.624 77.9164 103.492 78.0778C103.346 78.2539 103.14 78.3713 102.891 78.43L102.92 78.4153ZM81.4088 85.4292C81.2621 86.1923 81.4675 86.8526 82.0104 87.3221C82.9495 88.0998 84.5783 88.1438 86.3978 87.4248C90.9906 85.6053 94.2628 83.7858 99.3398 78.9582C98.3274 79.0756 97.3149 79.1636 96.3318 79.2664C93.265 79.5598 90.3596 79.8386 87.6891 80.6603C84.725 81.5701 83.1549 82.744 82.3185 83.7124C81.6582 84.4755 81.4528 85.1211 81.3941 85.4439L81.4088 85.4292Z" fill="white" stroke="black" stroke-width="0.4" stroke-linecap="round" stroke-linejoin="round"/>
<path d="M99.3398 78.9577C99.648 78.9283 101.614 78.5762 101.614 78.5762L99.3398 78.9577Z" fill="white"/>
<path d="M99.3398 78.9577C99.648 78.9283 101.614 78.5762 101.614 78.5762" stroke="black" stroke-width="0.4" stroke-linecap="round" stroke-linejoin="round"/>
<path d="M126.515 72.7064C123.214 76.5215 117.491 78.1649 106.105 78.5758C105.004 78.6198 104.197 78.8252 103.449 79.2361C102.95 79.5149 102.304 79.3388 102.025 78.8399C101.776 78.3997 101.879 77.8568 102.245 77.5486C101.849 77.1378 101.849 76.4921 102.245 76.0813L102.906 75.4063C113.339 64.5332 123.639 63.0512 127.058 66.1767C128.438 67.4386 129.025 69.801 126.574 72.677C126.574 72.6917 126.545 72.7064 126.53 72.7357L126.515 72.7064ZM106.031 76.4775C118.401 76.0373 122.539 74.1004 124.931 71.3417C125.518 70.6374 126.868 68.8326 125.635 67.7027C123.258 65.5457 114.234 66.7049 104.608 76.6242C105.048 76.5362 105.518 76.4921 106.031 76.4775Z" fill="white" stroke="black" stroke-width="0.4" stroke-linecap="round" stroke-linejoin="round"/>
<path d="M104.607 76.6406C103.331 76.7433 101.761 77.4917 101.174 77.9172" stroke="black" stroke-width="0.4" stroke-linecap="round" stroke-linejoin="round"/>
<path d="M112.486 83.3757C113.264 82.9208 114.423 83.4784 115.069 84.5936C115.714 85.7088 115.612 86.9854 114.834 87.4402" stroke="black" stroke-width="0.4" stroke-linecap="round" stroke-linejoin="round"/>
<path d="M108.379 86.5012L109.626 87.5724L112.84 85.7088L111.578 84.6523L108.379 86.5012Z" stroke="#231F20" stroke-width="0.25" stroke-linecap="round" stroke-linejoin="round"/>
<path d="M102.715 89.6844C103.302 89.3469 104.168 89.7577 104.666 90.6088C105.151 91.4599 105.077 92.4136 104.49 92.7511" stroke="black" stroke-width="0.13" stroke-linecap="round" stroke-linejoin="round"/>
<path d="M103.359 89.2152C103.976 88.8631 104.885 89.2886 105.399 90.1837C105.913 91.0788 105.825 92.0766 105.208 92.4434" stroke="#808080" stroke-width="0.13" stroke-linecap="round" stroke-linejoin="round"/>
<path d="M103.99 88.7307C104.636 88.3492 105.604 88.8041 106.147 89.7432C106.69 90.6823 106.602 91.7388 105.956 92.1203" stroke="#808080" stroke-width="0.13" stroke-linecap="round" stroke-linejoin="round"/>
<path d="M104.652 88.2165C105.327 87.8204 106.354 88.3046 106.912 89.2877C107.47 90.2708 107.382 91.386 106.707 91.7822" stroke="#808080" stroke-width="0.13" stroke-linecap="round" stroke-linejoin="round"/>
<path d="M112.487 83.375L106.559 86.7939C106.236 86.97 102.714 89.6846 102.714 89.6846C102.127 90.0221 102.039 90.9906 102.538 91.8269C103.022 92.678 103.903 93.0889 104.49 92.7367C104.49 92.7367 108.598 91.0346 108.906 90.8438L114.834 87.4249" stroke="black" stroke-width="0.4" stroke-linecap="round" stroke-linejoin="round"/>
<path d="M80.9106 99.7066C77.6238 99.7066 76.2445 98.1953 75.7016 97.2268C74.6304 95.3339 75.0559 92.7954 76.8608 90.2422C79.9422 85.8988 88.849 80.0735 101.131 77.5056C101.732 77.3882 102.305 77.7697 102.437 78.3567C102.554 78.9583 102.173 79.5305 101.586 79.6626C90.4044 81.9957 81.5856 87.3955 78.6656 91.5188C77.389 93.309 77.0075 95.0404 77.6238 96.141C78.1961 97.1534 79.6341 97.6377 81.6737 97.4762C88.1007 96.9773 95.9217 94.3948 102.598 90.5797C103.126 90.2716 103.801 90.4623 104.095 90.9906C104.403 91.5188 104.212 92.1938 103.684 92.4872C96.7434 96.4638 88.5702 99.149 81.8351 99.6773C81.5123 99.7066 81.2041 99.7213 80.9106 99.7213V99.7066Z" fill="white" stroke="black" stroke-width="0.4" stroke-linecap="round" stroke-linejoin="round"/>
<path d="M104.27 79.9556C104.27 79.9556 104.314 79.9116 104.328 79.8823C104.622 79.4714 104.519 78.9138 104.108 78.6203C102.876 77.7546 102.45 76.8155 102.861 75.8177C103.052 75.3481 102.832 74.8199 102.362 74.6291C101.907 74.4384 101.379 74.6585 101.188 75.128C100.44 76.9329 101.129 78.7377 103.066 80.1024C103.448 80.3665 103.976 80.2931 104.27 79.9556Z" fill="white" stroke="black" stroke-width="0.4" stroke-linecap="round" stroke-linejoin="round"/>
<path d="M43.506 38.2091C31.5031 54.526 18.9425 62.3323 8.30423 61.2318C7.68794 61.1584 7.14502 61.6133 7.07165 62.2296C7.01296 62.8459 7.45316 63.3888 8.06945 63.4475C19.4708 64.6361 32.853 56.4629 45.2962 39.5444C57.3138 23.2127 64.7679 17.0645 70.9455 18.4145C71.5471 18.5466 72.134 18.165 72.2661 17.5634C72.3981 16.9618 72.0166 16.3602 71.415 16.2281C64.1956 14.6581 56.2719 20.8796 43.506 38.2091Z" fill="white"/>
<path d="M60.336 19.5879C55.0242 23.315 50.6222 28.5241 43.4908 38.2086C31.4879 54.5255 18.9274 62.3318 8.28906 61.2313" stroke="black" stroke-width="0.4" stroke-linecap="round" stroke-linejoin="round"/>
<path d="M8.07031 63.4479C19.4716 64.6365 32.8539 56.4633 45.297 39.5448C50.7409 32.1493 53.837 27.9967 58.0923 24.2109" stroke="black" stroke-width="0.4" stroke-linecap="round" stroke-linejoin="round"/>
<path d="M76.6102 22.231C76.6982 19.2963 74.8053 17.1099 71.4157 16.2295C70.8141 16.0681 70.2125 16.4349 70.0511 17.0366C69.9044 17.6382 70.2565 18.2398 70.8581 18.3865C73.2353 19.0028 74.4385 20.2647 74.3798 22.1576C74.2037 27.7629 65.2382 36.6404 43.5801 41.9962L43.9909 44.1826C67.1017 38.4746 76.4047 28.6873 76.6102 22.2163V22.231Z" fill="white"/>
<path d="M43.9902 44.1972C67.1157 38.4892 76.404 28.702 76.6095 22.2163C76.6975 19.2816 74.8046 17.0953 71.415 16.2148" stroke="black" stroke-width="0.4" stroke-linecap="round" stroke-linejoin="round"/>
<path d="M74.7601 6.94022C74.452 6.41198 73.8063 6.08916 73.2781 6.38263C64.6354 11.2396 61.2458 15.8177 56.7851 23.6974C51.8401 32.4281 48.9494 39.2073 38.9421 41.1882C10.5195 46.8228 3.21206 54.2183 3.44684 59.4127C3.54955 61.5257 5.10494 62.993 7.64346 63.3746L8.18638 61.2176C7.21793 61.1002 5.75058 60.6893 5.67721 59.3247C5.5158 55.715 11.5319 48.8918 39.3823 43.3892C50.3874 41.2029 53.5275 33.9835 58.7366 24.7979C63.0213 17.2117 66.3228 12.8683 74.3786 8.33421C74.9215 8.04074 75.0683 7.46847 74.7748 6.94022H74.7601Z" fill="white"/>
<path d="M8.30377 61.2322C7.34999 61.1295 5.75058 60.748 5.67721 59.3247C5.5158 55.715 11.5319 48.8918 39.3823 43.3892C50.3874 41.2029 53.5275 33.9835 58.7366 24.7979C63.0213 17.2117 66.3228 12.8683 74.3786 8.33421C74.9215 8.04074 75.0683 7.46847 74.7748 6.94022C74.4666 6.41198 73.821 6.08916 73.2928 6.38263C64.6501 11.2396 61.2605 15.8177 56.7997 23.6974C51.8548 32.4281 48.9641 39.2073 38.9567 41.1882C10.5195 46.8228 3.21206 54.2183 3.44684 59.4127C3.54955 61.5844 5.16364 63.0664 7.7902 63.4186" stroke="black" stroke-width="0.4" stroke-linecap="round" stroke-linejoin="round"/>
<path d="M70.8581 18.3848C73.2352 19.0011 74.4385 20.263 74.3798 22.1559C74.2037 27.7611 65.2529 36.6533 43.5801 42.0091" stroke="black" stroke-width="0.4" stroke-linecap="round" stroke-linejoin="round"/>
<path d="M16.595 92.6191C10.8577 92.6191 7.1453 90.374 4.95894 88.3344C1.83348 85.429 0.102009 81.2911 0.307438 77.2706C0.9384 65.0329 8.48058 54.8348 44.1079 41.8487C44.6801 41.6433 45.3111 41.9367 45.5165 42.509C45.722 43.0813 45.4285 43.7122 44.8562 43.9177C10.3735 56.5075 3.09541 66.06 2.50847 77.4026C2.33238 80.7775 3.81441 84.2698 6.47031 86.735C8.67134 88.7893 12.6625 91.0637 19.2509 90.2566C25.7366 89.4643 30.5202 87.454 39.7058 81.6433C40.2194 81.3205 40.8944 81.4672 41.2172 81.9808C41.54 82.4943 41.3933 83.1693 40.8797 83.5068C31.3713 89.523 26.3823 91.6066 19.5151 92.443C18.4879 92.5604 17.5195 92.6191 16.6097 92.6191H16.595Z" fill="white" stroke="black" stroke-width="0.4" stroke-linecap="round" stroke-linejoin="round"/>
<path d="M71.4162 16.2284C68.8484 15.6708 66.2071 16.0963 63.2871 17.6371" stroke="black" stroke-width="0.4" stroke-linecap="round" stroke-linejoin="round"/>
<path d="M59.9551 22.6416C64.2544 19.0026 67.7614 17.726 70.9309 18.4157" stroke="black" stroke-width="0.4" stroke-linecap="round" stroke-linejoin="round"/>
<path d="M44.768 45.6481C44.6066 45.6481 44.4305 45.604 44.2691 45.5307C43.7262 45.2519 43.5061 44.5916 43.7849 44.0486C43.9756 43.6818 44.0637 42.4786 43.5648 41.5101C43.2419 40.8938 42.7724 40.5417 42.1121 40.439C41.5105 40.3509 41.0996 39.7933 41.1877 39.1917C41.2757 38.5901 41.8333 38.1646 42.4349 38.2673C43.7849 38.4727 44.8854 39.2651 45.5163 40.4976C46.3381 42.0971 46.25 44.034 45.7364 45.0318C45.5457 45.4133 45.1495 45.6334 44.7533 45.6334L44.768 45.6481Z" fill="white" stroke="black" stroke-width="0.4" stroke-linecap="round" stroke-linejoin="round"/>
<path d="M93.2068 8.59822C93.2508 8.68626 93.3095 8.7743 93.3976 8.833L97.3447 12.2666C97.6822 12.5601 98.1958 12.5161 98.4893 12.1932C98.7828 11.8557 98.7387 11.3275 98.4012 11.0487L94.4541 7.6151C94.1166 7.32163 93.603 7.36565 93.3095 7.70314C93.0748 7.95259 93.0454 8.31943 93.2068 8.6129V8.59822Z" fill="white" stroke="#231F20" stroke-width="0.4" stroke-miterlimit="10"/>
<path d="M92.2977 14.3222C92.3417 14.4103 92.4004 14.4983 92.4885 14.5717L96.8025 18.3281C97.14 18.6216 97.6535 18.5922 97.947 18.24C98.2405 17.9026 98.1964 17.389 97.8736 17.0955L93.5596 13.3391C93.2221 13.0456 92.7086 13.0896 92.4004 13.4125C92.1803 13.6766 92.151 14.0287 92.2977 14.3222Z" fill="white" stroke="#231F20" stroke-width="0.4" stroke-miterlimit="10"/>
<path d="M95.4959 5.34166L91.1965 1.59991L83.8451 0.279297L72.8986 5.89925C71.2552 6.75032 72.9427 9.99316 74.5714 9.15677L76.2589 8.29104C77.8143 7.49867 78.7974 7.82148 80.6903 9.47959C81.424 10.1252 81.2332 11.2991 82.6419 12.6197L84.6521 14.2778C86.6477 15.8185 89.5531 16.1267 92.1503 14.7914C95.7893 12.9279 97.2567 8.6432 95.4812 5.32699" fill="white"/>
<path d="M73.8519 5.42969C72.3699 6.19271 74.0426 9.45023 75.5247 8.68721" stroke="#231F20" stroke-width="0.13" stroke-linecap="round" stroke-linejoin="round"/>
<path d="M74.9085 4.87305C73.4265 5.63607 75.0993 8.89359 76.5813 8.13057" stroke="#231F20" stroke-width="0.13" stroke-linecap="round" stroke-linejoin="round"/>
<path d="M76.3474 4.13867C74.9388 4.85767 75.9219 7.54293 77.5653 7.80705" stroke="#231F20" stroke-width="0.13" stroke-linecap="round" stroke-linejoin="round"/>
<path d="M90.3008 5.22497L90.9317 2.1582" stroke="#231F20" stroke-width="0.13" stroke-linecap="round" stroke-linejoin="round"/>
<path d="M82.4518 11.0058L79.8105 8.74609" stroke="#231F20" stroke-width="0.13" stroke-linecap="round" stroke-linejoin="round"/>
<path d="M84.3447 4.87305L90.3755 5.97356L92.2978 7.63167C93.6477 8.86424 93.6037 9.74465 92.7086 11.0212C92.0483 11.8723 91.1826 12.6207 90.1407 13.1489C87.5435 14.4842 84.6382 14.1761 82.6426 12.6207" stroke="#231F20" stroke-width="0.13" stroke-linecap="round" stroke-linejoin="round"/>
<path d="M89.2734 8.4375L90.6821 9.72877" stroke="#231F20" stroke-width="0.13" stroke-linecap="round" stroke-linejoin="round"/>
<path d="M90.3301 13.3965L91.7387 14.6878" stroke="#231F20" stroke-width="0.13" stroke-linecap="round" stroke-linejoin="round"/>
<path d="M88.0117 14.0586L89.4204 15.3499" stroke="#231F20" stroke-width="0.13" stroke-linecap="round" stroke-linejoin="round"/>
<path d="M84.3432 4.87306C83.0813 4.33014 82.2155 2.84811 82.3329 2.0264C82.4796 1.14599 82.9198 0.691107 83.8296 0.294922" stroke="#231F20" stroke-width="0.13" stroke-linecap="round" stroke-linejoin="round"/>
<path d="M95.4959 5.34166L91.1965 1.59991L83.8451 0.279297L72.8986 5.89925C71.2552 6.75032 72.9427 9.99316 74.5714 9.15677L76.2589 8.29104C77.8143 7.49867 78.7974 7.82148 80.6903 9.47959C81.424 10.1252 81.2332 11.2991 82.6419 12.6197L84.6521 14.2778C86.6477 15.8185 89.5531 16.1267 92.1503 14.7914C95.7893 12.9279 97.2567 8.6432 95.4812 5.32699" stroke="#231F20" stroke-width="0.4" stroke-linecap="round" stroke-linejoin="round"/>
<path d="M83.2871 11.4893L84.6224 12.7072C85.6789 13.529 87.1462 13.6463 88.5256 12.942C89.8315 12.267 90.6092 11.0198 90.6826 9.72852" stroke="#231F20" stroke-width="0.13" stroke-linecap="round" stroke-linejoin="round"/>
<path d="M78.5781 7.26458L83.0389 5.01953" stroke="#231F20" stroke-width="0.13" stroke-linecap="round" stroke-linejoin="round"/>
<path d="M83.2871 11.4896L89.2739 8.4375" stroke="#231F20" stroke-width="0.13" stroke-linecap="round" stroke-linejoin="round"/>
<path d="M83.2871 11.4896C84.3436 12.2086 85.7963 12.326 87.1169 11.651C88.4228 10.976 89.2005 9.72877 89.2739 8.4375" stroke="#231F20" stroke-width="0.13" stroke-linecap="round" stroke-linejoin="round"/>
</g>
<defs>
<clipPath id="clip0_110_12917">
<rect width="129.729" height="100" fill="white"/>
</clipPath>
</defs>
</svg>
