<svg width="130" height="100" viewBox="0 0 130 100" fill="none" xmlns="http://www.w3.org/2000/svg">
<g clip-path="url(#clip0_212_29270)">
<path d="M80.8932 6.14178C81.3719 5.85975 81.5963 5.28086 81.5514 4.61291L84.7673 2.77232C85.231 2.50514 85.2909 1.76297 84.902 1.09502C84.5131 0.441911 83.84 0.115356 83.3763 0.382537L80.1603 2.22312C79.5919 1.85203 78.9786 1.74813 78.4999 2.03015L76.3161 3.15825L73.3694 4.8504L71.7988 5.85975C71.4697 6.05272 71.2752 6.37927 71.1855 6.7652L67.8798 8.76906C67.2814 9.11046 67.2067 10.0901 67.7003 10.9362C68.1939 11.7971 69.0914 12.2127 69.6897 11.8713L73.1001 10.0307C73.489 10.1495 73.8779 10.1347 74.207 9.95653L75.8823 9.11046L78.829 7.41831L80.9082 6.11209L80.8932 6.14178Z" fill="white"/>
<path d="M71.812 5.87504L73.3826 4.86569L76.3293 3.17355L78.5132 2.04545C79.306 1.5853 80.4877 2.13451 81.1458 3.27745C81.804 4.40555 81.6993 5.69692 80.9065 6.15707L78.8273 7.46329L75.8806 9.15544L74.2053 10.0015C73.4125 10.4617 72.2308 9.89761 71.5727 8.76951C70.9145 7.64141 71.0192 6.35003 71.812 5.88989V5.87504Z" stroke="black" stroke-width="0.25" stroke-linecap="round" stroke-linejoin="round"/>
<path d="M73.4297 4.86958C74.2524 4.39459 75.464 4.97349 76.1371 6.13127C76.8102 7.28906 76.7055 8.62496 75.8828 9.09995" stroke="#808080" stroke-width="0.13" stroke-linecap="round" stroke-linejoin="round"/>
<path d="M74.2812 4.37739C75.1039 3.90241 76.3155 4.4813 76.9887 5.63908C77.6618 6.81171 77.5571 8.13278 76.7344 8.60776" stroke="#808080" stroke-width="0.13" stroke-linecap="round" stroke-linejoin="round"/>
<path d="M75.1328 3.88521C75.9555 3.41022 77.1671 3.98911 77.8402 5.1469C78.5133 6.31953 78.4086 7.64059 77.5859 8.11558" stroke="#808080" stroke-width="0.13" stroke-linecap="round" stroke-linejoin="round"/>
<path d="M72.5781 5.36177C73.4008 4.88678 74.6124 5.46567 75.2855 6.62346C75.9586 7.79609 75.8539 9.11715 75.0312 9.59214" stroke="#808080" stroke-width="0.13" stroke-linecap="round" stroke-linejoin="round"/>
<path d="M74.2058 9.97545C74.9986 9.51531 75.1033 8.23877 74.4451 7.09583C73.787 5.96773 72.6053 5.40368 71.8125 5.86383" stroke="#808080" stroke-width="0.13" stroke-linecap="round" stroke-linejoin="round"/>
<path d="M67.8954 8.78914C67.2971 9.13054 67.2223 10.1102 67.7159 10.9563C68.2095 11.8172 69.107 12.2328 69.7053 11.8914L73.6393 9.7688C74.2825 9.39772 74.3572 8.37352 73.8337 7.45323C73.3102 6.54779 72.3529 6.10248 71.7246 6.45873L67.9104 8.78914H67.8954Z" fill="white" stroke="black" stroke-width="0.13" stroke-linecap="round" stroke-linejoin="round"/>
<path d="M67.8945 8.7912C68.4929 8.4498 69.3754 8.86541 69.8839 9.72633C70.3776 10.5872 70.3028 11.5521 69.7044 11.8935" stroke="black" stroke-width="0.13" stroke-linecap="round" stroke-linejoin="round"/>
<path d="M82.6562 0.820037C83.1199 0.552856 83.808 0.879411 84.182 1.53252C84.5559 2.18563 84.4961 2.94264 84.0473 3.20982" stroke="black" stroke-width="0.13" stroke-linecap="round" stroke-linejoin="round"/>
<path d="M70.2891 7.36182C70.8724 7.00557 71.7699 7.42119 72.2785 8.29695C72.4729 8.63835 72.5776 8.99459 72.5926 9.33599" stroke="#808080" stroke-width="0.13" stroke-linecap="round" stroke-linejoin="round"/>
<path d="M69.4805 7.83838C70.0638 7.48214 70.9464 7.89775 71.4549 8.77351C71.6494 9.11491 71.7541 9.45631 71.769 9.78286" stroke="#808080" stroke-width="0.13" stroke-linecap="round" stroke-linejoin="round"/>
<path d="M68.6719 8.31463C69.2403 7.97324 70.1078 8.38885 70.6164 9.24977C70.8109 9.57632 70.9006 9.91772 70.9305 10.2443" stroke="#808080" stroke-width="0.13" stroke-linecap="round" stroke-linejoin="round"/>
<path d="M80.8939 6.14178C81.3726 5.85975 81.5969 5.28086 81.552 4.61291L84.768 2.77232C85.2317 2.50514 85.2915 1.76297 84.9026 1.09502C84.5137 0.441911 83.8406 0.115356 83.3769 0.382537L80.161 2.22312C79.5925 1.85203 78.9793 1.74813 78.5006 2.03015L71.8144 5.85975C71.4853 6.05272 71.2909 6.37927 71.2011 6.7652L67.8954 8.76906C67.2971 9.11046 67.2223 10.0901 67.7159 10.9362C68.2095 11.7971 69.107 12.2127 69.7053 11.8713L73.1157 10.0307C73.5046 10.1495 73.8935 10.1347 74.2226 9.95653L80.9089 6.12693L80.8939 6.14178Z" stroke="black" stroke-width="0.4" stroke-linecap="round" stroke-linejoin="round"/>
<path d="M38.4125 47.1695C38.0386 47.1695 37.6946 46.9765 37.5001 46.6351C37.2309 46.1453 37.4253 45.5219 37.9339 45.2695C53.6697 37.0315 61.4179 31.4503 71.0509 21.3865C78.485 13.6382 87.7739 10.8328 95.8662 13.8757C101.864 16.1319 105.873 21.2232 106.068 26.8489C106.292 33.3058 101.475 39.2728 92.8447 43.236C92.3212 43.4735 91.7229 43.236 91.4835 42.7462C91.2442 42.2415 91.4835 41.6329 91.9771 41.3954C99.9348 37.7588 104.198 32.623 104.003 26.9379C103.839 22.1435 100.354 17.7647 95.1183 15.7905C87.8188 13.0297 79.3526 15.657 72.5018 22.7966C62.6894 33.0386 54.8215 38.7088 38.8463 47.0656C38.6967 47.1398 38.5322 47.1843 38.3677 47.1843L38.4125 47.1695Z" stroke="black" stroke-width="0.4" stroke-linecap="round" stroke-linejoin="round"/>
<path d="M39.0395 40.135C27.4321 55.7948 15.2862 63.2907 4.99512 62.2368C4.3968 62.1775 3.87327 62.6079 3.79848 63.1868C3.73865 63.7806 4.17243 64.3001 4.77075 64.3595C15.7948 65.5024 28.7484 57.6502 40.7747 41.4116C52.397 25.7369 59.6068 19.8441 65.575 21.1206C66.1584 21.2394 66.7268 20.8831 66.8614 20.3042C66.9811 19.7253 66.6071 19.1465 66.0387 19.0277C59.0533 17.5285 51.3799 23.4807 39.0395 40.135Z" fill="white"/>
<path d="M55.3298 22.2656C50.1842 25.8429 45.9361 30.8451 39.0405 40.1371C27.4331 55.7969 15.2872 63.2928 4.99609 62.2389" stroke="black" stroke-width="0.4" stroke-linecap="round" stroke-linejoin="round"/>
<path d="M4.77344 64.3601C15.7975 65.503 28.7511 57.6508 40.7773 41.4122C46.0426 34.3022 49.0342 30.339 53.1626 26.6875" stroke="black" stroke-width="0.4" stroke-linecap="round" stroke-linejoin="round"/>
<path d="M64.7543 19.86C64.6346 20.4389 65.0085 21.003 65.5769 21.1366C67.9104 21.6413 69.107 22.8139 69.122 24.6248C69.1669 30.5028 59.2347 40.5072 34.0754 46.3258C15.2881 50.6749 3.77048 59.863 4.17435 66.8394C4.24914 68.2644 5.04191 70.6987 9.34981 71.1885C9.94813 71.2479 10.4717 70.8323 10.5465 70.2534C10.6063 69.6597 10.1875 69.1401 9.6041 69.0659C7.50998 68.8284 6.40309 68.0417 6.3283 66.7355C6.05905 62.045 14.974 52.9608 34.569 48.4188C61.1643 42.2587 71.3358 31.3785 71.2759 24.6248C71.246 21.8045 69.3464 19.771 66.0406 19.0585C65.4573 18.9249 64.8889 19.296 64.7543 19.8749" fill="white"/>
<path d="M9.61765 69.0543C7.52353 68.8168 6.41663 68.0301 6.34184 66.7239C6.0726 62.0334 15.0025 52.9492 34.5826 48.4071C61.1779 42.2471 71.3493 31.3669 71.2895 24.6132C71.2596 21.7929 69.3599 19.7594 66.0542 19.0469" stroke="black" stroke-width="0.4" stroke-linecap="round" stroke-linejoin="round"/>
<path d="M36.4668 47.9453C24.7696 64.8965 17.171 69.9135 9.61719 69.0526" stroke="black" stroke-width="0.4" stroke-linecap="round" stroke-linejoin="round"/>
<path d="M9.36328 71.1713C17.6949 72.1213 25.9966 67.2081 39.369 47.2734" stroke="black" stroke-width="0.4" stroke-linecap="round" stroke-linejoin="round"/>
<path d="M67.8484 9.59099C59.4869 14.2518 56.2111 18.6455 51.9032 26.2008C47.1166 34.5724 44.3195 41.0887 34.6417 42.9886C7.13391 48.3916 0.0737347 55.5016 0.298105 60.489C0.402811 62.6413 2.06315 64.096 4.77055 64.3631C5.35391 64.4374 5.8924 64.0069 5.95223 63.4132C6.01206 62.8194 5.57828 62.2999 4.99492 62.2405C4.06752 62.1515 2.52685 61.7804 2.45206 60.3999C2.30248 56.9414 8.10618 50.3955 35.0455 45.0964C45.6956 43.0035 48.7321 36.0716 53.758 27.2546C57.9163 19.9665 61.1024 15.7955 68.8805 11.4613C69.4041 11.1792 69.5536 10.63 69.2694 10.1254C68.9852 9.62068 68.357 9.30896 67.8335 9.59099" fill="white"/>
<path d="M4.99492 62.2249C4.06752 62.1358 2.52685 61.7648 2.45206 60.3843C2.30248 56.9258 8.10618 50.3799 35.0455 45.0808C45.6956 42.9879 48.7321 36.056 53.758 27.239C57.9163 19.9657 61.1024 15.7799 68.8805 11.4456C69.4041 11.1636 69.5537 10.6144 69.2694 10.1097C68.9852 9.60505 68.357 9.29334 67.8335 9.57536C59.472 14.2362 56.1962 18.6298 51.8882 26.1851C47.1017 34.5568 44.3045 41.0731 34.6267 42.973C7.13391 48.3909 0.0737348 55.5008 0.298105 60.4882C0.387853 62.5663 1.95844 63.9913 4.5013 64.3327" stroke="black" stroke-width="0.4" stroke-linecap="round" stroke-linejoin="round"/>
<path d="M65.5926 21.125C67.926 21.6297 69.1227 22.8023 69.1376 24.6132C69.1825 30.4912 59.2504 40.4956 34.091 46.3143C15.3187 50.6634 3.78609 59.8514 4.18996 66.8427C4.26475 68.2676 5.05752 70.702 9.36543 71.1918" stroke="black" stroke-width="0.4" stroke-linecap="round" stroke-linejoin="round"/>
<path d="M39.9368 49.4903C39.847 49.4903 39.7722 49.4606 39.6825 49.4309C39.2188 49.2528 38.9944 48.7333 39.1739 48.2879C39.6526 47.0856 39.4432 45.4974 38.6654 44.2357C38.2764 43.5974 37.379 42.5287 35.9131 42.3951C35.4195 42.3506 35.0605 41.9201 35.1053 41.4303C35.1502 40.9405 35.584 40.5842 36.0776 40.6288C37.723 40.7772 39.2188 41.7569 40.1911 43.3154C41.283 45.0521 41.5373 47.2192 40.8492 48.9559C40.6996 49.327 40.3257 49.5496 39.9368 49.52V49.4903Z" fill="white" stroke="black" stroke-width="0.4" stroke-linecap="round" stroke-linejoin="round"/>
<path d="M66.0398 19.0304C63.5568 18.496 60.9989 18.8968 58.1719 20.3811" stroke="black" stroke-width="0.4" stroke-linecap="round" stroke-linejoin="round"/>
<path d="M54.9688 25.188C59.1271 21.6998 62.5225 20.4678 65.5889 21.1209" stroke="black" stroke-width="0.4" stroke-linecap="round" stroke-linejoin="round"/>
<path d="M116.207 59.6562L114.547 60.6062" stroke="#808080" stroke-width="0.13" stroke-linecap="round" stroke-linejoin="round"/>
<path d="M118.363 60.9062L116.703 61.8562" stroke="#808080" stroke-width="0.13" stroke-linecap="round" stroke-linejoin="round"/>
<path d="M120.531 62.1328L118.871 63.0828" stroke="#808080" stroke-width="0.13" stroke-linecap="round" stroke-linejoin="round"/>
<path d="M122.699 63.3828L121.039 64.3328" stroke="#808080" stroke-width="0.13" stroke-linecap="round" stroke-linejoin="round"/>
<path d="M124.871 64.6172L123.211 65.5672" stroke="#808080" stroke-width="0.13" stroke-linecap="round" stroke-linejoin="round"/>
<path d="M128.207 66.5312L125.395 68.1492" stroke="#808080" stroke-width="0.13" stroke-linecap="round" stroke-linejoin="round"/>
<path d="M110.539 59.625C112.573 60.189 114.952 61.1539 117.644 62.6976C121.967 65.1764 124.779 67.6256 126.694 69.7927" stroke="black" stroke-width="0.25" stroke-linecap="round" stroke-linejoin="round"/>
<path d="M108.012 65.4593C108.012 64.3758 109.478 63.5 111.273 63.5C113.068 63.5 114.533 64.3758 114.533 65.4593C114.533 66.5429 113.068 67.4187 111.273 67.4187C109.478 67.4187 108.012 66.5429 108.012 65.4593Z" stroke="#B3B3B3" stroke-width="0.2" stroke-linecap="round" stroke-linejoin="round"/>
<path d="M109.626 60.7265L107.547 61.914L106.574 61.5578C106.335 61.4687 106.17 61.3945 106.096 61.3351C106.021 61.2758 106.006 61.2015 106.021 61.1273C106.051 61.0531 106.126 60.9789 106.245 60.9047C106.395 60.8156 106.574 60.7562 106.784 60.7414C106.993 60.7265 107.203 60.7414 107.427 60.8008C107.382 60.7414 107.352 60.6672 107.352 60.6078C107.352 60.5484 107.382 60.4445 107.427 60.3258L107.547 59.9844L108.1 60.1922L107.98 60.5781C107.935 60.7117 107.921 60.8008 107.921 60.8453C107.921 60.8898 107.935 60.9195 107.98 60.9492C108.01 60.9789 108.085 61.0086 108.19 61.0531L108.279 61.0828L109.147 60.5781L109.611 60.7414L109.626 60.7265ZM107.965 61.2461L107.621 61.1273C107.397 61.0531 107.247 60.9937 107.173 60.9937C107.098 60.9937 107.023 60.9937 106.948 60.9937C106.873 60.9937 106.814 61.0234 106.754 61.0679C106.679 61.1125 106.649 61.1422 106.649 61.1867C106.649 61.2312 106.679 61.2609 106.739 61.2906C106.769 61.3054 106.888 61.35 107.068 61.4242L107.427 61.5578L107.95 61.2609L107.965 61.2461Z" fill="#B3B3B3"/>
<path d="M119.949 66.0531L117.765 67.2703L117.316 67.0031L119.126 65.9937L118.004 65.3406L118.378 65.1328L119.949 66.0531Z" fill="#B3B3B3"/>
<path d="M110.538 59.6273L113.365 58.0391L128.203 66.5443V68.9341L126.678 69.795C128.129 71.4427 129.056 72.927 129.684 74.1145C129.266 74.3965 128.832 74.6637 128.368 74.916C119.677 79.8737 108.594 80.6604 100.89 76.3261C93.1868 71.977 94.533 64.1694 103.224 59.2117C104.36 58.8406 106.888 58.618 110.523 59.6273H110.538Z" stroke="black" stroke-width="0.4" stroke-linecap="round" stroke-linejoin="round"/>
<path d="M101.999 76.8911C102.343 75.6146 102.702 74.5458 102.957 73.7295C103.301 72.6904 103.151 72.0818 102.598 71.6514C101.88 71.1022 100.548 71.2061 99.3219 71.8592L97.168 73.0912C97.168 74.9912 99.651 76.906 101.999 76.906V76.8911Z" fill="white"/>
<path d="M99.8438 76.3828C100.532 76.6945 101.28 76.8875 102.013 76.8875" stroke="black" stroke-width="0.4" stroke-linecap="round" stroke-linejoin="round"/>
<path d="M97.375 74.0391C97.7789 74.989 98.7063 75.85 99.8281 76.3695" stroke="black" stroke-width="0.25" stroke-linecap="round" stroke-linejoin="round"/>
<path d="M97.1836 73.0703C97.1836 73.3969 97.2584 73.7234 97.393 74.0351" stroke="black" stroke-width="0.4" stroke-linecap="round" stroke-linejoin="round"/>
<path d="M99.8455 71.5781C99.666 71.6523 99.4865 71.7266 99.3219 71.8305L97.168 73.0625" stroke="black" stroke-width="0.25" stroke-linecap="round" stroke-linejoin="round"/>
<path d="M101.997 76.8892C102.341 75.5979 102.7 74.5291 102.969 73.7127C103.313 72.6589 103.164 72.0503 102.595 71.6198C101.967 71.1448 100.905 71.1448 99.8281 71.5753" stroke="black" stroke-width="0.13" stroke-linecap="round" stroke-linejoin="round"/>
<path d="M100.37 76.0874L94.9251 79.2194C94.3267 79.5608 93.4741 79.2194 93.0254 78.4475C92.5767 77.6757 92.6963 76.7702 93.2946 76.4288L98.7394 73.2969" fill="white"/>
<path d="M100.37 76.0874L94.9251 79.2194C94.3267 79.5608 93.4741 79.2194 93.0254 78.4475C92.5767 77.6757 92.6963 76.7702 93.2946 76.4288L98.7394 73.2969" stroke="black" stroke-width="0.4" stroke-linecap="round" stroke-linejoin="round"/>
<path d="M93.3086 76.4448C93.9069 76.1034 94.7446 76.4448 95.1933 77.2166C95.642 77.9885 95.5224 78.8791 94.9241 79.2205" stroke="black" stroke-width="0.13" stroke-linecap="round" stroke-linejoin="round"/>
<path d="M98.7383 73.2963C99.3366 72.9549 100.189 73.2963 100.638 74.0682C101.087 74.84 100.967 75.7455 100.369 76.0869" stroke="black" stroke-width="0.25" stroke-linecap="round" stroke-linejoin="round"/>
<path d="M97.9909 36.5279C98.8136 36.0529 99.9953 36.5279 100.609 37.5966C101.237 38.6653 101.057 39.9122 100.235 40.3872L93.4138 44.3058C92.5911 44.7808 91.4094 44.3058 90.7961 43.2371C90.1828 42.1684 90.3474 40.9215 91.1701 40.4465L97.9909 36.5279Z" fill="white"/>
<path d="M97.1539 42.1723C97.9765 41.6973 98.1411 40.4505 97.5278 39.3817C96.8996 38.313 95.7328 37.838 94.9102 38.313L95.5683 37.9419C96.391 37.4669 97.5727 37.9419 98.186 39.0107C98.8142 40.0794 98.6347 41.3262 97.812 41.8012L97.1539 42.1723Z" fill="#808080"/>
<path d="M95.775 42.9536C96.5976 42.4786 96.7622 41.2317 96.1489 40.163C95.5356 39.0943 94.3539 38.6193 93.5312 39.0943L94.1894 38.7232C95.0121 38.2482 96.1938 38.7232 96.8071 39.7919C97.4353 40.8606 97.2558 42.1075 96.4331 42.5825L95.775 42.9536Z" fill="#808080"/>
<path d="M94.4 43.7426C95.2226 43.2676 95.3872 42.0208 94.7739 40.9521C94.1457 39.8833 92.9789 39.4083 92.1562 39.8833L92.8144 39.5122C93.6371 39.0373 94.8188 39.5122 95.4321 40.581C96.0603 41.6497 95.8808 42.8965 95.0581 43.3715L94.4 43.7426Z" fill="#808080"/>
<path d="M97.9909 36.5279C98.8136 36.0529 99.9953 36.5279 100.609 37.5966C101.237 38.6653 101.057 39.9122 100.235 40.3872L93.4138 44.3058C92.5911 44.7808 91.4094 44.3058 90.7961 43.2371C90.1828 42.1684 90.3474 40.9215 91.1701 40.4465L97.9909 36.5279Z" stroke="black" stroke-width="0.4" stroke-linecap="round" stroke-linejoin="round"/>
<path d="M99.0515 42.8345C98.9318 42.6267 98.7822 42.404 98.5878 42.1962C98.2438 41.8251 97.795 41.4837 97.3612 41.2314L85.4247 34.4034C84.8563 34.0769 84.2431 33.8542 83.6148 33.7206C82.1639 33.4238 80.6083 33.6464 79.292 34.4034L42.6149 55.4068C41.867 55.8373 41.1939 56.5943 40.8798 57.3513C40.82 57.4849 40.7901 57.6185 40.7601 57.7521L33.6401 61.8192C32.6978 62.3684 31.9648 63.2738 31.9648 64.0754V67.5933C31.9648 70.6807 34.1637 72.8627 35.7343 73.7681L45.2924 79.2453C47.3267 80.4031 51.0812 80.3141 53.1005 79.1563L97.7501 53.596C100.338 52.1116 100.682 49.3211 100.682 47.6586V44.8977C100.682 44.0962 100.128 43.4431 99.0664 42.8196L99.0515 42.8345Z" fill="white"/>
<path d="M59.8759 66.5702L51.5443 71.3498C50.1981 72.1216 47.9843 72.1216 46.6381 71.3498L33.5798 63.8687C32.9216 63.4976 32.9216 62.325 33.6097 61.8203" stroke="#939598" stroke-width="0.13" stroke-linecap="round" stroke-linejoin="round"/>
<path d="M44.125 54.5325C43.1527 55.0817 42.1805 56.5066 43.1527 57.0559L55.508 64.1362C56.7196 64.8338 58.2005 64.8338 59.3971 64.1362L95.9096 43.2218C97.1511 42.5093 96.7622 41.0101 95.5207 40.3125" stroke="#939598" stroke-width="0.13" stroke-linecap="round" stroke-linejoin="round"/>
<path d="M100.606 44.5781C100.546 45.068 100.157 45.6172 99.6485 45.8992L51.5435 73.4337C50.1973 74.2056 47.9835 74.2056 46.6373 73.4337L32.8759 65.5519C32.2178 65.1808 31.9486 64.6464 31.9336 64.0675" stroke="#221E1F" stroke-width="0.13" stroke-linecap="round" stroke-linejoin="round"/>
<path d="M91.5889 40.7859L91.3944 41.9586L92.5163 41.3203L92.9351 41.5578L91.185 42.5671L90.7811 42.3445L90.9606 41.2015L89.8837 41.825L89.4648 41.5875L91.2149 40.5781L91.5889 40.7859Z" fill="#BCBEC0"/>
<path d="M83.0935 35.9344L82.914 37.107L84.0358 36.4687L84.4546 36.7062L82.6896 37.7156L82.3007 37.4929L82.4802 36.3648L81.4032 36.9734L80.9844 36.7359L82.7345 35.7266L83.0935 35.9344Z" fill="#BCBEC0"/>
<path d="M88.0722 38.7891L88.4312 38.9969L87.4141 40.4218L86.9653 40.1695L87.7282 39.1898L86.008 39.6203L85.5742 39.3828L88.0722 38.7891Z" fill="#BCBEC0"/>
<path d="M85.411 39.2781L84.9922 39.0406L86.7572 38.0312L87.1761 38.2687L85.411 39.2781Z" fill="#BCBEC0"/>
<path d="M89.2855 40.8765L89.7044 41.114C89.5548 41.1734 89.3304 41.2328 89.106 41.2328C88.7919 41.2328 88.5526 41.1437 88.2684 40.9804C87.9842 40.8172 87.8047 40.6687 87.8047 40.4906C87.8047 40.357 87.8645 40.2086 88.0889 40.075L89.2107 39.4219L89.6296 39.6594L89.465 39.7484C89.465 39.7484 89.6296 39.7484 89.8689 39.8078C90.0633 39.8523 90.2279 39.9266 90.3924 40.0156C90.6018 40.1344 90.6467 40.2531 90.6617 40.3719C90.6916 40.4906 90.5869 40.6242 90.4223 40.7281C90.2279 40.8468 90.0484 40.9062 89.7791 40.8617C89.5249 40.8172 89.3154 40.7133 89.0612 40.5648L88.5675 40.2828C88.3432 40.4164 88.2235 40.6093 88.5675 40.8023C88.8069 40.9359 89.0761 40.9211 89.2855 40.8765ZM89.3304 40.3867C89.5847 40.5203 89.8539 40.6093 90.0035 40.5054C90.2129 40.3719 90.0334 40.2383 89.9437 40.1789C89.7193 40.0453 89.5099 39.9859 89.3304 39.9711C89.136 39.9711 89.0013 40.0305 88.8667 40.1195C88.8667 40.1195 89.2107 40.3273 89.3304 40.3867Z" fill="#BCBEC0"/>
<path d="M85.3501 37.5258C85.6344 37.689 85.6343 37.8969 85.41 38.0601C85.41 38.0601 85.3651 38.0898 85.3352 38.1047L83.9291 37.3031C83.6001 37.4812 83.4355 37.6742 83.3906 37.8672C83.3458 38.075 83.4954 38.2679 83.7945 38.4461C84.0787 38.6093 84.3779 38.6836 84.7219 38.6687C85.0659 38.6687 85.3651 38.5797 85.6343 38.4312C85.9335 38.2531 86.0831 38.075 86.0681 37.882C86.0681 37.689 85.9335 37.5258 85.6493 37.3625C85.395 37.2141 85.1258 37.1398 84.8266 37.125C84.5873 37.125 84.3629 37.1398 84.1535 37.2141L84.5723 37.4516C84.8117 37.3922 85.1108 37.407 85.3352 37.5406M84.0937 38.2531C83.8095 38.0898 83.8095 37.882 84.0338 37.7187L85.0061 38.2828C84.7369 38.4164 84.3779 38.4164 84.0787 38.2531" fill="#BCBEC0"/>
<path d="M99.0515 42.8345C98.9318 42.6267 98.7822 42.404 98.5878 42.1962C98.2437 41.8251 97.795 41.4837 97.3612 41.2314L85.4247 34.4034C84.8563 34.0769 84.2431 33.8542 83.6148 33.7206C82.1639 33.4238 80.6083 33.6464 79.292 34.4034L42.6149 55.4068C41.867 55.8373 41.1939 56.5943 40.8798 57.3513C40.82 57.4849 40.7901 57.6185 40.7601 57.7521L33.6401 61.8192C32.6978 62.3684 31.9648 63.2738 31.9648 64.0754V67.5933C31.9648 70.6807 34.1637 72.8627 35.7343 73.7681L45.2924 79.2453C47.3267 80.4031 51.0812 80.3141 53.1005 79.1563L97.7501 53.596C100.338 52.1116 100.682 49.3211 100.682 47.6586V44.8977C100.682 44.0962 100.128 43.4431 99.0664 42.8196L99.0515 42.8345Z" stroke="#221E1F" stroke-width="0.4" stroke-linecap="round" stroke-linejoin="round"/>
<path d="M40.731 57.7536C40.5964 58.377 40.731 58.9707 41.3593 59.327L54.7916 67.0158C56.1079 67.7729 57.7233 67.7729 59.0247 67.0158L98.6484 44.3351C99.3066 43.964 99.3365 43.4 99.0373 42.8359" stroke="#221E1F" stroke-width="0.25" stroke-linecap="round" stroke-linejoin="round"/>
<path d="M38.7112 75.1249L31.8903 79.0436C31.0677 79.5186 29.886 79.0436 29.2727 77.9748C28.6594 76.9061 28.824 75.6593 29.6466 75.1843L36.4675 71.2656" fill="white"/>
<path d="M29.6484 75.1841C30.4711 74.7091 31.6528 75.1841 32.2661 76.2528C32.8943 77.3216 32.7148 78.5684 31.8921 79.0434" stroke="black" stroke-width="0.11" stroke-linecap="round" stroke-linejoin="round"/>
<path d="M36.4688 71.2622C37.2914 70.7873 38.4731 71.2622 39.0864 72.331C39.6997 73.3997 39.5351 74.6465 38.7125 75.1215" stroke="black" stroke-width="0.4" stroke-linecap="round" stroke-linejoin="round"/>
<path d="M35.6304 76.891C36.4531 76.4161 36.6176 75.1692 36.0044 74.1005C35.3761 73.0318 34.2094 72.5568 33.3867 73.0318L34.0449 72.6607C34.8676 72.1857 36.0492 72.6607 36.6625 73.7294C37.2908 74.7981 37.1113 76.045 36.2886 76.52L35.6304 76.891Z" fill="#808080"/>
<path d="M34.2554 77.6723C35.0781 77.1973 35.2426 75.9505 34.6294 74.8817C34.0161 73.813 32.8344 73.338 32.0117 73.813L32.6699 73.4419C33.4926 72.9669 34.6742 73.4419 35.2875 74.5107C35.9158 75.5794 35.7363 76.8262 34.9136 77.3012L34.2554 77.6723Z" fill="#808080"/>
<path d="M32.8765 78.477C33.6992 78.002 33.8637 76.7552 33.2505 75.6864C32.6222 74.6177 31.4555 74.1427 30.6328 74.6177L31.291 74.2466C32.1137 73.7716 33.2953 74.2466 33.9086 75.3153C34.5369 76.3841 34.3574 77.6309 33.5347 78.1059L32.8765 78.477Z" fill="#808080"/>
<path d="M38.7112 75.1249L31.8903 79.0436C31.0677 79.5186 29.886 79.0436 29.2727 77.9748C28.6594 76.9061 28.824 75.6593 29.6466 75.1843L36.4675 71.2656" stroke="black" stroke-width="0.4" stroke-linecap="round" stroke-linejoin="round"/>
<path d="M33.3571 96.8546C30.2309 96.8546 28.1068 96.1569 26.7307 95.3851C24.128 93.9453 22.6322 91.4516 22.6173 88.5126C22.6023 84.5791 25.1601 80.5862 29.1689 78.3152C29.6326 78.048 30.0813 78.6714 30.2309 78.9386C30.3805 79.2058 30.6796 79.8886 30.2309 80.1558C26.8952 82.0409 24.7413 85.3213 24.7562 88.4977C24.7562 90.6649 25.8332 92.4609 27.7778 93.5297C30.5749 95.0882 39.43 97.285 60.8798 84.2525C61.3884 83.9408 62.0316 84.1041 62.3457 84.6088C62.6449 85.1135 62.4953 85.7517 61.9867 86.0634C48.0459 94.5242 39.0411 96.8397 33.3721 96.8397L33.3571 96.8546Z" fill="white" stroke="black" stroke-width="0.4" stroke-linecap="round" stroke-linejoin="round"/>
<path d="M61.6285 85.5292C61.4191 85.5292 61.2097 85.4699 61.0452 85.3511C60.4469 85.366 59.9682 84.9355 59.9233 84.3715C59.8934 83.7926 60.3272 83.2879 60.9106 83.2434C61.105 83.2434 61.3144 83.2137 61.5089 83.1988C63.0047 81.9668 64.4257 80.6012 65.8168 79.2653C68.0605 77.113 70.364 74.9014 72.9518 73.2686C76.8707 70.7897 80.5355 70.1515 83.0035 71.5171C84.3647 72.2741 85.1724 73.61 85.1575 75.0943C85.1425 77.113 83.6617 79.0872 81.1936 80.3786C76.0032 83.1098 71.7551 84.5644 62.3316 85.2621C62.3316 85.2621 62.3017 85.2917 62.2867 85.2917C62.0922 85.4402 61.8529 85.5292 61.6285 85.5292ZM80.0269 72.9272C78.7106 72.9272 76.766 73.3725 74.1035 75.0498C71.6953 76.5638 69.5563 78.6122 67.2976 80.7793C66.5647 81.477 65.8317 82.1895 65.0689 82.8871C72.1739 82.1449 75.7489 80.8387 80.2064 78.4935C81.9714 77.5732 83.0185 76.2818 83.0334 75.0498C83.0334 74.3225 82.6595 73.7287 81.9714 73.3428C81.6872 73.1795 81.044 72.9123 80.0269 72.9123V72.9272Z" fill="white" stroke="black" stroke-width="0.4" stroke-linecap="round" stroke-linejoin="round"/>
<path d="M65.0677 82.8984C64.8434 83.1211 63.2578 84.3976 63.2578 84.3976L65.0677 82.8984Z" fill="white"/>
<path d="M65.0677 82.8984C64.8434 83.1211 63.2578 84.3976 63.2578 84.3976" stroke="black" stroke-width="0.4" stroke-linecap="round" stroke-linejoin="round"/>
<path d="M42.1813 99.705C38.3221 99.705 36.8861 97.7012 36.8263 95.816C36.6767 91.1404 44.6344 84.1937 59.9663 83.3031L60.9236 83.2437C61.507 83.214 62.0006 83.6296 62.0604 84.2085C62.5391 84.1343 63.0327 84.4163 63.2122 84.8913C63.4067 85.4405 63.1225 86.0491 62.584 86.242C61.7762 86.5389 61.0732 87.0287 60.3103 87.8451C52.4574 96.3356 47.4016 99.6605 42.256 99.6902H42.1813V99.705ZM59.8018 85.4405C45.7263 86.3311 38.8456 92.506 38.9653 95.7567C39.0251 97.4488 41.3286 97.5972 42.256 97.5972C45.9806 97.5676 50.2287 95.6676 58.7547 86.435C59.0987 86.0491 59.4577 85.7225 59.8167 85.4405H59.8018Z" fill="white" stroke="black" stroke-width="0.4" stroke-linecap="round" stroke-linejoin="round"/>
<path d="M62.8096 85.8725C62.3758 85.8725 61.9719 85.6053 61.8074 85.1749C61.6129 84.6256 61.8971 84.0171 62.4356 83.8241C63.2284 83.5421 64.0361 83.3936 65.0233 83.2749C66.1901 83.1265 67.6111 83.1116 69.2415 83.1116C74.8657 83.0671 83.3768 83.0077 93.0995 77.2188C93.6081 76.9219 94.2513 77.0852 94.5654 77.575C94.8646 78.0797 94.7 78.718 94.2064 79.0297C83.9901 85.1155 75.135 85.1749 69.2714 85.2194C67.7008 85.2194 66.3396 85.2342 65.2926 85.3678C64.44 85.4717 63.7818 85.5905 63.1685 85.8131C63.0489 85.8577 62.9292 85.8725 62.8096 85.8725Z" fill="white" stroke="black" stroke-width="0.4" stroke-linecap="round" stroke-linejoin="round"/>
<path d="M59.7891 85.4211C60.7165 84.5008 62.3319 83.7883 63.0499 83.625" stroke="black" stroke-width="0.4" stroke-linecap="round" stroke-linejoin="round"/>
<path d="M62.5858 87.3355C62.5858 87.3355 62.526 87.3355 62.496 87.3355C61.9875 87.2909 61.6135 86.8456 61.6734 86.341C61.8229 84.8269 61.3742 83.877 60.3271 83.5504C59.8485 83.3871 59.5792 82.8824 59.7438 82.3926C59.9083 81.9176 60.4169 81.6504 60.9105 81.8137C62.7952 82.4223 63.7525 84.1441 63.5132 86.5191C63.4683 86.9941 63.0645 87.3503 62.6008 87.3503L62.5858 87.3355Z" fill="white" stroke="black" stroke-width="0.4" stroke-linecap="round" stroke-linejoin="round"/>
</g>
<defs>
<clipPath id="clip0_212_29270">
<rect width="130" height="100" fill="white"/>
</clipPath>
</defs>
</svg>
