<svg width="40" height="40" viewBox="0 0 40 40" fill="none" xmlns="http://www.w3.org/2000/svg">
<path d="M31.5455 21.7387L32.466 14.375L29.3978 11H10.0682L7 14.375C7.20455 18.6705 9.05174 27.9439 12.8296 32.4773C14.3637 34.3182 18.0455 37.0796 18.6591 37.3864" stroke="#222222" stroke-width="1.5" stroke-linecap="round" stroke-linejoin="round"/>
<path d="M17.125 28.4894C17.125 32.9348 20.7483 36.5689 22.6915 38.0008C20.4824 32.8462 21.9756 30.9439 22.9983 30.6371C22.6915 31.8644 24.1819 34.9326 26.3296 34.0121C28.8821 32.9182 26.8847 29.2053 26.0665 28.1826C27.0483 28.1826 28.1705 28.4894 29.1347 29.4098C31.3845 31.5576 29.8506 35.853 29.1347 37.6939C31.3438 35.4848 32.3052 33.7053 32.5097 33.0917C33.737 27.5689 31.5892 26.6485 30.0552 23.2735C28.8279 20.5734 29.1347 17.6484 29.4415 16.5234C28.2142 16.5234 24.8392 18.6712 24.8392 22.6598C24.8392 25.4212 24.2256 27.2621 22.3847 27.2621C20.912 27.2621 20.7483 24.1939 20.8506 22.6598C19.9301 22.6598 17.125 25.1144 17.125 28.4894Z" stroke="#222222" stroke-width="1.5" stroke-linejoin="round"/>
</svg>
