<svg width="40" height="40" viewBox="0 0 40 40" fill="none" xmlns="http://www.w3.org/2000/svg">
<path d="M12 36H29" stroke="#222222" stroke-width="1.5" stroke-linecap="round"/>
<path d="M11 26L20.5 35.5" stroke="#222222" stroke-width="1.5" stroke-linecap="round"/>
<path d="M21.0303 36.0303C20.7374 36.3232 20.2626 36.3232 19.9697 36.0303C19.6768 35.7374 19.6768 35.2626 19.9697 34.9697L21.0303 36.0303ZM30 25.25C30.4142 25.25 30.75 25.5858 30.75 26L30.75 32.75C30.75 33.1642 30.4142 33.5 30 33.5C29.5858 33.5 29.25 33.1642 29.25 32.75V26.75H23.25C22.8358 26.75 22.5 26.4142 22.5 26C22.5 25.5858 22.8358 25.25 23.25 25.25L30 25.25ZM19.9697 34.9697L29.4697 25.4697L30.5303 26.5303L21.0303 36.0303L19.9697 34.9697Z" fill="#222222"/>
<path d="M24.4453 17.7258C24.4453 14.9371 19.4453 7.21875 19.4453 7.21875C19.4453 7.21875 14.4453 14.9371 14.4453 17.7258C14.4453 20.5145 16.6843 22.7743 19.4453 22.7743C22.2064 22.7743 24.4453 20.5136 24.4453 17.7258Z" stroke="#222222" stroke-width="1.5" stroke-linecap="round" stroke-linejoin="round"/>
</svg>
