<svg width="40" height="40" viewBox="0 0 40 40" fill="none" xmlns="http://www.w3.org/2000/svg">
<path d="M14.2205 6.10938C14.2205 8.02018 11.9336 8.02018 11.9336 9.93098C11.9336 11.8418 14.2205 11.8418 14.2205 13.7526C14.2205 15.6634 11.9336 15.6634 11.9336 17.5742C11.9336 19.485 14.2205 19.485 14.2205 21.3958" stroke="#222222" stroke-width="1.5" stroke-linecap="round" stroke-linejoin="round"/>
<path d="M21.1443 6.10938C21.1443 8.02018 18.8574 8.02018 18.8574 9.93098C18.8574 11.8418 21.1443 11.8418 21.1443 13.7526C21.1443 15.6634 18.8574 15.6634 18.8574 17.5742C18.8574 19.485 21.1443 19.485 21.1443 21.3958" stroke="#222222" stroke-width="1.5" stroke-linecap="round" stroke-linejoin="round"/>
<path d="M28.0681 6.10938C28.0681 8.02018 25.7812 8.02018 25.7812 9.93098C25.7812 11.8418 28.0681 11.8418 28.0681 13.7526C28.0681 15.6634 25.7812 15.6634 25.7812 17.5742C25.7812 19.485 28.0681 19.485 28.0681 21.3958" stroke="#222222" stroke-width="1.5" stroke-linecap="round" stroke-linejoin="round"/>
<path d="M30.3762 26.5391H9.62421C7.6841 26.5391 6.11133 28.1115 6.11133 30.0513C6.11133 31.9911 7.6841 33.5635 9.62421 33.5635H30.3762C32.3163 33.5635 33.8891 31.9911 33.8891 30.0513C33.8891 28.1115 32.3163 26.5391 30.3762 26.5391Z" stroke="#222222" stroke-width="1.5" stroke-linecap="round" stroke-linejoin="round"/>
</svg>
