<svg width="72" height="72" viewBox="0 0 72 72" fill="none" xmlns="http://www.w3.org/2000/svg">
<path d="M18 58H52" stroke="#222222" stroke-width="2" stroke-linecap="round"/>
<path d="M15 37L35 57" stroke="#222222" stroke-width="2" stroke-linecap="round"/>
<path d="M35.7071 57.7071C35.3166 58.0976 34.6834 58.0976 34.2929 57.7071C33.9024 57.3166 33.9024 56.6834 34.2929 56.2929L35.7071 57.7071ZM55 36C55.5523 36 56 36.4477 56 37L56 46C56 46.5523 55.5523 47 55 47C54.4477 47 54 46.5523 54 46L54 38L46 38C45.4477 38 45 37.5523 45 37C45 36.4477 45.4477 36 46 36L55 36ZM34.2929 56.2929L54.2929 36.2929L55.7071 37.7071L35.7071 57.7071L34.2929 56.2929Z" fill="#222222"/>
<path d="M44 31.9127C44 26.893 35 13 35 13C35 13 26 26.893 26 31.9127C26 36.9323 30.0301 41 35 41C39.9699 41 44 36.9308 44 31.9127Z" stroke="#222222" stroke-width="2" stroke-linecap="round" stroke-linejoin="round"/>
</svg>
