<svg width="72" height="72" viewBox="0 0 72 72" fill="none" xmlns="http://www.w3.org/2000/svg">
<path d="M28.9093 16.0156C19.1158 19.0484 12 28.1761 12 38.9682C12 52.2382 22.7625 63.0007 36.0325 63.0007C49.3025 63.0007 60.065 52.2382 60.065 38.9682C60.065 28.1761 52.9492 19.0484 43.1557 16.0156" stroke="#222222" stroke-width="2" stroke-linecap="round" stroke-linejoin="round"/>
<path d="M36.0332 11V22.1545" stroke="#222222" stroke-width="2" stroke-linecap="round" stroke-linejoin="round"/>
<path d="M29.8108 40.6546H32.2518V29.9883L27.6953 30.3581V32.2221H29.8108V40.6546Z" fill="#222222"/>
<path d="M39.7081 33.7316C39.3457 33.739 39.0128 33.7908 38.7095 33.8795C38.4063 33.9683 38.1548 34.0793 37.9551 34.2198L38.2214 32.0303H42.4006V30.1367H36.239L35.6324 36.032L37.8219 36.1578C37.8959 35.9433 38.0364 35.7732 38.2361 35.6326C38.4359 35.4921 38.6948 35.4255 39.0202 35.4255C39.4714 35.4255 39.7969 35.5882 40.004 35.9211C40.2111 36.2539 40.3147 36.7052 40.3147 37.2895C40.3147 37.8739 40.2259 38.2511 40.0484 38.5248C39.8709 38.7985 39.5528 38.939 39.1016 38.939C38.7169 38.939 38.4063 38.8355 38.177 38.621C37.9477 38.4064 37.8293 38.118 37.8293 37.7481L35.4401 37.8961V37.9404C35.4031 38.8059 35.7582 39.5012 36.4979 40.0338C37.2376 40.5663 38.1104 40.8252 39.109 40.8252C40.3738 40.8252 41.2985 40.4924 41.8828 39.8193C42.4672 39.1461 42.763 38.3029 42.763 37.2895C42.763 36.1504 42.4968 35.2776 41.9716 34.6562C41.4464 34.0349 40.6919 33.739 39.7155 33.7538L39.7081 33.7316Z" fill="#222222"/>
<path d="M28.3545 45.618C28.0513 45.618 27.7776 45.6845 27.5261 45.8251C27.2746 45.9656 27.0675 46.1579 26.8973 46.4094V43.3027H25.418V51.1878H26.8973V47.1861C27.0009 47.053 27.134 46.9494 27.3042 46.8754C27.4743 46.8015 27.6666 46.7645 27.8959 46.7645C28.1696 46.7645 28.3767 46.8532 28.5099 47.0308C28.643 47.2083 28.717 47.5116 28.717 47.9332V51.1878H30.1964V47.9406C30.1964 47.1491 30.0336 46.5648 29.7082 46.1801C29.3827 45.7955 28.9389 45.6106 28.3693 45.6106L28.3545 45.618Z" fill="#222222"/>
<path d="M33.8495 45.6172C33.0432 45.6172 32.4145 45.8761 31.9559 46.4013C31.4973 46.9264 31.2754 47.5922 31.2754 48.4058V48.5094C31.2754 49.3304 31.5047 50.0035 31.9633 50.5213C32.4219 51.0391 33.0506 51.298 33.8643 51.298C34.678 51.298 35.2993 51.0391 35.7579 50.5213C36.2165 50.0035 36.4458 49.3304 36.4458 48.5094V48.4058C36.4458 47.5848 36.2165 46.919 35.7579 46.4013C35.2993 45.8835 34.6632 45.6246 33.8569 45.6246L33.8495 45.6172ZM34.959 48.5094C34.959 49.005 34.8703 49.4044 34.6928 49.7077C34.5152 50.0109 34.2341 50.1663 33.8569 50.1663C33.4797 50.1663 33.1838 50.0183 33.0063 49.7151C32.8287 49.4118 32.74 49.0124 32.74 48.5168V48.4132C32.74 47.9324 32.8287 47.533 33.0063 47.2297C33.1838 46.9264 33.4649 46.7637 33.8421 46.7637C34.2194 46.7637 34.5078 46.919 34.6854 47.2223C34.8629 47.5256 34.9516 47.925 34.9516 48.4132V48.5168L34.959 48.5094Z" fill="#222222"/>
<path d="M40.817 49.6935C40.7061 49.8415 40.5729 49.9524 40.4028 50.0264C40.2327 50.1004 40.0329 50.1374 39.7962 50.1374C39.5226 50.1374 39.3228 50.0486 39.1897 49.8711C39.0565 49.6935 38.9974 49.3681 38.9974 48.8873V45.7066H37.5254V48.8799C37.5254 49.7009 37.6881 50.3075 38.0136 50.6995C38.339 51.0916 38.7903 51.2839 39.3672 51.2839C39.7075 51.2839 40.0107 51.2025 40.2696 51.0472C40.5285 50.8918 40.743 50.6625 40.9132 50.3667L41.0685 51.1729H42.289V45.6992H40.8096V49.6787L40.817 49.6935Z" fill="#222222"/>
<path d="M46.4537 45.632C46.3945 45.6172 46.3205 45.6172 46.2466 45.6172C45.9803 45.6172 45.7436 45.6986 45.5439 45.8539C45.3442 46.0092 45.174 46.2385 45.0483 46.527L44.9817 45.7207H43.6133V51.1944H45.0853V47.496C45.1592 47.3333 45.2702 47.2001 45.4107 47.1114C45.5513 47.0226 45.7362 46.9782 45.9507 46.9782L46.4907 46.993L46.646 45.6838C46.5794 45.669 46.5203 45.6542 46.4537 45.6394V45.632Z" fill="#222222"/>
</svg>
