<svg width="41" height="40" viewBox="0 0 41 40" fill="none" xmlns="http://www.w3.org/2000/svg">
<path d="M16.562 11.8984C11.1212 13.5833 7.16797 18.6543 7.16797 24.6499C7.16797 32.0221 13.1471 38.0012 20.5194 38.0012C27.8916 38.0012 33.8708 32.0221 33.8708 24.6499C33.8708 18.6543 29.9175 13.5833 24.4767 11.8984" stroke="#222222" stroke-width="2" stroke-linecap="round" stroke-linejoin="round"/>
<path d="M20.5195 9.10938V15.3063" stroke="#222222" stroke-width="2" stroke-linecap="round" stroke-linejoin="round"/>
<path d="M17.064 25.582H18.4201V19.6562L15.8887 19.8617V20.8973H17.064V25.582Z" fill="#222222"/>
<path d="M22.562 21.7393C22.3607 21.7435 22.1757 21.7722 22.0073 21.8215C21.8388 21.8708 21.6991 21.9325 21.5881 22.0106L21.736 20.7942H24.0578V19.7422H20.6347L20.2978 23.0174L21.5141 23.0872C21.5552 22.9681 21.6333 22.8735 21.7443 22.7955C21.8552 22.7174 21.999 22.6804 22.1798 22.6804C22.4305 22.6804 22.6113 22.7708 22.7264 22.9557C22.8415 23.1406 22.899 23.3913 22.899 23.716C22.899 24.0406 22.8497 24.2502 22.7511 24.4022C22.6524 24.5543 22.4757 24.6324 22.2251 24.6324C22.0114 24.6324 21.8388 24.5748 21.7114 24.4557C21.584 24.3365 21.5182 24.1762 21.5182 23.9707L20.1909 24.0529V24.0776C20.1704 24.5584 20.3676 24.9447 20.7785 25.2405C21.1895 25.5364 21.6744 25.6802 22.2292 25.6802C22.9319 25.6802 23.4455 25.4953 23.7702 25.1214C24.0948 24.7474 24.2592 24.2789 24.2592 23.716C24.2592 23.0831 24.1113 22.5982 23.8195 22.253C23.5277 21.9078 23.1086 21.7435 22.5661 21.7517L22.562 21.7393Z" fill="#222222"/>
<path d="M16.2545 28.3409C16.086 28.3409 15.9339 28.3779 15.7942 28.456C15.6545 28.5341 15.5394 28.6409 15.4449 28.7806V27.0547H14.623V31.4353H15.4449V29.2121C15.5025 29.1381 15.5764 29.0806 15.6709 29.0395C15.7655 28.9984 15.8723 28.9779 15.9997 28.9779C16.1517 28.9779 16.2668 29.0272 16.3408 29.1258C16.4147 29.2244 16.4558 29.3929 16.4558 29.6272V31.4353H17.2777V29.6313C17.2777 29.1916 17.1873 28.8669 17.0065 28.6532C16.8257 28.4396 16.5791 28.3368 16.2627 28.3368L16.2545 28.3409Z" fill="#222222"/>
<path d="M19.307 28.3438C18.8591 28.3438 18.5098 28.4876 18.255 28.7793C18.0002 29.0711 17.877 29.441 17.877 29.893V29.9505C17.877 30.4067 18.0043 30.7806 18.2591 31.0683C18.5139 31.3559 18.8632 31.4998 19.3152 31.4998C19.7673 31.4998 20.1125 31.3559 20.3672 31.0683C20.622 30.7806 20.7494 30.4067 20.7494 29.9505V29.893C20.7494 29.4368 20.622 29.067 20.3672 28.7793C20.1125 28.4917 19.7591 28.3479 19.3111 28.3479L19.307 28.3438ZM19.9234 29.9505C19.9234 30.2258 19.8741 30.4478 19.7755 30.6162C19.6769 30.7847 19.5207 30.871 19.3111 30.871C19.1015 30.871 18.9372 30.7888 18.8385 30.6203C18.7399 30.4519 18.6906 30.23 18.6906 29.9546V29.8971C18.6906 29.63 18.7399 29.4081 18.8385 29.2396C18.9372 29.0711 19.0933 28.9807 19.3029 28.9807C19.5125 28.9807 19.6728 29.067 19.7714 29.2355C19.87 29.404 19.9193 29.6259 19.9193 29.8971V29.9546L19.9234 29.9505Z" fill="#222222"/>
<path d="M23.1783 30.6019C23.1166 30.6841 23.0427 30.7457 22.9482 30.7868C22.8536 30.8279 22.7427 30.8484 22.6112 30.8484C22.4591 30.8484 22.3482 30.7991 22.2742 30.7005C22.2003 30.6019 22.1674 30.4211 22.1674 30.154V28.3869H21.3496V30.1498C21.3496 30.606 21.44 30.943 21.6208 31.1608C21.8016 31.3786 22.0523 31.4854 22.3728 31.4854C22.5619 31.4854 22.7304 31.4402 22.8742 31.3539C23.018 31.2676 23.1372 31.1402 23.2317 30.9758L23.318 31.4238H23.9961V28.3828H23.1742V30.5937L23.1783 30.6019Z" fill="#222222"/>
<path d="M26.3085 28.352C26.2756 28.3438 26.2345 28.3438 26.1934 28.3438C26.0455 28.3438 25.914 28.389 25.803 28.4753C25.6921 28.5615 25.5975 28.6889 25.5277 28.8492L25.4907 28.4013H24.7305V31.4422H25.5482V29.3875C25.5893 29.2971 25.651 29.2232 25.729 29.1738C25.8071 29.1245 25.9099 29.0999 26.029 29.0999L26.329 29.1081L26.4153 28.3807C26.3783 28.3725 26.3455 28.3643 26.3085 28.3561V28.352Z" fill="#222222"/>
</svg>
