<svg width="73" height="57" viewBox="0 0 73 57" fill="none" xmlns="http://www.w3.org/2000/svg">
<g clip-path="url(#clip0_163_24986)">
<path d="M45.2588 1.18005L41.1918 3.53278C41.0031 3.6362 38.9438 5.23055 38.9438 5.23055C38.6006 5.42876 38.5577 5.99756 38.8409 6.48879C39.124 6.98864 39.6388 7.22994 39.982 7.03173C39.982 7.03173 42.3845 6.03203 42.5647 5.91999L46.6317 3.55864C47.0864 3.29148 47.1465 2.55032 46.7689 1.88673C46.3914 1.23176 45.7136 0.90427 45.2588 1.17143V1.18005Z" fill="white"/>
<path d="M42.2559 3.36713L42.9852 3.99625L44.8642 2.90175L44.1263 2.28125L42.2559 3.36713Z" stroke="#231F20" stroke-width="0.25" stroke-linecap="round" stroke-linejoin="round"/>
<path d="M38.9434 5.23725C39.2866 5.03903 39.7928 5.28034 40.0845 5.78019C40.3677 6.28004 40.3248 6.84021 39.9816 7.03843" stroke="black" stroke-width="0.13" stroke-linecap="round" stroke-linejoin="round"/>
<path d="M39.3223 4.96313C39.6826 4.75629 40.2146 5.00622 40.5149 5.53192C40.8152 6.05762 40.7637 6.64365 40.4034 6.8591" stroke="#808080" stroke-width="0.13" stroke-linecap="round" stroke-linejoin="round"/>
<path d="M39.6895 4.68087C40.067 4.4568 40.6333 4.72396 40.9507 5.27552C41.2682 5.82707 41.2167 6.44757 40.8392 6.67164" stroke="#808080" stroke-width="0.13" stroke-linecap="round" stroke-linejoin="round"/>
<path d="M40.0762 4.37817C40.4709 4.14548 41.0715 4.42988 41.3975 5.00729C41.7321 5.5847 41.6721 6.23967 41.2774 6.47236" stroke="#808080" stroke-width="0.13" stroke-linecap="round" stroke-linejoin="round"/>
<path d="M44.4004 1.67981C44.5806 1.5764 44.7865 1.56778 45.001 1.62811L45.3699 1.41265C45.1554 1.35233 44.9409 1.36095 44.7693 1.46436" fill="#808080"/>
<path d="M45.7656 4.06615C46.0402 3.90241 46.2375 3.5663 46.1003 2.98889L46.4692 2.77344C46.5807 3.34223 46.4091 3.69557 46.1346 3.8507" fill="#808080"/>
<path d="M46.6326 3.56645C47.0873 3.29929 47.1474 2.55814 46.7699 1.89454C46.3923 1.23957 45.7145 0.912082 45.2598 1.17924" stroke="black" stroke-width="0.13" stroke-linecap="round" stroke-linejoin="round"/>
<path d="M45.2588 1.17969L41.1918 3.53242C41.0031 3.63584 38.9438 5.23019 38.9438 5.23019C38.6006 5.4284 38.5577 5.9972 38.8409 6.48843C39.124 6.98828 39.6388 7.22958 39.982 7.03137C39.982 7.03137 42.3845 6.03167 42.5647 5.91963L46.6317 3.55828" stroke="black" stroke-width="0.4" stroke-linecap="round" stroke-linejoin="round"/>
<path d="M22.0324 27.5176C21.8179 27.5176 21.6205 27.4056 21.509 27.2074C21.3545 26.923 21.4661 26.561 21.7578 26.4145C30.7841 21.6315 35.2286 18.3911 40.7543 12.548C45.0186 8.04936 50.3469 6.42054 54.9888 8.18725C58.4294 9.4972 60.7289 12.4532 60.8404 15.7195C60.9691 19.4683 58.2063 22.9328 53.2556 25.2338C52.9553 25.3717 52.6121 25.2338 52.4748 24.9494C52.3375 24.6564 52.4748 24.3031 52.7579 24.1652C57.3226 22.0537 59.7679 19.0719 59.6564 15.7712C59.562 12.9875 57.5628 10.4452 54.5598 9.29898C50.3726 7.69602 45.5163 9.22142 41.5865 13.3667C35.9494 19.3132 31.4448 22.6053 22.2812 27.4573C22.1954 27.5004 22.101 27.5262 22.0066 27.5262L22.0324 27.5176Z" stroke="black" stroke-width="0.4" stroke-linecap="round" stroke-linejoin="round"/>
<path d="M22.3938 23.4313C15.7356 32.5234 8.76851 36.8755 2.86536 36.2636C2.52215 36.2291 2.22185 36.4791 2.17894 36.8152C2.14462 37.1599 2.39345 37.4615 2.73666 37.496C9.06881 38.1596 16.4907 33.6006 23.3891 24.1724C30.0559 15.0717 34.1915 11.6504 37.615 12.3915C37.9496 12.4605 38.2757 12.2536 38.3529 11.9175C38.4215 11.5814 38.2156 11.2453 37.881 11.1764C33.8741 10.3059 29.4724 13.7618 22.3938 23.4313Z" fill="white"/>
<path d="M31.7375 13.0547C28.7859 15.1316 26.3491 18.0359 22.3937 23.4309C15.7355 32.5229 8.76838 36.8751 2.86523 36.2632" stroke="black" stroke-width="0.4" stroke-linecap="round" stroke-linejoin="round"/>
<path d="M2.73633 37.4938C9.06849 38.1574 16.4903 33.5984 23.3888 24.1702C26.409 20.0422 28.125 17.7411 30.4931 15.6211" stroke="black" stroke-width="0.4" stroke-linecap="round" stroke-linejoin="round"/>
<path d="M37.1423 11.657C37.0736 11.9931 37.2795 12.3206 37.6142 12.3981C38.9527 12.6912 39.6391 13.372 39.6477 14.4234C39.6734 17.8361 33.9762 23.6447 19.5444 27.023C8.76768 29.5481 2.16095 34.8827 2.39262 38.9332C2.43552 39.7605 2.89027 41.1739 5.36135 41.4583C5.70456 41.4928 6.00487 41.2515 6.04777 40.9154C6.08209 40.5793 5.84184 40.269 5.50722 40.2259C4.30599 40.088 3.67106 39.6313 3.62816 38.8729C3.47372 36.1496 8.58749 30.8753 19.8275 28.2382C35.083 24.6617 40.9175 18.3446 40.8832 14.4234C40.8661 12.7859 39.7764 11.6053 37.8802 11.1916C37.5455 11.114 37.2195 11.3295 37.1423 11.6656" fill="white"/>
<path d="M5.51721 40.2179C4.31599 40.08 3.68105 39.6233 3.63815 38.8649C3.48371 36.1416 8.60607 30.8673 19.8375 28.2302C35.093 24.6537 40.9275 18.3366 40.8932 14.4154C40.876 12.7779 39.7864 11.5973 37.8902 11.1836" stroke="black" stroke-width="0.4" stroke-linecap="round" stroke-linejoin="round"/>
<path d="M20.917 27.9648C14.2073 37.8067 9.84861 40.7196 5.51562 40.2198" stroke="black" stroke-width="0.4" stroke-linecap="round" stroke-linejoin="round"/>
<path d="M5.37109 41.4493C10.1502 42.0009 14.9122 39.1483 22.5829 27.5742" stroke="black" stroke-width="0.4" stroke-linecap="round" stroke-linejoin="round"/>
<path d="M38.9189 5.69471C34.1226 8.40079 32.2436 10.9517 29.7725 15.3383C27.0268 20.1989 25.4223 23.9823 19.871 25.0854C4.09205 28.231 0.0422124 32.3504 0.170915 35.2461C0.230976 36.4957 1.18337 37.3403 2.73638 37.4954C3.07101 37.5299 3.37989 37.28 3.41422 36.9439C3.44854 36.5992 3.19971 36.2975 2.86509 36.2631C2.33312 36.2113 1.44936 35.9959 1.40646 35.1944C1.32066 33.1864 4.64976 29.3858 20.1026 26.3092C26.2117 25.094 27.9535 21.0694 30.8364 15.9502C33.2217 11.7188 35.0493 9.29707 39.5109 6.78059C39.8113 6.61685 39.8971 6.29798 39.734 6.00496C39.571 5.71195 39.2106 5.53097 38.9103 5.69471" fill="white"/>
<path d="M2.86509 36.2631C2.33312 36.2113 1.44936 35.9959 1.40646 35.1944C1.32066 33.1864 4.64976 29.3858 20.1026 26.3092C26.2117 25.094 27.9535 21.0694 30.8364 15.9502C33.2217 11.7188 35.0493 9.29707 39.5109 6.78059C39.8113 6.61685 39.8971 6.29798 39.734 6.00496C39.571 5.71195 39.2106 5.53097 38.9103 5.69471C34.1226 8.40079 32.235 10.9517 29.7639 15.3383C27.0182 20.1989 25.4137 23.9823 19.8624 25.0854C4.09205 28.231 0.0422125 32.3504 0.170915 35.2461C0.222396 36.4527 1.12331 37.28 2.58194 37.4782" stroke="black" stroke-width="0.4" stroke-linecap="round" stroke-linejoin="round"/>
<path d="M37.6239 12.3906C38.9624 12.6836 39.6489 13.3645 39.6574 14.4159C39.6832 17.8286 33.986 23.6372 19.5541 27.0155C8.77744 29.5406 2.17072 34.8752 2.40238 38.9343C2.44528 39.7617 2.90003 41.175 5.37112 41.4594" stroke="black" stroke-width="0.4" stroke-linecap="round" stroke-linejoin="round"/>
<path d="M22.9083 28.862C22.8568 28.862 22.8139 28.8448 22.7625 28.8275C22.4965 28.7241 22.3678 28.4225 22.4707 28.164C22.7453 27.4659 22.6252 26.5438 22.179 25.8112C21.9474 25.4406 21.4411 24.8201 20.6003 24.7426C20.3171 24.7167 20.1112 24.4668 20.1369 24.1824C20.1627 23.898 20.4115 23.6912 20.6946 23.717C21.6385 23.8032 22.4965 24.372 23.0542 25.2769C23.6805 26.2852 23.8264 27.5435 23.4317 28.5518C23.3459 28.7672 23.1314 28.8965 22.9083 28.8793V28.862Z" fill="white" stroke="black" stroke-width="0.4" stroke-linecap="round" stroke-linejoin="round"/>
<path d="M37.8804 11.1855C36.456 10.8753 34.9888 11.108 33.3672 11.9784" stroke="black" stroke-width="0.4" stroke-linecap="round" stroke-linejoin="round"/>
<path d="M31.5312 14.7518C33.9165 12.7265 35.8642 12.0112 37.6232 12.3904" stroke="black" stroke-width="0.4" stroke-linecap="round" stroke-linejoin="round"/>
<path d="M57.4954 23.5781L53.5829 25.8532C53.111 26.129 52.4331 25.8532 52.0814 25.2327C51.721 24.6122 51.824 23.8883 52.2959 23.6125L56.2084 21.3374C56.6803 21.0616 57.3582 21.3374 57.7099 21.9579C58.0703 22.5784 57.9673 23.3023 57.4954 23.5781Z" fill="white"/>
<path d="M55.7284 24.6138C56.2003 24.3381 56.2947 23.6141 55.9429 22.9936C55.5826 22.3731 54.9133 22.0974 54.4414 22.3731L54.8189 22.1577C55.2908 21.8819 55.9687 22.1577 56.3205 22.7782C56.6722 23.3987 56.5779 24.1226 56.106 24.3984L55.7284 24.6138Z" fill="#808080"/>
<path d="M54.9394 25.0709C55.4113 24.7951 55.5057 24.0712 55.1539 23.4507C54.8021 22.8302 54.1243 22.5544 53.6523 22.8302L54.0299 22.6147C54.5018 22.3389 55.1796 22.6147 55.5314 23.2352C55.8918 23.8557 55.7888 24.5796 55.3169 24.8554L54.9394 25.0709Z" fill="#808080"/>
<path d="M54.1484 25.524C54.6203 25.2482 54.7146 24.5243 54.3629 23.9038C54.0025 23.2833 53.3332 23.0075 52.8613 23.2833L53.2389 23.0678C53.7108 22.7921 54.3886 23.0678 54.7404 23.6883C55.0922 24.3088 54.9978 25.0328 54.5259 25.3085L54.1484 25.524Z" fill="#808080"/>
<path d="M57.4954 23.5781L53.5829 25.8532C53.111 26.129 52.4331 25.8532 52.0814 25.2327C51.721 24.6122 51.824 23.8883 52.2959 23.6125L56.2084 21.3374C56.6803 21.0616 57.3582 21.3374 57.7099 21.9579C58.0703 22.5784 57.9673 23.3023 57.4954 23.5781Z" stroke="black" stroke-width="0.4" stroke-linecap="round" stroke-linejoin="round"/>
<path d="M56.818 25.0019C56.7493 24.8812 56.6635 24.752 56.552 24.6313C56.3546 24.4159 56.0972 24.2176 55.8484 24.0711L49.0014 20.1068C48.6754 19.9172 48.3236 19.788 47.9632 19.7104C47.131 19.538 46.2386 19.6673 45.4836 20.1068L24.445 32.3014C24.016 32.5513 23.6299 32.9909 23.4497 33.4304C23.4154 33.5079 23.3982 33.5855 23.3811 33.6631L19.2969 36.033C18.7564 36.3519 18.3359 36.8776 18.3359 37.343V39.3855C18.3359 41.178 19.5972 42.4449 20.4981 42.9706L25.9809 46.1507C27.1478 46.8229 29.3014 46.7712 30.4597 46.099L56.0715 31.2586C57.5558 30.3968 57.7532 28.7766 57.7532 27.8114V26.2084C57.7532 25.743 57.4357 25.3638 56.8265 25.0019H56.818Z" fill="white"/>
<path d="M34.3454 38.7898L29.5663 41.5562C28.7941 42.0044 27.5242 42.0044 26.752 41.5562L19.2615 37.2127C18.884 36.9973 18.884 36.3165 19.2787 36.0234" stroke="#939598" stroke-width="0.13" stroke-linecap="round" stroke-linejoin="round"/>
<path d="M25.3122 31.7913C24.7544 32.1101 24.1967 32.9375 24.7544 33.2564L31.8417 37.3672C32.5367 37.7636 33.3861 37.7636 34.0725 37.3672L55.0167 25.2243C55.7288 24.8106 55.5057 23.9402 54.7936 23.5352" stroke="#939598" stroke-width="0.13" stroke-linecap="round" stroke-linejoin="round"/>
<path d="M57.7099 26.0195C57.6756 26.3039 57.4525 26.6228 57.1607 26.7865L29.5669 42.7731C28.7947 43.2212 27.5249 43.2212 26.7527 42.7731L18.8589 38.1969C18.4814 37.9814 18.3269 37.6712 18.3184 37.3351" stroke="#231F20" stroke-width="0.13" stroke-linecap="round" stroke-linejoin="round"/>
<path d="M52.5367 23.8121L52.4252 24.4929L53.0687 24.1223L53.309 24.2602L52.2965 24.8462L52.0734 24.717L52.1764 24.062L51.5586 24.4153L51.3184 24.2774L52.3308 23.6914L52.5367 23.8121Z" fill="#BCBEC0"/>
<path d="M47.6629 20.9957L47.56 21.6851L48.2035 21.3059L48.4437 21.4438L47.4313 22.0384L47.2082 21.9092L47.3111 21.2456L46.6934 21.6075L46.4531 21.461L47.457 20.875L47.6629 20.9957Z" fill="#BCBEC0"/>
<path d="M50.5208 22.6484L50.7267 22.7691L50.1433 23.5964L49.8858 23.4499L50.3234 22.8811L49.3367 23.1397L49.0879 22.9932L50.5208 22.6484Z" fill="#BCBEC0"/>
<path d="M48.9922 22.9349L48.752 22.797L49.7644 22.2109L50.0047 22.3488L48.9922 22.9349Z" fill="#BCBEC0"/>
<path d="M51.2147 23.8641L51.4549 24.002C51.3691 24.0365 51.2404 24.0709 51.1117 24.0709C50.9315 24.0709 50.7942 24.0192 50.6312 23.9244C50.4682 23.8296 50.3652 23.7435 50.3652 23.64C50.3652 23.5625 50.3996 23.4763 50.5283 23.3987L51.1718 23.0195L51.412 23.1574L51.3176 23.2091C51.3176 23.2091 51.412 23.2091 51.5493 23.2436C51.6608 23.2695 51.7552 23.3125 51.8496 23.3643C51.9611 23.4332 51.9955 23.5021 52.004 23.5711C52.0212 23.64 51.9611 23.7176 51.8668 23.7779C51.7552 23.8469 51.6523 23.8813 51.4978 23.8555C51.352 23.8296 51.2318 23.7693 51.086 23.6831L50.8028 23.5194C50.6741 23.5969 50.6141 23.709 50.8028 23.821C50.9401 23.8986 51.0945 23.89 51.2147 23.8555M51.2404 23.5711C51.3863 23.6487 51.5407 23.7004 51.6265 23.64C51.7466 23.5625 51.6437 23.4849 51.5922 23.4504C51.4635 23.3729 51.3434 23.3384 51.2404 23.3298C51.1289 23.3298 51.0516 23.3643 50.983 23.416C50.983 23.416 51.1803 23.5366 51.249 23.5711" fill="#BCBEC0"/>
<path d="M48.9578 21.9163C49.1208 22.0111 49.1208 22.1317 48.9921 22.2265C48.9921 22.2265 48.9664 22.2438 48.9492 22.2524L48.1427 21.787C47.9625 21.8904 47.8595 22.0025 47.8424 22.1145C47.8166 22.2352 47.9024 22.3472 48.0741 22.4506C48.2371 22.5454 48.4087 22.5885 48.606 22.5799C48.8034 22.5799 48.975 22.5282 49.1294 22.442C49.301 22.3386 49.3868 22.2352 49.3782 22.1231C49.3782 22.0111 49.301 21.9163 49.138 21.8215C48.9921 21.7353 48.8377 21.6922 48.6661 21.6836C48.5288 21.6836 48.4001 21.6922 48.28 21.7353L48.5202 21.8732C48.6575 21.8387 48.8291 21.8473 48.9578 21.9249M48.2457 22.3386C48.0826 22.2438 48.0826 22.1231 48.2113 22.0283L48.769 22.3558C48.6146 22.4334 48.4087 22.4334 48.2371 22.3386" fill="#BCBEC0"/>
<path d="M56.818 25.0019C56.7493 24.8812 56.6635 24.752 56.552 24.6313C56.3546 24.4159 56.0972 24.2176 55.8484 24.0711L49.0014 20.1068C48.6754 19.9172 48.3236 19.788 47.9632 19.7104C47.131 19.538 46.2386 19.6673 45.4836 20.1068L24.445 32.3014C24.016 32.5513 23.6299 32.9909 23.4497 33.4304C23.4154 33.5079 23.3982 33.5855 23.3811 33.6631L19.2969 36.033C18.7564 36.3519 18.3359 36.8776 18.3359 37.343V39.3855C18.3359 41.178 19.5972 42.4449 20.4981 42.9706L25.9809 46.1507C27.1478 46.8229 29.3014 46.7712 30.4597 46.099L56.0715 31.2586C57.5558 30.3968 57.7532 28.7766 57.7532 27.8114V26.2084C57.7532 25.743 57.4357 25.3638 56.8265 25.0019H56.818Z" stroke="#231F20" stroke-width="0.4" stroke-linecap="round" stroke-linejoin="round"/>
<path d="M23.3631 33.6612C23.2859 34.0231 23.3631 34.3679 23.7235 34.5747L31.4285 39.0389C32.1836 39.4784 33.1102 39.4784 33.8567 39.0389L56.5855 25.8704C56.963 25.655 56.9802 25.3275 56.8086 25" stroke="#231F20" stroke-width="0.25" stroke-linecap="round" stroke-linejoin="round"/>
<path d="M22.2044 43.7446L18.2919 46.0198C17.82 46.2956 17.1421 46.0198 16.7903 45.3993C16.43 44.7788 16.5329 44.0549 17.0048 43.7791L20.9174 41.5039" fill="white"/>
<path d="M17.0039 43.7788C17.4758 43.503 18.1536 43.7788 18.5054 44.3993C18.8658 45.0198 18.7628 45.7437 18.2909 46.0195" stroke="black" stroke-width="0.11" stroke-linecap="round" stroke-linejoin="round"/>
<path d="M20.918 41.5053C21.3899 41.2296 22.0677 41.5053 22.4195 42.1258C22.7799 42.7463 22.6769 43.4703 22.205 43.746" stroke="black" stroke-width="0.4" stroke-linecap="round" stroke-linejoin="round"/>
<path d="M20.4374 44.7701C20.9093 44.4943 21.0037 43.7704 20.6519 43.1499C20.2916 42.5294 19.6223 42.2536 19.1504 42.5294L19.5279 42.3139C19.9998 42.0382 20.6777 42.3139 21.0294 42.9344C21.3812 43.5549 21.2868 44.2789 20.8149 44.5546L20.4374 44.7701Z" fill="#808080"/>
<path d="M19.6484 45.2388C20.1203 44.9631 20.2146 44.2391 19.8629 43.6186C19.5025 42.9981 18.8332 42.7224 18.3613 42.9981L18.7389 42.7827C19.2108 42.5069 19.8886 42.7827 20.2404 43.4032C20.6007 44.0237 20.4978 44.7476 20.0259 45.0234L19.6484 45.2388Z" fill="#808080"/>
<path d="M18.8573 45.692C19.3292 45.4162 19.4236 44.6923 19.0718 44.0718C18.7115 43.4513 18.0422 43.1755 17.5703 43.4513L17.9478 43.2358C18.4197 42.96 19.0976 43.2358 19.4494 43.8563C19.8012 44.4768 19.7068 45.2007 19.2349 45.4765L18.8573 45.692Z" fill="#808080"/>
<path d="M22.2044 43.7446L18.2919 46.0198C17.82 46.2956 17.1421 46.0198 16.7903 45.3993C16.43 44.7788 16.5329 44.0549 17.0048 43.7791L20.9174 41.5039" stroke="black" stroke-width="0.4" stroke-linecap="round" stroke-linejoin="round"/>
<path d="M72.6818 37.8438L71.2832 38.6539" stroke="#808080" stroke-width="0.13" stroke-linecap="round" stroke-linejoin="round"/>
<path d="M65.7481 33.8242L64.7871 34.3758" stroke="#808080" stroke-width="0.11" stroke-linecap="round" stroke-linejoin="round"/>
<path d="M66.9915 34.5469L66.0391 35.0984" stroke="#808080" stroke-width="0.11" stroke-linecap="round" stroke-linejoin="round"/>
<path d="M68.2442 35.2734L67.2832 35.825" stroke="#808080" stroke-width="0.11" stroke-linecap="round" stroke-linejoin="round"/>
<path d="M69.4981 35.9961L68.5371 36.5476" stroke="#808080" stroke-width="0.11" stroke-linecap="round" stroke-linejoin="round"/>
<path d="M70.7415 36.7188L69.7891 37.2703" stroke="#808080" stroke-width="0.11" stroke-linecap="round" stroke-linejoin="round"/>
<path d="M53.7014 36.4727C52.7404 37.0673 52.7576 38.0153 53.7271 38.5755L61.1318 42.8673C62.11 43.4361 63.7144 43.4533 64.7097 42.9104L70.3812 39.8165C70.5614 39.7131 70.7673 39.601 70.9904 39.4804" stroke="#B3B3B3" stroke-width="0.13" stroke-linecap="round" stroke-linejoin="round"/>
<path d="M61.2959 33.1016L56.4395 35.9111C55.8561 36.2472 55.8561 36.8073 56.4395 37.1434L62.8832 40.8751C63.4667 41.2112 64.4277 41.2112 65.0111 40.8751L70.1077 37.9191" stroke="#808080" stroke-width="0.13" stroke-linecap="round" stroke-linejoin="round"/>
<path d="M62.7029 33.352L61.7934 32.8263C61.2186 32.4902 60.2748 32.4816 59.6827 32.7918L58.9277 33.2572L53.7024 36.4804C52.7242 37.0492 52.5698 38.135 52.5183 40.0138C52.5011 40.7205 52.7929 41.2806 53.2905 41.5909L60.9354 46.1757C61.9736 46.779 63.6725 46.7962 64.7279 46.2274L70.7426 42.9525L70.8541 42.8664C71.3517 42.5561 71.6521 41.9959 71.6263 41.2893C71.6092 40.7894 71.5748 40.3499 71.5233 39.9621" stroke="black" stroke-width="0.4" stroke-linecap="round" stroke-linejoin="round"/>
<path d="M59.1506 37.2647L59.2278 36.7476L58.7388 37.032L58.5586 36.9286L59.3222 36.4805L59.4938 36.5839L59.4166 37.0837L59.8885 36.808L60.0687 36.9114L59.3051 37.3595L59.1506 37.2647Z" fill="#BCBEC0"/>
<path d="M62.8237 39.3936L62.9009 38.8765L62.4204 39.1609L62.2402 39.0575L62.9953 38.6094L63.1669 38.7128L63.0897 39.2126L63.5616 38.9369L63.7418 39.0403L62.9781 39.4884L62.8237 39.3936Z" fill="#BCBEC0"/>
<path d="M60.6615 38.145L60.5156 38.0588L60.9532 37.4297L61.1506 37.5417L60.8159 37.9726L61.5624 37.783L61.7512 37.8864L60.6615 38.145Z" fill="#BCBEC0"/>
<path d="M61.8183 37.9297L61.9985 38.0417L61.2434 38.4813L61.0547 38.3778L61.8183 37.9297Z" fill="#BCBEC0"/>
<path d="M60.1459 37.2293L59.9657 37.1259C60.0343 37.1001 60.1287 37.0742 60.2231 37.0742C60.3604 37.0742 60.4633 37.1173 60.5834 37.1863C60.7036 37.2552 60.7808 37.3241 60.7894 37.4017C60.7894 37.462 60.7636 37.5224 60.6692 37.5827L60.1802 37.8671L60 37.7637L60.0686 37.7206C60.0686 37.7206 60 37.7206 59.897 37.6947C59.8112 37.6775 59.7426 37.643 59.6739 37.5999C59.5881 37.5482 59.5624 37.4965 59.5538 37.4448C59.5452 37.3931 59.5881 37.3328 59.6568 37.2897C59.7426 37.238 59.8198 37.2121 59.9399 37.238C60.0515 37.2552 60.1373 37.3069 60.2488 37.3672L60.4633 37.4965C60.5577 37.4362 60.6092 37.35 60.4633 37.2638C60.3604 37.2035 60.2402 37.2121 60.1544 37.238M60.1373 37.4534C60.0257 37.3931 59.9142 37.3586 59.8455 37.4017C59.7512 37.462 59.837 37.5224 59.8713 37.5396C59.9657 37.5913 60.06 37.6258 60.1373 37.6258C60.2231 37.6258 60.2746 37.5999 60.3346 37.5654C60.3346 37.5654 60.1802 37.4793 60.1373 37.4534Z" fill="#BCBEC0"/>
<path d="M61.8526 38.7035C61.7239 38.6345 61.7325 38.5397 61.8269 38.4708C61.8269 38.4708 61.844 38.4622 61.8612 38.4535L62.4704 38.8069C62.6077 38.7293 62.6849 38.6431 62.7021 38.557C62.7192 38.4622 62.6592 38.3846 62.5219 38.307C62.4018 38.2381 62.2645 38.2036 62.1186 38.2122C61.9642 38.2122 61.8355 38.2553 61.7239 38.3157C61.5952 38.3932 61.5352 38.4708 61.5352 38.557C61.5352 38.6345 61.5952 38.7121 61.7153 38.781C61.8269 38.8414 61.947 38.8758 62.0757 38.8844C62.1787 38.8844 62.2816 38.8758 62.3674 38.8414L62.1873 38.7379C62.0843 38.7638 61.9556 38.7552 61.8526 38.6949M62.3932 38.3846C62.5219 38.4535 62.5133 38.5483 62.4189 38.6173L61.9985 38.376C62.1186 38.3157 62.2731 38.3157 62.3932 38.3932" fill="#BCBEC0"/>
<path d="M71.5149 39.9452C71.3777 38.8766 71.0774 38.1957 70.3566 37.7821L62.7031 33.3438" stroke="black" stroke-width="0.2" stroke-linecap="round" stroke-linejoin="round"/>
<path d="M57.9149 43.2813L54.9891 44.979C54.6373 45.1859 54.1311 44.979 53.8651 44.5137C53.5991 44.0483 53.6677 43.514 54.0195 43.3071L56.9454 41.6094" fill="white"/>
<path d="M57.9149 43.2813L54.9891 44.979C54.6373 45.1859 54.1311 44.979 53.8651 44.5137C53.5991 44.0483 53.6677 43.514 54.0195 43.3071L56.9454 41.6094" stroke="black" stroke-width="0.4" stroke-linecap="round" stroke-linejoin="round"/>
<path d="M54.0273 43.3067C54.3791 43.0999 54.8854 43.3067 55.1513 43.7721C55.4173 44.2375 55.3487 44.7718 54.9969 44.9786" stroke="black" stroke-width="0.15" stroke-linecap="round" stroke-linejoin="round"/>
<path d="M56.9531 41.6075C57.3049 41.4007 57.8111 41.6075 58.0771 42.0729C58.3431 42.5383 58.2745 43.0726 57.9227 43.2794" fill="white"/>
<path d="M56.9531 41.6075C57.3049 41.4007 57.8111 41.6075 58.0771 42.0729C58.3431 42.5383 58.2745 43.0726 57.9227 43.2794" stroke="black" stroke-width="0.25" stroke-linecap="round" stroke-linejoin="round"/>
<path d="M62.7031 33.3522L63.707 32.7834C63.8529 32.6972 64.0931 32.6972 64.239 32.7834L72.5531 37.6009C72.699 37.6871 72.8191 37.8939 72.8191 38.0663V38.8936C72.8191 39.066 72.699 39.2728 72.5531 39.359L71.5149 39.9536" stroke="black" stroke-width="0.4" stroke-linecap="round" stroke-linejoin="round"/>
<path d="M19.6821 55.1721C17.8888 55.1721 16.6704 54.7671 15.8811 54.3189C14.3881 53.483 13.5301 52.0351 13.5215 50.3374C13.5129 48.0536 14.9887 45.7353 17.2796 44.4167C17.5456 44.2616 17.803 44.6236 17.8888 44.7787C17.9746 44.9338 18.1462 45.3303 17.8888 45.4854C15.9754 46.5799 14.7399 48.4845 14.7485 50.3288C14.7485 51.587 15.3663 52.6298 16.4817 53.2503C18.0862 54.1466 23.1656 55.4307 35.4696 47.864C35.7613 47.683 36.1302 47.7778 36.3104 48.0708C36.482 48.3552 36.3962 48.7344 36.1045 48.9154C28.1078 53.8277 22.9425 55.1721 19.6907 55.1721H19.6821Z" fill="white" stroke="black" stroke-width="0.4" stroke-linecap="round" stroke-linejoin="round"/>
<path d="M35.9067 48.5961C35.7866 48.5961 35.6665 48.5617 35.5721 48.4927C35.2289 48.5013 34.9543 48.2514 34.9286 47.9153C34.9114 47.5792 35.1602 47.2862 35.4949 47.2603C35.6064 47.2603 35.7265 47.2431 35.8381 47.2345C36.6961 46.5192 37.5112 45.7263 38.3092 44.9507C39.5962 43.7011 40.9175 42.417 42.4019 41.469C44.6499 40.0298 46.752 39.6592 48.1678 40.452C48.9486 40.8916 49.4119 41.6672 49.4033 42.529C49.3947 43.7011 48.5453 44.8473 47.1296 45.597C44.1522 47.1828 41.7155 48.0273 36.31 48.4324C36.31 48.4324 36.2928 48.441 36.2842 48.4496C36.1727 48.5358 36.0354 48.5875 35.9067 48.5875V48.5961ZM46.4603 41.2794C45.7053 41.2794 44.5898 41.5379 43.0626 42.5118C41.6812 43.3908 40.4542 44.5801 39.1586 45.847C38.7382 46.252 38.3177 46.6657 37.8801 47.0707C41.9557 46.6398 44.0064 45.8814 46.5633 44.5198C47.5757 43.9855 48.1763 43.2357 48.1849 42.5204C48.1849 42.0981 47.9704 41.7534 47.5757 41.5293C47.4127 41.4345 47.0438 41.2794 46.4603 41.2794Z" fill="white" stroke="black" stroke-width="0.4" stroke-linecap="round" stroke-linejoin="round"/>
<path d="M37.88 47.0703C37.7513 47.1996 36.8418 47.9407 36.8418 47.9407L37.88 47.0703Z" fill="white"/>
<path d="M37.88 47.0703C37.7513 47.1996 36.8418 47.9407 36.8418 47.9407" stroke="black" stroke-width="0.4" stroke-linecap="round" stroke-linejoin="round"/>
<path d="M24.7448 56.8279C22.5311 56.8279 21.7074 55.6644 21.6731 54.5699C21.5873 51.8552 26.1519 47.822 34.9466 47.3049L35.4957 47.2704C35.8303 47.2532 36.1135 47.4945 36.1478 47.8306C36.4224 47.7875 36.7055 47.9512 36.8085 48.227C36.92 48.5459 36.757 48.8992 36.4481 49.0113C35.9848 49.1836 35.5815 49.468 35.1439 49.942C30.6393 54.8715 27.7392 56.802 24.7877 56.8192H24.7448V56.8279ZM34.8522 48.5459C26.7783 49.063 22.8314 52.6481 22.8914 54.5354C22.9258 55.5179 24.2471 55.6041 24.7791 55.6041C26.9241 55.5868 29.3523 54.4837 34.243 49.1233C34.4403 48.8992 34.6463 48.7096 34.8522 48.5459Z" fill="white" stroke="black" stroke-width="0.4" stroke-linecap="round" stroke-linejoin="round"/>
<path d="M36.5768 48.7941C36.328 48.7941 36.0963 48.639 36.0019 48.3891C35.8904 48.0702 36.0534 47.7169 36.3623 47.6048C36.8171 47.4411 37.2804 47.3549 37.8467 47.286C38.5159 47.1998 39.331 47.1912 40.2663 47.1912C43.4924 47.1653 48.3745 47.1309 53.9516 43.7698C54.2434 43.5974 54.6123 43.6922 54.7925 43.9766C54.9641 44.2696 54.8697 44.6402 54.5866 44.8212C48.7263 48.3546 43.6469 48.3891 40.2834 48.4149C39.3825 48.4149 38.6017 48.4236 38.0011 48.5011C37.5121 48.5615 37.1345 48.6304 36.7827 48.7597C36.7141 48.7855 36.6455 48.7941 36.5768 48.7941Z" fill="white" stroke="black" stroke-width="0.4" stroke-linecap="round" stroke-linejoin="round"/>
<path d="M34.8438 48.535C35.3757 48.0007 36.3024 47.587 36.7142 47.4922" stroke="black" stroke-width="0.4" stroke-linecap="round" stroke-linejoin="round"/>
<path d="M36.4471 49.6479C36.4471 49.6479 36.4128 49.6479 36.3956 49.6479C36.1039 49.6221 35.8894 49.3635 35.9237 49.0705C36.0095 48.1915 35.7521 47.6399 35.1515 47.4503C34.8769 47.3555 34.7225 47.0625 34.8169 46.7781C34.9112 46.5023 35.203 46.3472 35.4861 46.442C36.5672 46.7953 37.1163 47.795 36.9791 49.1739C36.9533 49.4497 36.7217 49.6565 36.4557 49.6565L36.4471 49.6479Z" fill="white" stroke="black" stroke-width="0.4" stroke-linecap="round" stroke-linejoin="round"/>
<path d="M47.6367 0.47224C47.9027 0.317115 48.2974 0.506712 48.5119 0.885908C48.735 1.2651 48.6921 1.70463 48.4347 1.85975" stroke="black" stroke-width="0.13" stroke-linecap="round" stroke-linejoin="round"/>
<path d="M46.6334 3.56606C46.9079 3.40231 47.0366 3.06621 47.0109 2.67839L48.8556 1.60975C49.1216 1.45463 49.1559 1.02372 48.9328 0.635908C48.7098 0.256713 48.3236 0.0671147 48.0577 0.22224L46.2129 1.29088C45.8869 1.07543 45.5351 1.0151 45.252 1.17885" stroke="black" stroke-width="0.4" stroke-linecap="round" stroke-linejoin="round"/>
</g>
<defs>
<clipPath id="clip0_163_24986">
<rect width="73" height="57" fill="white"/>
</clipPath>
</defs>
</svg>
