<svg width="72" height="72" viewBox="0 0 72 72" fill="none" xmlns="http://www.w3.org/2000/svg">
<path d="M25.5968 11C25.5968 14.4394 21.4805 14.4394 21.4805 17.8789C21.4805 21.3183 25.5968 21.3183 25.5968 24.7578C25.5968 28.1972 21.4805 28.1972 21.4805 31.6367C21.4805 35.0761 25.5968 35.0761 25.5968 38.5156" stroke="#222222" stroke-width="2" stroke-linecap="round" stroke-linejoin="round"/>
<path d="M38.0578 11C38.0578 14.4394 33.9414 14.4394 33.9414 17.8789C33.9414 21.3183 38.0578 21.3183 38.0578 24.7578C38.0578 28.1972 33.9414 28.1972 33.9414 31.6367C33.9414 35.0761 38.0578 35.0761 38.0578 38.5156" stroke="#222222" stroke-width="2" stroke-linecap="round" stroke-linejoin="round"/>
<path d="M50.5226 11C50.5226 14.4394 46.4062 14.4394 46.4062 17.8789C46.4062 21.3183 50.5226 21.3183 50.5226 24.7578C50.5226 28.1972 46.4062 28.1972 46.4062 31.6367C46.4062 35.0761 50.5226 35.0761 50.5226 38.5156" stroke="#222222" stroke-width="2" stroke-linecap="round" stroke-linejoin="round"/>
<path d="M54.6768 47.7695H17.3232C13.831 47.7695 11 50.6 11 54.0916C11 57.5831 13.831 60.4136 17.3232 60.4136H54.6768C58.169 60.4136 61 57.5831 61 54.0916C61 50.6 58.169 47.7695 54.6768 47.7695Z" stroke="#222222" stroke-width="2" stroke-linecap="round" stroke-linejoin="round"/>
</svg>
