<svg width="129" height="100" viewBox="0 0 129 100" fill="none" xmlns="http://www.w3.org/2000/svg">
<g clip-path="url(#clip0_212_26730)">
<path d="M79.7553 2.06944L72.5887 6.19705C72.2561 6.37848 68.6274 9.17558 68.6274 9.17558C68.0226 9.52332 67.947 10.5212 68.446 11.383C68.9449 12.2599 69.8521 12.6833 70.4569 12.3355C70.4569 12.3355 74.6903 10.5817 75.0078 10.3851L82.1744 6.2424C82.9758 5.7737 83.0816 4.47343 82.4163 3.30923C81.7511 2.16015 80.5566 1.58562 79.7553 2.05432V2.06944Z" fill="white"/>
<path d="M74.4629 5.91286L75.748 7.01658L79.0592 5.09641L77.7589 4.00781L74.4629 5.91286Z" stroke="#231F20" stroke-width="0.25" stroke-linecap="round" stroke-linejoin="round"/>
<path d="M68.627 9.19185C69.2317 8.84411 70.1238 9.26745 70.6378 10.1444C71.1368 11.0213 71.0612 12.0041 70.4564 12.3518" stroke="black" stroke-width="0.13" stroke-linecap="round" stroke-linejoin="round"/>
<path d="M69.293 8.70532C69.928 8.34245 70.8654 8.78092 71.3946 9.7032C71.9238 10.6255 71.833 11.6536 71.198 12.0316" stroke="#808080" stroke-width="0.13" stroke-linecap="round" stroke-linejoin="round"/>
<path d="M69.9434 8.20944C70.6086 7.81634 71.6065 8.28504 72.1659 9.25269C72.7253 10.2203 72.6346 11.3089 71.9694 11.702" stroke="#808080" stroke-width="0.13" stroke-linecap="round" stroke-linejoin="round"/>
<path d="M70.623 7.68168C71.3185 7.27345 72.3769 7.7724 72.9514 8.7854C73.5411 9.7984 73.4353 10.9475 72.7398 11.3557" stroke="#808080" stroke-width="0.13" stroke-linecap="round" stroke-linejoin="round"/>
<path d="M78.2441 2.94882C78.5616 2.76739 78.9245 2.75227 79.3025 2.85811L79.9526 2.48012C79.5747 2.37429 79.1967 2.38941 78.8943 2.57084" fill="#808080"/>
<path d="M80.6465 7.1351C81.1303 6.84783 81.4781 6.25818 81.2361 5.24517L81.8863 4.86719C82.0828 5.86507 81.7804 6.48497 81.2966 6.75712" fill="#808080"/>
<path d="M82.175 6.25803C82.9763 5.78933 83.0821 4.48905 82.4169 3.32486C81.7516 2.17578 80.5572 1.60124 79.7559 2.06994" stroke="black" stroke-width="0.13" stroke-linecap="round" stroke-linejoin="round"/>
<path d="M79.7553 2.07031L72.5887 6.19792C72.2561 6.37935 68.6274 9.17645 68.6274 9.17645C68.0226 9.5242 67.947 10.5221 68.446 11.3839C68.9449 12.2608 69.8521 12.6842 70.4569 12.3364C70.4569 12.3364 74.6903 10.5826 75.0078 10.386L82.1744 6.24328" stroke="black" stroke-width="0.4" stroke-linecap="round" stroke-linejoin="round"/>
<path d="M38.826 48.272C38.4481 48.272 38.1003 48.0754 37.9038 47.7277C37.6316 47.2287 37.8282 46.5937 38.3422 46.3367C54.2479 37.9454 62.0797 32.2605 71.8167 22.0095C79.331 14.1172 88.7202 11.2596 96.8998 14.3591C102.963 16.6572 107.015 21.8432 107.211 27.5735C107.438 34.1504 102.57 40.2284 93.8457 44.2653C93.3165 44.5072 92.7117 44.2653 92.4698 43.7664C92.2279 43.2523 92.4698 42.6324 92.9688 42.3905C101.012 38.6863 105.321 33.4549 105.125 27.6642C104.958 22.7806 101.436 18.3204 96.1438 16.3095C88.7656 13.4973 80.208 16.1734 73.2833 23.4459C63.3498 33.8783 55.4121 39.6539 39.2645 48.1661C39.1133 48.2417 38.947 48.2871 38.7807 48.2871L38.826 48.272Z" stroke="black" stroke-width="0.4" stroke-linecap="round" stroke-linejoin="round"/>
<path d="M39.461 41.1098C27.7283 57.0608 15.4513 64.6962 5.04911 63.6227C4.44434 63.5622 3.91516 64.0007 3.83956 64.5903C3.77908 65.1951 4.21755 65.7243 4.82232 65.7848C15.9805 66.949 29.0588 58.9508 41.2148 42.4101C52.9626 26.444 60.2502 20.4415 66.2829 21.7418C66.8725 21.8628 67.4471 21.4999 67.5831 20.9102C67.7041 20.3206 67.3412 19.7309 66.7516 19.61C59.6908 18.0829 51.9345 24.1458 39.461 41.1098Z" fill="white"/>
<path d="M55.9258 22.9062C50.7247 26.55 46.4307 31.6453 39.4607 41.1101C27.728 57.0611 15.451 64.6964 5.04883 63.6229" stroke="black" stroke-width="0.4" stroke-linecap="round" stroke-linejoin="round"/>
<path d="M4.82227 65.7794C15.9804 66.9436 29.0587 58.9454 41.2148 42.4047C46.5368 35.1625 49.5607 31.1256 53.7337 27.4062" stroke="black" stroke-width="0.4" stroke-linecap="round" stroke-linejoin="round"/>
<path d="M65.4512 20.4536C65.3302 21.0432 65.6931 21.6178 66.2827 21.7539C68.6414 22.2679 69.8509 23.4624 69.8661 25.3069C69.9114 31.2942 59.8721 41.4847 34.4412 47.4116C15.4512 51.8416 3.8092 61.2005 4.21743 68.3066C4.29302 69.7581 5.09435 72.2377 9.44875 72.7366C10.0535 72.7971 10.5827 72.3738 10.6583 71.7841C10.7188 71.1944 10.2954 70.6501 9.70578 70.5745C7.58906 70.3326 6.47022 69.5313 6.39463 68.2008C6.12248 63.423 15.1337 54.1699 34.9401 49.5434C61.8225 43.2688 72.1037 32.1863 72.0433 25.3069C72.013 22.4342 70.0928 20.3629 66.7514 19.6371C66.1618 19.5011 65.5872 19.879 65.4512 20.4687" fill="white"/>
<path d="M9.72142 70.5624C7.6047 70.3205 6.48586 69.5192 6.41027 68.1886C6.13812 63.4109 15.1644 54.1578 34.9558 49.5313C61.8382 43.2567 72.1194 32.1741 72.0589 25.2948C72.0287 22.4221 70.1085 20.3507 66.7671 19.625" stroke="black" stroke-width="0.4" stroke-linecap="round" stroke-linejoin="round"/>
<path d="M36.8601 49.0625C25.0367 66.3289 17.356 71.4393 9.7207 70.5623" stroke="black" stroke-width="0.4" stroke-linecap="round" stroke-linejoin="round"/>
<path d="M9.46484 72.7251C17.8864 73.6928 26.2777 68.6882 39.7944 48.3828" stroke="black" stroke-width="0.4" stroke-linecap="round" stroke-linejoin="round"/>
<path d="M68.5815 9.99141C60.1297 14.7389 56.8186 19.2143 52.4642 26.9101C47.6259 35.4374 44.7986 42.0749 35.0163 44.0102C7.21165 49.5288 0.0752747 56.7558 0.302066 61.836C0.407903 64.0283 2.08616 65.51 4.82278 65.7822C5.41244 65.8426 5.95674 65.4042 6.01722 64.8145C6.07769 64.2097 5.63923 63.6806 5.04957 63.6201C4.11217 63.5294 2.55486 63.1514 2.47927 61.7453C2.32807 58.2224 8.19442 51.5548 35.4245 46.1571C46.1896 44.0253 49.2588 36.9645 54.339 27.9835C58.5422 20.5599 61.7626 16.3113 69.6247 11.8965C70.1539 11.6092 70.3051 11.0498 70.0178 10.5357C69.7306 10.0216 69.0955 9.70414 68.5664 9.99141" fill="white"/>
<path d="M5.04957 63.6201C4.11217 63.5294 2.55486 63.1514 2.47927 61.7453C2.32807 58.2224 8.19442 51.5548 35.4245 46.1571C46.1896 44.0253 49.2588 36.9645 54.339 27.9835C58.5422 20.5599 61.7626 16.3113 69.6247 11.8965C70.1539 11.6092 70.3051 11.0498 70.0178 10.5357C69.7306 10.0216 69.0955 9.70414 68.5664 9.99141C60.1297 14.7389 56.8034 19.2143 52.449 26.9101C47.6108 35.4374 44.7835 42.0749 35.0012 44.0102C7.21165 49.5288 0.0752748 56.7558 0.302066 61.836C0.392783 63.9527 1.98032 65.4042 4.55063 65.7519" stroke="black" stroke-width="0.4" stroke-linecap="round" stroke-linejoin="round"/>
<path d="M66.2984 21.7422C68.657 22.2562 69.8666 23.4507 69.8817 25.2953C69.927 31.2826 59.8877 41.4731 34.4568 47.3999C15.4668 51.8299 3.82483 61.1888 4.23305 68.3101C4.30865 69.7615 5.10998 72.2411 9.46438 72.7401" stroke="black" stroke-width="0.4" stroke-linecap="round" stroke-linejoin="round"/>
<path d="M40.3679 50.6317C40.2772 50.6317 40.2016 50.6015 40.1109 50.5712C39.6421 50.3898 39.4154 49.8606 39.5968 49.407C40.0806 48.1823 39.8689 46.5646 39.0827 45.2794C38.6745 44.6293 37.7825 43.5407 36.3007 43.4046C35.8018 43.3592 35.4389 42.9208 35.4843 42.4218C35.5297 41.9229 35.9681 41.56 36.4671 41.6054C38.1302 41.7566 39.6421 42.7545 40.6249 44.342C41.7286 46.111 41.9857 48.3184 41.2902 50.0874C41.139 50.4654 40.761 50.6922 40.3679 50.6619V50.6317Z" fill="white" stroke="black" stroke-width="0.4" stroke-linecap="round" stroke-linejoin="round"/>
<path d="M66.7517 19.6202C64.2418 19.0759 61.6564 19.4841 58.7988 21.0111" stroke="black" stroke-width="0.4" stroke-linecap="round" stroke-linejoin="round"/>
<path d="M55.5645 25.884C59.7677 22.3309 63.1998 21.076 66.2993 21.7413" stroke="black" stroke-width="0.4" stroke-linecap="round" stroke-linejoin="round"/>
<path d="M101.314 41.3608L94.4193 45.3523C93.5877 45.8361 92.3933 45.3523 91.7734 44.2637C91.1384 43.1751 91.3198 41.9051 92.1514 41.4213L99.0459 37.4297C99.8774 36.9459 101.072 37.4297 101.692 38.5183C102.327 39.6069 102.145 40.877 101.314 41.3608Z" fill="white"/>
<path d="M98.1995 43.1763C99.0311 42.6925 99.1974 41.4224 98.5775 40.3338C97.9425 39.2452 96.7632 38.7614 95.9316 39.2452L96.5969 38.8672C97.4285 38.3834 98.6229 38.8672 99.2428 39.9558C99.8627 41.0444 99.6964 42.3145 98.8648 42.7983L98.1995 43.1763Z" fill="#808080"/>
<path d="M96.8089 43.9731C97.6405 43.4893 97.8068 42.2193 97.1869 41.1307C96.567 40.0421 95.3726 39.5583 94.541 40.0421L95.2063 39.6641C96.0378 39.1803 97.2323 39.6641 97.8522 40.7527C98.4872 41.8413 98.3058 43.1113 97.4742 43.5952L96.8089 43.9731Z" fill="#808080"/>
<path d="M95.4164 44.7778C96.2479 44.294 96.4142 43.024 95.7943 41.9354C95.1593 40.8468 93.98 40.363 93.1484 40.8468L93.8137 40.4688C94.6453 39.985 95.8397 40.4688 96.4596 41.5574C97.0795 42.646 96.9132 43.916 96.0816 44.3998L95.4164 44.7778Z" fill="#808080"/>
<path d="M101.314 41.3608L94.4193 45.3523C93.5877 45.8361 92.3933 45.3523 91.7734 44.2637C91.1384 43.1751 91.3198 41.9051 92.1514 41.4213L99.0459 37.4297C99.8774 36.9459 101.072 37.4297 101.692 38.5183C102.327 39.6069 102.145 40.877 101.314 41.3608Z" stroke="black" stroke-width="0.4" stroke-linecap="round" stroke-linejoin="round"/>
<path d="M100.119 43.8579C99.9983 43.6462 99.8472 43.4194 99.6506 43.2078C99.3029 42.8298 98.8493 42.482 98.4108 42.225L86.3455 35.2701C85.771 34.9374 85.1511 34.7106 84.516 34.5746C83.0494 34.2722 81.477 34.499 80.1465 35.2701L43.0736 56.6641C42.3177 57.1025 41.6373 57.8736 41.3198 58.6447C41.2593 58.7808 41.2291 58.9169 41.1988 59.0529L34.002 63.2108C33.0494 63.7702 32.3086 64.6925 32.3086 65.5089V69.0922C32.3086 72.2371 34.5312 74.4596 36.1187 75.3819L45.78 80.961C47.8363 82.1403 51.6312 82.0496 53.6724 80.8703L98.8039 54.8346C101.42 53.3227 101.767 50.4802 101.767 48.7868V45.9746C101.767 45.1582 101.208 44.4929 100.134 43.8579H100.119Z" fill="white"/>
<path d="M60.5225 68.0487L52.1009 72.902C50.7402 73.6882 48.5025 73.6882 47.1418 72.902L33.9425 65.2818C33.2772 64.9038 33.2772 63.7094 33.9727 63.1953" stroke="#939598" stroke-width="0.13" stroke-linecap="round" stroke-linejoin="round"/>
<path d="M44.6008 55.7735C43.618 56.3329 42.6352 57.7844 43.618 58.3438L56.1067 65.5558C57.3313 66.2513 58.8282 66.2513 60.0377 65.5558L96.9443 44.2525C98.1992 43.5267 97.8061 41.9997 96.5512 41.2891" stroke="#939598" stroke-width="0.13" stroke-linecap="round" stroke-linejoin="round"/>
<path d="M101.693 45.6406C101.632 46.1396 101.239 46.699 100.725 46.9863L52.1009 75.0328C50.7401 75.819 48.5025 75.819 47.1417 75.0328L33.2318 67.0044C32.5666 66.6264 32.2944 66.0821 32.2793 65.4925" stroke="#231F20" stroke-width="0.13" stroke-linecap="round" stroke-linejoin="round"/>
<path d="M92.5747 41.7742L92.3781 42.9686L93.5121 42.3185L93.9354 42.5604L92.1514 43.5885L91.7582 43.3617L91.9397 42.2126L90.8511 42.8325L90.4277 42.5906L92.2118 41.5625L92.5747 41.7742Z" fill="#BCBEC0"/>
<path d="M83.9873 36.8289L83.8059 38.0384L84.9398 37.3732L85.3632 37.6151L83.5791 38.6583L83.186 38.4315L83.3674 37.2673L82.2788 37.9023L81.8555 37.6453L83.6244 36.6172L83.9873 36.8289Z" fill="#BCBEC0"/>
<path d="M89.023 39.7344L89.3859 39.946L88.3577 41.3975L87.9042 41.1405L88.6753 40.1426L86.9365 40.5962L86.498 40.3392L89.023 39.7344Z" fill="#BCBEC0"/>
<path d="M86.3315 40.231L85.9082 39.9891L87.6923 38.9609L88.1156 39.2028L86.3315 40.231Z" fill="#BCBEC0"/>
<path d="M90.2468 41.8645L90.6702 42.1064C90.519 42.1669 90.2922 42.2274 90.0654 42.2274C89.7479 42.2274 89.506 42.1367 89.2187 41.9704C88.9314 41.804 88.75 41.6528 88.75 41.4714C88.75 41.3353 88.8105 41.1841 89.0373 41.0481L90.1712 40.3828L90.5946 40.6247L90.4283 40.7154C90.4283 40.7154 90.5946 40.7154 90.8365 40.7759C91.033 40.8213 91.1994 40.8969 91.3657 40.9876C91.5622 41.1085 91.6227 41.2295 91.6378 41.3505C91.6681 41.4714 91.5622 41.6075 91.3959 41.7133C91.1994 41.8343 91.0179 41.8948 90.7458 41.8494C90.4887 41.804 90.2771 41.6982 90.02 41.547L89.5211 41.2597C89.2943 41.3958 89.1885 41.5924 89.5211 41.7889C89.763 41.925 90.0352 41.9099 90.2468 41.8494M90.2922 41.3505C90.5492 41.4865 90.8214 41.5773 90.9726 41.4714C91.1842 41.3353 91.0028 41.1993 90.9121 41.1388C90.6853 41.0027 90.4736 40.9422 90.2922 40.9271C90.0956 40.9271 89.9596 40.9876 89.8386 41.0783C89.8386 41.0783 90.1863 41.29 90.3073 41.3505" fill="#BCBEC0"/>
<path d="M86.2703 38.4473C86.5576 38.6136 86.5576 38.8253 86.3308 38.9916C86.3308 38.9916 86.2854 39.0218 86.2552 39.0369L84.834 38.2205C84.5165 38.4019 84.335 38.5985 84.3048 38.795C84.2594 39.0067 84.4106 39.2033 84.713 39.3847C85.0003 39.551 85.3027 39.6266 85.6504 39.6115C85.9982 39.6115 86.3006 39.5208 86.5727 39.3696C86.8751 39.1881 87.0263 39.0067 87.0112 38.8102C87.0112 38.6136 86.8751 38.4473 86.5878 38.281C86.3308 38.1298 86.0587 38.0542 85.7563 38.0391C85.5144 38.0391 85.2876 38.0542 85.0759 38.1298L85.4992 38.3717C85.7411 38.3112 86.0435 38.3263 86.2703 38.4624M85.0154 39.1881C84.7281 39.0218 84.7281 38.8102 84.9549 38.6438L85.9377 39.2184C85.6655 39.3545 85.3027 39.3545 85.0003 39.1881" fill="#BCBEC0"/>
<path d="M100.119 43.8579C99.9983 43.6462 99.8472 43.4194 99.6506 43.2078C99.3029 42.8298 98.8493 42.482 98.4108 42.225L86.3455 35.2701C85.7709 34.9374 85.1511 34.7106 84.516 34.5746C83.0495 34.2722 81.477 34.499 80.1465 35.2701L43.0736 56.6641C42.3177 57.1025 41.6373 57.8736 41.3198 58.6447C41.2593 58.7808 41.2291 58.9169 41.1988 59.0529L34.002 63.2108C33.0494 63.7702 32.3086 64.6925 32.3086 65.5089V69.0922C32.3086 72.2371 34.5312 74.4596 36.1187 75.3819L45.78 80.961C47.8363 82.1403 51.6312 82.0496 53.6724 80.8703L98.8039 54.8346C101.42 53.3227 101.767 50.4802 101.767 48.7868V45.9746C101.767 45.1582 101.208 44.4929 100.134 43.8579H100.119Z" stroke="#231F20" stroke-width="0.4" stroke-linecap="round" stroke-linejoin="round"/>
<path d="M41.169 59.0544C41.033 59.6894 41.169 60.2942 41.8041 60.6571L55.3813 68.4889C56.7118 69.26 58.3447 69.26 59.6601 68.4889L99.7115 45.3864C100.377 45.0085 100.407 44.4339 100.105 43.8594" stroke="#231F20" stroke-width="0.25" stroke-linecap="round" stroke-linejoin="round"/>
<path d="M39.1282 76.7436L32.2338 80.7351C31.4022 81.2189 30.2078 80.7351 29.5879 79.6465C28.9529 78.5579 29.1343 77.2879 29.9659 76.804L36.8603 72.8125" fill="white"/>
<path d="M29.9668 76.8047C30.7984 76.3209 31.9928 76.8047 32.6127 77.8933C33.2477 78.9819 33.0663 80.252 32.2347 80.7358" stroke="black" stroke-width="0.11" stroke-linecap="round" stroke-linejoin="round"/>
<path d="M36.8594 72.8125C37.6909 72.3287 38.8854 72.8125 39.5053 73.9011C40.1403 74.9897 39.9589 76.2598 39.1273 76.7436" stroke="black" stroke-width="0.4" stroke-linecap="round" stroke-linejoin="round"/>
<path d="M36.014 78.5435C36.8456 78.0596 37.0119 76.7896 36.392 75.701C35.757 74.6124 34.5777 74.1286 33.7461 74.6124L34.4114 74.2344C35.2429 73.7506 36.4374 74.2344 37.0573 75.323C37.6772 76.4116 37.5108 77.6817 36.6793 78.1655L36.014 78.5435Z" fill="#808080"/>
<path d="M34.6234 79.356C35.455 78.8721 35.6213 77.6021 35.0014 76.5135C34.3664 75.4249 33.187 74.9411 32.3555 75.4249L33.0207 75.0469C33.8523 74.5631 35.0467 75.0469 35.6666 76.1355C36.3016 77.2241 36.1202 78.4942 35.2886 78.978L34.6234 79.356Z" fill="#808080"/>
<path d="M33.2308 80.1607C34.0624 79.6768 34.2287 78.4068 33.6088 77.3182C32.9738 76.2296 31.7945 75.7458 30.9629 76.2296L31.6281 75.8516C32.4597 75.3678 33.6542 75.8516 34.274 76.9402C34.8939 78.0288 34.7276 79.2988 33.8961 79.7827L33.2308 80.1607Z" fill="#808080"/>
<path d="M39.1282 76.7436L32.2338 80.7351C31.4022 81.2189 30.2078 80.7351 29.5879 79.6465C28.9529 78.5579 29.1343 77.2879 29.9659 76.804L36.8603 72.8125" stroke="black" stroke-width="0.4" stroke-linecap="round" stroke-linejoin="round"/>
<path d="M128.078 66.3906L125.613 67.8119" stroke="#808080" stroke-width="0.13" stroke-linecap="round" stroke-linejoin="round"/>
<path d="M115.861 59.3438L114.168 60.3114" stroke="#808080" stroke-width="0.11" stroke-linecap="round" stroke-linejoin="round"/>
<path d="M118.053 60.6172L116.375 61.5848" stroke="#808080" stroke-width="0.11" stroke-linecap="round" stroke-linejoin="round"/>
<path d="M120.262 61.8828L118.568 62.8505" stroke="#808080" stroke-width="0.11" stroke-linecap="round" stroke-linejoin="round"/>
<path d="M122.469 63.1562L120.775 64.1239" stroke="#808080" stroke-width="0.11" stroke-linecap="round" stroke-linejoin="round"/>
<path d="M124.661 64.4219L122.982 65.3895" stroke="#808080" stroke-width="0.11" stroke-linecap="round" stroke-linejoin="round"/>
<path d="M94.6321 63.9844C92.9387 65.0276 92.9689 66.6908 94.6774 67.6735L107.726 75.203C109.449 76.2009 112.276 76.2311 114.03 75.2786L124.024 69.8507C124.342 69.6693 124.705 69.4727 125.098 69.2611" stroke="#B3B3B3" stroke-width="0.13" stroke-linecap="round" stroke-linejoin="round"/>
<path d="M108.014 58.0703L99.4566 62.9993C98.4285 63.5889 98.4285 64.5717 99.4566 65.1613L110.811 71.7081C111.839 72.2977 113.533 72.2977 114.561 71.7081L123.542 66.5221" stroke="#808080" stroke-width="0.13" stroke-linecap="round" stroke-linejoin="round"/>
<path d="M110.493 58.511L108.89 57.5888C107.877 56.9991 106.214 56.984 105.171 57.5283L103.84 58.3447L94.6327 63.9994C92.9091 64.9973 92.6369 66.9023 92.5462 70.1984C92.5159 71.4382 93.03 72.4209 93.9069 72.9652L107.378 81.0088C109.208 82.0671 112.201 82.0974 114.061 81.0995L124.66 75.3541L124.856 75.2029C125.733 74.6586 126.263 73.6758 126.217 72.436C126.187 71.5591 126.126 70.788 126.036 70.1077" stroke="black" stroke-width="0.4" stroke-linecap="round" stroke-linejoin="round"/>
<path d="M104.233 65.3759L104.369 64.4687L103.507 64.9676L103.189 64.7862L104.535 64L104.837 64.1814L104.701 65.0584L105.533 64.5745L105.85 64.756L104.505 65.5422L104.233 65.3759Z" fill="#BCBEC0"/>
<path d="M110.704 69.1102L110.84 68.2031L109.993 68.702L109.676 68.5206L111.006 67.7344L111.309 67.9158L111.173 68.7927L112.004 68.3089L112.322 68.4903L110.976 69.2766L110.704 69.1102Z" fill="#BCBEC0"/>
<path d="M106.894 66.919L106.637 66.7678L107.408 65.6641L107.756 65.8606L107.166 66.6166L108.481 66.284L108.814 66.4654L106.894 66.919Z" fill="#BCBEC0"/>
<path d="M108.935 66.5391L109.253 66.7356L107.922 67.5067L107.59 67.3253L108.935 66.5391Z" fill="#BCBEC0"/>
<path d="M105.987 65.319L105.669 65.1376C105.79 65.0922 105.956 65.0469 106.123 65.0469C106.365 65.0469 106.546 65.1225 106.758 65.2434C106.969 65.3644 107.105 65.4853 107.121 65.6214C107.121 65.7273 107.075 65.8331 106.909 65.9389L106.047 66.4379L105.73 66.2564L105.85 66.1808C105.85 66.1808 105.73 66.1808 105.548 66.1355C105.397 66.1052 105.276 66.0448 105.155 65.9692C105.004 65.8784 104.958 65.7877 104.943 65.697C104.928 65.6063 105.004 65.5005 105.125 65.4249C105.276 65.3341 105.412 65.2888 105.624 65.3341C105.82 65.3644 105.971 65.4551 106.168 65.5609L106.546 65.7877C106.712 65.6819 106.803 65.5307 106.546 65.3795C106.365 65.2737 106.153 65.2888 106.002 65.3341M105.971 65.7121C105.775 65.6063 105.578 65.5458 105.457 65.6214C105.291 65.7273 105.442 65.8331 105.503 65.8633C105.669 65.954 105.835 66.0145 105.971 66.0145C106.123 66.0145 106.213 65.9692 106.319 65.9087C106.319 65.9087 106.047 65.7575 105.971 65.7121Z" fill="#BCBEC0"/>
<path d="M108.995 67.9032C108.768 67.7822 108.783 67.6159 108.95 67.4949C108.95 67.4949 108.98 67.4798 109.01 67.4647L110.084 68.0846C110.325 67.9485 110.462 67.7973 110.492 67.6461C110.522 67.4798 110.416 67.3437 110.174 67.2077C109.963 67.0867 109.721 67.0262 109.464 67.0413C109.192 67.0413 108.965 67.1169 108.768 67.2228C108.541 67.3589 108.436 67.4949 108.436 67.6461C108.436 67.7822 108.541 67.9183 108.753 68.0392C108.95 68.1451 109.161 68.2055 109.388 68.2207C109.569 68.2207 109.751 68.2055 109.902 68.1451L109.585 67.9636C109.403 68.009 109.176 67.9939 108.995 67.888M109.947 67.3437C110.174 67.4647 110.159 67.631 109.993 67.752L109.252 67.3286C109.464 67.2228 109.736 67.2228 109.947 67.3589" fill="#BCBEC0"/>
<path d="M126.02 70.0737C125.778 68.1989 125.249 67.0044 123.979 66.2787L110.492 58.4922" stroke="black" stroke-width="0.2" stroke-linecap="round" stroke-linejoin="round"/>
<path d="M102.057 75.9254L96.9008 78.9039C96.2809 79.2668 95.3889 78.9039 94.9202 78.0874C94.4515 77.271 94.5724 76.3336 95.1923 75.9707L100.348 72.9922" fill="white"/>
<path d="M102.057 75.9254L96.9008 78.9039C96.2809 79.2668 95.3889 78.9039 94.9202 78.0874C94.4515 77.271 94.5724 76.3336 95.1923 75.9707L100.348 72.9922" stroke="black" stroke-width="0.4" stroke-linecap="round" stroke-linejoin="round"/>
<path d="M95.207 75.9688C95.8269 75.6059 96.719 75.9688 97.1877 76.7852C97.6564 77.6017 97.5354 78.5391 96.9155 78.9019" stroke="black" stroke-width="0.15" stroke-linecap="round" stroke-linejoin="round"/>
<path d="M100.363 72.9922C100.983 72.6294 101.875 72.9922 102.344 73.8087C102.813 74.6251 102.692 75.5625 102.072 75.9254" fill="white"/>
<path d="M100.363 72.9922C100.983 72.6294 101.875 72.9922 102.344 73.8087C102.813 74.6251 102.692 75.5625 102.072 75.9254" stroke="black" stroke-width="0.25" stroke-linecap="round" stroke-linejoin="round"/>
<path d="M110.492 58.5097L112.261 57.5118C112.518 57.3606 112.942 57.3606 113.199 57.5118L127.849 65.9636C128.106 66.1148 128.318 66.4777 128.318 66.78V68.2315C128.318 68.5339 128.106 68.8968 127.849 69.048L126.02 70.0912" stroke="black" stroke-width="0.4" stroke-linecap="round" stroke-linejoin="round"/>
<path d="M34.684 96.7948C31.524 96.7948 29.377 96.0842 27.986 95.298C25.3553 93.8314 23.8433 91.2913 23.8282 88.3128C23.8131 84.3062 26.4136 80.239 30.4505 77.9258C30.9192 77.6536 31.3728 78.2886 31.524 78.5608C31.6752 78.8329 31.9776 79.5284 31.524 79.8006C28.1524 81.7207 25.9752 85.0621 25.9903 88.2977C25.9903 90.5051 27.0789 92.3346 29.0444 93.4232C31.8717 94.9956 40.8224 97.2484 62.5037 83.9735C63.0178 83.656 63.6679 83.8223 63.9854 84.3364C64.2878 84.8353 64.1366 85.5006 63.6226 85.8181C49.5312 94.4362 40.4293 96.7948 34.6991 96.7948H34.684Z" fill="white" stroke="black" stroke-width="0.4" stroke-linecap="round" stroke-linejoin="round"/>
<path d="M63.2739 85.2555C63.0622 85.2555 62.8506 85.1951 62.6843 85.0741C62.0795 85.0892 61.5957 84.6508 61.5503 84.0611C61.5201 83.4715 61.9585 82.9574 62.5482 82.912C62.7447 82.912 62.9564 82.8818 63.153 82.8667C64.6649 81.6118 66.1013 80.2208 67.5074 78.86C69.7753 76.6677 72.1037 74.4149 74.7193 72.7518C78.6806 70.2268 82.3849 69.5767 84.8796 70.9677C86.2555 71.7388 87.0719 73.0995 87.0568 74.6115C87.0417 76.6677 85.5449 78.6786 83.0502 79.994C77.8037 82.776 73.5098 84.2577 63.9845 84.9683C63.9845 84.9683 63.9543 84.9834 63.9392 84.9985C63.7426 85.1497 63.5007 85.2404 63.2739 85.2404V85.2555ZM81.8708 72.4191C80.5403 72.4191 78.5748 72.8727 75.8835 74.5812C73.4493 76.1234 71.2872 78.2099 69.0042 80.4324C68.2633 81.1431 67.5225 81.8688 66.7514 82.5794C73.9331 81.8234 77.5467 80.4929 82.0523 78.104C83.8364 77.1666 84.8947 75.8513 84.9098 74.5963C84.9098 73.8555 84.5319 73.2507 83.8364 72.8576C83.5491 72.6913 82.899 72.4191 81.8708 72.4191Z" fill="white" stroke="black" stroke-width="0.4" stroke-linecap="round" stroke-linejoin="round"/>
<path d="M66.7513 82.5781C66.5245 82.8049 64.9219 84.1052 64.9219 84.1052L66.7513 82.5781Z" fill="white"/>
<path d="M66.7513 82.5781C66.5245 82.8049 64.9219 84.1052 64.9219 84.1052" stroke="black" stroke-width="0.4" stroke-linecap="round" stroke-linejoin="round"/>
<path d="M43.6043 99.6909C39.7035 99.6909 38.252 97.6497 38.1915 95.7296C38.0404 90.9669 46.0839 83.891 61.5813 82.9839L62.549 82.9234C63.1386 82.8932 63.6376 83.3165 63.698 83.9062C64.1819 83.8306 64.6808 84.1178 64.8622 84.6017C65.0588 85.1611 64.7715 85.781 64.2272 85.9775C63.4108 86.2799 62.7002 86.7789 61.9291 87.6104C53.9914 96.2587 48.881 99.6455 43.6799 99.6757H43.6043V99.6909ZM61.415 85.1611C47.1876 86.0682 40.2327 92.3579 40.3385 95.6691C40.399 97.3927 42.7274 97.5439 43.6648 97.5439C47.4446 97.5137 51.7234 95.5784 60.3415 86.1741C60.6893 85.781 61.0521 85.4483 61.415 85.1611Z" fill="white" stroke="black" stroke-width="0.4" stroke-linecap="round" stroke-linejoin="round"/>
<path d="M64.4538 85.6065C64.0154 85.6065 63.6072 85.3344 63.4408 84.8959C63.2443 84.3365 63.5316 83.7166 64.0759 83.52C64.8772 83.2327 65.6936 83.0816 66.6915 82.9606C67.8708 82.8094 69.3072 82.7943 70.9552 82.7943C76.6401 82.7489 85.2431 82.6884 95.0707 76.7919C95.5848 76.4895 96.2349 76.6558 96.5524 77.1547C96.8548 77.6688 96.6885 78.3189 96.1896 78.6364C85.863 84.8354 76.9123 84.8959 70.9854 84.9412C69.3979 84.9412 68.022 84.9564 66.9637 85.0924C66.1019 85.1983 65.4366 85.3192 64.8167 85.546C64.6958 85.5914 64.5748 85.6065 64.4538 85.6065Z" fill="white" stroke="black" stroke-width="0.4" stroke-linecap="round" stroke-linejoin="round"/>
<path d="M61.4004 85.1498C62.3378 84.2124 63.9707 83.4866 64.6964 83.3203" stroke="black" stroke-width="0.4" stroke-linecap="round" stroke-linejoin="round"/>
<path d="M64.2283 87.1031C64.2283 87.1031 64.1678 87.1031 64.1376 87.1031C63.6235 87.0578 63.2456 86.6042 63.306 86.0901C63.4572 84.5479 63.0036 83.5803 61.9453 83.2477C61.4615 83.0813 61.1893 82.5673 61.3556 82.0683C61.5219 81.5845 62.036 81.3124 62.5349 81.4787C64.44 82.0986 65.4076 83.8524 65.1657 86.2715C65.1204 86.7554 64.7121 87.1182 64.2434 87.1182L64.2283 87.1031Z" fill="white" stroke="black" stroke-width="0.4" stroke-linecap="round" stroke-linejoin="round"/>
<path d="M83.9434 0.829588C84.4121 0.557438 85.1076 0.890066 85.4855 1.55532C85.8786 2.22058 85.8031 2.99167 85.3495 3.26382" stroke="black" stroke-width="0.13" stroke-linecap="round" stroke-linejoin="round"/>
<path d="M82.1745 6.25843C82.6583 5.97116 82.8851 5.3815 82.8397 4.70113L86.0904 2.82632C86.5591 2.55417 86.6196 1.7982 86.2265 1.11782C85.8334 0.452566 85.153 0.119938 84.6843 0.392088L81.4336 2.2669C80.8591 1.88891 80.2392 1.78308 79.7402 2.07035" stroke="black" stroke-width="0.4" stroke-linecap="round" stroke-linejoin="round"/>
</g>
<defs>
<clipPath id="clip0_212_26730">
<rect width="128.636" height="100" fill="white"/>
</clipPath>
</defs>
</svg>
