<svg width="72" height="72" viewBox="0 0 72 72" fill="none" xmlns="http://www.w3.org/2000/svg">
<path d="M26.2506 53.3597C26.2506 55.1197 24.8206 56.5397 23.0706 56.5397C21.3206 56.5397 19.8906 55.1197 19.8906 53.3597C19.8906 51.5997 21.3106 50.1797 23.0706 50.1797C24.8306 50.1797 26.2506 51.6097 26.2506 53.3597Z" fill="black"/>
<path d="M23.6905 29.3496H22.2305V51.3896H23.6905V29.3496Z" fill="black"/>
<path d="M19.5698 47.4695C19.1698 47.4695 18.8398 47.1395 18.8398 46.7395V23.6395C18.8398 21.3695 20.6898 19.5195 22.9598 19.5195C25.2298 19.5195 27.0798 21.3695 27.0798 23.6395V46.6395C27.0798 47.0395 26.7498 47.3695 26.3498 47.3695C25.9498 47.3695 25.6198 47.0395 25.6198 46.6395V23.6395C25.6198 22.1695 24.4298 20.9795 22.9598 20.9795C21.4898 20.9795 20.2998 22.1695 20.2998 23.6395V46.7395C20.2998 47.1395 19.9698 47.4695 19.5698 47.4695Z" fill="black"/>
<path d="M25.6417 45.7305V47.2805C28.0017 48.2905 29.6617 50.6305 29.6617 53.3605C29.6617 57.0005 26.7017 59.9605 23.0617 59.9605C19.4217 59.9605 16.4617 57.0005 16.4617 53.3605C16.4617 50.7005 18.0417 48.4105 20.3117 47.3705V45.8005C17.2217 46.9305 15.0117 49.8905 15.0117 53.3605C15.0117 57.8005 18.6317 61.4205 23.0717 61.4205C27.5117 61.4205 31.1317 57.8005 31.1317 53.3605C31.1317 49.8205 28.8317 46.8105 25.6517 45.7305" fill="black"/>
<path d="M37.6587 21.1699H29.7188V22.6299H37.6587V21.1699Z" fill="black"/>
<path d="M37.6587 33.3008H29.7188V34.7608H37.6587V33.3008Z" fill="black"/>
<path d="M33.7087 25.1602H29.7188V26.6202H33.7087V25.1602Z" fill="black"/>
<path d="M33.7087 29.2109H29.7188V30.6709H33.7087V29.2109Z" fill="black"/>
<path d="M33.7087 37.3008H29.7188V38.7608H33.7087V37.3008Z" fill="black"/>
<path d="M33.7087 41.3906H29.7188V42.8506H33.7087V41.3906Z" fill="black"/>
<path d="M47.5302 30.06C47.7402 30.06 47.9402 30.14 48.0902 30.28C48.2502 30.43 48.3402 30.64 48.3402 30.87V33.57C49.9802 32.61 53.0202 30.46 54.7602 26.95C55.7702 25.07 56.2602 23.11 56.2302 21.09V20.92C56.2302 15.76 52.1002 11.62 47.0002 11.62C41.9002 11.62 37.7702 15.76 37.7702 20.86C37.7702 25.96 41.9102 30.1 47.0002 30.1C47.1002 30.1 47.2002 30.1 47.3002 30.08H47.4802C47.4802 30.08 47.5102 30.07 47.5202 30.07M47.5202 35.73C47.3602 35.73 47.2102 35.69 47.0802 35.6C46.8502 35.45 46.7202 35.2 46.7202 34.92V31.71C40.8702 31.56 36.1602 26.75 36.1602 20.86C36.1602 14.97 41.0202 10 47.0102 10C53.0002 10 57.8602 14.87 57.8602 20.85C57.8602 20.91 57.8602 20.97 57.8602 21.03L57.0502 21.07H57.8602C57.9002 23.35 57.3402 25.59 56.2102 27.69C53.4902 33.17 48.0902 35.55 47.8602 35.65C47.7602 35.69 47.6502 35.72 47.5402 35.72" fill="black"/>
<path d="M48.7592 24.0598C48.3092 24.0598 47.9492 23.6998 47.9492 23.2498V14.4598C47.9492 14.1398 48.1392 13.8498 48.4292 13.7198C48.7192 13.5898 49.0592 13.6398 49.2992 13.8498L53.0692 17.2198C53.3992 17.5198 53.4292 18.0298 53.1292 18.3598C52.8292 18.6898 52.3192 18.7198 51.9892 18.4198L49.5692 16.2598V23.2398C49.5692 23.6898 49.2092 24.0498 48.7592 24.0498" fill="black"/>
<path d="M44.8386 22.4208C44.0586 22.4208 43.4286 23.0508 43.4286 23.8308C43.4286 24.6108 44.0586 25.2408 44.8386 25.2408H46.5686C47.3486 25.2408 47.9786 24.6108 47.9786 23.8308C47.9786 23.0508 47.3486 22.4208 46.5686 22.4208H44.8386ZM46.5686 26.8608H44.8386C43.1686 26.8608 41.8086 25.5008 41.8086 23.8308C41.8086 22.1608 43.1686 20.8008 44.8386 20.8008H46.5686C48.2386 20.8008 49.5986 22.1608 49.5986 23.8308C49.5986 25.5008 48.2386 26.8608 46.5686 26.8608Z" fill="black"/>
</svg>
