<svg width="72" height="72" viewBox="0 0 72 72" fill="none" xmlns="http://www.w3.org/2000/svg">
<path d="M54.1818 33.7045L55.6136 22.25L50.8409 17H20.7727L16 22.25C16.3182 28.9318 19.1916 43.3572 25.0682 50.4091C27.4545 53.2727 33.1818 57.5682 34.1364 58.0455" stroke="#222222" stroke-width="2" stroke-linecap="round" stroke-linejoin="round"/>
<path d="M31.75 44.2035C31.75 51.1185 37.3862 56.7717 40.409 58.9989C36.9726 50.9808 39.2953 48.0217 40.8863 47.5444C40.409 49.4535 42.7273 54.2262 46.0682 52.7944C50.0387 51.0927 46.9317 45.3171 45.659 43.7262C47.1863 43.7262 48.9318 44.2035 50.4317 45.6353C53.9314 48.9762 51.5453 55.658 50.4317 58.5217C53.8681 55.0853 55.3635 52.3171 55.6817 51.3626C57.5908 42.7717 54.2499 41.3398 51.8635 36.0898C49.9544 31.8898 50.4317 27.3398 50.909 25.5898C48.9999 25.5898 43.7499 28.9308 43.7499 35.1353C43.7499 39.4308 42.7953 42.2944 39.9317 42.2944C37.6408 42.2944 37.3863 37.5217 37.5453 35.1353C36.1135 35.1353 31.75 38.9535 31.75 44.2035Z" stroke="#222222" stroke-width="2" stroke-linejoin="round"/>
</svg>
