<svg width="78" height="60" viewBox="0 0 78 60" fill="none" xmlns="http://www.w3.org/2000/svg">
<g clip-path="url(#clip0_212_33385)">
<path d="M48.5367 3.6835C48.8239 3.51429 48.9585 3.16695 48.9316 2.76618L50.8612 1.66183C51.1394 1.50152 51.1753 1.05622 50.942 0.65545C50.7086 0.263584 50.3048 0.0676511 50.0265 0.22796L48.097 1.33231C47.7559 1.10966 47.3879 1.04732 47.1008 1.21653L45.7904 1.89339L44.0224 2.90868L43.08 3.51429C42.8826 3.63007 42.7659 3.826 42.7121 4.05756L40.7286 5.25987C40.3697 5.46471 40.3248 6.05251 40.6209 6.56015C40.9171 7.0767 41.4556 7.32607 41.8146 7.12124L43.8608 6.01689C44.0942 6.08813 44.3275 6.07923 44.525 5.97236L45.5302 5.46471L47.2982 4.44942L48.5457 3.66569L48.5367 3.6835Z" fill="white"/>
<path d="M43.0864 3.52815L44.0288 2.92254L45.7968 1.90725L47.1071 1.23039C47.5828 0.954306 48.2918 1.28383 48.6867 1.96959C49.0816 2.64645 49.0188 3.42128 48.5431 3.69737L47.2956 4.4811L45.5276 5.49639L44.5224 6.00403C44.0467 6.28012 43.3377 5.94169 42.9428 5.26483C42.5479 4.58797 42.6108 3.81315 43.0864 3.53706V3.52815Z" stroke="black" stroke-width="0.25" stroke-linecap="round" stroke-linejoin="round"/>
<path d="M44.0586 2.92019C44.5522 2.63519 45.2792 2.98253 45.683 3.6772C46.0869 4.37187 46.0241 5.17342 45.5305 5.45841" stroke="#808080" stroke-width="0.13" stroke-linecap="round" stroke-linejoin="round"/>
<path d="M44.5703 2.63112C45.0639 2.34613 45.7909 2.69347 46.1948 3.38814C46.5986 4.09172 46.5358 4.88435 46.0422 5.16935" stroke="#808080" stroke-width="0.13" stroke-linecap="round" stroke-linejoin="round"/>
<path d="M45.082 2.33425C45.5756 2.04926 46.3026 2.39659 46.7065 3.09126C47.1103 3.79484 47.0475 4.58748 46.5539 4.87247" stroke="#808080" stroke-width="0.13" stroke-linecap="round" stroke-linejoin="round"/>
<path d="M43.5469 3.21706C44.0405 2.93207 44.7674 3.2794 45.1713 3.97408C45.5752 4.67765 45.5124 5.47029 45.0187 5.75528" stroke="#808080" stroke-width="0.13" stroke-linecap="round" stroke-linejoin="round"/>
<path d="M44.5258 5.98527C45.0015 5.70918 45.0643 4.94326 44.6694 4.2575C44.2745 3.58064 43.5655 3.24221 43.0898 3.5183" stroke="#808080" stroke-width="0.13" stroke-linecap="round" stroke-linejoin="round"/>
<path d="M40.7365 5.2688C40.3775 5.47364 40.3326 6.06143 40.6288 6.56908C40.9249 7.08563 41.4634 7.335 41.8224 7.13016L44.1828 5.8566C44.5687 5.63394 44.6136 5.01943 44.2995 4.46725C43.9853 3.92398 43.4109 3.6568 43.034 3.87055L40.7454 5.2688H40.7365Z" fill="white" stroke="black" stroke-width="0.13" stroke-linecap="round" stroke-linejoin="round"/>
<path d="M40.7383 5.27472C41.0973 5.06988 41.6268 5.31925 41.9319 5.8358C42.2281 6.35235 42.1832 6.93124 41.8242 7.13608" stroke="black" stroke-width="0.13" stroke-linecap="round" stroke-linejoin="round"/>
<path d="M49.5938 0.493585C49.872 0.333276 50.2848 0.529209 50.5092 0.921075C50.7336 1.31294 50.6977 1.76715 50.4284 1.92746" stroke="black" stroke-width="0.13" stroke-linecap="round" stroke-linejoin="round"/>
<path d="M42.1719 4.42021C42.5219 4.20647 43.0604 4.45584 43.3655 4.9813C43.4822 5.18613 43.545 5.39988 43.554 5.60472" stroke="#808080" stroke-width="0.13" stroke-linecap="round" stroke-linejoin="round"/>
<path d="M41.6875 4.70146C42.0375 4.48772 42.567 4.73709 42.8722 5.26254C42.9888 5.46738 43.0517 5.67222 43.0606 5.86816" stroke="#808080" stroke-width="0.13" stroke-linecap="round" stroke-linejoin="round"/>
<path d="M41.2031 4.98566C41.5442 4.78082 42.0647 5.03019 42.3698 5.54674C42.4865 5.74267 42.5404 5.94751 42.5583 6.14344" stroke="#808080" stroke-width="0.13" stroke-linecap="round" stroke-linejoin="round"/>
<path d="M48.5356 3.6835C48.8228 3.51429 48.9574 3.16695 48.9304 2.76618L50.86 1.66183C51.1382 1.50152 51.1741 1.05622 50.9408 0.65545C50.7075 0.263584 50.3036 0.0676511 50.0254 0.22796L48.0958 1.33231C47.7547 1.10966 47.3868 1.04732 47.0996 1.21653L43.0879 3.51429C42.8904 3.63007 42.7737 3.826 42.7199 4.05756L40.7365 5.25987C40.3775 5.46471 40.3326 6.05251 40.6288 6.56015C40.9249 7.0767 41.4634 7.32607 41.8224 7.12124L43.8687 6.01689C44.102 6.08813 44.3353 6.07923 44.5328 5.97236L48.5445 3.6746L48.5356 3.6835Z" stroke="black" stroke-width="0.4" stroke-linecap="round" stroke-linejoin="round"/>
<path d="M23.046 28.3001C22.8216 28.3001 22.6152 28.1844 22.4985 27.9795C22.337 27.6856 22.4536 27.3116 22.7588 27.1602C32.2003 22.2173 36.8492 18.8686 42.629 12.8303C47.0895 8.18139 52.6628 6.49815 57.5182 8.32388C61.1171 9.6776 63.5223 12.7324 63.639 16.1078C63.7736 19.9819 60.8837 23.5621 55.7053 25.94C55.3911 26.0825 55.0322 25.94 54.8886 25.6461C54.745 25.3433 54.8886 24.9782 55.1847 24.8357C59.9593 22.6537 62.5171 19.5722 62.4005 16.1612C62.3017 13.2845 60.2106 10.6573 57.0694 9.47276C52.6897 7.81624 47.61 9.39261 43.4995 13.6764C37.6121 19.8216 32.8913 23.2237 23.3062 28.2378C23.2165 28.2823 23.1178 28.309 23.019 28.309L23.046 28.3001Z" stroke="black" stroke-width="0.4" stroke-linecap="round" stroke-linejoin="round"/>
<path d="M23.4253 24.0795C16.4608 33.4753 9.1733 37.9729 2.99864 37.3405C2.63964 37.3049 2.32553 37.5632 2.28065 37.9105C2.24475 38.2668 2.50502 38.5785 2.86401 38.6141C9.47844 39.2999 17.2506 34.5886 24.4664 24.8454C31.4398 15.4406 35.7656 11.9049 39.3466 12.6708C39.6966 12.7421 40.0376 12.5283 40.1184 12.181C40.1902 11.8336 39.9658 11.4863 39.6248 11.4151C35.4336 10.5155 30.8295 14.0869 23.4253 24.0795Z" fill="white"/>
<path d="M33.1963 13.3594C30.109 15.5057 27.5601 18.5071 23.4227 24.0822C16.4583 33.4781 9.17076 37.9757 2.99609 37.3433" stroke="black" stroke-width="0.4" stroke-linecap="round" stroke-linejoin="round"/>
<path d="M2.86328 38.6192C9.47771 39.3049 17.2499 34.5936 24.4656 24.8504C27.6248 20.5844 29.4197 18.2065 31.8968 16.0156" stroke="black" stroke-width="0.4" stroke-linecap="round" stroke-linejoin="round"/>
<path d="M38.8502 11.9192C38.7784 12.2665 39.0028 12.6049 39.3438 12.6851C40.7439 12.9879 41.4619 13.6915 41.4709 14.778C41.4978 18.3048 35.5385 24.3075 20.4429 27.7986C9.17054 30.4081 2.25994 35.9209 2.50226 40.1068C2.54714 40.9618 3.0228 42.4223 5.60755 42.7162C5.96654 42.7519 6.28066 42.5025 6.32553 42.1552C6.36143 41.7989 6.11013 41.4872 5.76012 41.4427C4.50364 41.3002 3.83951 40.8282 3.79464 40.0444C3.63309 37.2301 8.98207 31.7796 20.7391 29.0544C36.6963 25.3584 42.7991 18.8302 42.7632 14.778C42.7453 13.0858 41.6055 11.8657 39.622 11.4382C39.272 11.3581 38.931 11.5807 38.8502 11.9281" fill="white"/>
<path d="M5.76981 41.4341C4.51333 41.2916 3.8492 40.8196 3.80432 40.0359C3.64278 37.2216 9.00074 31.7711 20.7488 29.0458C36.7059 25.3498 42.8088 18.8217 42.7729 14.7695C42.755 13.0773 41.6152 11.8572 39.6317 11.4297" stroke="black" stroke-width="0.4" stroke-linecap="round" stroke-linejoin="round"/>
<path d="M21.8793 28.7656C14.861 38.9363 10.3018 41.9466 5.76953 41.43" stroke="black" stroke-width="0.4" stroke-linecap="round" stroke-linejoin="round"/>
<path d="M5.61719 42.7059C10.6162 43.2759 15.5972 40.328 23.6206 28.3672" stroke="black" stroke-width="0.4" stroke-linecap="round" stroke-linejoin="round"/>
<path d="M40.7091 5.75147C35.6922 8.54797 33.7267 11.1842 31.1419 15.7173C28.27 20.7403 26.5917 24.6501 20.785 25.7901C4.28035 29.0319 0.0442408 33.2979 0.178863 36.2903C0.241686 37.5817 1.23789 38.4544 2.86233 38.6148C3.21235 38.6593 3.53544 38.401 3.57134 38.0448C3.60724 37.6885 3.34697 37.3768 2.99695 37.3412C2.44051 37.2878 1.51611 37.0651 1.47123 36.2368C1.38149 34.1617 4.86371 30.2342 21.0273 27.0547C27.4174 25.799 29.2393 21.6398 32.2548 16.3497C34.7498 11.9768 36.6614 9.47419 41.3283 6.87363C41.6424 6.70441 41.7322 6.37489 41.5617 6.07209C41.3911 5.76928 41.0142 5.58225 40.7001 5.75147" fill="white"/>
<path d="M2.99695 37.3334C2.44051 37.2799 1.51611 37.0573 1.47123 36.229C1.38149 34.1539 4.86371 30.2264 21.0273 27.0469C27.4174 25.7912 29.2393 21.632 32.2548 16.3418C34.7498 11.9779 36.6614 9.46638 41.3283 6.86582C41.6424 6.6966 41.7322 6.36708 41.5617 6.06427C41.3911 5.76147 41.0142 5.57444 40.7001 5.74366C35.6832 8.54015 33.7177 11.1763 31.1329 15.7095C28.261 20.7325 26.5827 24.6423 20.776 25.7822C4.28035 29.033 0.0442409 33.2989 0.178863 36.2914C0.232712 37.5382 1.17507 38.3932 2.70078 38.598" stroke="black" stroke-width="0.4" stroke-linecap="round" stroke-linejoin="round"/>
<path d="M39.3555 12.6719C40.7556 12.9747 41.4736 13.6783 41.4826 14.7648C41.5095 18.2916 35.5502 24.2943 20.4546 27.7854C9.19123 30.3949 2.27166 35.9077 2.51398 40.1025C2.55885 40.9575 3.03451 42.4181 5.61926 42.712" stroke="black" stroke-width="0.4" stroke-linecap="round" stroke-linejoin="round"/>
<path d="M23.9636 29.6942C23.9098 29.6942 23.8649 29.6763 23.8111 29.6585C23.5328 29.5517 23.3982 29.24 23.5059 28.9728C23.7931 28.2514 23.6675 27.2984 23.2008 26.5414C22.9674 26.1585 22.4289 25.5172 21.5494 25.4371C21.2532 25.4104 21.0378 25.1521 21.0648 24.8582C21.0917 24.5643 21.352 24.3505 21.6481 24.3773C22.6354 24.4663 23.5328 25.0541 24.1162 25.9892C24.7714 27.0313 24.9239 28.3315 24.5111 29.3735C24.4213 29.5962 24.197 29.7298 23.9636 29.712V29.6942Z" fill="white" stroke="black" stroke-width="0.4" stroke-linecap="round" stroke-linejoin="round"/>
<path d="M39.6231 11.4166C38.1333 11.096 36.5986 11.3365 34.9023 12.2271" stroke="black" stroke-width="0.4" stroke-linecap="round" stroke-linejoin="round"/>
<path d="M32.9805 15.1113C35.4755 13.0183 37.5127 12.2791 39.3526 12.671" stroke="black" stroke-width="0.4" stroke-linecap="round" stroke-linejoin="round"/>
<path d="M69.7267 35.7969L68.7305 36.3669" stroke="#808080" stroke-width="0.13" stroke-linecap="round" stroke-linejoin="round"/>
<path d="M71.0157 36.5391L70.0195 37.109" stroke="#808080" stroke-width="0.13" stroke-linecap="round" stroke-linejoin="round"/>
<path d="M72.3204 37.2812L71.3242 37.8512" stroke="#808080" stroke-width="0.13" stroke-linecap="round" stroke-linejoin="round"/>
<path d="M73.6212 38.0312L72.625 38.6012" stroke="#808080" stroke-width="0.13" stroke-linecap="round" stroke-linejoin="round"/>
<path d="M74.922 38.7656L73.9258 39.3356" stroke="#808080" stroke-width="0.13" stroke-linecap="round" stroke-linejoin="round"/>
<path d="M76.9216 39.9141L75.2344 40.8848" stroke="#808080" stroke-width="0.13" stroke-linecap="round" stroke-linejoin="round"/>
<path d="M66.3242 35.7734C67.5448 36.1119 68.9718 36.6908 70.5872 37.617C73.181 39.1043 74.8682 40.5738 76.017 41.8741" stroke="black" stroke-width="0.25" stroke-linecap="round" stroke-linejoin="round"/>
<path d="M64.8086 39.2772C64.8086 38.627 65.6881 38.1016 66.7651 38.1016C67.8421 38.1016 68.7216 38.627 68.7216 39.2772C68.7216 39.9273 67.8421 40.4528 66.7651 40.4528C65.6881 40.4528 64.8086 39.9273 64.8086 39.2772Z" stroke="#B3B3B3" stroke-width="0.2" stroke-linecap="round" stroke-linejoin="round"/>
<path d="M65.7754 36.4375L64.5279 37.15L63.9446 36.9362C63.801 36.8828 63.7023 36.8383 63.6574 36.8026C63.6125 36.767 63.6035 36.7225 63.6125 36.678C63.6305 36.6334 63.6753 36.5889 63.7471 36.5444C63.8369 36.4909 63.9446 36.4553 64.0702 36.4464C64.1959 36.4375 64.3215 36.4464 64.4561 36.482C64.4292 36.4464 64.4113 36.4019 64.4113 36.3662C64.4113 36.3306 64.4292 36.2683 64.4561 36.197L64.5279 35.9922L64.86 36.1169L64.7882 36.3484C64.7613 36.4286 64.7523 36.482 64.7523 36.5087C64.7523 36.5355 64.7613 36.5533 64.7882 36.5711C64.8062 36.5889 64.851 36.6067 64.9139 36.6334L64.9677 36.6512L65.4882 36.3484L65.7665 36.4464L65.7754 36.4375ZM64.7792 36.7492L64.5728 36.678C64.4382 36.6334 64.3484 36.5978 64.3036 36.5978C64.2587 36.5978 64.2138 36.5978 64.1689 36.5978C64.1241 36.5978 64.0882 36.6156 64.0523 36.6423C64.0074 36.669 63.9894 36.6869 63.9894 36.7136C63.9894 36.7403 64.0074 36.7581 64.0433 36.7759C64.0612 36.7848 64.133 36.8115 64.2407 36.8561L64.4561 36.9362L64.7703 36.7581L64.7792 36.7492Z" fill="#B3B3B3"/>
<path d="M71.9702 39.6303L70.6599 40.3606L70.3906 40.2003L71.4766 39.5947L70.8035 39.2028L71.0278 39.0781L71.9702 39.6303Z" fill="#B3B3B3"/>
<path d="M66.3236 35.7733L68.0199 34.8203L76.9229 39.9235V41.3573L76.0074 41.8739C76.878 42.8625 77.4344 43.7531 77.8114 44.4656C77.5601 44.6348 77.2998 44.7951 77.0216 44.9465C71.8072 47.9211 65.1569 48.3931 60.5349 45.7926C55.9129 43.1831 56.7206 38.4985 61.935 35.5239C62.617 35.3012 64.1338 35.1676 66.3147 35.7733H66.3236Z" stroke="black" stroke-width="0.4" stroke-linecap="round" stroke-linejoin="round"/>
<path d="M61.1996 46.13C61.4061 45.3641 61.6215 44.7228 61.774 44.233C61.9805 43.6096 61.8907 43.2444 61.5586 42.9861C61.1278 42.6566 60.3291 42.719 59.5932 43.1108L58.3008 43.85C58.3008 44.99 59.7906 46.1389 61.1996 46.1389V46.13Z" fill="white"/>
<path d="M59.9062 45.8281C60.3191 46.0152 60.7678 46.1309 61.2076 46.1309" stroke="black" stroke-width="0.4" stroke-linecap="round" stroke-linejoin="round"/>
<path d="M58.4258 44.4219C58.6681 44.9919 59.2245 45.5084 59.8976 45.8201" stroke="black" stroke-width="0.25" stroke-linecap="round" stroke-linejoin="round"/>
<path d="M58.3086 43.8438C58.3086 44.0397 58.3535 44.2356 58.4342 44.4226" stroke="black" stroke-width="0.4" stroke-linecap="round" stroke-linejoin="round"/>
<path d="M59.9073 42.9453C59.7996 42.9898 59.6919 43.0344 59.5932 43.0967L58.3008 43.8359" stroke="black" stroke-width="0.25" stroke-linecap="round" stroke-linejoin="round"/>
<path d="M61.1998 46.1367C61.4062 45.3618 61.6216 44.7206 61.7831 44.2308C61.9896 43.5984 61.8998 43.2333 61.5588 42.975C61.1818 42.69 60.5446 42.69 59.8984 42.9483" stroke="black" stroke-width="0.13" stroke-linecap="round" stroke-linejoin="round"/>
<path d="M60.2219 45.6509L56.955 47.5301C56.596 47.7349 56.0845 47.5301 55.8152 47.067C55.546 46.6038 55.6178 46.0606 55.9768 45.8557L59.2436 43.9766" fill="white"/>
<path d="M60.2219 45.6509L56.955 47.5301C56.596 47.7349 56.0845 47.5301 55.8152 47.067C55.546 46.6038 55.6178 46.0606 55.9768 45.8557L59.2436 43.9766" stroke="black" stroke-width="0.4" stroke-linecap="round" stroke-linejoin="round"/>
<path d="M55.9844 45.8684C56.3434 45.6636 56.846 45.8684 57.1152 46.3315C57.3844 46.7947 57.3126 47.329 56.9537 47.5339" stroke="black" stroke-width="0.13" stroke-linecap="round" stroke-linejoin="round"/>
<path d="M59.2422 43.9778C59.6012 43.773 60.1127 43.9778 60.382 44.4409C60.6512 44.904 60.5794 45.4473 60.2204 45.6521" stroke="black" stroke-width="0.25" stroke-linecap="round" stroke-linejoin="round"/>
<path d="M58.793 21.9152C59.2866 21.6302 59.9956 21.9152 60.3636 22.5564C60.7405 23.1976 60.6328 23.9457 60.1392 24.2307L56.0467 26.5819C55.5531 26.8669 54.8441 26.5819 54.4761 25.9407C54.1081 25.2995 54.2069 24.5513 54.7005 24.2664L58.793 21.9152Z" fill="white"/>
<path d="M58.2915 25.3049C58.7851 25.02 58.8839 24.2718 58.5159 23.6306C58.139 22.9894 57.4389 22.7044 56.9453 22.9894L57.3402 22.7667C57.8338 22.4817 58.5428 22.7667 58.9108 23.408C59.2877 24.0492 59.18 24.7973 58.6864 25.0823L58.2915 25.3049Z" fill="#808080"/>
<path d="M57.4673 25.7737C57.9609 25.4887 58.0597 24.7406 57.6917 24.0994C57.3237 23.4581 56.6147 23.1731 56.1211 23.4581L56.516 23.2355C57.0096 22.9505 57.7186 23.2355 58.0866 23.8767C58.4635 24.5179 58.3558 25.266 57.8622 25.551L57.4673 25.7737Z" fill="#808080"/>
<path d="M56.6392 26.2424C57.1328 25.9574 57.2315 25.2093 56.8636 24.5681C56.4866 23.9269 55.7866 23.6419 55.293 23.9269L55.6879 23.7042C56.1815 23.4192 56.8905 23.7042 57.2584 24.3455C57.6354 24.9867 57.5277 25.7348 57.0341 26.0198L56.6392 26.2424Z" fill="#808080"/>
<path d="M58.793 21.9152C59.2866 21.6302 59.9956 21.9152 60.3636 22.5564C60.7405 23.1976 60.6328 23.9457 60.1392 24.2307L56.0467 26.5819C55.5531 26.8669 54.8441 26.5819 54.4761 25.9407C54.1081 25.2995 54.2069 24.5513 54.7005 24.2664L58.793 21.9152Z" stroke="black" stroke-width="0.4" stroke-linecap="round" stroke-linejoin="round"/>
<path d="M59.4317 25.7007C59.3599 25.576 59.2701 25.4424 59.1535 25.3177C58.947 25.0951 58.6778 24.8902 58.4175 24.7388L51.2556 20.6421C50.9146 20.4461 50.5466 20.3125 50.1697 20.2324C49.2991 20.0543 48.3657 20.1879 47.576 20.6421L25.5697 33.2441C25.121 33.5024 24.7171 33.9566 24.5287 34.4108C24.4928 34.491 24.4748 34.5711 24.4569 34.6513L20.1849 37.0915C19.6195 37.421 19.1797 37.9643 19.1797 38.4452V40.556C19.1797 42.4084 20.499 43.7176 21.4413 44.2609L27.1762 47.5472C28.3968 48.2419 30.6495 48.1884 31.8611 47.4938L58.6509 32.1576C60.2035 31.267 60.4099 29.5926 60.4099 28.5952V26.9386C60.4099 26.4577 60.0779 26.0658 59.4406 25.6918L59.4317 25.7007Z" fill="white"/>
<path d="M35.9271 39.9437L30.9282 42.8114C30.1204 43.2745 28.7922 43.2745 27.9844 42.8114L20.1494 38.3228C19.7545 38.1001 19.7545 37.3966 20.1674 37.0938" stroke="#939598" stroke-width="0.13" stroke-linecap="round" stroke-linejoin="round"/>
<path d="M26.4773 32.7195C25.894 33.049 25.3106 33.904 25.894 34.2335L33.3072 38.4817C34.0341 38.9003 34.9226 38.9003 35.6406 38.4817L57.5481 25.9331C58.293 25.5056 58.0597 24.6061 57.3148 24.1875" stroke="#939598" stroke-width="0.13" stroke-linecap="round" stroke-linejoin="round"/>
<path d="M60.3635 26.7422C60.3276 27.0361 60.0942 27.3656 59.7891 27.5348L30.9261 44.0555C30.1184 44.5186 28.7901 44.5186 27.9824 44.0555L19.7256 39.3264C19.3307 39.1038 19.1691 38.7832 19.1602 38.4358" stroke="#221E1F" stroke-width="0.13" stroke-linecap="round" stroke-linejoin="round"/>
<path d="M54.9541 24.4762L54.8374 25.1798L55.5105 24.7969L55.7618 24.9394L54.7118 25.545L54.4695 25.4114L54.5772 24.7256L53.931 25.0997L53.6797 24.9572L54.7297 24.3516L54.9541 24.4762Z" fill="#BCBEC0"/>
<path d="M49.8553 21.5622L49.7476 22.2658L50.4207 21.8828L50.672 22.0253L49.613 22.6309L49.3796 22.4973L49.4873 21.8205L48.8411 22.1856L48.5898 22.0431L49.6399 21.4375L49.8553 21.5622Z" fill="#BCBEC0"/>
<path d="M52.8425 23.2734L53.0579 23.3981L52.4477 24.2531L52.1784 24.1017L52.6361 23.5139L51.604 23.7722L51.3438 23.6297L52.8425 23.2734Z" fill="#BCBEC0"/>
<path d="M51.2474 23.5684L50.9961 23.4259L52.0551 22.8203L52.3064 22.9628L51.2474 23.5684Z" fill="#BCBEC0"/>
<path d="M53.5721 24.529L53.8234 24.6715C53.7336 24.7072 53.599 24.7428 53.4644 24.7428C53.2759 24.7428 53.1323 24.6894 52.9618 24.5914C52.7913 24.4934 52.6836 24.4044 52.6836 24.2975C52.6836 24.2173 52.7195 24.1283 52.8541 24.0481L53.5272 23.6562L53.7785 23.7987L53.6798 23.8522C53.6798 23.8522 53.7785 23.8522 53.9221 23.8878C54.0388 23.9145 54.1375 23.9591 54.2362 24.0125C54.3619 24.0837 54.3888 24.155 54.3978 24.2262C54.4157 24.2975 54.3529 24.3776 54.2542 24.44C54.1375 24.5112 54.0298 24.5469 53.8683 24.5201C53.7157 24.4934 53.59 24.4311 53.4375 24.342L53.1413 24.1728C53.0067 24.253 52.9349 24.3687 53.1413 24.4845C53.2849 24.5647 53.4464 24.5558 53.5721 24.529ZM53.599 24.2351C53.7516 24.3153 53.9131 24.3687 54.0029 24.3064C54.1285 24.2262 54.0208 24.1461 53.967 24.1105C53.8324 24.0303 53.7067 23.9947 53.599 23.9858C53.4824 23.9858 53.4016 24.0214 53.3208 24.0748C53.3208 24.0748 53.5272 24.1995 53.599 24.2351Z" fill="#BCBEC0"/>
<path d="M51.2117 22.5139C51.3822 22.6119 51.3822 22.7366 51.2475 22.8345C51.2475 22.8345 51.2206 22.8523 51.2027 22.8612L50.359 22.3803C50.1616 22.4872 50.0629 22.603 50.036 22.7187C50.009 22.8434 50.0988 22.9592 50.2783 23.0661C50.4488 23.164 50.6283 23.2086 50.8347 23.1997C51.0411 23.1997 51.2206 23.1462 51.3822 23.0572C51.5617 22.9503 51.6514 22.8434 51.6424 22.7276C51.6424 22.6119 51.5617 22.5139 51.3911 22.4159C51.2386 22.3269 51.077 22.2823 50.8975 22.2734C50.7539 22.2734 50.6193 22.2823 50.4937 22.3269L50.745 22.4694C50.8886 22.4337 51.0681 22.4427 51.2027 22.5228M50.4578 22.9503C50.2872 22.8523 50.2872 22.7276 50.4219 22.6297L51.0052 22.9681C50.8437 23.0483 50.6283 23.0483 50.4488 22.9503" fill="#BCBEC0"/>
<path d="M59.4317 25.7007C59.3599 25.576 59.2701 25.4424 59.1535 25.3177C58.947 25.0951 58.6778 24.8902 58.4175 24.7388L51.2556 20.6421C50.9146 20.4461 50.5466 20.3125 50.1697 20.2324C49.2991 20.0543 48.3657 20.1879 47.576 20.6421L25.5697 33.2441C25.121 33.5024 24.7171 33.9566 24.5287 34.4108C24.4928 34.491 24.4748 34.5711 24.4569 34.6513L20.1849 37.0915C19.6195 37.421 19.1797 37.9643 19.1797 38.4452V40.556C19.1797 42.4084 20.499 43.7176 21.4413 44.2609L27.1762 47.5472C28.3968 48.2419 30.6495 48.1884 31.8611 47.4938L58.6509 32.1576C60.2035 31.267 60.4099 29.5926 60.4099 28.5952V26.9386C60.4099 26.4577 60.0779 26.0658 59.4406 25.6918L59.4317 25.7007Z" stroke="#221E1F" stroke-width="0.4" stroke-linecap="round" stroke-linejoin="round"/>
<path d="M24.4386 34.6537C24.3578 35.0277 24.4386 35.384 24.8156 35.5977L32.8749 40.2111C33.6647 40.6653 34.634 40.6653 35.4148 40.2111L59.189 26.6026C59.5839 26.38 59.6019 26.0416 59.4224 25.7031" stroke="#221E1F" stroke-width="0.25" stroke-linecap="round" stroke-linejoin="round"/>
<path d="M23.2252 45.0734L19.1326 47.4246C18.639 47.7096 17.93 47.4246 17.5621 46.7833C17.1941 46.1421 17.2928 45.394 17.7864 45.109L21.8789 42.7578" fill="white"/>
<path d="M17.7891 45.1105C18.2827 44.8255 18.9917 45.1105 19.3597 45.7517C19.7366 46.3929 19.6289 47.141 19.1353 47.426" stroke="black" stroke-width="0.11" stroke-linecap="round" stroke-linejoin="round"/>
<path d="M21.8789 42.7589C22.3725 42.4739 23.0815 42.7589 23.4495 43.4001C23.8175 44.0414 23.7187 44.7895 23.2251 45.0745" stroke="black" stroke-width="0.4" stroke-linecap="round" stroke-linejoin="round"/>
<path d="M21.3775 46.1331C21.8711 45.8481 21.9698 45.1 21.6018 44.4587C21.2249 43.8175 20.5249 43.5325 20.0312 43.8175L20.4261 43.5948C20.9198 43.3099 21.6288 43.5948 21.9967 44.2361C22.3737 44.8773 22.266 45.6254 21.7724 45.9104L21.3775 46.1331Z" fill="#808080"/>
<path d="M20.5533 46.6018C21.0469 46.3168 21.1456 45.5687 20.7776 44.9275C20.4097 44.2862 19.7006 44.0013 19.207 44.2862L19.6019 44.0636C20.0955 43.7786 20.8045 44.0636 21.1725 44.7048C21.5495 45.3461 21.4418 46.0942 20.9481 46.3792L20.5533 46.6018Z" fill="#808080"/>
<path d="M19.7251 47.0862C20.2187 46.8012 20.3175 46.0531 19.9495 45.4119C19.5726 44.7706 18.8725 44.4856 18.3789 44.7706L18.7738 44.548C19.2674 44.263 19.9764 44.548 20.3444 45.1892C20.7213 45.8304 20.6136 46.5785 20.12 46.8635L19.7251 47.0862Z" fill="#808080"/>
<path d="M23.2252 45.0734L19.1326 47.4246C18.639 47.7096 17.93 47.4246 17.5621 46.7833C17.1941 46.1421 17.2928 45.394 17.7864 45.109L21.8789 42.7578" stroke="black" stroke-width="0.4" stroke-linecap="round" stroke-linejoin="round"/>
<path d="M20.0143 58.1081C18.1385 58.1081 16.8641 57.6895 16.0384 57.2264C14.4768 56.3625 13.5793 54.8663 13.5704 53.1029C13.5614 50.7428 15.0961 48.347 17.5013 46.9844C17.7795 46.8241 18.0488 47.1982 18.1385 47.3585C18.2283 47.5188 18.4078 47.9285 18.1385 48.0888C16.1371 49.2198 14.8448 51.1881 14.8537 53.094C14.8537 54.3942 15.4999 55.4719 16.6667 56.1131C18.3449 57.0482 23.658 58.3663 36.5279 50.5468C36.833 50.3598 37.219 50.4578 37.4074 50.7606C37.5869 51.0634 37.4972 51.4463 37.192 51.6334C28.8275 56.7098 23.4247 58.0992 20.0232 58.0992L20.0143 58.1081Z" fill="white" stroke="black" stroke-width="0.4" stroke-linecap="round" stroke-linejoin="round"/>
<path d="M36.9771 51.3144C36.8515 51.3144 36.7258 51.2788 36.6271 51.2075C36.2681 51.2165 35.9809 50.9582 35.954 50.6197C35.9361 50.2724 36.1963 49.9696 36.5463 49.9429C36.663 49.9429 36.7887 49.9251 36.9053 49.9162C37.8028 49.177 38.6554 48.3576 39.4901 47.5561C40.8363 46.2647 42.2184 44.9377 43.7711 43.958C46.1224 42.4707 48.3213 42.0878 49.8021 42.9071C50.6188 43.3613 51.1035 44.1629 51.0945 45.0535C51.0855 46.2647 50.197 47.4492 48.7162 48.224C45.6019 49.8627 43.0531 50.7355 37.3989 51.1541C37.3989 51.1541 37.381 51.1719 37.372 51.1719C37.2553 51.261 37.1117 51.3144 36.9771 51.3144ZM48.0161 43.7532C47.2263 43.7532 46.0596 44.0204 44.4621 45.0268C43.0172 45.9352 41.7338 47.1642 40.3786 48.4645C39.9388 48.8831 39.499 49.3106 39.0413 49.7291C43.3044 49.2838 45.4493 48.5001 48.1238 47.093C49.1829 46.5408 49.8111 45.766 49.8201 45.0268C49.8201 44.5904 49.5957 44.2341 49.1829 44.0026C49.0123 43.9046 48.6264 43.7443 48.0161 43.7443V43.7532Z" fill="white" stroke="black" stroke-width="0.4" stroke-linecap="round" stroke-linejoin="round"/>
<path d="M39.0391 49.7422C38.9045 49.8758 37.9531 50.6417 37.9531 50.6417L39.0391 49.7422Z" fill="white"/>
<path d="M39.0391 49.7422C38.9045 49.8758 37.9531 50.6417 37.9531 50.6417" stroke="black" stroke-width="0.4" stroke-linecap="round" stroke-linejoin="round"/>
<path d="M25.308 59.823C22.9925 59.823 22.1309 58.6207 22.095 57.4896C22.0052 54.6842 26.7798 50.5162 35.979 49.9818L36.5534 49.9462C36.9034 49.9284 37.1996 50.1778 37.2355 50.5251C37.5227 50.4806 37.8188 50.6498 37.9265 50.9348C38.0432 51.2643 37.8727 51.6294 37.5496 51.7452C37.065 51.9233 36.6431 52.2172 36.1854 52.7071C31.4737 57.8013 28.4402 59.7963 25.3528 59.8141H25.308V59.823ZM35.8803 51.2643C27.435 51.7987 23.3066 55.5036 23.3784 57.454C23.4143 58.4693 24.7964 58.5583 25.3528 58.5583C27.5876 58.5405 30.1364 57.4006 35.252 51.861C35.4585 51.6294 35.6739 51.4335 35.8893 51.2643H35.8803Z" fill="white" stroke="black" stroke-width="0.4" stroke-linecap="round" stroke-linejoin="round"/>
<path d="M37.685 51.5235C37.4247 51.5235 37.1824 51.3632 37.0836 51.1049C36.967 50.7754 37.1375 50.4102 37.4606 50.2945C37.9362 50.1252 38.4209 50.0362 39.0132 49.9649C39.7133 49.8759 40.5659 49.867 41.5441 49.867C44.9186 49.8403 50.0253 49.8046 55.8589 46.3313C56.1641 46.1532 56.55 46.2511 56.7385 46.545C56.918 46.8478 56.8192 47.2308 56.5231 47.4178C50.3933 51.0693 45.0802 51.1049 41.5621 51.1316C40.6197 51.1316 39.803 51.1405 39.1748 51.2207C38.6632 51.283 38.2683 51.3543 37.9003 51.4879C37.8285 51.5146 37.7568 51.5235 37.685 51.5235Z" fill="white" stroke="black" stroke-width="0.4" stroke-linecap="round" stroke-linejoin="round"/>
<path d="M35.8711 51.2573C36.4275 50.7051 37.3968 50.2777 37.8276 50.1797" stroke="black" stroke-width="0.4" stroke-linecap="round" stroke-linejoin="round"/>
<path d="M37.5507 52.4044C37.5507 52.4044 37.5148 52.4044 37.4968 52.4044C37.1917 52.3777 36.9673 52.1105 37.0032 51.8077C37.093 50.8993 36.8237 50.3293 36.1955 50.1334C35.9083 50.0354 35.7468 49.7326 35.8455 49.4387C35.9442 49.1537 36.2494 48.9934 36.5455 49.0914C37.6763 49.4565 38.2507 50.4896 38.1071 51.9146C38.0802 52.1996 37.8379 52.4133 37.5597 52.4133L37.5507 52.4044Z" fill="white" stroke="black" stroke-width="0.4" stroke-linecap="round" stroke-linejoin="round"/>
</g>
<defs>
<clipPath id="clip0_212_33385">
<rect width="78" height="60" fill="white"/>
</clipPath>
</defs>
</svg>
