<svg width="74" height="57" viewBox="0 0 74 57" fill="none" xmlns="http://www.w3.org/2000/svg">
<g clip-path="url(#clip0_163_24990)">
<path d="M68.6506 21.7481C65.0933 20.3095 60.7827 21.7481 56.832 25.7209C56.5977 25.9635 56.5977 26.3399 56.832 26.5741C57.0664 26.8082 57.4514 26.8082 57.6858 26.5741C61.3268 22.9107 65.0598 21.5975 68.1986 22.8688C70.8436 23.9394 72.5762 26.7581 72.618 30.0534C72.6766 34.6536 69.5043 38.8021 64.1307 41.1356C61.9796 42.0724 60.0629 42.9924 58.2382 43.9961L58.9915 44.9579C60.7325 44.0128 62.5655 43.1262 64.6078 42.2396C70.4418 39.7054 73.8903 35.1387 73.8233 30.0283C73.7731 26.2479 71.7475 22.9943 68.6506 21.7397V21.7481Z" stroke="black" stroke-width="0.4" stroke-linecap="round" stroke-linejoin="round"/>
<path d="M61.5694 21.7912C62.0298 21.5236 62.6826 21.7912 63.0342 22.3934C63.3857 22.9957 63.2853 23.6982 62.8249 23.9659L58.4725 26.4834C58.0121 26.751 57.3593 26.4834 57.0077 25.8812C56.6562 25.279 56.7566 24.5764 57.217 24.3088L61.5694 21.7912Z" fill="white"/>
<path d="M60.087 22.653L59.7188 22.8621C59.9531 22.7282 60.2461 22.7282 60.5139 22.8537L60.8822 22.6446C60.606 22.5275 60.3214 22.5191 60.087 22.653Z" fill="#808080"/>
<path d="M61.2589 22.8867L60.8906 23.0958C60.9994 23.1962 61.0999 23.3216 61.1836 23.4638C61.5268 24.066 61.4347 24.7686 60.9743 25.0362L61.3426 24.8271C61.803 24.5595 61.895 23.8569 61.5519 23.2547C61.4682 23.1125 61.3677 22.9954 61.2589 22.8867Z" fill="#808080"/>
<path d="M62.3233 22.8036C61.9801 22.2014 61.3189 21.9338 60.8585 22.2014L60.4902 22.4105C60.9506 22.1429 61.6035 22.4105 61.955 23.0127C62.0387 23.1633 62.0973 23.3138 62.1308 23.4644L62.4991 23.2553C62.4656 23.1047 62.407 22.9458 62.3233 22.8036Z" fill="#808080"/>
<path d="M62.1459 23.9513C62.1041 24.2273 61.9701 24.4615 61.7441 24.5869L62.1124 24.3778C62.3384 24.244 62.4723 24.0098 62.5142 23.7422L62.1459 23.9513Z" fill="#808080"/>
<path d="M60.2051 25.4815L60.5734 25.2724C60.7994 25.1386 60.9333 24.9044 60.9751 24.6367L60.6068 24.8458C60.565 25.1218 60.4311 25.356 60.2051 25.4815Z" fill="#808080"/>
<path d="M60.7823 23.6981C60.4391 23.0959 59.7779 22.8283 59.3175 23.0959L58.9492 23.305C59.4096 23.0374 60.0708 23.305 60.414 23.9072C60.4977 24.0578 60.5563 24.2083 60.5898 24.3589L60.958 24.1498C60.9246 23.9992 60.866 23.8403 60.7823 23.6981Z" fill="#808080"/>
<path d="M57.2168 24.3069C57.6772 24.0392 58.33 24.3069 58.6816 24.9091C59.0331 25.5113 58.9327 26.2138 58.4723 26.4815" stroke="black" stroke-width="0.11" stroke-linecap="round" stroke-linejoin="round"/>
<path d="M61.5694 21.7912C62.0298 21.5236 62.6826 21.7912 63.0342 22.3934C63.3857 22.9957 63.2853 23.6982 62.8249 23.9659L58.4725 26.4834C58.0121 26.751 57.3593 26.4834 57.0077 25.8812C56.6562 25.279 56.7566 24.5764 57.217 24.3088L61.5694 21.7912Z" stroke="black" stroke-width="0.4" stroke-linecap="round" stroke-linejoin="round"/>
<path d="M23.8883 33.8468C23.0847 34.3152 22.683 34.9257 22.6997 35.5447V42.9802C22.6997 43.574 23.1015 44.1762 23.8966 44.6279L33.1037 49.9389C34.4346 50.7084 36.4602 50.7921 37.791 50.0142L61.7797 36.1803C62.5832 35.7119 62.985 35.1014 62.9682 34.4824V27.0469C62.9682 26.4531 62.5665 25.8509 61.7713 25.3992L52.5642 20.0882C51.2334 19.3187 49.2078 19.235 47.877 20.0129L23.8883 33.8468Z" fill="white"/>
<path d="M62.9677 27.0469C62.9677 27.6491 62.5743 28.2513 61.7792 28.7113L37.7905 42.5452C36.2923 43.4067 34.6015 43.3314 33.0949 42.4615L23.8878 37.1505C23.0926 36.6905 22.6992 36.0883 22.6992 35.4861" stroke="#939598" stroke-width="0.13" stroke-linecap="round" stroke-linejoin="round"/>
<path d="M62.9677 29.3047C62.9677 29.9069 62.5743 30.5091 61.7792 30.9691L37.7905 44.803C36.3676 45.6227 34.5262 45.5474 33.0949 44.7194L23.8878 39.4083C23.0926 38.9483 22.6992 38.3461 22.6992 37.7439" stroke="#231F20" stroke-width="0.13" stroke-linecap="round" stroke-linejoin="round"/>
<path d="M23.8883 33.8468C23.0847 34.3152 22.683 34.9257 22.6997 35.5447V42.9802C22.6997 43.574 23.1015 44.1762 23.8966 44.6279L33.1037 49.9389C34.4346 50.7084 36.4602 50.7921 37.791 50.0142L61.7797 36.1803C62.5832 35.7119 62.985 35.1014 62.9682 34.4824V27.0469C62.9682 26.4531 62.5665 25.8509 61.7713 25.3992L52.5642 20.0882C51.2334 19.3187 49.2078 19.235 47.877 20.0129L23.8883 33.8468Z" stroke="#231F20" stroke-width="0.4" stroke-linecap="round" stroke-linejoin="round"/>
<path d="M30.9277 34.0722L31.0449 33.3111L30.325 33.7293L30.0488 33.5704L31.1872 32.918L31.4383 33.0602L31.3211 33.7962L32.0242 33.3947L32.292 33.5536L31.1537 34.206L30.9277 34.0722Z" fill="#BCBEC0"/>
<path d="M36.3842 37.2167L36.5013 36.4556L35.7815 36.8738L35.5137 36.7149L36.6436 36.0625L36.9031 36.2047L36.7859 36.9491L37.4806 36.5392L37.7485 36.6982L36.6185 37.3505L36.3842 37.2167Z" fill="#BCBEC0"/>
<path d="M33.1791 35.3703L32.9531 35.2448L33.606 34.3164L33.8906 34.4753L33.4135 35.111L34.51 34.835L34.7862 34.9939L33.1791 35.3703Z" fill="#BCBEC0"/>
<path d="M34.8956 35.0508L35.1718 35.2097L34.0335 35.8621L33.7656 35.7115L34.8956 35.0508Z" fill="#BCBEC0"/>
<path d="M32.4088 34.0154L32.1325 33.8565C32.233 33.8147 32.3753 33.7812 32.5176 33.7812C32.7184 33.7812 32.8775 33.8398 33.0532 33.9485C33.2374 34.0573 33.3546 34.1576 33.3546 34.2664C33.3546 34.35 33.3127 34.4504 33.1704 34.534L32.4422 34.9522L32.1744 34.7933L32.2748 34.7347C32.2748 34.7347 32.1744 34.7347 32.0154 34.7013C31.8898 34.6762 31.7894 34.626 31.6805 34.5675C31.5466 34.4922 31.5215 34.4169 31.5048 34.3333C31.488 34.2496 31.5466 34.166 31.6554 34.1074C31.781 34.0322 31.8982 33.9903 32.0739 34.0238C32.233 34.0489 32.3669 34.1158 32.5343 34.2162L32.8607 34.4002C33.003 34.3165 33.0784 34.1827 32.8607 34.0573C32.7101 33.9736 32.5343 33.982 32.4004 34.0154M32.3753 34.3333C32.2162 34.2413 32.0405 34.1911 31.9484 34.258C31.8061 34.35 31.9317 34.4336 31.9902 34.4671C32.1325 34.5507 32.2665 34.5925 32.3836 34.6009C32.5092 34.6009 32.5929 34.5591 32.6766 34.5089C32.6766 34.5089 32.4506 34.3751 32.3836 34.3416" fill="#BCBEC0"/>
<path d="M34.9375 36.1984C34.7533 36.0897 34.7617 35.9559 34.904 35.8555C34.904 35.8555 34.9291 35.8388 34.9542 35.822L35.8582 36.3406C36.0674 36.2235 36.1763 36.098 36.2014 35.9726C36.2265 35.8388 36.1344 35.7133 35.9419 35.5962C35.7661 35.4958 35.5652 35.4457 35.3392 35.454C35.1132 35.454 34.9207 35.5126 34.7533 35.6129C34.5608 35.7217 34.4688 35.8388 34.4688 35.9726C34.4688 36.098 34.5608 36.2068 34.7366 36.3071C34.8956 36.3991 35.0714 36.4493 35.2723 36.4577C35.4229 36.4577 35.5736 36.441 35.7075 36.3991L35.4397 36.2402C35.2806 36.2821 35.0965 36.2653 34.9458 36.1817M35.7494 35.7217C35.9335 35.8304 35.9251 35.9642 35.7829 36.0646L35.1551 35.7049C35.3309 35.6213 35.5652 35.6213 35.7494 35.7217Z" fill="#BCBEC0"/>
<path d="M53.1498 24.5193C53.1498 24.6782 52.9322 24.812 52.6559 24.812C52.3797 24.812 52.1621 24.6782 52.1621 24.5193C52.1621 24.3604 52.3797 24.2266 52.6559 24.2266C52.9322 24.2266 53.1498 24.3604 53.1498 24.5193Z" fill="#231F20"/>
<path d="M61.1931 25.7266C61.6702 26.0026 61.6702 26.7553 61.1931 27.0313L37.2045 40.8652C36.6855 41.1663 36.1331 41.3169 35.5556 41.3169C34.9278 41.3169 34.3 41.1412 33.689 40.7816L24.4819 35.4705C23.9295 35.1527 23.9211 34.4919 24.4819 34.1657" stroke="#BCBEC0" stroke-width="0.13" stroke-linecap="round" stroke-linejoin="round"/>
<path d="M28.1394 45.534L23.7869 48.0515C23.3266 48.3192 22.6653 48.0515 22.3222 47.4493C21.9706 46.8471 22.0711 46.1446 22.5314 45.8769L26.8839 43.3594" fill="white"/>
<path d="M22.5312 45.8733C22.9916 45.6056 23.6528 45.8733 23.996 46.4755C24.3476 47.0777 24.2471 47.7802 23.7868 48.0479" stroke="black" stroke-width="0.11" stroke-linecap="round" stroke-linejoin="round"/>
<path d="M26.875 43.3577C27.3354 43.09 27.9966 43.3577 28.3398 43.9599C28.6913 44.5621 28.5909 45.2646 28.1305 45.5323" stroke="black" stroke-width="0.4" stroke-linecap="round" stroke-linejoin="round"/>
<path d="M25.8786 46.8351C26.3389 46.5675 26.431 45.8649 26.0878 45.2627C25.7363 44.6605 25.0834 44.3929 24.623 44.6605L24.9913 44.4514C25.4517 44.1838 26.1129 44.4514 26.4561 45.0536C26.8076 45.6558 26.7072 46.3584 26.2468 46.626L25.8786 46.8351Z" fill="#808080"/>
<path d="M25.109 47.2804C25.5694 47.0128 25.6615 46.3102 25.3183 45.708C24.9751 45.1058 24.3139 44.8382 23.8535 45.1058L24.2218 44.8967C24.6822 44.6291 25.3434 44.8967 25.6866 45.4989C26.0381 46.1011 25.9377 46.8037 25.4773 47.0713L25.109 47.2804Z" fill="#808080"/>
<path d="M24.3395 47.7218C24.7999 47.4542 24.8919 46.7516 24.5488 46.1494C24.1972 45.5472 23.5443 45.2796 23.084 45.5472L23.4523 45.3381C23.9126 45.0705 24.5739 45.3381 24.917 45.9403C25.2686 46.5425 25.1681 47.2451 24.7078 47.5127L24.3395 47.7218Z" fill="#808080"/>
<path d="M28.1394 45.534L23.7869 48.0515C23.3266 48.3192 22.6653 48.0515 22.3222 47.4493C21.9706 46.8471 22.0711 46.1446 22.5314 45.8769L26.8839 43.3594" stroke="black" stroke-width="0.4" stroke-linecap="round" stroke-linejoin="round"/>
<path d="M58.7076 44.6978C58.7076 44.6978 58.6909 44.6978 58.6741 44.6978C54.9494 48.4448 52.7732 49.7161 49.7181 50.9289C48.2701 51.506 46.8807 51.4056 46.0102 50.678C45.3657 50.1427 45.0895 49.3063 45.2569 48.4532C45.5666 46.9059 47.1736 45.5844 49.6596 44.8232C51.3001 44.3214 53.0913 44.1458 54.8239 43.9869C55.9036 43.8865 57.0085 43.7778 58.0799 43.5938C58.1552 43.5185 58.2305 43.4348 58.3142 43.3596C58.5402 43.1254 58.9169 43.117 59.1596 43.3512C59.394 43.577 59.4023 43.9367 59.1763 44.1876C59.1596 44.3047 59.1094 44.4134 59.0341 44.5054C58.9504 44.6058 58.8332 44.6727 58.6909 44.7062L58.7076 44.6978ZM46.4371 48.6957C46.3534 49.1307 46.4705 49.507 46.7802 49.7747C47.3159 50.218 48.245 50.2431 49.2829 49.8332C51.9027 48.7961 53.7693 47.759 56.6653 45.0073C56.0878 45.0742 55.5102 45.1244 54.9495 45.1829C53.2001 45.3502 51.5428 45.5091 50.0195 45.9775C48.3287 46.496 47.4331 47.1651 46.956 47.7172C46.5794 48.1521 46.4622 48.5201 46.4287 48.7041L46.4371 48.6957Z" fill="white" stroke="black" stroke-width="0.4" stroke-linecap="round" stroke-linejoin="round"/>
<path d="M56.666 45.0065C56.8418 44.9898 57.9634 44.7891 57.9634 44.7891L56.666 45.0065Z" fill="white"/>
<path d="M56.666 45.0065C56.8418 44.9898 57.9634 44.7891 57.9634 44.7891" stroke="black" stroke-width="0.4" stroke-linecap="round" stroke-linejoin="round"/>
<path d="M72.1668 41.4414C70.2835 43.616 67.0192 44.5527 60.524 44.7869C59.8963 44.812 59.4359 44.9291 59.009 45.1633C58.7244 45.3222 58.3562 45.2219 58.1971 44.9375C58.0548 44.6866 58.1134 44.3771 58.3227 44.2015C58.0967 43.9673 58.0967 43.5993 58.3227 43.3651L58.6993 42.9803C64.6505 36.7827 70.5263 35.9379 72.4765 37.7194C73.2633 38.4387 73.5981 39.7853 72.2003 41.4246C72.2003 41.433 72.1836 41.4414 72.1752 41.4581L72.1668 41.4414ZM60.4822 43.5909C67.5382 43.34 69.8985 42.2359 71.2628 40.6635C71.5976 40.2621 72.3677 39.2333 71.6646 38.5893C70.3087 37.3598 65.161 38.0205 59.6703 43.6745C59.9214 43.6243 60.1892 43.5993 60.4822 43.5909Z" fill="white" stroke="black" stroke-width="0.4" stroke-linecap="round" stroke-linejoin="round"/>
<path d="M59.6695 43.6836C58.9413 43.7421 58.0457 44.1687 57.7109 44.4113" stroke="black" stroke-width="0.4" stroke-linecap="round" stroke-linejoin="round"/>
<path d="M64.166 47.5241C64.6096 47.2649 65.2709 47.5827 65.6391 48.2184C66.0074 48.854 65.9488 49.5817 65.5052 49.841" stroke="black" stroke-width="0.4" stroke-linecap="round" stroke-linejoin="round"/>
<path d="M61.8223 49.3039L62.5337 49.9144L64.3668 48.8522L63.6469 48.25L61.8223 49.3039Z" stroke="#231F20" stroke-width="0.25" stroke-linecap="round" stroke-linejoin="round"/>
<path d="M58.5898 51.1219C58.9246 50.9296 59.4185 51.1637 59.7031 51.6488C59.9793 52.134 59.9374 52.6776 59.6026 52.87" stroke="black" stroke-width="0.13" stroke-linecap="round" stroke-linejoin="round"/>
<path d="M58.959 50.8516C59.3105 50.6509 59.8295 50.8934 60.1224 51.4036C60.4154 51.9138 60.3652 52.4826 60.0136 52.6917" stroke="#808080" stroke-width="0.13" stroke-linecap="round" stroke-linejoin="round"/>
<path d="M59.3184 50.577C59.6866 50.3595 60.2391 50.6188 60.5488 51.1541C60.8585 51.6894 60.8082 52.2916 60.4399 52.509" stroke="#808080" stroke-width="0.13" stroke-linecap="round" stroke-linejoin="round"/>
<path d="M59.6953 50.282C60.0803 50.0562 60.6662 50.3322 60.9843 50.8926C61.3024 51.453 61.2522 52.0886 60.8671 52.3144" stroke="#808080" stroke-width="0.13" stroke-linecap="round" stroke-linejoin="round"/>
<path d="M64.1651 47.5234L60.7836 49.4722C60.5994 49.5726 58.5906 51.1199 58.5906 51.1199C58.2558 51.3123 58.2056 51.8643 58.4902 52.341C58.7664 52.8262 59.2686 53.0603 59.6034 52.8596C59.6034 52.8596 61.947 51.8894 62.1228 51.7807L65.5043 49.8319" stroke="black" stroke-width="0.4" stroke-linecap="round" stroke-linejoin="round"/>
<path d="M46.1521 56.8346C44.2772 56.8346 43.4904 55.9732 43.1807 55.4212C42.5697 54.3422 42.8124 52.8953 43.842 51.4399C45.5997 48.9642 50.6803 45.6437 57.6861 44.1801C58.0293 44.1132 58.3557 44.3306 58.431 44.6652C58.498 45.0081 58.2804 45.3343 57.9456 45.4096C51.5676 46.7394 46.5371 49.8173 44.8715 52.1676C44.1433 53.188 43.9257 54.1749 44.2772 54.8022C44.6036 55.3793 45.4239 55.6553 46.5873 55.5633C50.2534 55.279 54.7147 53.8069 58.5231 51.6323C58.8244 51.4567 59.2094 51.5654 59.3769 51.8665C59.5526 52.1676 59.4438 52.5523 59.1425 52.7196C55.1834 54.9862 50.5213 56.5168 46.6794 56.8179C46.4953 56.8347 46.3195 56.843 46.1521 56.843V56.8346Z" fill="white" stroke="black" stroke-width="0.4" stroke-linecap="round" stroke-linejoin="round"/>
<path d="M59.4771 45.5752C59.4771 45.5752 59.5022 45.5501 59.5106 45.5334C59.678 45.2992 59.6194 44.9814 59.385 44.8141C58.6819 44.3206 58.4392 43.7853 58.6736 43.2166C58.7824 42.9489 58.6568 42.6478 58.389 42.5391C58.1295 42.4304 57.8282 42.5558 57.7194 42.8235C57.2925 43.8522 57.6859 44.881 58.7907 45.6588C59.0084 45.8094 59.3097 45.7676 59.4771 45.5752Z" fill="white" stroke="black" stroke-width="0.4" stroke-linecap="round" stroke-linejoin="round"/>
<path d="M24.8172 21.7797C17.9704 31.0804 10.8056 35.5299 4.73733 34.9027C4.38579 34.8608 4.07609 35.1201 4.03424 35.4714C4.00076 35.8227 4.25187 36.1321 4.60341 36.1656C11.107 36.8431 18.7405 32.1844 25.8383 22.5408C32.6934 13.2318 36.9454 9.72731 40.4693 10.4968C40.8124 10.5721 41.1472 10.3546 41.2226 10.0117C41.2979 9.66876 41.0803 9.32584 40.7371 9.25057C36.619 8.35563 32.0992 11.9019 24.8172 21.7797Z" fill="white"/>
<path d="M34.4172 11.1641C31.3873 13.2885 28.8762 16.2577 24.8084 21.7779C17.9616 31.0785 10.7968 35.5281 4.72852 34.9008" stroke="black" stroke-width="0.4" stroke-linecap="round" stroke-linejoin="round"/>
<path d="M4.60352 36.1659C11.1071 36.8433 18.7406 32.1846 25.8384 22.5411C28.9437 18.3257 30.7098 15.9587 33.1372 13.8008" stroke="black" stroke-width="0.4" stroke-linecap="round" stroke-linejoin="round"/>
<path d="M43.7005 12.6691C43.7507 10.9963 42.6709 9.75012 40.7374 9.24828C40.3943 9.15628 40.0511 9.36538 39.959 9.7083C39.8753 10.0512 40.0762 10.3941 40.4194 10.4778C41.7753 10.8291 42.4617 11.5484 42.4282 12.6273C42.3278 15.8223 37.2136 20.8825 24.8594 23.9353L25.0937 25.1815C38.2766 21.928 43.5833 16.3492 43.7005 12.6608V12.6691Z" fill="white"/>
<path d="M25.0938 25.1922C38.285 21.9386 43.5833 16.3599 43.7005 12.663C43.7507 10.9902 42.6709 9.74402 40.7375 9.24219" stroke="black" stroke-width="0.4" stroke-linecap="round" stroke-linejoin="round"/>
<path d="M42.6446 3.9554C42.4689 3.6543 42.1006 3.47029 41.7993 3.63757C36.8693 6.40602 34.9358 9.01556 32.3913 13.507C29.5706 18.4835 27.9216 22.3476 22.2132 23.4767C6.00037 26.6885 1.83207 30.9039 1.96599 33.8647C2.02458 35.0691 2.91181 35.9055 4.35984 36.123L4.66953 34.8935C4.1171 34.8266 3.28009 34.5924 3.23824 33.8145C3.14617 31.757 6.57791 27.8678 22.4643 24.7313C28.7419 23.4851 30.5331 19.3701 33.5045 14.1343C35.9486 9.81013 37.8318 7.33442 42.427 4.74997C42.7367 4.58269 42.8204 4.2565 42.653 3.9554H42.6446Z" fill="white"/>
<path d="M4.73649 34.9018C4.19243 34.8433 3.28009 34.6258 3.23824 33.8145C3.14617 31.757 6.57791 27.8678 22.4643 24.7313C28.7419 23.4851 30.5331 19.3701 33.5045 14.1343C35.9486 9.81013 37.8318 7.33442 42.427 4.74997C42.7367 4.58269 42.8204 4.2565 42.653 3.9554C42.4772 3.6543 42.109 3.47029 41.8076 3.63757C36.8777 6.40602 34.9442 9.01556 32.3996 13.507C29.5789 18.4835 27.93 22.3476 22.2216 23.4768C6.00037 26.6885 1.83207 30.9039 1.96599 33.8647C2.02458 35.1026 2.94529 35.9473 4.44354 36.1481" stroke="black" stroke-width="0.4" stroke-linecap="round" stroke-linejoin="round"/>
<path d="M40.4194 10.4805C41.7753 10.8318 42.4617 11.551 42.4282 12.63C42.3278 15.825 37.222 20.8935 24.8594 23.9464" stroke="black" stroke-width="0.4" stroke-linecap="round" stroke-linejoin="round"/>
<path d="M9.46619 52.7928C6.19348 52.7928 4.07585 51.5132 2.8287 50.3506C1.04587 48.6945 0.0582023 46.3359 0.175384 44.0442C0.535298 37.0687 4.83752 31.2558 25.1601 23.8537C25.4865 23.7367 25.8465 23.9039 25.9636 24.2301C26.0808 24.5563 25.9134 24.916 25.587 25.0331C5.91727 32.2093 1.7657 37.6542 1.4309 44.1195C1.33046 46.0432 2.17584 48.0338 3.69082 49.4389C4.94634 50.6099 7.223 51.9063 10.9812 51.4463C14.6808 50.9946 17.4094 49.8488 22.6491 46.5366C22.942 46.3526 23.3271 46.4363 23.5112 46.729C23.6953 47.0218 23.6116 47.4065 23.3187 47.5989C17.8949 51.0281 15.049 52.2157 11.1318 52.6925C10.5459 52.7594 9.9935 52.7928 9.47456 52.7928H9.46619Z" fill="white" stroke="black" stroke-width="0.4" stroke-linecap="round" stroke-linejoin="round"/>
<path d="M40.7366 9.25071C39.2719 8.93289 37.7653 9.17544 36.0996 10.0536" stroke="black" stroke-width="0.4" stroke-linecap="round" stroke-linejoin="round"/>
<path d="M34.1992 12.9056C36.6517 10.8313 38.6521 10.1037 40.46 10.4968" stroke="black" stroke-width="0.4" stroke-linecap="round" stroke-linejoin="round"/>
<path d="M25.5374 26.0205C25.4453 26.0205 25.3448 25.9954 25.2528 25.9536C24.9431 25.7946 24.8175 25.4183 24.9766 25.1088C25.0854 24.8997 25.1356 24.2139 24.851 23.6618C24.6669 23.3106 24.399 23.1098 24.0224 23.0513C23.6792 23.0011 23.4448 22.6833 23.4951 22.3403C23.5453 21.9974 23.8633 21.7549 24.2065 21.8134C24.9766 21.9305 25.6043 22.3822 25.9642 23.0847C26.433 23.9964 26.3827 25.1004 26.0898 25.6692C25.981 25.8866 25.755 26.0121 25.529 26.0121L25.5374 26.0205Z" fill="white" stroke="black" stroke-width="0.4" stroke-linecap="round" stroke-linejoin="round"/>
<path d="M53.1672 4.9021C53.1923 4.95228 53.2258 5.00247 53.276 5.03592L55.5275 6.99308C55.7201 7.16035 56.013 7.13526 56.1804 6.95126C56.3478 6.75889 56.3227 6.45779 56.1302 6.29887L53.8786 4.34172C53.6861 4.17444 53.3932 4.19953 53.2258 4.3919C53.0919 4.53409 53.0751 4.74319 53.1672 4.91046V4.9021Z" fill="white" stroke="#231F20" stroke-width="0.4" stroke-miterlimit="10"/>
<path d="M52.6474 8.16458C52.6725 8.21477 52.706 8.26495 52.7562 8.30677L55.217 10.4479C55.4096 10.6152 55.7025 10.5985 55.8699 10.3977C56.0373 10.2054 56.0122 9.91264 55.8281 9.74536L53.3673 7.6042C53.1747 7.43692 52.8818 7.46201 52.706 7.64602C52.5805 7.79657 52.5637 7.9973 52.6474 8.16458Z" fill="white" stroke="#231F20" stroke-width="0.4" stroke-miterlimit="10"/>
<path d="M54.4725 3.0457L52.0201 0.912908L47.8267 0.160156L41.5826 3.36353C40.6451 3.84864 41.6077 5.69706 42.5368 5.22032L43.4993 4.72685C44.3866 4.2752 44.9474 4.4592 46.0271 5.40432C46.4456 5.77234 46.3368 6.44145 47.1403 7.1942L48.287 8.13932C49.4254 9.01753 51.0826 9.19317 52.5641 8.43206C54.6399 7.36984 55.4769 4.92758 54.4642 3.03734" fill="white"/>
<path d="M42.1257 3.09766C41.2803 3.53258 42.2345 5.38937 43.0799 4.95444" stroke="#231F20" stroke-width="0.13" stroke-linecap="round" stroke-linejoin="round"/>
<path d="M42.7292 2.77734C41.8839 3.21227 42.8381 5.06905 43.6834 4.63413" stroke="#231F20" stroke-width="0.13" stroke-linecap="round" stroke-linejoin="round"/>
<path d="M43.5494 2.35938C42.7459 2.76921 43.3067 4.2998 44.2441 4.45035" stroke="#231F20" stroke-width="0.13" stroke-linecap="round" stroke-linejoin="round"/>
<path d="M51.5098 2.97852L51.8697 1.23047" stroke="#231F20" stroke-width="0.13" stroke-linecap="round" stroke-linejoin="round"/>
<path d="M47.032 6.27242L45.5254 4.98438" stroke="#231F20" stroke-width="0.13" stroke-linecap="round" stroke-linejoin="round"/>
<path d="M48.1116 2.77734L51.5517 3.40464L52.6481 4.34976C53.4182 5.05233 53.3931 5.55416 52.8825 6.28182C52.5059 6.76693 52.012 7.19348 51.4177 7.49459C49.9362 8.2557 48.279 8.08006 47.1406 7.19348" stroke="#231F20" stroke-width="0.13" stroke-linecap="round" stroke-linejoin="round"/>
<path d="M50.9238 4.80859L51.7274 5.54462" stroke="#231F20" stroke-width="0.13" stroke-linecap="round" stroke-linejoin="round"/>
<path d="M51.5254 7.63672L52.3289 8.37274" stroke="#231F20" stroke-width="0.13" stroke-linecap="round" stroke-linejoin="round"/>
<path d="M50.2031 8.01562L51.0067 8.75165" stroke="#231F20" stroke-width="0.13" stroke-linecap="round" stroke-linejoin="round"/>
<path d="M48.1118 2.77751C47.3919 2.46804 46.8981 1.62329 46.9651 1.15491C47.0488 0.653075 47.2999 0.393794 47.8188 0.167969" stroke="#231F20" stroke-width="0.13" stroke-linecap="round" stroke-linejoin="round"/>
<path d="M54.4725 3.0457L52.0201 0.912908L47.8267 0.160156L41.5826 3.36353C40.6451 3.84864 41.6077 5.69706 42.5368 5.22032L43.4993 4.72685C44.3866 4.2752 44.9474 4.4592 46.0271 5.40432C46.4456 5.77233 46.3368 6.44145 47.1403 7.1942L48.287 8.13932C49.4254 9.01753 51.0826 9.19317 52.5641 8.43206C54.6399 7.36984 55.4769 4.92758 54.4642 3.03734" stroke="#231F20" stroke-width="0.4" stroke-linecap="round" stroke-linejoin="round"/>
<path d="M47.5078 6.55054L48.2695 7.24475C48.8721 7.71313 49.7092 7.78004 50.4959 7.37857C51.2409 6.99383 51.6845 6.2829 51.7263 5.54688" stroke="#231F20" stroke-width="0.13" stroke-linecap="round" stroke-linejoin="round"/>
<path d="M44.8223 4.14296L47.3668 2.86328" stroke="#231F20" stroke-width="0.13" stroke-linecap="round" stroke-linejoin="round"/>
<path d="M47.5078 6.54829L50.9228 4.80859" stroke="#231F20" stroke-width="0.13" stroke-linecap="round" stroke-linejoin="round"/>
<path d="M47.5078 6.54829C48.1105 6.95812 48.9391 7.02503 49.6924 6.64029C50.4373 6.25555 50.881 5.54462 50.9228 4.80859" stroke="#231F20" stroke-width="0.13" stroke-linecap="round" stroke-linejoin="round"/>
</g>
<defs>
<clipPath id="clip0_163_24990">
<rect width="74" height="57" fill="white"/>
</clipPath>
</defs>
</svg>
