<svg width="24" height="24" viewBox="0 0 24 24" fill="none" xmlns="http://www.w3.org/2000/svg">
<path d="M18.5281 5C19.5832 5 20.4481 5.72077 20.4481 6.60002C20.4481 7.4808 19.585 8.20005 18.5281 8.20005H12" stroke="white" stroke-linecap="round" stroke-linejoin="round"/>
<path d="M13.687 10.6002H20.2151C21.2702 10.6002 22.1351 11.321 22.1351 12.2002C22.1351 13.081 21.272 13.8003 20.2151 13.8003" stroke="white" stroke-linecap="round" stroke-linejoin="round"/>
<path d="M12 12.8008L18 12.8008" stroke="white" stroke-linecap="round" stroke-linejoin="round"/>
<path d="M9.6246 15.8318V4.12462C9.6246 2.7929 8.54459 1.71289 7.21286 1.71289C5.88114 1.71289 4.80113 2.7929 4.80113 4.12462V15.8318C3.97176 16.5417 3.45757 17.6099 3.50275 18.7986C3.57698 20.7574 5.19054 22.3344 7.15047 22.3667C9.22981 22.4011 10.9251 20.7251 10.9251 18.6544C10.9251 17.5249 10.4195 16.5137 9.62352 15.8328L9.6246 15.8318Z" stroke="white" stroke-linecap="round" stroke-linejoin="round"/>
<path d="M7.21241 20.4737C8.19267 20.4737 8.98733 19.679 8.98733 18.6987C8.98733 17.7185 8.19267 16.9238 7.21241 16.9238C6.23216 16.9238 5.4375 17.7185 5.4375 18.6987C5.4375 19.679 6.23216 20.4737 7.21241 20.4737Z" fill="white"/>
<path d="M7.23828 4.57031L7.23828 17.9182" stroke="white" stroke-linecap="round" stroke-linejoin="round"/>
</svg>
