<svg width="72" height="72" viewBox="0 0 72 72" fill="none" xmlns="http://www.w3.org/2000/svg">
<path d="M27.7928 17.9732C20.6724 20.8604 15.6504 27.8436 15.6504 36.0006H19.354L12.8727 45.2597L6.39136 36.0006H10.095C10.095 22.1926 21.2876 11 35.0943 11C44.1534 11 52.0877 15.8182 56.4731 23.033" stroke="#BE826A" stroke-width="2.5" stroke-linecap="round" stroke-linejoin="round"/>
<path d="M13.7212 48.9757C18.1079 56.1854 26.0385 61.0011 35.095 61.0011C48.9017 61.0011 60.0956 49.8085 60.0956 36.0005H63.7992L57.3179 26.7415L50.8366 36.0005H54.5402C54.5402 44.077 49.6163 51.0024 42.6079 53.9411" stroke="#BE826A" stroke-width="2.5" stroke-linecap="round" stroke-linejoin="round"/>
<path d="M37.8966 43.762V21.2724C37.8966 19.715 36.6335 18.4519 35.0761 18.4519C33.5338 18.4519 32.277 19.6911 32.2556 21.2334L31.9386 43.9998V44.0036C30.5434 45.01 29.654 46.6743 29.7119 48.5412C29.8062 51.3101 32.0657 53.606 34.8308 53.7406C37.923 53.8891 40.4843 51.4259 40.4843 48.3601C40.4843 46.4127 39.449 44.7093 37.8978 43.7645L37.8966 43.762Z" stroke="#BE826A" stroke-width="2.5" stroke-linecap="round" stroke-linejoin="round"/>
<path d="M35.0955 27.8909V48.506" stroke="#BE826A" stroke-width="2.5" stroke-linecap="round" stroke-linejoin="round"/>
<path d="M66.2678 49.6963L62.2383 53.7245L60.0972 51.5833" stroke="#BE826A" stroke-width="2.5" stroke-linecap="round" stroke-linejoin="round"/>
<path d="M57.6577 54.5804C58.1836 55.627 59 56.5441 60.0769 57.197C63.1238 59.0426 67.0891 58.0689 68.9346 55.0219C70.7801 51.975 69.8064 48.0097 66.7595 46.1642C65.2285 45.237 63.4685 45.0219 61.8582 45.4232" stroke="#BE826A" stroke-width="2.5" stroke-linecap="round" stroke-linejoin="round"/>
<path d="M11.5815 16.8782L7.55208 20.9076L5.40967 18.7652" stroke="#BE826A" stroke-width="2.5" stroke-linecap="round" stroke-linejoin="round"/>
<path d="M14.6012 16.3304C14.2162 15.2234 13.5281 14.2082 12.5443 13.4206C9.76532 11.1927 5.70695 11.6393 3.479 14.4183C1.25104 17.1972 1.69764 21.2556 4.47661 23.4848C5.87301 24.6044 7.59021 25.0473 9.23821 24.8611" stroke="#BE826A" stroke-width="2.5" stroke-linecap="round" stroke-linejoin="round"/>
</svg>
