<svg width="100" height="100" viewBox="0 0 100 100" fill="none" xmlns="http://www.w3.org/2000/svg">
<g id="logo">
<circle id="bg" cx="50" cy="50" r="50" fill="white"/>
<g id="Group 2472">
<g id="Group 2475">
<path id="Vector" d="M59.2418 44.0766V45.1737H60.5767V52.7454H59.2545V53.8424H63.5076V52.7454H61.8506V49.5634H63.9105V50.7698H65.007V47.0386H63.9105V48.4649H61.8506V45.1723H66.0554V47.145H67.2981V44.0752H59.2418V44.0766ZM51.1925 53.9404L54.2454 45.1737H54.3958V52.7454H52.9999V53.8424H56.9606V52.7454H55.6683V45.1737H56.9606V44.0766H54.627H53.3531L50.5017 51.9832L47.7467 44.0766H44.0782V45.1737H45.4741V52.7454H44.0782V53.8424H48.0389V52.7454H46.7466V45.1751L49.9087 53.9404H51.1897H51.1925ZM40.1188 52.7454H35.731V49.4172H37.8887V50.7712H38.9853V47.04H37.8887V48.3202H35.731V45.1751H40.045V47.0741H41.2877V44.078H32.915V45.1751H34.2868V52.7468H32.915V53.8439H41.3615V50.6804H40.1188V52.7468V52.7454Z" fill="#231F20"/>
<path id="Vector_2" d="M49.4248 54.634L48.7368 52.7265V54.536H43.3858V52.0481H44.7817V45.8659H43.3858V43.3779H48.2431L50.5158 49.9008L52.8678 43.3779H55.5192H57.6585V45.8659H56.3661V52.0481H57.6585V54.536H52.3075V52.8528L51.8493 54.167L51.6861 54.634H49.4234H49.4248ZM53.7034 52.0481V48.8463L52.5884 52.0481H53.7034ZM47.4459 52.0481H48.4928L47.4459 49.1443V52.0481ZM46.1719 45.152L47.3196 44.9519L47.2558 44.7702H46.1705V45.1534L46.1719 45.152ZM58.5607 54.536V52.0481H59.8829V45.8659H58.548V43.3779H67.9931V47.8372H65.7021V51.462H63.2152V50.2556H62.5456V52.0481H64.2026V54.536H58.5593H58.5607ZM62.5456 47.7691H63.2167V46.3427H65.3616V45.8673H62.5471V47.7691H62.5456ZM32.2227 54.536V52.0481H33.593V45.8659H32.2227V43.3779H41.9856V47.7648H39.6818V49.9803H42.0579V54.5346H32.2227V54.536ZM35.0372 53.1466V48.7214V44.7702H34.9819V53.1466H35.0372ZM36.4274 52.0495H39.425V51.4648H37.1949V50.1108H36.4274V52.0495ZM36.4274 47.6229H37.1949V46.3427H39.3526V45.8673H36.4274V47.6229Z" fill="#231F20"/>
<path id="Vector_3" d="M59.2418 44.1245V45.2215H60.5767V52.7932H59.2545V53.8903H63.5076V52.7932H61.8506V49.6113H63.9105V50.8176H65.007V47.0864H63.9105V48.5128H61.8506V45.2201H66.0554V47.1929H67.2981V44.123H59.2418V44.1245ZM51.1925 53.9882L54.2454 45.2215H54.3958V52.7932H52.9999V53.8903H56.9606V52.7932H55.6683V45.2215H56.9606V44.1245H54.627H53.3531L50.5017 52.0311L47.7467 44.1245H44.0782V45.2215H45.4741V52.7932H44.0782V53.8903H48.0389V52.7932H46.7466V45.223L49.9087 53.9882H51.1897H51.1925ZM40.1188 52.7932H35.731V49.4651H37.8887V50.819H38.9853V47.0878H37.8887V48.368H35.731V45.2215H40.045V47.1205H41.2877V44.1245H32.915V45.2215H34.2868V52.7932H32.915V53.8903H41.3615V50.7268H40.1188V52.7932Z" fill="#231F20"/>
<path id="Vector_4" d="M49.656 54.3538L47.1152 47.3129V52.4265H48.4076V54.2559H43.7148V52.4265H45.1107V45.5857H43.7148V43.7563H48.0089L50.51 50.9334L53.0989 43.7563H55.0978H57.3293V45.5857H56.0369V52.4265H57.3293V54.2559H52.6365V52.4265H54.0324V46.9496L51.5385 54.1083L51.4533 54.3538H49.656ZM50.1695 53.6215H50.9341L53.987 44.8548H54.763V53.1588H53.3671V53.525H56.5973V53.1588H55.3049V44.8548H56.5973V44.4886H54.1601H53.6111L50.4972 53.1233L47.4883 44.4886H44.4454V44.8548H45.8413V53.1588H44.4454V53.525H47.6756V53.1588H46.3832V45.2224L47.0925 45.0975L50.1681 53.6215H50.1695ZM58.8883 54.2559V52.4265H60.2105V45.5857H58.8756V43.7563H67.6625V47.557H65.6878V45.5843H62.215V48.1446H63.5428V46.7183H65.3714V51.1804H63.5428V49.974H62.215V52.425H63.8719V54.2545H58.8869L58.8883 54.2559ZM59.6189 53.5235H63.1414V53.1574H61.4844V49.2431H64.2748V50.4495H64.6408V47.4506H64.2748V48.8769H61.4844V44.8534H66.4198V46.8261H66.9319V44.4886H59.6076V44.8548H60.9425V53.1588H59.6203V53.525L59.6189 53.5235ZM32.5502 54.2545V52.425H33.9206V45.5843H32.5502V43.7549H41.6535V47.4832H39.6788V45.5843H36.0954V47.9984H37.5211V46.7183H39.3497V51.1804H37.5211V49.8264H36.0954V52.4236H39.7512V50.3572H41.7259V54.253H32.5488L32.5502 54.2545ZM33.2808 53.5235H40.9953V51.091H40.4832V53.1574H35.3648V49.0969H38.2531V50.4509H38.6191V47.452H38.2531V48.7322H35.3648V44.8548H40.4108V46.7537H40.9229V44.4886H33.2808V44.8548H34.6526V53.1574H33.2808V53.5235Z" fill="white"/>
<path id="Vector_5" opacity="0.44" d="M59.0958 44.0263V45.1234H60.4307V52.6951H59.1085V53.7921H63.3616V52.6951H61.7046V49.5131H63.7645V50.7195H64.8611V46.9883H63.7645V48.4146H61.7046V45.122H65.9094V47.0947H67.1521V44.0249H59.0958V44.0263ZM51.0465 53.8901L54.0994 45.1234H54.2498V52.6951H52.8539V53.7921H56.8146V52.6951H55.5223V45.1234H56.8146V44.0263H54.481H53.2071L50.3557 51.9329L47.6007 44.0263H43.9322V45.1234H45.3281V52.6951H43.9322V53.7921H47.8929V52.6951H46.6006V45.1248L49.7627 53.8901H51.0437H51.0465ZM39.9728 52.6951H35.585V49.3669H37.7427V50.7209H38.8393V46.9897H37.7427V48.2699H35.585V45.1234H39.899V47.0223H41.1417V44.0263H32.769V45.1234H34.1394V52.6951H32.769V53.7921H41.2155V50.6287H39.9728V52.6951Z" fill="#939598"/>
<path id="Vector_6" opacity="0.44" d="M59.3765 44.3071V45.4042H60.7115V52.9758H59.3893V54.0729H63.6423V52.9758H61.9854V49.7939H64.0452V51.0002H65.1418V47.269H64.0452V48.6954H61.9854V45.4027H66.1902V47.3755H67.4329V44.3057H59.3765V44.3071ZM51.3273 54.1708L54.3802 45.4042H54.5305V52.9758H53.1346V54.0729H57.0954V52.9758H55.803V45.4042H57.0954V44.3071H54.7618H53.4879L50.6364 52.2137L47.8815 44.3071H44.2129V45.4042H45.6088V52.9758H44.2129V54.0729H48.1737V52.9758H46.8813V45.4056L50.0434 54.1708H51.3245H51.3273ZM40.2536 52.9758H35.8658V49.6477H38.0235V51.0017H39.1201V47.2705H38.0235V48.5506H35.8658V45.4056H40.1798V47.3045H41.4225V44.3085H33.0498V45.4056H34.4216V52.9773H33.0498V54.0743H41.4963V50.9108H40.2536V52.9773V52.9758Z" fill="#939598"/>
<path id="Vector_7" d="M59.2418 44.1723V45.2694H60.5767V52.8411H59.2545V53.9381H63.5076V52.8411H61.8506V49.6591H63.9105V50.8655H65.007V47.1343H63.9105V48.5606H61.8506V45.268H66.0554V47.2407H67.2981V44.1709H59.2418V44.1723ZM51.1925 54.0361L54.2454 45.2694H54.3958V52.8411H52.9999V53.9381H56.9606V52.8411H55.6683V45.2694H56.9606V44.1723H54.627H53.3531L50.5017 52.0789L47.7467 44.1723H44.0782V45.2694H45.4741V52.8411H44.0782V53.9381H48.0389V52.8411H46.7466V45.2708L49.9087 54.0361H51.1897H51.1925ZM40.1188 52.8411H35.731V49.5129H37.8887V50.8669H38.9853V47.1357H37.8887V48.4159H35.731V45.2708H40.045V47.1698H41.2877V44.1737H32.915V45.2708H34.2868V52.8425H32.915V53.9396H41.3615V50.7761H40.1188V52.8425V52.8411Z" fill="#0091DD"/>
<path id="Vector_8" d="M35.5434 39.1739C35.6612 39.2065 35.7803 39.2235 35.9009 39.2235C36.0541 39.2221 36.2031 39.1966 36.3478 39.1483C36.4925 39.1 36.623 39.0376 36.7379 38.961C36.7436 39.0206 36.7521 39.0816 36.7648 39.1426C36.7776 39.2037 36.789 39.2576 36.8003 39.3002C36.7251 39.3385 36.6386 39.3768 36.5421 39.4123C36.4442 39.4492 36.3393 39.479 36.2286 39.5031C36.1265 39.5244 36.0201 39.5372 35.9108 39.5443C35.8016 39.5514 35.698 39.5443 35.5973 39.5272C35.6498 39.6096 35.6938 39.7018 35.725 39.8026C35.7576 39.9033 35.7803 40.0098 35.7945 40.1205C35.8044 40.2354 35.8073 40.3518 35.8016 40.4682C35.7959 40.5846 35.7817 40.6995 35.7605 40.8102C35.7193 40.8131 35.6654 40.8216 35.5945 40.8372C35.5235 40.8514 35.4625 40.867 35.4072 40.884C35.4484 40.7194 35.4725 40.5534 35.4782 40.3859C35.4838 40.2184 35.4625 40.0609 35.4172 39.9104C35.3803 39.7884 35.3278 39.6734 35.2583 39.567C35.1888 39.4605 35.0994 39.3626 34.9873 39.276L34.8157 39.1426L34.3631 39.7245L34.1333 39.5457L35.2512 38.1066L35.481 38.2854L35.0313 38.8645L35.2058 39.0007C35.3122 39.083 35.4228 39.1412 35.5406 39.1739H35.5434ZM37.6756 39.083L36.4769 38.1506L36.0016 38.7623L35.7619 38.5763L36.2371 37.9647L35.5619 37.4395L35.7732 37.1685L37.887 38.8134L37.6756 39.0844V39.083ZM37.1081 41.2672L36.1775 40.5434L36.3932 40.2653L37.0911 40.8088L38.4204 39.0986L38.653 39.2803L37.1067 41.2701L37.1081 41.2672Z" fill="black"/>
<path id="Vector_9" d="M38.8535 36.2775C38.984 36.3825 39.123 36.4663 39.2706 36.5287C39.4309 36.5954 39.6011 36.6394 39.7784 36.6593C39.9572 36.6792 40.1487 36.6777 40.3516 36.6536C40.336 36.7061 40.3246 36.7657 40.3147 36.831C40.3047 36.8963 40.2976 36.9545 40.2934 37.0027C40.1827 37.0113 40.0693 37.0127 39.9515 37.0056C39.8338 36.9999 39.716 36.9857 39.6011 36.963C39.4678 36.9375 39.3387 36.9006 39.2124 36.8537C39.0861 36.8069 38.9684 36.7501 38.8592 36.682C38.9031 36.7899 38.9329 36.9091 38.95 37.0396C38.967 37.1702 38.9741 37.3036 38.9712 37.4399C38.9712 37.5775 38.9585 37.7152 38.9386 37.85C38.9188 37.9863 38.8904 38.1083 38.8535 38.219C38.801 38.2134 38.74 38.2119 38.6705 38.2119C38.601 38.2119 38.5315 38.2148 38.4648 38.2219C38.5386 38.0345 38.5882 37.85 38.6137 37.6669C38.6393 37.4839 38.6407 37.3008 38.618 37.1177C38.5939 36.9375 38.5457 36.7586 38.4719 36.5826C38.3981 36.4067 38.2988 36.2363 38.174 36.0717L37.9952 35.8361L37.3654 36.3144L37.1895 36.0831L38.7514 34.8966L38.9273 35.1279L38.279 35.6218L38.4889 35.8986C38.601 36.0462 38.723 36.1725 38.8535 36.2775ZM39.2479 34.231L40.1019 35.3564L40.5388 35.0243L40.7247 35.2684L40.2877 35.6005L41.4538 37.1376L41.18 37.3462L38.9727 34.4396L39.2465 34.231H39.2479Z" fill="black"/>
<path id="Vector_10" d="M42.6925 32.7222C42.7862 32.9734 42.8514 33.226 42.884 33.48C42.9181 33.7341 42.9209 33.9853 42.8925 34.2351C42.8656 34.5076 42.8003 34.7758 42.6982 35.0412C42.5961 35.3066 42.4556 35.5635 42.2797 35.8133C42.2386 35.7991 42.1776 35.7806 42.0981 35.7608C42.0187 35.7409 41.9534 35.7267 41.9024 35.7196C42.0754 35.5067 42.2173 35.2882 42.3237 35.0625C42.4315 34.8368 42.5067 34.6069 42.5492 34.3727C42.5847 34.1712 42.5946 33.9668 42.5776 33.7625C42.5606 33.5581 42.518 33.3523 42.4528 33.1465L41.2682 33.6489L41.1533 33.3778L42.6911 32.725L42.6925 32.7222ZM44.7197 35.5734L43.2983 32.2197L43.6189 32.0835L45.0403 35.4372L44.7197 35.5734Z" fill="black"/>
<path id="Vector_11" d="M46.7263 32.3446C46.8029 32.4582 46.8937 32.5547 47.0015 32.6341C47.105 32.7094 47.2171 32.769 47.3405 32.8158C47.4625 32.8626 47.5845 32.8967 47.7079 32.918C47.6739 32.962 47.6399 33.0102 47.6072 33.0628C47.5746 33.1153 47.5462 33.1593 47.5249 33.1962C47.4441 33.1763 47.3561 33.1479 47.2611 33.1124C47.166 33.077 47.071 33.033 46.9759 32.9819C46.888 32.9322 46.8014 32.8754 46.7177 32.8101C46.6341 32.7448 46.5603 32.671 46.4979 32.5901C46.4823 32.6781 46.451 32.7661 46.4071 32.8541C46.3631 32.9421 46.312 33.0259 46.2524 33.1068C46.1815 33.2004 46.1021 33.2898 46.0113 33.3736C45.9205 33.4573 45.8283 33.5311 45.7346 33.5964C45.7006 33.5723 45.6538 33.5425 45.5942 33.5084C45.5346 33.4758 45.4793 33.4445 45.4282 33.4176C45.5758 33.3239 45.7119 33.2189 45.8354 33.1011C45.9588 32.9833 46.0538 32.8513 46.1219 32.7037C46.1716 32.5987 46.2056 32.488 46.2241 32.3716C46.2425 32.2552 46.2411 32.1303 46.2198 31.9983L46.2028 31.8976L45.4793 32.0139L45.4325 31.7272L47.2313 31.4363L47.2781 31.723L46.5589 31.8394L46.5759 31.9487C46.6 32.0963 46.6497 32.2282 46.7263 32.3418V32.3446ZM46.4397 33.9228C46.6284 33.7468 46.9277 33.6262 47.3377 33.5595C47.7477 33.4928 48.0683 33.5127 48.2981 33.6163C48.5293 33.7199 48.6613 33.8703 48.6925 34.0676C48.7237 34.262 48.6457 34.4451 48.4598 34.6183C48.274 34.7914 47.9746 34.9106 47.5661 34.9759C47.1561 35.0426 46.8341 35.0227 46.6014 34.9205C46.3673 34.8169 46.2354 34.6665 46.2028 34.4706C46.173 34.2819 46.251 34.1002 46.4397 33.9242V33.9228ZM46.8582 34.6906C47.0355 34.7502 47.2582 34.7588 47.5278 34.7148C47.7916 34.6722 47.9973 34.5941 48.1435 34.4806C48.2896 34.367 48.3534 34.2492 48.3336 34.1286C48.3123 33.9995 48.2158 33.9058 48.0413 33.8476C47.8668 33.7894 47.6484 33.7823 47.3845 33.8249C47.115 33.8689 46.905 33.9441 46.7561 34.0534C46.6057 34.1627 46.5418 34.2819 46.5631 34.4139C46.583 34.5374 46.6809 34.6296 46.8582 34.6892V34.6906ZM48.1222 31.1255L48.2541 31.943L48.7677 31.8607L48.8159 32.1559L48.3023 32.2382L48.4768 33.3182L48.1406 33.3722L47.7874 31.1794L48.1236 31.1255H48.1222Z" fill="black"/>
<path id="Vector_12" d="M53.6919 33.8012C53.5656 33.7969 53.3755 33.7856 53.1202 33.7657C52.8663 33.7459 52.6123 33.716 52.3598 33.6735L51.2192 33.4904L51.2632 33.2193L52.2818 33.3868L52.3314 33.0873C52.1172 33.0306 51.9512 32.9454 51.8335 32.8347C51.7158 32.724 51.6675 32.6076 51.6874 32.487C51.7101 32.3522 51.8122 32.25 51.9966 32.1804C52.1811 32.1109 52.4038 32.0981 52.6648 32.1407C52.923 32.1833 53.1287 32.2656 53.2791 32.3891C53.4309 32.5125 53.4947 32.6431 53.472 32.7836C53.4536 32.9 53.3727 32.9922 53.2308 33.0618C53.089 33.1313 52.9102 33.1597 52.6946 33.1455L52.645 33.445C52.7499 33.462 52.9202 33.4805 53.1571 33.5003C53.3926 33.5202 53.5855 33.5315 53.7344 33.5372L53.6919 33.7998V33.8012ZM51.6221 34.7024L51.7711 33.7927L52.1272 33.8509L52.025 34.4739L54.1217 34.8188L54.0749 35.1055L51.6221 34.7024ZM51.6647 31.8157L51.7058 31.5616L53.7344 31.8952L53.6933 32.1492L51.6647 31.8157ZM52.9315 32.8915C53.0337 32.8617 53.0904 32.8049 53.1046 32.7212C53.1173 32.6403 53.0819 32.5693 52.9968 32.5083C52.9117 32.4472 52.7882 32.4032 52.6265 32.3763C52.4676 32.3507 52.3357 32.3522 52.2293 32.382C52.1229 32.4118 52.0633 32.4671 52.0505 32.548C52.0364 32.6317 52.0747 32.7041 52.164 32.7666C52.2534 32.829 52.3782 32.873 52.5371 32.8986C52.6989 32.9255 52.8308 32.9227 52.9329 32.8929L52.9315 32.8915ZM52.2435 31.4211L52.2846 31.1699L53.3188 31.3402L53.2777 31.5914L52.2435 31.4211ZM54.2891 33.0107L54.0707 34.3405L53.7359 34.2852L54.1927 31.4992L54.5275 31.5545L54.3374 32.7112L54.8466 32.795L54.797 33.0944L54.2877 33.0107H54.2891Z" fill="black"/>
<path id="Vector_13" d="M57.9434 32.9235C57.8356 33.1335 57.705 33.3124 57.5518 33.46C57.3986 33.6076 57.227 33.7282 57.0397 33.8204C56.8326 33.9226 56.6099 33.9893 56.3715 34.0234C56.1332 34.056 55.8878 34.0603 55.6339 34.0348C55.6268 33.9964 55.6112 33.9453 55.5885 33.8815C55.5658 33.8176 55.5402 33.7594 55.5161 33.7083C55.7204 33.7367 55.9289 33.7438 56.1403 33.7325C56.3517 33.7211 56.5503 33.6814 56.7361 33.6147C56.8851 33.5593 57.0213 33.4855 57.1475 33.3918C57.2738 33.2982 57.3816 33.1804 57.4724 33.0384L56.2751 32.5261L56.39 32.2593L57.9448 32.9235H57.9434ZM55.6821 35.5902C55.5218 35.3745 55.4863 35.1645 55.5743 34.9573C55.6622 34.7515 55.841 34.6323 56.1091 34.5982C56.3772 34.5641 56.6865 34.6223 57.0355 34.7713C57.3887 34.9232 57.6469 35.1077 57.81 35.3248C57.9717 35.5434 58.01 35.7549 57.9221 35.9607C57.8327 36.1693 57.6554 36.2885 57.3873 36.3197C57.1206 36.351 56.8085 36.2899 56.4524 36.1381C56.1006 35.9876 55.8452 35.8046 55.6849 35.5888L55.6821 35.5902ZM56.0098 35.5235C56.1389 35.6711 56.3219 35.796 56.5588 35.8968C56.8 36.0004 57.0184 36.0472 57.2128 36.0387C57.4086 36.0302 57.5334 35.9607 57.5887 35.8301C57.6483 35.6924 57.6128 35.5505 57.4852 35.4043C57.3575 35.2596 57.1716 35.1347 56.9276 35.0296C56.6893 34.9275 56.4723 34.8792 56.2793 34.8863C56.085 34.892 55.9587 34.9644 55.8991 35.102C55.8424 35.2354 55.8793 35.3759 56.0084 35.5235H56.0098ZM57.8554 35.0921L58.0867 34.5499L57.3859 34.2505L57.4979 33.9865L58.1987 34.286L58.3987 33.819L57.7887 33.5579L57.9008 33.2939L58.5108 33.555L58.7165 33.0725L59.0329 33.2073L58.1704 35.2269L57.854 35.0921H57.8554Z" fill="black"/>
<path id="Vector_14" d="M58.8208 37.2384L59.55 36.2847L59.8266 36.4961L59.2748 37.2185L61.0026 38.5399L60.8267 38.7712L58.8222 37.2384H58.8208ZM60.5714 34.495C60.8282 34.4553 61.0693 34.522 61.2949 34.6951C61.5204 34.8683 61.6481 35.0826 61.6779 35.3409C61.7077 35.5992 61.641 35.8348 61.4793 36.0477C61.3218 36.2535 61.1147 36.3769 60.8565 36.4167C60.5983 36.4564 60.3572 36.3911 60.1316 36.218C59.906 36.0448 59.7784 35.8291 59.75 35.5708C59.7216 35.3111 59.7855 35.0783 59.9429 34.8725C60.1061 34.6596 60.3146 34.5333 60.5714 34.495ZM60.0678 35.5538C60.0777 35.7212 60.1586 35.8632 60.3132 35.981C60.4692 36.1002 60.6295 36.1428 60.7913 36.1073C60.9544 36.0718 61.0906 35.981 61.2012 35.8362C61.3133 35.6886 61.3672 35.5311 61.3601 35.3622C61.353 35.1933 61.2722 35.0499 61.1161 34.9307C60.9615 34.8129 60.8026 34.7732 60.6366 34.8087C60.4707 34.8456 60.3316 34.9378 60.2196 35.0854C60.1089 35.2302 60.0578 35.3877 60.0678 35.5538ZM61.0111 37.7933L62.6397 35.6616L62.9135 35.8703L61.2849 38.002L61.0111 37.7933Z" fill="black"/>
<path id="Vector_15" d="M62.5825 39.0921C62.8307 39.1929 63.0847 39.4115 63.3471 39.7507C63.611 40.0927 63.7599 40.395 63.794 40.6604C63.828 40.9258 63.7628 41.1217 63.5996 41.248C63.4379 41.3729 63.2322 41.3856 62.9839 41.2863C62.7357 41.1855 62.4803 40.9655 62.2165 40.6235C61.954 40.2843 61.8065 39.982 61.7724 39.7166C61.7384 39.4512 61.8036 39.2553 61.9668 39.129C62.1285 39.0041 62.3342 38.9914 62.5825 39.0907V39.0921ZM63.4648 40.5327C63.4195 40.3453 63.3102 40.1381 63.1371 39.9139C62.9598 39.684 62.7882 39.525 62.6208 39.4356C62.4534 39.3462 62.3143 39.3433 62.2037 39.4285C62.0916 39.5151 62.0562 39.6527 62.0973 39.8401C62.1384 40.0274 62.2477 40.236 62.425 40.4645C62.5981 40.6888 62.7711 40.8463 62.9428 40.9371C63.1144 41.0266 63.2549 41.0294 63.3655 40.9442C63.4776 40.8577 63.5117 40.72 63.4663 40.5327H63.4648ZM62.5484 38.215L62.7782 38.0376L64.8636 40.7385L64.6338 40.9159L62.5484 38.215ZM64.8281 39.0779C64.8168 39.2014 64.8225 39.3306 64.848 39.4654C64.8792 39.6031 64.9232 39.7436 64.9828 39.8841C65.0409 40.0246 65.1005 40.1537 65.1601 40.2701C65.0963 40.2644 65.0381 40.2602 64.9828 40.2587C64.9289 40.2587 64.875 40.2573 64.8225 40.2559C64.7714 40.158 64.7217 40.0487 64.6735 39.9281C64.6253 39.8074 64.587 39.684 64.5558 39.5548C64.526 39.4257 64.5104 39.2965 64.509 39.1659C64.509 39.0354 64.5302 38.9133 64.5728 38.7998C64.4621 38.8083 64.3515 38.7998 64.2423 38.7756C64.1316 38.7501 64.0224 38.7132 63.916 38.6649C63.7968 38.6082 63.6791 38.54 63.5642 38.4577C63.4492 38.3754 63.3386 38.2888 63.2336 38.198C63.2435 38.1526 63.2549 38.0987 63.2677 38.0376C63.2804 37.9766 63.2904 37.9142 63.2989 37.8531C63.4124 37.9596 63.5344 38.0618 63.6677 38.1611C63.8011 38.2605 63.9344 38.3385 64.0663 38.3995C64.1827 38.4521 64.2962 38.4833 64.4097 38.496C64.5231 38.5088 64.6281 38.4904 64.7232 38.4393L64.0578 37.5764L64.2848 37.4004L65.8552 39.4327L65.6282 39.6087L64.9629 38.7458C64.8849 38.8409 64.8395 38.9502 64.8281 39.0737V39.0779Z" fill="black"/>
<path id="Vector_16" d="M33.3477 58.3013L34.0924 57.8968L34.2229 58.1366L33.6881 58.4276L34.4698 59.8681L34.2598 59.9817L33.3477 58.3013ZM34.9933 57.2851C35.145 57.3546 35.2727 57.4824 35.3734 57.6683C35.4784 57.8627 35.5181 58.0401 35.4898 58.2005C35.4628 58.3609 35.3862 58.4758 35.2628 58.5426C35.1422 58.6078 35.0074 58.6078 34.8571 58.5426C34.7067 58.4773 34.579 58.3467 34.474 58.1537C34.3733 57.9678 34.335 57.7918 34.3606 57.6271C34.3861 57.4625 34.4599 57.3475 34.5819 57.2808C34.7039 57.2141 34.8415 57.2156 34.9933 57.2851ZM34.5861 57.7293C34.5776 57.8244 34.606 57.9309 34.6712 58.0501C34.7365 58.1707 34.8117 58.253 34.8954 58.2956C34.9791 58.3382 35.0585 58.3396 35.1351 58.297C35.2117 58.2559 35.2557 58.1877 35.2642 58.0941C35.2741 58.0004 35.2458 57.894 35.1791 57.7719C35.1138 57.6527 35.0401 57.5704 34.955 57.5264C34.8713 57.481 34.7918 57.4795 34.7166 57.5207C34.6372 57.5633 34.5946 57.6328 34.5861 57.7279V57.7293ZM36.7935 58.5014L36.0161 58.9229L36.2076 59.2749L35.9891 59.3941L35.7976 59.0421L34.8514 59.5559L34.7237 59.3217L36.6658 58.2672L36.7935 58.5028V58.5014ZM35.1252 56.8593L35.3238 56.7515L36.1154 58.2104L35.9168 58.3183L35.1252 56.8593ZM35.7182 56.9785L35.9168 56.8707L36.331 57.6342L36.1324 57.7421L35.7182 56.9785Z" fill="black"/>
<path id="Vector_17" d="M36.8231 60.8898L36.3976 61.2347L36.948 61.9145L36.1266 62.5787L35.9592 62.3715L36.5948 61.8578L35.5166 60.5251L35.7024 60.3747L36.2287 61.0247L36.6543 60.6798L35.9323 59.7871L36.1181 59.6367L37.3495 61.1567C37.4559 61.1027 37.5793 61.0346 37.7183 60.9495C37.8573 60.8657 37.9765 60.7862 38.0758 60.711L36.9693 59.3443L37.1551 59.1938L38.4375 60.7791C38.3084 60.8799 38.1581 60.9849 37.9864 61.0928C37.8148 61.2007 37.6573 61.2901 37.5154 61.361L37.7836 61.6917L37.5977 61.8422L36.8246 60.8884L36.8231 60.8898Z" fill="black"/>
<path id="Vector_18" d="M39.8677 62.2351C39.7188 62.3969 39.5571 62.5374 39.3854 62.6566C39.2138 62.7758 39.0322 62.8723 38.8435 62.9475C38.6378 63.0313 38.4222 63.0866 38.1966 63.1136C37.971 63.1406 37.7384 63.1377 37.5001 63.1079C37.4972 63.0724 37.4887 63.0228 37.4774 62.9589C37.4646 62.895 37.4532 62.8439 37.4419 62.8042C37.6533 62.8468 37.859 62.8638 38.0576 62.8553C38.2562 62.8468 38.4477 62.8141 38.6307 62.7559C38.7882 62.7048 38.9385 62.6353 39.0804 62.5459C39.2223 62.4565 39.357 62.35 39.4833 62.2251L38.7257 61.5751L38.8832 61.3906L39.8677 62.2351ZM38.486 64.7457L40.4323 62.4749L40.638 62.6509L38.6917 64.9217L38.486 64.7457Z" fill="black"/>
<path id="Vector_19" d="M41.8975 63.6987C41.7797 63.8974 41.6549 64.0706 41.5244 64.2182C41.3939 64.3658 41.2577 64.4949 41.1172 64.6014C40.9427 64.7305 40.7612 64.8313 40.5711 64.9022C40.381 64.9732 40.1809 65.0229 39.971 65.0498C39.9611 65.0129 39.9426 64.9675 39.9171 64.9122C39.8915 64.8568 39.8674 64.8142 39.8447 64.7802C40.0448 64.7674 40.2292 64.7334 40.4008 64.6794C40.5725 64.6255 40.7314 64.5503 40.8775 64.4566C41.0094 64.3729 41.1314 64.2735 41.2421 64.1571C41.3527 64.0408 41.4549 63.9116 41.5499 63.7654L40.8718 63.3695L40.991 63.1665L41.9003 63.6973L41.8975 63.6987ZM40.9328 66.1952L41.5173 65.196L41.0889 64.9462L41.2137 64.7305L41.6421 64.9803L41.9131 64.5148L41.5457 64.2991L41.6705 64.0848L42.0379 64.3005L42.3472 63.7711L42.5699 63.9017L41.1555 66.3243L40.9328 66.1938V66.1952ZM41.3201 66.5855L42.8323 63.9968L43.0607 64.1302L41.5485 66.7189L41.3201 66.5855Z" fill="black"/>
<path id="Vector_20" d="M44.1389 65.4937C44.1403 65.593 44.156 65.6895 44.1829 65.7832C44.2184 65.901 44.2709 66.0103 44.3404 66.1082C44.4099 66.2075 44.4851 66.2913 44.5688 66.3594C44.5248 66.3793 44.4822 66.402 44.4383 66.4289C44.3943 66.4545 44.3588 66.4786 44.329 66.4985C44.2836 66.4502 44.2354 66.3935 44.1857 66.3282C44.1361 66.2629 44.0907 66.1891 44.0467 66.1096C44.0084 66.0358 43.9744 65.9577 43.9446 65.8754C43.9148 65.7931 43.8949 65.7108 43.8864 65.6285C43.8368 65.6909 43.7772 65.7491 43.7091 65.8002C43.641 65.8513 43.5672 65.8981 43.4864 65.9379C43.4027 65.9762 43.3161 66.0088 43.2282 66.0358C43.1402 66.0628 43.0508 66.0826 42.9629 66.0954C42.9515 66.0656 42.9317 66.0245 42.9047 65.9748C42.8778 65.9251 42.8522 65.8797 42.8281 65.8428C42.9615 65.8314 43.0906 65.8059 43.2168 65.7661C43.3431 65.7264 43.4566 65.6682 43.5587 65.593C43.641 65.532 43.7148 65.461 43.78 65.3801C43.8453 65.2992 43.8963 65.2027 43.9361 65.0934L43.9971 64.926L43.4594 64.7301L43.5403 64.5059L44.8709 64.9884L44.7901 65.2126L44.2553 65.0182L44.1928 65.1885C44.156 65.2921 44.1375 65.3929 44.1403 65.4937H44.1389ZM42.9274 67.2564L43.258 66.3452L43.5147 66.4389L43.2665 67.1215L44.8482 67.6963L44.766 67.9248L42.9274 67.2564ZM44.6908 67.1158L45.1164 65.9421L44.5517 65.7363L44.6369 65.5022L45.2015 65.708L45.4412 65.0466L45.6923 65.1374L44.9419 67.2067L44.6908 67.1158Z" fill="black"/>
<path id="Vector_21" d="M47.5423 65.6958C47.4969 65.9115 47.4317 66.1144 47.3452 66.306C47.2586 66.4976 47.1536 66.6736 47.0302 66.834C46.8969 67.0114 46.7408 67.1703 46.5607 67.3094C46.3805 67.4485 46.1805 67.5663 45.9606 67.6628C45.9393 67.6344 45.9081 67.5961 45.8641 67.5479C45.8201 67.4996 45.7847 67.4613 45.7549 67.4343C45.9592 67.3619 46.1436 67.2711 46.3096 67.1618C46.4755 67.0525 46.6231 66.9248 46.7508 66.7815C46.86 66.6566 46.9522 66.5189 47.0288 66.3699C47.1054 66.2195 47.165 66.0591 47.209 65.8873L46.2244 65.7199L46.2656 65.4814L47.5452 65.6986L47.5423 65.6958ZM47.6502 68.5598L48.1509 65.6106L48.4176 65.656L47.9169 68.6052L47.6502 68.5598Z" fill="black"/>
<path id="Vector_22" d="M49.9285 66.5595C49.9654 66.6517 50.0136 66.7369 50.0732 66.8149C50.1484 66.9129 50.2363 66.9952 50.3356 67.0633C50.4349 67.1314 50.5371 67.1825 50.6392 67.2166C50.6052 67.2507 50.574 67.2876 50.5427 67.3273C50.5115 67.367 50.486 67.4025 50.4647 67.4309C50.4051 67.4025 50.3399 67.367 50.2704 67.323C50.2009 67.279 50.1313 67.2279 50.0633 67.1683C50.0008 67.113 49.9413 67.052 49.8831 66.9867C49.8249 66.9214 49.7781 66.8504 49.7412 66.7766C49.7171 66.8533 49.6816 66.9285 49.6362 67.0009C49.5909 67.0732 49.5384 67.1428 49.4774 67.2081C49.4121 67.2748 49.344 67.3358 49.2702 67.3912C49.1965 67.4479 49.1213 67.4976 49.0433 67.5416C49.022 67.5175 48.9894 67.4862 48.9468 67.4493C48.9042 67.4124 48.8645 67.3798 48.8276 67.3543C48.9482 67.2961 49.0589 67.2265 49.1624 67.1442C49.266 67.0619 49.3525 66.9668 49.4206 66.8604C49.4759 66.7738 49.5199 66.6815 49.5511 66.5822C49.5823 66.4828 49.5965 66.375 49.5951 66.2586L49.5923 66.0798L49.0206 66.0897L49.0163 65.8513L50.4307 65.8286L50.4349 66.067L49.8661 66.0755L49.8689 66.2572C49.8703 66.3665 49.8902 66.4686 49.9271 66.5609L49.9285 66.5595ZM49.4249 68.6387L49.4093 67.6693L49.6831 67.6651L49.6944 68.3917L51.3769 68.3648L51.3812 68.6075L49.4249 68.6387ZM51.0222 67.8794L51.0024 66.6304L50.4009 66.6404L50.3966 66.392L50.9981 66.3821L50.9868 65.6796L51.2535 65.6753L51.2889 67.8751L51.0222 67.8794Z" fill="black"/>
<path id="Vector_23" d="M52.9173 66.5867C52.974 66.7116 53.0421 66.8251 53.1244 66.9259C53.2137 67.0351 53.3173 67.1302 53.4351 67.2111C53.5528 67.2934 53.6876 67.363 53.8379 67.4212C53.8096 67.4538 53.7812 67.4921 53.7514 67.5375C53.7216 67.5815 53.6975 67.6213 53.6776 67.6539C53.5982 67.6184 53.5173 67.5773 53.4365 67.5276C53.3556 67.4794 53.279 67.4254 53.2052 67.3658C53.1215 67.2977 53.0421 67.2225 52.9697 67.1416C52.8974 67.0607 52.8336 66.9755 52.7811 66.8847C52.7754 66.9798 52.7555 67.0777 52.7229 67.1799C52.6903 67.2821 52.6491 67.3814 52.6009 67.4808C52.5527 67.5815 52.4988 67.6766 52.4378 67.7689C52.3768 67.8597 52.3158 67.9392 52.2533 68.0059C52.2193 67.9832 52.1767 67.9576 52.1271 67.9321C52.0774 67.9066 52.0292 67.8824 51.9795 67.8626C52.0945 67.7547 52.1923 67.6369 52.2732 67.5134C52.3526 67.3885 52.4165 67.2551 52.4633 67.1146C52.5087 66.9741 52.5342 66.8251 52.5427 66.6704C52.5513 66.5143 52.5399 66.3525 52.5087 66.185L52.4633 65.9466L51.8604 66.0601L51.8164 65.8259L53.3131 65.5435L53.357 65.7777L52.7357 65.8955L52.7882 66.1765C52.8165 66.3269 52.8591 66.4646 52.9144 66.5895L52.9173 66.5867ZM53.8904 65.2412L54.1046 66.3823L54.5231 66.3028L54.5699 66.5512L54.1515 66.6307L54.4451 68.1876L54.1827 68.2372L53.628 65.2909L53.8904 65.2412Z" fill="black"/>
<path id="Vector_24" d="M55.8231 65.822C55.8997 65.9327 55.9862 66.0307 56.0841 66.113C56.1919 66.2038 56.3111 66.279 56.4444 66.3372C56.5763 66.3954 56.721 66.4394 56.8742 66.4692C56.8516 66.509 56.8289 66.5544 56.8062 66.6041C56.7849 66.6537 56.7679 66.6963 56.7565 66.7318C56.6714 66.7091 56.5849 66.6807 56.4969 66.6481C56.4104 66.614 56.3252 66.5743 56.2415 66.5303C56.1465 66.4777 56.0571 66.4181 55.972 66.3528C55.8869 66.2876 55.8089 66.2138 55.7379 66.1329C55.7507 66.2237 55.7493 66.323 55.7365 66.4295C55.7223 66.5359 55.7011 66.6424 55.6713 66.7502C55.6415 66.8581 55.606 66.9617 55.5606 67.0625C55.5166 67.1632 55.4698 67.2512 55.4216 67.325C55.3861 67.3094 55.3407 67.2938 55.2854 67.2768C55.2301 67.2597 55.1776 67.2456 55.1279 67.2356C55.2244 67.1079 55.2996 66.9731 55.3563 66.8326C55.4131 66.692 55.45 66.5487 55.4684 66.4025C55.4854 66.2563 55.484 66.1087 55.4627 65.9583C55.4429 65.8079 55.4031 65.6546 55.3436 65.4999L55.1464 64.9875L55.4074 64.8868L55.6202 65.4431C55.6755 65.5879 55.7422 65.7156 55.8188 65.8263L55.8231 65.822ZM57.4729 67.1576L56.4004 64.3616L56.6529 64.2651L57.7254 67.0611L57.4729 67.1576Z" fill="black"/>
<path id="Vector_25" d="M57.4411 64.6069L57.3276 64.4196L58.7463 63.5553L58.8597 63.7426L57.4411 64.6055V64.6069ZM57.5475 64.035L57.434 63.8476L58.176 63.3963L58.2895 63.5837L57.5475 64.035ZM57.8596 64.6978C57.9277 64.5502 58.0526 64.421 58.2327 64.3103C58.4228 64.1939 58.5959 64.1414 58.7519 64.1514C58.908 64.1613 59.0201 64.2223 59.0896 64.3359C59.1591 64.4494 59.1619 64.5785 59.0995 64.7233C59.0385 64.8681 58.9108 65.0001 58.7193 65.1164C58.5377 65.2271 58.3661 65.2768 58.2043 65.2683C58.0426 65.2598 57.9277 65.1988 57.8596 65.0881C57.7901 64.9745 57.7901 64.8439 57.8582 64.6963L57.8596 64.6978ZM58.298 65.0412C58.3873 65.0384 58.4909 65.0001 58.6086 64.9291C58.7278 64.8567 58.8101 64.7815 58.8527 64.7034C58.8966 64.6254 58.8966 64.5516 58.8527 64.4806C58.8087 64.4082 58.742 64.3728 58.6526 64.3742C58.5633 64.3756 58.4583 64.4139 58.3391 64.4863C58.2228 64.5573 58.1433 64.6325 58.0979 64.712C58.054 64.7914 58.054 64.8681 58.0979 64.9405C58.1405 65.0114 58.2072 65.0455 58.2966 65.0412H58.298ZM59.0513 66.3412L58.5349 65.494L60.1422 64.5147L60.6586 65.362L59.0513 66.3412ZM60.0344 64.8482L58.8853 65.5479L59.1619 66.002L60.311 65.3024L60.0344 64.8482ZM59.8414 64.5246L59.5137 63.9867L59.1222 64.2251L58.9959 64.0179L59.3875 63.7795L58.8924 62.9663L59.1179 62.8286L60.0656 64.3869L59.84 64.5246H59.8414Z" fill="black"/>
<path id="Vector_26" d="M62.4775 62.8536L61.8647 62.1652L61.3653 62.6095C61.3838 62.7287 61.3724 62.8465 61.3341 62.9643C61.2958 63.0821 61.2263 63.1842 61.1256 63.2737C60.9625 63.4184 60.7766 63.4809 60.5681 63.4567C60.3595 63.434 60.1836 63.3418 60.0404 63.1814C59.8957 63.0196 59.8233 62.8323 59.8247 62.6208C59.8247 62.4093 59.907 62.2319 60.0716 62.0858C60.168 61.9992 60.2744 61.9438 60.3908 61.9183C60.5071 61.8927 60.622 61.8942 60.7355 61.9225L61.2462 61.4684L61.0135 61.2072L61.2107 61.0312L62.6747 62.6776L62.4775 62.8536ZM60.595 63.2041C60.7284 63.2282 60.8518 63.1899 60.9639 63.0892C61.0802 62.9856 61.1327 62.8678 61.1242 62.7329C61.1157 62.5981 61.0603 62.4746 60.961 62.3625C60.8603 62.249 60.7426 62.1794 60.6092 62.1539C60.4759 62.1283 60.351 62.1666 60.2361 62.2703C60.1241 62.371 60.0716 62.4888 60.0815 62.6251C60.09 62.7613 60.1453 62.8862 60.2475 62.9997C60.3468 63.1119 60.4645 63.18 60.5979 63.2041H60.595ZM61.4065 61.65L60.9809 62.029C61.0121 62.0488 61.0447 62.0716 61.076 62.0971C61.1072 62.1227 61.137 62.151 61.1639 62.1808C61.188 62.2078 61.2093 62.2362 61.2277 62.2674C61.2462 62.2986 61.2632 62.3299 61.2774 62.3625L61.703 61.9836L61.4051 61.6486L61.4065 61.65ZM61.7583 64.4715L61.1029 63.7349L61.3043 63.5547L61.8009 64.1124L63.0606 62.9912L63.2195 63.1701L61.7583 64.4701V64.4715Z" fill="black"/>
<path id="Vector_27" d="M63.6989 60.6599L64.7387 61.4703L64.5741 61.6817L63.5343 60.8713L62.8151 61.7953L62.6235 61.6463L63.8067 60.1277C63.6918 59.99 63.5683 59.8552 63.4364 59.7246C63.3045 59.5926 63.1697 59.4691 63.0335 59.3513L61.9582 60.7308L61.7695 60.5832L63.0193 58.9795C63.1782 59.1115 63.3499 59.2662 63.5329 59.4422C63.7159 59.6196 63.8648 59.7743 63.9769 59.9077L64.2592 59.5458L64.4507 59.6948L63.7003 60.6585L63.6989 60.6599Z" fill="black"/>
<path id="Vector_28" d="M63.5811 58.1551C63.5399 57.9947 63.5712 57.8173 63.6719 57.6214C63.7754 57.4213 63.9031 57.2936 64.0563 57.2382C64.2095 57.1829 64.3486 57.1871 64.4762 57.2539C64.6082 57.322 64.6933 57.4355 64.7344 57.5931C64.7756 57.752 64.7444 57.928 64.6422 58.1238C64.5401 58.3211 64.411 58.4489 64.2578 58.507C64.1046 58.5652 63.9627 58.5596 63.8336 58.4929C63.7059 58.4261 63.6222 58.314 63.5811 58.1537V58.1551ZM64.1968 58.27C64.2961 58.2374 64.3798 58.1551 64.4493 58.0217C64.5188 57.8883 64.5372 57.7719 64.506 57.6754C64.4748 57.5774 64.4266 57.5122 64.3599 57.4781C64.2904 57.4426 64.2067 57.4398 64.1102 57.4696C64.0138 57.5008 63.9301 57.5831 63.8591 57.7194C63.7882 57.8556 63.7683 57.972 63.7996 58.0685C63.8293 58.165 63.8804 58.2317 63.9499 58.2686C64.0152 58.3027 64.0975 58.3041 64.1968 58.2714V58.27ZM66.2538 57.6456L65.9615 57.4937L65.648 58.0983L65.4508 57.9961L65.7643 57.3915L64.2209 56.5896L64.3429 56.3555L66.3758 57.4114L66.2538 57.6456ZM65.4522 57.3504C65.4154 57.4596 65.3544 57.6172 65.2678 57.823C65.1813 58.0273 65.1033 58.1991 65.0323 58.3367L65.4764 58.5681L65.3544 58.8022L64.916 58.5752L64.6124 59.1599L64.4039 59.052L64.8125 58.2573C64.8962 58.0955 64.9841 57.9053 65.0735 57.6867C65.1643 57.4682 65.221 57.3206 65.2423 57.2439L65.4508 57.3518L65.4522 57.3504ZM66.0722 59.3927L65.3969 59.0421L65.5246 58.7966L65.9842 59.035L66.7588 57.5405L66.973 57.6527L66.0708 59.3927H66.0722Z" fill="black"/>
<path id="Vector_29" d="M70.1806 49.5742H78C77.6893 39.2336 66.4368 30.8203 52.1967 30.0284C62.154 31.0431 69.955 39.3713 70.1806 49.5742ZM52.7472 69.9631C66.6922 68.9909 77.6411 60.6997 77.9972 50.5251H70.1791C69.938 60.5194 62.425 68.7042 52.7472 69.9631ZM22 49.5742H30.1117C30.3386 39.262 38.3084 30.8657 48.4189 30C33.8894 30.5791 22.3149 39.0846 22 49.5742ZM30.1117 50.5251H22.0014C22.3632 60.8473 33.627 69.2308 47.8614 70C38.0304 68.8802 30.3571 60.6273 30.1117 50.5251Z" fill="#00923F"/>
</g>
</g>
</g>
</svg>
