<svg width="120" height="100" viewBox="0 0 120 100" fill="none" xmlns="http://www.w3.org/2000/svg">
<path d="M26.1654 68.0264C25.3377 65.858 26.1323 62.2825 29.2443 60.4782L48.0984 49.5034C48.7274 49.1227 49.3068 48.9075 49.8365 48.8247" stroke="#231F20" stroke-width="0.16"/>
<path d="M22.0086 64.0871C21.9755 62.051 23.0018 59.6177 25.3854 58.2272L27.256 57.1182" stroke="#231F20" stroke-width="0.16"/>
<path d="M5.44005 55.562C4.52962 53.4431 5.27452 49.818 8.38652 48.0137L12.6738 45.5142" stroke="#231F20" stroke-width="0.16"/>
<path d="M47.6847 58.2601C46.3935 57.4821 46.2776 55.2971 47.3867 53.3438C48.5123 51.4071 50.4821 50.447 51.7733 51.225C53.0644 51.9865 53.1969 54.188 52.0713 56.1248C50.9456 58.078 48.9924 59.0381 47.6681 58.2601H47.6847Z" stroke="#231F20" stroke-width="0.16" stroke-linecap="round" stroke-linejoin="round"/>
<path d="M48.4143 57.6639C47.4211 57.0845 47.3218 55.3961 48.1826 53.9229C49.0433 52.4496 50.5331 51.7047 51.5263 52.3007" stroke="#231F20" stroke-width="0.16" stroke-linecap="round" stroke-linejoin="round"/>
<path d="M51.5426 52.2842C52.5358 52.8635 52.6351 54.5354 51.7744 56.0418C50.897 57.515 49.4238 58.2433 48.4141 57.664" stroke="#231F20" stroke-width="0.16" stroke-linecap="round" stroke-linejoin="round"/>
<path d="M57.5188 55.6783C57.3698 55.43 57.1878 55.2314 56.9395 55.0824C56.7077 54.95 56.4594 54.8838 56.178 54.8838L54.0095 53.5926C53.8937 53.4602 53.7943 53.3278 53.6454 53.2615C53.215 53.0298 52.7018 53.0464 52.1556 53.2615L51.808 53.0298C50.9803 52.5498 49.7223 53.1457 48.9939 54.4037C48.2821 55.6452 48.3483 57.0522 49.176 57.5323L49.5236 57.764C49.5733 58.3599 49.7885 58.84 50.2188 59.1048C50.3678 59.171 50.5334 59.2207 50.6989 59.2538L52.8343 60.545C52.9667 60.7767 53.1653 60.9753 53.4136 61.1243C53.6288 61.2568 53.9102 61.3064 54.1751 61.323C55.1186 61.8858 56.6912 61.1243 57.6181 59.5849C58.512 57.9958 58.3796 56.2246 57.4857 55.6618" fill="white"/>
<path d="M55.2643 60.5446C54.6849 60.197 54.7015 59.1375 55.2643 58.1775C55.8105 57.2174 56.721 56.7042 57.3169 57.0518" stroke="#231F20" stroke-width="0.16" stroke-linecap="round" stroke-linejoin="round"/>
<path d="M57.3026 57.0518C57.882 57.3994 57.8985 58.4588 57.3192 59.4189C56.7563 60.3955 55.8459 60.8756 55.25 60.5445" stroke="#231F20" stroke-width="0.16" stroke-linecap="round" stroke-linejoin="round"/>
<path d="M53.4272 61.1412C52.3678 60.5287 52.2851 58.6582 53.2617 56.9698C54.2384 55.2979 55.8771 54.4537 56.9365 55.0827" stroke="#231F20" stroke-width="0.16" stroke-linecap="round" stroke-linejoin="round"/>
<path d="M53.6429 53.262C52.6662 52.6826 51.1268 53.5434 50.1998 55.149C49.2397 56.7878 49.2728 58.5425 50.2329 59.1384" stroke="#231F20" stroke-width="0.16" stroke-linecap="round" stroke-linejoin="round"/>
<path d="M54.0063 53.5921C53.8904 53.4596 53.7911 53.3272 53.6421 53.2444C53.2117 53.0127 52.6986 53.0292 52.1523 53.2444L51.8047 53.0127" stroke="#231F20" stroke-width="0.16" stroke-linecap="round" stroke-linejoin="round"/>
<path d="M50.25 59.1215C50.399 59.2043 50.548 59.2374 50.73 59.2705L52.8654 60.5617C53.0144 60.7934 53.1965 61.0086 53.4448 61.141C53.66 61.2735 53.9414 61.3231 54.2062 61.3397C55.1497 61.9025 56.7389 61.141 57.6493 59.6016C58.5432 58.0125 58.4107 56.2578 57.5169 55.6785C57.3679 55.4302 57.1858 55.2315 56.9375 55.0826C56.7058 54.9501 56.4575 54.8839 56.1761 54.8839L53.991 53.5928" stroke="#231F20" stroke-width="0.8" stroke-linecap="round" stroke-linejoin="round"/>
<path d="M49.1914 57.5488L49.539 57.7806C49.5887 58.3765 49.8039 58.8565 50.2343 59.1214" stroke="#231F20" stroke-width="0.16" stroke-linecap="round" stroke-linejoin="round"/>
<path d="M38.4833 63.6235C37.1756 62.8455 37.0762 60.6605 38.1853 58.7072C39.3109 56.7705 41.2808 55.8104 42.5719 56.5718C43.8631 57.3333 43.9955 59.5349 42.8699 61.4716C41.7442 63.4249 39.791 64.385 38.4833 63.607V63.6235Z" stroke="#231F20" stroke-width="0.16" stroke-linecap="round" stroke-linejoin="round"/>
<path d="M39.2073 63.0277C38.2141 62.4483 38.1148 60.7599 38.9755 59.2866C39.8363 57.8134 41.3426 57.0685 42.3193 57.6644" stroke="#231F20" stroke-width="0.16" stroke-linecap="round" stroke-linejoin="round"/>
<path d="M42.32 57.6484C43.3132 58.2444 43.4125 59.9162 42.5517 61.406C41.6744 62.8793 40.1846 63.6076 39.1914 63.0117" stroke="#231F20" stroke-width="0.16" stroke-linecap="round" stroke-linejoin="round"/>
<path d="M48.3099 61.0415C48.1444 60.7932 47.9789 60.5946 47.7306 60.4456C47.4988 60.3132 47.2505 60.2469 46.9691 60.2469L44.8006 58.9558C44.6848 58.8234 44.5855 58.7075 44.4365 58.6247C44.0226 58.3764 43.5095 58.4095 42.9632 58.6247L42.6156 58.393C41.8045 57.9129 40.5299 58.5254 39.8181 59.7669C39.1063 61.0249 39.1726 62.4154 40.0002 62.8955L40.3478 63.1272C40.3975 63.7231 40.6127 64.2032 41.0431 64.468C41.192 64.5342 41.3576 64.5839 41.5231 64.617L43.6585 65.9081C43.8075 66.1233 43.9895 66.3385 44.2378 66.4875C44.453 66.6365 44.7344 66.6696 44.9827 66.6861C45.9263 67.249 47.5154 66.471 48.4258 64.9315C49.3197 63.3424 49.1872 61.5878 48.3099 61.0249" fill="white"/>
<path d="M46.0455 65.9083C45.4662 65.5607 45.4827 64.5013 46.0455 63.5412C46.5918 62.5811 47.5022 62.068 48.0981 62.4156C48.6775 62.7632 48.6775 63.8226 48.1312 64.7827C47.5684 65.7594 46.658 66.2394 46.0621 65.9083" stroke="#231F20" stroke-width="0.16" stroke-linecap="round" stroke-linejoin="round"/>
<path d="M44.2402 66.504C43.1643 65.875 43.098 64.0044 44.0581 62.3326C45.0513 60.6607 46.6735 59.8165 47.7329 60.4455" stroke="#231F20" stroke-width="0.16" stroke-linecap="round" stroke-linejoin="round"/>
<path d="M44.4437 58.6248C43.467 58.0454 41.9276 58.9062 41.0006 60.5118C40.0405 62.1506 40.0736 63.9052 41.0337 64.5012" stroke="#231F20" stroke-width="0.16" stroke-linecap="round" stroke-linejoin="round"/>
<path d="M47.7321 60.4457C47.5004 60.3132 47.2521 60.247 46.9707 60.247L44.8022 58.9559C44.7029 58.8235 44.587 58.7076 44.438 58.6248C44.0242 58.3765 43.4945 58.4096 42.9648 58.6248L42.6172 58.3931" stroke="#231F20" stroke-width="0.16" stroke-linecap="round" stroke-linejoin="round"/>
<path d="M40.8633 64.3523C40.8633 64.3523 40.9792 64.4351 41.0288 64.4682C41.1778 64.5344 41.3433 64.5841 41.5089 64.6172L43.6442 65.9083C43.7932 66.1235 43.9587 66.3387 44.2236 66.4877C44.4222 66.6367 44.7202 66.6698 44.9685 66.6863C45.912 67.2491 47.5011 66.4877 48.4115 64.9317C49.3054 63.3426 49.173 61.5879 48.2957 61.0251C48.1301 60.7768 47.9646 60.5782 47.7163 60.4292" stroke="#231F20" stroke-width="0.7" stroke-linecap="round" stroke-linejoin="round"/>
<path d="M39.9883 62.9121L40.3359 63.1439C40.3856 63.657 40.5511 64.0874 40.8822 64.3688" stroke="#231F20" stroke-width="0.16" stroke-linecap="round" stroke-linejoin="round"/>
<path d="M29.2812 68.9708C27.99 68.1928 27.8576 66.0078 28.9832 64.0545C30.0923 62.1012 32.0787 61.1577 33.3698 61.9191C34.661 62.664 34.7934 64.8822 33.6678 66.8354C32.5422 68.7887 30.5889 69.7488 29.2812 68.9708Z" stroke="#231F20" stroke-width="0.16" stroke-linecap="round" stroke-linejoin="round"/>
<path d="M30.0041 68.3748C29.011 67.7955 28.9116 66.1236 29.7724 64.6338C30.6332 63.1606 32.1395 62.4157 33.1161 63.0116" stroke="#231F20" stroke-width="0.16" stroke-linecap="round" stroke-linejoin="round"/>
<path d="M33.1207 63.0117C34.1139 63.5911 34.2133 65.2795 33.3525 66.7693C32.4752 68.2425 30.9854 68.9709 29.9922 68.375" stroke="#231F20" stroke-width="0.16" stroke-linecap="round" stroke-linejoin="round"/>
<path d="M39.1077 66.4048C38.9422 66.1399 38.7767 65.9578 38.5284 65.8089C38.2966 65.6764 38.0483 65.6102 37.7669 65.6102L35.5985 64.3191C35.4826 64.1866 35.3833 64.0708 35.2343 63.988C34.8204 63.7397 34.2907 63.7728 33.761 63.988L33.4134 63.7563C32.5858 63.2762 31.3277 63.8887 30.5994 65.1302C29.8876 66.3882 29.9538 67.7787 30.7815 68.2753L31.1291 68.4905C31.1787 69.0864 31.4105 69.5664 31.8409 69.8313C31.9733 69.8975 32.1388 69.9472 32.3044 69.9637L34.4397 71.2549C34.5721 71.4866 34.7542 71.6853 35.0191 71.8342C35.2343 71.9832 35.5157 72.0163 35.7805 72.0163H35.7971C36.7406 72.5791 38.3132 71.8177 39.2402 70.2782C40.134 68.6891 40.0016 66.9345 39.1077 66.3717" fill="white"/>
<path d="M36.844 71.2718C36.2812 70.9242 36.2812 69.8647 36.844 68.8881C37.3902 67.9446 38.3007 67.4149 38.8966 67.7625C39.4594 68.1101 39.4759 69.1695 38.9131 70.1296C38.3503 71.1062 37.4399 71.6028 36.8605 71.2552" stroke="#231F20" stroke-width="0.16" stroke-linecap="round" stroke-linejoin="round"/>
<path d="M35.0223 71.8678C33.9629 71.2388 33.8966 69.3682 34.8567 67.6964C35.8334 66.041 37.4721 65.1803 38.5315 65.8093" stroke="#231F20" stroke-width="0.16" stroke-linecap="round" stroke-linejoin="round"/>
<path d="M35.222 63.9718C34.262 63.409 32.706 64.2532 31.7955 65.8588C30.8354 67.4976 30.8685 69.2522 31.8452 69.8482" stroke="#231F20" stroke-width="0.16" stroke-linecap="round" stroke-linejoin="round"/>
<path d="M38.5134 65.8094C38.2816 65.677 38.0333 65.6108 37.7519 65.6108L35.5835 64.3362C35.4676 64.1872 35.3683 64.0879 35.2193 63.9886C34.8055 63.7403 34.2758 63.7734 33.7461 63.9886L33.3984 63.7568" stroke="#231F20" stroke-width="0.16" stroke-linecap="round" stroke-linejoin="round"/>
<path d="M31.6445 69.699C31.6445 69.699 31.777 69.7984 31.8432 69.8315C31.9756 69.8977 32.1411 69.9473 32.3067 69.9804L34.442 71.2716C34.5745 71.5033 34.7565 71.702 35.0214 71.851C35.2366 71.9999 35.518 72.033 35.7663 72.033H35.7828C36.7264 72.5959 38.2989 71.8344 39.2259 70.295C40.1198 68.7058 39.9874 66.9512 39.0935 66.3884C38.9279 66.1235 38.7624 65.9415 38.5141 65.7925" stroke="#231F20" stroke-width="0.7" stroke-linecap="round" stroke-linejoin="round"/>
<path d="M30.7656 68.2759L31.1132 68.4911C31.1629 68.9877 31.3119 69.4015 31.6264 69.6995" stroke="#231F20" stroke-width="0.16" stroke-linecap="round" stroke-linejoin="round"/>
<path d="M48.234 49.1726L46.4297 48.0967" stroke="#231F20" stroke-width="0.16" stroke-linecap="round" stroke-linejoin="round"/>
<path d="M29.5408 60.1311L27.1406 58.7075" stroke="#231F20" stroke-width="0.16" stroke-linecap="round" stroke-linejoin="round"/>
<path d="M25.9334 66.4046L23.8477 65.1631" stroke="#231F20" stroke-width="0.16" stroke-linecap="round" stroke-linejoin="round"/>
<path d="M4.94339 54.4359L4.33092 54.0718C3.02322 53.2938 2.9239 51.1087 4.03296 49.1554C5.15858 47.2187 7.12841 46.2586 8.41956 47.0201L9.18101 47.467" stroke="#231F20" stroke-width="0.16" stroke-linecap="round" stroke-linejoin="round"/>
<path d="M22.2422 56.3237L23.2519 56.9196L25.0066 57.4493L25.8508 57.946" stroke="#231F20" stroke-width="0.16" stroke-linecap="round" stroke-linejoin="round"/>
<path d="M13.6186 58.5912L11.7481 57.4655C10.7383 56.8696 10.6555 55.1646 11.5163 53.6417C12.3936 52.1189 13.9165 51.374 14.9097 51.9864L21.1668 55.6943" stroke="#231F20" stroke-width="0.16" stroke-linecap="round" stroke-linejoin="round"/>
<path d="M10.0126 57.449L7.67858 56.0586C6.37087 55.2806 6.27155 53.0955 7.38062 51.1423C8.50624 49.2055 10.4761 48.2455 11.7672 49.0069L15.8559 51.4237C16.4187 51.7547 16.7663 52.3838 16.8822 53.1121" stroke="#231F20" stroke-width="0.16" stroke-linecap="round" stroke-linejoin="round"/>
<path d="M22.8047 38.2468C23.9303 36.31 25.9001 35.3499 27.1913 36.1114L27.9527 36.5583" stroke="#231F20" stroke-width="0.16" stroke-linecap="round" stroke-linejoin="round"/>
<path d="M29.7891 43.8913C29.8884 43.5106 30.0539 43.1133 30.2691 42.7326C31.1299 41.2097 32.6693 40.4813 33.6625 41.0772L35.6158 42.2029" stroke="#231F20" stroke-width="0.16" stroke-linecap="round" stroke-linejoin="round"/>
<path d="M23.9805 38.9423L26.8773 37.2539C27.6056 36.8069 28.2512 36.6083 28.8637 36.5752" stroke="#231F20" stroke-width="0.16" stroke-linecap="round" stroke-linejoin="round"/>
<path d="M26.1328 40.2165C27.2584 38.2798 29.2283 37.3197 30.5194 38.0811L32.5224 39.2564" stroke="#231F20" stroke-width="0.16" stroke-linecap="round" stroke-linejoin="round"/>
<path d="M34.4226 47.8153L30.6484 45.5806" stroke="#231F20" stroke-width="0.16" stroke-linecap="round" stroke-linejoin="round"/>
<path d="M40.8001 53.1786L39.9062 52.6489" stroke="#231F20" stroke-width="0.16" stroke-linecap="round" stroke-linejoin="round"/>
<path d="M30.5859 50.1983L38.8957 45.3648C39.5247 45.0337 40.2861 44.9675 40.7993 45.2655" stroke="#231F20" stroke-width="0.16" stroke-linecap="round" stroke-linejoin="round"/>
<path d="M18.8145 61.6703C17.8047 61.0578 17.7219 59.3694 18.5827 57.8465C19.0131 57.1016 19.5925 56.5554 20.1884 56.2574L27.3394 52.1025" stroke="#231F20" stroke-width="0.16" stroke-linecap="round" stroke-linejoin="round"/>
<path d="M10.0586 46.3249V44.2227" stroke="#231F20" stroke-width="0.16" stroke-linecap="round" stroke-linejoin="round"/>
<path d="M20.0421 36.6245L25.8523 40.0676C27.0937 40.7794 27.64 41.5574 27.6566 42.3023V43.2292C27.7228 46.0102 20.936 48.4766 16.9466 46.1261L10.375 42.2361" stroke="#231F20" stroke-width="0.16" stroke-linecap="round" stroke-linejoin="round"/>
<path d="M17.4238 42.4348L16.4141 41.8224L16.9107 41.5244C16.9934 41.4747 17.0596 41.4416 17.1093 41.4085C17.1755 41.3754 17.2583 41.3423 17.3245 41.3423C17.3907 41.3423 17.4569 41.3258 17.5231 41.3423C17.5893 41.3423 17.639 41.3589 17.7052 41.392C17.788 41.4416 17.8376 41.5078 17.8045 41.5906C17.8045 41.6734 17.7052 41.7727 17.5231 41.872L17.1755 42.0707L17.5893 42.319M17.0596 42.0044L17.4073 41.8058C17.5231 41.7396 17.5893 41.6899 17.5893 41.6403C17.5893 41.5906 17.5893 41.541 17.5231 41.5078C17.4735 41.4913 17.4238 41.4747 17.3741 41.4747C17.3245 41.4747 17.2583 41.4747 17.2086 41.5078C17.1755 41.5078 17.1259 41.5575 17.0431 41.6072L16.712 41.8058L17.0596 42.021V42.0044Z" fill="#6D6E70"/>
<path d="M18.4848 40.5808L18.6504 40.4814L19.2297 40.8291C19.3291 40.8953 19.3953 40.9615 19.4284 41.0111C19.4615 41.0608 19.4615 41.127 19.4284 41.1932C19.3953 41.2594 19.2959 41.3257 19.1801 41.4084C19.0476 41.4746 18.9483 41.5243 18.8325 41.5574C18.7166 41.5905 18.6173 41.5905 18.5179 41.5574C18.4186 41.5409 18.3193 41.5077 18.22 41.4415L17.6406 41.0939L17.8227 40.9946L18.4021 41.3588C18.5014 41.4084 18.5676 41.4415 18.6338 41.4581C18.7 41.4581 18.7662 41.4581 18.8325 41.4581C18.8987 41.4415 18.9814 41.4084 19.0642 41.3753C19.1966 41.2926 19.2628 41.2429 19.2628 41.1767C19.2628 41.1105 19.2132 41.0443 19.0808 40.978" fill="#6D6E70"/>
<path d="M19.5602 40.7631L19.7092 40.6637C19.7092 40.6637 19.8251 40.6968 19.8913 40.7134C19.9575 40.7134 20.0237 40.7134 20.1065 40.6803C20.1892 40.6637 20.2555 40.6306 20.3382 40.581C20.4044 40.5479 20.4541 40.4982 20.4872 40.4651C20.5203 40.432 20.5369 40.3989 20.5369 40.3658C20.5369 40.3327 20.5203 40.2996 20.4872 40.283C20.4541 40.2665 20.421 40.2499 20.3713 40.2499C20.3217 40.2499 20.272 40.2499 20.1892 40.283C20.1396 40.2996 20.0568 40.3492 19.9078 40.3989C19.7589 40.4486 19.6595 40.4982 19.5933 40.5148C19.5106 40.5313 19.4278 40.5479 19.3616 40.5479C19.2954 40.5479 19.2292 40.5313 19.196 40.4982C19.1464 40.4651 19.1133 40.432 19.1133 40.3823C19.1133 40.3327 19.1133 40.283 19.1629 40.2168C19.2126 40.1671 19.2788 40.1009 19.3781 40.0513C19.4775 39.9851 19.5768 39.952 19.6595 39.9188C19.7589 39.8857 19.8582 39.8857 19.9409 39.8857C20.0237 39.8857 20.1065 39.9023 20.1561 39.9354L20.0072 40.0347C20.0072 40.0347 19.8582 39.9851 19.7754 40.0016C19.6926 40.0016 19.5933 40.0513 19.494 40.1175C19.3947 40.1837 19.3285 40.2334 19.3119 40.283C19.2954 40.3327 19.3119 40.3658 19.345 40.3823C19.3781 40.4154 19.4278 40.4154 19.4775 40.4154C19.5271 40.4154 19.643 40.3658 19.8085 40.2996C19.974 40.2334 20.0899 40.1837 20.1561 40.1671C20.2555 40.134 20.3548 40.134 20.421 40.134C20.4872 40.134 20.57 40.1506 20.6196 40.1837C20.6693 40.2168 20.7024 40.2499 20.7189 40.2996C20.7189 40.3492 20.7024 40.4154 20.6527 40.4651C20.6031 40.5313 20.5369 40.581 20.4375 40.6472C20.3217 40.7134 20.2058 40.7631 20.0899 40.7962C19.9906 40.8293 19.8747 40.8458 19.792 40.8458C19.6926 40.8458 19.6099 40.8127 19.5437 40.7796" fill="#6D6E70"/>
<path d="M21.166 40.2L20.1562 39.5876L20.3383 39.4882L20.7522 39.7365L21.4308 39.3393L21.0005 39.091L21.1826 38.9751L22.1923 39.5876L22.0102 39.6869L21.5467 39.4055L20.868 39.8028L21.3481 40.1007" fill="#6D6E70"/>
<path d="M11.8132 43.8423H10.0586" stroke="#231F20" stroke-width="0.16" stroke-linecap="round" stroke-linejoin="round"/>
<path d="M26.5637 51.4399C24.0973 52.6979 20.2901 53.1283 17.6416 51.5723L12.6094 48.5927V45.729" stroke="#231F20" stroke-width="0.16" stroke-linecap="round" stroke-linejoin="round"/>
<path d="M27.8711 42.4341C28.3677 42.9472 29.0464 43.7418 29.0464 44.2715V46.0758" stroke="#231F20" stroke-width="0.16" stroke-linecap="round" stroke-linejoin="round"/>
<path d="M36.4599 51.6055C36.4599 52.3007 35.5661 52.847 34.4404 52.847C33.3148 52.847 32.4375 52.2842 32.4375 51.6055" stroke="#231F20" stroke-width="0.16" stroke-linecap="round" stroke-linejoin="round"/>
<path d="M26.5625 52.4665V47.2688C26.5625 46.5902 27.4564 46.0273 28.5654 46.0273C29.6745 46.0273 30.5849 46.5736 30.5849 47.2688V51.2913" stroke="#231F20" stroke-width="0.16" stroke-linecap="round" stroke-linejoin="round"/>
<path d="M30.5849 47.269C30.5849 47.9643 29.6911 48.5105 28.5654 48.5105C27.4398 48.5105 26.5625 47.9643 26.5625 47.269" stroke="#231F20" stroke-width="0.16" stroke-linecap="round" stroke-linejoin="round"/>
<path d="M31.7451 54.3711C31.7451 55.0498 30.8512 55.6126 29.7256 55.6126C28.6 55.6126 27.7227 55.0663 27.7227 54.3711" stroke="#231F20" stroke-width="0.16" stroke-linecap="round" stroke-linejoin="round"/>
<path d="M26.9102 54.3705C26.9102 53.4269 28.1682 52.6489 29.7242 52.6489C31.2802 52.6489 32.5382 53.4104 32.5382 54.3705" stroke="#231F20" stroke-width="0.16" stroke-linecap="round" stroke-linejoin="round"/>
<path d="M41.9892 48.874V50.0824C41.9892 50.5459 41.6747 50.9763 41.1946 51.2908C41.1946 51.2908 40.5987 51.4232 40.2015 51.8702C39.3903 52.7806 38.9269 53.6248 38.7282 54.171C38.4303 55.0484 37.404 55.545 36.2121 55.6443C35.3845 55.6939 33.2657 56.0747 31.7593 56.7699C31.2462 57.101 30.5344 57.2996 29.7398 57.2996C28.1838 57.2996 26.9258 56.5382 26.9258 55.5615V54.3531" stroke="#231F20" stroke-width="0.16" stroke-linecap="round" stroke-linejoin="round"/>
<path d="M41.9914 48.8744C41.9914 47.9308 40.7333 47.1528 39.1773 47.1528C37.6213 47.1528 36.3633 47.9308 36.3633 48.8744" stroke="#231F20" stroke-width="0.16" stroke-linecap="round" stroke-linejoin="round"/>
<path d="M41.1787 48.874C41.1787 49.5527 40.2848 50.099 39.1592 50.099C38.0336 50.099 37.1562 49.5362 37.1562 48.874" stroke="#231F20" stroke-width="0.16" stroke-linecap="round" stroke-linejoin="round"/>
<path d="M29.7422 52.6815C30.2884 52.0028 30.5864 51.3738 30.7354 50.9103C31.0333 50.0329 32.0596 49.5363 33.2515 49.4536C33.9302 49.4039 35.1054 49.288 36.3635 48.9404" stroke="#231F20" stroke-width="0.16" stroke-linecap="round" stroke-linejoin="round"/>
<path d="M19.2969 47.9971V49.3379C20.0749 49.6524 20.9191 49.8345 21.7799 49.9007" stroke="#231F20" stroke-width="0.16" stroke-linecap="round" stroke-linejoin="round"/>
<path d="M27.7344 52.2349V52.9135" stroke="#231F20" stroke-width="0.16" stroke-linecap="round" stroke-linejoin="round"/>
<path d="M40.8641 64.3525L38.4805 65.743" stroke="#231F20" stroke-width="0.33" stroke-linecap="round" stroke-linejoin="round"/>
<path d="M50.1519 58.9551L47.6523 60.3952" stroke="#231F20" stroke-width="0.33" stroke-linecap="round" stroke-linejoin="round"/>
<path d="M31.5945 69.7494C30.1874 70.6268 29.0287 70.5937 28.2011 70.0474L27.2575 69.5011C26.7775 69.17 26.3968 68.6569 26.165 68.0444C25.4367 68.1768 24.8573 68.1106 24.3773 67.7795L23.4337 67.2332C22.5564 66.6373 22.0598 65.4619 22.0433 64.0879L21.1659 63.5748L19.9244 62.3167L13.6508 58.6085C12.9886 58.8403 12.3265 58.8238 11.7968 58.4927L10.0422 57.4498C8.96622 57.9133 8.07234 57.8305 7.41022 57.3836L6.48324 56.8538C6.05285 56.5724 5.70524 56.1254 5.47349 55.5792L5.17553 55.6619C4.44719 55.7944 3.83472 55.6619 3.33813 55.3143L2.39459 54.768C0.209568 53.3112 0.391653 48.0802 4.38098 45.7626L10.4229 42.2531V41.3592C12.4424 38.5616 16.6635 36.3433 19.3285 36.1778L20.09 36.6247L23.2516 34.7872C24.6421 33.9264 25.8174 33.9264 26.6947 34.4396L27.6382 34.9859C28.1514 35.3004 28.5652 35.797 28.8466 36.4095L28.8963 36.6082C29.426 36.5916 29.8895 36.7075 30.2868 36.9393L31.2137 37.469C31.76 37.7835 32.1904 38.3298 32.4552 38.9754L32.5711 39.2899L34.6568 40.5315C35.2196 40.8626 35.5672 41.4751 35.6666 42.22L42.0561 46.0275L43.8107 46.5572L44.6715 47.0538C45.913 46.4248 46.9558 46.4579 47.7504 46.9048L48.7105 47.4511C49.2402 47.7656 49.6375 48.2457 49.9189 48.8582C50.5644 48.7754 51.1273 48.8913 51.5907 49.1727L52.5343 49.719C53.6599 50.3812 54.2558 51.9373 54.1068 53.6258" stroke="#231F20" stroke-width="0.8" stroke-linecap="round" stroke-linejoin="round"/>
<path d="M42.2734 48.411L44.2598 47.2523C44.3923 47.1695 44.5081 47.1033 44.624 47.0371" stroke="#231F20" stroke-width="0.16" stroke-linecap="round" stroke-linejoin="round"/>
<path d="M26.3125 49.2381C26.7429 50.3638 30.2191 50.5293 30.9143 49.1885L26.3125 49.2381Z" fill="white"/>
<path d="M26.3125 49.2381C26.7429 50.3638 30.2191 50.5293 30.9143 49.1885" stroke="#231F20" stroke-width="0.16" stroke-linecap="round" stroke-linejoin="round"/>
<path d="M30.9141 49.1885C30.9803 49.0561 30.9638 48.8905 30.9803 48.725C31.8411 29.2409 42.0213 14.6236 58.9387 8.59792C75.4257 2.72123 95.0413 6.56177 104.543 17.5371C113.631 28.0324 116.56 41.6067 112.372 53.8899C105.784 73.1754 82.4608 87.4946 46.7059 94.2156C45.4147 94.4639 45.3651 95.9538 45.5306 96.8477C45.6796 97.6423 46.0272 98.9832 47.1363 98.9832C47.2852 98.9832 47.4177 98.9832 47.5666 98.95C95.6537 89.9115 111.793 70.3115 116.858 55.4625C121.609 41.524 118.348 26.1618 108.118 14.3587C97.2263 1.7942 75.8892 -2.52641 57.3661 4.06211C38.5286 10.7831 27.1896 26.9729 26.2461 48.5263C26.2461 48.7747 26.2461 49.023 26.3289 49.2547" fill="white"/>
<path d="M30.9141 49.1885C30.9803 49.0561 30.9638 48.8905 30.9803 48.725C31.8411 29.2574 42.0213 14.6236 58.9387 8.59792C75.4257 2.72123 95.0413 6.56177 104.543 17.5371C113.631 28.0324 116.56 41.6067 112.372 53.8899C105.784 73.1754 82.4608 87.4946 46.7059 94.2156C45.4147 94.4639 45.3651 95.9538 45.5306 96.8477C45.6796 97.6423 46.0272 98.9832 47.1363 98.9832C47.2852 98.9832 47.4177 98.9832 47.5666 98.95C95.6537 89.9115 111.793 70.3115 116.858 55.4625C121.609 41.524 118.348 26.1618 108.102 14.3587C97.2263 1.7942 75.8892 -2.52641 57.3661 4.06211C38.5286 10.7831 27.1896 26.9729 26.2461 48.5263C26.2461 48.7747 26.2461 49.023 26.3123 49.2547" stroke="#231F20" stroke-width="0.5" stroke-linecap="round" stroke-linejoin="round"/>
<path d="M47.1569 98.9997C48.4481 98.768 48.4978 97.2617 48.3322 96.3678C48.1832 95.5732 47.8356 94.2324 46.7266 94.2324" stroke="#231F20" stroke-width="0.16" stroke-linecap="round" stroke-linejoin="round"/>
</svg>
