<svg width="172" height="102" viewBox="0 0 172 102" fill="none" xmlns="http://www.w3.org/2000/svg">
<path d="M69.5339 100.953C68.6474 100.953 67.761 100.75 67.0777 100.361L2.21781 62.4635C1.62683 62.1119 1.27593 61.6678 1.18359 61.1866C1.18359 61.1866 1.18359 61.1496 1.18359 61.1311V61.0571C1.18359 61.0571 1.18359 61.0016 1.18359 60.9831C1.18359 60.9461 1.18359 60.9276 1.18359 60.9091V60.3169C1.18359 60.3169 1.18359 60.2614 1.18359 60.2429C1.18359 59.6693 1.55296 59.1511 2.23627 58.744L99.9877 1.62021C101.336 0.824513 103.534 0.824513 104.882 1.62021L169.76 39.5177C170.425 39.9063 170.813 40.4429 170.813 41.0166V42.1269C170.813 42.1269 170.776 42.2194 170.72 42.2379C170.573 42.6265 170.24 42.9781 169.76 43.2557L71.9717 100.379C71.2884 100.768 70.4019 100.972 69.5154 100.972" fill="white"/>
<path d="M69.5339 100.953C68.6474 100.953 67.761 100.75 67.0777 100.361L2.21781 62.4635C1.62683 62.1119 1.27593 61.6678 1.18359 61.1866C1.18359 61.1866 1.18359 61.1496 1.18359 61.1311V61.0571C1.18359 61.0571 1.18359 61.0016 1.18359 60.9831C1.18359 60.9461 1.18359 60.9276 1.18359 60.9091V60.3169C1.18359 60.3169 1.18359 60.2614 1.18359 60.2429C1.18359 59.6693 1.55296 59.1511 2.23627 58.744L99.9877 1.62021C101.336 0.824513 103.534 0.824513 104.882 1.62021L169.76 39.5177C170.425 39.9063 170.813 40.4429 170.813 41.0166V42.1269C170.813 42.1269 170.776 42.2194 170.72 42.2379C170.573 42.6265 170.24 42.9781 169.76 43.2557L71.9717 100.379C71.2884 100.768 70.4019 100.972 69.5154 100.972L69.5339 100.953Z" stroke="#231815" stroke-width="0.8" stroke-linecap="round" stroke-linejoin="round"/>
<path d="M71.9209 100.417C70.5912 101.194 68.4489 101.194 67.1192 100.417L2.13009 62.4087C0.800387 61.6315 0.800387 60.3732 2.13009 59.596L100.085 2.32411C101.414 1.54691 103.557 1.54691 104.886 2.32411L169.876 40.3326C171.205 41.1098 171.205 42.3681 169.876 43.1453" fill="white"/>
<path d="M71.9209 100.417C70.5912 101.194 68.4489 101.194 67.1192 100.417L2.13009 62.4087C0.800387 61.6315 0.800387 60.3732 2.13009 59.596L100.085 2.32411C101.414 1.54691 103.557 1.54691 104.886 2.32411L169.876 40.3326C171.205 41.1098 171.205 42.3682 169.876 43.1453L71.9209 100.417Z" stroke="#231815" stroke-width="0.42" stroke-linecap="round" stroke-linejoin="round"/>
<path d="M71.9209 99.6575C70.5912 100.435 68.4489 100.435 67.1192 99.6575L2.13009 61.649C0.800387 60.8718 0.800387 59.6134 2.13009 58.8362L100.085 1.5829C101.414 0.805701 103.557 0.805701 104.886 1.5829L169.876 39.5914C171.205 40.3686 171.205 41.6269 169.876 42.4041" fill="white"/>
<path d="M71.9209 99.6575C70.5912 100.435 68.4489 100.435 67.1192 99.6575L2.13009 61.649C0.800387 60.8718 0.800387 59.6134 2.13009 58.8362L100.085 1.5829C101.414 0.805701 103.557 0.805701 104.886 1.5829L169.876 39.5914C171.205 40.3686 171.205 41.6269 169.876 42.4041L71.9209 99.676V99.6575Z" stroke="#231815" stroke-width="0.42" stroke-linecap="round" stroke-linejoin="round"/>
<path d="M171 41.0903V41.9415" stroke="#231815" stroke-width="0.42" stroke-linecap="round" stroke-linejoin="round"/>
<path d="M1 60.4648V61.057" stroke="#231815" stroke-width="0.42" stroke-linecap="round" stroke-linejoin="round"/>
<path d="M72.6222 97.1968C71.3664 97.9369 69.3164 97.9369 68.0606 97.1968L6.34031 61.0942C5.08448 60.354 5.08448 59.1697 6.34031 58.4295L99.364 4.0444C100.62 3.30421 102.67 3.30421 103.926 4.0444L165.664 40.1469C166.92 40.8871 166.92 42.0714 165.664 42.8116" fill="#E5E6E7"/>
<path d="M72.6222 97.1968C71.3664 97.9369 69.3164 97.9369 68.0606 97.1968L6.34031 61.0942C5.08448 60.354 5.08448 59.1697 6.34031 58.4295L99.364 4.0444C100.62 3.30421 102.67 3.30421 103.926 4.0444L165.664 40.1469C166.92 40.8871 166.92 42.0714 165.664 42.8116L72.6222 97.2153V97.1968Z" stroke="#231815" stroke-width="0.42" stroke-linecap="round" stroke-linejoin="round"/>
<path d="M65.3426 95.6794L162.909 38.6111M60.9841 93.1073L158.551 36.0389M56.6257 90.5166L154.211 33.4483M52.1933 88L149.76 30.9317M47.8349 85.4093L145.402 28.341M43.4949 82.8372L141.062 25.7689M39.1364 80.2465L136.703 23.1782M34.7779 77.6559L132.345 20.5876M30.3456 75.1207L127.912 18.0524M26.0241 72.5856L123.591 15.5173M21.6102 70.032L119.195 12.9637M17.3441 67.4228L114.911 10.3545M12.8933 64.9062L110.479 7.83787M8.46094 62.371L106.028 5.30273" stroke="#58595B" stroke-width="0.3" stroke-linecap="round" stroke-linejoin="round"/>
<path d="M76.7016 94.8471L10.3828 56.0429M83.8118 90.6835L17.493 51.8978M90.9221 86.52L24.6032 47.7343M98.0323 82.3565L31.7134 43.5892M105.142 78.2299L38.8052 39.4257M112.234 74.0479L45.9154 35.2807M119.344 69.9028L53.0256 31.1171M126.455 65.7578L60.1358 26.9536M133.565 61.5757L67.246 22.8085M140.675 57.4492L74.3377 18.645M147.767 53.2857L81.4479 14.4999M154.877 49.1221L88.5581 10.3364M161.987 44.9586L95.6683 6.17285" stroke="#58595B" stroke-width="0.3" stroke-linecap="round" stroke-linejoin="round"/>
</svg>
