<svg width="72" height="72" viewBox="0 0 72 72" fill="none" xmlns="http://www.w3.org/2000/svg">
<g id="icon">
<g id="Group 1083">
<path id="Vector" d="M47.4667 13.4946L6.77886 23.4584C4.69185 23.9695 3.41431 26.0756 3.92538 28.1626L11.468 58.9636C11.9791 61.0506 14.0852 62.3281 16.1723 61.8171L56.8601 51.8533C58.9471 51.3422 60.2247 49.236 59.7136 47.149L52.171 16.3481C51.6599 14.2611 49.5537 12.9836 47.4667 13.4946Z" stroke="#222222" stroke-width="2" stroke-linecap="round" stroke-linejoin="round"/>
<path id="Vector_2" d="M30.8874 27.1414C30.6778 26.2854 29.814 25.7614 28.958 25.9711C28.1021 26.1807 27.5781 27.0445 27.7877 27.9004L31.2308 41.9604C31.4404 42.8163 32.3042 43.3403 33.1602 43.1307C34.0161 42.9211 34.5401 42.0573 34.3305 41.2013L30.8874 27.1414Z" fill="#222222"/>
<path id="Vector_3" d="M34.3032 49.3851C35.1844 49.3851 35.8988 48.6707 35.8988 47.7895C35.8988 46.9082 35.1844 46.1938 34.3032 46.1938C33.4219 46.1938 32.7075 46.9082 32.7075 47.7895C32.7075 48.6707 33.4219 49.3851 34.3032 49.3851Z" fill="#222222"/>
<path id="Vector_4" d="M37.0048 9.61362L38.7773 9.17956C39.1804 9.08086 39.5901 9.32749 39.6893 9.73277L40.9992 15.0815L37.7636 15.8738L36.4538 10.5251C36.3551 10.122 36.6018 9.71232 37.007 9.61308L37.0048 9.61362Z" fill="#222222"/>
<path id="Vector_5" d="M4.47217 62.1357H69.8933" stroke="#222222" stroke-width="2" stroke-linecap="round" stroke-linejoin="round"/>
</g>
</g>
</svg>
