<svg width="140" height="97" viewBox="0 0 140 97" fill="none" xmlns="http://www.w3.org/2000/svg">
<path d="M2.76849 63.4208C2.05211 63.4208 1.53387 62.6131 1.44241 62.4454L1.39669 62.3692C1.1833 61.9578 0.771754 60.9672 1.45766 60.4491C1.45766 60.4491 1.50338 60.4186 1.51863 60.4186L5.10057 58.346C4.91766 57.4622 5.13105 56.7611 5.67977 56.3344C5.67977 56.3344 5.71026 56.3192 5.71026 56.304L7.204 55.4353C7.18876 54.5209 7.49361 53.8047 8.13378 53.317C8.13378 53.317 8.16427 53.3018 8.16427 53.2866L8.62154 53.0275C7.92039 50.1777 8.45387 47.9832 10.161 46.6727C10.161 46.6727 10.1915 46.6574 10.1915 46.6422L13.9259 44.4782C14.3831 44.2343 14.7794 44.0972 15.2824 44.0058L65.3838 15.0052L65.4143 14.9595L65.6582 14.6852C65.7954 14.5328 65.8106 14.5175 65.9783 14.3804L66.2222 14.1975C66.2222 14.1975 66.2526 14.1823 66.2526 14.167L69.987 12.003C70.5052 11.7287 70.9473 11.5916 71.557 11.5001C73.3556 11.5154 75.0322 12.2621 76.5869 13.6946L81.8303 10.662C80.8548 7.18737 81.3882 4.04805 83.4307 2.85938L83.5679 2.76794L85.7933 1.47259C88.5369 -0.112304 92.9724 2.41744 95.6855 7.14165C98.3986 11.8506 98.3682 16.9711 95.6245 18.5712L93.4449 19.8361C93.4449 19.8361 93.323 19.9123 93.262 19.958C91.3415 21.0705 88.5826 20.1561 86.1743 17.8854L80.7176 21.04C80.7481 21.1467 80.7633 21.2533 80.7786 21.36C81.1596 23.2802 81.1901 25.9014 79.1934 27.4405L75.4285 29.6198C74.9255 29.8788 74.5292 30.016 74.0719 30.0922L23.9553 59.1232C23.9553 59.1232 23.94 59.1232 23.9248 59.1232C23.7114 59.4128 23.4523 59.6719 23.1627 59.8852L19.3978 62.0644C19.3978 62.0644 19.3674 62.0645 19.3674 62.0797C16.9896 63.3141 14.7032 62.0035 13.1637 60.6319L12.7065 60.891C12.7065 60.891 12.676 60.9063 12.6607 60.9063C11.9139 61.3025 11.0298 61.211 10.1458 60.6319L8.75872 61.4396C8.75872 61.4396 8.72823 61.4396 8.71299 61.4549C8.14902 61.7444 7.49361 61.653 6.83819 61.1653L3.19528 63.2836C3.0581 63.3446 2.92092 63.3903 2.78374 63.3903L2.76849 63.4208Z" stroke="#231815" stroke-width="0.8" stroke-linecap="round" stroke-linejoin="round"/>
<path d="M82.2743 10.499C81.3011 7.09499 81.8037 4.02183 83.7821 2.87365L83.9193 2.78222L86.1142 1.50211C88.7663 -0.0370718 93.0494 2.46219 95.7016 7.07973C98.3537 11.6973 98.3537 16.6958 95.7016 18.235L93.5067 19.5151L93.3695 19.6065H93.3543C91.4947 20.6857 88.8335 19.7796 86.5 17.5501" stroke="#231815" stroke-width="0.36" stroke-linecap="round" stroke-linejoin="round"/>
<path d="M83.7344 2.84463C86.3865 1.29021 90.7001 3.80472 93.3523 8.45273C96.0044 13.1007 96.0044 18.1145 93.3523 19.6689" stroke="#231815" stroke-width="0.18" stroke-linecap="round" stroke-linejoin="round"/>
<path d="M75.4175 29.3448C77.2009 27.958 77.3228 25.5806 76.9113 23.4928C76.1034 19.3477 72.6739 13.8768 67.9945 13.8311C67.4305 13.9073 67.0342 14.0292 66.5312 14.3035" stroke="#231815" stroke-width="0.18" stroke-linecap="round" stroke-linejoin="round"/>
<path d="M74.1176 29.7411C74.6054 29.6649 74.9865 29.5278 75.4132 29.2992L79.1171 27.1504C80.9005 25.7789 81.0072 23.4015 80.6109 21.329C79.803 17.2143 76.3887 11.7738 71.7246 11.7129C71.1606 11.7891 70.7643 11.911 70.2613 12.1853L66.5575 14.3341C66.024 14.7455 66.2679 14.5169 65.7953 15.0351L65.7344 15.1265" stroke="#231815" stroke-width="0.36" stroke-linecap="round" stroke-linejoin="round"/>
<path d="M19.0812 62.0489C20.8645 60.6621 20.9865 58.2847 20.5749 56.1969C19.7671 52.0671 16.3376 46.5961 11.6582 46.5352C11.0942 46.6114 10.6827 46.7485 10.1797 47.0076" stroke="#231815" stroke-width="0.18" stroke-linecap="round" stroke-linejoin="round"/>
<path d="M10.4798 57.2181C12.0955 59.9308 15.7232 63.8168 19.1984 62.0033L22.948 59.8241C24.7466 58.4373 24.8685 56.0447 24.457 53.9569C23.6339 49.8118 20.1739 44.3256 15.464 44.2646C14.9001 44.3408 14.4885 44.478 13.9855 44.7371L10.2359 46.9163C7.20271 49.2632 8.77267 53.9721 10.2207 56.761L10.495 57.2181H10.4798Z" stroke="#231815" stroke-width="0.36" stroke-linecap="round" stroke-linejoin="round"/>
<path d="M74.0581 29.8779L23.7891 59.0309" stroke="#231815" stroke-width="0.36" stroke-linecap="round" stroke-linejoin="round"/>
<path d="M65.5816 15.1416L15.3125 44.2793" stroke="#231815" stroke-width="0.36" stroke-linecap="round" stroke-linejoin="round"/>
<path d="M89.364 15.7812L82.0324 20.0338L80.5234 20.9027" stroke="#231815" stroke-width="0.36" stroke-linecap="round" stroke-linejoin="round"/>
<path d="M85.3815 8.86328L76.6172 13.9542" stroke="#231815" stroke-width="0.36" stroke-linecap="round" stroke-linejoin="round"/>
<path d="M8.30696 58.575C9.06908 59.8551 10.761 61.6838 12.4071 60.8304L15.7452 58.895C16.5835 58.2397 16.6445 57.112 16.4463 56.1367C16.0653 54.186 14.4344 51.5953 12.2242 51.5801C11.9651 51.6258 11.767 51.6715 11.5231 51.8087L8.18502 53.7441C6.75225 54.8413 7.49912 57.0663 8.18502 58.3768" fill="white"/>
<path d="M8.30696 58.575C9.06908 59.8551 10.761 61.6838 12.4071 60.8304L15.7452 58.895C16.5835 58.2397 16.6445 57.112 16.4463 56.1367C16.0653 54.186 14.4344 51.5953 12.2242 51.5801C11.9651 51.6258 11.767 51.6715 11.5231 51.8087L8.18502 53.7441C6.75225 54.8413 7.49912 57.0663 8.18502 58.3768L8.30696 58.5902V58.575Z" stroke="#231815" stroke-width="0.36"/>
<path d="M12.3545 60.8755C13.1929 60.2202 13.2538 59.0772 13.0557 58.0867C12.6746 56.1208 11.0437 53.5149 8.81833 53.4844C8.54397 53.5301 8.36106 53.5758 8.11719 53.713" stroke="#231815" stroke-width="0.18" stroke-linecap="round" stroke-linejoin="round"/>
<path d="M5.7853 59.9155C6.27305 60.7537 7.38574 61.9423 8.4527 61.3785L11.242 59.7631C11.7908 59.3364 11.8365 58.6049 11.6993 57.9648C11.4554 56.7 10.3885 55.0084 8.94045 54.9932C8.77279 55.0236 8.65085 55.0541 8.48318 55.1303L5.69384 56.7457C4.76406 57.4619 5.25182 58.9097 5.69384 59.7631" fill="white"/>
<path d="M5.7853 59.9155C6.27305 60.7537 7.38574 61.9423 8.4527 61.3785L11.242 59.7631C11.7908 59.3364 11.8365 58.6049 11.6993 57.9648C11.4554 56.7 10.3885 55.0084 8.94045 54.9932C8.77279 55.0236 8.65085 55.0541 8.48318 55.1303L5.69384 56.7457C4.76406 57.4619 5.25182 58.9097 5.69384 59.7631L5.77006 59.9003L5.7853 59.9155Z" stroke="#231815" stroke-width="0.36"/>
<path d="M8.40729 61.425C8.95602 60.9982 9.00174 60.2513 8.86456 59.6111C8.62068 58.3155 7.55372 56.6236 6.10571 56.6084C5.93804 56.6389 5.80086 56.6694 5.64844 56.7608" stroke="#231815" stroke-width="0.18" stroke-linecap="round" stroke-linejoin="round"/>
<path d="M1.51797 62.4601C1.77709 62.8868 2.35629 63.5116 2.90502 63.222L7.64537 60.4942C7.93497 60.2656 7.95022 59.8998 7.88925 59.5646C7.75207 58.9093 7.20334 58.0406 6.45647 58.0254C6.36502 58.0254 6.30405 58.0559 6.21259 58.1016L1.47224 60.8294C0.984487 61.1952 1.24361 61.9419 1.47224 62.3839" fill="white"/>
<path d="M1.51797 62.4601C1.77709 62.8868 2.35629 63.5116 2.90502 63.222L7.64537 60.4942C7.93497 60.2656 7.95022 59.8998 7.88925 59.5646C7.75207 58.9093 7.20334 58.0406 6.45647 58.0254C6.36502 58.0254 6.30405 58.0559 6.21259 58.1016L1.47224 60.8294C0.984487 61.1952 1.24361 61.9419 1.47224 62.3839L1.51797 62.4601Z" stroke="#231815" stroke-width="0.36"/>
<path d="M2.81674 63.2831C3.0911 63.0697 3.10634 62.6887 3.04537 62.3533C2.92343 61.6979 2.38995 60.8291 1.65832 60.8291C1.56687 60.8291 1.5059 60.8596 1.42969 60.9053" stroke="#231815" stroke-width="0.18" stroke-linecap="round" stroke-linejoin="round"/>
<path d="M85.6094 8.86318C86.6611 8.2536 88.353 9.24416 89.4047 11.1034C90.4564 12.9626 90.4564 14.9589 89.4047 15.5838" stroke="#231815" stroke-width="0.36" stroke-linecap="round" stroke-linejoin="round"/>
<path d="M100.271 91.6978C100.166 94.1351 98.2849 95.113 96.0729 93.8493C93.8458 92.5855 92.1454 89.5765 92.2507 87.1392C92.3561 84.6869 94.2371 83.724 96.4641 84.9878C98.6912 86.2515 100.392 89.2605 100.286 91.7129L100.271 91.6978Z" stroke="#231F20" stroke-width="0.1" stroke-linecap="round" stroke-linejoin="round"/>
<path d="M71.1105 66.4969C71.0052 68.9492 69.1091 69.9121 66.8971 68.6483C64.67 67.3996 62.9696 64.3906 63.075 61.9382C63.1803 59.4859 65.0613 58.5381 67.2884 59.7868C69.5004 61.0506 71.2309 64.0445 71.1105 66.4969Z" stroke="#231F20" stroke-width="0.1" stroke-linecap="round" stroke-linejoin="round"/>
<path d="M77.1133 65.1592L91.168 77.3005" stroke="#231F20" stroke-width="0.1" stroke-linecap="round" stroke-linejoin="round"/>
<path d="M66.5469 57.124C67.1187 57.2143 67.7206 57.4249 68.3677 57.786C68.8191 58.0418 69.2555 58.3577 69.6768 58.7188L76.012 64.1952" stroke="#231F20" stroke-width="0.19" stroke-linecap="round" stroke-linejoin="round"/>
<path d="M102.316 75.3438L104.528 77.2548" stroke="#231F20" stroke-width="0.1" stroke-linecap="round" stroke-linejoin="round"/>
<path d="M77.1133 65.1592L91.183 77.3005" stroke="#231F20" stroke-width="0.19" stroke-linecap="round" stroke-linejoin="round"/>
<path d="M80.5586 49.708C80.7091 49.7832 80.8596 49.8585 81.01 49.9337C81.4765 50.1894 81.8979 50.5054 82.3192 50.8665L88.6543 56.3428" stroke="#231F20" stroke-width="0.19" stroke-linecap="round" stroke-linejoin="round"/>
<path d="M89.75 57.3047L103.82 69.461" stroke="#231F20" stroke-width="0.19" stroke-linecap="round" stroke-linejoin="round"/>
<path d="M85.524 79.1053C85.4186 81.5576 83.5226 82.5205 81.3106 81.2567C79.0835 80.008 77.368 76.999 77.4734 74.5466C77.5787 72.0943 79.4747 71.1465 81.6867 72.3952C83.9138 73.659 85.6142 76.668 85.5089 79.1053H85.524Z" stroke="#231F20" stroke-width="0.1" stroke-linecap="round" stroke-linejoin="round"/>
<path d="M134.596 70.3943C139.05 67.0092 133.407 59.8177 129.766 62.3904" stroke="#231F20" stroke-width="0.12" stroke-linecap="round" stroke-linejoin="round"/>
<path d="M128.349 74.2907L128.997 73.8844C134.038 70.6197 128.229 63.022 124.497 65.6548L123.609 66.2115" stroke="#231F20" stroke-width="0.12" stroke-linecap="round" stroke-linejoin="round"/>
<path d="M127.809 75.1482C130.578 71.1161 125.492 64.8123 121.609 66.4672" stroke="#231F20" stroke-width="0.12" stroke-linecap="round" stroke-linejoin="round"/>
<path d="M132.428 72.7865C138.417 68.9049 131.51 59.908 127.086 63.0223" stroke="#231F20" stroke-width="0.12" stroke-linecap="round" stroke-linejoin="round"/>
<path d="M81.6562 69.4307L90.7451 64.9623C93.8751 63.4428 97.622 68.182 97.1104 71.4317L90.8806 77.0284" stroke="#231F20" stroke-width="0.12" stroke-linecap="round" stroke-linejoin="round"/>
<path d="M74.6133 53.1978L76.2084 52.4154C79.3383 50.8959 83.0852 55.635 82.5736 58.8998L78.3903 62.6611" stroke="#231F20" stroke-width="0.12" stroke-linecap="round" stroke-linejoin="round"/>
<path d="M102.333 70.3789L91.168 77.2996" stroke="#231F20" stroke-width="0.19" stroke-linecap="round" stroke-linejoin="round"/>
<path d="M114.926 62.5713L103.82 69.4619" stroke="#231F20" stroke-width="0.19" stroke-linecap="round" stroke-linejoin="round"/>
<path d="M87.1505 57.2754L76 64.1961" stroke="#231F20" stroke-width="0.1" stroke-linecap="round" stroke-linejoin="round"/>
<path d="M99.7426 49.4668L88.6523 56.3574" stroke="#231F20" stroke-width="0.1" stroke-linecap="round" stroke-linejoin="round"/>
<path d="M87.1505 57.2754L76 64.1961" stroke="#231F20" stroke-width="0.19" stroke-linecap="round" stroke-linejoin="round"/>
<path d="M99.7426 49.4668L88.6523 56.3574" stroke="#231F20" stroke-width="0.19" stroke-linecap="round" stroke-linejoin="round"/>
<path d="M102.317 75.3438L95.1992 79.7528" stroke="#231F20" stroke-width="0.1" stroke-linecap="round" stroke-linejoin="round"/>
<path d="M114.703 67.7314L116.915 69.6425" stroke="#231F20" stroke-width="0.1" stroke-linecap="round" stroke-linejoin="round"/>
<path d="M114.701 67.7314L107.508 72.1856" stroke="#231F20" stroke-width="0.1" stroke-linecap="round" stroke-linejoin="round"/>
<path d="M87.0747 62.1797L79.957 66.6038" stroke="#231F20" stroke-width="0.1" stroke-linecap="round" stroke-linejoin="round"/>
<path d="M109.676 63.4287L111.211 64.7529" stroke="#231F20" stroke-width="0.1" stroke-linecap="round" stroke-linejoin="round"/>
<path d="M99.457 54.5674L102.467 57.1707" stroke="#231F20" stroke-width="0.1" stroke-linecap="round" stroke-linejoin="round"/>
<path d="M97.3047 71.0254L98.8396 72.3646" stroke="#231F20" stroke-width="0.1" stroke-linecap="round" stroke-linejoin="round"/>
<path d="M87.0781 62.1797L90.0877 64.783" stroke="#231F20" stroke-width="0.1" stroke-linecap="round" stroke-linejoin="round"/>
<path d="M99.4585 54.5674L92.2656 59.0366" stroke="#231F20" stroke-width="0.1" stroke-linecap="round" stroke-linejoin="round"/>
<path d="M102.215 68.0627L109.182 63.7297C110.686 60.134 106.112 55.2293 103.012 57.4259L95.3828 62.165" stroke="#231F20" stroke-width="0.12" stroke-linecap="round" stroke-linejoin="round"/>
<path d="M108.847 87.3351L110.713 85.7855C113.767 83.0172 109.072 75.6903 105.28 77.5258L96.1914 82.0092" stroke="#231F20" stroke-width="0.12" stroke-linecap="round" stroke-linejoin="round"/>
<path d="M115.017 82.5653C114.731 80.2333 113.347 77.7208 111.496 76.096L104.98 70.4541" stroke="#231F20" stroke-width="0.19" stroke-linecap="round" stroke-linejoin="round"/>
<path d="M120.237 79.331L122.043 78.2026C127.099 74.9228 121.275 67.3401 117.543 69.973L109.914 74.7122" stroke="#231F20" stroke-width="0.12" stroke-linecap="round" stroke-linejoin="round"/>
<path d="M120.072 57.8465C124.511 54.4614 118.883 47.285 115.227 49.8426" stroke="#231F20" stroke-width="0.12" stroke-linecap="round" stroke-linejoin="round"/>
<path d="M115.045 60.9002C119.033 57.4399 113.54 50.5793 109.974 53.0919L109.086 53.6485" stroke="#231F20" stroke-width="0.12" stroke-linecap="round" stroke-linejoin="round"/>
<path d="M114.072 59.9524C114.042 56.2212 109.934 52.3697 106.789 54.0397" stroke="#231F20" stroke-width="0.12" stroke-linecap="round" stroke-linejoin="round"/>
<path d="M117.893 60.2239C123.882 56.3423 116.975 47.3303 112.551 50.4597" stroke="#231F20" stroke-width="0.12" stroke-linecap="round" stroke-linejoin="round"/>
<path d="M105.537 45.284C109.976 41.8989 104.348 34.7225 100.691 37.2801" stroke="#231F20" stroke-width="0.12" stroke-linecap="round" stroke-linejoin="round"/>
<path d="M100.359 48.4889C104.663 45.0888 99.0802 37.9875 95.4386 40.5452L94.5508 41.1019" stroke="#231F20" stroke-width="0.12" stroke-linecap="round" stroke-linejoin="round"/>
<path d="M99.5187 47.7667C99.7745 43.7798 95.1398 39.4167 91.8594 41.7337" stroke="#231F20" stroke-width="0.12" stroke-linecap="round" stroke-linejoin="round"/>
<path d="M103.358 47.6762C109.347 43.7946 102.44 34.7977 98.0156 37.912" stroke="#231F20" stroke-width="0.12" stroke-linecap="round" stroke-linejoin="round"/>
<path d="M101.053 49.106L94.2815 43.2535C93.8602 42.8924 93.4238 42.5765 92.9723 42.3207C92.5811 42.095 92.2049 41.9295 91.8438 41.8242" stroke="#231F20" stroke-width="0.19" stroke-linecap="round" stroke-linejoin="round"/>
<path d="M115.592 61.6528L106.789 54.04" stroke="#231F20" stroke-width="0.19" stroke-linecap="round" stroke-linejoin="round"/>
<path d="M127.058 76.0969C127.163 73.4941 125.659 70.3798 123.492 68.4691L121.34 66.6035" stroke="#231F20" stroke-width="0.19" stroke-linecap="round" stroke-linejoin="round"/>
<path d="M102.277 92.8595L108.914 87.323C110.539 88.2407 111.833 88.1354 112.841 87.3681L114.436 86.0141C114.842 85.4423 115.098 84.66 115.143 83.7122C115.158 83.336 115.143 82.9449 115.098 82.5537L120.32 79.319C121.945 80.2518 123.826 80.5076 124.819 79.7403L126.414 78.3862C126.82 77.8145 127.076 77.0322 127.121 76.0693C127.588 75.6481 127.889 75.1215 128.145 74.625C128.942 74.7002 129.74 74.5347 130.462 74.0232L132.493 72.7594C133.231 72.278 133.773 71.7213 134.134 71.1195C134.826 71.1195 135.503 70.939 136.135 70.5027C142.109 66.6211 135.217 57.6242 130.778 60.7385C130.041 61.2199 129.499 61.7766 129.138 62.3784C128.446 62.3784 127.768 62.5589 127.136 62.9952L125.105 64.259C124.247 64.8157 123.675 65.4927 123.299 66.2148C122.652 66.1547 122.005 66.26 121.403 66.5609V66.591L115.655 61.6412L117.957 60.2119C118.695 59.7305 119.236 59.1738 119.613 58.572C120.305 58.572 120.982 58.3915 121.599 57.9551C127.588 54.0735 120.681 45.0616 116.257 48.191C115.52 48.6724 114.993 49.2291 114.602 49.8309C113.909 49.8309 113.232 50.0114 112.6 50.4477L110.554 51.7115C109.696 52.2681 109.124 52.9452 108.748 53.6673C108.101 53.6071 107.469 53.7125 106.852 54.0134H106.822L101.104 49.0786L101.375 48.9131L103.406 47.6493C104.143 47.1679 104.685 46.6112 105.061 46.0245C105.753 46.0245 106.431 45.8439 107.063 45.4076C113.052 41.526 106.145 32.5291 101.721 35.6434C100.983 36.1249 100.442 36.6815 100.08 37.2833C99.4033 37.2833 98.7111 37.4639 98.0791 37.9002L96.0476 39.164C95.1899 39.7206 94.618 40.3976 94.2419 41.1198C93.5948 41.0596 92.9628 41.1649 92.3458 41.4658L91.9094 41.8119C90.7056 41.4357 89.6372 41.6012 88.8698 42.203L87.8465 42.9553C87.1393 43.527 86.6878 44.6554 86.6427 45.9643L80.6236 49.7105C79.1489 49.0184 77.8096 49.0936 76.9067 49.8309L75.8835 50.5831C75.1612 51.1548 74.7248 52.208 74.6797 53.1859L66.599 57.1126C65.681 56.9772 64.8685 57.1728 64.2515 57.6693L63.2282 58.4215C62.521 58.9933 62.0696 59.9712 62.0094 61.2801C61.904 63.8227 63.3336 66.8618 65.3951 68.7575L95.0394 94.364C95.3704 94.6348 95.7165 94.8605 96.0777 95.0561C97.7029 95.9738 99.1775 95.9738 100.186 95.2065L101.781 93.8525C101.976 93.5666 102.142 93.2356 102.262 92.8445L102.277 92.8595Z" stroke="#231F20" stroke-width="0.8" stroke-linecap="round" stroke-linejoin="round"/>
<path d="M92.3438 78.3076L98.8595 83.9344C101.011 85.8452 102.531 88.9444 102.411 91.5623C102.396 92.0437 102.32 92.48 102.2 92.8561" stroke="#231F20" stroke-width="0.19" stroke-linecap="round" stroke-linejoin="round"/>
<path d="M87.7374 55.3947L94.7196 51.0617C96.2093 47.466 91.6498 42.5613 88.5349 44.7579L86.5938 45.9615" stroke="#231F20" stroke-width="0.12" stroke-linecap="round" stroke-linejoin="round"/>
<path d="M103.716 71.1914L102.316 75.3446" stroke="#231F20" stroke-width="0.1" stroke-linecap="round" stroke-linejoin="round"/>
<path d="M116.103 63.5781L114.703 67.7313" stroke="#231F20" stroke-width="0.1" stroke-linecap="round" stroke-linejoin="round"/>
<path d="M100.856 50.4141L99.457 54.5673" stroke="#231F20" stroke-width="0.1" stroke-linecap="round" stroke-linejoin="round"/>
<path d="M88.4776 58.0264L87.0781 62.1796" stroke="#231F20" stroke-width="0.1" stroke-linecap="round" stroke-linejoin="round"/>
</svg>
