<svg width="72" height="72" viewBox="0 0 72 72" fill="none" xmlns="http://www.w3.org/2000/svg">
<g id="icon">
<g id="Group 1077">
<path id="Vector" d="M36.001 43.1221C39.9338 43.1221 43.1221 39.9338 43.1221 36.001C43.1221 32.0681 39.9338 28.8799 36.001 28.8799C32.0681 28.8799 28.8799 32.0681 28.8799 36.001C28.8799 39.9338 32.0681 43.1221 36.001 43.1221Z" stroke="#222222" stroke-width="2" stroke-miterlimit="10" stroke-linecap="round"/>
<path id="Vector_2" d="M36.001 43.1226V63.0004" stroke="#222222" stroke-width="2" stroke-miterlimit="10" stroke-linecap="round"/>
<path id="Vector_3" d="M36.001 9V28.8779" stroke="#222222" stroke-width="2" stroke-miterlimit="10" stroke-linecap="round"/>
<path id="Vector_4" d="M42.4469 15.1201L36.0014 21.5678L29.5537 15.1201" stroke="#222222" stroke-width="2" stroke-miterlimit="10" stroke-linecap="round"/>
<path id="Vector_5" d="M40.0018 10.9497L36.0011 14.9504L31.9983 10.9497" stroke="#222222" stroke-width="2" stroke-miterlimit="10" stroke-linecap="round"/>
<path id="Vector_6" d="M29.5537 56.8806L36.0014 50.4351L42.4469 56.8806" stroke="#222222" stroke-width="2" stroke-miterlimit="10" stroke-linecap="round"/>
<path id="Vector_7" d="M31.9983 61.0524L36.0011 57.0518L40.0018 61.0524" stroke="#222222" stroke-width="2" stroke-miterlimit="10" stroke-linecap="round"/>
<path id="Vector_8" d="M28.8779 36.001H9" stroke="#222222" stroke-width="2" stroke-miterlimit="10" stroke-linecap="round"/>
<path id="Vector_9" d="M62.9997 36.001H43.1218" stroke="#222222" stroke-width="2" stroke-miterlimit="10" stroke-linecap="round"/>
<path id="Vector_10" d="M56.8806 42.4464L50.4351 36.0009L56.8806 29.5532" stroke="#222222" stroke-width="2" stroke-miterlimit="10" stroke-linecap="round"/>
<path id="Vector_11" d="M61.0527 40.0016L57.052 36.0009L61.0527 31.998" stroke="#222222" stroke-width="2" stroke-miterlimit="10" stroke-linecap="round"/>
<path id="Vector_12" d="M15.1199 29.5532L21.5676 36.0009L15.1199 42.4464" stroke="#222222" stroke-width="2" stroke-miterlimit="10" stroke-linecap="round"/>
<path id="Vector_13" d="M10.9495 31.998L14.9501 36.0009L10.9495 40.0016" stroke="#222222" stroke-width="2" stroke-miterlimit="10" stroke-linecap="round"/>
<path id="Vector_14" d="M30.9638 30.9638L19.6396 19.6396" stroke="#222222" stroke-width="2" stroke-miterlimit="10" stroke-linecap="round"/>
<path id="Vector_15" d="M52.3625 52.3625L41.0361 41.0361" stroke="#222222" stroke-width="2" stroke-miterlimit="10" stroke-linecap="round"/>
<path id="Vector_16" d="M46.2075 52.3625V46.2075H52.3625" stroke="#222222" stroke-width="2" stroke-miterlimit="10" stroke-linecap="round"/>
<path id="Vector_17" d="M25.7947 19.6396V25.7947H19.6396" stroke="#222222" stroke-width="2" stroke-miterlimit="10" stroke-linecap="round"/>
<path id="Vector_18" d="M30.9638 41.0361L19.6396 52.3625" stroke="#222222" stroke-width="2" stroke-miterlimit="10" stroke-linecap="round"/>
<path id="Vector_19" d="M52.3625 19.6396L41.0361 30.9638" stroke="#222222" stroke-width="2" stroke-miterlimit="10" stroke-linecap="round"/>
<path id="Vector_20" d="M52.3625 25.7947H46.2075V19.6396" stroke="#222222" stroke-width="2" stroke-miterlimit="10" stroke-linecap="round"/>
<path id="Vector_21" d="M19.6396 46.2075H25.7947V52.3625" stroke="#222222" stroke-width="2" stroke-miterlimit="10" stroke-linecap="round"/>
</g>
</g>
</svg>
