<svg width="72" height="72" viewBox="0 0 72 72" fill="none" xmlns="http://www.w3.org/2000/svg">
<g clip-path="url(#clip0_110_11751)">
<path d="M21.8336 63.6438C29.8286 63.6438 36.3098 57.1626 36.3098 49.1676C36.3098 41.1726 29.8286 34.6914 21.8336 34.6914C13.8386 34.6914 7.35742 41.1726 7.35742 49.1676C7.35742 57.1626 13.8386 63.6438 21.8336 63.6438Z" stroke="#BE826A" stroke-width="2.5" stroke-linecap="round" stroke-linejoin="round"/>
<path d="M59.8744 30.7782C62.8802 25.2832 62.0579 18.2502 57.4034 13.5977C51.7496 7.94398 42.5854 7.94398 36.9316 13.5977" stroke="#BE826A" stroke-width="2.5" stroke-linecap="round" stroke-linejoin="round"/>
<path d="M11.5977 38.931L36.931 13.5977" stroke="#BE826A" stroke-width="2.5" stroke-linecap="round" stroke-linejoin="round"/>
<path d="M59.8746 30.7773L32.0703 59.402" stroke="#BE826A" stroke-width="2.5" stroke-linecap="round" stroke-linejoin="round"/>
<path d="M21.8328 58.2144C26.8296 58.2144 30.8804 54.1636 30.8804 49.1668C30.8804 44.1699 26.8296 40.1191 21.8328 40.1191C16.8359 40.1191 12.7852 44.1699 12.7852 49.1668C12.7852 54.1636 16.8359 58.2144 21.8328 58.2144Z" stroke="#BE826A" stroke-width="2.5" stroke-linecap="round" stroke-linejoin="round"/>
<path d="M19.4047 30.777C15.5243 25.2077 14.2315 19.9601 16.5275 16.7552C20.5085 11.202 33.7683 13.8922 46.1414 22.7629C58.5145 31.6336 65.3183 43.3271 61.3374 48.8803C58.4884 52.8532 50.8944 52.6079 42.273 48.8984" stroke="#BE826A" stroke-width="2.5" stroke-linecap="round" stroke-linejoin="round"/>
<path d="M28.542 21.986C26.2117 18.0312 25.6005 14.4162 27.2632 12.098C30.5566 7.50381 41.5223 9.72952 51.7582 17.0661C61.992 24.4027 67.6196 34.0757 64.3263 38.6698C62.2675 41.5409 57.2129 41.748 51.2113 39.7093" stroke="#BE826A" stroke-width="2.5" stroke-linecap="round" stroke-linejoin="round"/>
</g>
<defs>
<clipPath id="clip0_110_11751">
<rect width="60.6231" height="57" fill="white" transform="translate(6 8)"/>
</clipPath>
</defs>
</svg>
