<svg width="72" height="72" viewBox="0 0 72 72" fill="none" xmlns="http://www.w3.org/2000/svg">
<g id="Icon">
<g id="Group 2565">
<path id="Vector" d="M35.7134 15.3779C27.3667 27.5539 25.7578 28.8499 25.7578 32.793C25.7578 38.0997 30.2147 42.4002 35.7134 42.4002C41.212 42.4002 45.6689 38.0979 45.6689 32.793C45.6689 28.9495 44.3587 27.9948 35.7134 15.3779Z" stroke="#333333" stroke-width="2.5" stroke-miterlimit="10" stroke-linecap="round" stroke-linejoin="round"/>
<path id="Vector_2" d="M54.201 4C48.2383 12.9724 47.0898 13.9271 47.0898 16.832C47.0898 20.7413 50.2738 23.9111 54.201 23.9111C58.1281 23.9111 61.3121 20.7413 61.3121 16.832C61.3121 14 60.377 13.2978 54.201 4Z" stroke="#333333" stroke-width="2.5" stroke-miterlimit="10" stroke-linecap="round" stroke-linejoin="round"/>
<path id="Vector_3" d="M17.2205 4C11.2578 12.9724 10.1094 13.9271 10.1094 16.832C10.1094 20.7413 13.2934 23.9111 17.2205 23.9111C21.1476 23.9111 24.3316 20.7413 24.3316 16.832C24.3316 14 23.3965 13.2978 17.2205 4Z" stroke="#333333" stroke-width="2.5" stroke-miterlimit="10" stroke-linecap="round" stroke-linejoin="round"/>
<path id="Vector_4" d="M43.064 26.0162L68.4222 38.1335L35.7111 53.778L3 38.1335L28.3582 26.002" stroke="#333333" stroke-width="2.5" stroke-linecap="round" stroke-linejoin="round"/>
<path id="Vector_5" d="M53.5458 45.2441L68.4222 52.3552L35.7111 67.9997L3 52.3552L17.8622 45.2441" stroke="#333333" stroke-width="2.5" stroke-linecap="round" stroke-linejoin="round"/>
</g>
</g>
</svg>
