<svg width="100" height="100" viewBox="0 0 100 100" fill="none" xmlns="http://www.w3.org/2000/svg">
<g id="icon">
<circle id="bg" cx="50" cy="50" r="50" fill="white"/>
<g id="Group 2473">
<g id="Group 2576">
<path id="Vector" d="M36.1653 28.0056C36.7943 29.3479 37.0381 30.1908 37.1666 30.891C37.2931 31.595 37.308 32.1563 37.2987 32.7439C37.2857 33.3277 37.2447 33.9397 37.1591 34.5048C37.0772 35.0717 36.947 35.5917 36.7478 36.1812C36.5524 36.7706 36.2825 37.4314 35.9643 38.0904C35.6479 38.7512 35.2757 39.4082 34.9369 40.0202C34.5982 40.6284 34.2911 41.1897 34.0082 41.7811C33.7272 42.3706 33.4685 42.9919 33.2433 43.6283C33.0163 44.2628 32.8227 44.9143 32.7036 45.56C32.5826 46.2077 32.5324 46.8479 32.5305 47.55C32.5268 48.2521 32.5659 49.0067 32.7073 49.7238C32.8488 50.4372 33.0907 51.1149 33.4443 51.7738C33.7924 52.4346 34.2539 53.0748 34.8886 53.8238C35.5232 54.5728 36.3365 55.427 38.4414 56.6228C37.1573 54.7456 36.7478 53.7525 36.4631 52.8082C36.182 51.8621 36.0294 50.9591 36.0052 49.9923C35.9792 49.0293 36.0871 48.0024 36.3216 47.0112C36.5561 46.0162 36.9153 45.0569 37.3936 44.0714C37.8701 43.0858 38.4582 42.0777 38.9309 41.124C39.4055 40.1704 39.7591 39.2768 40.0346 38.3682C40.3063 37.4596 40.5017 36.5416 40.578 35.6762C40.6543 34.8145 40.6152 34.0092 40.4868 33.2395C40.3565 32.4679 40.1388 31.7377 39.7852 31.0618C39.4278 30.386 38.9384 29.7665 38.4042 29.2728C37.8701 28.7791 37.295 28.4092 36.169 28L36.1653 28.0056Z" fill="#231815"/>
<path id="Vector_2" d="M49.4368 28.0198C50.0659 29.362 50.3097 30.2049 50.4381 30.9052C50.5647 31.6091 50.5796 32.1705 50.5703 32.758C50.5572 33.3419 50.5163 33.9539 50.4307 34.5189C50.3451 35.0859 50.2185 35.6059 50.0194 36.1953C49.824 36.7848 49.5541 37.4456 49.2358 38.1045C48.9194 38.7653 48.5472 39.4224 48.2085 40.0344C47.8698 40.6426 47.5627 41.2039 47.2798 41.7952C46.9988 42.3847 46.7401 43.0061 46.5149 43.6425C46.2878 44.277 46.0943 44.9284 45.9752 45.5742C45.8523 46.2219 45.8039 46.862 45.8021 47.5641C45.8002 48.2662 45.8374 49.0209 45.9789 49.738C46.1203 50.4514 46.3623 51.1291 46.7159 51.788C47.0639 52.4488 47.5255 53.0889 48.1601 53.838C48.7948 54.587 49.6081 55.4412 51.713 56.637C50.4288 54.7597 50.0194 53.7666 49.7346 52.8224C49.4536 51.8762 49.301 50.9732 49.2768 50.0065C49.2507 49.0434 49.3549 48.0165 49.5932 47.0253C49.8277 46.0304 50.1869 45.0711 50.6652 44.0855C51.1416 43.1 51.7297 42.0919 52.2025 41.1382C52.6771 40.1845 53.0307 39.291 53.3061 38.3824C53.5778 37.4738 53.7733 36.5558 53.8496 35.6903C53.9259 34.8287 53.8849 34.0233 53.7584 33.2536C53.6281 32.4821 53.4103 31.7518 53.0567 31.076C52.6994 30.4002 52.2099 29.7807 51.6758 29.287C51.1416 28.7932 50.5665 28.4234 49.4406 28.0142L49.4368 28.0198Z" fill="#231815"/>
<path id="Vector_3" d="M62.6998 28.0198C63.3289 29.362 63.5727 30.2049 63.6992 30.9052C63.8295 31.6091 63.8444 32.1705 63.8351 32.758C63.8221 33.3419 63.7811 33.9539 63.6955 34.5189C63.6136 35.0859 63.4833 35.6059 63.2842 36.1953C63.0888 36.7848 62.8189 37.4456 62.5007 38.1045C62.1843 38.7653 61.812 39.4224 61.4733 40.0344C61.1346 40.6426 60.8275 41.2039 60.5446 41.7952C60.2636 42.3847 60.0049 43.0061 59.7797 43.6425C59.5526 44.277 59.3591 44.9284 59.24 45.5742C59.119 46.2219 59.0687 46.862 59.0669 47.5641C59.0632 48.2662 59.1022 49.0209 59.2437 49.738C59.3851 50.4514 59.6271 51.1291 59.9807 51.788C60.3287 52.4488 60.7903 53.0889 61.4249 53.838C62.0596 54.587 62.8729 55.4412 64.9778 56.637C63.6936 54.7597 63.2842 53.7666 62.9994 52.8224C62.7184 51.8762 62.5658 50.9732 62.5416 50.0065C62.5155 49.0434 62.6235 48.0165 62.858 47.0253C63.0925 46.0304 63.4517 45.0711 63.93 44.0855C64.4064 43.1 64.9946 42.0919 65.4673 41.1382C65.9419 40.1845 66.2955 39.291 66.5709 38.3824C66.8427 37.4738 67.0381 36.5558 67.1144 35.6903C67.1907 34.8287 67.1497 34.0233 67.0232 33.2536C66.8929 32.4821 66.6752 31.7518 66.3215 31.076C65.9642 30.4002 65.4747 29.7807 64.9406 29.287C64.4064 28.7932 63.8314 28.4234 62.7054 28.0142L62.6998 28.0198Z" fill="#231815"/>
<path id="Vector_4" d="M26.1284 66.976C26.1284 63.6513 28.801 60.9556 32.097 60.9556H67.9032C71.1992 60.9556 73.8718 63.6513 73.8718 66.976C73.8718 70.3006 71.1992 72.9964 67.9032 72.9964H32.097C28.801 72.9964 26.1284 70.3006 26.1284 66.976ZM32.097 70.1523H67.9032C69.6414 70.1523 71.0522 68.7312 71.0522 66.976C71.0522 65.2207 69.6433 63.7996 67.9032 63.7996H32.097C30.3587 63.7996 28.948 65.2207 28.948 66.976C28.948 68.7312 30.3569 70.1523 32.097 70.1523Z" fill="#231815"/>
</g>
</g>
</g>
</svg>
