<svg width="64" height="64" viewBox="0 0 64 64" fill="none" xmlns="http://www.w3.org/2000/svg">
<g id="Mask group">
<mask id="mask0_10_15083" style="mask-type:alpha" maskUnits="userSpaceOnUse" x="0" y="0" width="64" height="64">
<rect id="Rectangle 5863" width="64" height="64" fill="#D9D9D9"/>
</mask>
<g mask="url(#mask0_10_15083)">
<g id="Group 2447">
<path id="Vector" d="M26.0019 27.9326L24.4111 32.854H27.5429L26.0267 27.9326H26.0019Z" fill="#222222"/>
<path id="Vector_2" d="M32.2647 12C19.4144 12 9 20.2272 9 30.3931C9 36.9301 13.3249 42.6468 19.8121 45.9277L17.6249 54.1052C17.5503 54.3538 17.6249 54.6272 17.7988 54.8012C17.9231 54.9254 18.0971 55 18.2711 55C18.4202 55 18.5445 54.9503 18.6688 54.8509L28.089 48.4879C29.4561 48.6867 30.848 48.7861 32.2896 48.7861C45.1399 48.7861 55.5792 40.559 55.5792 30.3931C55.5792 20.2272 45.1399 12 32.2647 12ZM19.837 36.2092C19.837 36.6318 19.7127 36.9798 19.4642 37.2283C19.2156 37.4769 18.8925 37.6012 18.4699 37.6012C18.122 37.6012 17.8486 37.5017 17.6249 37.3277C17.3763 37.1289 17.252 36.8803 17.1775 36.5572C17.1775 36.4329 17.1526 36.3335 17.1775 36.2092V27.485H14.6422C14.2942 27.485 13.996 27.4104 13.7474 27.2364C13.4988 27.0873 13.3497 26.8636 13.2751 26.5653C13.2751 26.4908 13.2503 26.3913 13.2254 26.2919C13.2254 25.9191 13.3497 25.6208 13.6231 25.422C13.8965 25.2231 14.2197 25.0988 14.6173 25.0988H22.3723C22.7202 25.0988 23.0185 25.1734 23.2671 25.3474C23.5156 25.4965 23.6647 25.7202 23.7393 26.0185C23.7393 26.0931 23.7393 26.1925 23.7393 26.2671C23.7393 26.6399 23.615 26.9382 23.3416 27.137C23.0931 27.3358 22.7451 27.4353 22.3474 27.4353H19.8121V36.1595L19.837 36.2092ZM30.8977 37.2532C30.6491 37.5017 30.3509 37.6012 30.0029 37.6012C29.3815 37.6012 28.9838 37.3526 28.8098 36.8306L28.1139 34.7925H23.789L23.0931 36.8306C22.9191 37.3277 22.5214 37.6012 21.9 37.6012C21.5769 37.6012 21.3283 37.5266 21.1046 37.3526C20.8809 37.2035 20.7566 36.9549 20.6821 36.6566C20.6821 36.5821 20.6821 36.4827 20.6821 36.3832C20.6821 36.259 20.6821 36.085 20.7566 35.8861C20.8064 35.6873 20.8809 35.4884 20.9306 35.3145L24.3855 25.7699C24.485 25.4717 24.659 25.248 24.8827 25.1237C25.1064 24.9994 25.3798 24.9249 25.7029 24.9249H26.3491C26.6971 24.9249 26.9954 24.9994 27.2191 25.1486C27.4428 25.2977 27.6416 25.5711 27.7659 25.9688L30.9971 35.3393C31.0965 35.6376 31.1711 35.8861 31.2208 36.085C31.2457 36.2341 31.2705 36.3335 31.2705 36.4081C31.2705 36.7561 31.1462 37.0295 30.8977 37.278V37.2532ZM39.8457 37.0792C39.5723 37.278 39.2491 37.3775 38.8514 37.3775H33.259C32.8364 37.3775 32.5133 37.3029 32.2399 37.1289C31.9913 36.9549 31.8173 36.6815 31.7428 36.3087C31.7179 36.1595 31.6931 35.9607 31.6931 35.7619V26.3168C31.6931 25.8942 31.8173 25.5711 32.0659 25.2977C32.3145 25.0491 32.6376 24.9249 33.0601 24.9249C33.4081 24.9249 33.6815 25.0243 33.9301 25.1983C34.1538 25.3971 34.3029 25.6457 34.3775 25.9688C34.3775 26.0931 34.4023 26.1925 34.3775 26.3168V35.041H38.8514C39.1994 35.041 39.5225 35.1156 39.7462 35.2896C39.9948 35.4636 40.1439 35.6873 40.1936 35.9607C40.1936 36.0353 40.2185 36.1347 40.2434 36.2092C40.2434 36.5821 40.1191 36.8803 39.8457 37.0792ZM49.9121 37.3029C49.6387 37.5017 49.3156 37.626 48.9428 37.626C48.6694 37.626 48.4457 37.5763 48.2717 37.4769C48.0977 37.3775 47.9237 37.1786 47.7497 36.9052L44.6676 31.9341L43.2012 33.4751V36.259C43.2012 36.6815 43.1017 37.0295 42.8532 37.278C42.6046 37.5266 42.2815 37.6509 41.859 37.6509C41.511 37.6509 41.2376 37.5514 40.989 37.3775C40.7653 37.1786 40.6162 36.9301 40.5416 36.6069C40.5416 36.4827 40.5168 36.3832 40.5416 36.259V26.3416C40.5416 25.9191 40.6659 25.596 40.9145 25.3225C41.163 25.074 41.4861 24.9497 41.8838 24.9497C42.2318 24.9497 42.5052 25.0491 42.7289 25.2231C42.9775 25.422 43.1266 25.6705 43.1763 25.9936C43.1763 26.1179 43.2012 26.2173 43.2012 26.3416V30.3931L47.4266 25.5462C47.6254 25.3474 47.7746 25.1983 47.9486 25.074C48.0977 24.9746 48.2965 24.9249 48.4954 24.9249C48.7936 24.9249 49.0671 24.9994 49.2907 25.1734C49.5393 25.3225 49.6884 25.5462 49.7382 25.8197C49.7382 25.8197 49.7382 25.8694 49.7382 25.9191C49.7382 25.9688 49.7382 25.9936 49.7382 26.0434C49.7382 26.2422 49.6884 26.4162 49.6139 26.5653C49.5393 26.7145 49.415 26.8636 49.2907 27.0127L46.5318 30.0202L49.7879 35.1902L49.8873 35.3393C50.111 35.6873 50.2353 35.9358 50.285 36.1098C50.285 36.1098 50.285 36.1595 50.285 36.1844C50.285 36.2341 50.285 36.259 50.285 36.2838C50.285 36.7561 50.1607 37.104 49.8873 37.3029H49.9121Z" fill="#222222"/>
</g>
</g>
</g>
</svg>
