<svg width="64" height="64" viewBox="0 0 64 64" fill="none" xmlns="http://www.w3.org/2000/svg">
<g id="Mask group">
<mask id="mask0_10_15122" style="mask-type:alpha" maskUnits="userSpaceOnUse" x="0" y="0" width="64" height="64">
<rect id="Rectangle 5860" width="64" height="64" fill="#D9D9D9"/>
</mask>
<g mask="url(#mask0_10_15122)">
<g id="Group 2444">
<path id="Vector" d="M46.1525 47.9124H6.04805C4.91763 47.9124 4 46.9947 4 45.8643V17.048C4 15.9176 4.91763 15 6.04805 15H53.7196C54.85 15 55.7677 15.9176 55.7677 17.048V35.2623" stroke="#222222" stroke-width="2" stroke-linecap="round" stroke-linejoin="round"/>
<path id="Vector_2" d="M29.8855 47.9126V53.3599" stroke="#222222" stroke-width="2" stroke-linecap="round" stroke-linejoin="round"/>
<path id="Vector_3" d="M25.0095 53.3594H34.7603" stroke="#222222" stroke-width="2" stroke-linecap="round" stroke-linejoin="round"/>
<path id="Vector_4" d="M59.3563 35.2627H47.7968C46.889 35.2627 46.1531 35.9986 46.1531 36.9065V57.5119C46.1531 58.4197 46.889 59.1557 47.7968 59.1557H59.3563C60.2641 59.1557 61.0001 58.4197 61.0001 57.5119V36.9065C61.0001 35.9986 60.2641 35.2627 59.3563 35.2627Z" stroke="#222222" stroke-width="2" stroke-linecap="round" stroke-linejoin="round"/>
<path id="Vector_5" d="M51.6597 38.1289H55.8649" stroke="#222222" stroke-linecap="round" stroke-linejoin="round"/>
<path id="Vector_6" d="M18.1285 30.4779L15.1921 27.342V30.4779H13.8728V25.5439H15.1043L17.945 28.5814V25.5439H19.2616V30.4779H18.1285Z" fill="#263169"/>
<path id="Vector_7" d="M44.7616 30.4779L41.8251 27.342V30.4779H40.5085V25.5439H41.7374L44.5807 28.5814V25.5439H45.8973V30.4779H44.7616Z" fill="#263169"/>
<path id="Vector_8" d="M29.1247 30.4779H28.0103L25.6909 25.5439H27.0847L28.5848 28.9937L30.0849 25.5439H31.4441L29.1247 30.4779Z" fill="#263169"/>
<path id="Vector_9" d="M33.2946 25.5439H31.9727V30.4779H33.2946V25.5439Z" fill="#263169"/>
<path id="Vector_10" d="M21.499 27.0351H20.1664C20.2462 26.668 20.4351 26.2159 20.7755 25.918C21.2703 25.4898 21.898 25.3647 22.7784 25.3647C23.6588 25.3647 24.3796 25.4951 24.877 25.918C25.252 26.2372 25.5579 26.7 25.5605 27.317V30.4769H24.2386V30.0274C24.1428 30.0726 23.9673 30.2375 23.454 30.4423C23.039 30.6072 22.5895 30.6577 22.0576 30.6577C21.4219 30.6577 21.0176 30.4396 20.6532 30.1763C20.2755 29.905 20.0601 29.4502 20.0601 28.9874C20.0601 28.4235 20.1744 28.0325 20.7356 27.7692C21.249 27.5272 21.8661 27.4846 22.6693 27.4846H24.2413C24.2413 26.8569 23.8609 26.2026 22.8103 26.2026C22.0735 26.2026 21.6852 26.6281 21.5043 27.0378M22.7624 28.2799C21.9964 28.2932 21.358 28.4741 21.3846 28.9236C21.4245 29.5646 22.0788 29.6257 22.3581 29.6257C23.0603 29.6257 23.5737 29.4981 23.8662 29.264C24.1827 29.0113 24.1934 28.6523 24.196 28.2799C24.196 28.2799 23.0896 28.2746 22.7598 28.2799" fill="#263169"/>
<path id="Vector_11" d="M36.8994 29.7537C35.9924 29.7537 35.4392 29.2324 35.37 28.5408C35.37 28.5408 35.3541 28.4158 35.3514 28.3201H39.78C39.78 27.4184 39.5406 26.7082 39.0751 26.2029C38.5644 25.639 37.8277 25.3677 36.8622 25.3677C35.9871 25.3677 35.2956 25.6204 34.7955 26.1337C34.2742 26.6391 34.0242 27.2588 34.0242 28.0062C34.0242 28.8414 34.2955 29.4904 34.8407 29.9665C35.3514 30.424 36.043 30.6554 36.918 30.6554C37.7027 30.6554 38.349 30.4612 38.8703 30.0835C39.2799 29.7723 39.5512 29.376 39.6869 28.9079H38.3623C38.1628 29.4079 37.6335 29.751 36.8968 29.751M36.8968 26.2667C37.8037 26.2667 38.357 26.788 38.4261 27.4796H35.3674C35.4392 26.788 35.9898 26.2667 36.8968 26.2667Z" fill="#263169"/>
<path id="Vector_12" d="M25.2704 36.5526H25.2863L26.2571 33.7651H27.2466V37.5474H26.4885V34.9647H26.4726L25.5363 37.5474H25.023L24.0867 34.9567H24.0708V37.5474H23.3127V33.7651H24.3075L25.2677 36.5526H25.2704Z" fill="#B2ACAD"/>
<path id="Vector_13" d="M29.9594 36.7308H28.7333L28.4779 37.5474H27.6853L28.9593 33.7651H29.736L31.0074 37.5474H30.2148L29.9568 36.7308H29.9594ZM28.9194 36.135H29.7732L29.3557 34.8025H29.3397L28.9194 36.135Z" fill="#B2ACAD"/>
<path id="Vector_14" d="M33.7793 34.3503H32.6994V37.5474H31.9414V34.3503H30.8774V33.7651H33.7819V34.3503H33.7793Z" fill="#B2ACAD"/>
<path id="Vector_15" d="M36.3563 35.885H34.9546V36.9649H36.6223V37.5474H34.1965V33.7651H36.6169V34.3503H34.9546V35.2998H36.3563V35.885Z" fill="#B2ACAD"/>
</g>
</g>
</g>
</svg>
