<svg width="172" height="102" viewBox="0 0 172 102" fill="none" xmlns="http://www.w3.org/2000/svg">
<path d="M10.5218 96.2701C9.10724 96.2701 7.94832 95.5713 7.65859 94.5147C7.41999 93.6284 7.84607 92.7422 8.83456 92.1457L38.3018 75.1368C38.6427 74.9323 38.5745 74.6256 38.3018 74.5063L10.4877 58.4347C9.65262 57.9575 9.17542 57.2417 9.17542 56.4748C9.17542 55.7079 9.65262 54.9921 10.4877 54.5149L102.162 1.61355C103.593 0.795485 105.979 0.795485 107.411 1.61355L170.265 37.898C171.101 38.3752 171.578 39.091 171.578 39.8579C171.578 40.6249 171.101 41.3236 170.265 41.8179L78.5914 94.7362C77.1598 95.5543 74.7737 95.5543 73.3421 94.7362L44.6759 78.1875C44.318 77.983 43.5511 77.983 43.1931 78.1875L13.1464 95.5202C12.2943 96.0145 11.374 96.2701 10.5218 96.2701Z" stroke="#221F20" stroke-width="0.8" stroke-linecap="round" stroke-linejoin="round"/>
<path d="M38.8672 74.8134C39.7193 74.3191 40.6397 74.0635 41.4918 74.0635C42.9064 74.0635 44.0653 74.7622 44.355 75.8189C44.5936 76.7051 44.1675 77.5914 43.1961 78.1879" fill="white"/>
<path d="M38.8672 74.8134C39.7193 74.3191 40.6397 74.0635 41.4918 74.0635C42.9064 74.0635 44.0653 74.7622 44.355 75.8189C44.5936 76.7051 44.1675 77.5914 43.1961 78.1879" stroke="#221F20" stroke-width="0.4" stroke-linecap="round" stroke-linejoin="round"/>
<path d="M7.84873 100.974L8.36002 100.685C8.49636 100.616 8.58158 100.412 8.58158 100.378C8.73496 99.8324 9.26329 99.3722 9.8598 98.9632L12.1947 97.6168C12.8764 97.2419 12.6548 94.7706 9.63824 92.6062C8.24072 91.6006 7.40561 91.362 6.89432 91.6688L4.13337 93.339C3.79251 93.5265 3.36643 93.6288 2.9574 93.6288C2.56541 93.6288 2.20751 93.6628 1.98595 93.7821L1.35536 94.1741C0.946333 94.4639 0.418002 95.9296 2.78697 98.486C5.15594 101.042 7.42266 101.247 7.88282 100.991" fill="white"/>
<path d="M7.84873 100.974L8.36002 100.685C8.49636 100.616 8.58158 100.412 8.58158 100.378C8.73496 99.8324 9.26329 99.3722 9.8598 98.9632L12.1947 97.6168C12.8764 97.2419 12.6548 94.7706 9.63824 92.6062C8.24072 91.6006 7.40561 91.362 6.89432 91.6688L4.13337 93.339C3.79251 93.5265 3.36643 93.6288 2.9574 93.6288C2.56541 93.6288 2.20751 93.6628 1.98595 93.7821L1.35536 94.1741C0.946333 94.4639 0.418002 95.9296 2.78697 98.486C5.15594 101.042 7.42266 101.247 7.88282 100.991L7.84873 100.974Z" stroke="#221F20" stroke-width="0.8" stroke-linecap="round" stroke-linejoin="round"/>
<path d="M3.07645 96.1338C3.02532 96.5258 2.75263 96.8326 2.47995 96.7985C2.20726 96.7644 2.01979 96.4065 2.07092 96.0145C2.12205 95.6226 2.39473 95.3158 2.66742 95.3669C2.95715 95.401 3.12758 95.7589 3.07645 96.1509V96.1338Z" stroke="#221F20" stroke-width="0.13" stroke-linecap="round" stroke-linejoin="round"/>
<path d="M4.78128 97.668C4.69606 98.1281 4.37225 98.469 4.04843 98.4179C3.72462 98.3667 3.5201 97.9407 3.60532 97.4635C3.69053 97.0033 4.01435 96.6624 4.33816 96.7136C4.66198 96.7647 4.86649 97.1908 4.78128 97.668Z" stroke="#221F20" stroke-width="0.13" stroke-linecap="round" stroke-linejoin="round"/>
<path d="M6.5176 98.9631C6.44943 99.3892 6.14265 99.696 5.83588 99.6449C5.52911 99.5937 5.34163 99.2017 5.42685 98.7757C5.49502 98.3496 5.80179 98.0428 6.10857 98.0939C6.41534 98.1451 6.60281 98.5371 6.5176 98.9631Z" stroke="#221F20" stroke-width="0.13" stroke-linecap="round" stroke-linejoin="round"/>
<path d="M1.21875 94.276C1.21875 94.276 2.24133 93.5261 4.93411 95.6906C8.01889 98.1448 8.80286 100.224 8.2234 100.769" stroke="#221F20" stroke-width="0.13" stroke-linecap="round" stroke-linejoin="round"/>
<path d="M1.21875 94.276C1.21875 94.276 2.24133 93.5261 4.93411 95.6906C8.01889 98.1448 8.80286 100.224 8.2234 100.769" stroke="#221F20" stroke-width="0.13" stroke-linecap="round" stroke-linejoin="round"/>
<path d="M8.44141 99.2185L8.90157 98.7413C8.90157 98.7413 8.76522 98.196 9.94119 97.4461C10.6911 96.9689 11.4751 96.5258 11.8841 96.3042" stroke="#BBBDC0" stroke-width="0.13" stroke-miterlimit="10"/>
<path d="M2 93.6111C2 93.6111 4.55644 93.4407 6.49934 95.0598C8.74901 96.9345 9.0217 98.8603 9.00465 99.8829" stroke="#221F20" stroke-width="0.13" stroke-linecap="round" stroke-linejoin="round"/>
<path d="M7.28313 97.9571L8.5784 97.0027C8.9363 96.73 8.6977 96.3891 8.6977 96.3891C7.65808 94.6167 6.12421 93.9179 5.51067 93.6964C5.34024 93.6282 5.15276 93.6452 4.98233 93.7304L3.17578 94.5315C3.17578 94.5315 4.6926 95.0768 7.30018 97.9571" fill="#DADADA"/>
<path d="M7.28313 97.9571L8.5784 97.0027C8.9363 96.73 8.6977 96.3891 8.6977 96.3891C7.65808 94.6167 6.12421 93.9179 5.51067 93.6964C5.34024 93.6282 5.15276 93.6452 4.98233 93.7304L3.17578 94.5315C3.17578 94.5315 4.6926 95.0768 7.30018 97.9571H7.28313Z" stroke="#221F20" stroke-width="0.13" stroke-linecap="round" stroke-linejoin="round"/>
</svg>
