<svg width="72" height="72" viewBox="0 0 72 72" fill="none" xmlns="http://www.w3.org/2000/svg">
<g id="icon">
<g id="Group 1071">
<path id="Vector" d="M52.1038 58.7444H53.9608C56.7425 58.7444 59 56.4869 59 53.7052V17.2873C59 14.5055 56.7425 12.248 53.9608 12.248H17.4846C14.732 12.248 12.5 14.48 12.5 17.2327C12.5 19.9853 14.732 22.2173 17.4846 22.2173H46.8898C49.7699 22.2173 52.1038 24.5512 52.1038 27.4313V60.2154C52.1038 63.0955 49.7699 65.4294 46.8898 65.4294H17.714C14.8339 65.4294 12.5 63.0955 12.5 60.2154V17.2873" stroke="#222222" stroke-width="2" stroke-linecap="round" stroke-linejoin="round"/>
<path id="Vector_2" d="M29.8132 7.37598H38.7411C40.609 7.37598 42.1236 8.89066 42.1236 10.7585V22.2169H26.4307V10.7585C26.4307 8.89066 27.9453 7.37598 29.8132 7.37598Z" fill="#222222"/>
</g>
</g>
</svg>
