<svg width="100" height="100" viewBox="0 0 100 100" fill="none" xmlns="http://www.w3.org/2000/svg">
<g id="icon">
<circle id="bg" cx="50" cy="50" r="50" fill="white"/>
<g id="icon_2">
<g id="Group 1065">
<path id="Vector" d="M62.6729 28H37.3271C34.9373 28 33 29.9373 33 32.3271V68.4875C33 70.8773 34.9373 72.8146 37.3271 72.8146H62.6729C65.0627 72.8146 67 70.8773 67 68.4875V32.3271C67 29.9373 65.0627 28 62.6729 28Z" stroke="#222222" stroke-width="2" stroke-linejoin="round"/>
<path id="Vector_2" d="M57.3201 28V31.7045C57.3201 32.5529 56.6305 33.2425 55.7822 33.2425H44.2108C43.3625 33.2425 42.6729 32.5529 42.6729 31.7045V28" stroke="#222222" stroke-width="2" stroke-linejoin="round"/>
<path id="Vector_3" d="M42.9419 56.623H57.0521" stroke="#222222" stroke-width="2" stroke-linejoin="round"/>
<path id="Vector_4" d="M44.4922 48.1826L48.1113 51.8505L55.5021 44.7954" stroke="#222222" stroke-width="2" stroke-linejoin="round"/>
</g>
</g>
</g>
</svg>
