<svg width="72" height="72" viewBox="0 0 72 72" fill="none" xmlns="http://www.w3.org/2000/svg">
<g id="icon">
<g id="Group 1080">
<path id="Vector" d="M33.6356 44.7499V11.9143C33.6356 9.20016 31.4354 7 28.7213 7C26.0072 7 23.807 9.20016 23.807 11.9143V44.7499C20.358 46.5331 18 50.1286 18 54.2787C18 60.2007 22.7993 65 28.7213 65C34.6432 65 39.4426 60.2007 39.4426 54.2787C39.4426 50.1286 37.0846 46.5331 33.6356 44.7499Z" stroke="#222222" stroke-width="2" stroke-miterlimit="10" stroke-linecap="round" stroke-linejoin="round"/>
<path id="Vector_2" d="M29.7174 50.5389V22.0652C29.7174 21.5152 29.271 21.0688 28.721 21.0688C28.1709 21.0688 27.7246 21.5152 27.7246 22.0652V50.5389C26.07 50.9784 24.8481 52.482 24.8481 54.2764C24.8481 56.4157 26.5817 58.147 28.7187 58.147C30.8558 58.147 32.5893 56.4135 32.5893 54.2764C32.5893 52.482 31.3675 50.9784 29.7128 50.5389H29.7174Z" fill="#222222"/>
<path id="Vector_3" d="M43.5366 11.1704H54.0347" stroke="#222222" stroke-width="2" stroke-miterlimit="10" stroke-linecap="round" stroke-linejoin="round"/>
<path id="Vector_4" d="M43.5366 16.9912H48.0046" stroke="#222222" stroke-width="2" stroke-miterlimit="10" stroke-linecap="round" stroke-linejoin="round"/>
<path id="Vector_5" d="M43.5366 22.8115H48.0046" stroke="#222222" stroke-width="2" stroke-miterlimit="10" stroke-linecap="round" stroke-linejoin="round"/>
<path id="Vector_6" d="M43.5366 28.6318H54.0347" stroke="#222222" stroke-width="2" stroke-miterlimit="10" stroke-linecap="round" stroke-linejoin="round"/>
<path id="Vector_7" d="M43.5366 34.4526H48.0046" stroke="#222222" stroke-width="2" stroke-miterlimit="10" stroke-linecap="round" stroke-linejoin="round"/>
<path id="Vector_8" d="M43.5366 40.2754H48.0046" stroke="#222222" stroke-width="2" stroke-miterlimit="10" stroke-linecap="round" stroke-linejoin="round"/>
</g>
</g>
</svg>
