<svg width="72" height="72" viewBox="0 0 72 72" fill="none" xmlns="http://www.w3.org/2000/svg">
<g id="icon">
<g id="Group 1072">
<path id="Vector" d="M5.6318 57.7397L32.9396 11.5973C34.1959 9.47411 37.2644 9.46676 38.5329 11.5802L66.426 58.0703C67.7312 60.2473 66.1541 63.0171 63.6146 62.9999L8.41621 62.6522C5.90363 62.6375 4.35592 59.902 5.6367 57.7397H5.6318Z" stroke="#222222" stroke-width="2" stroke-linecap="round" stroke-linejoin="round"/>
<path id="Vector_2" d="M35.4473 29.3765V45.554" stroke="#222222" stroke-width="3" stroke-linecap="round" stroke-linejoin="round"/>
<path id="Vector_3" d="M35.5 52C35.7761 52 36 51.7761 36 51.5C36 51.2239 35.7761 51 35.5 51C35.2239 51 35 51.2239 35 51.5C35 51.7761 35.2239 52 35.5 52Z" fill="#222222" stroke="#222222" stroke-width="3"/>
<path id="Vector_4" d="M35.5 53C36.3284 53 37 52.3284 37 51.5C37 50.6716 36.3284 50 35.5 50C34.6716 50 34 50.6716 34 51.5C34 52.3284 34.6716 53 35.5 53Z" fill="#222222"/>
</g>
</g>
</svg>
