<svg width="72" height="72" viewBox="0 0 72 72" fill="none" xmlns="http://www.w3.org/2000/svg">
<g clip-path="url(#clip0_10_16525)">
<path d="M50.5292 64.9156H21.7834C19.7412 64.9156 18.084 63.3089 18.084 61.3282V10.6716C18.084 8.69086 19.7394 7.08423 21.7834 7.08423H50.5292C52.5713 7.08423 54.2286 8.69086 54.2286 10.6716V61.3282C54.2286 63.3089 52.5731 64.9156 50.5292 64.9156Z" stroke="#BE826A" stroke-width="2.5" stroke-miterlimit="10"/>
<path d="M18.084 55.5054H54.2286" stroke="#BE826A" stroke-width="2.5" stroke-linejoin="round"/>
<path d="M37.0925 60.1047C37.0925 60.6053 36.6732 61.012 36.1564 61.012C35.6395 61.012 35.2202 60.6053 35.2202 60.1047C35.2202 59.6041 35.6395 59.1975 36.1564 59.1975C36.6732 59.1975 37.0925 59.6041 37.0925 60.1047Z" fill="#BE826A" stroke="#BE826A" stroke-width="2.5" stroke-linejoin="round"/>
<path d="M36.1565 38.85C36.6556 38.85 37.0602 38.4454 37.0602 37.9463C37.0602 37.4473 36.6556 37.0427 36.1565 37.0427C35.6575 37.0427 35.2529 37.4473 35.2529 37.9463C35.2529 38.4454 35.6575 38.85 36.1565 38.85Z" fill="#BE826A" stroke="#BE826A" stroke-width="2.5" stroke-linecap="round" stroke-linejoin="round"/>
<path d="M29.8457 28.2272C33.8397 26.026 38.4264 26.0187 42.4222 28.2091" stroke="#BE826A" stroke-width="2.5" stroke-linecap="round" stroke-linejoin="round"/>
<path d="M39.7853 32.7706C37.4612 31.5995 34.8155 31.6031 32.4932 32.7796" stroke="#BE826A" stroke-width="2.5" stroke-miterlimit="10" stroke-linecap="round"/>
</g>
<defs>
<clipPath id="clip0_10_16525">
<rect width="38.3133" height="60" fill="white" transform="translate(17 6)"/>
</clipPath>
</defs>
</svg>
