<svg width="24" height="24" viewBox="0 0 24 24" fill="none" xmlns="http://www.w3.org/2000/svg">
<path d="M10.9476 20.9967C7.3875 20.9935 4.50647 18.0946 4.5 14.5165C4.5 11.4876 9.21442 4.47109 10.6598 2.39766C10.773 2.23842 10.9928 2.20267 11.1513 2.31642C11.1836 2.33917 11.2095 2.36842 11.2321 2.39766C12.6775 4.47434 17.3919 11.4876 17.3919 14.5197C17.3887 18.0979 14.5044 20.9935 10.9443 21L10.9476 20.9967Z" stroke="white" stroke-linecap="round" stroke-linejoin="round"/>
<path d="M14.23 7.02674C14.7894 6.12652 15.3132 5.35305 15.6074 4.93382C15.6721 4.84282 15.8015 4.82007 15.892 4.88507C15.9114 4.89807 15.9276 4.91432 15.9405 4.93382C16.7747 6.13302 19.5006 10.1889 19.5006 11.9406C19.5006 13.4453 18.6178 14.742 17.3438 15.3367" stroke="white" stroke-linecap="round" stroke-linejoin="round"/>
<path d="M10.1545 11.9262C9.82789 11.7215 9.44958 11.6175 9.06479 11.624C8.68001 11.6142 8.30492 11.7182 7.97834 11.9262C7.59032 12.157 7.12146 12.209 6.69464 12.0692C6.54267 12.0075 6.36806 12.0822 6.30339 12.235C5.96711 12.9499 5.76017 13.7234 5.69873 14.5131C5.69873 17.425 8.04624 19.7844 10.9434 19.7844C13.8407 19.7844 16.1882 17.425 16.1882 14.5131C16.1235 13.7202 15.9198 12.9467 15.5803 12.2285C15.5188 12.0757 15.3475 12.0042 15.1922 12.0627C14.7622 12.209 14.2901 12.157 13.9021 11.923C13.2328 11.5232 12.3985 11.5232 11.7292 11.923C11.2442 12.2187 10.6363 12.2187 10.1512 11.923L10.1545 11.9262Z" fill="white"/>
</svg>
