<svg width="72" height="72" viewBox="0 0 72 72" fill="none" xmlns="http://www.w3.org/2000/svg">
<g id="Icon">
<g id="Group 2563">
<path id="Vector" d="M36.0003 47.1304L47.1203 39.7165C50.6038 37.3948 52.696 33.4852 52.696 29.2974V8.17391L36.0003 4L19.3047 8.17391V29.2991C19.3047 33.4852 21.3969 37.3948 24.8803 39.7183L36.0003 47.1322V47.1304Z" stroke="#333333" stroke-width="2.5" stroke-linecap="round" stroke-linejoin="round"/>
<path id="Vector_2" d="M51.9152 33.6071L65.6056 40.0627C67.0665 40.7444 67.9986 42.2192 67.9986 43.8331V47.1305C67.9986 48.2436 67.3447 49.2036 66.3986 49.6488L42.3708 60.9601C41.5917 61.3218 40.6734 61.2662 39.9499 60.8071C39.2265 60.3479 38.7812 59.541 38.7812 58.6784C38.7812 57.5792 39.4213 56.5636 40.423 56.0905L62.4334 45.7392" stroke="#333333" stroke-width="2.5" stroke-miterlimit="10" stroke-linecap="round" stroke-linejoin="round"/>
<path id="Vector_3" d="M19.3322 30.0034L7.99304 35.2904C5.64174 36.4034 4 38.7825 4 41.5652V48.5217C4 51.3878 5.73913 53.8504 8.21565 54.9217L37.433 67.4434C38.2817 67.8052 39.2 67.9999 40.1739 67.9999C41.2174 67.9999 42.2191 67.7634 43.1096 67.346L68 55.7425" stroke="#333333" stroke-width="2.5" stroke-miterlimit="10" stroke-linecap="round" stroke-linejoin="round"/>
<path id="Vector_4" d="M35.9988 29.0436C39.0724 29.0436 41.564 26.552 41.564 23.4784C41.564 20.4048 39.0724 17.9132 35.9988 17.9132C32.9252 17.9132 30.4336 20.4048 30.4336 23.4784C30.4336 26.552 32.9252 29.0436 35.9988 29.0436Z" stroke="#333333" stroke-width="2.5" stroke-linecap="round" stroke-linejoin="round"/>
<path id="Vector_5" d="M41.5664 23.478H47.1316" stroke="#333333" stroke-width="2.5" stroke-linecap="round" stroke-linejoin="round"/>
<path id="Vector_6" d="M24.8711 23.478H30.4363" stroke="#333333" stroke-width="2.5" stroke-linecap="round" stroke-linejoin="round"/>
<path id="Vector_7" d="M39.9375 19.5427L43.8714 15.6088" stroke="#333333" stroke-width="2.5" stroke-linecap="round" stroke-linejoin="round"/>
<path id="Vector_8" d="M28.1289 31.3482L32.0628 27.4143" stroke="#333333" stroke-width="2.5" stroke-linecap="round" stroke-linejoin="round"/>
<path id="Vector_9" d="M32.0628 19.5427L28.1289 15.6088" stroke="#333333" stroke-width="2.5" stroke-linecap="round" stroke-linejoin="round"/>
<path id="Vector_10" d="M43.8714 31.3482L39.9375 27.4143" stroke="#333333" stroke-width="2.5" stroke-linecap="round" stroke-linejoin="round"/>
<path id="Vector_11" d="M36 17.913V12.3478" stroke="#333333" stroke-width="2.5" stroke-linecap="round" stroke-linejoin="round"/>
<path id="Vector_12" d="M36 34.6087V29.0435" stroke="#333333" stroke-width="2.5" stroke-linecap="round" stroke-linejoin="round"/>
</g>
</g>
</svg>
