<svg width="72" height="72" viewBox="0 0 72 72" fill="none" xmlns="http://www.w3.org/2000/svg">
<g id="icon">
<g id="Group 1079">
<path id="Vector" d="M58.6243 51.8857H13.6422C10.537 51.8857 8.01978 54.403 8.01978 57.5081C8.01978 60.6133 10.537 63.1305 13.6422 63.1305H58.6243C61.7294 63.1305 64.2467 60.6133 64.2467 57.5081C64.2467 54.403 61.7294 51.8857 58.6243 51.8857Z" stroke="#222222" stroke-width="2" stroke-miterlimit="10"/>
<path id="Vector_2" d="M15.2817 51.8862V28.8501C15.2817 17.3363 24.6181 8 36.1347 8C47.6513 8 56.9848 17.3363 56.9848 28.8501V51.8862" stroke="#222222" stroke-width="2" stroke-miterlimit="10"/>
<path id="Vector_3" d="M36.1337 38.0887C38.2733 38.0887 40.0079 36.3541 40.0079 34.2145C40.0079 32.0749 38.2733 30.3403 36.1337 30.3403C33.994 30.3403 32.2595 32.0749 32.2595 34.2145C32.2595 36.3541 33.994 38.0887 36.1337 38.0887Z" stroke="#222222" stroke-width="2" stroke-miterlimit="10"/>
<path id="Vector_4" d="M36.1345 38.0889V51.8859" stroke="#222222" stroke-width="2" stroke-miterlimit="10"/>
</g>
</g>
</svg>
