<svg width="72" height="72" viewBox="0 0 72 72" fill="none" xmlns="http://www.w3.org/2000/svg">
<path d="M56.7086 35.9746L45.7696 46.9156L39.9543 41.0993" stroke="#BE826A" stroke-width="2.5" stroke-linecap="round" stroke-linejoin="round"/>
<path d="M12.621 28.4824H5.5" stroke="#BE826A" stroke-width="2.5" stroke-linecap="round" stroke-linejoin="round"/>
<path d="M12.621 13.8066H5.5" stroke="#BE826A" stroke-width="2.5" stroke-linecap="round" stroke-linejoin="round"/>
<path d="M12.6221 21.3359H9.22778" stroke="#BE826A" stroke-width="2.5" stroke-linecap="round" stroke-linejoin="round"/>
<path d="M12.6221 35.6309H9.22778" stroke="#BE826A" stroke-width="2.5" stroke-linecap="round" stroke-linejoin="round"/>
<path d="M12.621 42.7776H5.5" stroke="#BE826A" stroke-width="2.5" stroke-linecap="round" stroke-linejoin="round"/>
<path d="M28.1064 49.4624V9.95451C28.1064 7.2187 25.8881 5 23.1528 5C20.444 5 18.2368 7.17671 18.1992 9.886L17.6424 49.8778V49.8845C15.1922 51.6524 13.6301 54.576 13.7317 57.8554C13.8974 62.7193 17.8656 66.7523 22.722 66.9888C28.1528 67.2496 32.6512 62.9227 32.6512 57.5372C32.6512 54.1164 30.8328 51.1242 28.1086 49.4646L28.1064 49.4624Z" stroke="#BE826A" stroke-width="2.5" stroke-linecap="round" stroke-linejoin="round"/>
<path d="M23.186 21.5801V57.7909" stroke="#BE826A" stroke-width="2.5" stroke-linecap="round" stroke-linejoin="round"/>
<path d="M37.2609 58.4057C40.2989 60.3151 43.8914 61.42 47.7491 61.42C58.6571 61.42 67.4993 52.5761 67.4993 41.6661C67.4993 30.756 58.6571 21.9121 47.7491 21.9121C42.2675 21.9121 37.3161 24.1419 33.7368 27.7461" stroke="#BE826A" stroke-width="2.5" stroke-linecap="round" stroke-linejoin="round"/>
</svg>
