<svg width="72" height="72" viewBox="0 0 72 72" fill="none" xmlns="http://www.w3.org/2000/svg">
<g id="icon">
<g id="icon_2">
<path id="Vector" d="M24.8541 8C24.8541 11.7356 20.3833 11.7356 20.3833 15.4712C20.3833 19.2068 24.8541 19.2068 24.8541 22.9424C24.8541 26.6779 20.3833 26.6779 20.3833 30.4135C20.3833 34.1491 24.8541 34.1491 24.8541 37.8847" stroke="#222222" stroke-width="2" stroke-linecap="round" stroke-linejoin="round"/>
<path id="Vector_2" d="M38.3885 8C38.3885 11.7356 33.9177 11.7356 33.9177 15.4712C33.9177 19.2068 38.3885 19.2068 38.3885 22.9424C38.3885 26.6779 33.9177 26.6779 33.9177 30.4135C33.9177 34.1491 38.3885 34.1491 38.3885 37.8847" stroke="#222222" stroke-width="2" stroke-linecap="round" stroke-linejoin="round"/>
<path id="Vector_3" d="M51.9244 8C51.9244 11.7356 47.4536 11.7356 47.4536 15.4712C47.4536 19.2068 51.9244 19.2068 51.9244 22.9424C51.9244 26.6779 47.4536 26.6779 47.4536 30.4135C47.4536 34.1491 51.9244 34.1491 51.9244 37.8847" stroke="#222222" stroke-width="2" stroke-linecap="round" stroke-linejoin="round"/>
<path id="Vector_4" d="M56.4375 49.9453H15.8676C12.0747 49.9453 9 53.0195 9 56.8117C9 60.6039 12.0747 63.6781 15.8676 63.6781H56.4375C60.2304 63.6781 63.3051 60.6039 63.3051 56.8117C63.3051 53.0195 60.2304 49.9453 56.4375 49.9453Z" stroke="#222222" stroke-width="2" stroke-linecap="round" stroke-linejoin="round"/>
</g>
</g>
</svg>
