<svg width="72" height="72" viewBox="0 0 72 72" fill="none" xmlns="http://www.w3.org/2000/svg">
<g id="Icon">
<g id="Group 2564">
<path id="Vector" d="M48.9986 46.9091V59.1818L24.4531 66V6L48.9986 12.8182V25.0909" stroke="#333333" stroke-width="2.5" stroke-miterlimit="10" stroke-linecap="round" stroke-linejoin="round"/>
<path id="Vector_2" d="M36.7266 43.9095C42.4402 42.2867 48.4129 41.4549 54.4538 41.4549V49.6367L68.0902 36.0004L54.4538 22.364V30.5458C48.4129 30.5458 42.4402 29.714 36.7266 28.0913" stroke="#333333" stroke-width="2.5" stroke-linecap="round" stroke-linejoin="round"/>
<path id="Vector_3" d="M24.4556 23.2496C20.6374 21.286 17.5556 19.2541 14.9102 17.236" stroke="#333333" stroke-width="2.5" stroke-miterlimit="10" stroke-linecap="round" stroke-linejoin="round"/>
<path id="Vector_4" d="M9.45419 12.586C8.03601 11.2769 6.69964 9.98147 5.36328 8.72693" stroke="#333333" stroke-width="2.5" stroke-miterlimit="10" stroke-linecap="round" stroke-linejoin="round"/>
<path id="Vector_5" d="M14.9102 54.7636C17.5556 52.7455 20.6374 50.7136 24.4556 48.75" stroke="#333333" stroke-width="2.5" stroke-miterlimit="10" stroke-linecap="round" stroke-linejoin="round"/>
<path id="Vector_6" d="M5.36328 63.2732C6.69964 62.0186 8.03601 60.7232 9.45419 59.4141" stroke="#333333" stroke-width="2.5" stroke-miterlimit="10" stroke-linecap="round" stroke-linejoin="round"/>
<path id="Vector_7" d="M36.7266 36H47.6357" stroke="#333333" stroke-width="2.5" stroke-miterlimit="10" stroke-linecap="round" stroke-linejoin="round"/>
<path id="Vector_8" d="M12.1836 36H24.4563" stroke="#333333" stroke-width="2.5" stroke-miterlimit="10" stroke-linecap="round" stroke-linejoin="round"/>
<path id="Vector_9" d="M8.09091 36H4" stroke="#333333" stroke-width="2.5" stroke-miterlimit="10" stroke-linecap="round" stroke-linejoin="round"/>
<path id="Vector_10" d="M5.36328 22.364C8.45874 24.6822 12.4133 26.564 16.2724 27.8458" stroke="#333333" stroke-width="2.5" stroke-miterlimit="10" stroke-linecap="round" stroke-linejoin="round"/>
<path id="Vector_11" d="M16.2724 44.182C12.4133 45.4638 8.45874 47.3456 5.36328 49.6638" stroke="#333333" stroke-width="2.5" stroke-miterlimit="10" stroke-linecap="round" stroke-linejoin="round"/>
</g>
</g>
</svg>
