<svg width="72" height="72" viewBox="0 0 72 72" fill="none" xmlns="http://www.w3.org/2000/svg">
<g clip-path="url(#clip0_110_11746)">
<path d="M51.896 44.8275C53.568 44.4923 55.8572 43.5991 56.9528 42.8019C62.1526 39.0063 64.3948 31.9302 59.8572 26.6609C61.5925 30.2112 56.2231 35.1882 51.7959 31.3272C46.733 26.9123 59.6181 20.7089 44.963 10.8203C48.9855 21.8392 30.0299 24.9215 36.0452 38.0211C37.709 41.643 40.777 43.8443 44.2231 44.8295" stroke="#BE826A" stroke-width="2.5" stroke-linecap="round" stroke-linejoin="round"/>
<path d="M15.5876 28.7207H9" stroke="#BE826A" stroke-width="2.5" stroke-linecap="round" stroke-linejoin="round"/>
<path d="M15.5876 15.1445H9" stroke="#BE826A" stroke-width="2.5" stroke-linecap="round" stroke-linejoin="round"/>
<path d="M15.5868 22.1094H12.4473" stroke="#BE826A" stroke-width="2.5" stroke-linecap="round" stroke-linejoin="round"/>
<path d="M15.5868 35.332H12.4473" stroke="#BE826A" stroke-width="2.5" stroke-linecap="round" stroke-linejoin="round"/>
<path d="M15.5876 41.9414H9" stroke="#BE826A" stroke-width="2.5" stroke-linecap="round" stroke-linejoin="round"/>
<path d="M29.9136 48.1242V11.5825C29.9136 9.05212 27.8614 7 25.331 7C22.8252 7 20.7833 9.01329 20.7485 11.5192L20.2334 48.5084V48.5146C17.9667 50.1497 16.5216 52.8539 16.6157 55.8871C16.769 60.3858 20.4399 64.116 24.9325 64.3347C29.9565 64.5759 34.118 60.5738 34.118 55.5927C34.118 52.4287 32.4358 49.6612 29.9156 48.1262L29.9136 48.1242Z" stroke="#BE826A" stroke-width="2.5" stroke-linecap="round" stroke-linejoin="round"/>
<path d="M25.3613 22.3359V55.828" stroke="#BE826A" stroke-width="2.5" stroke-linecap="round" stroke-linejoin="round"/>
</g>
<defs>
<clipPath id="clip0_110_11746">
<rect width="56" height="60" fill="white" transform="translate(8 6)"/>
</clipPath>
</defs>
</svg>
