<svg width="73" height="72" viewBox="0 0 73 72" fill="none" xmlns="http://www.w3.org/2000/svg">
<g id="Icon">
<g id="Group 2606">
<path id="Vector" d="M34.9836 6H55.3726C56.5427 6 57.499 6.9795 57.499 8.17782V63.8217C57.499 65.0201 56.5427 65.9996 55.3726 65.9996H17.6264C16.4564 65.9996 15.5 65.0201 15.5 63.8217V27.4448C15.5 26.2465 16.4564 25.267 17.6264 25.267H30.7409C31.911 25.267 32.8673 24.2875 32.8673 23.0891V8.17782C32.8673 6.9795 33.8237 6 34.9937 6H34.9836Z" stroke="#BE826A" stroke-width="2.5" stroke-linecap="round" stroke-linejoin="round"/>
<path id="Vector_2" d="M16.0195 26.0273L33.5293 6.604" stroke="#BE826A" stroke-width="2.5" stroke-linecap="round" stroke-linejoin="round"/>
<path id="Vector_3" d="M32.8555 17.4726L44.0573 6" stroke="#BE826A" stroke-width="2.5" stroke-linecap="round" stroke-linejoin="round"/>
<path id="Vector_4" d="M15.5 35.2495L25.2469 25.2773" stroke="#BE826A" stroke-width="2.5" stroke-linecap="round" stroke-linejoin="round"/>
<path id="Vector_5" d="M15.5 48.0976L56.3595 6.25" stroke="#BE826A" stroke-width="2.5" stroke-linecap="round" stroke-linejoin="round"/>
<path id="Vector_6" d="M15.5 60.9458L57.499 17.9312" stroke="#BE826A" stroke-width="2.5" stroke-linecap="round" stroke-linejoin="round"/>
<path id="Vector_7" d="M23.1172 65.9996L57.4958 30.7793" stroke="#BE826A" stroke-width="2.5" stroke-linecap="round" stroke-linejoin="round"/>
<path id="Vector_8" d="M35.6641 65.9999L57.4979 43.6277" stroke="#BE826A" stroke-width="2.5" stroke-linecap="round" stroke-linejoin="round"/>
<path id="Vector_9" d="M48.207 65.9999L57.4961 56.4758" stroke="#BE826A" stroke-width="2.5" stroke-linecap="round" stroke-linejoin="round"/>
<path id="Vector_10" d="M50.5625 6L57.5013 13.117" stroke="#BE826A" stroke-width="2.5" stroke-linecap="round" stroke-linejoin="round"/>
<path id="Vector_11" d="M38.0156 6L57.4992 25.9651" stroke="#BE826A" stroke-width="2.5" stroke-linecap="round" stroke-linejoin="round"/>
<path id="Vector_12" d="M32.8555 13.5754L57.4973 38.8132" stroke="#BE826A" stroke-width="2.5" stroke-linecap="round" stroke-linejoin="round"/>
<path id="Vector_13" d="M31.5742 25.1003L57.498 51.6614" stroke="#BE826A" stroke-width="2.5" stroke-linecap="round" stroke-linejoin="round"/>
<path id="Vector_14" d="M19.1914 25.2773L57.4158 64.4156" stroke="#BE826A" stroke-width="2.5" stroke-linecap="round" stroke-linejoin="round"/>
<path id="Vector_15" d="M15.5 34.333L46.4194 66" stroke="#BE826A" stroke-width="2.5" stroke-linecap="round" stroke-linejoin="round"/>
<path id="Vector_16" d="M15.5 47.1802L33.8746 65.9991" stroke="#BE826A" stroke-width="2.5" stroke-linecap="round" stroke-linejoin="round"/>
<path id="Vector_17" d="M15.5 60.0286L21.3196 65.9993" stroke="#BE826A" stroke-width="2.5" stroke-linecap="round" stroke-linejoin="round"/>
</g>
</g>
</svg>
