<svg width="80" height="80" viewBox="0 0 80 80" fill="none" xmlns="http://www.w3.org/2000/svg">
<g id="icon">
<circle id="Ellipse 126" cx="40" cy="40" r="40" fill="white"/>
<g id="Mask group">
<mask id="mask0_110_27141" style="mask-type:alpha" maskUnits="userSpaceOnUse" x="16" y="16" width="48" height="48">
<rect id="Rectangle 5863" x="16" y="16" width="48" height="48" fill="#D9D9D9"/>
</mask>
<g mask="url(#mask0_110_27141)">
<g id="Group 2447">
<path id="Vector" d="M35.5017 36.9492L34.3086 40.6403H36.6574L35.5203 36.9492H35.5017Z" fill="#222222"/>
<path id="Vector_2" d="M40.1986 25C30.5608 25 22.75 31.1704 22.75 38.7948C22.75 43.6975 25.9936 47.9851 30.8591 50.4458L29.2186 56.5789C29.1627 56.7653 29.2186 56.9704 29.3491 57.1009C29.4423 57.1941 29.5728 57.25 29.7033 57.25C29.8152 57.25 29.9084 57.2127 30.0016 57.1382L37.0668 52.3659C38.0921 52.515 39.136 52.5896 40.2172 52.5896C49.8549 52.5896 57.6844 46.4192 57.6844 38.7948C57.6844 31.1704 49.8549 25 40.1986 25ZM30.8777 43.1569C30.8777 43.4738 30.7845 43.7348 30.5981 43.9212C30.4117 44.1077 30.1694 44.2009 29.8525 44.2009C29.5915 44.2009 29.3864 44.1263 29.2186 43.9958C29.0322 43.8467 28.939 43.6603 28.8831 43.4179C28.8831 43.3247 28.8645 43.2501 28.8831 43.1569V36.6137H26.9816C26.7207 36.6137 26.497 36.5578 26.3105 36.4273C26.1241 36.3155 26.0123 36.1477 25.9564 35.924C25.9564 35.8681 25.9377 35.7935 25.9191 35.7189C25.9191 35.4393 26.0123 35.2156 26.2173 35.0665C26.4224 34.9173 26.6647 34.8241 26.963 34.8241H32.7792C33.0402 34.8241 33.2639 34.8801 33.4503 35.0105C33.6367 35.1224 33.7486 35.2902 33.8045 35.5139C33.8045 35.5698 33.8045 35.6444 33.8045 35.7003C33.8045 35.9799 33.7113 36.2036 33.5062 36.3527C33.3198 36.5019 33.0588 36.5764 32.7605 36.5764H30.8591V43.1197L30.8777 43.1569ZM39.1733 43.9399C38.9869 44.1263 38.7632 44.2009 38.5022 44.2009C38.0361 44.2009 37.7379 44.0145 37.6074 43.623L37.0854 42.0944H33.8418L33.3198 43.623C33.1893 43.9958 32.891 44.2009 32.425 44.2009C32.1827 44.2009 31.9962 44.1449 31.8285 44.0145C31.6607 43.9026 31.5675 43.7162 31.5116 43.4925C31.5116 43.4366 31.5116 43.362 31.5116 43.2874C31.5116 43.1942 31.5116 43.0637 31.5675 42.9146C31.6048 42.7655 31.6607 42.6163 31.698 42.4858L34.2892 35.3275C34.3637 35.1038 34.4942 34.936 34.662 34.8428C34.8298 34.7496 35.0348 34.6936 35.2772 34.6936H35.7619C36.0228 34.6936 36.2465 34.7496 36.4143 34.8614C36.5821 34.9733 36.7312 35.1783 36.8244 35.4766L39.2478 42.5045C39.3224 42.7282 39.3783 42.9146 39.4156 43.0637C39.4342 43.1756 39.4529 43.2501 39.4529 43.3061C39.4529 43.5671 39.3597 43.7721 39.1733 43.9585V43.9399ZM45.8843 43.8094C45.6792 43.9585 45.4369 44.0331 45.1386 44.0331H40.9442C40.6273 44.0331 40.385 43.9772 40.1799 43.8467C39.9935 43.7162 39.863 43.5111 39.8071 43.2315C39.7884 43.1197 39.7698 42.9705 39.7698 42.8214V35.7376C39.7698 35.4207 39.863 35.1783 40.0494 34.9733C40.2358 34.7868 40.4782 34.6936 40.7951 34.6936C41.0561 34.6936 41.2611 34.7682 41.4475 34.8987C41.6153 35.0478 41.7272 35.2342 41.7831 35.4766C41.7831 35.5698 41.8017 35.6444 41.7831 35.7376V42.2808H45.1386C45.3996 42.2808 45.6419 42.3367 45.8097 42.4672C45.9961 42.5977 46.108 42.7655 46.1452 42.9705C46.1452 43.0264 46.1639 43.101 46.1825 43.1569C46.1825 43.4366 46.0893 43.6603 45.8843 43.8094ZM53.4341 43.9772C53.229 44.1263 52.9867 44.2195 52.7071 44.2195C52.502 44.2195 52.3343 44.1822 52.2038 44.1077C52.0733 44.0331 51.9428 43.884 51.8123 43.6789L49.5007 39.9506L48.4009 41.1064V43.1942C48.4009 43.5111 48.3263 43.7721 48.1399 43.9585C47.9535 44.1449 47.7111 44.2382 47.3942 44.2382C47.1332 44.2382 46.9282 44.1636 46.7418 44.0331C46.574 43.884 46.4621 43.6975 46.4062 43.4552C46.4062 43.362 46.3876 43.2874 46.4062 43.1942V35.7562C46.4062 35.4393 46.4994 35.197 46.6858 34.9919C46.8723 34.8055 47.1146 34.7123 47.4129 34.7123C47.6738 34.7123 47.8789 34.7869 48.0467 34.9173C48.2331 35.0665 48.3449 35.2529 48.3822 35.4952C48.3822 35.5884 48.4009 35.663 48.4009 35.7562V38.7948L51.5699 35.1597C51.7191 35.0105 51.8309 34.8987 51.9614 34.8055C52.0733 34.7309 52.2224 34.6936 52.3715 34.6936C52.5952 34.6936 52.8003 34.7496 52.9681 34.8801C53.1545 34.9919 53.2663 35.1597 53.3036 35.3647C53.3036 35.3647 53.3036 35.402 53.3036 35.4393C53.3036 35.4766 53.3036 35.4952 53.3036 35.5325C53.3036 35.6816 53.2663 35.8121 53.2104 35.924C53.1545 36.0358 53.0613 36.1477 52.9681 36.2595L50.8988 38.5152L53.3409 42.3926L53.4155 42.5045C53.5832 42.7655 53.6764 42.9519 53.7137 43.0824C53.7137 43.0824 53.7137 43.1197 53.7137 43.1383C53.7137 43.1756 53.7137 43.1942 53.7137 43.2129C53.7137 43.5671 53.6205 43.828 53.4155 43.9772H53.4341Z" fill="#222222"/>
</g>
</g>
</g>
</g>
</svg>
