<svg width="72" height="72" viewBox="0 0 72 72" fill="none" xmlns="http://www.w3.org/2000/svg">
<g clip-path="url(#clip0_110_11741)">
<path d="M41.5223 59.724C37.344 62.5856 33.8407 64.5356 33.334 64.6673C31.9807 64.3156 9.33398 51.039 9.33398 42.0006V16.6673C16.1057 16.6673 30.964 10.604 33.334 7.33398C35.704 10.604 50.5623 16.6673 57.334 16.6673V28.6673" stroke="#BE826A" stroke-width="2" stroke-linecap="round" stroke-linejoin="round"/>
<path d="M32.455 56.277C28.86 54.317 16 46.1236 16 40.3336V28.752" stroke="#BE826A" stroke-width="2" stroke-linecap="round" stroke-linejoin="round"/>
<path d="M22.8281 20.6435C27.4265 19.1569 32.2348 16.8119 33.3331 15.2969C35.0448 17.6585 45.7765 22.0369 50.6665 22.0369V24.6669" stroke="#BE826A" stroke-width="2" stroke-linecap="round" stroke-linejoin="round"/>
<path d="M48.1959 45.999C50.3369 45.9362 52.0216 44.1497 51.9588 42.0086C51.896 39.8676 50.1095 38.1829 47.9685 38.2457C45.8274 38.3085 44.1427 40.095 44.2055 42.236C44.2683 44.3771 46.0548 46.0618 48.1959 45.999Z" fill="#BE826A"/>
<path d="M56.2844 37.2639C56.1577 37.0523 55.9477 36.9023 55.7061 36.8523C55.4644 36.8023 55.2111 36.8556 55.0127 37.0023L54.1161 37.6556C53.7527 37.9206 53.6494 38.4123 53.8727 38.8023C54.4344 39.7806 54.7561 40.9156 54.7561 42.1223C54.7561 43.3289 54.4461 44.4239 53.9027 45.3906C53.6861 45.7756 53.7894 46.2639 54.1461 46.5273L55.0411 47.1873C55.2411 47.3356 55.4961 47.3906 55.7394 47.3406C55.9827 47.2906 56.1944 47.1389 56.3194 46.9239C57.1444 45.5139 57.6161 43.8739 57.6161 42.1239C57.6161 40.3739 57.1311 38.6873 56.2861 37.2656L56.2844 37.2639ZM41.1544 37.0023C40.9544 36.8573 40.7027 36.8023 40.4611 36.8523C40.2194 36.9023 40.0094 37.0523 39.8827 37.2639C39.0377 38.6873 38.5527 40.3473 38.5527 42.1223C38.5527 43.8973 39.0244 45.5139 39.8511 46.9239C39.9777 47.1389 40.1877 47.2906 40.4311 47.3406C40.6744 47.3906 40.9294 47.3356 41.1294 47.1873L42.0227 46.5273C42.3794 46.2639 42.4827 45.7773 42.2661 45.3906C41.7211 44.4256 41.4111 43.3106 41.4111 42.1223C41.4111 40.9339 41.7327 39.7789 42.2944 38.8023C42.5177 38.4139 42.4127 37.9189 42.0511 37.6556L41.1544 37.0023Z" fill="#BE826A"/>
<path d="M60.9004 33.8569C60.7687 33.6535 60.5604 33.5152 60.3237 33.4702C60.087 33.4269 59.8404 33.4819 59.647 33.6235L58.752 34.2752C58.377 34.5485 58.2804 35.0652 58.5304 35.4569C59.762 37.3819 60.4737 39.6685 60.4737 42.1219C60.4737 44.5752 59.767 46.8419 58.547 48.7602C58.3004 49.1485 58.3954 49.6635 58.7654 49.9369L59.657 50.5952C59.852 50.7385 60.0987 50.7969 60.337 50.7519C60.5754 50.7085 60.7854 50.5669 60.917 50.3635C62.4487 47.9869 63.3337 45.1585 63.3337 42.1219C63.3337 39.0852 62.442 36.2369 60.9004 33.8552V33.8569ZM36.5204 33.6235C36.3254 33.4819 36.0804 33.4252 35.842 33.4702C35.6054 33.5135 35.3954 33.6535 35.2654 33.8569C33.7254 36.2385 32.832 39.0769 32.832 42.1235C32.832 45.1702 33.7187 47.9885 35.2487 50.3652C35.3804 50.5685 35.5904 50.7085 35.8287 50.7535C36.067 50.7969 36.3137 50.7419 36.5087 50.5969L37.4004 49.9402C37.772 49.6669 37.867 49.1535 37.6187 48.7635C36.3987 46.8452 35.692 44.5669 35.692 42.1235C35.692 39.6802 36.4037 37.3835 37.637 35.4585C37.887 35.0685 37.7904 34.5502 37.4154 34.2769L36.5204 33.6252V33.6235Z" fill="#BE826A"/>
</g>
<defs>
<clipPath id="clip0_110_11741">
<rect width="55.3333" height="60" fill="white" transform="translate(8 6)"/>
</clipPath>
</defs>
</svg>
