<svg width="72" height="72" viewBox="0 0 72 72" fill="none" xmlns="http://www.w3.org/2000/svg">
<g id="icon">
<g id="Group 1068">
<path id="Vector" d="M50.7134 36.4253C50.7134 28.6154 36.5748 7 36.5748 7C36.5748 7 22.4363 28.6154 22.4363 36.4253C22.4363 44.2352 28.7674 50.5638 36.5748 50.5638C44.3822 50.5638 50.7134 44.2327 50.7134 36.4253Z" stroke="#222222" stroke-width="2" stroke-linecap="round" stroke-linejoin="round"/>
<path id="Vector_2" d="M11.5586 51.1533C17.7698 51.1533 17.7698 57.0291 23.9834 57.0291C30.197 57.0291 30.1945 51.1533 36.4082 51.1533C42.6218 51.1533 42.6218 57.0291 48.8354 57.0291C55.049 57.0291 55.049 51.1533 61.2626 51.1533" stroke="#222222" stroke-width="2" stroke-linecap="round" stroke-linejoin="round"/>
<path id="Vector_3" d="M11.5586 59.4023C17.7698 59.4023 17.7698 65.2781 23.9834 65.2781C30.197 65.2781 30.1945 59.4023 36.4082 59.4023C42.6218 59.4023 42.6218 65.2781 48.8354 65.2781C55.049 65.2781 55.049 59.4023 61.2626 59.4023" stroke="#222222" stroke-width="2" stroke-linecap="round" stroke-linejoin="round"/>
<path id="Vector_4" d="M41.8789 40.8856C43.1275 39.7056 43.906 38.0334 43.906 36.1777C43.906 34.3219 43.1275 32.6522 41.8789 31.4697" stroke="#222222" stroke-width="2" stroke-linecap="round" stroke-linejoin="round"/>
</g>
</g>
</svg>
