<svg width="72" height="72" viewBox="0 0 72 72" fill="none" xmlns="http://www.w3.org/2000/svg">
<path d="M16.571 33.8708H12.7407L4.07206 46.0674C4.07206 46.0674 2.86248 49.2929 10.3215 47.8817C17.7806 46.3698 32.3963 49.6961 32.3963 49.6961C32.3963 49.6961 52.6566 57.1551 61.0228 49.6961L68.0787 38.4068C68.0787 38.4068 68.8851 34.1732 63.1396 35.5844C57.3941 36.9956 52.6566 37.802 49.6327 35.5844" stroke="#BE826A" stroke-width="2.5" stroke-linecap="round" stroke-linejoin="round"/>
<path d="M8.20477 48.1867L4.07206 54.0329C4.07206 54.0329 2.86248 57.3593 10.3215 55.8473C17.7806 54.3353 32.3963 57.6617 32.3963 57.6617C32.3963 57.6617 52.6566 65.1207 61.0228 57.6617L68.0787 46.3723C68.0787 46.3723 70.8002 42.1388 65.0548 43.55" stroke="#BE826A" stroke-width="2.5" stroke-linecap="round" stroke-linejoin="round"/>
<path d="M27.6562 36.6977L23.7251 32.8674" stroke="#BE826A" stroke-width="2.5" stroke-linecap="round" stroke-linejoin="round"/>
<path d="M19.3923 28.3539L14.582 23.5437" stroke="#BE826A" stroke-width="2.5" stroke-linecap="round" stroke-linejoin="round"/>
<path d="M10.018 19.258L6.08691 15.3269" stroke="#BE826A" stroke-width="2.5" stroke-linecap="round" stroke-linejoin="round"/>
<path d="M40.6513 36.6977L36.7202 32.8674" stroke="#BE826A" stroke-width="2.5" stroke-linecap="round" stroke-linejoin="round"/>
<path d="M31.8986 28.3539L27.0884 23.5437" stroke="#BE826A" stroke-width="2.5" stroke-linecap="round" stroke-linejoin="round"/>
<path d="M22.9121 19.258L18.981 15.3269" stroke="#BE826A" stroke-width="2.5" stroke-linecap="round" stroke-linejoin="round"/>
<path d="M44.7787 11.9993L52.2377 12.7049L27.6431 36.6947" stroke="#BE826A" stroke-width="2.5" stroke-linecap="round" stroke-linejoin="round"/>
<path d="M52.5543 19.7636L52.252 12.7078" stroke="#BE826A" stroke-width="2.5" stroke-linecap="round" stroke-linejoin="round"/>
<path d="M57.994 12.7078H65.1506L40.6567 36.6976" stroke="#BE826A" stroke-width="2.5" stroke-linecap="round" stroke-linejoin="round"/>
<path d="M65.1475 20.1668V12.7078" stroke="#BE826A" stroke-width="2.5" stroke-linecap="round" stroke-linejoin="round"/>
</svg>
