<svg width="80" height="80" viewBox="0 0 80 80" fill="none" xmlns="http://www.w3.org/2000/svg">
<g id="icon">
<circle id="Ellipse 126" cx="40" cy="40" r="40" fill="white"/>
<g id="Mask group">
<mask id="mask0_110_27086" style="mask-type:alpha" maskUnits="userSpaceOnUse" x="16" y="16" width="48" height="48">
<rect id="Rectangle 5860" x="16" y="16" width="48" height="48" fill="#D9D9D9"/>
</mask>
<g mask="url(#mask0_110_27086)">
<g id="Group 2444">
<path id="Vector" d="M50.6144 51.9343H20.536C19.6882 51.9343 19 51.246 19 50.3982V28.786C19 27.9382 19.6882 27.25 20.536 27.25H56.2897C57.1375 27.25 57.8257 27.9382 57.8257 28.786V42.4468" stroke="#222222" stroke-width="1.5" stroke-linecap="round" stroke-linejoin="round"/>
<path id="Vector_2" d="M38.4141 51.9336V56.019" stroke="#222222" stroke-width="1.5" stroke-linecap="round" stroke-linejoin="round"/>
<path id="Vector_3" d="M34.7578 56.0195H42.0709" stroke="#222222" stroke-width="1.5" stroke-linecap="round" stroke-linejoin="round"/>
<path id="Vector_4" d="M60.5157 42.4473H51.8461C51.1652 42.4473 50.6133 42.9992 50.6133 43.6801V59.1342C50.6133 59.815 51.1652 60.367 51.8461 60.367H60.5157C61.1966 60.367 61.7485 59.815 61.7485 59.1342V43.6801C61.7485 42.9992 61.1966 42.4473 60.5157 42.4473Z" stroke="#222222" stroke-width="1.5" stroke-linecap="round" stroke-linejoin="round"/>
<path id="Vector_5" d="M54.7461 44.5977H57.9" stroke="#222222" stroke-linecap="round" stroke-linejoin="round"/>
<path id="Vector_6" d="M29.598 38.8586L27.3957 36.5067V38.8586H26.4062V35.1582H27.3299L29.4604 37.4363V35.1582H30.4478V38.8586H29.598Z" fill="#263169"/>
<path id="Vector_7" d="M49.5726 38.8586L47.3703 36.5067V38.8586H46.3828V35.1582H47.3044L49.4369 37.4363V35.1582H50.4244V38.8586H49.5726Z" fill="#263169"/>
<path id="Vector_8" d="M37.8449 38.8586H37.009L35.2695 35.1582H36.3148L37.4399 37.7455L38.565 35.1582H39.5844L37.8449 38.8586Z" fill="#263169"/>
<path id="Vector_9" d="M40.9719 35.1582H39.9805V38.8586H40.9719V35.1582Z" fill="#263169"/>
<path id="Vector_10" d="M32.1261 36.2762H31.1267C31.1865 36.0009 31.3281 35.6618 31.5835 35.4384C31.9545 35.1172 32.4253 35.0234 33.0856 35.0234C33.7459 35.0234 34.2865 35.1212 34.6595 35.4384C34.9408 35.6777 35.1702 36.0249 35.1722 36.4877V38.8575H34.1808V38.5204C34.109 38.5543 33.9773 38.678 33.5923 38.8316C33.2811 38.9553 32.944 38.9932 32.545 38.9932C32.0682 38.9932 31.765 38.8296 31.4917 38.6321C31.2085 38.4286 31.0469 38.0875 31.0469 37.7404C31.0469 37.3175 31.1327 37.0243 31.5536 36.8268C31.9386 36.6452 32.4014 36.6133 33.0038 36.6133H34.1828C34.1828 36.1425 33.8975 35.6518 33.1095 35.6518C32.557 35.6518 32.2657 35.971 32.1301 36.2782M33.0736 37.2098C32.4991 37.2198 32.0204 37.3554 32.0403 37.6925C32.0702 38.1733 32.561 38.2192 32.7704 38.2192C33.2971 38.2192 33.6821 38.1234 33.9015 37.9479C34.1389 37.7584 34.1469 37.4891 34.1489 37.2098C34.1489 37.2098 33.319 37.2058 33.0716 37.2098" fill="#263169"/>
<path id="Vector_11" d="M43.6721 38.3149C42.9918 38.3149 42.5769 37.9239 42.525 37.4052C42.525 37.4052 42.5131 37.3115 42.5111 37.2397H45.8325C45.8325 36.5634 45.6529 36.0308 45.3038 35.6518C44.9208 35.2289 44.3683 35.0254 43.6441 35.0254C42.9878 35.0254 42.4692 35.2149 42.0941 35.5999C41.7031 35.9789 41.5156 36.4437 41.5156 37.0043C41.5156 37.6307 41.7191 38.1174 42.128 38.4745C42.5111 38.8176 43.0297 38.9912 43.686 38.9912C44.2745 38.9912 44.7593 38.8455 45.1502 38.5623C45.4574 38.3289 45.6609 38.0316 45.7627 37.6805H44.7692C44.6196 38.0556 44.2226 38.3129 43.6701 38.3129M43.6701 35.6996C44.3503 35.6996 44.7652 36.0906 44.8171 36.6093H42.523C42.5769 36.0906 42.9898 35.6996 43.6701 35.6996Z" fill="#263169"/>
<path id="Vector_12" d="M34.9526 43.4148H34.9646L35.6927 41.3242H36.4348V44.1609H35.8662V42.2239H35.8543L35.1521 44.1609H34.7671L34.0649 42.2179H34.0529V44.1609H33.4844V41.3242H34.2304L34.9506 43.4148H34.9526Z" fill="#B2ACAD"/>
<path id="Vector_13" d="M38.4712 43.5485H37.5516L37.3601 44.1609H36.7656L37.7212 41.3242H38.3037L39.2572 44.1609H38.6627L38.4692 43.5485H38.4712ZM37.6912 43.1016H38.3316L38.0184 42.1022H38.0064L37.6912 43.1016Z" fill="#B2ACAD"/>
<path id="Vector_14" d="M41.3326 41.7631H40.5227V44.1609H39.9542V41.7631H39.1562V41.3242H41.3346V41.7631H41.3326Z" fill="#B2ACAD"/>
<path id="Vector_15" d="M43.2683 42.9141H42.217V43.724H43.4677V44.1609H41.6484V41.3242H43.4637V41.7631H42.217V42.4752H43.2683V42.9141Z" fill="#B2ACAD"/>
</g>
</g>
</g>
</g>
</svg>
