<svg width="32" height="115" viewBox="0 0 32 115" fill="none" xmlns="http://www.w3.org/2000/svg">
<path d="M17.1403 39.208H14.8633V39.3405H17.1403V39.208Z" fill="black"/>
<path d="M17.6715 33.0299H17.4389C17.256 32.7483 17.0732 32.4667 16.8904 32.1851C16.8073 32.0526 16.6577 31.9863 16.5081 31.9863H16.4416V33.0299H16.2422V30.6777H16.4416V31.7213H16.5081C16.6577 31.7213 16.8073 31.6385 16.8904 31.5225C17.0732 31.2409 17.256 30.9593 17.4389 30.6777H17.6715C17.4721 30.9925 17.256 31.3072 17.0566 31.6219C16.9901 31.7213 16.907 31.7875 16.8073 31.8538C16.907 31.9035 16.9901 31.9863 17.0566 32.0691C17.256 32.3839 17.4721 32.6986 17.6715 33.0133" fill="black"/>
<path d="M14.6772 31.0422C14.5774 31.1416 14.5276 31.2741 14.5276 31.4066V32.3342C14.5276 32.4667 14.5774 32.5992 14.6772 32.6986C14.7769 32.798 14.9098 32.8477 15.0428 32.8477C15.1758 32.8477 15.3087 32.798 15.4085 32.6986C15.5082 32.5992 15.558 32.4667 15.558 32.3342V31.4066C15.558 31.2741 15.5082 31.1416 15.4085 31.0422C15.3087 30.9428 15.1758 30.8931 15.0428 30.8931C14.9098 30.8931 14.7769 30.9428 14.6772 31.0422ZM15.0428 30.6943C15.4417 30.6943 15.7575 31.0091 15.7575 31.4066V32.3176C15.7575 32.7152 15.4417 33.0299 15.0428 33.0299C14.6439 33.0299 14.3281 32.7152 14.3281 32.3176V31.4066C14.3281 31.0091 14.6439 30.6943 15.0428 30.6943Z" fill="black"/>
<path d="M3.42484 3.49512C3.27525 3.61107 3.14229 3.72702 3.00933 3.84297C2.16168 4.63805 1.67969 5.76442 1.67969 6.92392" stroke="#231815" stroke-width="0.09" stroke-linecap="round" stroke-linejoin="round"/>
<path d="M1.67969 6.92373V108.082C1.67969 109.241 2.16168 110.368 3.00933 111.163C3.52456 111.66 4.07304 111.974 4.75448 112.173C4.92068 112.223 5.10351 112.273 5.28633 112.289C12.5329 113.531 19.4802 113.531 26.7268 112.289C27.4248 112.173 28.0065 111.925 28.5716 111.511C28.7212 111.395 28.8542 111.279 28.9872 111.163C29.8348 110.368 30.3168 109.241 30.3168 108.082V6.92373C30.3168 5.76423 29.8348 4.63786 28.9872 3.84277" stroke="#231815" stroke-width="0.09" stroke-linecap="round" stroke-linejoin="round"/>
<path d="M18.4844 14.3284C18.4844 11.9928 20.3791 10.1045 22.7226 10.1045C25.0661 10.1045 26.9608 11.9928 26.9608 14.3284C26.9608 16.6639 25.0661 18.5523 22.7226 18.5523C20.3791 18.5523 18.4844 16.6639 18.4844 14.3284Z" stroke="#231815" stroke-width="0.09" stroke-linecap="round" stroke-linejoin="round"/>
<path d="M13.5311 14.3281C13.5311 16.6637 11.6364 18.552 9.29291 18.552C6.94942 18.552 5.05469 16.6637 5.05469 14.3281" stroke="#231815" stroke-width="0.09" stroke-linecap="round" stroke-linejoin="round"/>
<path d="M10.293 31.8856C10.293 31.1402 10.4426 30.3948 10.7251 29.7157C11.0077 29.02 11.4398 28.3905 11.955 27.8605C13.0021 26.8004 14.498 26.1875 15.9938 26.1875C17.4896 26.1875 18.9689 26.8004 20.0326 27.8605C21.0963 28.904 21.7112 30.3948 21.7112 31.8856" stroke="#231815" stroke-width="0.09" stroke-linecap="round" stroke-linejoin="round"/>
<path d="M21.7569 31.8865C21.7569 28.9215 19.5131 26.4534 16.5547 26.1553" stroke="#231815" stroke-width="0.09" stroke-linecap="round" stroke-linejoin="round"/>
<path d="M15.4609 26.1388V26.0557" stroke="#231815" stroke-width="0.09" stroke-linecap="round" stroke-linejoin="round"/>
<path d="M16.5547 26.0557V26.1388" stroke="#231815" stroke-width="0.09" stroke-linecap="round" stroke-linejoin="round"/>
<path d="M21.7592 31.8867C21.7592 32.6487 21.6096 33.3941 21.3104 34.1063C21.0279 34.802 20.5958 35.4315 20.0805 35.9615C19.0168 37.0216 17.5043 37.6511 16.0085 37.6511C14.5127 37.6511 13.0002 37.0216 11.9365 35.9615C10.8728 34.9014 10.2578 33.3941 10.2578 31.8867" stroke="#231815" stroke-width="0.09" stroke-linecap="round" stroke-linejoin="round"/>
<path d="M10.3417 32.5162C10.3252 32.3008 10.3086 32.1021 10.3086 31.8867" stroke="#231815" stroke-width="0.09" stroke-linecap="round" stroke-linejoin="round"/>
<path d="M20.4453 57.4121C20.8941 57.1139 21.4093 56.9151 21.9412 56.8158C22.473 56.7164 23.0215 56.7164 23.5533 56.8158C24.6171 57.0311 25.5644 57.6937 26.1628 58.5881C26.7611 59.4826 26.9772 60.6421 26.7611 61.6856C26.545 62.7458 25.8968 63.7065 24.9827 64.3028" stroke="#231815" stroke-width="0.09" stroke-linecap="round" stroke-linejoin="round"/>
<path d="M20.4453 57.4121C20.4453 57.4121 20.4453 57.4121 20.4453 57.4286" stroke="#231815" stroke-width="0.09" stroke-linecap="round" stroke-linejoin="round"/>
<path d="M26.7305 61.7188C26.4978 62.7623 25.8663 63.6899 24.9688 64.2862" stroke="#231815" stroke-width="0.09" stroke-linecap="round" stroke-linejoin="round"/>
<path d="M20.4609 57.4281C23.5357 55.4238 27.4914 58.1403 26.7269 61.7182" stroke="#231815" stroke-width="0.09" stroke-linecap="round" stroke-linejoin="round"/>
<path d="M7.03209 52.9729C6.58334 52.6747 6.18444 52.2938 5.88528 51.8465C5.58611 51.3993 5.37004 50.8858 5.2537 50.3723C5.03763 49.3122 5.2537 48.1693 5.85203 47.2582C6.43375 46.3637 7.41436 45.7012 8.46145 45.4858C9.52516 45.2705 10.672 45.4858 11.5695 46.0822" stroke="#231815" stroke-width="0.09" stroke-linecap="round" stroke-linejoin="round"/>
<path d="M6.13425 6.34473C6.13425 6.69258 5.8517 6.97417 5.50267 6.97417C5.15364 6.97417 4.87109 6.69258 4.87109 6.34473" stroke="#231815" stroke-width="0.09" stroke-linecap="round" stroke-linejoin="round"/>
<path d="M3.34375 31.8866C3.34375 24.8965 9.01134 19.248 16.0086 19.248C23.0058 19.248 28.6734 24.913 28.6734 31.8866" stroke="#231815" stroke-width="0.09" stroke-linecap="round" stroke-linejoin="round"/>
<path d="M13.3165 59.9962C13.0838 58.9526 12.4522 58.025 11.5547 57.4287" stroke="#231815" stroke-width="0.09" stroke-linecap="round" stroke-linejoin="round"/>
<path d="M24.9636 64.2863C21.8888 66.2906 17.9331 63.5741 18.6977 59.9962C18.9303 58.9526 19.5619 58.025 20.4594 57.4287" stroke="#231815" stroke-width="0.09" stroke-linecap="round" stroke-linejoin="round"/>
<path d="M7.04688 64.2862C10.1217 66.2905 14.0773 63.574 13.3128 59.9961" stroke="#231815" stroke-width="0.09" stroke-linecap="round" stroke-linejoin="round"/>
<path d="M7.00038 32.218C6.76769 32.218 6.66797 32.1186 6.66797 31.8867" stroke="#231815" stroke-width="0.09" stroke-linecap="round" stroke-linejoin="round"/>
<path d="M28.491 31.8867C28.491 36.5247 25.9149 40.7983 21.793 42.9351" stroke="#231815" stroke-width="0.09" stroke-linecap="round" stroke-linejoin="round"/>
<path d="M16.321 44.3586C15.2241 44.3918 14.177 44.2758 13.1133 44.0273" stroke="#231815" stroke-width="0.09" stroke-linecap="round" stroke-linejoin="round"/>
<path d="M24.9809 52.9727C23.0695 54.2151 20.51 53.685 19.2634 51.7801C18.0169 49.8752 18.5487 47.3078 20.4601 46.0654" stroke="#231815" stroke-width="0.09" stroke-linecap="round" stroke-linejoin="round"/>
<path d="M24.9688 52.9405C25.8663 52.3442 26.4978 51.4332 26.7305 50.373" stroke="#231815" stroke-width="0.09" stroke-linecap="round" stroke-linejoin="round"/>
<path d="M24.9636 52.9405C21.8888 54.9448 17.9331 52.2283 18.6977 48.6504" stroke="#231815" stroke-width="0.09" stroke-linecap="round" stroke-linejoin="round"/>
<path d="M11.5677 17.7746C11.3351 17.9236 11.1024 18.0562 10.8531 18.1555C10.6038 18.2549 10.3378 18.3378 10.0719 18.3874C9.55666 18.4868 9.00819 18.4868 8.49295 18.3874C7.42924 18.1721 6.46525 17.5261 5.86691 16.6316C5.26857 15.7372 5.05251 14.5942 5.25195 13.5341C5.46802 12.474 6.11622 11.4967 7.03035 10.9004" stroke="#231815" stroke-width="0.09" stroke-linecap="round" stroke-linejoin="round"/>
<path d="M24.9636 10.8997C21.8888 8.89545 17.9331 11.612 18.6977 15.1899" stroke="#231815" stroke-width="0.09" stroke-linecap="round" stroke-linejoin="round"/>
<path d="M7.03516 10.8822C8.94651 9.63992 11.5061 10.17 12.7526 12.0749C13.9991 13.9798 13.4673 16.5307 11.5559 17.7895" stroke="#231815" stroke-width="0.09" stroke-linecap="round" stroke-linejoin="round"/>
<path d="M20.4609 17.7578C20.4609 17.7578 20.4609 17.7578 20.4609 17.7743" stroke="#231815" stroke-width="0.09" stroke-linecap="round" stroke-linejoin="round"/>
<path d="M20.4453 46.0654C20.8941 45.7672 21.4093 45.5685 21.9412 45.4691C22.473 45.3697 23.0215 45.3697 23.5533 45.4691C24.6171 45.6844 25.581 46.347 26.1628 47.2414C26.7611 48.1359 26.9772 49.2954 26.7611 50.3555C26.545 51.4156 25.8968 52.3764 24.9827 52.9727" stroke="#231815" stroke-width="0.09" stroke-linecap="round" stroke-linejoin="round"/>
<path d="M20.4609 46.0826C22.0565 45.0391 24.1673 45.2379 25.5468 46.5464" stroke="#231815" stroke-width="0.09" stroke-linecap="round" stroke-linejoin="round"/>
<path d="M26.7269 50.3889C27.0261 48.9975 26.5773 47.5564 25.5469 46.5625" stroke="#231815" stroke-width="0.09" stroke-linecap="round" stroke-linejoin="round"/>
<path d="M18.6992 15.1895C18.9319 16.233 19.5635 17.1606 20.461 17.7569" stroke="#231815" stroke-width="0.09" stroke-linecap="round" stroke-linejoin="round"/>
<path d="M21.7083 31.8867C21.7083 32.6155 21.5587 33.3278 21.2927 34.0069C21.0268 34.6695 20.6279 35.299 20.1459 35.8125C19.1653 36.856 17.7526 37.502 16.3232 37.5848C14.8772 37.6677 13.4146 37.1707 12.3177 36.2431C11.2207 35.3155 10.4894 33.9573 10.3398 32.5327" stroke="#231815" stroke-width="0.09" stroke-linecap="round" stroke-linejoin="round"/>
<path d="M18.6992 48.6495C18.9319 47.6059 19.5635 46.6783 20.461 46.082" stroke="#231815" stroke-width="0.09" stroke-linecap="round" stroke-linejoin="round"/>
<path d="M13.3165 15.1895C13.0838 16.233 12.4522 17.1606 11.5547 17.7569" stroke="#231815" stroke-width="0.09" stroke-linecap="round" stroke-linejoin="round"/>
<path d="M24.9641 10.9004C25.4128 11.1985 25.8117 11.5795 26.1109 12.0268C26.4101 12.4574 26.6095 12.9544 26.7259 13.4679C26.8422 13.9979 26.8422 14.5445 26.7425 15.0746C26.6428 15.6212 26.4433 16.1347 26.1442 16.5985C25.5624 17.493 24.6151 18.139 23.5846 18.3543C22.5209 18.5862 21.3741 18.3543 20.4766 17.7746" stroke="#231815" stroke-width="0.09" stroke-linecap="round" stroke-linejoin="round"/>
<path d="M11.5559 46.0654C13.4673 47.3078 13.9991 49.8752 12.7526 51.7801C11.5061 53.685 8.92989 54.2151 7.03516 52.9727" stroke="#231815" stroke-width="0.09" stroke-linecap="round" stroke-linejoin="round"/>
<path d="M13.5311 60.8574C13.5311 63.193 11.6364 65.0813 9.29291 65.0813C6.94942 65.0813 5.05469 63.193 5.05469 60.8574" stroke="#231815" stroke-width="0.09" stroke-linecap="round" stroke-linejoin="round"/>
<path d="M18.4844 60.8567C18.4844 58.5211 20.3791 56.6328 22.7226 56.6328C25.0661 56.6328 26.9608 58.5211 26.9608 60.8567" stroke="#231815" stroke-width="0.09" stroke-linecap="round" stroke-linejoin="round"/>
<path d="M11.5559 57.4121C13.4673 58.6544 13.9991 61.2219 12.7526 63.1268C11.5061 65.0317 8.92989 65.5617 7.03516 64.3194" stroke="#231815" stroke-width="0.09" stroke-linecap="round" stroke-linejoin="round"/>
<path d="M11.5547 17.7578C11.5547 17.7578 11.5547 17.7578 11.5547 17.7743" stroke="#231815" stroke-width="0.09" stroke-linecap="round" stroke-linejoin="round"/>
<path d="M11.5511 17.758C11.1024 18.0562 10.5872 18.2549 10.0719 18.3543C9.54007 18.4537 8.99159 18.4537 8.45973 18.3543C7.41264 18.139 6.44865 17.4764 5.86694 16.5819C5.28522 15.6875 5.06915 14.5445 5.28522 13.501C5.50129 12.4574 6.14949 11.4967 7.04699 10.9004" stroke="#231815" stroke-width="0.09" stroke-linecap="round" stroke-linejoin="round"/>
<path d="M5.05469 14.3284C5.05469 11.9928 6.94942 10.1045 9.29291 10.1045C11.6364 10.1045 13.5311 11.9928 13.5311 14.3284" stroke="#231815" stroke-width="0.09" stroke-linecap="round" stroke-linejoin="round"/>
<path d="M5.07031 60.8567C5.07031 58.5211 6.96505 56.6328 9.30854 56.6328C11.652 56.6328 13.5468 58.5211 13.5468 60.8567" stroke="#231815" stroke-width="0.09" stroke-linecap="round" stroke-linejoin="round"/>
<path d="M26.9452 60.8574C26.9452 63.193 25.0505 65.0813 22.707 65.0813C20.3635 65.0813 18.4688 63.193 18.4688 60.8574" stroke="#231815" stroke-width="0.09" stroke-linecap="round" stroke-linejoin="round"/>
<path d="M24.9809 64.3028C23.0695 65.5451 20.51 65.0151 19.2634 63.1102C18.0169 61.2053 18.5487 58.6378 20.4601 57.3955" stroke="#231815" stroke-width="0.09" stroke-linecap="round" stroke-linejoin="round"/>
<path d="M7.04688 10.8997C10.1217 8.89545 14.0773 11.612 13.3128 15.1899" stroke="#231815" stroke-width="0.09" stroke-linecap="round" stroke-linejoin="round"/>
<path d="M7.03236 64.303C6.58361 64.0049 6.18472 63.6239 5.88555 63.1766C5.58638 62.7294 5.37031 62.2325 5.25397 61.7024C5.0379 60.6423 5.25397 59.4994 5.83569 58.6049C6.43403 57.7104 7.39801 57.0479 8.4451 56.8325C9.50882 56.6172 10.6556 56.8325 11.5531 57.4288" stroke="#231815" stroke-width="0.09" stroke-linecap="round" stroke-linejoin="round"/>
<path d="M7.04688 52.9395C7.04688 52.9395 7.04688 52.9395 7.04688 52.956" stroke="#231815" stroke-width="0.09" stroke-linecap="round" stroke-linejoin="round"/>
<path d="M7.04688 52.9405C10.1217 54.9448 14.0773 52.2283 13.3128 48.6504" stroke="#231815" stroke-width="0.09" stroke-linecap="round" stroke-linejoin="round"/>
<path d="M12.1671 43.7633C7.01474 42.1069 3.50781 37.3032 3.50781 31.8867" stroke="#231815" stroke-width="0.09" stroke-linecap="round" stroke-linejoin="round"/>
<path d="M28.6578 31.8867C28.6578 38.8768 22.9902 44.5253 15.9929 44.5253C8.99571 44.5253 3.32812 38.8603 3.32812 31.8867" stroke="#231815" stroke-width="0.09" stroke-linecap="round" stroke-linejoin="round"/>
<path d="M13.3129 48.6494C13.0802 47.6059 12.4487 46.6783 11.5511 46.082C11.1024 45.7838 10.6038 45.5851 10.0719 45.4857C9.54007 45.3863 8.99159 45.3863 8.45973 45.4857C7.41264 45.701 6.44865 46.3636 5.86694 47.258C5.28522 48.1525 5.06915 49.2955 5.28522 50.339C5.50129 51.3826 6.14949 52.3433 7.04699 52.9396" stroke="#231815" stroke-width="0.09" stroke-linecap="round" stroke-linejoin="round"/>
<path d="M4.98438 6.34451C4.98438 6.04635 5.21706 5.81445 5.51623 5.81445C5.8154 5.81445 6.04809 6.04635 6.04809 6.34451C6.04809 6.64267 5.8154 6.87457 5.51623 6.87457C5.21706 6.87457 4.98438 6.64267 4.98438 6.34451Z" stroke="#231815" stroke-width="0.09" stroke-linecap="round" stroke-linejoin="round"/>
<path d="M15.4414 26.1553H15.4579" stroke="#231815" stroke-width="0.09" stroke-linecap="round" stroke-linejoin="round"/>
<path d="M16.5579 26.1391C16.1922 26.106 15.8266 26.106 15.4609 26.1391" stroke="#231815" stroke-width="0.09" stroke-linecap="round" stroke-linejoin="round"/>
<path d="M25.016 31.5566C24.7833 31.5566 24.6836 31.656 24.6836 31.8879" stroke="#231815" stroke-width="0.09" stroke-linecap="round" stroke-linejoin="round"/>
<path d="M25.0156 31.5566C25.2483 31.5566 25.348 31.656 25.348 31.8879" stroke="#231815" stroke-width="0.09" stroke-linecap="round" stroke-linejoin="round"/>
<path d="M25.3484 31.8867C25.3484 32.1186 25.2487 32.218 25.016 32.218C24.7833 32.218 24.6836 32.1186 24.6836 31.8867" stroke="#231815" stroke-width="0.09" stroke-linecap="round" stroke-linejoin="round"/>
<path d="M7.33241 31.8867C7.33241 32.1186 7.23269 32.218 7 32.218" stroke="#231815" stroke-width="0.09" stroke-linecap="round" stroke-linejoin="round"/>
<path d="M15.4609 26.1552C15.6604 26.1386 15.8764 26.1221 16.0759 26.1221" stroke="#231815" stroke-width="0.09" stroke-linecap="round" stroke-linejoin="round"/>
<path d="M7.33241 31.8879C7.33241 31.656 7.23269 31.5566 7 31.5566" stroke="#231815" stroke-width="0.09" stroke-linecap="round" stroke-linejoin="round"/>
<path d="M6.64844 31.8879C6.64844 31.656 6.74816 31.5566 6.98085 31.5566" stroke="#231815" stroke-width="0.09" stroke-linecap="round" stroke-linejoin="round"/>
<path d="M21.8747 31.8872C21.8747 28.6572 19.2487 26.0234 16.0077 26.0234C12.7667 26.0234 10.1406 28.6406 10.1406 31.8872C10.1406 35.1338 12.7667 37.7509 16.0077 37.7509C19.2487 37.7509 21.8747 35.1338 21.8747 31.8872Z" stroke="#231815" stroke-width="0.09" stroke-linecap="round" stroke-linejoin="round"/>
<path d="M16.0742 26.1387C16.2404 26.1387 16.39 26.1387 16.5562 26.1718" stroke="#231815" stroke-width="0.09" stroke-linecap="round" stroke-linejoin="round"/>
<path d="M16.3406 40.8809C16.3406 41.1128 16.2409 41.2121 16.0082 41.2121C15.7755 41.2121 15.6758 41.1128 15.6758 40.8809" stroke="#231815" stroke-width="0.09" stroke-linecap="round" stroke-linejoin="round"/>
<path d="M16.3406 22.8916C16.3406 23.1235 16.2409 23.2229 16.0082 23.2229C15.7755 23.2229 15.6758 23.1235 15.6758 22.8916" stroke="#231815" stroke-width="0.09" stroke-linecap="round" stroke-linejoin="round"/>
<path d="M15.6758 22.8918C15.6758 22.6599 15.7755 22.5605 16.0082 22.5605C16.2409 22.5605 16.3406 22.6599 16.3406 22.8918" stroke="#231815" stroke-width="0.09" stroke-linecap="round" stroke-linejoin="round"/>
<path d="M28.4737 31.8867C28.4737 38.7609 22.8892 44.343 16.0083 44.3265C9.12745 44.3265 3.54297 38.7443 3.54297 31.8701" stroke="#231815" stroke-width="0.09" stroke-linecap="round" stroke-linejoin="round"/>
<path d="M15.6758 40.8801C15.6758 40.6482 15.7755 40.5488 16.0082 40.5488C16.2409 40.5488 16.3406 40.6482 16.3406 40.8801" stroke="#231815" stroke-width="0.09" stroke-linecap="round" stroke-linejoin="round"/>
<path d="M16.5547 26.1553C16.5547 26.1553 16.5547 26.1553 16.5712 26.1553" stroke="#231815" stroke-width="0.09" stroke-linecap="round" stroke-linejoin="round"/>
<path d="M7.61328 30.7109V32.4999C7.61328 32.798 7.86259 33.0465 8.16176 33.0465H9.07588V32.914H8.16176C7.92907 32.914 7.74625 32.7318 7.74625 32.4999V30.7109" fill="black"/>
<path d="M24.0479 31.8207C24.0479 31.8207 24.1643 31.8207 24.2141 31.771C24.397 31.6551 24.4967 31.4232 24.4302 31.2078C24.3637 30.9925 24.1643 30.8434 23.9482 30.8434H23.2502V31.8041H24.0479M24.0479 31.9367H23.2502V33.0465H23.1172V30.6943H23.9482C24.2308 30.6943 24.4801 30.8765 24.5632 31.1581C24.6463 31.4232 24.5299 31.7213 24.2972 31.8704C24.4801 31.9864 24.5964 32.1851 24.5964 32.417V33.0465H24.4634V32.417C24.4634 32.2514 24.3803 32.0857 24.2308 32.0029C24.1809 31.9698 24.1144 31.9532 24.0646 31.9532" fill="black"/>
<path d="M3.52734 31.8204C3.52734 25.6419 8.09798 20.4076 14.2642 19.5463C20.4138 18.6849 26.2808 22.445 28.0093 28.3751" stroke="#231815" stroke-width="0.09" stroke-linecap="round" stroke-linejoin="round"/>
<path d="M3.54297 31.8208C3.54297 24.9797 9.12745 19.4473 16.0083 19.4473C22.8892 19.4473 28.4737 24.9963 28.4737 31.8208" stroke="#231815" stroke-width="0.09" stroke-linecap="round" stroke-linejoin="round"/>
<path d="M15.9436 24.4826H14.8633V24.3501H15.9436V23.2734H16.0766V24.3501H17.1569V24.4826H16.0766V25.5593H15.9436" fill="black"/>
<path d="M4.96875 6.34447C4.96875 6.04632 5.21806 5.79785 5.51723 5.79785C5.81639 5.79785 6.0657 6.04632 6.0657 6.34447C6.0657 6.64263 5.81639 6.89109 5.51723 6.89109C5.21806 6.89109 4.96875 6.64263 4.96875 6.34447Z" stroke="#231815" stroke-width="0.09" stroke-linecap="round" stroke-linejoin="round"/>
<path d="M15.4434 26.1553C12.5016 26.4534 10.2578 28.9215 10.2578 31.87" stroke="#231815" stroke-width="0.09" stroke-linecap="round" stroke-linejoin="round"/>
<path d="M11.5502 57.3955C11.1014 57.0973 10.6028 56.8985 10.0709 56.7991C9.53907 56.6998 8.99059 56.6998 8.47536 56.7991C7.42827 57.0145 6.46428 57.6605 5.88256 58.555C5.30084 59.4494 5.08478 60.5924 5.30084 61.6359C5.51691 62.6795 6.16511 63.6402 7.06262 64.2365" stroke="#231815" stroke-width="0.09" stroke-linecap="round" stroke-linejoin="round"/>
<path d="M4.89062 6.34429C4.89062 5.99644 5.17317 5.71484 5.5222 5.71484C5.87123 5.71484 6.15378 5.99644 6.15378 6.34429" stroke="#231815" stroke-width="0.09" stroke-linecap="round" stroke-linejoin="round"/>
<path d="M5.07031 49.4954C5.07031 47.1598 6.96505 45.2715 9.29192 45.2715C11.6188 45.2715 13.5301 47.1598 13.5301 49.4954" stroke="#231815" stroke-width="0.09" stroke-linecap="round" stroke-linejoin="round"/>
<path d="M26.9452 49.4941C26.9452 51.8297 25.0505 53.718 22.707 53.718C20.3635 53.718 18.4688 51.8297 18.4688 49.4941" stroke="#231815" stroke-width="0.09" stroke-linecap="round" stroke-linejoin="round"/>
<path d="M13.5301 49.4941C13.5301 51.8297 11.6354 53.718 9.29192 53.718C6.94843 53.718 5.07031 51.8297 5.07031 49.4941" stroke="#231815" stroke-width="0.09" stroke-linecap="round" stroke-linejoin="round"/>
<path d="M18.4688 49.4954C18.4688 47.1598 20.3635 45.2715 22.707 45.2715C25.0505 45.2715 26.9286 47.1598 26.9286 49.4954" stroke="#231815" stroke-width="0.09" stroke-linecap="round" stroke-linejoin="round"/>
<path d="M20.4445 17.7739C18.5331 16.5316 18.0013 13.9641 19.2478 12.0592C20.4943 10.1543 23.0539 9.62429 24.9652 10.8666" stroke="#231815" stroke-width="0.09" stroke-linecap="round" stroke-linejoin="round"/>
<path d="M24.9632 10.8828C25.4119 11.181 25.8108 11.5619 26.11 12.0092C26.4092 12.4399 26.6252 12.9368 26.7249 13.4503C26.8413 13.9969 26.8413 14.5601 26.7249 15.1067C26.6252 15.6368 26.4092 16.1503 26.11 16.6141C25.5117 17.5085 24.531 18.1545 23.484 18.3699C22.4369 18.5686 21.3067 18.3699 20.4258 17.7736" stroke="#231815" stroke-width="0.09" stroke-linecap="round" stroke-linejoin="round"/>
<path d="M5.28628 2.66699C4.58822 2.78294 4.0065 3.01484 3.44141 3.42895" stroke="#231815" stroke-width="0.09" stroke-linecap="round" stroke-linejoin="round"/>
<path d="M26.7295 2.66764C19.483 1.45844 12.5356 1.45844 5.28906 2.66764" stroke="#231815" stroke-width="0.09" stroke-linecap="round" stroke-linejoin="round"/>
<path d="M28.9873 3.7605C28.4721 3.28013 27.9236 2.98197 27.2422 2.7832" stroke="#231815" stroke-width="0.09" stroke-linecap="round" stroke-linejoin="round"/>
<path d="M27.2584 2.78294C27.0756 2.73325 26.9094 2.70012 26.7266 2.66699" stroke="#231815" stroke-width="0.09" stroke-linecap="round" stroke-linejoin="round"/>
<path d="M1.00001 107.983V7.02373C1.00001 7.02373 0.966769 3.24708 4.62328 2.07101C4.62328 2.07101 5.4543 1.83911 6.80056 1.65691C6.80056 1.65691 15.8255 0.348329 23.072 1.42501C23.072 1.42501 26.8449 1.95506 26.9114 1.98819C26.9114 1.98819 30.6676 2.41886 31 7.02373V107.983C31 109.391 30.4349 110.733 29.4211 111.71L28.9224 112.124C28.241 112.621 27.5429 112.936 26.7285 113.068C19.482 114.311 12.5346 114.311 5.2881 113.068L4.65652 112.919C3.85873 112.671 3.19392 112.29 2.59558 111.693C2.59558 111.693 1.00001 110.352 1.01663 107.966L1.00001 107.983Z" stroke="#231815" stroke-width="0.8" stroke-linecap="round" stroke-linejoin="round"/>
</svg>
