<svg width="100" height="100" viewBox="0 0 100 100" fill="none" xmlns="http://www.w3.org/2000/svg">
<g id="icon">
<circle id="bg" cx="50" cy="50" r="50" fill="white"/>
<g id="icon_2">
<g id="icon_3">
<path id="Vector" d="M43.4792 30.5908C34.514 33.3671 28 41.7229 28 51.6022C28 63.7499 37.8523 73.6022 50 73.6022C62.1477 73.6022 72 63.7499 72 51.6022C72 41.7229 65.486 33.3671 56.5208 30.5908" stroke="#222222" stroke-width="2" stroke-linecap="round" stroke-linejoin="round"/>
<path id="Vector_2" d="M50 26V36.2111" stroke="#222222" stroke-width="2" stroke-linecap="round" stroke-linejoin="round"/>
<path id="Vector_3" d="M44.3048 53.1466H46.5393V43.3823L42.3682 43.7209V45.4273H44.3048V53.1466Z" fill="#222222"/>
<path id="Vector_4" d="M53.3655 46.8084C53.0337 46.8152 52.729 46.8626 52.4514 46.9439C52.1737 47.0251 51.9435 47.1267 51.7607 47.2553L52.0045 45.251H55.8303V43.5176H50.1898L49.6345 48.9143L51.6388 49.0294C51.7065 48.8331 51.8352 48.6773 52.018 48.5487C52.2008 48.42 52.4378 48.3591 52.7358 48.3591C53.1488 48.3591 53.4468 48.508 53.6364 48.8127C53.8259 49.1175 53.9207 49.5305 53.9207 50.0654C53.9207 50.6004 53.8395 50.9457 53.677 51.1962C53.5145 51.4468 53.2233 51.5754 52.8103 51.5754C52.4581 51.5754 52.1737 51.4806 51.9638 51.2843C51.7539 51.0879 51.6456 50.8238 51.6456 50.4853L49.4585 50.6207V50.6613C49.4246 51.4536 49.7496 52.0901 50.4267 52.5776C51.1039 53.0651 51.9029 53.3021 52.817 53.3021C53.9749 53.3021 54.8213 52.9974 55.3563 52.3812C55.8912 51.765 56.1621 50.9931 56.1621 50.0654C56.1621 49.0227 55.9183 48.2236 55.4375 47.6549C54.9568 47.0861 54.2661 46.8152 53.3723 46.8288L53.3655 46.8084Z" fill="#222222"/>
<path id="Vector_5" d="M42.9714 57.6897C42.6938 57.6897 42.4433 57.7507 42.213 57.8793C41.9828 58.008 41.7932 58.184 41.6375 58.4143V55.5703H40.2832V62.7885H41.6375V59.1253C41.7323 59.0034 41.8541 58.9086 42.0099 58.8409C42.1656 58.7731 42.3417 58.7393 42.5516 58.7393C42.8021 58.7393 42.9917 58.8205 43.1136 58.9831C43.2355 59.1456 43.3032 59.4232 43.3032 59.8092V62.7885H44.6575V59.8159C44.6575 59.0914 44.5085 58.5565 44.2106 58.2044C43.9126 57.8522 43.5063 57.683 42.985 57.683L42.9714 57.6897Z" fill="#222222"/>
<path id="Vector_6" d="M48.0024 57.6895C47.2643 57.6895 46.6888 57.9265 46.269 58.4072C45.8491 58.888 45.646 59.4974 45.646 60.2422V60.337C45.646 61.0887 45.8559 61.7048 46.2757 62.1788C46.6955 62.6528 47.2711 62.8898 48.016 62.8898C48.7608 62.8898 49.3296 62.6528 49.7494 62.1788C50.1692 61.7048 50.3791 61.0887 50.3791 60.337V60.2422C50.3791 59.4906 50.1692 58.8812 49.7494 58.4072C49.3296 57.9332 48.7473 57.6962 48.0092 57.6962L48.0024 57.6895ZM49.0181 60.337C49.0181 60.7907 48.9369 61.1564 48.7743 61.434C48.6118 61.7116 48.3545 61.8538 48.0092 61.8538C47.6638 61.8538 47.393 61.7184 47.2305 61.4408C47.068 61.1631 46.9867 60.7975 46.9867 60.3438V60.249C46.9867 59.8089 47.068 59.4432 47.2305 59.1656C47.393 58.888 47.6503 58.739 47.9956 58.739C48.341 58.739 48.6051 58.8812 48.7676 59.1588C48.9301 59.4365 49.0113 59.8021 49.0113 60.249V60.3438L49.0181 60.337Z" fill="#222222"/>
<path id="Vector_7" d="M54.3809 61.4207C54.2793 61.5561 54.1575 61.6577 54.0017 61.7254C53.846 61.7931 53.6632 61.8269 53.4465 61.8269C53.1959 61.8269 53.0131 61.7457 52.8912 61.5832C52.7693 61.4207 52.7152 61.1227 52.7152 60.6826V57.7709H51.3677V60.6758C51.3677 61.4274 51.5166 61.9827 51.8146 62.3416C52.1125 62.7004 52.5256 62.8765 53.0537 62.8765C53.3652 62.8765 53.6428 62.802 53.8798 62.6598C54.1168 62.5176 54.3132 62.3077 54.4689 62.0369L54.6111 62.7749H55.7284V57.7642H54.3741V61.4071L54.3809 61.4207Z" fill="#222222"/>
<path id="Vector_8" d="M59.5411 57.703C59.4869 57.6895 59.4192 57.6895 59.3515 57.6895C59.1077 57.6895 58.8911 57.7639 58.7082 57.9061C58.5254 58.0483 58.3697 58.2582 58.2546 58.5223L58.1936 57.7843H56.9409V62.795H58.2884V59.4094C58.3561 59.2604 58.4577 59.1385 58.5863 59.0573C58.715 58.976 58.8843 58.9354 59.0807 58.9354L59.575 58.9489L59.7172 57.7504C59.6562 57.7369 59.602 57.7233 59.5411 57.7098V57.703Z" fill="#222222"/>
</g>
</g>
</g>
</svg>
