<svg width="56" height="56" viewBox="0 0 56 56" fill="none" xmlns="http://www.w3.org/2000/svg">
<g id="Group 2551">
<path id="Vector" d="M41.138 14.9881C41.2559 14.9968 41.3209 15.0036 41.3209 15.0036V14.9881H43V5.09588H41.3209C41.3209 5.09588 31.0446 3.70037 23.5853 11.5574V5.09588H14V50.8143H23.5853V44.6021C31.631 52.2542 42.8699 50.909 42.8699 50.909V48.5306C32.3975 48.9481 26.5164 44.0213 23.5853 40.2861L23.3552 39.9865C21.778 37.9019 21.1397 36.2581 21.1397 36.2581V41.8391V48.3074H16.4456V7.60277H21.1406V20.5364C21.1406 20.5364 25.649 7.3515 40.5554 7.57958V12.0628C22.7717 12.6223 23.9115 28.0387 23.9115 28.0387C24.759 45.3076 41.3209 43.7961 41.3209 43.7961H43V33.9039H39.4787C33.6589 33.4361 33.6589 27.9382 33.6589 27.9382C34.0992 22.0063 39.2826 22.332 39.2826 22.332H42.869V19.2819H39.0384C30.6269 19.8831 30.9691 28.2551 30.9691 28.2551C30.972 28.3238 30.9757 28.3904 30.9795 28.4581C31.3887 35.5526 37.1604 36.5267 40.5544 36.4803V41.1365C25.831 40.835 26.6493 28.0387 26.6493 28.0387C27.626 15.5893 37.678 14.9021 40.5544 14.962V14.9881H41.138Z" fill="#010101"/>
</g>
</svg>
