<svg width="92" height="70" viewBox="0 0 92 70" fill="none" xmlns="http://www.w3.org/2000/svg">
<g clip-path="url(#clip0_110_13112)">
<path d="M1.44177 31.3437L1.42578 34.2012L1.68171 34.2026L1.6977 31.3452L1.44177 31.3437Z" fill="#FFF200" stroke="#FFF200" stroke-width="0.15"/>
<path d="M16.4165 31.2891H16.1605L16.1445 34.1625H16.4005L16.4165 33.1568L16.8963 32.6619L18.032 34.1625H18.3679L17.0723 32.4863L18.24 31.305H17.9041L16.4165 32.8216V31.2891Z" fill="#FFF200" stroke="#FFF200" stroke-width="0.15"/>
<path d="M21.1191 33.9546L19.4395 33.9387L19.4555 32.8212H20.9271V32.5977L19.4555 32.5818V31.5441L21.0711 31.5601V31.3207L19.1996 31.3047L19.1836 34.1781H21.1191V33.9546Z" fill="#FFF200" stroke="#FFF200" stroke-width="0.15"/>
<path d="M22.9271 34.1937L22.9431 31.5598H23.8388V31.3363L21.7754 31.3203V31.5598H22.6712L22.6552 34.1937H22.9271Z" fill="#FFF200" stroke="#FFF200" stroke-width="0.15"/>
<path d="M24.6195 31.3379L24.6055 34.1953L24.8614 34.1966L24.8754 31.3391L24.6195 31.3379Z" fill="#FFF200" stroke="#FFF200" stroke-width="0.15"/>
<path d="M41.2098 34.1625H41.5457L40.25 32.4863L41.4177 31.305H41.0818L39.5942 32.8216V31.2891H39.3383L39.3223 34.1625H39.5782L39.5942 33.1568L40.0741 32.6619L41.2098 34.1625Z" fill="#FFF200" stroke="#FFF200" stroke-width="0.15"/>
<path d="M44.2968 33.9546L42.6173 33.9387L42.6333 32.8212H44.1049V32.5977L42.6333 32.5818V31.5441L44.2488 31.5601L44.2648 31.3207L42.3773 31.3047L42.3613 34.1781H44.2968V33.9546Z" fill="#FFF200" stroke="#FFF200" stroke-width="0.15"/>
<path d="M46.1048 34.1937L46.1208 31.5598H47.0166V31.3363L44.9691 31.3203L44.9531 31.5598H45.8489V34.1937H46.1048Z" fill="#FFF200" stroke="#FFF200" stroke-width="0.15"/>
<path d="M47.7991 31.3379L47.7852 34.1953L48.0411 34.1966L48.0551 31.3391L47.7991 31.3379Z" fill="#FFF200" stroke="#FFF200" stroke-width="0.15"/>
<path d="M64.4035 34.1625H64.7234L63.4278 32.4863L64.5954 31.305H64.2595L62.7719 32.8216V31.2891H62.516L62.5 34.1625H62.7559L62.7719 33.1568L63.2518 32.6619L64.4035 34.1625Z" fill="#FFF200" stroke="#FFF200" stroke-width="0.15"/>
<path d="M67.4745 33.9546L65.811 33.9387V32.8212H67.2826V32.5977L65.811 32.5818V31.5441L67.4426 31.5601V31.3207L65.5551 31.3047L65.5391 34.1781H67.4745V33.9546Z" fill="#FFF200" stroke="#FFF200" stroke-width="0.15"/>
<path d="M69.2826 34.1937L69.2986 31.5598H70.1943V31.3363L68.1469 31.3203L68.1309 31.5598H69.0266V34.1937H69.2826Z" fill="#FFF200" stroke="#FFF200" stroke-width="0.15"/>
<path d="M70.9769 31.3379L70.9629 34.1953L71.2188 34.1966L71.2328 31.3391L70.9769 31.3379Z" fill="#FFF200" stroke="#FFF200" stroke-width="0.15"/>
<path d="M85.9497 33.1568L86.4295 32.6619L87.5812 34.1625H87.9011L86.6055 32.4863L87.7732 31.305H87.4373L85.9497 32.8216V31.2891H85.6937L85.6777 34.1625H85.9337L85.9497 33.1568Z" fill="#FFF200" stroke="#FFF200" stroke-width="0.15"/>
<path d="M90.6523 33.9546L88.9887 33.9387V32.8212H90.4603V32.5977L88.9887 32.5818V31.5441L90.6203 31.5601V31.3207L88.7328 31.3047L88.7168 34.1781H90.6523V33.9546Z" fill="#FFF200" stroke="#FFF200" stroke-width="0.15"/>
<path d="M4.27578 38.7602L2.99611 37.068L4.16381 35.8867H3.8119L2.32429 37.4033L2.34029 35.8867H2.08436L2.06836 38.7442H2.32429V37.7385L2.80417 37.2596L3.95586 38.7602H4.27578Z" fill="#FFF200" stroke="#FFF200" stroke-width="0.15"/>
<path d="M5.36335 37.4029L6.85096 37.4189V37.1794H5.36335L5.37935 36.1418H6.99492V35.9023H5.10742V38.7598L7.02692 38.7758V38.5363H5.36335V37.4029Z" fill="#FFF200" stroke="#FFF200" stroke-width="0.15"/>
<path d="M7.69922 36.1418L8.59498 36.1578L8.57899 38.7758H8.85091V36.1578H9.74668L9.76267 35.9183L7.69922 35.9023V36.1418Z" fill="#FFF200" stroke="#FFF200" stroke-width="0.15"/>
<path d="M10.5374 35.9258L10.5234 38.7832L10.7794 38.7845L10.7934 35.927L10.5374 35.9258Z" fill="#FFF200" stroke="#FFF200" stroke-width="0.15"/>
<path d="M27.1336 38.7602H27.4535L26.1738 37.068L27.3415 35.8867H26.9896L25.502 37.4033L25.518 35.8867H25.2621L25.2461 38.7442H25.502V37.7385L25.9819 37.2596L27.1336 38.7602Z" fill="#FFF200" stroke="#FFF200" stroke-width="0.15"/>
<path d="M30.2206 38.5363H28.5411V37.4029L30.0287 37.4189V37.1794H28.5411L28.5571 36.1418H30.1727V35.9023H28.3011L28.2852 38.7598L30.2206 38.7758V38.5363Z" fill="#FFF200" stroke="#FFF200" stroke-width="0.15"/>
<path d="M32.0286 38.7758V36.1578H32.9404V35.9183L30.877 35.9023V36.1418L31.7727 36.1578L31.7567 38.7758H32.0286Z" fill="#FFF200" stroke="#FFF200" stroke-width="0.15"/>
<path d="M33.7171 35.9258L33.7031 38.7832L33.9591 38.7845L33.973 35.927L33.7171 35.9258Z" fill="#FFF200" stroke="#FFF200" stroke-width="0.15"/>
<path d="M48.4398 35.8867L48.4238 38.7442H48.6798V37.7385L49.1596 37.2596L50.3113 38.7602H50.6312L49.3516 37.068L50.5193 35.8867H50.1834L48.6958 37.4033V35.8867H48.4398Z" fill="#FFF200" stroke="#FFF200" stroke-width="0.15"/>
<path d="M53.3984 38.5363H51.7188L51.7348 37.4029L53.2064 37.4189V37.1794H51.7348V36.1418H53.3504V35.9023H51.4789L51.4629 38.7598L53.3984 38.7758V38.5363Z" fill="#FFF200" stroke="#FFF200" stroke-width="0.15"/>
<path d="M55.2064 38.7758V36.1578H56.1181V35.9183L54.0547 35.9023V36.1418L54.9505 36.1578L54.9345 38.7758H55.2064Z" fill="#FFF200" stroke="#FFF200" stroke-width="0.15"/>
<path d="M56.8968 35.9258L56.8828 38.7832L57.1387 38.7845L57.1527 35.927L56.8968 35.9258Z" fill="#FFF200" stroke="#FFF200" stroke-width="0.15"/>
<path d="M73.4891 38.7602H73.809L72.5293 37.068L73.697 35.8867H73.3611L71.8735 37.4033V35.8867H71.6176L71.6016 38.7442H71.8575L71.8735 37.7385L72.3374 37.2596L73.4891 38.7602Z" fill="#FFF200" stroke="#FFF200" stroke-width="0.15"/>
<path d="M74.9126 37.4029L76.3842 37.4189V37.1794H74.9126V36.1418H76.5281V35.9023H74.6566L74.6406 38.7598L76.5761 38.7758V38.5363H74.8966L74.9126 37.4029Z" fill="#FFF200" stroke="#FFF200" stroke-width="0.15"/>
<path d="M77.2324 36.1418L78.1282 36.1578L78.1122 38.7758H78.3841L78.4001 36.1578H79.2959V35.9183L77.2324 35.9023V36.1418Z" fill="#FFF200" stroke="#FFF200" stroke-width="0.15"/>
<path d="M80.0765 35.9258L80.0625 38.7832L80.3184 38.7845L80.3324 35.927L80.0765 35.9258Z" fill="#FFF200" stroke="#FFF200" stroke-width="0.15"/>
<path d="M4.03624 25.016H4.29217V22.382H5.18794V22.1426H3.78031C3.78031 22.1426 3.70033 22.2863 3.65234 22.3661H4.02025V25L4.03624 25.016Z" fill="#FFF200" stroke="#FFF200" stroke-width="0.15"/>
<path d="M5.98233 22.1582L5.96484 25.0156L6.22077 25.0172L6.23826 22.1598L5.98233 22.1582Z" fill="#FFF200" stroke="#FFF200" stroke-width="0.15"/>
<path d="M22.591 24.9828H22.9109L21.6153 23.3066L22.7829 22.1253H22.447L20.9594 23.6419V22.1094H20.7035L20.6875 24.9828H20.9434L20.9594 23.9771L21.4393 23.4822L22.591 24.9828Z" fill="#FFF200" stroke="#FFF200" stroke-width="0.15"/>
<path d="M25.6301 22.3804V22.141L23.7426 22.125L23.7266 24.9984H25.6621V24.7749L23.9985 24.759V23.6415H25.4701V23.418L23.9985 23.4021V22.3645L25.6301 22.3804Z" fill="#FFF200" stroke="#FFF200" stroke-width="0.15"/>
<path d="M26.334 22.382H27.2138V25.016H27.4697L27.4857 22.382H28.3814V22.1585L26.334 22.1426V22.382Z" fill="#FFF200" stroke="#FFF200" stroke-width="0.15"/>
<path d="M29.1683 22.1601L29.1543 25.0176L29.4102 25.0188L29.4242 22.1614L29.1683 22.1601Z" fill="#FFF200" stroke="#FFF200" stroke-width="0.15"/>
<path d="M45.7687 24.9828H46.0886L44.793 23.3066L45.9607 22.1253H45.6248L44.1372 23.6419V22.1094H43.8812L43.8652 24.9828H44.1372V23.9771L44.617 23.4822L45.7687 24.9828Z" fill="#FFF200" stroke="#FFF200" stroke-width="0.15"/>
<path d="M46.9043 24.9984H48.8398V24.7749L47.1762 24.759V23.6415H48.6478L48.6638 23.418L47.1762 23.4021V22.3645L48.8078 22.3804V22.141L46.9203 22.125L46.9043 24.9984Z" fill="#FFF200" stroke="#FFF200" stroke-width="0.15"/>
<path d="M49.5117 22.382H50.4075L50.3915 25.016H50.6474L50.6634 22.382H51.5592V22.1585L49.5117 22.1426V22.382Z" fill="#FFF200" stroke="#FFF200" stroke-width="0.15"/>
<path d="M52.3324 22.1621L52.3184 25.0195L52.5743 25.0208L52.5883 22.1633L52.3324 22.1621Z" fill="#FFF200" stroke="#FFF200" stroke-width="0.15"/>
<path d="M68.9465 24.9828H69.2664L67.9707 23.3066L69.1384 22.1253H68.8025L67.3149 23.6419L67.3309 22.1094H67.059L67.043 24.9828H67.3149V23.9771L67.7948 23.4822L68.9465 24.9828Z" fill="#FFF200" stroke="#FFF200" stroke-width="0.15"/>
<path d="M71.9855 22.3804V22.141L70.098 22.125L70.082 24.9984H72.0175V24.7749L70.354 24.759V23.6415H71.8416V23.418L70.354 23.4021V22.3645L71.9855 22.3804Z" fill="#FFF200" stroke="#FFF200" stroke-width="0.15"/>
<path d="M73.8411 22.382H74.7369V22.1585L72.6895 22.1426V22.382H73.5852L73.5692 25.016H73.8252L73.8411 22.382Z" fill="#FFF200" stroke="#FFF200" stroke-width="0.15"/>
<path d="M75.5101 22.1621L75.4961 25.0195L75.752 25.0208L75.766 22.1633L75.5101 22.1621Z" fill="#FFF200" stroke="#FFF200" stroke-width="0.15"/>
<path d="M6.86726 28.5588L7.34713 28.0799L8.49883 29.5805H8.81875L7.53908 27.8883L8.70678 26.707H8.37086L6.88326 28.2236V26.707H6.62732L6.61133 29.5645H6.86726V28.5588Z" fill="#FFF200" stroke="#FFF200" stroke-width="0.15"/>
<path d="M11.5859 29.3566H9.90632L9.92232 28.2232L11.3939 28.2392V27.9997H9.92232V26.9621H11.5379V26.7227H9.66639L9.65039 29.5801L11.5859 29.5961V29.3566Z" fill="#FFF200" stroke="#FFF200" stroke-width="0.15"/>
<path d="M13.3939 29.5961L13.4099 26.9781H14.3056V26.7386L12.2422 26.7227V26.9621L13.138 26.9781L13.122 29.5961H13.3939Z" fill="#FFF200" stroke="#FFF200" stroke-width="0.15"/>
<path d="M15.0863 26.748L15.0723 29.6055L15.3282 29.6067L15.3422 26.7493L15.0863 26.748Z" fill="#FFF200" stroke="#FFF200" stroke-width="0.15"/>
<path d="M31.6766 29.5805H32.0125L30.7168 27.8883L31.8845 26.707H31.5486L30.061 28.2236V26.707H29.8051L29.7891 29.5645H30.045L30.061 28.5588L30.5249 28.0799L31.6766 29.5805Z" fill="#FFF200" stroke="#FFF200" stroke-width="0.15"/>
<path d="M34.7636 29.3566H33.0841L33.1001 28.2232L34.5717 28.2392V27.9997H33.1001V26.9621H34.7156V26.7227H32.8441L32.8281 29.5801L34.7636 29.5961V29.3566Z" fill="#FFF200" stroke="#FFF200" stroke-width="0.15"/>
<path d="M37.4834 26.7386L35.4199 26.7227V26.9621L36.3157 26.9781L36.2997 29.5961H36.5716L36.5876 26.9781H37.4834V26.7386Z" fill="#FFF200" stroke="#FFF200" stroke-width="0.15"/>
<path d="M38.2659 26.75L38.252 29.6074L38.5079 29.6087L38.5219 26.7512L38.2659 26.75Z" fill="#FFF200" stroke="#FFF200" stroke-width="0.15"/>
<path d="M54.8543 29.5805H55.1902L53.8946 27.8883L55.0622 26.707H54.7263L53.2387 28.2236V26.707H52.9828L52.9668 29.5645H53.2227L53.2387 28.5588L53.7186 28.0799L54.8543 29.5805Z" fill="#FFF200" stroke="#FFF200" stroke-width="0.15"/>
<path d="M57.9413 29.3566H56.2618L56.2778 28.2232L57.7494 28.2392V27.9997H56.2778V26.9621H57.8934V26.7227H56.0219L56.0059 29.5801L57.9413 29.5961V29.3566Z" fill="#FFF200" stroke="#FFF200" stroke-width="0.15"/>
<path d="M60.6611 26.7386L58.5977 26.7227V26.9621L59.4934 26.9781L59.4774 29.5961H59.7494L59.7653 26.9781H60.6611V26.7386Z" fill="#FFF200" stroke="#FFF200" stroke-width="0.15"/>
<path d="M61.4456 26.75L61.4316 29.6074L61.6876 29.6087L61.7016 26.7512L61.4456 26.75Z" fill="#FFF200" stroke="#FFF200" stroke-width="0.15"/>
<path d="M76.1605 26.707L76.1445 29.5645H76.4005L76.4165 28.5588L76.8963 28.0799L78.032 29.5805H78.3679L77.0723 27.8883L78.24 26.707H77.9041L76.4165 28.2236V26.707H76.1605Z" fill="#FFF200" stroke="#FFF200" stroke-width="0.15"/>
<path d="M81.1191 29.3566H79.4395L79.4555 28.2232L80.9271 28.2392V27.9997H79.4555V26.9621H81.0711L81.0871 26.7227H79.1996L79.1836 29.5801L81.1191 29.5961V29.3566Z" fill="#FFF200" stroke="#FFF200" stroke-width="0.15"/>
<path d="M82.9271 29.5961L82.9431 26.9781H83.8388V26.7386L81.7914 26.7227L81.7754 26.9621L82.6712 26.9781V29.5961H82.9271Z" fill="#FFF200" stroke="#FFF200" stroke-width="0.15"/>
<path d="M84.6327 26.752L84.6152 29.6094L84.8712 29.6109L84.8886 26.7535L84.6327 26.752Z" fill="#FFF200" stroke="#FFF200" stroke-width="0.15"/>
<path d="M9.18562 15.7402V14.6387C9.10564 14.7345 9.00967 14.8302 8.92969 14.926V15.7402H9.18562Z" fill="#FFF200" stroke="#FFF200" stroke-width="0.15"/>
<path d="M10.8809 12.8828V12.9467C10.8809 12.9467 10.9288 12.8988 10.9448 12.8828H10.8809Z" fill="#FFF200" stroke="#FFF200" stroke-width="0.15"/>
<path d="M11.1384 15.7562V12.8828H10.9624C10.9464 12.8988 10.9144 12.9307 10.8984 12.9467V15.7403H11.1384V15.7562Z" fill="#FFF200" stroke="#FFF200" stroke-width="0.15"/>
<path d="M25.854 14.7033L26.3338 14.2244L27.4855 15.725H27.8054L26.5098 14.0329L27.6775 12.8516H27.3416L25.854 14.3681L25.87 12.8516H25.598L25.582 15.709H25.854V14.7033Z" fill="#FFF200" stroke="#FFF200" stroke-width="0.15"/>
<path d="M30.5566 15.5012H28.893V14.3678L30.3806 14.3837V14.1443H28.893V13.1066H30.5246V12.8672H28.6371L28.6211 15.7247L30.5566 15.7406V15.5012Z" fill="#FFF200" stroke="#FFF200" stroke-width="0.15"/>
<path d="M32.3642 15.7406L32.3802 13.1226H33.276V12.8831L31.2285 12.8672V13.1066L32.1243 13.1226L32.1083 15.7406H32.3642Z" fill="#FFF200" stroke="#FFF200" stroke-width="0.15"/>
<path d="M34.0706 12.9043L34.0566 15.7617L34.3126 15.763L34.3266 12.9055L34.0706 12.9043Z" fill="#FFF200" stroke="#FFF200" stroke-width="0.15"/>
<path d="M49.0317 14.7033L49.5116 14.2244L50.6633 15.725H50.9832L49.6875 14.0329L50.8552 12.8516H50.5193L49.0317 14.3681L49.0477 12.8516H48.7758L48.7598 15.709H49.0317V14.7033Z" fill="#FFF200" stroke="#FFF200" stroke-width="0.15"/>
<path d="M53.7343 15.5012H52.0708V14.3678L53.5584 14.3837V14.1443H52.0708V13.1066H53.7023V12.8672H51.8148L51.7988 15.7247L53.7343 15.7406V15.5012Z" fill="#FFF200" stroke="#FFF200" stroke-width="0.15"/>
<path d="M55.5419 15.7406L55.5579 13.1226H56.4537V12.8831L54.4062 12.8672V13.1066L55.302 13.1226L55.286 15.7406H55.5419Z" fill="#FFF200" stroke="#FFF200" stroke-width="0.15"/>
<path d="M57.2503 12.9043L57.2363 15.7617L57.4923 15.763L57.5063 12.9055L57.2503 12.9043Z" fill="#FFF200" stroke="#FFF200" stroke-width="0.15"/>
<path d="M72.2094 14.7033L72.6893 14.2244L73.841 15.725H74.1609L72.8653 14.0329L74.0329 12.8516H73.697L72.2094 14.3681L72.2254 12.8516H71.9535L71.9375 15.709H72.2094V14.7033Z" fill="#FFF200" stroke="#FFF200" stroke-width="0.15"/>
<path d="M76.9121 15.5012H75.2485V14.3678L76.7361 14.3837V14.1443H75.2485L75.2645 13.1066H76.8801V12.8672H74.9926L74.9766 15.7247L76.9121 15.7406V15.5012Z" fill="#FFF200" stroke="#FFF200" stroke-width="0.15"/>
<path d="M78.4638 15.7406H78.7197L78.7357 13.1226H79.6315V12.8831L77.584 12.8672V13.1066L78.4798 13.1226L78.4638 15.7406Z" fill="#FFF200" stroke="#FFF200" stroke-width="0.15"/>
<path d="M80.4237 12.8965L80.4082 15.7539L80.6641 15.7553L80.6796 12.8979L80.4237 12.8965Z" fill="#FFF200" stroke="#FFF200" stroke-width="0.15"/>
<path d="M11.7778 19.3013L12.2577 18.8065L13.3934 20.307H13.7293L12.4336 18.6309L13.6013 17.4496H13.2654L11.7778 18.9661V17.4336H11.5219L11.5059 20.307H11.7618L11.7778 19.3013Z" fill="#FFF200" stroke="#FFF200" stroke-width="0.15"/>
<path d="M16.4804 20.0992L14.8009 20.0832L14.8169 18.9658H16.2885V18.7423L14.8169 18.7263V17.6887L16.4324 17.7046V17.4652L14.5609 17.4492L14.5449 20.3227H16.4804V20.0992Z" fill="#FFF200" stroke="#FFF200" stroke-width="0.15"/>
<path d="M18.0165 20.3383H18.2884L18.3044 17.7043H19.2002V17.4808L17.1367 17.4648V17.7043H18.0325L18.0165 20.3383Z" fill="#FFF200" stroke="#FFF200" stroke-width="0.15"/>
<path d="M19.973 17.4765L19.959 20.334L20.2149 20.3352L20.2289 17.4778L19.973 17.4765Z" fill="#FFF200" stroke="#FFF200" stroke-width="0.15"/>
<path d="M34.6996 17.4336L34.6836 20.307H34.9395L34.9555 19.3013L35.4354 18.8065L36.5711 20.307H36.907L35.6114 18.6309L36.779 17.4496H36.4431L34.9555 18.9661V17.4336H34.6996Z" fill="#FFF200" stroke="#FFF200" stroke-width="0.15"/>
<path d="M39.6102 17.7046L39.6261 17.4652L37.7387 17.4492L37.7227 20.3227H39.6581V20.0992L37.9786 20.0832L37.9946 18.9658H39.4662V18.7423L37.9946 18.7263V17.6887L39.6102 17.7046Z" fill="#FFF200" stroke="#FFF200" stroke-width="0.15"/>
<path d="M41.4661 20.3383L41.4821 17.7043H42.3779V17.4808L40.3304 17.4648L40.3145 17.7043H41.2102V20.3383H41.4661Z" fill="#FFF200" stroke="#FFF200" stroke-width="0.15"/>
<path d="M43.1527 17.4922L43.1387 20.3496L43.3946 20.3509L43.4086 17.4934L43.1527 17.4922Z" fill="#FFF200" stroke="#FFF200" stroke-width="0.15"/>
<path d="M57.8773 17.4336L57.8613 20.307H58.1173L58.1333 19.3013L58.6131 18.8065L59.7488 20.307H60.0847L58.7891 18.6309L59.9568 17.4496H59.6209L58.1333 18.9661V17.4336H57.8773Z" fill="#FFF200" stroke="#FFF200" stroke-width="0.15"/>
<path d="M62.8039 17.7046V17.4652L60.9164 17.4492L60.9004 20.3227H62.8359V20.0992L61.1563 20.0832L61.1723 18.9658H62.6439V18.7423L61.1723 18.7263V17.6887L62.8039 17.7046Z" fill="#FFF200" stroke="#FFF200" stroke-width="0.15"/>
<path d="M64.6435 20.3383L64.6595 17.7043H65.5553V17.4808L63.5078 17.4648V17.7043H64.3876V20.3383H64.6435Z" fill="#FFF200" stroke="#FFF200" stroke-width="0.15"/>
<path d="M66.3324 17.4941L66.3184 20.3516L66.5743 20.3528L66.5883 17.4954L66.3324 17.4941Z" fill="#FFF200" stroke="#FFF200" stroke-width="0.15"/>
<path d="M81.311 19.3013L81.7909 18.8065L82.9426 20.307H83.2625L81.9668 18.6309L83.1345 17.4496H82.7986L81.311 18.9661V17.4336H81.0551L81.0391 20.307H81.311V19.3013Z" fill="#FFF200" stroke="#FFF200" stroke-width="0.15"/>
<path d="M85.9826 17.7043V17.4648H85.2148C85.2788 17.5447 85.3268 17.6245 85.3908 17.7043H85.9666H85.9826Z" fill="#FFF200" stroke="#FFF200" stroke-width="0.15"/>
<path d="M84.0781 20.3227H86.0136V20.0992H84.3501V18.9658H85.8377V18.7423H84.3501V17.6887H85.3898C85.3898 17.6887 85.2778 17.529 85.2138 17.4492H84.0941V20.3067L84.0781 20.3227Z" fill="#FFF200" stroke="#FFF200" stroke-width="0.15"/>
<path d="M30.3969 5.38106L30.8768 4.90216L32.0285 6.40273H32.3484L31.0528 4.72656L32.2204 3.54526H31.8845L30.3969 5.04583L30.4129 3.5293H30.141L30.125 6.40273H30.3969V5.38106Z" fill="#FFF200" stroke="#FFF200" stroke-width="0.15"/>
<path d="M35.0996 6.1789H33.436V5.06146H34.9236V4.822H33.436L33.452 3.78437H35.0676V3.56089L33.1801 3.54492L33.1641 6.40239L35.0996 6.41835V6.1789Z" fill="#FFF200" stroke="#FFF200" stroke-width="0.15"/>
<path d="M36.6513 6.43398H36.9072L36.9232 3.8H37.8189V3.56055H35.7715V3.8H36.6673L36.6513 6.43398Z" fill="#FFF200" stroke="#FFF200" stroke-width="0.15"/>
<path d="M38.8735 3.57617H38.6176L38.6016 6.43364H38.8575L38.8735 3.57617Z" fill="#FFF200" stroke="#FFF200" stroke-width="0.15"/>
<path d="M53.5743 5.38106L54.0542 4.90216L55.2059 6.40273H55.5258L54.2301 4.72656L55.4138 3.54526H55.0619L53.5743 5.04583L53.5903 3.5293H53.3184V6.40273H53.5743V5.38106Z" fill="#FFF200" stroke="#FFF200" stroke-width="0.15"/>
<path d="M58.2773 6.1789H56.6137V5.06146H58.1013V4.822H56.6137L56.6297 3.78437H58.2453V3.56089L56.3578 3.54492L56.3418 6.40239L58.2773 6.41835V6.1789Z" fill="#FFF200" stroke="#FFF200" stroke-width="0.15"/>
<path d="M59.829 6.43398H60.0849L60.1009 3.8H60.9967V3.56055H58.9492V3.8H59.845L59.829 6.43398Z" fill="#FFF200" stroke="#FFF200" stroke-width="0.15"/>
<path d="M62.0532 3.57617H61.7972L61.7812 6.43364H62.0372L62.0532 3.57617Z" fill="#FFF200" stroke="#FFF200" stroke-width="0.15"/>
<path d="M16.3204 8.125H16.0645V8.87529C16.1444 8.81143 16.2404 8.76354 16.3204 8.69969V8.125Z" fill="#FFF200" stroke="#FFF200" stroke-width="0.15"/>
<path d="M16.3048 10.9841V9.97838L16.7846 9.49948L17.9363 11H18.2562L16.9606 9.32388L18.1283 8.14258H17.7924L16.3048 9.65911V8.71726C16.2248 8.78112 16.1288 8.82901 16.0488 8.89286V11H16.3048V10.9841Z" fill="#FFF200" stroke="#FFF200" stroke-width="0.15"/>
<path d="M21.0234 10.7766L19.3438 10.7606L19.3598 9.64315L20.8314 9.65911V9.41966L19.3598 9.4037V8.36607L20.9914 8.38203V8.14258H19.1039L19.0879 11L21.0234 11.016V10.7766Z" fill="#FFF200" stroke="#FFF200" stroke-width="0.15"/>
<path d="M22.5751 11.016H22.831L22.847 8.39799H23.7428V8.15854L21.6953 8.14258V8.38203H22.5751V11.016Z" fill="#FFF200" stroke="#FFF200" stroke-width="0.15"/>
<path d="M24.7977 8.1582H24.5258L24.5098 11.0316H24.7817L24.7977 8.1582Z" fill="#FFF200" stroke="#FFF200" stroke-width="0.15"/>
<path d="M39.4985 9.97677L39.9784 9.49786L41.1301 10.9984H41.45L40.1543 9.3063L41.322 8.125H40.9861L39.4985 9.64153V8.125H39.2426L39.2266 10.9825H39.4985V9.97677Z" fill="#FFF200" stroke="#FFF200" stroke-width="0.15"/>
<path d="M44.2011 10.7766L42.5376 10.7606V9.64315L44.0092 9.65911L44.0252 9.41966L42.5376 9.4037V8.36607L44.1691 8.38203V8.14258H42.2816L42.2656 11L44.2011 11.016V10.7766Z" fill="#FFF200" stroke="#FFF200" stroke-width="0.15"/>
<path d="M45.7528 11.016H46.0087L46.0247 8.39799H46.9205V8.15854L44.873 8.14258V8.38203H45.7688L45.7528 11.016Z" fill="#FFF200" stroke="#FFF200" stroke-width="0.15"/>
<path d="M47.9754 8.1582H47.7035L47.6875 11.0316H47.9594L47.9754 8.1582Z" fill="#FFF200" stroke="#FFF200" stroke-width="0.15"/>
<path d="M62.6762 9.97677L63.1561 9.49786L64.3078 10.9984H64.6277L63.3321 9.3063L64.4997 8.125H64.1638L62.6762 9.64153V8.125H62.4203L62.4043 10.9825H62.6762V9.97677Z" fill="#FFF200" stroke="#FFF200" stroke-width="0.15"/>
<path d="M67.3789 10.7766L65.7153 10.7606V9.64315L67.2029 9.65911V9.41966L65.7153 9.4037V8.36607L67.3469 8.38203V8.14258H65.4594L65.4434 11L67.3789 11.016V10.7766Z" fill="#FFF200" stroke="#FFF200" stroke-width="0.15"/>
<path d="M68.9305 11.016H69.1865L69.2025 8.39799H70.0982V8.15854L68.0508 8.14258V8.38203H68.9465L68.9305 11.016Z" fill="#FFF200" stroke="#FFF200" stroke-width="0.15"/>
<path d="M71.1532 8.1582H70.8812L70.8652 11.0316H71.1372L71.1532 8.1582Z" fill="#FFF200" stroke="#FFF200" stroke-width="0.15"/>
<path d="M44.0407 1.64401V0.638307L44.3926 0.287109C44.2807 0.287109 44.1687 0.287109 44.0567 0.287109C43.9767 0.287109 43.8808 0.287109 43.8008 0.287109V1.64401H44.0567H44.0407Z" fill="#FFF200" stroke="#FFF200" stroke-width="0.15"/>
<path d="M45.6729 1.66031H45.9928L44.9371 0.271484C44.8251 0.271484 44.7292 0.271484 44.6172 0.271484L45.6729 1.64435V1.66031Z" fill="#FFF200" stroke="#FFF200" stroke-width="0.15"/>
<path d="M48.7437 1.66065V1.4212H47.0802V0.30375H48.5678C47.9919 0.271823 47.4161 0.271823 46.8242 0.255859V1.64469H48.7437V1.66065Z" fill="#FFF200" stroke="#FFF200" stroke-width="0.15"/>
<path d="M50.5509 1.67679V0.431641C50.4709 0.431641 50.3749 0.431641 50.2949 0.431641V1.69276H50.5509V1.67679Z" fill="#FFF200" stroke="#FFF200" stroke-width="0.15"/>
<path d="M52.502 1.69362V0.608099C52.422 0.608099 52.3261 0.592135 52.2461 0.576172V1.67765H52.502V1.69362Z" fill="#FFF200" stroke="#FFF200" stroke-width="0.15"/>
<path d="M13.8094 43.3422L12.5137 41.666L13.6814 40.4847H13.3455L11.8579 42.0012L11.8739 40.4688H11.6019L11.5859 43.3422H11.8579V42.3365L12.3377 41.8416L13.4894 43.3422H13.8094Z" fill="#FFF200" stroke="#FFF200" stroke-width="0.15"/>
<path d="M14.625 43.3578H16.5605V43.1343L14.8969 43.1184V42.0009H16.3845V41.7774L14.8969 41.7615V40.7238L16.5285 40.7398V40.5003L14.641 40.4844L14.625 43.3578Z" fill="#FFF200" stroke="#FFF200" stroke-width="0.15"/>
<path d="M19.2799 40.516L17.2324 40.5V40.7395H18.1282L18.1122 43.3734H18.3681L18.3841 40.7395H19.2799V40.516Z" fill="#FFF200" stroke="#FFF200" stroke-width="0.15"/>
<path d="M20.0706 40.5293L20.0566 43.3867L20.3126 43.388L20.3266 40.5305L20.0706 40.5293Z" fill="#FFF200" stroke="#FFF200" stroke-width="0.15"/>
<path d="M36.6672 43.3422H36.9871L35.6914 41.666L36.8591 40.4847H36.5232L35.0356 42.0012L35.0516 40.4688H34.7797L34.7637 43.3422H35.0356V42.3365L35.5155 41.8416L36.6672 43.3422Z" fill="#FFF200" stroke="#FFF200" stroke-width="0.15"/>
<path d="M39.7382 43.1343L38.0747 43.1184V42.0009H39.5623V41.7774L38.0747 41.7615L38.0907 40.7238L39.7062 40.7398V40.5003L37.8187 40.4844L37.8027 43.3578H39.7382V43.1343Z" fill="#FFF200" stroke="#FFF200" stroke-width="0.15"/>
<path d="M41.5459 43.3734L41.5619 40.7395H42.4576V40.516L40.4102 40.5V40.7395H41.3059L41.2899 43.3734H41.5459Z" fill="#FFF200" stroke="#FFF200" stroke-width="0.15"/>
<path d="M43.2484 40.5293L43.2344 43.3867L43.4903 43.388L43.5043 40.5305L43.2484 40.5293Z" fill="#FFF200" stroke="#FFF200" stroke-width="0.15"/>
<path d="M59.8449 43.3422H60.1648L58.8692 41.666L60.0528 40.4847H59.7009L58.2133 42.0012L58.2293 40.4688H57.9574L57.9414 43.3422H58.2133V42.3365L58.6932 41.8416L59.8449 43.3422Z" fill="#FFF200" stroke="#FFF200" stroke-width="0.15"/>
<path d="M62.9156 43.1343L61.252 43.1184V42.0009H62.7396V41.7774L61.252 41.7615L61.268 40.7238L62.8836 40.7398V40.5003L60.9961 40.4844V43.3578H62.9156V43.1343Z" fill="#FFF200" stroke="#FFF200" stroke-width="0.15"/>
<path d="M64.7236 43.3734L64.7396 40.7395H65.6353V40.516L63.5879 40.5V40.7395H64.4837L64.4677 43.3734H64.7236Z" fill="#FFF200" stroke="#FFF200" stroke-width="0.15"/>
<path d="M66.4281 40.5137L66.4141 43.3711L66.67 43.3723L66.684 40.5149L66.4281 40.5137Z" fill="#FFF200" stroke="#FFF200" stroke-width="0.15"/>
<path d="M83.3422 43.3422L82.0465 41.666L83.2302 40.4847H82.8783L81.3907 42.0012L81.4067 40.4688H81.1348V43.3422H81.3907V42.3365L81.8706 41.8416L83.0223 43.3422H83.3422Z" fill="#FFF200" stroke="#FFF200" stroke-width="0.15"/>
<path d="M86.0933 43.1343L84.4298 43.1184V42.0009H85.9174V41.7774L84.4298 41.7615L84.4458 40.7238L86.0613 40.7398V40.5003L84.1738 40.4844V43.3578H86.0933V43.1343Z" fill="#FFF200" stroke="#FFF200" stroke-width="0.15"/>
<path d="M86.7656 40.7395H87.6614L87.6454 43.3734H87.9013L87.9173 40.7395H88.8131L88.8291 40.516L86.7656 40.5V40.7395Z" fill="#FFF200" stroke="#FFF200" stroke-width="0.15"/>
<path d="M89.6078 40.5117L89.5918 43.3691L89.8477 43.3706L89.8637 40.5131L89.6078 40.5117Z" fill="#FFF200" stroke="#FFF200" stroke-width="0.15"/>
<path d="M3.15625 45.3215L4.03602 45.3374V47.9555H4.29195L4.30795 45.3374H5.20371V45.098L3.15625 45.082V45.3215Z" fill="#FFF200" stroke="#FFF200" stroke-width="0.15"/>
<path d="M5.99451 45.1172L5.97852 47.9746L6.23444 47.976L6.25044 45.1186L5.99451 45.1172Z" fill="#FFF200" stroke="#FFF200" stroke-width="0.15"/>
<path d="M22.9109 47.9398L21.6153 46.2477L22.7829 45.0664H22.447L20.9594 46.5829V45.0664H20.7035L20.6875 47.9239H20.9434L20.9594 46.9182L21.4393 46.4393L22.591 47.9398H22.9109Z" fill="#FFF200" stroke="#FFF200" stroke-width="0.15"/>
<path d="M25.6621 47.716H23.9985V46.5826L25.4701 46.5986V46.3591H23.9985V45.3215H25.6301V45.082H23.7426L23.7266 47.9395L25.6621 47.9555V47.716Z" fill="#FFF200" stroke="#FFF200" stroke-width="0.15"/>
<path d="M26.334 45.3215L27.2138 45.3374V47.9555H27.4697L27.4857 45.3374H28.3814V45.098L26.334 45.082V45.3215Z" fill="#FFF200" stroke="#FFF200" stroke-width="0.15"/>
<path d="M29.1683 45.1172L29.1543 47.9746L29.4102 47.9759L29.4242 45.1184L29.1683 45.1172Z" fill="#FFF200" stroke="#FFF200" stroke-width="0.15"/>
<path d="M46.0886 47.9398L44.793 46.2477L45.9607 45.0664H45.6248L44.1372 46.5829V45.0664H43.8812L43.8652 47.9239H44.1372V46.9182L44.617 46.4393L45.7687 47.9398H46.0886Z" fill="#FFF200" stroke="#FFF200" stroke-width="0.15"/>
<path d="M48.8398 47.716H47.1762V46.5826L48.6478 46.5986L48.6638 46.3591H47.1762V45.3215H48.8078V45.082H46.9203L46.9043 47.9395L48.8398 47.9555V47.716Z" fill="#FFF200" stroke="#FFF200" stroke-width="0.15"/>
<path d="M49.5117 45.3215L50.4075 45.3374L50.3915 47.9555H50.6474L50.6634 45.3374H51.5592V45.098L49.5117 45.082V45.3215Z" fill="#FFF200" stroke="#FFF200" stroke-width="0.15"/>
<path d="M52.348 45.1172L52.334 47.9746L52.5899 47.9759L52.6039 45.1184L52.348 45.1172Z" fill="#FFF200" stroke="#FFF200" stroke-width="0.15"/>
<path d="M69.2664 47.9398L67.9707 46.2477L69.1384 45.0664H68.8025L67.3149 46.5829L67.3309 45.0664H67.059L67.043 47.9239H67.3149V46.9182L67.7948 46.4393L68.9465 47.9398H69.2664Z" fill="#FFF200" stroke="#FFF200" stroke-width="0.15"/>
<path d="M72.0175 47.716H70.354V46.5826L71.8416 46.5986V46.3591H70.354V45.3215H71.9855V45.082H70.098L70.082 47.9395L72.0175 47.9555V47.716Z" fill="#FFF200" stroke="#FFF200" stroke-width="0.15"/>
<path d="M72.6895 45.3215L73.5852 45.3374L73.5692 47.9555H73.8252L73.8411 45.3374H74.7369V45.098L72.6895 45.082V45.3215Z" fill="#FFF200" stroke="#FFF200" stroke-width="0.15"/>
<path d="M75.5316 45.1191L75.5156 47.9766L75.7716 47.978L75.7875 45.1206L75.5316 45.1191Z" fill="#FFF200" stroke="#FFF200" stroke-width="0.15"/>
<path d="M9.13842 49.6781L8.8025 49.6621L7.3149 51.1786V49.6621H7.05896L7.04297 52.5196L7.2989 52.5355V51.5139L7.77877 51.035L8.93047 52.5355H9.25039L7.97072 50.8594L9.13842 49.6781Z" fill="#FFF200" stroke="#FFF200" stroke-width="0.15"/>
<path d="M10.354 51.1962H11.8256V50.9568H10.354V49.9191H11.9695V49.6797H10.098L10.082 52.5372L12.0175 52.5531V52.3137H10.338L10.354 51.1962Z" fill="#FFF200" stroke="#FFF200" stroke-width="0.15"/>
<path d="M12.6738 49.9188L13.5696 49.9348L13.5536 52.5528L13.8255 52.5687V49.9348H14.7373V49.6953H12.6738V49.9188Z" fill="#FFF200" stroke="#FFF200" stroke-width="0.15"/>
<path d="M15.5253 49.7031L15.5078 52.5605L15.7637 52.5621L15.7812 49.7047L15.5253 49.7031Z" fill="#FFF200" stroke="#FFF200" stroke-width="0.15"/>
<path d="M32.4441 52.5355L31.1485 50.8594L32.3162 49.6781L31.9802 49.6621L30.4926 51.1786V49.6621H30.2367L30.2207 52.5196L30.4766 52.5355V51.5139L30.9565 51.035L32.1082 52.5355H32.4441Z" fill="#FFF200" stroke="#FFF200" stroke-width="0.15"/>
<path d="M35.1953 52.3137H33.5157L33.5317 51.1962H35.0033V50.9568H33.5317V49.9191H35.1473V49.6797H33.2758L33.2598 52.5372L35.1953 52.5531V52.3137Z" fill="#FFF200" stroke="#FFF200" stroke-width="0.15"/>
<path d="M37.915 49.6953H35.8516V49.9188L36.7473 49.9348L36.7313 52.5528L37.0033 52.5687L37.0193 49.9348H37.915V49.6953Z" fill="#FFF200" stroke="#FFF200" stroke-width="0.15"/>
<path d="M38.6995 49.7051L38.6855 52.5625L38.9415 52.5637L38.9555 49.7063L38.6995 49.7051Z" fill="#FFF200" stroke="#FFF200" stroke-width="0.15"/>
<path d="M55.6218 52.5355L54.3262 50.8594L55.4939 49.6781L55.158 49.6621L53.6704 51.1786V49.6621H53.4144L53.3984 52.5196L53.6544 52.5355L53.6704 51.5139L54.1502 51.035L55.2859 52.5355H55.6218Z" fill="#FFF200" stroke="#FFF200" stroke-width="0.15"/>
<path d="M58.373 52.3137H56.6934L56.7094 51.1962H58.181V50.9568H56.7094V49.9191H58.325V49.6797H56.4535L56.4375 52.5372L58.373 52.5531V52.3137Z" fill="#FFF200" stroke="#FFF200" stroke-width="0.15"/>
<path d="M61.0928 49.6953H59.0293V49.9188L59.9251 49.9348L59.9091 52.5528L60.181 52.5687L60.197 49.9348H61.0928V49.6953Z" fill="#FFF200" stroke="#FFF200" stroke-width="0.15"/>
<path d="M61.8792 49.7051L61.8652 52.5625L62.1212 52.5637L62.1352 49.7063L61.8792 49.7051Z" fill="#FFF200" stroke="#FFF200" stroke-width="0.15"/>
<path d="M78.6716 49.6781L78.3357 49.6621L76.8481 51.1786V49.6621H76.5922L76.5762 52.5196L76.8321 52.5355L76.8481 51.5139L77.328 51.035L78.4637 52.5355H78.7996L77.5039 50.8594L78.6716 49.6781Z" fill="#FFF200" stroke="#FFF200" stroke-width="0.15"/>
<path d="M79.8872 51.1962H81.3588V50.9568H79.8872V49.9191H81.5027L81.5187 49.6797H79.6312L79.6152 52.5372L81.5507 52.5531V52.3137H79.8712L79.8872 51.1962Z" fill="#FFF200" stroke="#FFF200" stroke-width="0.15"/>
<path d="M82.207 49.9188L83.1028 49.9348V52.5528L83.3587 52.5687L83.3747 49.9348H84.2705V49.6953H82.223L82.207 49.9188Z" fill="#FFF200" stroke="#FFF200" stroke-width="0.15"/>
<path d="M85.3104 52.4727C85.3104 52.4727 85.2625 52.5365 85.2305 52.5684H85.3104V52.4727Z" fill="#FFF200" stroke="#FFF200" stroke-width="0.15"/>
<path d="M85.3106 49.7109H85.0547V52.5684H85.2466C85.2466 52.5684 85.2946 52.5046 85.3266 52.4726V49.7109H85.3106Z" fill="#FFF200" stroke="#FFF200" stroke-width="0.15"/>
<path d="M18.24 54.2601H17.8881L16.4005 55.7766L16.4165 54.2601L16.1445 54.2441V57.1176H16.4005V56.1119L16.8803 55.617L18.032 57.1335H18.3519L17.0563 55.4414L18.24 54.2601Z" fill="#FFF200" stroke="#FFF200" stroke-width="0.15"/>
<path d="M19.4395 55.7763L20.9271 55.7923V55.5528L19.4395 55.5368L19.4555 54.4992L21.0711 54.5152V54.2757L19.1836 54.2598V57.1332H21.1031V56.9097L19.4395 56.8937V55.7763Z" fill="#FFF200" stroke="#FFF200" stroke-width="0.15"/>
<path d="M21.7754 54.5168H22.6712L22.6552 57.1508H22.9111L22.9271 54.5168L23.8229 54.5328V54.2933L21.7754 54.2773V54.5168Z" fill="#FFF200" stroke="#FFF200" stroke-width="0.15"/>
<path d="M24.6171 54.2969L24.5996 57.1543L24.8555 57.1559L24.873 54.2984L24.6171 54.2969Z" fill="#FFF200" stroke="#FFF200" stroke-width="0.15"/>
<path d="M41.5297 57.1335L40.25 55.4414L41.4177 54.2601H41.0658L39.5782 55.7766L39.5942 54.2601L39.3383 54.2441L39.3223 57.1176H39.5782V56.1119L40.0581 55.617L41.2098 57.1335H41.5297Z" fill="#FFF200" stroke="#FFF200" stroke-width="0.15"/>
<path d="M42.6173 55.7763L44.1049 55.7923V55.5528L42.6173 55.5368L42.6333 54.4992L44.2488 54.5152V54.2757L42.3613 54.2598V57.1332H44.2808V56.9097L42.6173 56.8937V55.7763Z" fill="#FFF200" stroke="#FFF200" stroke-width="0.15"/>
<path d="M44.9531 54.5168H45.8489L45.8329 57.1508H46.1048V54.5168L47.0166 54.5328V54.2933L44.9531 54.2773V54.5168Z" fill="#FFF200" stroke="#FFF200" stroke-width="0.15"/>
<path d="M47.8085 54.2969L47.791 57.1543L48.0469 57.1559L48.0644 54.2984L47.8085 54.2969Z" fill="#FFF200" stroke="#FFF200" stroke-width="0.15"/>
<path d="M64.7074 57.1335L63.4278 55.4414L64.5954 54.2601H64.2435L62.7559 55.7766L62.7719 54.2601L62.516 54.2441L62.5 57.1176H62.7559V56.1119L63.2358 55.617L64.3875 57.1335H64.7074Z" fill="#FFF200" stroke="#FFF200" stroke-width="0.15"/>
<path d="M65.795 55.7763L67.2826 55.7923V55.5528L65.811 55.5368V54.4992L67.4266 54.5152V54.2757L65.5551 54.2598L65.5391 57.1332H67.4745V56.9097L65.795 56.8937V55.7763Z" fill="#FFF200" stroke="#FFF200" stroke-width="0.15"/>
<path d="M68.1309 54.5168H69.0266L69.0106 57.1508H69.2826V54.5168L70.1943 54.5328V54.2933L68.1309 54.2773V54.5168Z" fill="#FFF200" stroke="#FFF200" stroke-width="0.15"/>
<path d="M70.9843 54.2988L70.9668 57.1562L71.2227 57.1578L71.2402 54.3004L70.9843 54.2988Z" fill="#FFF200" stroke="#FFF200" stroke-width="0.15"/>
<path d="M27.6931 58.6976L27.3412 58.6816L25.8536 60.1982L25.8696 58.6816H25.6137L25.5977 61.5551H25.8536V60.5334L26.3335 60.0545L27.4852 61.5551H27.8051L26.5254 59.8789L27.6931 58.6976Z" fill="#FFF200" stroke="#FFF200" stroke-width="0.15"/>
<path d="M28.8927 60.2158H30.3803V59.9763H28.9086V58.9387H30.5242V58.6992H28.6527L28.6367 61.5567L30.5722 61.5727V61.3332H28.8927V60.2158Z" fill="#FFF200" stroke="#FFF200" stroke-width="0.15"/>
<path d="M31.2285 58.9543H32.1243L32.1083 61.5723L32.3802 61.5883V58.9543H33.292V58.7148H31.2285V58.9543Z" fill="#FFF200" stroke="#FFF200" stroke-width="0.15"/>
<path d="M34.0785 58.7305L34.0625 61.5879L34.3184 61.5893L34.3344 58.7319L34.0785 58.7305Z" fill="#FFF200" stroke="#FFF200" stroke-width="0.15"/>
<path d="M50.8708 58.6976L50.5349 58.6816L49.0473 60.1982V58.6816H48.7914L48.7754 61.5551H49.0313V60.5334L49.5112 60.0545L50.6629 61.5551H50.9828L49.7031 59.8789L50.8708 58.6976Z" fill="#FFF200" stroke="#FFF200" stroke-width="0.15"/>
<path d="M52.0704 60.2158H53.558V59.9763H52.0864V58.9387H53.702V58.6992H51.8304L51.8145 61.5567L53.7499 61.5727V61.3332H52.0704V60.2158Z" fill="#FFF200" stroke="#FFF200" stroke-width="0.15"/>
<path d="M54.4062 58.9543H55.302L55.286 61.5723L55.5579 61.5883V58.9543H56.4697V58.7148H54.4062V58.9543Z" fill="#FFF200" stroke="#FFF200" stroke-width="0.15"/>
<path d="M57.2582 58.7305L57.2422 61.5879L57.4981 61.5893L57.5141 58.7319L57.2582 58.7305Z" fill="#FFF200" stroke="#FFF200" stroke-width="0.15"/>
<path d="M74.0486 58.6976L73.7127 58.6816L72.2251 60.1982V58.6816H71.9691L71.9531 61.5551H72.2091V60.5334L72.6889 60.0545L73.8406 61.5551H74.1765L72.8809 59.8789L74.0486 58.6976Z" fill="#FFF200" stroke="#FFF200" stroke-width="0.15"/>
<path d="M76.9293 61.5715V61.332H75.6976C75.5856 61.4118 75.4577 61.4917 75.3457 61.5555H76.9293V61.5715Z" fill="#FFF200" stroke="#FFF200" stroke-width="0.15"/>
<path d="M75.2645 60.2154H76.7361V59.9919H75.2485V58.9383H76.8641V58.7148H74.9766V61.5723H75.3285C75.4404 61.4925 75.5684 61.4127 75.6804 61.3488H75.2325V60.2314L75.2645 60.2154Z" fill="#FFF200" stroke="#FFF200" stroke-width="0.15"/>
<path d="M77.584 58.954H78.4798V59.3371C78.5757 59.2732 78.6557 59.1934 78.7357 59.1296V58.9699H78.9436C79.0396 58.8901 79.1356 58.8103 79.2316 58.7305H77.584V58.954Z" fill="#FFF200" stroke="#FFF200" stroke-width="0.15"/>
<path d="M36.779 63.2793H36.4431L34.9555 64.7958L34.9715 63.2793H34.6996L34.6836 66.1368H34.9555V65.1311L35.4354 64.6362L36.5871 66.1527H36.907L35.6114 64.4606L36.779 63.2793Z" fill="#FFF200" stroke="#FFF200" stroke-width="0.15"/>
<path d="M37.9946 64.7958L39.4822 64.8118V64.5723L37.9946 64.5564L38.0106 63.5188L39.6261 63.5347V63.2953L37.7387 63.2793L37.7227 66.1527H39.6581V65.9292L37.9946 65.9133V64.7958Z" fill="#FFF200" stroke="#FFF200" stroke-width="0.15"/>
<path d="M40.3301 63.5344H41.2258L41.2098 66.1684H41.4658L41.4818 63.5344L42.3775 63.5503V63.3109L40.3301 63.2949V63.5344Z" fill="#FFF200" stroke="#FFF200" stroke-width="0.15"/>
<path d="M43.184 63.3223L43.168 66.1797L43.4239 66.1811L43.4399 63.3237L43.184 63.3223Z" fill="#FFF200" stroke="#FFF200" stroke-width="0.15"/>
<path d="M59.9724 63.2793H59.6205L58.1329 64.7958L58.1489 63.2793H57.877V66.1368H58.1329V65.1311L58.6128 64.6362L59.7645 66.1527H60.0844L58.7887 64.4606L59.9724 63.2793Z" fill="#FFF200" stroke="#FFF200" stroke-width="0.15"/>
<path d="M61.1719 64.7958L62.6596 64.8118V64.5723L61.1719 64.5564L61.1879 63.5188L62.8035 63.5347V63.2953L60.916 63.2793V66.1527H62.8355V65.9292L61.1719 65.9133V64.7958Z" fill="#FFF200" stroke="#FFF200" stroke-width="0.15"/>
<path d="M63.5078 63.5344H64.4036L64.3876 66.1684H64.6435L64.6595 63.5344L65.5553 63.5503V63.3109L63.5078 63.2949V63.5344Z" fill="#FFF200" stroke="#FFF200" stroke-width="0.15"/>
<path d="M66.3398 66.185H66.5958V66.0254C66.5158 66.0573 66.4198 66.0892 66.3398 66.1212V66.185Z" fill="#FFF200" stroke="#FFF200" stroke-width="0.15"/>
<path d="M66.3555 63.3125V66.1221C66.3555 66.1221 66.5154 66.0582 66.6114 66.0263V63.3285H66.3555V63.3125Z" fill="#FFF200" stroke="#FFF200" stroke-width="0.15"/>
<path d="M44.4887 69.921L44.6327 69.7773C44.4887 69.7773 44.3608 69.7773 44.2168 69.7773" fill="#FFF200"/>
<path d="M44.4887 69.921L44.6327 69.7773C44.4887 69.7773 44.3608 69.7773 44.2168 69.7773" stroke="#FFF200" stroke-width="0.15"/>
<path d="M45.5602 69.7773C45.4482 69.7773 45.3522 69.7773 45.2402 69.7773H45.5602Z" fill="#FFF200"/>
<path d="M45.5602 69.7773C45.4482 69.7773 45.3522 69.7773 45.2402 69.7773" stroke="#FFF200" stroke-width="0.15"/>
<path d="M46.3119 68.0684H45.976L44.4884 69.5849V68.0684H44.2324V69.7605C44.3604 69.7605 44.5044 69.7605 44.6323 69.7605L44.9682 69.4253L45.2242 69.7765C45.3361 69.7765 45.4321 69.7765 45.5441 69.7765L45.1442 69.2497L46.3119 68.0684Z" fill="#FFF200" stroke="#FFF200" stroke-width="0.15"/>
<path d="M47.5274 69.7617C47.4474 69.7617 47.3515 69.7617 47.2715 69.7617H47.5274Z" fill="#FFF200"/>
<path d="M47.5274 69.7617C47.4474 69.7617 47.3515 69.7617 47.2715 69.7617" stroke="#FFF200" stroke-width="0.15"/>
<path d="M49.0166 69.6005V69.3611H47.545V68.3234H49.1766V68.084H47.2891V69.7761C47.2891 69.7761 47.449 69.7761 47.545 69.7761V69.6005H49.0326H49.0166Z" fill="#FFF200" stroke="#FFF200" stroke-width="0.15"/>
<path d="M51.0157 69.5859C50.9357 69.5859 50.8397 69.6019 50.7598 69.6179L51.0157 69.5859Z" fill="#FFF200"/>
<path d="M51.0157 69.5859C50.9357 69.5859 50.8397 69.6019 50.7598 69.6179" stroke="#FFF200" stroke-width="0.15"/>
<path d="M51.9107 68.341V68.1016H49.8633V68.341H50.759V69.6181C50.839 69.6181 50.919 69.6021 51.015 69.5862V68.341H51.9267H51.9107Z" fill="#FFF200" stroke="#FFF200" stroke-width="0.15"/>
<path d="M52.9512 69.3945C52.8713 69.3945 52.7753 69.4105 52.6953 69.4265L52.9512 69.3945Z" fill="#FFF200"/>
<path d="M52.9512 69.3945C52.8713 69.3945 52.7753 69.4105 52.6953 69.4265" stroke="#FFF200" stroke-width="0.15"/>
<path d="M52.6953 68.0999V69.409C52.7753 69.409 52.8713 69.393 52.9512 69.377V68.084H52.6953V68.0999Z" fill="#FFF200" stroke="#FFF200" stroke-width="0.15"/>
<path d="M24.6368 17.4968L25.1007 17.8639L24.5728 18.5344L24.6848 18.6302C24.8607 18.8058 25.1007 18.8856 25.4046 18.8856C25.7245 18.8856 25.9964 18.7898 26.2364 18.5983C26.2364 18.694 26.2684 18.8058 26.3003 18.9175C26.3323 19.0133 26.3643 19.125 26.4123 19.2368C26.2044 19.3485 25.9804 19.4124 25.7245 19.4443C25.5006 19.4762 25.2926 19.4443 25.0847 19.4124C25.1646 19.5241 25.2126 19.7157 25.2286 19.9871C25.2446 20.2585 25.2286 20.5458 25.1806 20.8012C25.0687 20.8012 24.9567 20.8012 24.8287 20.8012C24.7008 20.8012 24.5888 20.8331 24.4768 20.8651C24.5568 20.7214 24.6208 20.5618 24.6528 20.3862C24.6688 20.2265 24.6688 20.0669 24.6528 19.8913C24.6368 19.7317 24.5888 19.588 24.5408 19.4603C24.4928 19.3326 24.4288 19.2368 24.3489 19.1889L24.1569 19.0452L23.5811 19.7636L23.1172 19.3964L24.6368 17.4808V17.4968ZM25.3566 16.2676C25.3566 16.2676 25.4206 16.2676 25.4686 16.3474C25.4846 16.3793 25.5006 16.4113 25.5325 16.4432C25.5645 16.4751 25.5965 16.507 25.6285 16.539L27.8519 18.279L27.4201 18.8058L26.1404 17.8001L25.6605 18.4067L25.2286 18.0715L25.7085 17.4648L24.8927 16.8263L25.1327 16.539C25.2606 16.3793 25.3406 16.2995 25.3726 16.2676H25.3566ZM25.8685 20.2904C25.8685 20.2904 25.9324 20.2904 25.9644 20.3542C25.9804 20.3862 25.9964 20.4021 26.0124 20.4181C26.0284 20.45 26.0604 20.466 26.0764 20.4819L26.4763 20.8012L28.2678 18.5344L28.7157 18.8856L26.4923 21.6792L25.3726 20.8172L25.6285 20.4979C25.7405 20.3702 25.8045 20.2904 25.8525 20.2744L25.8685 20.2904Z" fill="#231F20"/>
<path d="M29.7561 12.8348L30.108 13.2817L29.3402 13.8724L29.4522 14.0001C29.7241 14.3513 30.06 14.6227 30.4439 14.8142C30.8598 15.0218 31.2437 15.0856 31.6116 15.0058C31.5796 15.1016 31.5636 15.2133 31.5476 15.341C31.5476 15.4528 31.5476 15.5645 31.5476 15.6763C31.2597 15.6922 30.9718 15.6603 30.6838 15.5645C30.3799 15.4687 30.108 15.3091 29.884 15.1016C30.012 15.3889 30.092 15.7082 30.108 16.0434C30.124 16.3627 30.092 16.666 29.996 16.9534C29.884 16.9374 29.7561 16.9214 29.6441 16.9055C29.5161 16.9055 29.3882 16.8895 29.2922 16.9055C29.4681 16.5383 29.5161 16.1073 29.4202 15.5965C29.3402 15.1175 29.1802 14.7344 28.9243 14.4152L28.8283 14.2874L28.0765 14.8781L27.7246 14.4311L29.7881 12.8348H29.7561ZM30.3479 11.9248C30.3479 11.9248 30.3959 11.9568 30.4279 12.0206C30.4279 12.0685 30.4599 12.1004 30.4599 12.1164C30.4759 12.1483 30.5079 12.1962 30.5399 12.2282L31.4836 13.4414L31.9475 13.0742L32.3154 13.5372L31.8515 13.8884L33.0192 15.373L32.4754 15.788L29.7401 12.308L30.044 12.0685C30.204 11.9568 30.2999 11.8929 30.3479 11.877V11.9248Z" fill="#231F20"/>
<path d="M35.1315 9.73685C35.4834 10.535 35.6434 11.2374 35.5954 11.844C35.5474 12.4187 35.2915 13.0094 34.8436 13.6479C34.7316 13.5841 34.6197 13.5362 34.5077 13.4883C34.3797 13.4404 34.2518 13.3925 34.1558 13.3606C34.5397 13.0413 34.7796 12.6103 34.8756 12.0675C34.9716 11.5407 34.9236 11.0459 34.6997 10.5829L33.404 11.1576L33.1641 10.6148L35.1315 9.73685ZM36.5392 8.71518C36.5392 8.71518 36.5872 8.74711 36.5872 8.795C36.5872 8.82693 36.5872 8.85885 36.5872 8.87482C36.5872 8.90674 36.6032 8.93867 36.6191 8.98656L38.3147 12.722L37.6909 12.9934L35.8673 8.9706L36.2353 8.81096C36.3952 8.74711 36.4912 8.69922 36.5232 8.69922L36.5392 8.71518Z" fill="#231F20"/>
<path d="M41.8498 7.56578L41.9618 8.14047L41.114 8.3001V8.39588C41.114 8.39588 41.178 8.52359 41.242 8.61937C41.3219 8.69919 41.4019 8.77901 41.5139 8.85883C41.6419 8.93864 41.7698 9.0025 41.9138 9.05039C42.0737 9.11424 42.2337 9.14617 42.4097 9.14617C42.3457 9.22599 42.2977 9.32177 42.2497 9.43351C42.2017 9.54526 42.1537 9.657 42.1217 9.76875C41.8658 9.72085 41.6259 9.64104 41.4179 9.51333C41.21 9.40158 41.05 9.27388 40.954 9.14617C40.922 9.3058 40.8261 9.4814 40.6661 9.67296C40.4902 9.88049 40.2982 10.0561 40.0583 10.2157C39.9943 10.1519 39.9143 10.088 39.7863 10.0082C39.6744 9.92838 39.5784 9.86453 39.4824 9.81664C39.6424 9.75278 39.7863 9.67296 39.9463 9.54526C40.0743 9.44948 40.1862 9.32177 40.2822 9.19406C40.3622 9.06635 40.4262 8.93864 40.4742 8.81093C40.5221 8.68323 40.5381 8.58745 40.5221 8.50763V8.42781L39.5944 8.60341L39.4824 8.02872L41.8978 7.58174L41.8498 7.56578ZM43.1135 10.088C43.4174 10.1998 43.5933 10.3594 43.6413 10.6148C43.6893 10.8702 43.5933 11.1097 43.3374 11.3172C43.0655 11.5567 42.6496 11.7323 42.0897 11.844C41.5299 11.9557 41.082 11.9398 40.7301 11.8121C40.4262 11.7003 40.2342 11.5247 40.1862 11.2693C40.1382 11.0299 40.2342 10.8064 40.4902 10.5829C40.7621 10.3434 41.194 10.1838 41.7538 10.0721C42.2977 9.96031 42.7456 9.97627 43.0975 10.088H43.1135ZM41.098 10.8064C40.954 10.9022 40.8901 11.0139 40.906 11.1256C40.938 11.2534 41.034 11.3332 41.21 11.3811C41.4019 11.429 41.6738 11.413 42.0257 11.3491C42.3617 11.2853 42.6176 11.1895 42.7776 11.0778C42.9375 10.982 42.9855 10.8543 42.9695 10.7266C42.9535 10.6148 42.8575 10.535 42.6816 10.5031C42.4896 10.4711 42.2337 10.4711 41.8978 10.535C41.5459 10.5988 41.2899 10.6946 41.114 10.7904L41.098 10.8064ZM42.8255 7.15073C42.8255 7.15073 42.9215 7.15073 42.9535 7.15073C42.9695 7.15073 42.9855 7.16669 42.9855 7.19862C42.9855 7.21458 42.9855 7.24651 42.9855 7.27844C42.9855 7.32633 42.9855 7.35825 42.9855 7.37422C42.9855 7.42211 42.9855 7.45404 42.9855 7.50193L43.1295 8.26818L43.7053 8.15643L43.8173 8.74708L43.2414 8.85883L43.4174 9.81664L42.7456 9.94434L42.2337 7.24651L42.5536 7.18266C42.6656 7.16669 42.7616 7.15073 42.8255 7.13477V7.15073Z" fill="#231F20"/>
<path d="M48.9026 9.41916C49.0786 9.45109 49.2225 9.46705 49.3345 9.48302C49.5105 9.51494 49.6864 9.53091 49.8624 9.56283L49.8944 9.37127C49.6864 9.32338 49.5264 9.24356 49.4145 9.13182C49.2865 9.02007 49.2385 8.8764 49.2705 8.71677C49.3025 8.55713 49.3985 8.44539 49.5744 8.38153C49.7664 8.31768 50.0383 8.30172 50.3902 8.34961C50.7581 8.41346 51.046 8.50924 51.222 8.63695C51.382 8.76466 51.4459 8.90833 51.4299 9.06796C51.398 9.21164 51.318 9.32338 51.158 9.38724C51.0141 9.45109 50.8221 9.48302 50.5822 9.46705L50.5502 9.64265C50.6941 9.65861 50.8381 9.67458 51.0141 9.69054C51.206 9.70651 51.382 9.72247 51.5419 9.73843V9.8821V10.2333C51.142 10.1854 50.7421 10.1375 50.3422 10.0896C49.9263 10.0417 49.5424 9.99385 49.2065 9.94596C49.1585 9.94596 49.1106 9.94596 49.0626 9.94596C49.0306 9.94596 48.9986 9.94596 48.9666 9.94596C48.9026 9.94596 48.8706 9.94596 48.8546 9.94596C48.8386 9.94596 48.8066 9.89807 48.8066 9.83421V9.38724L48.9506 9.41916H48.9026ZM49.8944 10.2652C49.8944 10.2652 49.8944 10.3291 49.8784 10.377C49.8784 10.4089 49.8624 10.4249 49.8464 10.4408C49.8464 10.4728 49.8304 10.5047 49.8304 10.5206L49.7824 10.824L52.3417 11.223L52.2457 11.7977L49.0146 11.2869L49.2065 10.1056L49.6064 10.1694C49.7824 10.2014 49.8784 10.2173 49.9103 10.2493L49.8944 10.2652ZM51.7659 8.01437L51.6859 8.47732L49.1426 8.07823L49.2225 7.63125L51.7659 8.03034V8.01437ZM51.206 7.37583L51.126 7.82281L49.8624 7.61529L49.9423 7.15234L51.206 7.35987V7.37583ZM50.0383 8.73273C50.0383 8.73273 49.9263 8.78062 49.9263 8.81255C49.9263 8.84448 49.9423 8.89237 50.0063 8.92429C50.0703 8.97218 50.1663 9.00411 50.2942 9.02007C50.4062 9.03604 50.5182 9.03604 50.5822 9.02007C50.6621 9.00411 50.6941 8.97218 50.6941 8.94026C50.6941 8.89237 50.6781 8.86044 50.6142 8.82851C50.5502 8.79659 50.4542 8.76466 50.3262 8.74869C50.1983 8.73273 50.1023 8.73273 50.0223 8.74869L50.0383 8.73273ZM52.8376 7.58336C52.8376 7.58336 52.8536 7.64721 52.8216 7.6951C52.8056 7.72703 52.7896 7.75896 52.7736 7.79088C52.7736 7.83877 52.7416 7.8707 52.7416 7.91859L52.5337 9.19567L53.1095 9.29145L53.0135 9.8821L52.4377 9.78632L52.2617 10.8878L51.5899 10.7761L52.1338 7.43969L52.5177 7.50354C52.7096 7.53547 52.8216 7.5674 52.8536 7.58336H52.8376Z" fill="#231F20"/>
<path d="M57.8774 12.4513C58.0693 12.7067 58.1333 12.9462 58.0373 13.1697C57.9413 13.4091 57.7174 13.5368 57.3975 13.5847C57.0296 13.6326 56.5817 13.5368 56.0538 13.3293C55.526 13.1058 55.1581 12.8504 54.9341 12.5631C54.7422 12.3076 54.6942 12.0522 54.7902 11.8128C54.8861 11.5893 55.0941 11.4616 55.414 11.4137C55.7819 11.3658 56.2138 11.4616 56.7417 11.6851C57.2695 11.9086 57.6374 12.164 57.8774 12.4513ZM57.8614 9.48211C57.6374 10.0089 57.3015 10.408 56.8536 10.6634C56.3738 10.9508 55.7659 11.0625 55.0461 10.9986C55.0461 10.8869 55.0301 10.7752 54.9981 10.6474C54.9821 10.5357 54.9501 10.424 54.9181 10.3122C55.1421 10.3761 55.366 10.392 55.59 10.392C55.7979 10.392 55.9899 10.3441 56.1658 10.2803C56.3418 10.2164 56.4857 10.1366 56.6137 10.0249C56.7417 9.92909 56.8216 9.81734 56.8696 9.7056L55.6539 9.19477L55.8779 8.66797L57.8614 9.49807V9.48211ZM55.7659 11.9405C55.59 11.9405 55.478 11.9884 55.43 12.1001C55.382 12.2119 55.43 12.3396 55.542 12.4673C55.6699 12.611 55.9099 12.7546 56.2298 12.8983C56.5497 13.026 56.8216 13.1058 57.0296 13.0899C57.2055 13.0899 57.3335 13.026 57.3815 12.9143C57.4295 12.8025 57.3815 12.6908 57.2535 12.5631C57.1096 12.4194 56.8856 12.2757 56.5657 12.148C56.2298 12.0043 55.9739 11.9405 55.7659 11.9405ZM59.397 9.91312C59.397 9.91312 59.397 9.97698 59.349 10.0408C59.317 10.0728 59.301 10.0887 59.301 10.1047C59.285 10.1366 59.269 10.1685 59.253 10.2005L58.3092 12.4194L57.6854 12.164L57.9254 11.6053L57.1895 11.3019L57.3975 10.7911L58.1333 11.0944L58.2933 10.7113L57.5574 10.408L57.7654 9.89716L58.5012 10.2005L58.7571 9.60982L59.141 9.76945C59.285 9.83331 59.381 9.8812 59.413 9.91312H59.397Z" fill="#231F20"/>
<path d="M61.0596 14.2882C61.0596 14.2882 61.0596 14.3521 60.9956 14.384C60.9636 14.4 60.9476 14.4159 60.9316 14.4319C60.9156 14.4478 60.8836 14.4798 60.8677 14.4957L60.5637 14.9108L62.8831 16.6189L62.5472 17.0818L59.668 14.9746L60.5157 13.8412L60.8357 14.0807C60.9636 14.1765 61.0436 14.2563 61.0596 14.2882ZM63.363 12.9154C63.395 13.2027 63.299 13.49 63.1071 13.7614C62.8991 14.0328 62.6592 14.2084 62.3713 14.2563C62.0513 14.3201 61.7314 14.2563 61.4275 14.0168C61.1076 13.7774 60.9316 13.506 60.8836 13.1708C60.8517 12.8834 60.9316 12.5961 61.1396 12.3247C61.3475 12.0533 61.5875 11.8777 61.8754 11.8298C62.1953 11.766 62.5152 11.8618 62.8351 12.1012C63.1391 12.3247 63.315 12.5961 63.347 12.9154H63.363ZM62.0673 12.4364C61.9394 12.4684 61.8114 12.5642 61.6994 12.7238C61.5875 12.8834 61.5235 13.0271 61.5235 13.1708C61.5235 13.3304 61.6035 13.4581 61.7474 13.5699C61.8914 13.6656 62.0193 13.6976 62.1793 13.6497C62.3073 13.6018 62.4352 13.506 62.5632 13.3623C62.6752 13.2027 62.7392 13.059 62.7392 12.9154C62.7392 12.7717 62.6592 12.644 62.5312 12.5482C62.3872 12.4364 62.2273 12.4045 62.0833 12.4364H62.0673ZM65.0905 13.6337C65.0905 13.6337 65.0905 13.6816 65.0266 13.7135C64.9946 13.7295 64.9786 13.7455 64.9626 13.7614C64.9466 13.7774 64.9146 13.8093 64.8986 13.8412L63.1391 16.2198L62.5952 15.8207L64.5467 13.2027L64.8826 13.4421C65.0106 13.5379 65.0905 13.6018 65.1065 13.6497L65.0905 13.6337Z" fill="#231F20"/>
<path d="M67.0746 20.1455C67.1546 20.4648 67.0906 20.7042 66.9147 20.8638C66.7227 21.0235 66.4828 21.0235 66.1789 20.8958C65.8269 20.7521 65.459 20.4328 65.0432 19.9539C64.6433 19.475 64.4033 19.06 64.3233 18.7088C64.2594 18.3895 64.3233 18.15 64.4833 18.0064C64.6753 17.8467 64.9152 17.8467 65.2191 17.9585C65.555 18.1022 65.9229 18.4055 66.3228 18.8844C66.7227 19.3633 66.9786 19.7943 67.0586 20.1455H67.0746ZM65.2991 18.5811C65.1391 18.4853 65.0272 18.4693 64.9312 18.5491C64.8512 18.613 64.8352 18.7407 64.8992 18.9163C64.9632 19.1238 65.1391 19.3792 65.3951 19.6666C65.651 19.9699 65.8909 20.1934 66.0829 20.3051C66.2428 20.4009 66.3708 20.4009 66.4508 20.337C66.5308 20.2732 66.5468 20.1455 66.4668 19.9699C66.3868 19.7783 66.2108 19.5229 65.9389 19.2036C65.683 18.9003 65.459 18.6928 65.2831 18.5811H65.2991ZM68.3703 20.0657L67.9384 20.4169L65.0911 17.0486L65.523 16.6974L68.3703 20.0657ZM69.586 18.5491L69.1381 18.9163L68.2743 17.8946C68.2743 17.8946 68.2263 17.9904 68.2263 18.1022C68.2263 18.2139 68.2423 18.3416 68.2743 18.4853C68.3223 18.6449 68.3863 18.8046 68.4663 18.9482C68.5622 19.1238 68.6742 19.2835 68.8022 19.4112C68.7062 19.4112 68.5942 19.4112 68.4822 19.4112C68.3703 19.4112 68.2743 19.4271 68.1623 19.4591C67.9864 19.2515 67.8424 18.9482 67.7304 18.5811C67.6345 18.1979 67.6185 17.9266 67.6985 17.751C67.4905 17.7989 67.2186 17.751 66.8987 17.5913C66.5468 17.4317 66.2908 17.2401 66.0829 17.0007C66.1149 16.9049 66.1469 16.7931 66.1789 16.6974C66.2108 16.5697 66.2268 16.4579 66.2428 16.3621C66.3708 16.5218 66.4988 16.6654 66.6587 16.7931C66.8027 16.9049 66.9467 17.0007 67.0906 17.0645C67.2186 17.1284 67.3465 17.1603 67.4425 17.1922C67.5545 17.1922 67.6185 17.1922 67.6665 17.1603L66.8027 16.1386L67.2346 15.7715L69.57 18.5332L69.586 18.5491Z" fill="#231F20"/>
<path d="M21.5502 27.0586C21.2783 27.0586 21.0703 27.2661 21.0703 27.5375V29.4531C21.0703 29.7085 21.2783 29.932 21.5502 29.932H23.1978V39.7017H21.6142C21.3422 39.7017 21.1343 39.9092 21.1343 40.1806V42.0962C21.1343 42.3516 21.3582 42.5751 21.6142 42.5751H34.1389C34.4108 42.5751 34.6187 42.3676 34.6187 42.0962V37.2433C34.6187 36.9879 34.4108 36.7644 34.1389 36.7644H32.1554C31.8995 36.7644 31.6755 36.9719 31.6755 37.2433V39.7017H26.3489V36.2695H28.2844V37.4029C28.2844 37.6584 28.5084 37.8819 28.7643 37.8819H30.7318C31.0037 37.8819 31.2116 37.6743 31.2116 37.4029V32.2627C31.2116 32.0073 31.0037 31.7838 30.7318 31.7838H28.7643C28.5084 31.7838 28.2844 31.9913 28.2844 32.2627V33.4121H26.3489V29.948H31.6595V32.4223C31.6595 32.6777 31.8835 32.9012 32.1394 32.9012H34.1069C34.3788 32.9012 34.5867 32.6937 34.5867 32.4223V27.5694C34.5867 27.314 34.3628 27.0905 34.1069 27.0905H21.5502V27.0586Z" fill="white"/>
<path d="M34.1221 37.0203H32.1386C32.0266 37.0203 31.9466 37.1001 31.9466 37.2118V39.9576H26.0602V35.9507H28.5715V37.3555C28.5715 37.4672 28.6675 37.5471 28.7635 37.5471H30.7309C30.8429 37.5471 30.9229 37.4672 30.9229 37.3555V32.2153C30.9229 32.1035 30.8429 32.0237 30.7309 32.0237H28.7635C28.6515 32.0237 28.5715 32.1035 28.5715 32.2153V33.652H26.0602V29.6132H31.9466V32.3589C31.9466 32.4547 32.0266 32.5505 32.1386 32.5505H34.1061C34.218 32.5505 34.298 32.4707 34.298 32.3589V27.506C34.298 27.3943 34.202 27.3145 34.1061 27.3145H21.5494C21.4374 27.3145 21.3574 27.3943 21.3574 27.506V29.4216C21.3574 29.5334 21.4374 29.6132 21.5494 29.6132H23.4849V39.9416H21.6134C21.5014 39.9416 21.4214 40.0214 21.4214 40.1332V42.0488C21.4214 42.1605 21.5174 42.2403 21.6134 42.2403H34.1381C34.25 42.2403 34.33 42.1605 34.33 42.0488V37.1959C34.33 37.0841 34.25 37.0043 34.1381 37.0043L34.1221 37.0203Z" fill="#0075BF" stroke="white" stroke-width="0.3" stroke-linecap="round" stroke-linejoin="round"/>
<path d="M21.5501 27.3145C21.4221 27.3145 21.3262 27.4102 21.3262 27.5379V29.4536C21.3262 29.5653 21.4221 29.6611 21.5501 29.6611H23.4536V39.9416H21.5981C21.4701 39.9416 21.3742 40.0374 21.3742 40.1491V42.0647C21.3742 42.1924 21.4701 42.2723 21.5981 42.2723H34.1228C34.2508 42.2723 34.3467 42.1765 34.3467 42.0647V37.2118C34.3467 37.1001 34.2508 37.0043 34.1228 37.0043H32.1393C32.0114 37.0043 31.9154 37.1001 31.9154 37.2118V39.9416H26.0769V35.9826H28.5243V37.3715C28.5243 37.4832 28.6202 37.579 28.7482 37.579H30.7157C30.8437 37.579 30.9396 37.4832 30.9396 37.3715V32.2312C30.9396 32.1195 30.8437 32.0077 30.7157 32.0077H28.7482C28.6202 32.0077 28.5243 32.1035 28.5243 32.2312V33.636H26.0769V29.6611H31.9154V32.3909C31.9154 32.5026 32.0114 32.5984 32.1393 32.5984H34.1068C34.2348 32.5984 34.3307 32.5026 34.3307 32.3909V27.5379C34.3307 27.4102 34.2348 27.3145 34.1068 27.3145H21.5501ZM21.3742 29.4536V27.5379C21.3742 27.4422 21.4541 27.3783 21.5501 27.3783H34.1068C34.2028 27.3783 34.2828 27.4581 34.2828 27.5379V32.3909C34.2828 32.4866 34.2028 32.5505 34.1068 32.5505H32.1393C32.0433 32.5505 31.9634 32.4707 31.9634 32.3909V29.6132H26.0289V33.6999H28.5883V32.2472C28.5883 32.1514 28.6682 32.0875 28.7482 32.0875H30.7157C30.8117 32.0875 30.8757 32.1674 30.8757 32.2472V37.3874C30.8757 37.4832 30.7957 37.5471 30.7157 37.5471H28.7482C28.6522 37.5471 28.5883 37.4672 28.5883 37.3874V35.9507H26.0289V40.0054H31.9794V37.2278C31.9794 37.132 32.0593 37.0682 32.1393 37.0682H34.1228C34.2188 37.0682 34.2987 37.148 34.2987 37.2278V42.0807C34.2987 42.1765 34.2188 42.2403 34.1228 42.2403H21.5981C21.5021 42.2403 21.4221 42.1605 21.4221 42.0807V40.1651C21.4221 40.0693 21.5021 40.0054 21.5981 40.0054H23.5016V29.6132H21.5501C21.4541 29.6132 21.3742 29.5334 21.3742 29.4536Z" fill="white"/>
<path d="M60.3881 27.0586C60.1321 27.0586 59.9082 27.2661 59.9082 27.5375V29.4531C59.9082 29.7085 60.1161 29.932 60.3881 29.932H61.6198V39.7017H60.4041C60.1481 39.7017 59.9242 39.9092 59.9242 40.1806V42.0962C59.9242 42.3516 60.1321 42.5751 60.4041 42.5751H67.1223C67.3782 42.5751 67.6022 42.3676 67.6022 42.0962V40.1806C67.6022 39.9252 67.3942 39.7017 67.1223 39.7017H64.7549V36.2695H67.1543V37.4029C67.1543 37.6584 67.3622 37.8819 67.6342 37.8819H69.5537C69.8256 37.8819 70.0335 37.6743 70.0335 37.4029V32.2627C70.0335 32.0073 69.8256 31.7838 69.5537 31.7838H67.6342C67.3782 31.7838 67.1543 31.9913 67.1543 32.2627V33.4121H64.7549V29.948H70.2255V32.3904C70.2255 32.6458 70.4334 32.8693 70.7054 32.8693H72.6408C72.8968 32.8693 73.1207 32.6618 73.1207 32.3904V27.5535C73.1207 27.298 72.9128 27.0746 72.6408 27.0746H60.3881V27.0586Z" fill="white"/>
<path d="M72.64 27.346H60.3873C60.2753 27.346 60.1953 27.4259 60.1953 27.5376V29.4532C60.1953 29.565 60.2753 29.6448 60.3873 29.6448H61.9069V39.9732H60.4033C60.2913 39.9732 60.2113 40.053 60.2113 40.1647V42.0804C60.2113 42.1921 60.2913 42.2719 60.4033 42.2719H67.1215C67.2335 42.2719 67.3134 42.1921 67.3134 42.0804V40.1647C67.3134 40.053 67.2335 39.9732 67.1215 39.9732H64.4662V35.9663H67.4414V37.3711C67.4414 37.4829 67.5214 37.5627 67.6334 37.5627H69.5528C69.6648 37.5627 69.7448 37.4829 69.7448 37.3711V32.2309C69.7448 32.1191 69.6648 32.0393 69.5528 32.0393H67.6334C67.5214 32.0393 67.4414 32.1191 67.4414 32.2309V33.6676H64.4662V29.6288H70.5126V32.3586C70.5126 32.4703 70.5926 32.5501 70.7045 32.5501H72.64C72.752 32.5501 72.832 32.4703 72.832 32.3586V27.5216C72.832 27.4099 72.752 27.3301 72.64 27.3301V27.346Z" fill="#0075BF" stroke="white" stroke-width="0.3" stroke-linecap="round" stroke-linejoin="round"/>
<path d="M60.388 27.3148C60.276 27.3148 60.1641 27.4106 60.1641 27.5383V29.4539C60.1641 29.5656 60.26 29.6614 60.388 29.6614H61.8916V39.9419H60.42C60.308 39.9419 60.2121 40.0377 60.2121 40.1495V42.0651C60.2121 42.1928 60.308 42.2726 60.42 42.2726H67.1382C67.2502 42.2726 67.3622 42.1768 67.3622 42.0651V40.1495C67.3622 40.0377 67.2662 39.9419 67.1382 39.9419H64.5149V35.983H67.4261V37.3718C67.4261 37.4835 67.5221 37.5793 67.6501 37.5793H69.5696C69.6976 37.5793 69.7775 37.4835 69.7775 37.3718V32.2316C69.7775 32.1198 69.6816 32.0081 69.5696 32.0081H67.6501C67.5381 32.0081 67.4261 32.1038 67.4261 32.2316V33.6363H64.5149V29.6614H70.4973V32.3593C70.4973 32.471 70.5933 32.5668 70.7213 32.5668H72.6568C72.7847 32.5668 72.8807 32.471 72.8807 32.3593V27.5223C72.8807 27.3946 72.7847 27.2988 72.6568 27.2988H60.404L60.388 27.3148ZM60.228 29.4539V27.5383C60.228 27.4425 60.308 27.3786 60.388 27.3786H72.6408C72.7367 27.3786 72.8007 27.4585 72.8007 27.5383V32.3752C72.8007 32.471 72.7208 32.5349 72.6408 32.5349H70.7053C70.6093 32.5349 70.5453 32.471 70.5453 32.3752V29.6295H64.4509V33.7162H67.4741V32.2635C67.4741 32.1677 67.5541 32.1038 67.6341 32.1038H69.5536C69.6496 32.1038 69.7135 32.1677 69.7135 32.2635V37.4037C69.7135 37.4995 69.6336 37.5634 69.5536 37.5634H67.6341C67.5381 37.5634 67.4741 37.4835 67.4741 37.4037V35.967H64.4509V40.0217H67.1222C67.2182 40.0217 67.2822 40.1016 67.2822 40.1814V42.097C67.2822 42.1928 67.2022 42.2566 67.1222 42.2566H60.404C60.308 42.2566 60.244 42.1768 60.244 42.097V40.1814C60.244 40.0856 60.324 40.0217 60.404 40.0217H61.9236V29.6295H60.372C60.276 29.6295 60.2121 29.5497 60.2121 29.4699L60.228 29.4539Z" fill="white"/>
<path d="M52.3432 27.0589L51.7993 27.2984L51.8313 27.3463C51.8313 27.3463 48.3282 36.0624 47.8644 37.2117C47.4005 36.0624 43.8014 27.2345 43.8014 27.2345H43.7694L43.3375 27.043H38.2509C37.947 27.043 37.707 27.2505 37.707 27.5219V29.4375C37.707 29.7089 37.947 29.9164 38.2509 29.9164H39.3546V39.6861H38.2509C37.947 39.6861 37.707 39.8936 37.707 40.165V42.0806C37.707 42.352 37.947 42.5595 38.2509 42.5595H43.8814C44.1853 42.5595 44.4253 42.352 44.4253 42.0806V40.165C44.4253 39.8936 44.1853 39.6861 43.8814 39.6861H42.5857V32.5983C42.6337 32.726 46.6007 42.2881 46.6007 42.2881C46.6967 42.4797 46.8886 42.5914 47.0966 42.5914H48.5362C48.7441 42.5914 48.9361 42.4797 49.032 42.3201C49.032 42.3201 52.951 32.6941 53.031 32.5025V39.6861H51.8473C51.5434 39.6861 51.3034 39.8936 51.3034 40.165V42.0806C51.3034 42.352 51.5434 42.5595 51.8473 42.5595H57.3339C57.6378 42.5595 57.8777 42.352 57.8777 42.0806V40.165C57.8777 39.8936 57.6378 39.6861 57.3339 39.6861H56.2621V29.9164H57.3019C57.6058 29.9164 57.8457 29.7089 57.8457 29.4375V27.5219C57.8457 27.2505 57.6058 27.043 57.3019 27.043H52.3272L52.3432 27.0589Z" fill="white"/>
<path d="M57.3506 39.9728H55.991V29.6444H57.3186C57.4626 29.6444 57.5746 29.5646 57.5746 29.4529V27.5373C57.5746 27.4255 57.4626 27.3457 57.3186 27.3457H52.3439C52.232 27.3457 52.104 27.4734 52.104 27.4734L47.8811 37.9934L43.5942 27.4734C43.5942 27.4734 43.4663 27.3457 43.3543 27.3457H38.2677C38.1237 27.3457 38.0117 27.4255 38.0117 27.5373V29.4529C38.0117 29.5646 38.1237 29.6444 38.2677 29.6444H39.6593V39.9728H38.2677C38.1237 39.9728 38.0117 40.0527 38.0117 40.1644V42.08C38.0117 42.1918 38.1237 42.2716 38.2677 42.2716H43.8982C44.0421 42.2716 44.1541 42.1918 44.1541 42.08V40.1644C44.1541 40.0527 44.0421 39.9728 43.8982 39.9728H42.3146V31.161L43.0184 32.8531L46.8894 42.1758C46.8894 42.1758 47.0173 42.3035 47.1293 42.3035H48.5689C48.6809 42.3035 48.7769 42.2556 48.8089 42.1758L52.5999 32.8691L53.3517 31.0333V39.9569H51.8801C51.7361 39.9569 51.6241 40.0367 51.6241 40.1484V42.0641C51.6241 42.1758 51.7361 42.2556 51.8801 42.2556H57.3666C57.5106 42.2556 57.6225 42.1758 57.6225 42.0641V40.1484C57.6225 40.0367 57.5106 39.9569 57.3666 39.9569L57.3506 39.9728Z" fill="#0075BF" stroke="white" stroke-width="0.3" stroke-linecap="round" stroke-linejoin="round"/>
<path d="M52.3424 27.3145C52.2304 27.3145 52.0864 27.4422 52.0864 27.4422C52.0864 27.4422 47.9275 37.7865 47.8795 37.9142C47.8315 37.8025 43.6087 27.4581 43.6087 27.4581C43.6087 27.4581 43.4647 27.3145 43.3527 27.3145H38.2661C38.1061 27.3145 37.9941 27.4102 37.9941 27.5379V29.4536C37.9941 29.5653 38.1221 29.6611 38.2661 29.6611H39.6257V39.9416H38.2661C38.1061 39.9416 37.9941 40.0374 37.9941 40.1491V42.0647C37.9941 42.1924 38.1221 42.2723 38.2661 42.2723H43.8966C44.0565 42.2723 44.1845 42.1765 44.1845 42.0647V40.1491C44.1845 40.0374 44.0565 39.9416 43.8966 39.9416H42.345V31.2894C42.425 31.4969 46.8718 42.1924 46.8718 42.1924C46.9198 42.2723 47.0158 42.3361 47.1277 42.3361H48.5673C48.6793 42.3361 48.7913 42.2882 48.8393 42.1924C48.8393 42.1924 53.2381 31.3851 53.3181 31.1776V39.9576H51.8625C51.7025 39.9576 51.5746 40.0533 51.5746 40.1651V42.0807C51.5746 42.2084 51.7025 42.2882 51.8625 42.2882H57.349C57.509 42.2882 57.637 42.1924 57.637 42.0807V40.1651C57.637 40.0533 57.509 39.9576 57.349 39.9576H56.0214V29.6771H57.317C57.317 29.6771 57.461 29.6611 57.509 29.6132C57.573 29.5653 57.589 29.5174 57.589 29.4536V27.5379C57.589 27.5379 57.557 27.4262 57.509 27.3783C57.461 27.3464 57.381 27.3145 57.317 27.3145H52.3424ZM52.3424 27.3623H57.317C57.317 27.3623 57.445 27.3783 57.477 27.4102C57.525 27.4422 57.541 27.4741 57.541 27.522V29.4376C57.541 29.4376 57.525 29.5174 57.477 29.5493C57.429 29.5813 57.381 29.5972 57.317 29.5972H55.9734V39.9895H57.349C57.477 39.9895 57.573 40.0693 57.573 40.1491V42.0647C57.573 42.1605 57.477 42.2244 57.349 42.2244H51.8625C51.7345 42.2244 51.6385 42.1446 51.6385 42.0647V40.1491C51.6385 40.0533 51.7345 39.9895 51.8625 39.9895H53.3661V31.034H53.3181L48.7753 42.1605C48.7433 42.2244 48.6633 42.2723 48.5514 42.2723H47.1117C47.0158 42.2723 46.9358 42.2244 46.8878 42.1605L42.313 31.1457H42.265V39.9895H43.8646C43.9926 39.9895 44.0885 40.0693 44.0885 40.1491V42.0647C44.0885 42.1605 43.9926 42.2244 43.8646 42.2244H38.2341C38.1061 42.2244 38.0101 42.1446 38.0101 42.0647V40.1491C38.0101 40.0533 38.1061 39.9895 38.2341 39.9895H39.6577V29.5972H38.2341C38.1061 29.5972 38.0101 29.5174 38.0101 29.4376V27.522C38.0101 27.4262 38.1061 27.3623 38.2341 27.3623H43.3207C43.4167 27.3623 43.5447 27.4741 43.5447 27.4741L47.8635 38.0419L52.1184 27.4741C52.1184 27.4741 52.2464 27.3623 52.3264 27.3623H52.3424Z" fill="white"/>
<path d="M60.3874 26.8343C60.0035 26.8343 59.6836 27.1536 59.6836 27.5367V29.4523C59.6836 29.8355 60.0035 30.1547 60.3874 30.1547H61.3951V39.4615H60.4034C60.0195 39.4615 59.6996 39.7807 59.6996 40.1639V42.0795C59.6996 42.4626 60.0195 42.7819 60.4034 42.7819H67.1216C67.5055 42.7819 67.8254 42.4626 67.8254 42.0795V40.1639C67.8254 39.7807 67.5055 39.4615 67.1216 39.4615H64.9782V36.4763H66.9297V37.3702C66.9297 37.7534 67.2496 38.0726 67.6335 38.0726H69.553C69.9369 38.0726 70.2568 37.7534 70.2568 37.3702V32.8845C70.3848 32.9803 70.5287 33.0601 70.7047 33.0601H72.6402C73.0241 33.0601 73.344 32.7408 73.344 32.3577V27.5208C73.344 27.1376 73.0241 26.8184 72.6402 26.8184H60.3874V26.8343ZM60.0835 29.4523V27.5367C60.0835 27.3611 60.2274 27.2174 60.3874 27.2174H72.6402C72.8161 27.2174 72.9601 27.3611 72.9601 27.5367V32.3737C72.9601 32.5493 72.8161 32.677 72.6402 32.677H70.7047C70.5287 32.677 70.4008 32.5333 70.4008 32.3737V29.7716H64.5943V33.555H67.3136V32.246C67.3136 32.0704 67.4575 31.9426 67.6175 31.9426H69.537C69.7129 31.9426 69.8569 32.0863 69.8569 32.246V37.3862C69.8569 37.5618 69.7129 37.6895 69.537 37.6895H67.6175C67.4415 37.6895 67.3136 37.5458 67.3136 37.3862V36.0932H64.5943V39.8605H67.1216C67.2976 39.8605 67.4256 40.0042 67.4256 40.1639V42.0795C67.4256 42.2551 67.2816 42.3828 67.1216 42.3828H60.4034C60.2275 42.3828 60.0995 42.2391 60.0995 42.0795V40.1639C60.0995 39.9883 60.2434 39.8605 60.4034 39.8605H61.779V29.7716H60.3714C60.1955 29.7716 60.0675 29.6279 60.0675 29.4683L60.0835 29.4523ZM70.0169 30.1547V31.7192C69.8889 31.6234 69.7449 31.5436 69.569 31.5436H67.6495C67.2656 31.5436 66.9457 31.8628 66.9457 32.246V33.1718H64.9942V30.1547H70.0169Z" fill="#231F20"/>
<path d="M21.5495 26.834C21.3576 26.834 21.1816 26.9138 21.0536 27.0415C20.9097 27.1692 20.8457 27.3448 20.8457 27.5364V29.452C20.8457 29.6436 20.9257 29.8192 21.0536 29.9469C21.1816 30.0746 21.3576 30.1544 21.5495 30.1544H22.9571V39.4611H21.5975C21.1976 39.4611 20.8777 39.7804 20.8777 40.1635V42.0791C20.8777 42.4623 21.1976 42.7815 21.5975 42.7815H34.1222C34.5221 42.7815 34.842 42.4623 34.842 42.0791V37.2262C34.842 36.8431 34.5221 36.5238 34.1222 36.5238H32.1387C31.7548 36.5238 31.4349 36.8431 31.4349 37.2262V39.4611H26.5722V36.4759H28.0438V37.3699C28.0438 37.753 28.3637 38.0723 28.7476 38.0723H30.7151C31.115 38.0723 31.4189 37.753 31.4189 37.3699V32.4052C31.4189 32.7884 31.7388 33.0917 32.1227 33.0917H34.0902C34.4901 33.0917 34.794 32.7724 34.794 32.3893V27.5364C34.794 27.1533 34.4741 26.834 34.0902 26.834H21.5335H21.5495ZM21.3256 29.6595C21.3256 29.6595 21.2296 29.5318 21.2296 29.436V27.5204C21.2296 27.4406 21.2616 27.3608 21.3256 27.2969C21.3896 27.2331 21.4695 27.2011 21.5495 27.2011H34.1062C34.2822 27.2011 34.4261 27.3448 34.4261 27.5204V32.3733C34.4261 32.5489 34.2822 32.6766 34.1062 32.6766H32.1387C31.9628 32.6766 31.8188 32.533 31.8188 32.3733V29.9309C31.8188 29.8192 31.7388 29.7393 31.6269 29.7393H26.3802C26.2683 29.7393 26.1883 29.8192 26.1883 29.9309V33.3311C26.1883 33.4429 26.2683 33.5227 26.3802 33.5227H28.2358C28.3477 33.5227 28.4277 33.4429 28.4277 33.3311V32.2137C28.4277 32.0381 28.5717 31.9104 28.7476 31.9104H30.7151C30.8911 31.9104 31.035 32.0541 31.035 32.2137V37.3539C31.035 37.5295 30.8911 37.6572 30.7151 37.6572H28.7476C28.5717 37.6572 28.4277 37.5136 28.4277 37.3539V36.2525C28.4277 36.1407 28.3477 36.0609 28.2358 36.0609H26.3802C26.2683 36.0609 26.1883 36.1407 26.1883 36.2525V39.6367C26.1883 39.7485 26.2683 39.8283 26.3802 39.8283H31.6269C31.7388 39.8283 31.8188 39.7485 31.8188 39.6367V37.1943C31.8188 37.0187 31.9628 36.891 32.1387 36.891H34.1222C34.2982 36.891 34.4421 37.0347 34.4421 37.1943V42.0472C34.4421 42.2228 34.2982 42.3505 34.1222 42.3505H21.5975C21.4216 42.3505 21.2776 42.2068 21.2776 42.0472V40.1316C21.2776 39.956 21.4216 39.8283 21.5975 39.8283H23.1491C23.2611 39.8283 23.341 39.7485 23.341 39.6367V29.9309C23.341 29.8192 23.2451 29.7393 23.1491 29.7393H21.5495C21.4695 29.7393 21.3736 29.7074 21.3256 29.6436V29.6595ZM31.4349 30.1384V32.2137C31.4349 31.8306 31.115 31.5273 30.7311 31.5273H28.7636C28.3637 31.5273 28.0598 31.8465 28.0598 32.2297V33.1555H26.5882V30.1384H31.4349Z" fill="#231F20"/>
<path d="M52.3431 26.834C51.9912 26.834 51.6233 27.1692 51.5754 27.2171C51.5594 27.2331 51.5434 27.265 51.5274 27.281C51.5274 27.281 48.2002 35.598 47.8803 36.4121C47.5444 35.598 44.1533 27.281 44.1533 27.281C44.1533 27.249 44.1213 27.2331 44.1053 27.2171C44.0573 27.1852 43.6894 26.8499 43.3375 26.8499H38.2509C37.771 26.8499 37.3711 27.1692 37.3711 27.5523V29.468C37.3711 29.8511 37.755 30.1704 38.2509 30.1704H39.0187V39.4771H38.2509C37.771 39.4771 37.3711 39.7964 37.3711 40.1795V42.0951C37.3711 42.4782 37.755 42.7975 38.2509 42.7975H43.8814C44.3613 42.7975 44.7611 42.4782 44.7611 42.0951V40.1795C44.7611 39.7964 44.3613 39.4771 43.8814 39.4771H42.9216V34.3368C43.5295 35.7895 46.2967 42.3824 46.2967 42.3824C46.4407 42.6538 46.7606 42.8294 47.1125 42.8294H48.5521C48.9041 42.8294 49.224 42.6698 49.3519 42.3984C49.3519 42.3984 49.3679 42.3665 52.7111 34.257V39.4771H51.8473C51.3674 39.4771 50.9675 39.7964 50.9675 40.1795V42.0951C50.9675 42.4782 51.3674 42.7975 51.8473 42.7975H57.3338C57.8137 42.7975 58.2136 42.4782 58.2136 42.0951V40.1795C58.2136 39.7964 57.8297 39.4771 57.3338 39.4771H56.598V30.1704H57.3018C57.7817 30.1704 58.1816 29.8511 58.1816 29.468V27.5523C58.1816 27.1692 57.7817 26.8499 57.3018 26.8499H52.3272L52.3431 26.834ZM52.3431 27.2171H57.3178C57.5738 27.2171 57.7977 27.3608 57.7977 27.5364V29.452C57.7977 29.6116 57.5738 29.7553 57.3178 29.7553H56.4221C56.3101 29.7553 56.2301 29.8351 56.2301 29.9469V39.6527C56.2301 39.7644 56.3101 39.8442 56.4221 39.8442H57.3498C57.6058 39.8442 57.8297 39.9879 57.8297 40.1476V42.0632C57.8297 42.2228 57.6058 42.3665 57.3498 42.3665H51.8633C51.6073 42.3665 51.3834 42.2228 51.3834 42.0632V40.1476C51.3834 39.9879 51.6073 39.8442 51.8633 39.8442H52.919C53.031 39.8442 53.1109 39.7644 53.1109 39.6527V33.2513C53.1109 33.1555 53.047 33.0757 52.951 33.0598C52.855 33.0438 52.759 33.0917 52.727 33.1715L49.016 42.2069C48.952 42.3186 48.7761 42.4144 48.5681 42.4144H47.1285C46.9206 42.4144 46.7286 42.3346 46.6646 42.1909L42.9216 33.2673C42.8896 33.1875 42.7937 33.1396 42.6977 33.1555C42.6017 33.1715 42.5377 33.2513 42.5377 33.3471V39.6527C42.5377 39.7644 42.6177 39.8442 42.7297 39.8442H43.8814C44.1373 39.8442 44.3613 39.9879 44.3613 40.1476V42.0632C44.3613 42.2228 44.1373 42.3665 43.8814 42.3665H38.2509C37.9949 42.3665 37.771 42.2228 37.771 42.0632V40.1476C37.771 39.9879 37.9949 39.8442 38.2509 39.8442H39.2266C39.3386 39.8442 39.4186 39.7644 39.4186 39.6527V29.9469C39.4186 29.8351 39.3386 29.7553 39.2266 29.7553H38.2509C37.9949 29.7553 37.771 29.6116 37.771 29.452V27.5364C37.771 27.3767 37.9949 27.2171 38.2509 27.2171H43.3375C43.4655 27.2171 43.6734 27.3608 43.8014 27.4566C43.8334 27.5523 47.6884 36.9868 47.6884 36.9868C47.7204 37.0666 47.7844 37.1145 47.8643 37.1145C47.9443 37.1145 48.0083 37.0666 48.0403 36.9868C48.0403 36.9868 51.8153 27.5523 51.8473 27.4566C51.9752 27.3448 52.1832 27.2011 52.3112 27.2011L52.3431 27.2171Z" fill="#231F20"/>
<path d="M46.3443 5.34703C62.404 5.34703 75.4406 18.2934 75.8245 34.4006H86.2218C85.7259 18.07 68.0346 4.91602 46.3443 4.91602C24.654 4.91602 6.96267 18.0859 6.4668 34.4006H16.8641C17.232 18.2934 30.2845 5.34703 46.3443 5.34703Z" fill="#00A651"/>
<path d="M46.3443 64.8759C30.2845 64.8759 17.248 51.9295 16.8641 35.8223H6.4668C6.96267 52.1529 24.654 65.3069 46.3443 65.3069C68.0346 65.3069 85.7259 52.137 86.2218 35.8223H75.8245C75.4566 51.9295 62.404 64.8759 46.3443 64.8759Z" fill="#00A651"/>
<path d="M22.462 47.4905C22.462 47.4905 22.4301 47.5384 22.3661 47.5384C22.3341 47.5384 22.3181 47.5384 22.3021 47.5384C22.2701 47.5384 22.2541 47.5544 22.2381 47.5703L21.9022 47.7459L23.0699 49.901L22.606 50.1564L21.1504 47.4586L22.1741 46.8999L22.3501 47.2191C22.4141 47.3468 22.462 47.4426 22.462 47.4746V47.4905ZM24.1576 47.698C24.1256 47.9215 24.0296 48.0652 23.8537 48.161C23.6777 48.2568 23.4858 48.2568 23.2938 48.161C23.0699 48.0492 22.8779 47.8577 22.718 47.5384C22.574 47.2511 22.51 46.9956 22.542 46.7722C22.574 46.5646 22.686 46.405 22.8619 46.3092C23.0379 46.2134 23.2138 46.2134 23.4218 46.3092C23.6297 46.405 23.8217 46.5966 23.9656 46.8679C24.1256 47.1712 24.2056 47.4426 24.1736 47.6821L24.1576 47.698ZM23.3738 46.8679C23.3738 46.8679 23.2138 46.836 23.1339 46.8679C23.0539 46.8999 23.0219 46.9637 23.0059 47.0595C23.0059 47.1553 23.0059 47.267 23.0859 47.3788C23.1499 47.5065 23.2298 47.5863 23.3098 47.6182C23.3898 47.6502 23.4698 47.6502 23.5498 47.6182C23.6297 47.5703 23.6777 47.5065 23.6777 47.4267C23.6777 47.3309 23.6617 47.2351 23.5977 47.1074C23.5338 46.9797 23.4538 46.8999 23.3738 46.8679ZM25.9811 48.1291C25.9811 48.1291 26.0131 48.2248 26.0131 48.2408C26.0131 48.2568 26.0131 48.2727 25.9811 48.2887C25.9811 48.2887 25.9491 48.2887 25.9011 48.3047C25.8691 48.3047 25.8372 48.3047 25.8052 48.3206C25.7732 48.3206 25.7252 48.3366 25.6932 48.3685L24.7814 48.8634L25.0374 49.3263L24.5575 49.5977L24.3016 49.1188L23.3898 49.6137L23.0859 49.0709L25.7092 47.6502L25.8532 47.9056C25.9011 48.0013 25.9491 48.0812 25.9651 48.1291H25.9811ZM25.0534 47.7619L24.6535 47.9854L23.4538 45.7665L23.8537 45.543L25.0534 47.7619ZM25.2773 46.9318L24.8774 47.1553L24.2696 46.0378L24.6695 45.8143L25.2773 46.9318Z" fill="#231F20"/>
<path d="M27.4851 53.2063L26.3973 51.8654L25.8695 52.2804L26.6853 53.3021L25.5176 54.2439L25.1337 53.765L25.8855 53.1584L24.2539 51.1151L24.6698 50.7958L25.5016 51.8175L26.0294 51.4024L24.9737 50.0775L25.3896 49.7422L27.1811 51.9771C27.2771 51.9292 27.3731 51.8654 27.501 51.7696C27.613 51.7057 27.709 51.6419 27.789 51.578L26.2054 49.6145L26.6213 49.2793L28.6367 51.7696C28.4608 51.9133 28.2848 52.041 28.0929 52.1687C27.9009 52.2964 27.725 52.4081 27.597 52.472L27.9169 52.8871L27.501 53.2223L27.4851 53.2063Z" fill="#231F20"/>
<path d="M30.5884 53.9415C30.0605 54.5481 29.5326 54.9472 29.0048 55.1228C28.5089 55.2984 27.9171 55.3143 27.2293 55.2026C27.2293 55.0909 27.2293 54.9631 27.2293 54.8674C27.2293 54.7397 27.2293 54.6279 27.1973 54.5162C27.6132 54.7077 28.061 54.7397 28.5409 54.6119C29.0208 54.4842 29.4047 54.2608 29.7086 53.9096L28.7329 53.0635L29.0848 52.6484L30.5724 53.9415H30.5884ZM31.98 54.7237C31.98 54.7237 31.98 54.7716 31.932 54.7875C31.9 54.7875 31.884 54.8195 31.868 54.8195C31.836 54.8354 31.82 54.8674 31.7881 54.8833L29.3087 57.7248L28.8448 57.3098L31.5001 54.2608L31.7881 54.5002C31.9 54.596 31.964 54.6598 31.98 54.6918V54.7237Z" fill="#231F20"/>
<path d="M35.0029 56.6389C35.0029 56.6389 35.0029 56.7028 34.9549 56.7507C34.9229 56.7826 34.9069 56.7986 34.8909 56.8145C34.8749 56.8465 34.8429 56.8624 34.8269 56.8943L32.9874 59.9753L32.4755 59.672L33.1473 58.5386L32.7474 58.2991L33.0034 57.8681L33.4033 58.1076L33.7232 57.5808L33.3393 57.3573C33.0514 57.6766 32.7474 57.916 32.4115 58.0757C32.0436 58.2512 31.6117 58.3311 31.1159 58.3311C31.1159 58.2353 31.0999 58.1395 31.0839 58.0278C31.0679 57.932 31.0359 57.8202 31.0039 57.7245C31.4838 57.7883 31.9317 57.7085 32.3476 57.4531C32.6835 57.2455 32.9714 56.9422 33.2113 56.5591L32.2516 55.9844L32.5235 55.5215L34.0271 56.4154C33.9631 56.5112 33.9151 56.607 33.8512 56.7028C33.7872 56.7986 33.7232 56.8784 33.6752 56.9742L33.9951 57.1657L34.491 56.3356L34.7949 56.5112C34.9229 56.591 35.0029 56.6389 35.0188 56.6709L35.0029 56.6389ZM35.8026 57.0699C35.8026 57.0699 35.8026 57.1178 35.7547 57.1498C35.7227 57.1657 35.7067 57.1817 35.6907 57.1977C35.6747 57.2296 35.6587 57.2455 35.6427 57.2775L33.7232 60.5021L33.1953 60.1988L35.2588 56.7187L35.5947 56.9103C35.7227 56.9901 35.7866 57.038 35.8026 57.0699Z" fill="#231F20"/>
<path d="M36.3464 60.1499C36.3464 60.1499 36.3464 60.2138 36.3144 60.2617C36.2984 60.2936 36.2824 60.3096 36.2664 60.3255C36.2664 60.3575 36.2344 60.3734 36.2344 60.4054L36.0744 60.8523L38.5538 61.7623L38.3778 62.2571L35.3066 61.1237L35.7545 59.9105L36.1064 60.0382C36.2504 60.0861 36.3304 60.134 36.3624 60.1659L36.3464 60.1499ZM38.4418 58.2822L38.2499 58.7771L37.5141 58.5057L37.4661 58.6334C37.3701 58.8409 37.3541 59.0644 37.4341 59.3358C37.5141 59.6231 37.674 59.8307 37.914 59.9743C37.834 60.0063 37.738 60.0542 37.658 60.118C37.578 60.1659 37.4981 60.2298 37.4021 60.3096C37.2421 60.1659 37.1302 59.9743 37.0342 59.7668C36.9542 59.5753 36.9062 59.3837 36.8902 59.2081C36.8102 59.3039 36.6503 59.3997 36.4263 59.4954C36.1864 59.5912 35.9465 59.6551 35.6905 59.687C35.6585 59.5912 35.6266 59.4954 35.5786 59.3837C35.5306 59.272 35.4826 59.1762 35.4186 59.0964C35.5626 59.1283 35.7225 59.1283 35.8825 59.0964C36.0265 59.0644 36.1704 59.0325 36.3144 58.9527C36.4423 58.8888 36.5543 58.809 36.6503 58.7292C36.7463 58.6494 36.8102 58.5696 36.8422 58.4897L36.9222 58.2822L36.1384 57.9949L36.3304 57.5L38.4258 58.2662L38.4418 58.2822ZM39.7215 58.5696C39.7215 58.5696 39.7215 58.6334 39.6895 58.6813C39.6575 58.7132 39.6415 58.7292 39.6255 58.7611C39.5935 58.793 39.5775 58.825 39.5615 58.8729L38.6658 61.2834L38.0739 61.0758L38.5858 59.687L37.9299 59.4476L38.1059 58.9686L38.7617 59.2081L39.0816 58.3301L39.4016 58.4418C39.5775 58.5057 39.6735 58.5536 39.7055 58.5855L39.7215 58.5696Z" fill="#231F20"/>
<path d="M42.3612 59.4153C42.2173 60.1975 41.9773 60.8041 41.6254 61.2511C41.2895 61.6502 40.7936 61.9854 40.1378 62.2409C40.0738 62.1451 40.0258 62.0333 39.9619 61.9375C39.8979 61.8258 39.8179 61.73 39.7539 61.6662C40.2018 61.6183 40.6017 61.4108 40.9536 61.0596C41.2895 60.7084 41.5134 60.3093 41.5934 59.8463L40.3138 59.6228L40.4097 59.0801L42.3612 59.4153ZM43.9448 59.3674C43.9448 59.3674 43.9608 59.4153 43.9448 59.4632C43.9288 59.4951 43.9128 59.5111 43.9128 59.5271C43.9128 59.559 43.8968 59.5909 43.8808 59.6228L43.241 63.3264L42.6171 63.2146L43.305 59.2238L43.6729 59.2876C43.8328 59.3195 43.9128 59.3355 43.9448 59.3515V59.3674Z" fill="#231F20"/>
<path d="M47.0152 59.5923V60.135H46.2315V60.2787C46.2155 60.5022 46.2954 60.7257 46.4554 60.9332C46.6313 61.1727 46.8553 61.3004 47.1272 61.3483C47.0632 61.4121 46.9992 61.4919 46.9353 61.5718C46.8713 61.6516 46.8233 61.7314 46.7753 61.8272C46.5834 61.7474 46.4074 61.6197 46.2315 61.46C46.0875 61.3163 45.9755 61.1567 45.8955 60.9811C45.8635 61.1088 45.7516 61.2525 45.5596 61.4121C45.3677 61.5877 45.1757 61.7314 44.9518 61.8431C44.8878 61.7633 44.8238 61.6835 44.7438 61.6037C44.6639 61.5239 44.5839 61.4441 44.5039 61.3962C44.6479 61.3802 44.8078 61.3164 44.9518 61.2365C45.0798 61.1567 45.1917 61.0609 45.3037 60.9492C45.3997 60.8374 45.4796 60.7257 45.5436 60.614C45.6076 60.5022 45.6396 60.4064 45.6396 60.3266V60.1191H44.7918V59.5763L47.0152 59.5444V59.5923ZM45.7356 62.0826C45.7356 62.0826 45.7676 62.1305 45.7356 62.1943C45.7356 62.2263 45.7196 62.2422 45.7196 62.2582C45.7196 62.2901 45.7196 62.322 45.7196 62.338V62.801L48.3749 62.769V63.2958L45.1117 63.3437V62.0507H45.4637C45.6236 62.0507 45.7196 62.0507 45.7516 62.0826H45.7356ZM48.3109 59.4007C48.3109 59.4007 48.3429 59.4486 48.3109 59.5125C48.2949 59.5444 48.2789 59.5763 48.2789 59.6083C48.2789 59.6561 48.2629 59.6881 48.2629 59.736L48.2949 62.3061H47.6711L47.6551 60.8215H46.9513V60.3266H47.6551V59.3848H47.991C48.1829 59.3848 48.2789 59.3848 48.3269 59.4007H48.3109Z" fill="#231F20"/>
<path d="M51.5424 59.1922L51.6384 59.703L50.7746 59.8627L50.8066 60.0223C50.8866 60.4214 51.0305 60.7886 51.2705 61.0919C51.5264 61.4271 51.8143 61.6506 52.1343 61.7304C52.0703 61.7942 52.0063 61.8741 51.9423 61.9858C51.8783 62.0816 51.8303 62.1614 51.7983 62.2572C51.5584 62.1454 51.3345 62.0018 51.1425 61.8102C50.9346 61.6027 50.7906 61.3632 50.6786 61.1078C50.6626 61.3952 50.5987 61.6825 50.4707 61.9699C50.3587 62.2253 50.1988 62.4647 50.0068 62.6722C49.9268 62.6084 49.8309 62.5445 49.7349 62.4807C49.6229 62.4168 49.5429 62.353 49.447 62.321C49.7509 62.0976 49.9588 61.7623 50.1028 61.3153C50.2308 60.9003 50.2628 60.5012 50.1988 60.15L50.1668 59.9904L49.303 60.15L49.207 59.6392L51.5424 59.1922ZM52.4062 58.7133C52.4062 58.7133 52.4382 58.7612 52.4222 58.825C52.4222 58.8729 52.4222 58.9049 52.4062 58.9208C52.4062 58.9687 52.4062 59.0006 52.4062 59.0485L52.6781 60.4374L53.206 60.3416L53.3019 60.8843L52.7741 60.9801L53.094 62.6722L52.4862 62.784L51.7184 58.8091L52.0543 58.7452C52.2302 58.7133 52.3422 58.6973 52.3742 58.7133H52.4062Z" fill="#231F20"/>
<path d="M54.7886 58.1717C54.7886 58.1717 54.8206 58.2196 54.8206 58.2994C54.8206 58.3314 54.8206 58.3633 54.8206 58.3633C54.8206 58.3952 54.8206 58.4112 54.8206 58.4431C54.8206 58.5069 54.8526 58.5868 54.8846 58.6825C54.9166 58.7783 54.9646 58.8901 55.0126 59.0337C55.1246 59.3051 55.3325 59.5765 55.6844 59.8638C56.0363 60.1512 56.3722 60.3108 56.6921 60.3587C56.6442 60.4385 56.5802 60.5343 56.5322 60.6461C56.4682 60.7578 56.4362 60.8695 56.4042 60.9494C56.1803 60.8855 55.9243 60.7578 55.6204 60.5343C55.3325 60.3268 55.1565 60.1512 55.0446 59.9756C55.0606 60.1991 55.0446 60.4545 55.0126 60.7418C54.9646 61.093 54.8686 61.3804 54.7247 61.6039C54.6447 61.5719 54.5487 61.54 54.4367 61.5081C54.3248 61.4762 54.2288 61.4442 54.1328 61.4283C54.3727 61.0611 54.4847 60.6141 54.5007 60.1193C54.5007 59.5925 54.3887 59.0178 54.1488 58.3792L54.4847 58.2515C54.6447 58.1877 54.7407 58.1557 54.7886 58.1717ZM56.6441 57.166C56.6441 57.166 56.6761 57.1979 56.6761 57.2458C56.6761 57.2778 56.6761 57.3097 56.6761 57.3256C56.6761 57.3576 56.6761 57.3895 56.7081 57.4214L58.0838 60.9334L57.5079 61.1569L56.0363 57.3895L56.3882 57.2618C56.5322 57.2139 56.6282 57.182 56.6601 57.182L56.6441 57.166Z" fill="#231F20"/>
<path d="M59.7649 56.0005L60.0048 56.3836L57.8454 57.7086L57.6055 57.3255L59.7649 56.0005ZM58.9331 55.8568L59.1731 56.24L58.1013 56.9104L57.8614 56.5273L58.9331 55.8568ZM59.7489 56.8945C59.9568 56.8945 60.1168 56.9743 60.2128 57.118C60.3088 57.2616 60.3088 57.4372 60.2128 57.6288C60.1168 57.8523 59.9249 58.0438 59.6209 58.2194C59.349 58.3791 59.0931 58.4589 58.8691 58.4429C58.6612 58.4429 58.5172 58.3472 58.4213 58.2035C58.3253 58.0598 58.3253 57.8842 58.4213 57.6926C58.5172 57.4851 58.6932 57.2936 58.9651 57.1339C59.253 56.9583 59.525 56.8625 59.7649 56.8625L59.7489 56.8945ZM58.9491 57.6926C58.9491 57.6926 58.9171 57.8363 58.9491 57.9002C58.9811 57.964 59.0451 57.98 59.1251 57.98C59.221 57.98 59.333 57.9481 59.445 57.8842C59.5569 57.8204 59.6369 57.7405 59.6689 57.6448C59.7009 57.5649 59.7009 57.5011 59.6689 57.4372C59.6369 57.3734 59.5729 57.3414 59.477 57.3414C59.381 57.3414 59.285 57.3734 59.1571 57.4532C59.0451 57.5171 58.9651 57.5969 58.9171 57.6926H58.9491ZM61.6844 57.1339L62.4682 58.395L61.9403 58.7303L61.8923 58.6505L60.2448 59.6721L60.2928 59.7519L59.7649 60.0872L58.9971 58.8261L61.7164 57.1499L61.6844 57.1339ZM59.9728 59.2571L61.6204 58.2354L61.3965 57.8682L59.7489 58.8899L59.9728 59.2571ZM60.2608 55.0108C60.2608 55.0108 60.3567 54.9789 60.3727 54.9629C60.3887 54.9629 60.4047 54.9629 60.4207 54.9789C60.4207 54.9789 60.4207 55.0108 60.4367 55.0587C60.4367 55.0906 60.4367 55.1225 60.4527 55.1545C60.4527 55.2023 60.4847 55.2343 60.5007 55.2662L61.6204 57.0701L61.0925 57.4053L60.7726 56.8785L60.3567 57.1339L60.0848 56.7029L60.5007 56.4475L59.7809 55.2822L60.0368 55.1225C60.1328 55.0587 60.1968 55.0267 60.2448 54.9948L60.2608 55.0108Z" fill="#231F20"/>
<path d="M62.707 53.5086C62.9789 53.5246 63.2188 53.6683 63.4268 53.8918C63.6347 54.1312 63.7467 54.3707 63.7307 54.6421C63.7307 54.9454 63.5867 55.2167 63.3148 55.4562C63.0429 55.6956 62.7549 55.8074 62.451 55.7914C62.1791 55.7595 61.9392 55.6318 61.7312 55.4083C61.5233 55.1848 61.4113 54.9294 61.4273 54.658C61.4273 54.3547 61.5712 54.0993 61.8432 53.8439C62.1151 53.5885 62.403 53.4767 62.691 53.5086H62.707ZM62.0191 54.5942C62.0191 54.7219 62.0991 54.8496 62.2111 54.9773C62.3231 55.105 62.451 55.1848 62.579 55.2167C62.7229 55.2487 62.8509 55.2008 62.9789 55.089C63.1068 54.9773 63.1708 54.8496 63.1548 54.7059C63.1548 54.5782 63.0908 54.4345 62.9629 54.3068C62.8509 54.1791 62.7229 54.0993 62.595 54.0833C62.467 54.0674 62.3231 54.1153 62.1951 54.227C62.0671 54.3387 62.0031 54.4665 62.0191 54.6101V54.5942ZM63.6827 52.1039C63.6827 52.1039 63.7307 52.1358 63.7627 52.1996C63.7627 52.2316 63.7787 52.2635 63.7947 52.2795C63.7947 52.3114 63.8267 52.3433 63.8427 52.3593L65.6342 54.3387L65.1703 54.7538L64.5305 54.0514L64.0186 54.4984L63.6827 54.1153L64.1946 53.6683L63.8427 53.2852L63.3308 53.7321L62.9789 53.349L63.4907 52.8861L63.1548 52.5189L63.4268 52.2635C63.5547 52.1517 63.6347 52.0879 63.6827 52.0879V52.1039ZM63.5067 55.8234C63.5067 55.8234 63.5547 55.8393 63.5867 55.9032C63.5867 55.9351 63.6187 55.9511 63.6187 55.967C63.6187 55.999 63.6507 56.0149 63.6667 56.0309L63.9866 56.3821L65.9541 54.6101L66.306 55.0092L63.8746 57.1962L63.0109 56.2384L63.2828 55.999C63.3948 55.9032 63.4747 55.8393 63.5067 55.8393V55.8234Z" fill="#231F20"/>
<path d="M68.3229 49.9008L67.2672 51.2737L68.6748 52.3592L68.2909 52.8541L66.8993 51.7686L65.8595 53.1095L65.4437 52.7902L67.1552 50.5713C67.0432 50.4276 66.9153 50.2999 66.7873 50.1722C66.6593 50.0445 66.5314 49.9328 66.3874 49.821L64.8358 51.8324L64.4199 51.5131L66.4034 48.959C66.6273 49.1346 66.8193 49.2942 67.0112 49.4698C67.2032 49.6454 67.3791 49.837 67.5551 50.0605L67.923 49.5975L68.3389 49.9168L68.3229 49.9008Z" fill="#231F20"/>
<path d="M67.9863 46.3738C68.1943 46.2781 68.3862 46.2781 68.5782 46.3738C68.7541 46.4696 68.8661 46.6293 68.9141 46.8527C68.9621 47.1082 68.9141 47.3795 68.7541 47.6828C68.5942 47.9862 68.4022 48.1937 68.1623 48.3054C67.9544 48.4012 67.7624 48.4012 67.5865 48.3054C67.3945 48.2096 67.2825 48.05 67.2346 47.8265C67.1866 47.5711 67.2345 47.2997 67.3945 46.9964C67.5545 46.6931 67.7464 46.4856 67.9704 46.3898L67.9863 46.3738ZM67.7144 47.5392C67.7304 47.635 67.7784 47.7148 67.8744 47.7627C67.9544 47.8106 68.0343 47.7946 68.1303 47.7627C68.2263 47.7148 68.3063 47.619 68.3702 47.4913C68.4342 47.3636 68.4662 47.2518 68.4342 47.1561C68.4182 47.0603 68.3702 46.9964 68.2903 46.9485C68.2103 46.9006 68.1143 46.9006 68.0183 46.9485C67.9224 46.9964 67.8424 47.0762 67.7784 47.2039C67.7144 47.3316 67.6824 47.4594 67.6984 47.5711L67.7144 47.5392ZM68.3542 45.0169C68.3542 45.0169 68.4182 44.9371 68.4342 44.9212C68.4502 44.9212 68.4662 44.9052 68.4822 44.9212C68.4822 44.9212 68.5142 44.9531 68.5302 44.985C68.5622 45.0169 68.5782 45.0329 68.5942 45.0489C68.6262 45.0808 68.6582 45.0968 68.6902 45.1287L71.1215 46.3898L70.8336 46.9485L70.5137 46.7889L70.1618 47.4753L69.7139 47.2518L70.0658 46.5654L68.0663 45.5278L68.2103 45.2564C68.2583 45.1606 68.2903 45.0968 68.3223 45.0329L68.3542 45.0169ZM68.8021 47.7786C69.0581 47.2518 69.266 46.8049 69.426 46.4537C69.5219 46.4856 69.6019 46.5175 69.6499 46.5335C69.7459 46.5654 69.8099 46.5973 69.8738 46.6133L69.426 47.603L69.9058 47.8584L69.6179 48.4012L69.138 48.1617C69.0741 48.2895 69.0261 48.3852 68.9781 48.497C68.9141 48.6247 68.8661 48.7364 68.8341 48.8482C68.8181 48.8801 68.8021 48.912 68.8021 48.944C68.8021 48.9599 68.8021 48.9918 68.8021 49.0238C68.8021 49.0717 68.7861 49.1036 68.7701 49.1196C68.7541 49.1196 68.7062 49.1196 68.6262 49.1196L68.2263 48.9919C68.4662 48.497 68.6742 48.0819 68.8181 47.7786H68.8021ZM69.7139 48.4651C69.7139 48.4651 69.7779 48.4651 69.8099 48.5129C69.8259 48.5289 69.8419 48.5449 69.8579 48.5608C69.8739 48.5768 69.9058 48.5928 69.9218 48.6087L70.2578 48.7843L71.4254 46.5494L71.8893 46.7889L70.4337 49.5825L69.394 49.0397L69.5539 48.7205C69.6179 48.5928 69.6819 48.5129 69.7139 48.481V48.4651Z" fill="#231F20"/>
<path d="M46.0082 69.8568C71.0532 69.8568 91.3562 54.2547 91.3562 35.0085C91.3562 15.7623 71.0532 0.160156 46.0082 0.160156C20.9632 0.160156 0.660156 15.7623 0.660156 35.0085C0.660156 54.2547 20.9632 69.8568 46.0082 69.8568Z" stroke="#231F20" stroke-width="0.2"/>
</g>
<defs>
<clipPath id="clip0_110_13112">
<rect width="91" height="70" fill="white" transform="translate(0.5)"/>
</clipPath>
</defs>
</svg>
