<svg width="56" height="43" viewBox="0 0 56 43" fill="none" xmlns="http://www.w3.org/2000/svg">
<g clip-path="url(#clip0_110_16011)">
<path d="M0.580153 19.2525L0.570312 21.0078L0.727807 21.0087L0.737648 19.2534L0.580153 19.2525Z" fill="#FFF200" stroke="#FFF200" stroke-width="0.15"/>
<path d="M9.79234 19.2188H9.63484L9.625 20.9839H9.7825L9.79234 20.3661L10.0876 20.0621L10.7865 20.9839H10.9933L10.1959 19.9542L10.9145 19.2286H10.7078L9.79234 20.1601V19.2188Z" fill="#FFF200" stroke="#FFF200" stroke-width="0.15"/>
<path d="M12.6872 20.8563L11.6536 20.8465L11.6634 20.1601H12.569V20.0228L11.6634 20.013V19.3756L12.6576 19.3854V19.2383L11.5059 19.2285L11.4961 20.9936H12.6872V20.8563Z" fill="#FFF200" stroke="#FFF200" stroke-width="0.15"/>
<path d="M13.7986 21.0053L13.8084 19.3873H14.3597V19.25L13.0898 19.2402V19.3873H13.6411L13.6312 21.0053H13.7986Z" fill="#FFF200" stroke="#FFF200" stroke-width="0.15"/>
<path d="M14.8406 19.2486L14.832 21.0039L14.9895 21.0047L14.9981 19.2494L14.8406 19.2486Z" fill="#FFF200" stroke="#FFF200" stroke-width="0.15"/>
<path d="M25.0522 20.9839H25.2589L24.4616 19.9542L25.1801 19.2286H24.9734L24.058 20.1601V19.2188H23.9005L23.8906 20.9839H24.0481L24.058 20.3661L24.3533 20.0621L25.0522 20.9839Z" fill="#FFF200" stroke="#FFF200" stroke-width="0.15"/>
<path d="M26.9528 20.8563L25.9192 20.8465L25.9291 20.1601H26.8347V20.0228L25.9291 20.013V19.3756L26.9233 19.3854L26.9331 19.2383L25.7716 19.2285L25.7617 20.9936H26.9528V20.8563Z" fill="#FFF200" stroke="#FFF200" stroke-width="0.15"/>
<path d="M28.0642 21.0053L28.074 19.3873H28.6253V19.25L27.3653 19.2402L27.3555 19.3873H27.9067V21.0053H28.0642Z" fill="#FFF200" stroke="#FFF200" stroke-width="0.15"/>
<path d="M29.1063 19.2486L29.0977 21.0039L29.2552 21.0047L29.2638 19.2494L29.1063 19.2486Z" fill="#FFF200" stroke="#FFF200" stroke-width="0.15"/>
<path d="M39.3237 20.9839H39.5206L38.7233 19.9542L39.4418 19.2286H39.2351L38.3197 20.1601V19.2188H38.1622L38.1523 20.9839H38.3098L38.3197 20.3661L38.615 20.0621L39.3237 20.9839Z" fill="#FFF200" stroke="#FFF200" stroke-width="0.15"/>
<path d="M41.2145 20.8563L40.1908 20.8465V20.1601H41.0964V20.0228L40.1908 20.013V19.3756L41.1948 19.3854V19.2383L40.0333 19.2285L40.0234 20.9936H41.2145V20.8563Z" fill="#FFF200" stroke="#FFF200" stroke-width="0.15"/>
<path d="M42.3259 21.0053L42.3358 19.3873H42.887V19.25L41.627 19.2402L41.6172 19.3873H42.1684V21.0053H42.3259Z" fill="#FFF200" stroke="#FFF200" stroke-width="0.15"/>
<path d="M43.3719 19.2486L43.3633 21.0039L43.5208 21.0047L43.5294 19.2494L43.3719 19.2486Z" fill="#FFF200" stroke="#FFF200" stroke-width="0.15"/>
<path d="M52.5853 20.3661L52.8806 20.0621L53.5893 20.9839H53.7862L52.9889 19.9542L53.7075 19.2286H53.5008L52.5853 20.1601V19.2188H52.4278L52.418 20.9839H52.5755L52.5853 20.3661Z" fill="#FFF200" stroke="#FFF200" stroke-width="0.15"/>
<path d="M55.4762 20.8563L54.4525 20.8465V20.1601H55.3581V20.0228L54.4525 20.013V19.3756L55.4565 19.3854V19.2383L54.295 19.2285L54.2852 20.9936H55.4762V20.8563Z" fill="#FFF200" stroke="#FFF200" stroke-width="0.15"/>
<path d="M2.32325 23.8081L1.53577 22.7686L2.25435 22.043H2.03779L1.12234 22.9746L1.13218 22.043H0.974687L0.964844 23.7983H1.12234V23.1805L1.41765 22.8863L2.12638 23.8081H2.32325Z" fill="#FFF200" stroke="#FFF200" stroke-width="0.15"/>
<path d="M2.99343 22.9745L3.90889 22.9843V22.8372H2.99343L3.00328 22.1998H3.99748V22.0527H2.83594V23.808L4.01716 23.8178V23.6707H2.99343V22.9745Z" fill="#FFF200" stroke="#FFF200" stroke-width="0.15"/>
<path d="M4.42969 22.1998L4.98093 22.2096L4.97108 23.8178H5.13842V22.2096H5.68966L5.69951 22.0625L4.42969 22.0527V22.1998Z" fill="#FFF200" stroke="#FFF200" stroke-width="0.15"/>
<path d="M6.17658 22.067L6.16797 23.8223L6.32546 23.823L6.33407 22.0678L6.17658 22.067Z" fill="#FFF200" stroke="#FFF200" stroke-width="0.15"/>
<path d="M16.3881 23.8081H16.585L15.7975 22.7686L16.5161 22.043H16.2995L15.3841 22.9746L15.3939 22.043H15.2364L15.2266 23.7983H15.3841V23.1805L15.6794 22.8863L16.3881 23.8081Z" fill="#FFF200" stroke="#FFF200" stroke-width="0.15"/>
<path d="M18.2887 23.6707H17.2552V22.9745L18.1706 22.9843V22.8372H17.2552L17.265 22.1998H18.2592V22.0527H17.1075L17.0977 23.808L18.2887 23.8178V23.6707Z" fill="#FFF200" stroke="#FFF200" stroke-width="0.15"/>
<path d="M19.4001 23.8178V22.2096H19.9612V22.0625L18.6914 22.0527V22.1998L19.2426 22.2096L19.2328 23.8178H19.4001Z" fill="#FFF200" stroke="#FFF200" stroke-width="0.15"/>
<path d="M20.4422 22.067L20.4336 23.8223L20.5911 23.823L20.5997 22.0678L20.4422 22.067Z" fill="#FFF200" stroke="#FFF200" stroke-width="0.15"/>
<path d="M29.502 22.043L29.4922 23.7983H29.6497V23.1805L29.945 22.8863L30.6537 23.8081H30.8506L30.0631 22.7686L30.7817 22.043H30.575L29.6595 22.9746V22.043H29.502Z" fill="#FFF200" stroke="#FFF200" stroke-width="0.15"/>
<path d="M32.5504 23.6707H31.5169L31.5267 22.9745L32.4323 22.9843V22.8372H31.5267V22.1998H32.5209V22.0527H31.3692L31.3594 23.808L32.5504 23.8178V23.6707Z" fill="#FFF200" stroke="#FFF200" stroke-width="0.15"/>
<path d="M33.6658 23.8178V22.2096H34.2269V22.0625L32.957 22.0527V22.1998L33.5083 22.2096L33.4984 23.8178H33.6658Z" fill="#FFF200" stroke="#FFF200" stroke-width="0.15"/>
<path d="M34.7039 22.067L34.6953 23.8223L34.8528 23.823L34.8614 22.0678L34.7039 22.067Z" fill="#FFF200" stroke="#FFF200" stroke-width="0.15"/>
<path d="M44.9154 23.8081H45.1123L44.3248 22.7686L45.0434 22.043H44.8367L43.9212 22.9746V22.043H43.7637L43.7539 23.7983H43.9114L43.9212 23.1805L44.2067 22.8863L44.9154 23.8081Z" fill="#FFF200" stroke="#FFF200" stroke-width="0.15"/>
<path d="M45.7923 22.9745L46.6979 22.9843V22.8372H45.7923V22.1998H46.7865V22.0527H45.6348L45.625 23.808L46.8161 23.8178V23.6707H45.7825L45.7923 22.9745Z" fill="#FFF200" stroke="#FFF200" stroke-width="0.15"/>
<path d="M47.2188 22.1998L47.77 22.2096L47.7601 23.8178H47.9275L47.9373 22.2096H48.4886V22.0625L47.2188 22.0527V22.1998Z" fill="#FFF200" stroke="#FFF200" stroke-width="0.15"/>
<path d="M48.9695 22.067L48.9609 23.8223L49.1184 23.823L49.127 22.0678L48.9695 22.067Z" fill="#FFF200" stroke="#FFF200" stroke-width="0.15"/>
<path d="M2.17375 15.3667H2.33124V13.7487H2.88248V13.6016H2.01625C2.01625 13.6016 1.96703 13.6898 1.9375 13.7388H2.1639V15.3569L2.17375 15.3667Z" fill="#FFF200" stroke="#FFF200" stroke-width="0.15"/>
<path d="M3.37404 13.61L3.36328 15.3652L3.52078 15.3662L3.53154 13.6109L3.37404 13.61Z" fill="#FFF200" stroke="#FFF200" stroke-width="0.15"/>
<path d="M13.5933 15.3471H13.7901L12.9928 14.3175L13.7114 13.5918H13.5047L12.5892 14.5234V13.582H12.4317L12.4219 15.3471H12.5794L12.5892 14.7294L12.8845 14.4254L13.5933 15.3471Z" fill="#FFF200" stroke="#FFF200" stroke-width="0.15"/>
<path d="M15.4644 13.7487V13.6016L14.3028 13.5918L14.293 15.3569H15.484V15.2196L14.4603 15.2098V14.5234H15.3659V14.3861L14.4603 14.3763V13.7389L15.4644 13.7487Z" fill="#FFF200" stroke="#FFF200" stroke-width="0.15"/>
<path d="M15.8984 13.7487H16.4398V15.3667H16.5973L16.6072 13.7487H17.1584V13.6114L15.8984 13.6016V13.7487Z" fill="#FFF200" stroke="#FFF200" stroke-width="0.15"/>
<path d="M17.6414 13.6119L17.6328 15.3672L17.7903 15.368L17.7989 13.6127L17.6414 13.6119Z" fill="#FFF200" stroke="#FFF200" stroke-width="0.15"/>
<path d="M27.8589 15.3471H28.0558L27.2584 14.3175L27.977 13.5918H27.7703L26.8548 14.5234V13.582H26.6973L26.6875 15.3471H26.8548V14.7294L27.1501 14.4254L27.8589 15.3471Z" fill="#FFF200" stroke="#FFF200" stroke-width="0.15"/>
<path d="M28.5547 15.3569H29.7458V15.2196L28.722 15.2098V14.5234H29.6276L29.6375 14.3861L28.722 14.3763V13.7389L29.7261 13.7487V13.6016L28.5645 13.5918L28.5547 15.3569Z" fill="#FFF200" stroke="#FFF200" stroke-width="0.15"/>
<path d="M30.1602 13.7487H30.7114L30.7016 15.3667H30.859L30.8689 13.7487H31.4201V13.6114L30.1602 13.6016V13.7487Z" fill="#FFF200" stroke="#FFF200" stroke-width="0.15"/>
<path d="M31.8953 13.6119L31.8867 15.3672L32.0442 15.368L32.0528 13.6127L31.8953 13.6119Z" fill="#FFF200" stroke="#FFF200" stroke-width="0.15"/>
<path d="M42.1206 15.3471H42.3175L41.5201 14.3175L42.2387 13.5918H42.032L41.1166 14.5234L41.1264 13.582H40.9591L40.9492 15.3471H41.1166V14.7294L41.4119 14.4254L42.1206 15.3471Z" fill="#FFF200" stroke="#FFF200" stroke-width="0.15"/>
<path d="M43.9917 13.7487V13.6016L42.8302 13.5918L42.8203 15.3569H44.0114V15.2196L42.9877 15.2098V14.5234H43.9031V14.3861L42.9877 14.3763V13.7389L43.9917 13.7487Z" fill="#FFF200" stroke="#FFF200" stroke-width="0.15"/>
<path d="M45.1306 13.7487H45.6819V13.6114L44.4219 13.6016V13.7487H44.9731L44.9633 15.3667H45.1208L45.1306 13.7487Z" fill="#FFF200" stroke="#FFF200" stroke-width="0.15"/>
<path d="M46.161 13.6119L46.1523 15.3672L46.3098 15.368L46.3184 13.6127L46.161 13.6119Z" fill="#FFF200" stroke="#FFF200" stroke-width="0.15"/>
<path d="M3.91922 17.5438L4.21452 17.2496L4.92326 18.1714H5.12013L4.33265 17.1319L5.05122 16.4062H4.84451L3.92906 17.3378V16.4062H3.77156L3.76172 18.1616H3.91922V17.5438Z" fill="#FFF200" stroke="#FFF200" stroke-width="0.15"/>
<path d="M6.81998 18.034H5.7864L5.79625 17.3378L6.70185 17.3476V17.2005H5.79625V16.5631H6.79045V16.416H5.63875L5.62891 18.1713L6.81998 18.1811V18.034Z" fill="#FFF200" stroke="#FFF200" stroke-width="0.15"/>
<path d="M7.9353 18.1811L7.94514 16.5729H8.49638V16.4258L7.22656 16.416V16.5631L7.7778 16.5729L7.76796 18.1811H7.9353Z" fill="#FFF200" stroke="#FFF200" stroke-width="0.15"/>
<path d="M8.97736 16.4303L8.96875 18.1855L9.12625 18.1863L9.13486 16.431L8.97736 16.4303Z" fill="#FFF200" stroke="#FFF200" stroke-width="0.15"/>
<path d="M19.185 18.1714H19.3917L18.5944 17.1319L19.3129 16.4062H19.1062L18.1908 17.3378V16.4062H18.0333L18.0234 18.1616H18.1809L18.1908 17.5438L18.4762 17.2496L19.185 18.1714Z" fill="#FFF200" stroke="#FFF200" stroke-width="0.15"/>
<path d="M21.0856 18.034H20.052L20.0619 17.3378L20.9675 17.3476V17.2005H20.0619V16.5631H21.0561V16.416H19.9044L19.8945 18.1713L21.0856 18.1811V18.034Z" fill="#FFF200" stroke="#FFF200" stroke-width="0.15"/>
<path d="M22.7581 16.4258L21.4883 16.416V16.5631L22.0395 16.5729L22.0297 18.1811H22.197L22.2069 16.5729H22.7581V16.4258Z" fill="#FFF200" stroke="#FFF200" stroke-width="0.15"/>
<path d="M23.2391 16.4303L23.2305 18.1855L23.388 18.1863L23.3966 16.431L23.2391 16.4303Z" fill="#FFF200" stroke="#FFF200" stroke-width="0.15"/>
<path d="M33.4467 18.1714H33.6534L32.8561 17.1319L33.5747 16.4062H33.3679L32.4525 17.3378V16.4062H32.295L32.2852 18.1616H32.4427L32.4525 17.5438L32.7478 17.2496L33.4467 18.1714Z" fill="#FFF200" stroke="#FFF200" stroke-width="0.15"/>
<path d="M35.3473 18.034H34.3137L34.3236 17.3378L35.2292 17.3476V17.2005H34.3236V16.5631H35.3178V16.416H34.1661L34.1562 18.1713L35.3473 18.1811V18.034Z" fill="#FFF200" stroke="#FFF200" stroke-width="0.15"/>
<path d="M37.0198 16.4258L35.75 16.416V16.5631L36.3012 16.5729L36.2914 18.1811H36.4587L36.4686 16.5729H37.0198V16.4258Z" fill="#FFF200" stroke="#FFF200" stroke-width="0.15"/>
<path d="M37.5047 16.4303L37.4961 18.1855L37.6536 18.1863L37.6622 16.431L37.5047 16.4303Z" fill="#FFF200" stroke="#FFF200" stroke-width="0.15"/>
<path d="M46.5606 16.4062L46.5508 18.1616H46.7083L46.7181 17.5438L47.0134 17.2496L47.7123 18.1714H47.919L47.1217 17.1319L47.8403 16.4062H47.6336L46.7181 17.3378V16.4062H46.5606Z" fill="#FFF200" stroke="#FFF200" stroke-width="0.15"/>
<path d="M49.6129 18.034H48.5794L48.5892 17.3378L49.4948 17.3476V17.2005H48.5892V16.5631H49.5834L49.5933 16.416H48.4317L48.4219 18.1713L49.6129 18.1811V18.034Z" fill="#FFF200" stroke="#FFF200" stroke-width="0.15"/>
<path d="M50.7244 18.1811L50.7342 16.5729H51.2854V16.4258L50.0255 16.416L50.0156 16.5631L50.5669 16.5729V18.1811H50.7244Z" fill="#FFF200" stroke="#FFF200" stroke-width="0.15"/>
<path d="M51.7725 16.4322L51.7617 18.1875L51.9192 18.1885L51.93 16.4332L51.7725 16.4322Z" fill="#FFF200" stroke="#FFF200" stroke-width="0.15"/>
<path d="M5.345 9.66881V8.99219C5.29578 9.05102 5.23672 9.10986 5.1875 9.1687V9.66881H5.345Z" fill="#FFF200" stroke="#FFF200" stroke-width="0.15"/>
<path d="M6.38672 7.91406V7.95329C6.38672 7.95329 6.41625 7.92387 6.42609 7.91406H6.38672Z" fill="#FFF200" stroke="#FFF200" stroke-width="0.15"/>
<path d="M6.54609 9.67917V7.91406H6.43781C6.42797 7.92387 6.40828 7.94348 6.39844 7.95329V9.66936H6.54609V9.67917Z" fill="#FFF200" stroke="#FFF200" stroke-width="0.15"/>
<path d="M15.6009 9.03009L15.8962 8.73591L16.605 9.65769H16.8018L16.0045 8.61823L16.7231 7.89258H16.5164L15.6009 8.82416L15.6108 7.89258H15.4434L15.4336 9.64788H15.6009V9.03009Z" fill="#FFF200" stroke="#FFF200" stroke-width="0.15"/>
<path d="M18.4958 9.52231H17.472V8.82608L18.3875 8.83588V8.68879H17.472V8.05139H18.4761V7.9043H17.3145L17.3047 9.6596L18.4958 9.6694V9.52231Z" fill="#FFF200" stroke="#FFF200" stroke-width="0.15"/>
<path d="M19.609 9.6694L19.6189 8.0612H20.1701V7.9141L18.9102 7.9043V8.05139L19.4614 8.0612L19.4516 9.6694H19.609Z" fill="#FFF200" stroke="#FFF200" stroke-width="0.15"/>
<path d="M20.657 7.92636L20.6484 9.68164L20.8059 9.68241L20.8145 7.92713L20.657 7.92636Z" fill="#FFF200" stroke="#FFF200" stroke-width="0.15"/>
<path d="M29.8666 9.03009L30.1619 8.73591L30.8706 9.65769H31.0675L30.2701 8.61823L30.9887 7.89258H30.782L29.8666 8.82416L29.8764 7.89258H29.7091L29.6992 9.64788H29.8666V9.03009Z" fill="#FFF200" stroke="#FFF200" stroke-width="0.15"/>
<path d="M32.7575 9.52231H31.7337V8.82608L32.6492 8.83588V8.68879H31.7337V8.05139H32.7378V7.9043H31.5763L31.5664 9.6596L32.7575 9.6694V9.52231Z" fill="#FFF200" stroke="#FFF200" stroke-width="0.15"/>
<path d="M33.8708 9.6694L33.8806 8.0612H34.4318V7.9141L33.1719 7.9043V8.05139L33.7231 8.0612L33.7133 9.6694H33.8708Z" fill="#FFF200" stroke="#FFF200" stroke-width="0.15"/>
<path d="M34.9227 7.92636L34.9141 9.68164L35.0716 9.68241L35.0802 7.92713L34.9227 7.92636Z" fill="#FFF200" stroke="#FFF200" stroke-width="0.15"/>
<path d="M44.1283 9.03009L44.4236 8.73591L45.1323 9.65769H45.3292L44.5319 8.61823L45.2504 7.89258H45.0437L44.1283 8.82416L44.1381 7.89258H43.9708L43.9609 9.64788H44.1283V9.03009Z" fill="#FFF200" stroke="#FFF200" stroke-width="0.15"/>
<path d="M47.0231 9.52231H45.9994V8.82608L46.9148 8.83588V8.68879H45.9994L46.0092 8.05139H47.0034V7.9043H45.8419L45.832 9.6596L47.0231 9.6694V9.52231Z" fill="#FFF200" stroke="#FFF200" stroke-width="0.15"/>
<path d="M47.9789 9.6694H48.1364L48.1462 8.0612H48.6975V7.9141L47.4375 7.9043V8.05139L47.9887 8.0612L47.9789 9.6694Z" fill="#FFF200" stroke="#FFF200" stroke-width="0.15"/>
<path d="M49.1853 7.92246L49.1758 9.67773L49.3333 9.67858L49.3428 7.92331L49.1853 7.92246Z" fill="#FFF200" stroke="#FFF200" stroke-width="0.15"/>
<path d="M6.94078 11.8544L7.23608 11.5504L7.93498 12.4721H8.14169L7.34436 11.4425L8.06294 10.7168H7.85623L6.94078 11.6484V10.707H6.78328L6.77344 12.4721H6.93093L6.94078 11.8544Z" fill="#FFF200" stroke="#FFF200" stroke-width="0.15"/>
<path d="M9.8317 12.3446L8.79812 12.3348L8.80797 11.6484H9.71357V11.5111L8.80797 11.5013V10.8639L9.80217 10.8737V10.7266L8.65047 10.7168L8.64062 12.4819H9.8317V12.3446Z" fill="#FFF200" stroke="#FFF200" stroke-width="0.15"/>
<path d="M10.7797 12.4917H10.947L10.9569 10.8737H11.5081V10.7364L10.2383 10.7266V10.8737H10.7895L10.7797 12.4917Z" fill="#FFF200" stroke="#FFF200" stroke-width="0.15"/>
<path d="M11.9852 10.735L11.9766 12.4902L12.1341 12.491L12.1427 10.7357L11.9852 10.735Z" fill="#FFF200" stroke="#FFF200" stroke-width="0.15"/>
<path d="M21.045 10.707L21.0352 12.4721H21.1927L21.2025 11.8544L21.4978 11.5504L22.1967 12.4721H22.4034L21.6061 11.4425L22.3247 10.7168H22.1179L21.2025 11.6484V10.707H21.045Z" fill="#FFF200" stroke="#FFF200" stroke-width="0.15"/>
<path d="M24.0678 10.8737L24.0776 10.7266L22.9161 10.7168L22.9062 12.4819H24.0973V12.3446L23.0637 12.3348L23.0736 11.6484H23.9792V11.5111L23.0736 11.5013V10.8639L24.0678 10.8737Z" fill="#FFF200" stroke="#FFF200" stroke-width="0.15"/>
<path d="M25.2087 12.4917L25.2186 10.8737H25.7698V10.7364L24.5098 10.7266L24.5 10.8737H25.0512V12.4917H25.2087Z" fill="#FFF200" stroke="#FFF200" stroke-width="0.15"/>
<path d="M26.2469 10.7447L26.2383 12.5L26.3958 12.5008L26.4044 10.7455L26.2469 10.7447Z" fill="#FFF200" stroke="#FFF200" stroke-width="0.15"/>
<path d="M35.3067 10.707L35.2969 12.4721H35.4544L35.4642 11.8544L35.7595 11.5504L36.4584 12.4721H36.6651L35.8678 11.4425L36.5864 10.7168H36.3797L35.4642 11.6484V10.707H35.3067Z" fill="#FFF200" stroke="#FFF200" stroke-width="0.15"/>
<path d="M38.3394 10.8737V10.7266L37.1778 10.7168L37.168 12.4819H38.359V12.3446L37.3255 12.3348L37.3353 11.6484H38.2409V11.5111L37.3353 11.5013V10.8639L38.3394 10.8737Z" fill="#FFF200" stroke="#FFF200" stroke-width="0.15"/>
<path d="M39.4723 12.4917L39.4822 10.8737H40.0334V10.7364L38.7734 10.7266V10.8737H39.3148V12.4917H39.4723Z" fill="#FFF200" stroke="#FFF200" stroke-width="0.15"/>
<path d="M40.5125 10.7447L40.5039 12.5L40.6614 12.5008L40.67 10.7455L40.5125 10.7447Z" fill="#FFF200" stroke="#FFF200" stroke-width="0.15"/>
<path d="M49.7298 11.8544L50.0251 11.5504L50.7339 12.4721H50.9308L50.1334 11.4425L50.852 10.7168H50.6453L49.7298 11.6484V10.707H49.5723L49.5625 12.4721H49.7298V11.8544Z" fill="#FFF200" stroke="#FFF200" stroke-width="0.15"/>
<path d="M52.6053 10.8737V10.7266H52.1328C52.1722 10.7756 52.2017 10.8246 52.2411 10.8737H52.5955H52.6053Z" fill="#FFF200" stroke="#FFF200" stroke-width="0.15"/>
<path d="M51.4336 12.4819H52.6247V12.3446H51.6009V11.6484H52.5164V11.5111H51.6009V10.8639H52.2408C52.2408 10.8639 52.1719 10.7658 52.1325 10.7168H51.4434V12.4721L51.4336 12.4819Z" fill="#FFF200" stroke="#FFF200" stroke-width="0.15"/>
<path d="M18.3978 3.30353L18.6931 3.00935L19.4019 3.93112H19.5987L18.8014 2.90148L19.52 2.17582H19.3133L18.3978 3.0976L18.4077 2.16602H18.2403L18.2305 3.93112H18.3978V3.30353Z" fill="#FFF200" stroke="#FFF200" stroke-width="0.15"/>
<path d="M21.2926 3.7938H20.2689V3.10737H21.1844V2.96027H20.2689L20.2787 2.32287H21.2729V2.18559L20.1114 2.17578L20.1016 3.93108L21.2926 3.94089V3.7938Z" fill="#FFF200" stroke="#FFF200" stroke-width="0.15"/>
<path d="M22.2445 3.95066H22.402L22.4119 2.33264H22.9631V2.18555H21.7031V2.33264H22.2544L22.2445 3.95066Z" fill="#FFF200" stroke="#FFF200" stroke-width="0.15"/>
<path d="M23.6127 2.19531H23.4552L23.4453 3.95061H23.6028L23.6127 2.19531Z" fill="#FFF200" stroke="#FFF200" stroke-width="0.15"/>
<path d="M32.6614 3.30353L32.9567 3.00935L33.6654 3.93112H33.8623L33.065 2.90148L33.7934 2.17582H33.5769L32.6614 3.0976L32.6712 2.16602H32.5039V3.93112H32.6614V3.30353Z" fill="#FFF200" stroke="#FFF200" stroke-width="0.15"/>
<path d="M35.5543 3.7938H34.5306V3.10737H35.4461V2.96027H34.5306L34.5405 2.32287H35.5347V2.18559L34.3731 2.17578L34.3633 3.93108L35.5543 3.94089V3.7938Z" fill="#FFF200" stroke="#FFF200" stroke-width="0.15"/>
<path d="M36.5101 3.95066H36.6676L36.6775 2.33264H37.2287V2.18555H35.9688V2.33264H36.52L36.5101 3.95066Z" fill="#FFF200" stroke="#FFF200" stroke-width="0.15"/>
<path d="M37.8783 2.19531H37.7208L37.7109 3.95061H37.8684L37.8783 2.19531Z" fill="#FFF200" stroke="#FFF200" stroke-width="0.15"/>
<path d="M9.73562 4.99023H9.57812V5.45112C9.62734 5.4119 9.6864 5.38248 9.73562 5.34326V4.99023Z" fill="#FFF200" stroke="#FFF200" stroke-width="0.15"/>
<path d="M9.7239 6.7455V6.12771L10.0192 5.83352L10.7279 6.7553H10.9248L10.1275 5.72566L10.8461 5H10.6394L9.7239 5.93159V5.35302C9.67469 5.39225 9.61562 5.42166 9.56641 5.46089V6.7553H9.7239V6.7455Z" fill="#FFF200" stroke="#FFF200" stroke-width="0.15"/>
<path d="M12.6286 6.61802L11.595 6.60821L11.6048 5.92178L12.5104 5.93159V5.78449L11.6048 5.77469V5.13729L12.6089 5.14709V5H11.4473L11.4375 6.7553L12.6286 6.76511V6.61802Z" fill="#FFF200" stroke="#FFF200" stroke-width="0.15"/>
<path d="M13.5844 6.76511H13.7419L13.7517 5.1569H14.3029V5.00981L13.043 5V5.14709H13.5844V6.76511Z" fill="#FFF200" stroke="#FFF200" stroke-width="0.15"/>
<path d="M14.9506 5.00977H14.7833L14.7734 6.77487H14.9408L14.9506 5.00977Z" fill="#FFF200" stroke="#FFF200" stroke-width="0.15"/>
<path d="M23.9994 6.12775L24.2947 5.83356L25.0034 6.75534H25.2003L24.403 5.71589L25.1215 4.99023H24.9148L23.9994 5.92182V4.99023H23.8419L23.832 6.74554H23.9994V6.12775Z" fill="#FFF200" stroke="#FFF200" stroke-width="0.15"/>
<path d="M26.8942 6.61802L25.8705 6.60821V5.92178L26.7761 5.93159L26.7859 5.78449L25.8705 5.77469V5.13729L26.8745 5.14709V5H25.713L25.7031 6.7553L26.8942 6.76511V6.61802Z" fill="#FFF200" stroke="#FFF200" stroke-width="0.15"/>
<path d="M27.8461 6.76511H28.0036L28.0134 5.1569H28.5647V5.00981L27.3047 5V5.14709H27.8559L27.8461 6.76511Z" fill="#FFF200" stroke="#FFF200" stroke-width="0.15"/>
<path d="M29.2162 5.00977H29.0489L29.0391 6.77487H29.2064L29.2162 5.00977Z" fill="#FFF200" stroke="#FFF200" stroke-width="0.15"/>
<path d="M38.2611 6.12775L38.5564 5.83356L39.2651 6.75534H39.462L38.6647 5.71589L39.3833 4.99023H39.1765L38.2611 5.92182V4.99023H38.1036L38.0938 6.74554H38.2611V6.12775Z" fill="#FFF200" stroke="#FFF200" stroke-width="0.15"/>
<path d="M41.1559 6.61802L40.1322 6.60821V5.92178L41.0476 5.93159V5.78449L40.1322 5.77469V5.13729L41.1362 5.14709V5H39.9747L39.9648 6.7553L41.1559 6.76511V6.61802Z" fill="#FFF200" stroke="#FFF200" stroke-width="0.15"/>
<path d="M42.1117 6.76511H42.2692L42.2791 5.1569H42.8303V5.00981L41.5703 5V5.14709H42.1216L42.1117 6.76511Z" fill="#FFF200" stroke="#FFF200" stroke-width="0.15"/>
<path d="M43.478 5.00977H43.3106L43.3008 6.77487H43.4681L43.478 5.00977Z" fill="#FFF200" stroke="#FFF200" stroke-width="0.15"/>
<path d="M26.7922 1.0093V0.391517L27.0087 0.175781C26.9398 0.175781 26.8709 0.175781 26.802 0.175781C26.7528 0.175781 26.6937 0.175781 26.6445 0.175781V1.0093H26.802H26.7922Z" fill="#FFF200" stroke="#FFF200" stroke-width="0.15"/>
<path d="M27.7981 1.01915H27.995L27.3453 0.166016C27.2764 0.166016 27.2173 0.166016 27.1484 0.166016L27.7981 1.00935V1.01915Z" fill="#FFF200" stroke="#FFF200" stroke-width="0.15"/>
<path d="M29.689 1.01919V0.8721H28.6653V0.185668H29.5808C29.2264 0.166056 28.872 0.166056 28.5078 0.15625V1.00939H29.689V1.01919Z" fill="#FFF200" stroke="#FFF200" stroke-width="0.15"/>
<path d="M30.802 1.02855V0.263672C30.7528 0.263672 30.6937 0.263672 30.6445 0.263672V1.03836H30.802V1.02855Z" fill="#FFF200" stroke="#FFF200" stroke-width="0.15"/>
<path d="M32.0012 1.03995V0.373128C31.952 0.373128 31.893 0.363322 31.8438 0.353516V1.03014H32.0012V1.03995Z" fill="#FFF200" stroke="#FFF200" stroke-width="0.15"/>
<path d="M8.18857 26.6225L7.39124 25.5929L8.10982 24.8672H7.9031L6.98765 25.7988L6.9975 24.8574H6.83016L6.82031 26.6225H6.98765V26.0047L7.28296 25.7008L7.9917 26.6225H8.18857Z" fill="#FFF200" stroke="#FFF200" stroke-width="0.15"/>
<path d="M8.69141 26.6323H9.88248V26.495L8.85875 26.4852V25.7988H9.7742V25.6615L8.85875 25.6517V25.0143L9.86279 25.0241V24.877L8.70125 24.8672L8.69141 26.6323Z" fill="#FFF200" stroke="#FFF200" stroke-width="0.15"/>
<path d="M11.5568 24.8868L10.2969 24.877V25.024H10.8481L10.8383 26.6421H10.9958L11.0056 25.024H11.5568V24.8868Z" fill="#FFF200" stroke="#FFF200" stroke-width="0.15"/>
<path d="M12.0438 24.8951L12.0352 26.6504L12.1927 26.6512L12.2013 24.8959L12.0438 24.8951Z" fill="#FFF200" stroke="#FFF200" stroke-width="0.15"/>
<path d="M22.2573 26.6225H22.4542L21.6569 25.5929L22.3754 24.8672H22.1687L21.2533 25.7988L21.2631 24.8574H21.0958L21.0859 26.6225H21.2533V26.0047L21.5486 25.7008L22.2573 26.6225Z" fill="#FFF200" stroke="#FFF200" stroke-width="0.15"/>
<path d="M24.1442 26.495L23.1205 26.4852V25.7988H24.0359V25.6615L23.1205 25.6517L23.1303 25.0143L24.1245 25.0241V24.877L22.963 24.8672L22.9531 26.6323H24.1442V26.495Z" fill="#FFF200" stroke="#FFF200" stroke-width="0.15"/>
<path d="M25.2575 26.6421L25.2673 25.024H25.8186V24.8868L24.5586 24.877V25.024H25.1098L25.1 26.6421H25.2575Z" fill="#FFF200" stroke="#FFF200" stroke-width="0.15"/>
<path d="M26.3055 24.8951L26.2969 26.6504L26.4544 26.6512L26.463 24.8959L26.3055 24.8951Z" fill="#FFF200" stroke="#FFF200" stroke-width="0.15"/>
<path d="M36.519 26.6225H36.7159L35.9186 25.5929L36.647 24.8672H36.4304L35.515 25.7988L35.5248 24.8574H35.3575L35.3477 26.6225H35.515V26.0047L35.8103 25.7008L36.519 26.6225Z" fill="#FFF200" stroke="#FFF200" stroke-width="0.15"/>
<path d="M38.4078 26.495L37.3841 26.4852V25.7988H38.2995V25.6615L37.3841 25.6517L37.3939 25.0143L38.3881 25.0241V24.877L37.2266 24.8672V26.6323H38.4078V26.495Z" fill="#FFF200" stroke="#FFF200" stroke-width="0.15"/>
<path d="M39.5231 26.6421L39.533 25.024H40.0842V24.8868L38.8242 24.877V25.024H39.3755L39.3656 26.6421H39.5231Z" fill="#FFF200" stroke="#FFF200" stroke-width="0.15"/>
<path d="M40.5711 24.8853L40.5625 26.6406L40.72 26.6414L40.7286 24.8861L40.5711 24.8853Z" fill="#FFF200" stroke="#FFF200" stroke-width="0.15"/>
<path d="M50.9795 26.6225L50.1822 25.5929L50.9106 24.8672H50.694L49.7786 25.7988L49.7884 24.8574H49.6211V26.6225H49.7786V26.0047L50.0739 25.7008L50.7826 26.6225H50.9795Z" fill="#FFF200" stroke="#FFF200" stroke-width="0.15"/>
<path d="M52.6734 26.495L51.6497 26.4852V25.7988H52.5651V25.6615L51.6497 25.6517L51.6595 25.0143L52.6537 25.0241V24.877L51.4922 24.8672V26.6323H52.6734V26.495Z" fill="#FFF200" stroke="#FFF200" stroke-width="0.15"/>
<path d="M53.0859 25.024H53.6372L53.6273 26.6421H53.7848L53.7947 25.024H54.3459L54.3558 24.8868L53.0859 24.877V25.024Z" fill="#FFF200" stroke="#FFF200" stroke-width="0.15"/>
<path d="M54.8341 24.8853L54.8242 26.6406L54.9817 26.6415L54.9916 24.8862L54.8341 24.8853Z" fill="#FFF200" stroke="#FFF200" stroke-width="0.15"/>
<path d="M1.63281 27.8385L2.17421 27.8483V29.4565H2.3317L2.34155 27.8483H2.89279V27.7012L1.63281 27.6914V27.8385Z" fill="#FFF200" stroke="#FFF200" stroke-width="0.15"/>
<path d="M3.38093 27.7135L3.37109 29.4688L3.52859 29.4696L3.53843 27.7144L3.38093 27.7135Z" fill="#FFF200" stroke="#FFF200" stroke-width="0.15"/>
<path d="M13.7901 29.4467L12.9928 28.4073L13.7114 27.6816H13.5047L12.5892 28.6132V27.6816H12.4317L12.4219 29.4369H12.5794L12.5892 28.8192L12.8845 28.525L13.5933 29.4467H13.7901Z" fill="#FFF200" stroke="#FFF200" stroke-width="0.15"/>
<path d="M15.484 29.3094H14.4603V28.6132L15.3659 28.623V28.4759H14.4603V27.8385H15.4644V27.6914H14.3028L14.293 29.4467L15.484 29.4565V29.3094Z" fill="#FFF200" stroke="#FFF200" stroke-width="0.15"/>
<path d="M15.8984 27.8385L16.4398 27.8483V29.4565H16.5973L16.6072 27.8483H17.1584V27.7012L15.8984 27.6914V27.8385Z" fill="#FFF200" stroke="#FFF200" stroke-width="0.15"/>
<path d="M17.6414 27.7135L17.6328 29.4688L17.7903 29.4695L17.7989 27.7142L17.6414 27.7135Z" fill="#FFF200" stroke="#FFF200" stroke-width="0.15"/>
<path d="M28.0558 29.4467L27.2584 28.4073L27.977 27.6816H27.7703L26.8548 28.6132V27.6816H26.6973L26.6875 29.4369H26.8548V28.8192L27.1501 28.525L27.8589 29.4467H28.0558Z" fill="#FFF200" stroke="#FFF200" stroke-width="0.15"/>
<path d="M29.7458 29.3094H28.722V28.6132L29.6276 28.623L29.6375 28.4759H28.722V27.8385H29.7261V27.6914H28.5645L28.5547 29.4467L29.7458 29.4565V29.3094Z" fill="#FFF200" stroke="#FFF200" stroke-width="0.15"/>
<path d="M30.1602 27.8385L30.7114 27.8483L30.7016 29.4565H30.859L30.8689 27.8483H31.4201V27.7012L30.1602 27.6914V27.8385Z" fill="#FFF200" stroke="#FFF200" stroke-width="0.15"/>
<path d="M31.907 27.7135L31.8984 29.4688L32.0559 29.4695L32.0645 27.7142L31.907 27.7135Z" fill="#FFF200" stroke="#FFF200" stroke-width="0.15"/>
<path d="M42.3175 29.4467L41.5201 28.4073L42.2387 27.6816H42.032L41.1166 28.6132L41.1264 27.6816H40.9591L40.9492 29.4369H41.1166V28.8192L41.4119 28.525L42.1206 29.4467H42.3175Z" fill="#FFF200" stroke="#FFF200" stroke-width="0.15"/>
<path d="M44.0114 29.3094H42.9877V28.6132L43.9031 28.623V28.4759H42.9877V27.8385H43.9917V27.6914H42.8302L42.8203 29.4467L44.0114 29.4565V29.3094Z" fill="#FFF200" stroke="#FFF200" stroke-width="0.15"/>
<path d="M44.4219 27.8385L44.9731 27.8483L44.9633 29.4565H45.1208L45.1306 27.8483H45.6819V27.7012L44.4219 27.6914V27.8385Z" fill="#FFF200" stroke="#FFF200" stroke-width="0.15"/>
<path d="M46.1739 27.7154L46.1641 29.4707L46.3216 29.4716L46.3314 27.7163L46.1739 27.7154Z" fill="#FFF200" stroke="#FFF200" stroke-width="0.15"/>
<path d="M5.31685 30.5157L5.11014 30.5059L4.19468 31.4374V30.5059H4.03719L4.02734 32.2612L4.18484 32.271V31.6434L4.48015 31.3492L5.18888 32.271H5.38575L4.59827 31.2413L5.31685 30.5157Z" fill="#FFF200" stroke="#FFF200" stroke-width="0.15"/>
<path d="M6.06187 31.4472H6.96748V31.3001H6.06187V30.6627H7.05607V30.5156H5.90438L5.89453 32.2709L7.0856 32.2807V32.1336H6.05203L6.06187 31.4472Z" fill="#FFF200" stroke="#FFF200" stroke-width="0.15"/>
<path d="M7.49219 30.6627L8.04343 30.6725L8.03358 32.2807L8.20092 32.2905V30.6725H8.76201V30.5254H7.49219V30.6627Z" fill="#FFF200" stroke="#FFF200" stroke-width="0.15"/>
<path d="M9.24514 30.5318L9.23438 32.2871L9.39187 32.2881L9.40263 30.5328L9.24514 30.5318Z" fill="#FFF200" stroke="#FFF200" stroke-width="0.15"/>
<path d="M19.6573 32.271L18.86 31.2413L19.5786 30.5157L19.3719 30.5059L18.4564 31.4374V30.5059H18.2989L18.2891 32.2612L18.4466 32.271V31.6434L18.7419 31.3492L19.4506 32.271H19.6573Z" fill="#FFF200" stroke="#FFF200" stroke-width="0.15"/>
<path d="M21.3512 32.1336H20.3177L20.3275 31.4472H21.2331V31.3001H20.3275V30.6627H21.3217V30.5156H20.17L20.1602 32.2709L21.3512 32.2807V32.1336Z" fill="#FFF200" stroke="#FFF200" stroke-width="0.15"/>
<path d="M23.0237 30.5254H21.7539V30.6627L22.3051 30.6725L22.2953 32.2807L22.4626 32.2905L22.4725 30.6725H23.0237V30.5254Z" fill="#FFF200" stroke="#FFF200" stroke-width="0.15"/>
<path d="M23.5086 30.5318L23.5 32.2871L23.6575 32.2879L23.6661 30.5326L23.5086 30.5318Z" fill="#FFF200" stroke="#FFF200" stroke-width="0.15"/>
<path d="M33.919 32.271L33.1217 31.2413L33.8403 30.5157L33.6336 30.5059L32.7181 31.4374V30.5059H32.5606L32.5508 32.2612L32.7083 32.271L32.7181 31.6434L33.0134 31.3492L33.7123 32.271H33.919Z" fill="#FFF200" stroke="#FFF200" stroke-width="0.15"/>
<path d="M35.6129 32.1336H34.5794L34.5892 31.4472H35.4948V31.3001H34.5892V30.6627H35.5834V30.5156H34.4317L34.4219 32.2709L35.6129 32.2807V32.1336Z" fill="#FFF200" stroke="#FFF200" stroke-width="0.15"/>
<path d="M37.2854 30.5254H36.0156V30.6627L36.5669 30.6725L36.557 32.2807L36.7244 32.2905L36.7342 30.6725H37.2854V30.5254Z" fill="#FFF200" stroke="#FFF200" stroke-width="0.15"/>
<path d="M37.7703 30.5318L37.7617 32.2871L37.9192 32.2879L37.9278 30.5326L37.7703 30.5318Z" fill="#FFF200" stroke="#FFF200" stroke-width="0.15"/>
<path d="M48.1059 30.5157L47.8992 30.5059L46.9837 31.4374V30.5059H46.8262L46.8164 32.2612L46.9739 32.271L46.9837 31.6434L47.2791 31.3492L47.9779 32.271H48.1847L47.3873 31.2413L48.1059 30.5157Z" fill="#FFF200" stroke="#FFF200" stroke-width="0.15"/>
<path d="M48.8548 31.4472H49.7604V31.3001H48.8548V30.6627H49.849L49.8589 30.5156H48.6973L48.6875 32.2709L49.8786 32.2807V32.1336H48.845L48.8548 31.4472Z" fill="#FFF200" stroke="#FFF200" stroke-width="0.15"/>
<path d="M50.2812 30.6627L50.8325 30.6725V32.2807L50.99 32.2905L50.9998 30.6725H51.5511V30.5254H50.2911L50.2812 30.6627Z" fill="#FFF200" stroke="#FFF200" stroke-width="0.15"/>
<path d="M52.1898 32.2324C52.1898 32.2324 52.1603 32.2716 52.1406 32.2913H52.1898V32.2324Z" fill="#FFF200" stroke="#FFF200" stroke-width="0.15"/>
<path d="M52.1887 30.5352H52.0312V32.2905H52.1494C52.1494 32.2905 52.1789 32.2512 52.1986 32.2316V30.5352H52.1887Z" fill="#FFF200" stroke="#FFF200" stroke-width="0.15"/>
<path d="M10.9145 33.3301H10.6979L9.7825 34.2617L9.79234 33.3301L9.625 33.3203V35.0854H9.7825V34.4676L10.0778 34.1636L10.7865 35.0952H10.9834L10.1861 34.0558L10.9145 33.3301Z" fill="#FFF200" stroke="#FFF200" stroke-width="0.15"/>
<path d="M11.6536 34.2617L12.569 34.2715V34.1244L11.6536 34.1146L11.6634 33.4772L12.6576 33.487V33.3399L11.4961 33.3301V35.0952H12.6773V34.9579L11.6536 34.9481V34.2617Z" fill="#FFF200" stroke="#FFF200" stroke-width="0.15"/>
<path d="M13.0898 33.4869H13.6411L13.6312 35.1049H13.7887L13.7986 33.4869L14.3498 33.4967V33.3496L13.0898 33.3398V33.4869Z" fill="#FFF200" stroke="#FFF200" stroke-width="0.15"/>
<path d="M14.8428 33.3541L14.832 35.1094L14.9895 35.1103L15.0003 33.3551L14.8428 33.3541Z" fill="#FFF200" stroke="#FFF200" stroke-width="0.15"/>
<path d="M25.249 35.0952L24.4616 34.0558L25.1801 33.3301H24.9636L24.0481 34.2617L24.058 33.3301L23.9005 33.3203L23.8906 35.0854H24.0481V34.4676L24.3434 34.1636L25.0522 35.0952H25.249Z" fill="#FFF200" stroke="#FFF200" stroke-width="0.15"/>
<path d="M25.9192 34.2617L26.8347 34.2715V34.1244L25.9192 34.1146L25.9291 33.4772L26.9233 33.487V33.3399L25.7617 33.3301V35.0952H26.9429V34.9579L25.9192 34.9481V34.2617Z" fill="#FFF200" stroke="#FFF200" stroke-width="0.15"/>
<path d="M27.3555 33.4869H27.9067L27.8969 35.1049H28.0642V33.4869L28.6253 33.4967V33.3496L27.3555 33.3398V33.4869Z" fill="#FFF200" stroke="#FFF200" stroke-width="0.15"/>
<path d="M29.1123 33.3541L29.1016 35.1094L29.2591 35.1103L29.2698 33.3551L29.1123 33.3541Z" fill="#FFF200" stroke="#FFF200" stroke-width="0.15"/>
<path d="M39.5108 35.0952L38.7233 34.0558L39.4418 33.3301H39.2253L38.3098 34.2617L38.3197 33.3301L38.1622 33.3203L38.1523 35.0854H38.3098V34.4676L38.6051 34.1636L39.3139 35.0952H39.5108Z" fill="#FFF200" stroke="#FFF200" stroke-width="0.15"/>
<path d="M40.1809 34.2617L41.0964 34.2715V34.1244L40.1908 34.1146V33.4772L41.185 33.487V33.3399L40.0333 33.3301L40.0234 35.0952H41.2145V34.9579L40.1809 34.9481V34.2617Z" fill="#FFF200" stroke="#FFF200" stroke-width="0.15"/>
<path d="M41.6172 33.4869H42.1684L42.1586 35.1049H42.3259V33.4869L42.887 33.4967V33.3496L41.6172 33.3398V33.4869Z" fill="#FFF200" stroke="#FFF200" stroke-width="0.15"/>
<path d="M43.374 33.3541L43.3633 35.1094L43.5208 35.1103L43.5315 33.3551L43.374 33.3541Z" fill="#FFF200" stroke="#FFF200" stroke-width="0.15"/>
<path d="M16.7348 36.0567L16.5183 36.0469L15.6028 36.9785L15.6127 36.0469H15.4552L15.4453 37.812H15.6028V37.1844L15.8981 36.8902L16.6069 37.812H16.8037L16.0162 36.7823L16.7348 36.0567Z" fill="#FFF200" stroke="#FFF200" stroke-width="0.15"/>
<path d="M17.4739 36.9882H18.3894V36.8411H17.4837V36.2037H18.4779V36.0566H17.3263L17.3164 37.8119L18.5075 37.8217V37.6747H17.4739V36.9882Z" fill="#FFF200" stroke="#FFF200" stroke-width="0.15"/>
<path d="M18.9102 36.2135H19.4614L19.4516 37.8217L19.6189 37.8315V36.2135H20.18V36.0664H18.9102V36.2135Z" fill="#FFF200" stroke="#FFF200" stroke-width="0.15"/>
<path d="M20.6622 36.0768L20.6523 37.832L20.8098 37.8329L20.8197 36.0776L20.6622 36.0768Z" fill="#FFF200" stroke="#FFF200" stroke-width="0.15"/>
<path d="M30.9965 36.0567L30.7898 36.0469L29.8744 36.9785V36.0469H29.7169L29.707 37.812H29.8645V37.1844L30.1598 36.8902L30.8686 37.812H31.0654L30.278 36.7823L30.9965 36.0567Z" fill="#FFF200" stroke="#FFF200" stroke-width="0.15"/>
<path d="M31.7356 36.9882H32.6511V36.8411H31.7455V36.2037H32.7397V36.0566H31.588L31.5781 37.8119L32.7692 37.8217V37.6747H31.7356V36.9882Z" fill="#FFF200" stroke="#FFF200" stroke-width="0.15"/>
<path d="M33.1719 36.2135H33.7231L33.7133 37.8217L33.8806 37.8315V36.2135H34.4417V36.0664H33.1719V36.2135Z" fill="#FFF200" stroke="#FFF200" stroke-width="0.15"/>
<path d="M34.9278 36.0768L34.918 37.832L35.0755 37.8329L35.0853 36.0776L34.9278 36.0768Z" fill="#FFF200" stroke="#FFF200" stroke-width="0.15"/>
<path d="M45.2622 36.0567L45.0555 36.0469L44.14 36.9785V36.0469H43.9825L43.9727 37.812H44.1302V37.1844L44.4255 36.8902L45.1342 37.812H45.3409L44.5436 36.7823L45.2622 36.0567Z" fill="#FFF200" stroke="#FFF200" stroke-width="0.15"/>
<path d="M47.0331 37.8229V37.6758H46.2751C46.2062 37.7248 46.1275 37.7738 46.0586 37.8131H47.0331V37.8229Z" fill="#FFF200" stroke="#FFF200" stroke-width="0.15"/>
<path d="M46.0092 36.9882H46.9148V36.8509H45.9994V36.2037H46.9936V36.0664H45.832V37.8217H46.0486C46.1175 37.7727 46.1962 37.7236 46.2651 37.6844H45.9895V36.998L46.0092 36.9882Z" fill="#FFF200" stroke="#FFF200" stroke-width="0.15"/>
<path d="M47.4375 36.2135H47.9887V36.4488C48.0478 36.4096 48.097 36.3606 48.1462 36.3213V36.2233H48.2742C48.3333 36.1742 48.3923 36.1252 48.4514 36.0762H47.4375V36.2135Z" fill="#FFF200" stroke="#FFF200" stroke-width="0.15"/>
<path d="M22.3247 38.8711H22.1179L21.2025 39.8027L21.2123 38.8711H21.045L21.0352 40.6264H21.2025V40.0086L21.4978 39.7046L22.2065 40.6362H22.4034L21.6061 39.5968L22.3247 38.8711Z" fill="#FFF200" stroke="#FFF200" stroke-width="0.15"/>
<path d="M23.0736 39.8027L23.989 39.8125V39.6654L23.0736 39.6556L23.0834 39.0182L24.0776 39.028V38.8809L22.9161 38.8711L22.9062 40.6362H24.0973V40.4989L23.0736 40.4891V39.8027Z" fill="#FFF200" stroke="#FFF200" stroke-width="0.15"/>
<path d="M24.5117 39.0279H25.063L25.0531 40.646H25.2106L25.2205 39.0279L25.7717 39.0378V38.8907L24.5117 38.8809V39.0279Z" fill="#FFF200" stroke="#FFF200" stroke-width="0.15"/>
<path d="M26.2677 38.8971L26.2578 40.6523L26.4153 40.6532L26.4251 38.8979L26.2677 38.8971Z" fill="#FFF200" stroke="#FFF200" stroke-width="0.15"/>
<path d="M36.5981 38.8711H36.3815L35.4661 39.8027L35.4759 38.8711H35.3086V40.6264H35.4661V40.0086L35.7614 39.7046L36.4701 40.6362H36.667L35.8697 39.5968L36.5981 38.8711Z" fill="#FFF200" stroke="#FFF200" stroke-width="0.15"/>
<path d="M37.3372 39.8027L38.2526 39.8125V39.6654L37.3372 39.6556L37.347 39.0182L38.3412 39.028V38.8809L37.1797 38.8711V40.6362H38.3609V40.4989L37.3372 40.4891V39.8027Z" fill="#FFF200" stroke="#FFF200" stroke-width="0.15"/>
<path d="M38.7734 39.0279H39.3247L39.3148 40.646H39.4723L39.4822 39.0279L40.0334 39.0378V38.8907L38.7734 38.8809V39.0279Z" fill="#FFF200" stroke="#FFF200" stroke-width="0.15"/>
<path d="M40.5156 40.6567H40.6731V40.5586C40.6239 40.5782 40.5648 40.5978 40.5156 40.6174V40.6567Z" fill="#FFF200" stroke="#FFF200" stroke-width="0.15"/>
<path d="M40.5273 38.8906V40.6165C40.5273 40.6165 40.6258 40.5773 40.6848 40.5577V38.9004H40.5273V38.8906Z" fill="#FFF200" stroke="#FFF200" stroke-width="0.15"/>
<path d="M27.0697 42.9515L27.1583 42.8633C27.0697 42.8633 26.9909 42.8633 26.9023 42.8633" fill="#FFF200"/>
<path d="M27.0697 42.9515L27.1583 42.8633C27.0697 42.8633 26.9909 42.8633 26.9023 42.8633" stroke="#FFF200" stroke-width="0.15"/>
<path d="M27.7281 42.8633C27.6592 42.8633 27.6002 42.8633 27.5312 42.8633H27.7281Z" fill="#FFF200"/>
<path d="M27.7281 42.8633C27.6592 42.8633 27.6002 42.8633 27.5312 42.8633" stroke="#FFF200" stroke-width="0.15"/>
<path d="M28.1898 41.8125H27.9831L27.0677 42.7441V41.8125H26.9102V42.852C26.9889 42.852 27.0775 42.852 27.1562 42.852L27.363 42.646L27.5205 42.8618C27.5894 42.8618 27.6484 42.8618 27.7173 42.8618L27.4712 42.5382L28.1898 41.8125Z" fill="#FFF200" stroke="#FFF200" stroke-width="0.15"/>
<path d="M28.9387 42.8516C28.8895 42.8516 28.8305 42.8516 28.7812 42.8516H28.9387Z" fill="#FFF200"/>
<path d="M28.9387 42.8516C28.8895 42.8516 28.8305 42.8516 28.7812 42.8516" stroke="#FFF200" stroke-width="0.15"/>
<path d="M29.8561 42.7538V42.6068H28.9505V41.9694H29.9545V41.8223H28.793V42.8617C28.793 42.8617 28.8914 42.8617 28.9505 42.8617V42.7538H29.8659H29.8561Z" fill="#FFF200" stroke="#FFF200" stroke-width="0.15"/>
<path d="M31.0872 42.7441C31.038 42.7441 30.9789 42.7539 30.9297 42.7638L31.0872 42.7441Z" fill="#FFF200"/>
<path d="M31.0872 42.7441C31.038 42.7441 30.9789 42.7539 30.9297 42.7638" stroke="#FFF200" stroke-width="0.15"/>
<path d="M31.635 41.9791V41.832H30.375V41.9791H30.9262V42.7636C30.9755 42.7636 31.0247 42.7538 31.0837 42.744V41.9791H31.6448H31.635Z" fill="#FFF200" stroke="#FFF200" stroke-width="0.15"/>
<path d="M32.2786 42.627C32.2294 42.627 32.1703 42.6368 32.1211 42.6466L32.2786 42.627Z" fill="#FFF200"/>
<path d="M32.2786 42.627C32.2294 42.627 32.1703 42.6368 32.1211 42.6466" stroke="#FFF200" stroke-width="0.15"/>
<path d="M32.1211 41.8321V42.6362C32.1703 42.6362 32.2294 42.6264 32.2786 42.6166V41.8223H32.1211V41.8321Z" fill="#FFF200" stroke="#FFF200" stroke-width="0.15"/>
<path d="M14.8531 10.7473L15.1386 10.9728L14.8137 11.3847L14.8826 11.4435C14.9909 11.5514 15.1386 11.6004 15.3256 11.6004C15.5225 11.6004 15.6898 11.5416 15.8375 11.4239C15.8375 11.4827 15.8571 11.5514 15.8768 11.62C15.8965 11.6788 15.9162 11.7475 15.9457 11.8161C15.8178 11.8848 15.68 11.924 15.5225 11.9436C15.3847 11.9632 15.2567 11.9436 15.1287 11.924C15.1779 11.9926 15.2075 12.1103 15.2173 12.277C15.2272 12.4437 15.2173 12.6202 15.1878 12.7771C15.1189 12.7771 15.05 12.7771 14.9712 12.7771C14.8925 12.7771 14.8236 12.7967 14.7547 12.8164C14.8039 12.7281 14.8433 12.63 14.863 12.5222C14.8728 12.4241 14.8728 12.3261 14.863 12.2182C14.8531 12.1201 14.8236 12.0319 14.794 11.9534C14.7645 11.875 14.7251 11.8161 14.6759 11.7867L14.5578 11.6985L14.2034 12.1397L13.918 11.9142L14.8531 10.7375V10.7473ZM15.2961 9.99219C15.2961 9.99219 15.3354 9.99219 15.365 10.0412C15.3748 10.0608 15.3847 10.0804 15.4043 10.1001C15.424 10.1197 15.4437 10.1393 15.4634 10.1589L16.8317 11.2278L16.5659 11.5514L15.7784 10.9336L15.4831 11.3062L15.2173 11.1003L15.5126 10.7276L15.0106 10.3354L15.1583 10.1589C15.237 10.0608 15.2862 10.0118 15.3059 9.99219H15.2961ZM15.6111 12.4633C15.6111 12.4633 15.6504 12.4633 15.6701 12.5026C15.68 12.5222 15.6898 12.532 15.6997 12.5418C15.7095 12.5614 15.7292 12.5712 15.739 12.581L15.9851 12.7771L17.0876 11.3847L17.3632 11.6004L15.995 13.3165L15.3059 12.7869L15.4634 12.5908C15.5323 12.5124 15.5717 12.4633 15.6012 12.4535L15.6111 12.4633Z" fill="#231F20"/>
<path d="M18.004 7.88329L18.2206 8.15786L17.7481 8.52069L17.817 8.59914C17.9844 8.81488 18.1911 8.98158 18.4273 9.09925C18.6832 9.22673 18.9195 9.26596 19.1459 9.21693C19.1262 9.27577 19.1164 9.34441 19.1065 9.42286C19.1065 9.4915 19.1065 9.56014 19.1065 9.62879C18.9293 9.63859 18.7521 9.61898 18.575 9.56014C18.3879 9.50131 18.2206 9.40325 18.0828 9.27577C18.1615 9.45228 18.2108 9.6484 18.2206 9.85433C18.2304 10.0505 18.2108 10.2368 18.1517 10.4133C18.0828 10.4035 18.004 10.3937 17.9351 10.3839C17.8564 10.3839 17.7776 10.3741 17.7186 10.3839C17.8269 10.1583 17.8564 9.89355 17.7973 9.57976C17.7481 9.28557 17.6497 9.05022 17.4922 8.8541L17.4331 8.77565L16.9705 9.13848L16.7539 8.86391L18.0237 7.88329H18.004ZM18.3682 7.32434C18.3682 7.32434 18.3978 7.34395 18.4175 7.38318C18.4175 7.4126 18.4372 7.43221 18.4372 7.44201C18.447 7.46163 18.4667 7.49104 18.4864 7.51066L19.0671 8.25593L19.3526 8.03038L19.579 8.31476L19.2935 8.5305L20.0121 9.44247L19.6774 9.69743L17.9942 7.55969L18.1812 7.4126C18.2797 7.34395 18.3387 7.30473 18.3682 7.29492V7.32434Z" fill="#231F20"/>
<path d="M21.3123 5.98115C21.5289 6.47146 21.6273 6.90293 21.5978 7.27556C21.5683 7.62859 21.4108 7.99141 21.1351 8.38366C21.0662 8.34443 20.9973 8.31502 20.9284 8.2856C20.8497 8.25618 20.7709 8.22676 20.7119 8.20715C20.9481 8.01102 21.0958 7.74626 21.1548 7.41285C21.2139 7.08925 21.1844 6.78526 21.0465 6.50088L20.2492 6.8539L20.1016 6.52049L21.3123 5.98115ZM22.1786 5.35356C22.1786 5.35356 22.2081 5.37317 22.2081 5.40259C22.2081 5.4222 22.2081 5.44181 22.2081 5.45162C22.2081 5.47123 22.2179 5.49084 22.2278 5.52026L23.2712 7.8149L22.8873 7.98161L21.7651 5.51045L21.9915 5.41239C22.09 5.37317 22.149 5.34375 22.1687 5.34375L22.1786 5.35356Z" fill="#231F20"/>
<path d="M25.4451 4.64758L25.514 5.0006L24.9923 5.09866V5.1575C24.9923 5.1575 25.0317 5.23595 25.0711 5.29479C25.1203 5.34382 25.1695 5.39285 25.2384 5.44188C25.3172 5.49091 25.3959 5.53013 25.4845 5.55955C25.5829 5.59878 25.6814 5.61839 25.7897 5.61839C25.7503 5.66742 25.7207 5.72626 25.6912 5.7949C25.6617 5.86354 25.6322 5.93219 25.6125 6.00083C25.455 5.97141 25.3073 5.92238 25.1794 5.84393C25.0514 5.77529 24.953 5.69684 24.8939 5.61839C24.8742 5.71645 24.8151 5.82432 24.7167 5.94199C24.6084 6.06947 24.4903 6.17734 24.3426 6.2754C24.3033 6.23618 24.2541 6.19695 24.1753 6.14792C24.1064 6.09889 24.0473 6.05967 23.9883 6.03025C24.0867 5.99102 24.1753 5.94199 24.2737 5.86354C24.3525 5.80471 24.4214 5.72626 24.4805 5.64781C24.5297 5.56936 24.5691 5.49091 24.5986 5.41246C24.6281 5.33401 24.638 5.27517 24.6281 5.22614V5.17711L24.0572 5.28498L23.9883 4.93196L25.4747 4.65739L25.4451 4.64758ZM26.2228 6.19695C26.4098 6.2656 26.5181 6.36366 26.5476 6.52056C26.5771 6.67745 26.5181 6.82455 26.3606 6.95203C26.1932 7.09912 25.9373 7.20699 25.5928 7.27563C25.2483 7.34427 24.9726 7.33447 24.7561 7.25602C24.5691 7.18737 24.4509 7.07951 24.4214 6.92261C24.3919 6.77552 24.4509 6.63823 24.6084 6.50094C24.7758 6.35385 25.0415 6.25579 25.3861 6.18715C25.7207 6.1185 25.9964 6.12831 26.2129 6.19695H26.2228ZM24.9825 6.63823C24.8939 6.69707 24.8545 6.76571 24.8644 6.83435C24.884 6.9128 24.9431 6.96183 25.0514 6.99125C25.1695 7.02067 25.3368 7.01086 25.5534 6.97164C25.7601 6.93241 25.9176 6.87358 26.0161 6.80493C26.1145 6.7461 26.144 6.66765 26.1342 6.5892C26.1243 6.52055 26.0653 6.47152 25.957 6.45191C25.8389 6.4323 25.6814 6.4323 25.4747 6.47152C25.2581 6.51075 25.1006 6.56959 24.9923 6.62842L24.9825 6.63823ZM26.0456 4.39262C26.0456 4.39262 26.1046 4.39262 26.1243 4.39262C26.1342 4.39262 26.144 4.40243 26.144 4.42204C26.144 4.43184 26.144 4.45146 26.144 4.47107C26.144 4.50049 26.144 4.5201 26.144 4.5299C26.144 4.55932 26.144 4.57894 26.144 4.60835L26.2326 5.07905L26.587 5.01041L26.6559 5.37323L26.3015 5.44188L26.4098 6.03025L25.9964 6.1087L25.6814 4.45146L25.8782 4.41223C25.9472 4.40243 26.0062 4.39262 26.0456 4.38281V4.39262Z" fill="#231F20"/>
<path d="M29.7856 5.78505C29.8939 5.80467 29.9825 5.81447 30.0514 5.82428C30.1597 5.84389 30.268 5.8537 30.3762 5.87331L30.3959 5.75563C30.268 5.72622 30.1695 5.67718 30.1006 5.60854C30.0219 5.5399 29.9923 5.45164 30.012 5.35358C30.0317 5.25552 30.0908 5.18688 30.1991 5.14765C30.3172 5.10843 30.4845 5.09862 30.7011 5.12804C30.9275 5.16726 31.1047 5.2261 31.2129 5.30455C31.3114 5.383 31.3507 5.47126 31.3409 5.56932C31.3212 5.65757 31.272 5.72622 31.1736 5.76544C31.085 5.80467 30.9669 5.82428 30.8192 5.81447L30.7995 5.92234C30.8881 5.93214 30.9767 5.94195 31.085 5.95176C31.2031 5.96156 31.3114 5.97137 31.4098 5.98118V6.06943V6.28517C31.1637 6.25575 30.9176 6.22633 30.6715 6.19691C30.4156 6.16749 30.1794 6.13807 29.9727 6.10866C29.9431 6.10866 29.9136 6.10866 29.8841 6.10866C29.8644 6.10866 29.8447 6.10866 29.825 6.10866C29.7856 6.10866 29.7659 6.10866 29.7561 6.10866C29.7462 6.10866 29.7266 6.07924 29.7266 6.04001V5.76544L29.8152 5.78505H29.7856ZM30.3959 6.30478C30.3959 6.30478 30.3959 6.344 30.3861 6.37342C30.3861 6.39303 30.3762 6.40284 30.3664 6.41265C30.3664 6.43226 30.3565 6.45187 30.3565 6.46168L30.327 6.64799L31.902 6.89315L31.8429 7.24617L29.8545 6.93237L29.9727 6.20672L30.2187 6.24594C30.327 6.26555 30.3861 6.27536 30.4058 6.29497L30.3959 6.30478ZM31.5476 4.92211L31.4984 5.20649L29.9333 4.96134L29.9825 4.68676L31.5476 4.93192V4.92211ZM31.2031 4.52986L31.1539 4.80444L30.3762 4.67696L30.4255 4.39258L31.2031 4.52006V4.52986ZM30.4845 5.36339C30.4845 5.36339 30.4156 5.39281 30.4156 5.41242C30.4156 5.43203 30.4255 5.46145 30.4648 5.48106C30.5042 5.51048 30.5633 5.53009 30.642 5.5399C30.7109 5.5497 30.7798 5.5497 30.8192 5.5399C30.8684 5.53009 30.8881 5.51048 30.8881 5.49087C30.8881 5.46145 30.8783 5.44184 30.8389 5.42222C30.7995 5.40261 30.7404 5.383 30.6617 5.37319C30.583 5.36339 30.5239 5.36339 30.4747 5.37319L30.4845 5.36339ZM32.2071 4.65734C32.2071 4.65734 32.217 4.69657 32.1973 4.72599C32.1875 4.7456 32.1776 4.76521 32.1678 4.78482C32.1678 4.81424 32.1481 4.83386 32.1481 4.86327L32.0201 5.64777L32.3745 5.7066L32.3154 6.06943L31.9611 6.01059L31.8528 6.68722L31.4393 6.61858L31.774 4.56909L32.0103 4.60831C32.1284 4.62793 32.1973 4.64754 32.217 4.65734H32.2071Z" fill="#231F20"/>
<path d="M35.3082 7.64828C35.4264 7.80518 35.4657 7.95227 35.4067 8.08956C35.3476 8.23665 35.2098 8.3151 35.0129 8.34452C34.7865 8.37393 34.5109 8.3151 34.1861 8.18762C33.8612 8.05033 33.6348 7.89343 33.497 7.71692C33.3789 7.56002 33.3494 7.40312 33.4084 7.25603C33.4675 7.11875 33.5955 7.0403 33.7923 7.01088C34.0187 6.98146 34.2845 7.0403 34.6094 7.17758C34.9342 7.31487 35.1606 7.47177 35.3082 7.64828ZM35.2984 5.82433C35.1606 6.14794 34.9539 6.39309 34.6783 6.54999C34.3829 6.7265 34.0089 6.79514 33.5659 6.75592C33.5659 6.68727 33.5561 6.61863 33.5364 6.54018C33.5266 6.47154 33.5069 6.4029 33.4872 6.33425C33.625 6.37348 33.7628 6.38328 33.9006 6.38328C34.0286 6.38328 34.1467 6.35387 34.255 6.31464C34.3633 6.27542 34.4519 6.22639 34.5306 6.15774C34.6094 6.09891 34.6586 6.03026 34.6881 5.96162L33.94 5.64782L34.0778 5.32422L35.2984 5.83414V5.82433ZM34.0089 7.33448C33.9006 7.33448 33.8317 7.3639 33.8022 7.43254C33.7726 7.50119 33.8022 7.57964 33.8711 7.65808C33.9498 7.74634 34.0975 7.8346 34.2944 7.92285C34.4912 8.0013 34.6586 8.05033 34.7865 8.04052C34.8948 8.04052 34.9736 8.0013 35.0031 7.93266C35.0326 7.86401 35.0031 7.79537 34.9243 7.71692C34.8358 7.62867 34.6979 7.54041 34.5011 7.46196C34.2944 7.37371 34.1369 7.33448 34.0089 7.33448ZM36.2434 6.0891C36.2434 6.0891 36.2434 6.12832 36.2139 6.16755C36.1942 6.18716 36.1843 6.19697 36.1843 6.20677C36.1745 6.22639 36.1646 6.246 36.1548 6.26561L35.574 7.62867L35.1901 7.47177L35.3378 7.12855L34.885 6.94223L35.0129 6.62844L35.4657 6.81475L35.5642 6.57941L35.1114 6.39309L35.2393 6.07929L35.6921 6.26561L35.8496 5.90278L36.0859 6.00084C36.1745 6.04007 36.2335 6.06949 36.2532 6.0891H36.2434Z" fill="#231F20"/>
<path d="M37.2665 8.7759C37.2665 8.7759 37.2665 8.81513 37.2272 8.83474C37.2075 8.84455 37.1976 8.85435 37.1878 8.86416C37.178 8.87396 37.1583 8.89358 37.1484 8.90338L36.9614 9.15834L38.3887 10.2076L38.182 10.492L36.4102 9.19757L36.9319 8.50133L37.1287 8.64842C37.2075 8.70726 37.2567 8.75629 37.2665 8.7759ZM38.684 7.93257C38.7037 8.10908 38.6446 8.28559 38.5265 8.4523C38.3986 8.619 38.2509 8.72687 38.0737 8.75629C37.8768 8.79551 37.68 8.75629 37.4929 8.6092C37.2961 8.4621 37.1878 8.2954 37.1583 8.08947C37.1386 7.91296 37.1878 7.73645 37.3158 7.56974C37.4437 7.40304 37.5914 7.29517 37.7686 7.26575C37.9654 7.22653 38.1623 7.28537 38.3592 7.43246C38.5462 7.56974 38.6545 7.73645 38.6742 7.93257H38.684ZM37.8867 7.63839C37.8079 7.658 37.7292 7.71684 37.6603 7.8149C37.5914 7.91296 37.552 8.00122 37.552 8.08947C37.552 8.18753 37.6012 8.26598 37.6898 8.33462C37.7784 8.39346 37.8572 8.41307 37.9556 8.38366C38.0343 8.35424 38.1131 8.2954 38.1918 8.20714C38.2607 8.10908 38.3001 8.02083 38.3001 7.93257C38.3001 7.84432 38.2509 7.76587 38.1721 7.70703C38.0836 7.63839 37.9851 7.61878 37.8965 7.63839H37.8867ZM39.7471 8.37385C39.7471 8.37385 39.7471 8.40327 39.7077 8.42288C39.6881 8.43269 39.6782 8.44249 39.6684 8.4523C39.6585 8.4621 39.6388 8.48172 39.629 8.50133L38.5462 9.96245L38.2115 9.71729L39.4124 8.10908L39.6192 8.25618C39.6979 8.31501 39.7471 8.35424 39.757 8.38366L39.7471 8.37385Z" fill="#231F20"/>
<path d="M40.9699 12.3763C41.0191 12.5725 40.9797 12.7196 40.8715 12.8176C40.7533 12.9157 40.6057 12.9157 40.4187 12.8372C40.2021 12.749 39.9757 12.5529 39.7198 12.2587C39.4737 11.9645 39.326 11.7095 39.2768 11.4938C39.2374 11.2977 39.2768 11.1506 39.3752 11.0623C39.4934 10.9643 39.641 10.9643 39.828 11.0329C40.0348 11.1212 40.2612 11.3075 40.5073 11.6017C40.7533 11.8958 40.9108 12.1606 40.9601 12.3763H40.9699ZM39.8773 11.4153C39.7788 11.3565 39.7099 11.3467 39.6509 11.3957C39.6016 11.4349 39.5918 11.5134 39.6312 11.6213C39.6705 11.7487 39.7788 11.9056 39.9363 12.0822C40.0938 12.2685 40.2415 12.4058 40.3596 12.4744C40.458 12.5332 40.5368 12.5332 40.586 12.494C40.6352 12.4548 40.6451 12.3763 40.5958 12.2685C40.5466 12.1508 40.4383 11.9939 40.271 11.7978C40.1135 11.6115 39.9757 11.484 39.8674 11.4153H39.8773ZM41.7672 12.3273L41.5014 12.543L39.7493 10.4739L40.0151 10.2582L41.7672 12.3273ZM42.5153 11.3957L42.2397 11.6213L41.7082 10.9937C41.7082 10.9937 41.6786 11.0525 41.6786 11.1212C41.6786 11.1898 41.6885 11.2682 41.7082 11.3565C41.7377 11.4546 41.7771 11.5526 41.8263 11.6409C41.8854 11.7487 41.9543 11.8468 42.033 11.9253C41.9739 11.9253 41.905 11.9253 41.8361 11.9253C41.7672 11.9253 41.7082 11.9351 41.6393 11.9547C41.531 11.8272 41.4424 11.6409 41.3735 11.4153C41.3144 11.18 41.3046 11.0133 41.3538 10.9054C41.2258 10.9348 41.0585 10.9054 40.8616 10.8074C40.6451 10.7093 40.4876 10.5916 40.3596 10.4445C40.3793 10.3857 40.399 10.317 40.4187 10.2582C40.4383 10.1798 40.4482 10.1111 40.458 10.0523C40.5368 10.1503 40.6155 10.2386 40.714 10.317C40.8026 10.3857 40.8912 10.4445 40.9797 10.4838C41.0585 10.523 41.1372 10.5426 41.1963 10.5622C41.2652 10.5622 41.3046 10.5622 41.3341 10.5426L40.8026 9.91499L41.0683 9.68945L42.5055 11.3859L42.5153 11.3957Z" fill="#231F20"/>
<path d="M12.9555 16.6211C12.7881 16.6211 12.6602 16.7486 12.6602 16.9153V18.092C12.6602 18.2489 12.7881 18.3862 12.9555 18.3862H13.9693V24.3876H12.9948C12.8275 24.3876 12.6995 24.515 12.6995 24.6818V25.8585C12.6995 26.0154 12.8373 26.1527 12.9948 26.1527H20.7023C20.8697 26.1527 20.9977 26.0252 20.9977 25.8585V22.8774C20.9977 22.7205 20.8697 22.5832 20.7023 22.5832H19.4817C19.3242 22.5832 19.1864 22.7107 19.1864 22.8774V24.3876H15.9085V22.2792H17.0996V22.9755C17.0996 23.1324 17.2374 23.2697 17.3949 23.2697H18.6057C18.773 23.2697 18.901 23.1422 18.901 22.9755V19.8179C18.901 19.661 18.773 19.5237 18.6057 19.5237H17.3949C17.2374 19.5237 17.0996 19.6512 17.0996 19.8179V20.5239H15.9085V18.396H19.1766V19.916C19.1766 20.0729 19.3144 20.2101 19.4719 20.2101H20.6827C20.85 20.2101 20.978 20.0827 20.978 19.916V16.9349C20.978 16.778 20.8402 16.6407 20.6827 16.6407H12.9555V16.6211Z" fill="white"/>
<path d="M20.6911 22.7395H19.4705C19.4016 22.7395 19.3524 22.7885 19.3524 22.8572V24.5438H15.7299V22.0825H17.2754V22.9454C17.2754 23.0141 17.3344 23.0631 17.3935 23.0631H18.6043C18.6732 23.0631 18.7224 23.0141 18.7224 22.9454V19.7878C18.7224 19.7192 18.6732 19.6702 18.6043 19.6702H17.3935C17.3246 19.6702 17.2754 19.7192 17.2754 19.7878V20.6704H15.7299V18.1894H19.3524V19.8761C19.3524 19.9349 19.4016 19.9938 19.4705 19.9938H20.6813C20.7502 19.9938 20.7994 19.9447 20.7994 19.8761V16.895C20.7994 16.8264 20.7403 16.7773 20.6813 16.7773H12.9541C12.8852 16.7773 12.8359 16.8264 12.8359 16.895V18.0718C12.8359 18.1404 12.8852 18.1894 12.9541 18.1894H14.1451V24.534H12.9934C12.9245 24.534 12.8753 24.583 12.8753 24.6517V25.8284C12.8753 25.8971 12.9344 25.9461 12.9934 25.9461H20.7009C20.7698 25.9461 20.8191 25.8971 20.8191 25.8284V22.8474C20.8191 22.7787 20.7698 22.7297 20.7009 22.7297L20.6911 22.7395Z" fill="#0075BF" stroke="white" stroke-width="0.3" stroke-linecap="round" stroke-linejoin="round"/>
<path d="M12.9542 16.7773C12.8755 16.7773 12.8164 16.8362 12.8164 16.9146V18.0914C12.8164 18.16 12.8755 18.2188 12.9542 18.2188H14.1256V24.534H12.9837C12.905 24.534 12.8459 24.5929 12.8459 24.6615V25.8382C12.8459 25.9167 12.905 25.9657 12.9837 25.9657H20.6913C20.77 25.9657 20.8291 25.9069 20.8291 25.8382V22.8572C20.8291 22.7885 20.77 22.7297 20.6913 22.7297H19.4707C19.3919 22.7297 19.3328 22.7885 19.3328 22.8572V24.534H15.7399V22.1021H17.246V22.9552C17.246 23.0239 17.3051 23.0827 17.3838 23.0827H18.5946C18.6733 23.0827 18.7324 23.0239 18.7324 22.9552V19.7976C18.7324 19.729 18.6733 19.6604 18.5946 19.6604H17.3838C17.3051 19.6604 17.246 19.7192 17.246 19.7976V20.6606H15.7399V18.2188H19.3328V19.8957C19.3328 19.9643 19.3919 20.0232 19.4707 20.0232H20.6814C20.7602 20.0232 20.8192 19.9643 20.8192 19.8957V16.9146C20.8192 16.8362 20.7602 16.7773 20.6814 16.7773H12.9542ZM12.8459 18.0914V16.9146C12.8459 16.8558 12.8952 16.8166 12.9542 16.8166H20.6814C20.7405 16.8166 20.7897 16.8656 20.7897 16.9146V19.8957C20.7897 19.9545 20.7405 19.9938 20.6814 19.9938H19.4707C19.4116 19.9938 19.3624 19.9447 19.3624 19.8957V18.1894H15.7104V20.6998H17.2854V19.8074C17.2854 19.7486 17.3346 19.7094 17.3838 19.7094H18.5946C18.6536 19.7094 18.693 19.7584 18.693 19.8074V22.965C18.693 23.0239 18.6438 23.0631 18.5946 23.0631H17.3838C17.3248 23.0631 17.2854 23.0141 17.2854 22.965V22.0825H15.7104V24.5732H19.3722V22.867C19.3722 22.8081 19.4214 22.7689 19.4707 22.7689H20.6913C20.7503 22.7689 20.7995 22.8179 20.7995 22.867V25.848C20.7995 25.9069 20.7503 25.9461 20.6913 25.9461H12.9837C12.9247 25.9461 12.8755 25.8971 12.8755 25.848V24.6713C12.8755 24.6125 12.9247 24.5732 12.9837 24.5732H14.1551V18.1894H12.9542C12.8952 18.1894 12.8459 18.1404 12.8459 18.0914Z" fill="white"/>
<path d="M36.8539 16.6211C36.6964 16.6211 36.5586 16.7486 36.5586 16.9153V18.092C36.5586 18.2489 36.6866 18.3862 36.8539 18.3862H37.6119V24.3876H36.8637C36.7062 24.3876 36.5684 24.515 36.5684 24.6818V25.8585C36.5684 26.0154 36.6964 26.1527 36.8637 26.1527H40.998C41.1555 26.1527 41.2933 26.0252 41.2933 25.8585V24.6818C41.2933 24.5249 41.1654 24.3876 40.998 24.3876H39.5412V22.2792H41.0177V22.9755C41.0177 23.1324 41.1457 23.2697 41.313 23.2697H42.4943C42.6616 23.2697 42.7896 23.1422 42.7896 22.9755V19.8179C42.7896 19.661 42.6616 19.5237 42.4943 19.5237H41.313C41.1555 19.5237 41.0177 19.6512 41.0177 19.8179V20.5239H39.5412V18.396H42.9077V19.8964C42.9077 20.0532 43.0357 20.1905 43.203 20.1905H44.3941C44.5516 20.1905 44.6894 20.0631 44.6894 19.8964V16.9251C44.6894 16.7682 44.5614 16.6309 44.3941 16.6309H36.8539V16.6211Z" fill="white"/>
<path d="M44.3927 16.7969H36.8525C36.7836 16.7969 36.7344 16.8459 36.7344 16.9146V18.0913C36.7344 18.16 36.7836 18.209 36.8525 18.209H37.7876V24.5536H36.8623C36.7934 24.5536 36.7442 24.6026 36.7442 24.6713V25.848C36.7442 25.9166 36.7934 25.9657 36.8623 25.9657H40.9966C41.0655 25.9657 41.1148 25.9166 41.1148 25.848V24.6713C41.1148 24.6026 41.0655 24.5536 40.9966 24.5536H39.3626V22.0922H41.1935V22.9552C41.1935 23.0238 41.2427 23.0729 41.3116 23.0729H42.4929C42.5618 23.0729 42.611 23.0238 42.611 22.9552V19.7976C42.611 19.729 42.5618 19.6799 42.4929 19.6799H41.3116C41.2427 19.6799 41.1935 19.729 41.1935 19.7976V20.6802H39.3626V18.1992H43.0835V19.876C43.0835 19.9447 43.1327 19.9937 43.2016 19.9937H44.3927C44.4616 19.9937 44.5108 19.9447 44.5108 19.876V16.9048C44.5108 16.8361 44.4616 16.7871 44.3927 16.7871V16.7969Z" fill="#0075BF" stroke="white" stroke-width="0.3" stroke-linecap="round" stroke-linejoin="round"/>
<path d="M36.8527 16.7774C36.7837 16.7774 36.7148 16.8362 36.7148 16.9147V18.0914C36.7148 18.1601 36.7739 18.2189 36.8527 18.2189H37.7779V24.5341H36.8723C36.8034 24.5341 36.7444 24.5929 36.7444 24.6615V25.8383C36.7444 25.9167 36.8034 25.9658 36.8723 25.9658H41.0066C41.0755 25.9658 41.1444 25.9069 41.1444 25.8383V24.6615C41.1444 24.5929 41.0854 24.5341 41.0066 24.5341H39.3923V22.1021H41.1838V22.9553C41.1838 23.0239 41.2429 23.0827 41.3216 23.0827H42.5029C42.5816 23.0827 42.6308 23.0239 42.6308 22.9553V19.7977C42.6308 19.729 42.5718 19.6604 42.5029 19.6604H41.3216C41.2527 19.6604 41.1838 19.7192 41.1838 19.7977V20.6606H39.3923V18.2189H43.0738V19.8761C43.0738 19.9448 43.1328 20.0036 43.2116 20.0036H44.4027C44.4814 20.0036 44.5405 19.9448 44.5405 19.8761V16.9049C44.5405 16.8264 44.4814 16.7676 44.4027 16.7676H36.8625L36.8527 16.7774ZM36.7542 18.0914V16.9147C36.7542 16.8558 36.8034 16.8166 36.8527 16.8166H44.3928C44.4519 16.8166 44.4913 16.8656 44.4913 16.9147V19.8859C44.4913 19.9448 44.442 19.984 44.3928 19.984H43.2017C43.1427 19.984 43.1033 19.9448 43.1033 19.8859V18.1993H39.3529V20.7097H41.2133V19.8173C41.2133 19.7585 41.2626 19.7192 41.3118 19.7192H42.493C42.5521 19.7192 42.5914 19.7585 42.5914 19.8173V22.9749C42.5914 23.0337 42.5422 23.0729 42.493 23.0729H41.3118C41.2527 23.0729 41.2133 23.0239 41.2133 22.9749V22.0923H39.3529V24.5831H40.9968C41.0559 24.5831 41.0952 24.6321 41.0952 24.6811V25.8579C41.0952 25.9167 41.046 25.9559 40.9968 25.9559H36.8625C36.8034 25.9559 36.7641 25.9069 36.7641 25.8579V24.6811C36.7641 24.6223 36.8133 24.5831 36.8625 24.5831H37.7976V18.1993H36.8428C36.7837 18.1993 36.7444 18.1502 36.7444 18.1012L36.7542 18.0914Z" fill="white"/>
<path d="M31.9014 16.6211L31.5667 16.7682L31.5864 16.7976C31.5864 16.7976 29.4307 22.1518 29.1452 22.8578C28.8597 22.1518 26.6449 16.729 26.6449 16.729H26.6252L26.3595 16.6113H23.2292C23.0422 16.6113 22.8945 16.7388 22.8945 16.9055V18.0823C22.8945 18.249 23.0422 18.3764 23.2292 18.3764H23.9084V24.3778H23.2292C23.0422 24.3778 22.8945 24.5053 22.8945 24.672V25.8487C22.8945 26.0154 23.0422 26.1429 23.2292 26.1429H26.6941C26.8812 26.1429 27.0288 26.0154 27.0288 25.8487V24.672C27.0288 24.5053 26.8812 24.3778 26.6941 24.3778H25.8968V20.0239C25.9263 20.1023 28.3675 25.9762 28.3675 25.9762C28.4266 26.0939 28.5447 26.1625 28.6727 26.1625H29.5586C29.6866 26.1625 29.8047 26.0939 29.8638 25.9958C29.8638 25.9958 32.2754 20.0827 32.3247 19.965V24.3778H31.5962C31.4092 24.3778 31.2616 24.5053 31.2616 24.672V25.8487C31.2616 26.0154 31.4092 26.1429 31.5962 26.1429H34.9726C35.1596 26.1429 35.3073 26.0154 35.3073 25.8487V24.672C35.3073 24.5053 35.1596 24.3778 34.9726 24.3778H34.3131V18.3764H34.9529C35.1399 18.3764 35.2876 18.249 35.2876 18.0823V16.9055C35.2876 16.7388 35.1399 16.6113 34.9529 16.6113H31.8915L31.9014 16.6211Z" fill="white"/>
<path d="M34.9829 24.5535H34.1462V18.209H34.9632C35.0518 18.209 35.1207 18.1599 35.1207 18.0913V16.9145C35.1207 16.8459 35.0518 16.7969 34.9632 16.7969H31.9019C31.833 16.7969 31.7542 16.8753 31.7542 16.8753L29.1555 23.3376L26.5174 16.8753C26.5174 16.8753 26.4387 16.7969 26.3698 16.7969H23.2395C23.1509 16.7969 23.082 16.8459 23.082 16.9145V18.0913C23.082 18.1599 23.1509 18.209 23.2395 18.209H24.0959V24.5535H23.2395C23.1509 24.5535 23.082 24.6026 23.082 24.6712V25.848C23.082 25.9166 23.1509 25.9656 23.2395 25.9656H26.7045C26.7931 25.9656 26.862 25.9166 26.862 25.848V24.6712C26.862 24.6026 26.7931 24.5535 26.7045 24.5535H25.7299V19.1405L26.1631 20.18L28.5452 25.9068C28.5452 25.9068 28.624 25.9852 28.6929 25.9852H29.5788C29.6477 25.9852 29.7067 25.9558 29.7264 25.9068L32.0594 20.1898L32.522 19.0621V24.5437H31.6164C31.5278 24.5437 31.4589 24.5928 31.4589 24.6614V25.8382C31.4589 25.9068 31.5278 25.9558 31.6164 25.9558H34.9927C35.0813 25.9558 35.1502 25.9068 35.1502 25.8382V24.6614C35.1502 24.5928 35.0813 24.5437 34.9927 24.5437L34.9829 24.5535Z" fill="#0075BF" stroke="white" stroke-width="0.3" stroke-linecap="round" stroke-linejoin="round"/>
<path d="M31.9 16.7773C31.8311 16.7773 31.7425 16.8558 31.7425 16.8558C31.7425 16.8558 29.1832 23.2102 29.1536 23.2886C29.1241 23.22 26.5254 16.8656 26.5254 16.8656C26.5254 16.8656 26.4368 16.7773 26.3679 16.7773H23.2377C23.1392 16.7773 23.0703 16.8362 23.0703 16.9146V18.0914C23.0703 18.16 23.1491 18.2188 23.2377 18.2188H24.0744V24.534H23.2377C23.1392 24.534 23.0703 24.5929 23.0703 24.6615V25.8382C23.0703 25.9167 23.1491 25.9657 23.2377 25.9657H26.7026C26.801 25.9657 26.8798 25.9069 26.8798 25.8382V24.6615C26.8798 24.5929 26.801 24.534 26.7026 24.534H25.7478V19.2191C25.797 19.3466 28.5335 25.9167 28.5335 25.9167C28.563 25.9657 28.6221 26.0049 28.691 26.0049H29.5769C29.6458 26.0049 29.7147 25.9755 29.7442 25.9167C29.7442 25.9167 32.4512 19.2779 32.5004 19.1504V24.5438H31.6047C31.5062 24.5438 31.4275 24.6027 31.4275 24.6713V25.848C31.4275 25.9265 31.5062 25.9755 31.6047 25.9755H34.981C35.0795 25.9755 35.1582 25.9167 35.1582 25.848V24.6713C35.1582 24.6027 35.0795 24.5438 34.981 24.5438H34.164V18.2287H34.9613C34.9613 18.2287 35.0499 18.2188 35.0795 18.1894C35.1188 18.16 35.1287 18.1306 35.1287 18.0914V16.9146C35.1287 16.9146 35.109 16.846 35.0795 16.8166C35.0499 16.797 35.0007 16.7773 34.9613 16.7773H31.9ZM31.9 16.8068H34.9613C34.9613 16.8068 35.0401 16.8166 35.0598 16.8362C35.0893 16.8558 35.0991 16.8754 35.0991 16.9048V18.0816C35.0991 18.0816 35.0893 18.1306 35.0598 18.1502C35.0302 18.1698 35.0007 18.1796 34.9613 18.1796H34.1345V24.5634H34.981C35.0598 24.5634 35.1188 24.6125 35.1188 24.6615V25.8382C35.1188 25.8971 35.0598 25.9363 34.981 25.9363H31.6047C31.5259 25.9363 31.4669 25.8873 31.4669 25.8382V24.6615C31.4669 24.6027 31.5259 24.5634 31.6047 24.5634H32.53V19.0622H32.5004L29.7049 25.8971C29.6852 25.9363 29.636 25.9657 29.5671 25.9657H28.6811C28.6221 25.9657 28.5729 25.9363 28.5433 25.8971L25.7281 19.1308H25.6985V24.5634H26.6829C26.7616 24.5634 26.8207 24.6125 26.8207 24.6615V25.8382C26.8207 25.8971 26.7616 25.9363 26.6829 25.9363H23.218C23.1392 25.9363 23.0802 25.8873 23.0802 25.8382V24.6615C23.0802 24.6027 23.1392 24.5634 23.218 24.5634H24.094V18.1796H23.218C23.1392 18.1796 23.0802 18.1306 23.0802 18.0816V16.9048C23.0802 16.846 23.1392 16.8068 23.218 16.8068H26.3482C26.4073 16.8068 26.486 16.8754 26.486 16.8754L29.1438 23.3671L31.7622 16.8754C31.7622 16.8754 31.8409 16.8068 31.8901 16.8068H31.9Z" fill="white"/>
<path d="M36.855 16.4844C36.6187 16.4844 36.4219 16.6805 36.4219 16.9159V18.0926C36.4219 18.328 36.6187 18.5241 36.855 18.5241H37.4751V24.2411H36.8648C36.6286 24.2411 36.4317 24.4372 36.4317 24.6726V25.8493C36.4317 26.0846 36.6286 26.2808 36.8648 26.2808H40.9991C41.2354 26.2808 41.4322 26.0846 41.4322 25.8493V24.6726C41.4322 24.4372 41.2354 24.2411 40.9991 24.2411H39.6801V22.4073H40.881V22.9565C40.881 23.1918 41.0779 23.388 41.3141 23.388H42.4953C42.7316 23.388 42.9285 23.1918 42.9285 22.9565V20.201C43.0072 20.2598 43.0958 20.3088 43.2041 20.3088H44.3952C44.6314 20.3088 44.8283 20.1127 44.8283 19.8773V16.9061C44.8283 16.6707 44.6314 16.4746 44.3952 16.4746H36.855V16.4844ZM36.668 18.0926V16.9159C36.668 16.808 36.7566 16.7198 36.855 16.7198H44.3952C44.5034 16.7198 44.592 16.808 44.592 16.9159V19.8872C44.592 19.995 44.5034 20.0735 44.3952 20.0735H43.2041C43.0958 20.0735 43.0171 19.9852 43.0171 19.8872V18.2887H39.4438V20.6128H41.1173V19.8087C41.1173 19.7008 41.2058 19.6224 41.3043 19.6224H42.4855C42.5938 19.6224 42.6824 19.7106 42.6824 19.8087V22.9663C42.6824 23.0742 42.5938 23.1526 42.4855 23.1526H41.3043C41.196 23.1526 41.1173 23.0643 41.1173 22.9663V22.172H39.4438V24.4862H40.9991C41.1074 24.4862 41.1862 24.5745 41.1862 24.6726V25.8493C41.1862 25.9572 41.0976 26.0356 40.9991 26.0356H36.8648C36.7566 26.0356 36.6778 25.9474 36.6778 25.8493V24.6726C36.6778 24.5647 36.7664 24.4862 36.8648 24.4862H37.7114V18.2887H36.8451C36.7369 18.2887 36.6581 18.2005 36.6581 18.1024L36.668 18.0926ZM42.7808 18.5241V19.4851C42.7021 19.4263 42.6135 19.3772 42.5052 19.3772H41.324C41.0877 19.3772 40.8909 19.5734 40.8909 19.8087V20.3775H39.6899V18.5241H42.7808Z" fill="#231F20"/>
<path d="M12.9526 16.4844C12.8345 16.4844 12.7262 16.5334 12.6475 16.6119C12.5589 16.6903 12.5195 16.7982 12.5195 16.9158V18.0926C12.5195 18.2103 12.5687 18.3181 12.6475 18.3966C12.7262 18.475 12.8345 18.5241 12.9526 18.5241H13.8189V24.241H12.9822C12.7361 24.241 12.5392 24.4372 12.5392 24.6725V25.8493C12.5392 26.0846 12.7361 26.2807 12.9822 26.2807H20.6897C20.9358 26.2807 21.1326 26.0846 21.1326 25.8493V22.8682C21.1326 22.6328 20.9358 22.4367 20.6897 22.4367H19.4691C19.2328 22.4367 19.036 22.6328 19.036 22.8682V24.241H16.0435V22.4073H16.9491V22.9564C16.9491 23.1918 17.146 23.3879 17.3822 23.3879H18.593C18.8391 23.3879 19.0261 23.1918 19.0261 22.9564V19.9067C19.0261 20.1421 19.223 20.3284 19.4592 20.3284H20.67C20.9161 20.3284 21.1031 20.1323 21.1031 19.8969V16.9158C21.1031 16.6805 20.9062 16.4844 20.67 16.4844H12.9428H12.9526ZM12.8148 18.2201C12.8148 18.2201 12.7558 18.1416 12.7558 18.0828V16.906C12.7558 16.857 12.7755 16.808 12.8148 16.7688C12.8542 16.7295 12.9034 16.7099 12.9526 16.7099H20.6798C20.7881 16.7099 20.8767 16.7982 20.8767 16.906V19.8871C20.8767 19.995 20.7881 20.0734 20.6798 20.0734H19.4691C19.3608 20.0734 19.2722 19.9852 19.2722 19.8871V18.3868C19.2722 18.3181 19.223 18.2691 19.1541 18.2691H15.9254C15.8565 18.2691 15.8073 18.3181 15.8073 18.3868V20.4755C15.8073 20.5441 15.8565 20.5932 15.9254 20.5932H17.0673C17.1362 20.5932 17.1854 20.5441 17.1854 20.4755V19.7891C17.1854 19.6812 17.274 19.6027 17.3822 19.6027H18.593C18.7013 19.6027 18.7899 19.691 18.7899 19.7891V22.9466C18.7899 23.0545 18.7013 23.133 18.593 23.133H17.3822C17.274 23.133 17.1854 23.0447 17.1854 22.9466V22.27C17.1854 22.2014 17.1362 22.1523 17.0673 22.1523H15.9254C15.8565 22.1523 15.8073 22.2014 15.8073 22.27V24.3489C15.8073 24.4176 15.8565 24.4666 15.9254 24.4666H19.1541C19.223 24.4666 19.2722 24.4176 19.2722 24.3489V22.8486C19.2722 22.7407 19.3608 22.6623 19.4691 22.6623H20.6897C20.798 22.6623 20.8866 22.7505 20.8866 22.8486V25.8296C20.8866 25.9375 20.798 26.016 20.6897 26.016H12.9822C12.8739 26.016 12.7853 25.9277 12.7853 25.8296V24.6529C12.7853 24.545 12.8739 24.4666 12.9822 24.4666H13.937C14.0059 24.4666 14.0551 24.4176 14.0551 24.3489V18.3868C14.0551 18.3181 13.9961 18.2691 13.937 18.2691H12.9526C12.9034 18.2691 12.8444 18.2495 12.8148 18.2103V18.2201ZM19.036 18.5142V19.7891C19.036 19.5537 18.8391 19.3674 18.6028 19.3674H17.3921C17.146 19.3674 16.959 19.5635 16.959 19.7989V20.3676H16.0534V18.5142H19.036Z" fill="#231F20"/>
<path d="M31.9011 16.4844C31.6845 16.4844 31.4581 16.6903 31.4286 16.7197C31.4187 16.7295 31.4089 16.7491 31.3991 16.7589C31.3991 16.7589 29.3516 21.868 29.1547 22.3681C28.948 21.868 26.8612 16.7589 26.8612 16.7589C26.8612 16.7393 26.8415 16.7295 26.8316 16.7197C26.8021 16.7001 26.5757 16.4942 26.3591 16.4942H23.2289C22.9336 16.4942 22.6875 16.6903 22.6875 16.9257V18.1024C22.6875 18.3377 22.9237 18.5339 23.2289 18.5339H23.7014V24.2509H23.2289C22.9336 24.2509 22.6875 24.447 22.6875 24.6823V25.8591C22.6875 26.0944 22.9237 26.2905 23.2289 26.2905H26.6938C26.9891 26.2905 27.2352 26.0944 27.2352 25.8591V24.6823C27.2352 24.447 26.9891 24.2509 26.6938 24.2509H26.1032V21.0933C26.4773 21.9856 28.1802 26.0356 28.1802 26.0356C28.2688 26.2023 28.4657 26.3101 28.6822 26.3101H29.5681C29.7847 26.3101 29.9816 26.2121 30.0603 26.0454C30.0603 26.0454 30.0702 26.0258 32.1275 21.0442V24.2509H31.5959C31.3006 24.2509 31.0545 24.447 31.0545 24.6823V25.8591C31.0545 26.0944 31.3006 26.2905 31.5959 26.2905H34.9723C35.2676 26.2905 35.5137 26.0944 35.5137 25.8591V24.6823C35.5137 24.447 35.2774 24.2509 34.9723 24.2509H34.5195V18.5339H34.9526C35.2479 18.5339 35.494 18.3377 35.494 18.1024V16.9257C35.494 16.6903 35.2479 16.4942 34.9526 16.4942H31.8912L31.9011 16.4844ZM31.9011 16.7197H34.9624C35.1199 16.7197 35.2577 16.808 35.2577 16.9158V18.0926C35.2577 18.1906 35.1199 18.2789 34.9624 18.2789H34.4112C34.3423 18.2789 34.2931 18.3279 34.2931 18.3966V24.3587C34.2931 24.4274 34.3423 24.4764 34.4112 24.4764H34.9821C35.1396 24.4764 35.2774 24.5646 35.2774 24.6627V25.8395C35.2774 25.9375 35.1396 26.0258 34.9821 26.0258H31.6058C31.4483 26.0258 31.3105 25.9375 31.3105 25.8395V24.6627C31.3105 24.5646 31.4483 24.4764 31.6058 24.4764H32.2554C32.3243 24.4764 32.3736 24.4274 32.3736 24.3587V20.4265C32.3736 20.3676 32.3342 20.3186 32.2751 20.3088C32.2161 20.299 32.157 20.3284 32.1373 20.3774L29.8536 25.9277C29.8142 25.9964 29.706 26.0552 29.578 26.0552H28.6921C28.5641 26.0552 28.446 26.0062 28.4066 25.9179L26.1032 20.4363C26.0835 20.3872 26.0245 20.3578 25.9654 20.3676C25.9063 20.3774 25.867 20.4265 25.867 20.4853V24.3587C25.867 24.4274 25.9162 24.4764 25.9851 24.4764H26.6938C26.8513 24.4764 26.9891 24.5646 26.9891 24.6627V25.8395C26.9891 25.9375 26.8513 26.0258 26.6938 26.0258H23.2289C23.0714 26.0258 22.9336 25.9375 22.9336 25.8395V24.6627C22.9336 24.5646 23.0714 24.4764 23.2289 24.4764H23.8294C23.8983 24.4764 23.9475 24.4274 23.9475 24.3587V18.3966C23.9475 18.3279 23.8983 18.2789 23.8294 18.2789H23.2289C23.0714 18.2789 22.9336 18.1906 22.9336 18.0926V16.9158C22.9336 16.8178 23.0714 16.7197 23.2289 16.7197H26.3591C26.4379 16.7197 26.5659 16.808 26.6446 16.8668C26.6643 16.9257 29.0366 22.7211 29.0366 22.7211C29.0563 22.7701 29.0957 22.7995 29.1449 22.7995C29.1941 22.7995 29.2335 22.7701 29.2532 22.7211C29.2532 22.7211 31.5762 16.9257 31.5959 16.8668C31.6747 16.7982 31.8026 16.7099 31.8814 16.7099L31.9011 16.7197Z" fill="#231F20"/>
<path d="M28.2119 3.2843C38.0948 3.2843 46.1173 11.2371 46.3535 21.1315H52.7519C52.4467 11.0998 41.5597 3.01953 28.2119 3.01953C14.864 3.01953 3.97703 11.1096 3.67188 21.1315H10.0702C10.2966 11.2371 18.3289 3.2843 28.2119 3.2843Z" fill="#00A651"/>
<path d="M28.2119 39.8531C18.3289 39.8531 10.3064 31.9003 10.0702 22.0059H3.67188C3.97703 32.0376 14.864 40.1178 28.2119 40.1178C41.5597 40.1178 52.4467 32.0278 52.7519 22.0059H46.3535C46.1271 31.9003 38.0948 39.8531 28.2119 39.8531Z" fill="#00A651"/>
<path d="M13.5142 29.1729C13.5142 29.1729 13.4945 29.2023 13.4551 29.2023C13.4355 29.2023 13.4256 29.2023 13.4158 29.2023C13.3961 29.2023 13.3862 29.2121 13.3764 29.2219L13.1697 29.3298L13.8883 30.6536L13.6028 30.8105L12.707 29.1533L13.337 28.8101L13.4453 29.0062C13.4847 29.0847 13.5142 29.1435 13.5142 29.1631V29.1729ZM14.5576 29.3004C14.5379 29.4377 14.4789 29.5259 14.3706 29.5848C14.2623 29.6436 14.1442 29.6436 14.0261 29.5848C13.8883 29.5161 13.7701 29.3985 13.6717 29.2023C13.5831 29.0258 13.5437 28.8689 13.5634 28.7316C13.5831 28.6042 13.652 28.5061 13.7603 28.4473C13.8686 28.3884 13.9769 28.3884 14.1048 28.4473C14.2328 28.5061 14.3509 28.6238 14.4395 28.7905C14.5379 28.9768 14.5872 29.1435 14.5675 29.2906L14.5576 29.3004ZM14.0753 28.7905C14.0753 28.7905 13.9769 28.7709 13.9276 28.7905C13.8784 28.8101 13.8587 28.8493 13.8489 28.9081C13.8489 28.967 13.8489 29.0356 13.8981 29.1043C13.9375 29.1827 13.9867 29.2317 14.0359 29.2514C14.0851 29.271 14.1343 29.271 14.1836 29.2514C14.2328 29.2219 14.2623 29.1827 14.2623 29.1337C14.2623 29.0749 14.2525 29.016 14.2131 28.9376C14.1737 28.8591 14.1245 28.8101 14.0753 28.7905ZM15.6798 29.5652C15.6798 29.5652 15.6995 29.624 15.6995 29.6338C15.6995 29.6436 15.6995 29.6534 15.6798 29.6632C15.6798 29.6632 15.6601 29.6632 15.6306 29.673C15.6109 29.673 15.5912 29.673 15.5715 29.6828C15.5518 29.6828 15.5223 29.6926 15.5026 29.7123L14.9415 30.0162L15.099 30.3006L14.8037 30.4673L14.6462 30.1731L14.0851 30.4771L13.8981 30.1437L15.5124 29.271L15.601 29.4279C15.6306 29.4867 15.6601 29.5357 15.6699 29.5652H15.6798ZM15.1089 29.3396L14.8628 29.4769L14.1245 28.1138L14.3706 27.9766L15.1089 29.3396ZM15.2467 28.8297L15.0006 28.967L14.6265 28.2806L14.8726 28.1433L15.2467 28.8297Z" fill="#231F20"/>
<path d="M16.6056 32.6838L15.9362 31.8601L15.6114 32.115L16.1134 32.7426L15.3948 33.3212L15.1586 33.027L15.6212 32.6544L14.6172 31.3992L14.8731 31.2031L15.385 31.8307L15.7098 31.5757L15.0601 30.7618L15.3161 30.5559L16.4186 31.9287C16.4776 31.8993 16.5367 31.8601 16.6154 31.8012C16.6843 31.762 16.7434 31.7228 16.7926 31.6836L15.8181 30.4774L16.074 30.2715L17.3143 31.8012C17.206 31.8895 17.0978 31.9679 16.9796 32.0464C16.8615 32.1248 16.7532 32.1935 16.6745 32.2327L16.8714 32.4877L16.6154 32.6936L16.6056 32.6838Z" fill="#231F20"/>
<path d="M18.5165 33.1341C18.1917 33.5068 17.8668 33.7519 17.542 33.8598C17.2369 33.9677 16.8726 33.9775 16.4494 33.9088C16.4494 33.8402 16.4494 33.7617 16.4494 33.7029C16.4494 33.6244 16.4494 33.5558 16.4297 33.4872C16.6856 33.6048 16.9612 33.6244 17.2565 33.546C17.5519 33.4676 17.7881 33.3303 17.9751 33.1145L17.3747 32.5948L17.5912 32.3398L18.5067 33.1341H18.5165ZM19.3729 33.6146C19.3729 33.6146 19.3729 33.6441 19.3434 33.6539C19.3237 33.6539 19.3139 33.6735 19.304 33.6735C19.2843 33.6833 19.2745 33.7029 19.2548 33.7127L17.729 35.4582L17.4436 35.2032L19.0776 33.3303L19.2548 33.4774C19.3237 33.5362 19.3631 33.5754 19.3729 33.595V33.6146Z" fill="#231F20"/>
<path d="M21.2304 34.7919C21.2304 34.7919 21.2304 34.8311 21.2009 34.8605C21.1812 34.8802 21.1714 34.89 21.1615 34.8998C21.1517 34.9194 21.132 34.9292 21.1221 34.9488L19.9901 36.8414L19.6751 36.6551L20.0886 35.9588L19.8425 35.8117L20 35.547L20.2461 35.6941L20.4429 35.3705L20.2067 35.2332C20.0295 35.4293 19.8425 35.5764 19.6358 35.6745C19.4094 35.7823 19.1436 35.8314 18.8384 35.8314C18.8384 35.7725 18.8286 35.7137 18.8188 35.645C18.8089 35.5862 18.7892 35.5176 18.7695 35.4587C19.0648 35.4979 19.3405 35.4489 19.5964 35.292C19.8031 35.1645 19.9803 34.9782 20.1279 34.7429L19.5373 34.3898L19.7047 34.1055L20.63 34.6546C20.5906 34.7135 20.5611 34.7723 20.5217 34.8311C20.4823 34.89 20.4429 34.939 20.4134 34.9978L20.6103 35.1155L20.9154 34.6056L21.1025 34.7135C21.1812 34.7625 21.2304 34.7919 21.2403 34.8115L21.2304 34.7919ZM21.7226 35.0567C21.7226 35.0567 21.7226 35.0861 21.6931 35.1057C21.6734 35.1155 21.6635 35.1253 21.6537 35.1351C21.6439 35.1547 21.634 35.1645 21.6242 35.1841L20.4429 37.165L20.1181 36.9787L21.3879 34.8409L21.5946 34.9586C21.6734 35.0076 21.7128 35.0371 21.7226 35.0567Z" fill="#231F20"/>
<path d="M22.0578 36.9501C22.0578 36.9501 22.0578 36.9893 22.0381 37.0187C22.0283 37.0383 22.0184 37.0481 22.0086 37.058C22.0086 37.0776 21.9889 37.0874 21.9889 37.107L21.8905 37.3816L23.4162 37.9405L23.3079 38.2445L21.418 37.5483L21.6936 36.803L21.9101 36.8814C21.9987 36.9109 22.048 36.9403 22.0676 36.9599L22.0578 36.9501ZM23.3473 35.8028L23.2292 36.1068L22.7764 35.9401L22.7468 36.0185C22.6878 36.146 22.6779 36.2833 22.7272 36.45C22.7764 36.6265 22.8748 36.754 23.0225 36.8422C22.9732 36.8618 22.9142 36.8912 22.865 36.9305C22.8158 36.9599 22.7665 36.9991 22.7075 37.0481C22.609 36.9599 22.5401 36.8422 22.4811 36.7147C22.4319 36.5971 22.4023 36.4794 22.3925 36.3715C22.3433 36.4304 22.2448 36.4892 22.107 36.548C21.9594 36.6069 21.8117 36.6461 21.6542 36.6657C21.6345 36.6069 21.6148 36.548 21.5853 36.4794C21.5558 36.4107 21.5262 36.3519 21.4869 36.3029C21.5755 36.3225 21.6739 36.3225 21.7723 36.3029C21.8609 36.2833 21.9495 36.2637 22.0381 36.2146C22.1169 36.1754 22.1858 36.1264 22.2448 36.0773C22.3039 36.0283 22.3433 35.9793 22.3629 35.9302L22.4122 35.8028L21.9298 35.6263L22.048 35.3223L23.3375 35.793L23.3473 35.8028ZM24.1348 35.9793C24.1348 35.9793 24.1348 36.0185 24.1151 36.0479C24.0954 36.0675 24.0856 36.0773 24.0757 36.097C24.056 36.1166 24.0462 36.1362 24.0364 36.1656L23.4851 37.6463L23.1209 37.5188L23.4359 36.6657L23.0323 36.5186L23.1406 36.2244L23.5442 36.3715L23.741 35.8322L23.9379 35.9008C24.0462 35.9401 24.1053 35.9695 24.1249 35.9891L24.1348 35.9793Z" fill="#231F20"/>
<path d="M25.7607 36.4989C25.6722 36.9794 25.5245 37.352 25.3079 37.6266C25.1012 37.8718 24.7961 38.0777 24.3925 38.2346C24.3531 38.1758 24.3236 38.1071 24.2842 38.0483C24.2448 37.9796 24.1956 37.9208 24.1562 37.8816C24.4319 37.8522 24.678 37.7247 24.8945 37.5089C25.1012 37.2932 25.239 37.048 25.2883 36.7637L24.5008 36.6264L24.5598 36.293L25.7607 36.4989ZM26.7353 36.4695C26.7353 36.4695 26.7451 36.4989 26.7353 36.5283C26.7254 36.5479 26.7156 36.5577 26.7156 36.5675C26.7156 36.5872 26.7057 36.6068 26.6959 36.6264L26.3021 38.9014L25.9182 38.8328L26.3415 36.3812L26.5679 36.4204C26.6664 36.4401 26.7156 36.4499 26.7353 36.4597V36.4695Z" fill="#231F20"/>
<path d="M28.6236 36.606V36.9394H28.1412V37.0277C28.1314 37.1649 28.1806 37.3022 28.279 37.4297C28.3873 37.5768 28.5251 37.6553 28.6925 37.6847C28.6531 37.7239 28.6137 37.7729 28.5743 37.822C28.535 37.871 28.5054 37.92 28.4759 37.9789C28.3578 37.9298 28.2495 37.8514 28.1412 37.7533C28.0526 37.6651 27.9837 37.567 27.9345 37.4591C27.9148 37.5376 27.8459 37.6258 27.7278 37.7239C27.6097 37.8318 27.4916 37.92 27.3537 37.9887C27.3144 37.9396 27.275 37.8906 27.2258 37.8416C27.1766 37.7925 27.1273 37.7435 27.0781 37.7141C27.1667 37.7043 27.2652 37.6651 27.3537 37.616C27.4325 37.567 27.5014 37.5082 27.5703 37.4395C27.6294 37.3709 27.6786 37.3022 27.718 37.2336C27.7573 37.1649 27.777 37.1061 27.777 37.0571V36.9296H27.2553V36.5962L28.6236 36.5766V36.606ZM27.8361 38.1358C27.8361 38.1358 27.8558 38.1652 27.8361 38.2044C27.8361 38.224 27.8262 38.2338 27.8262 38.2436C27.8262 38.2632 27.8262 38.2828 27.8262 38.2927V38.577L29.4603 38.5574V38.881L27.4522 38.9104V38.1161H27.6687C27.7672 38.1161 27.8262 38.1161 27.8459 38.1358H27.8361ZM29.4209 36.4883C29.4209 36.4883 29.4406 36.5177 29.4209 36.557C29.411 36.5766 29.4012 36.5962 29.4012 36.6158C29.4012 36.6452 29.3914 36.6648 29.3914 36.6942L29.411 38.273H29.0271L29.0173 37.3611H28.5842V37.0571H29.0173V36.4785H29.224C29.3421 36.4785 29.4012 36.4785 29.4307 36.4883H29.4209Z" fill="#231F20"/>
<path d="M31.4098 36.3605L31.4689 36.6743L30.9373 36.7724L30.957 36.8705C31.0062 37.1156 31.0948 37.3411 31.2425 37.5275C31.4 37.7334 31.5772 37.8707 31.774 37.9197C31.7347 37.9589 31.6953 38.008 31.6559 38.0766C31.6165 38.1355 31.587 38.1845 31.5673 38.2433C31.4197 38.1747 31.2818 38.0864 31.1637 37.9687C31.0358 37.8413 30.9472 37.6942 30.8783 37.5373C30.8684 37.7138 30.829 37.8903 30.7503 38.0668C30.6814 38.2237 30.583 38.3708 30.4648 38.4983C30.4156 38.459 30.3566 38.4198 30.2975 38.3806C30.2286 38.3414 30.1794 38.3022 30.1203 38.2825C30.3073 38.1453 30.4353 37.9393 30.5239 37.6648C30.6026 37.4098 30.6223 37.1646 30.583 36.9489L30.5633 36.8508L30.0317 36.9489L29.9727 36.6351L31.4098 36.3605ZM31.9414 36.0663C31.9414 36.0663 31.9611 36.0958 31.9512 36.135C31.9512 36.1644 31.9512 36.184 31.9414 36.1938C31.9414 36.2232 31.9414 36.2429 31.9414 36.2723L32.1087 37.1254L32.4335 37.0666L32.4926 37.4L32.1678 37.4588L32.3646 38.4983L31.9906 38.5669L31.5181 36.1252L31.7248 36.086C31.8331 36.0663 31.902 36.0565 31.9217 36.0663H31.9414Z" fill="#231F20"/>
<path d="M33.4075 35.733C33.4075 35.733 33.4272 35.7624 33.4272 35.8115C33.4272 35.8311 33.4272 35.8507 33.4272 35.8507C33.4272 35.8703 33.4272 35.8801 33.4272 35.8997C33.4272 35.939 33.4469 35.988 33.4666 36.0468C33.4862 36.1057 33.5158 36.1743 33.5453 36.2626C33.6142 36.4293 33.7422 36.596 33.9587 36.7725C34.1753 36.949 34.382 37.047 34.5789 37.0765C34.5493 37.1255 34.51 37.1843 34.4804 37.253C34.4411 37.3216 34.4214 37.3903 34.4017 37.4393C34.2639 37.4001 34.1064 37.3216 33.9194 37.1843C33.7422 37.0568 33.6339 36.949 33.565 36.8411C33.5748 36.9784 33.565 37.1353 33.5453 37.3118C33.5158 37.5275 33.4567 37.7041 33.3681 37.8413C33.3189 37.8217 33.2598 37.8021 33.1909 37.7825C33.122 37.7629 33.063 37.7433 33.0039 37.7335C33.1516 37.5079 33.2205 37.2334 33.2303 36.9294C33.2303 36.6058 33.1614 36.2527 33.0138 35.8605L33.2205 35.7821C33.3189 35.7428 33.378 35.7232 33.4075 35.733ZM34.5493 35.1152C34.5493 35.1152 34.569 35.1348 34.569 35.1643C34.569 35.1839 34.569 35.2035 34.569 35.2133C34.569 35.2329 34.569 35.2525 34.5887 35.2721L35.4353 37.4295L35.0809 37.5668L34.1753 35.2525L34.3918 35.1741C34.4804 35.1447 34.5395 35.125 34.5592 35.125L34.5493 35.1152Z" fill="#231F20"/>
<path d="M36.4695 34.3991L36.6172 34.6345L35.2883 35.4484L35.1406 35.213L36.4695 34.3991ZM35.9576 34.3109L36.1053 34.5462L35.4458 34.9581L35.2981 34.7227L35.9576 34.3109ZM36.4597 34.9483C36.5876 34.9483 36.6861 34.9973 36.7451 35.0855C36.8042 35.1738 36.8042 35.2817 36.7451 35.3993C36.6861 35.5366 36.5679 35.6543 36.3809 35.7622C36.2136 35.8602 36.0561 35.9093 35.9183 35.8995C35.7903 35.8995 35.7017 35.8406 35.6426 35.7524C35.5836 35.6641 35.5836 35.5562 35.6426 35.4386C35.7017 35.3111 35.81 35.1934 35.9773 35.0954C36.1545 34.9875 36.3219 34.9287 36.4695 34.9287L36.4597 34.9483ZM35.9675 35.4386C35.9675 35.4386 35.9478 35.5268 35.9675 35.5661C35.9872 35.6053 36.0265 35.6151 36.0758 35.6151C36.1348 35.6151 36.2037 35.5955 36.2726 35.5562C36.3415 35.517 36.3908 35.468 36.4104 35.4092C36.4301 35.3601 36.4301 35.3209 36.4104 35.2817C36.3908 35.2424 36.3514 35.2228 36.2923 35.2228C36.2333 35.2228 36.1742 35.2425 36.0954 35.2915C36.0265 35.3307 35.9773 35.3797 35.9478 35.4386H35.9675ZM37.6507 35.0954L38.1331 35.87L37.8082 36.076L37.7787 36.0269L36.7648 36.6545L36.7943 36.7036L36.4695 36.9095L35.997 36.1348L37.6704 35.1052L37.6507 35.0954ZM36.5975 36.3996L37.6114 35.772L37.4735 35.5464L36.4597 36.174L36.5975 36.3996ZM36.7747 33.7911C36.7747 33.7911 36.8337 33.7715 36.8436 33.7617C36.8534 33.7617 36.8632 33.7617 36.8731 33.7715C36.8731 33.7715 36.8731 33.7911 36.8829 33.8206C36.8829 33.8402 36.8829 33.8598 36.8928 33.8794C36.8928 33.9088 36.9125 33.9284 36.9223 33.948L37.6114 35.0561L37.2865 35.2621L37.0896 34.9385L36.8337 35.0954L36.6664 34.8306L36.9223 34.6737L36.4793 33.9578L36.6368 33.8598C36.6959 33.8206 36.7353 33.8009 36.7648 33.7813L36.7747 33.7911Z" fill="#231F20"/>
<path d="M38.2806 32.8708C38.4479 32.8806 38.5956 32.9689 38.7236 33.1061C38.8515 33.2532 38.9204 33.4003 38.9106 33.567C38.9106 33.7533 38.822 33.9201 38.6547 34.0671C38.4873 34.2142 38.3101 34.2829 38.1231 34.2731C37.9558 34.2535 37.8081 34.175 37.6801 34.0377C37.5522 33.9004 37.4833 33.7435 37.4931 33.5768C37.4931 33.3905 37.5817 33.2336 37.749 33.0767C37.9164 32.9198 38.0936 32.8512 38.2708 32.8708H38.2806ZM37.8573 33.5376C37.8573 33.6161 37.9065 33.6945 37.9755 33.773C38.0444 33.8514 38.1231 33.9004 38.2019 33.9201C38.2904 33.9397 38.3692 33.9102 38.4479 33.8416C38.5267 33.773 38.5661 33.6945 38.5562 33.6063C38.5562 33.5278 38.5168 33.4396 38.4381 33.3611C38.3692 33.2827 38.2904 33.2336 38.2117 33.2238C38.1329 33.214 38.0444 33.2434 37.9656 33.3121C37.8869 33.3807 37.8475 33.4592 37.8573 33.5474V33.5376ZM38.8811 32.0079C38.8811 32.0079 38.9106 32.0275 38.9303 32.0667C38.9303 32.0863 38.9401 32.1059 38.95 32.1157C38.95 32.1353 38.9696 32.1549 38.9795 32.1647L40.082 33.3807L39.7965 33.6357L39.4028 33.2042L39.0878 33.4788L38.8811 33.2434L39.1961 32.9689L38.9795 32.7335L38.6645 33.0081L38.4479 32.7727L38.7629 32.4884L38.5562 32.2628L38.7236 32.1059C38.8023 32.0373 38.8515 31.998 38.8811 31.998V32.0079ZM38.7728 34.2927C38.7728 34.2927 38.8023 34.3025 38.822 34.3417C38.822 34.3613 38.8417 34.3711 38.8417 34.3809C38.8417 34.4006 38.8614 34.4104 38.8712 34.4202L39.0681 34.6359L40.2788 33.5474L40.4954 33.7926L38.9992 35.136L38.4676 34.5476L38.635 34.4006C38.7039 34.3417 38.7531 34.3025 38.7728 34.3025V34.2927Z" fill="#231F20"/>
<path d="M41.7339 30.6528L41.0842 31.4961L41.9504 32.1629L41.7142 32.4669L40.8578 31.8001L40.218 32.6238L39.962 32.4277L41.0153 31.0646C40.9464 30.9764 40.8676 30.8979 40.7889 30.8195C40.7101 30.741 40.6314 30.6724 40.5428 30.6038L39.588 31.8393L39.332 31.6432L40.5526 30.0742C40.6904 30.1821 40.8086 30.2801 40.9267 30.388C41.0448 30.4959 41.1531 30.6136 41.2614 30.7508L41.4878 30.4665L41.7437 30.6626L41.7339 30.6528Z" fill="#231F20"/>
<path d="M41.5283 28.4866C41.6562 28.4277 41.7743 28.4277 41.8925 28.4866C42.0008 28.5454 42.0697 28.6435 42.0992 28.7807C42.1287 28.9376 42.0992 29.1044 42.0007 29.2907C41.9023 29.477 41.7842 29.6045 41.6365 29.6731C41.5086 29.7319 41.3904 29.7319 41.2822 29.6731C41.164 29.6143 41.0951 29.5162 41.0656 29.3789C41.0361 29.222 41.0656 29.0553 41.164 28.869C41.2625 28.6827 41.3806 28.5552 41.5184 28.4964L41.5283 28.4866ZM41.3609 29.2024C41.3708 29.2612 41.4003 29.3103 41.4594 29.3397C41.5086 29.3691 41.5578 29.3593 41.6168 29.3397C41.6759 29.3103 41.7251 29.2514 41.7645 29.173C41.8039 29.0945 41.8236 29.0259 41.8039 28.9671C41.794 28.9082 41.7645 28.869 41.7153 28.8396C41.6661 28.8102 41.607 28.8102 41.5479 28.8396C41.4889 28.869 41.4397 28.918 41.4003 28.9965C41.3609 29.0749 41.3412 29.1534 41.3511 29.222L41.3609 29.2024ZM41.7547 27.653C41.7547 27.653 41.794 27.604 41.8039 27.5942C41.8137 27.5942 41.8236 27.5844 41.8334 27.5942C41.8334 27.5942 41.8531 27.6138 41.8629 27.6334C41.8826 27.653 41.8925 27.6628 41.9023 27.6727C41.922 27.6923 41.9417 27.7021 41.9614 27.7217L43.4576 28.4964L43.2804 28.8396L43.0835 28.7415L42.867 29.1632L42.5914 29.0259L42.8079 28.6042L41.5775 27.9668L41.6661 27.8001C41.6956 27.7413 41.7153 27.7021 41.735 27.6628L41.7547 27.653ZM42.0303 29.3495C42.1878 29.0259 42.3157 28.7513 42.4142 28.5356C42.4732 28.5552 42.5225 28.5748 42.552 28.5846C42.611 28.6042 42.6504 28.6238 42.6898 28.6337L42.4142 29.2416L42.7095 29.3985L42.5323 29.7319L42.237 29.5849C42.1976 29.6633 42.1681 29.7221 42.1386 29.7908C42.0992 29.8692 42.0697 29.9379 42.05 30.0065C42.0401 30.0261 42.0303 30.0457 42.0303 30.0654C42.0303 30.0752 42.0303 30.0948 42.0303 30.1144C42.0303 30.1438 42.0204 30.1634 42.0106 30.1732C42.0007 30.1732 41.9712 30.1732 41.922 30.1732L41.6759 30.0948C41.8236 29.7908 41.9515 29.5358 42.0401 29.3495H42.0303ZM42.5914 29.7712C42.5914 29.7712 42.6307 29.7712 42.6504 29.8006C42.6603 29.8104 42.6701 29.8202 42.68 29.83C42.6898 29.8398 42.7095 29.8496 42.7193 29.8594L42.926 29.9673L43.6446 28.5944L43.9301 28.7415L43.0343 30.4576L42.3945 30.1242L42.4929 29.9281C42.5323 29.8496 42.5717 29.8006 42.5914 29.781V29.7712Z" fill="#231F20"/>
<path d="M28.0041 42.9113C43.4165 42.9113 55.9106 33.3272 55.9106 21.5045C55.9106 9.68183 43.4165 0.0976562 28.0041 0.0976562C12.5918 0.0976562 0.0976562 9.68183 0.0976562 21.5045C0.0976562 33.3272 12.5918 42.9113 28.0041 42.9113Z" stroke="#231F20" stroke-width="0.2"/>
</g>
<defs>
<clipPath id="clip0_110_16011">
<rect width="56" height="43" fill="white"/>
</clipPath>
</defs>
</svg>
