<svg width="211" height="20" viewBox="0 0 211 20" fill="none" xmlns="http://www.w3.org/2000/svg">
<g clip-path="url(#clip0_10_16477)">
<path d="M153.787 0.573242H153.596H152.115L146.643 14.0499L141.147 0.573242H139.689H139.498H136.655V19.4263H139.666V4.51589L145.042 17.3952H148.244L153.62 4.37253V19.4263H156.607V0.573242H153.787Z" fill="#828181"/>
<path d="M174.624 15.4836H164.397L162.629 19.4502H159.427L167.886 0.573242H171.183L179.642 19.4502H176.44L174.624 15.4836ZM169.534 3.75126L165.544 12.7357H173.525L169.534 3.75126Z" fill="#828181"/>
<path d="M210.824 19.4263H196.894V0.573242H210.824V3.51231H199.88V8.53023H210.322V11.4693H199.88V16.4633H210.824V19.4263Z" fill="#828181"/>
<path d="M184.851 3.29726H178.638V0.573242H194.05V3.29726H187.838V19.4502H184.851V3.29726Z" fill="#828181"/>
<path d="M16.2724 19.331L5.04182 7.57478V19.331H0V0.836426H4.70729L15.5795 12.2343V0.836426H20.6213V19.331H16.2724Z" fill="#0E3173"/>
<path d="M120.621 19.331L109.39 7.57478V19.331H104.349V0.836426H109.056L119.928 12.2343V0.836426H124.97V19.331H120.621Z" fill="#0E3173"/>
<path d="M59.1397 19.331H54.8625L45.9976 0.836426H51.3261L57.0609 13.7635L62.8195 0.836426H68.0286L59.1397 19.331Z" fill="#0E3173"/>
<path d="M70.6812 19.331V0.836426H75.7469V19.331H70.6812Z" fill="#0E3173"/>
<path d="M29.7968 6.18877H24.755C25.0657 4.82676 25.7586 3.15412 27.0489 2.05496C28.9366 0.454002 31.3022 0 34.6236 0C37.945 0 40.6929 0.477897 42.5567 2.05496C43.9665 3.2497 45.1373 4.94624 45.1373 7.24014V18.9725H40.1194V17.2999C39.761 17.4671 39.0919 18.0884 37.1565 18.8292C35.5794 19.4265 33.8829 19.6416 31.8757 19.6416C29.4623 19.6416 27.933 18.8292 26.5471 17.8495C25.1134 16.8459 24.301 15.1493 24.301 13.4289C24.301 11.3501 24.7311 9.89247 26.8578 8.91278C28.7933 8.02867 31.135 7.86141 34.1696 7.86141H40.1194C40.1194 5.54361 38.6857 3.10633 34.6953 3.10633C31.8996 3.10633 30.442 4.68339 29.7491 6.21266L29.7968 6.18877ZM34.5519 10.8005C31.6606 10.8483 29.2473 11.5173 29.3428 13.19C29.4862 15.5795 31.9713 15.7945 33.0226 15.7945C35.675 15.7945 37.6344 15.3166 38.7335 14.4564C39.9283 13.5245 39.9761 12.1864 39.9761 10.8005C39.9761 10.8005 35.7945 10.8005 34.528 10.8005H34.5519Z" fill="#0E3173"/>
<path d="M89.9403 16.6071C86.4755 16.6071 84.3489 14.6477 84.0861 12.0432C84.0861 12.0432 84.0144 11.5653 84.0144 11.2069H100.956C100.956 7.81381 100.048 5.16148 98.2557 3.27378C96.2963 1.17103 93.4767 0.143555 89.773 0.143555C86.4278 0.143555 83.7754 1.09935 81.8638 3.01094C79.8567 4.89863 78.9009 7.24033 78.9009 10.036C78.9009 13.1663 79.9523 15.6035 82.0311 17.3956C83.9905 19.1161 86.6428 19.9763 89.9881 19.9763C92.975 19.9763 95.46 19.2594 97.4672 17.8258C99.0204 16.6549 100.072 15.1734 100.597 13.4291H95.5317C94.7671 15.2929 92.736 16.5832 89.9164 16.5832L89.9403 16.6071ZM89.9403 3.53663C93.4051 3.53663 95.5317 5.496 95.7945 8.10054H84.0861C84.3489 5.496 86.4755 3.53663 89.9403 3.53663Z" fill="#0E3173"/>
</g>
<defs>
<clipPath id="clip0_10_16477">
<rect width="210.824" height="20" fill="white"/>
</clipPath>
</defs>
</svg>
