<svg width="75" height="75" viewBox="0 0 75 75" fill="none" xmlns="http://www.w3.org/2000/svg">
<rect x="0.375" y="0.375" width="74.25" height="74.25" rx="2.625" fill="black" fill-opacity="0.15" stroke="white" stroke-width="0.75"/>
<path d="M14.48 51.3445V49.7045H10.69V51.3445H14.48ZM15.77 48.6645V52.3845H9.39V48.6645H15.77ZM16.77 53.3645V54.4145H13.23V57.4245H11.91V54.4145H8.43V53.3645H16.77ZM23.0592 52.2945L22.3692 53.3145C21.3992 52.9945 20.7292 52.3745 20.3392 51.5945C19.9392 52.4945 19.2292 53.2045 18.1792 53.5745L17.4892 52.5345C19.0292 52.0245 19.6492 50.7945 19.6492 49.5445V48.7145H20.9892V49.6545C20.9892 50.7645 21.6092 51.8445 23.0592 52.2945ZM21.8692 56.4045C23.0392 56.4045 23.6692 56.1645 23.6692 55.6445C23.6692 55.1345 23.0392 54.8945 21.8692 54.8945C20.6892 54.8945 20.0592 55.1345 20.0592 55.6445C20.0592 56.1645 20.6892 56.4045 21.8692 56.4045ZM21.8692 53.8745C23.7792 53.8745 24.9792 54.5345 24.9792 55.6445C24.9792 56.7645 23.7792 57.4245 21.8692 57.4245C19.9492 57.4245 18.7492 56.7645 18.7492 55.6445C18.7492 54.5345 19.9492 53.8745 21.8692 53.8745ZM24.8792 50.3545H26.0992V51.4445H24.8792V53.6645H23.5592V48.2245H24.8792V50.3545ZM34.2661 56.5645L33.7461 54.8645H31.1461L30.6261 56.5645H28.9961L31.5161 49.3945H33.3661L35.8961 56.5645H34.2661ZM33.3861 53.5945L32.8661 51.9345C32.8328 51.8211 32.7894 51.6778 32.7361 51.5045C32.6828 51.3311 32.6294 51.1545 32.5761 50.9745C32.5228 50.7945 32.4794 50.6378 32.4461 50.5045C32.4128 50.6378 32.3661 50.8045 32.3061 51.0045C32.2528 51.1978 32.1994 51.3845 32.1461 51.5645C32.0994 51.7378 32.0628 51.8611 32.0361 51.9345L31.5261 53.5945H33.3861ZM39.9804 49.4245L37.3204 56.5645H35.9704L38.6304 49.4245H39.9804ZM45.1413 54.5845C45.1413 55.2178 44.9113 55.7245 44.4513 56.1045C43.9979 56.4778 43.3513 56.6645 42.5113 56.6645C41.7579 56.6645 41.0846 56.5211 40.4913 56.2345V54.8245C40.8313 54.9711 41.1813 55.1078 41.5413 55.2345C41.9079 55.3545 42.2713 55.4145 42.6313 55.4145C43.0046 55.4145 43.2679 55.3445 43.4213 55.2045C43.5813 55.0578 43.6613 54.8745 43.6613 54.6545C43.6613 54.4745 43.5979 54.3211 43.4713 54.1945C43.3513 54.0678 43.1879 53.9511 42.9813 53.8445C42.7746 53.7311 42.5379 53.6111 42.2713 53.4845C42.1046 53.4045 41.9246 53.3111 41.7313 53.2045C41.5379 53.0911 41.3513 52.9545 41.1713 52.7945C40.9979 52.6278 40.8546 52.4278 40.7413 52.1945C40.6279 51.9611 40.5713 51.6811 40.5713 51.3545C40.5713 50.7145 40.7879 50.2178 41.2213 49.8645C41.6546 49.5045 42.2446 49.3245 42.9913 49.3245C43.3646 49.3245 43.7179 49.3678 44.0513 49.4545C44.3846 49.5411 44.7379 49.6645 45.1113 49.8245L44.6213 51.0045C44.2946 50.8711 44.0013 50.7678 43.7413 50.6945C43.4813 50.6211 43.2146 50.5845 42.9413 50.5845C42.6546 50.5845 42.4346 50.6511 42.2813 50.7845C42.1279 50.9178 42.0513 51.0911 42.0513 51.3045C42.0513 51.5578 42.1646 51.7578 42.3913 51.9045C42.6179 52.0511 42.9546 52.2311 43.4013 52.4445C43.7679 52.6178 44.0779 52.7978 44.3313 52.9845C44.5913 53.1711 44.7913 53.3911 44.9313 53.6445C45.0713 53.8978 45.1413 54.2111 45.1413 54.5845ZM50.7567 51.2545V52.5445H54.6967V51.2545H50.7567ZM53.3867 55.2845H56.9067V56.3545H48.5667V55.2845H52.0667V53.5945H49.4467V48.7845H50.7567V50.2145H54.6967V48.7845H55.9967V53.5945H53.3867V55.2845ZM58.5659 52.1145L58.1259 51.0845C59.8659 50.9345 60.7659 50.3245 60.9759 49.6945H58.5259V48.6445H65.3359V49.6945H62.8759C63.0859 50.3245 63.9859 50.9345 65.7359 51.0845L65.2759 52.1145C63.5459 51.9545 62.4059 51.3145 61.9259 50.4345C61.4359 51.3145 60.3059 51.9545 58.5659 52.1145ZM61.9059 56.4145C63.1359 56.4145 63.7659 56.1945 63.7659 55.7145C63.7659 55.2345 63.1359 55.0245 61.9059 55.0245C60.6759 55.0245 60.0459 55.2345 60.0459 55.7145C60.0459 56.1945 60.6759 56.4145 61.9059 56.4145ZM61.9059 54.0045C63.8959 54.0045 65.1059 54.6345 65.1059 55.7145C65.1059 56.8045 63.8959 57.4245 61.9059 57.4245C59.9159 57.4245 58.7159 56.8045 58.7159 55.7145C58.7159 54.6345 59.9159 54.0045 61.9059 54.0045ZM57.7659 52.4645H66.0859V53.5045H57.7659V52.4645Z" fill="white"/>
<path d="M31.17 18C32.23 18.02 33.18 18.19 34.02 18.51C34.88 18.83 35.61 19.26 36.21 19.8C36.83 20.34 37.3 20.97 37.62 21.69C37.94 22.41 38.09 23.19 38.07 24.03C38.07 25.31 37.74 26.35 37.08 27.15C36.44 27.93 35.65 28.55 34.71 29.01C36.03 29.51 36.98 30.2 37.56 31.08C38.16 31.94 38.46 33.03 38.46 34.35C38.44 35.49 38.21 36.5 37.77 37.38C37.33 38.26 36.75 39 36.03 39.6C35.31 40.18 34.47 40.62 33.51 40.92C32.57 41.22 31.57 41.37 30.51 41.37C29.37 41.37 28.37 41.23 27.51 40.95C26.65 40.67 25.89 40.27 25.23 39.75C24.59 39.21 24.05 38.56 23.61 37.8C23.17 37.02 22.8 36.14 22.5 35.16L26.16 33.72C26.28 34.2 26.47 34.68 26.73 35.16C26.99 35.64 27.31 36.08 27.69 36.48C28.07 36.86 28.49 37.17 28.95 37.41C29.41 37.65 29.91 37.77 30.45 37.77C31.11 37.77 31.68 37.68 32.16 37.5C32.66 37.3 33.07 37.05 33.39 36.75C33.73 36.43 33.98 36.07 34.14 35.67C34.3 35.27 34.38 34.86 34.38 34.44C34.38 33.92 34.32 33.44 34.2 33C34.1 32.56 33.87 32.19 33.51 31.89C33.15 31.57 32.62 31.33 31.92 31.17C31.24 30.99 30.31 30.9 29.13 30.9V27.9C30.13 27.88 30.94 27.79 31.56 27.63C32.2 27.47 32.7 27.25 33.06 26.97C33.42 26.67 33.67 26.33 33.81 25.95C33.95 25.55 34.02 25.11 34.02 24.63C34.04 23.59 33.77 22.82 33.21 22.32C32.67 21.8 31.91 21.54 30.93 21.54C30.29 21.54 29.75 21.64 29.31 21.84C28.87 22.04 28.5 22.31 28.2 22.65C27.92 22.99 27.69 23.4 27.51 23.88C27.35 24.34 27.22 24.84 27.12 25.38C26.48 25.28 25.83 25.17 25.17 25.05C24.53 24.91 23.88 24.79 23.22 24.69C23.66 22.39 24.56 20.7 25.92 19.62C27.3 18.54 29.05 18 31.17 18Z" fill="white"/>
<path d="M50.2809 37.9499V33.4649H46.9359V31.9049H50.2809V30.8849H46.9359V29.3249H50.2809V27.7949H52.2609V37.9499H50.2809ZM48.3159 34.1249L48.5109 35.7299C46.4709 36.1049 44.6409 36.1799 42.5709 36.1799H41.4609V28.6649H43.4259V34.5599C45.0909 34.5299 46.6209 34.4249 48.3159 34.1249ZM45.1359 39.7949H52.5759V41.3699H43.1559V37.0499H45.1359V39.7949Z" fill="white"/>
</svg>
