<svg width="100" height="100" viewBox="0 0 100 100" fill="none" xmlns="http://www.w3.org/2000/svg">
<rect x="0.5" y="0.5" width="99" height="99" rx="3.5" fill="black" fill-opacity="0.12" stroke="white"/>
<path d="M15.48 69.9244H25.548V71.1964H15.48V69.9244ZM19.68 70.7404H21.264V74.8204H19.68V70.7404ZM16.644 64.2484H24.348V68.7364H16.644V64.2484ZM22.776 65.5084H18.216V67.4764H22.776V65.5084ZM28.9551 64.3084H30.2631V65.2924C30.2631 67.5004 29.3031 69.4444 27.1911 70.1764L26.3391 68.9164C28.1991 68.2924 28.9551 66.8044 28.9551 65.2924V64.3084ZM29.2791 64.3084H30.5751V65.4484C30.5751 66.7804 31.3191 68.0764 33.0591 68.6164L32.2311 69.8524C30.2271 69.1804 29.2791 67.4524 29.2791 65.4484V64.3084ZM33.6711 63.7084H35.2671V70.2724H33.6711V63.7084ZM34.8231 66.2764H36.7431V67.5964H34.8231V66.2764ZM31.6431 70.5244C33.9471 70.5244 35.3991 71.3284 35.3991 72.6724C35.3991 74.0284 33.9471 74.8204 31.6431 74.8204C29.3271 74.8204 27.8751 74.0284 27.8751 72.6724C27.8751 71.3284 29.3271 70.5244 31.6431 70.5244ZM31.6431 71.7604C30.2271 71.7604 29.4591 72.0604 29.4591 72.6724C29.4591 73.2964 30.2271 73.5844 31.6431 73.5844C33.0591 73.5844 33.8151 73.2964 33.8151 72.6724C33.8151 72.0604 33.0591 71.7604 31.6431 71.7604ZM46.5193 73.7524L45.8953 71.7124H42.7753L42.1513 73.7524H40.1953L43.2193 65.1484H45.4393L48.4753 73.7524H46.5193ZM45.4633 70.1884L44.8393 68.1964C44.7993 68.0604 44.7473 67.8884 44.6833 67.6804C44.6193 67.4724 44.5553 67.2604 44.4913 67.0444C44.4273 66.8284 44.3753 66.6404 44.3353 66.4804C44.2953 66.6404 44.2393 66.8404 44.1673 67.0804C44.1033 67.3124 44.0393 67.5364 43.9753 67.7524C43.9193 67.9604 43.8753 68.1084 43.8433 68.1964L43.2313 70.1884H45.4633ZM53.3765 65.1844L50.1845 73.7524H48.5645L51.7565 65.1844H53.3765ZM59.5695 71.3764C59.5695 72.1364 59.2935 72.7444 58.7415 73.2004C58.1975 73.6484 57.4215 73.8724 56.4135 73.8724C55.5095 73.8724 54.7015 73.7004 53.9895 73.3564V71.6644C54.3975 71.8404 54.8175 72.0044 55.2495 72.1564C55.6895 72.3004 56.1255 72.3724 56.5575 72.3724C57.0055 72.3724 57.3215 72.2884 57.5055 72.1204C57.6975 71.9444 57.7935 71.7244 57.7935 71.4604C57.7935 71.2444 57.7175 71.0604 57.5655 70.9084C57.4215 70.7564 57.2255 70.6164 56.9775 70.4884C56.7295 70.3524 56.4455 70.2084 56.1255 70.0564C55.9255 69.9604 55.7095 69.8484 55.4775 69.7204C55.2455 69.5844 55.0215 69.4204 54.8055 69.2284C54.5975 69.0284 54.4255 68.7884 54.2895 68.5084C54.1535 68.2284 54.0855 67.8924 54.0855 67.5004C54.0855 66.7324 54.3455 66.1364 54.8655 65.7124C55.3855 65.2804 56.0935 65.0644 56.9895 65.0644C57.4375 65.0644 57.8615 65.1164 58.2615 65.2204C58.6615 65.3244 59.0855 65.4724 59.5335 65.6644L58.9455 67.0804C58.5535 66.9204 58.2015 66.7964 57.8895 66.7084C57.5775 66.6204 57.2575 66.5764 56.9295 66.5764C56.5855 66.5764 56.3215 66.6564 56.1375 66.8164C55.9535 66.9764 55.8615 67.1844 55.8615 67.4404C55.8615 67.7444 55.9975 67.9844 56.2695 68.1604C56.5415 68.3364 56.9455 68.5524 57.4815 68.8084C57.9215 69.0164 58.2935 69.2324 58.5975 69.4564C58.9095 69.6804 59.1495 69.9444 59.3175 70.2484C59.4855 70.5524 59.5695 70.9284 59.5695 71.3764ZM63.6561 72.2404H73.7121V73.5364H63.6561V72.2404ZM67.8681 69.8644H69.4641V72.5524H67.8681V69.8644ZM64.7121 64.4164H66.2961V66.1204H71.0361V64.4164H72.6201V70.2004H64.7121V64.4164ZM66.2961 67.3684V68.9284H71.0361V67.3684H66.2961ZM74.6831 68.8324H84.7271V70.0924H74.6831V68.8324ZM79.6871 70.7044C82.0871 70.7044 83.5391 71.4604 83.5391 72.7684C83.5391 74.0764 82.0871 74.8204 79.6871 74.8204C77.2871 74.8204 75.8231 74.0764 75.8231 72.7684C75.8231 71.4604 77.2871 70.7044 79.6871 70.7044ZM79.6871 71.9404C78.1991 71.9404 77.4431 72.1924 77.4431 72.7684C77.4431 73.3324 78.1991 73.5964 79.6871 73.5964C81.1751 73.5964 81.9311 73.3324 81.9311 72.7684C81.9311 72.1924 81.1751 71.9404 79.6871 71.9404ZM78.6071 64.8484H80.0231V65.1244C80.0231 66.7804 78.5231 68.1604 75.6551 68.4124L75.1031 67.1764C77.5391 66.9604 78.6071 65.9884 78.6071 65.1244V64.8484ZM79.3871 64.8484H80.8031V65.1244C80.8031 65.9884 81.8591 66.9604 84.3071 67.1764L83.7551 68.4124C80.8991 68.1604 79.3871 66.7924 79.3871 65.1244V64.8484ZM75.5951 64.2244H83.8271V65.4844H75.5951V64.2244Z" fill="white"/>
<path d="M41.56 24.0005C42.9733 24.0272 44.24 24.2538 45.36 24.6805C46.5067 25.1072 47.48 25.6805 48.28 26.4005C49.1067 27.1205 49.7333 27.9605 50.16 28.9205C50.5867 29.8805 50.7867 30.9205 50.76 32.0405C50.76 33.7472 50.32 35.1338 49.44 36.2005C48.5867 37.2405 47.5333 38.0672 46.28 38.6805C48.04 39.3472 49.3067 40.2672 50.08 41.4405C50.88 42.5872 51.28 44.0405 51.28 45.8005C51.2533 47.3205 50.9467 48.6672 50.36 49.8405C49.7733 51.0138 49 52.0005 48.04 52.8005C47.08 53.5738 45.96 54.1605 44.68 54.5605C43.4267 54.9605 42.0933 55.1605 40.68 55.1605C39.16 55.1605 37.8267 54.9738 36.68 54.6005C35.5333 54.2272 34.52 53.6938 33.64 53.0005C32.7867 52.2805 32.0667 51.4138 31.48 50.4005C30.8933 49.3605 30.4 48.1872 30 46.8805L34.88 44.9605C35.04 45.6005 35.2933 46.2405 35.64 46.8805C35.9867 47.5205 36.4133 48.1072 36.92 48.6405C37.4267 49.1472 37.9867 49.5605 38.6 49.8805C39.2133 50.2005 39.88 50.3605 40.6 50.3605C41.48 50.3605 42.24 50.2405 42.88 50.0005C43.5467 49.7338 44.0933 49.4005 44.52 49.0005C44.9733 48.5738 45.3067 48.0938 45.52 47.5605C45.7333 47.0272 45.84 46.4805 45.84 45.9205C45.84 45.2272 45.76 44.5872 45.6 44.0005C45.4667 43.4138 45.16 42.9205 44.68 42.5205C44.2 42.0938 43.4933 41.7738 42.56 41.5605C41.6533 41.3205 40.4133 41.2005 38.84 41.2005V37.2005C40.1733 37.1738 41.2533 37.0538 42.08 36.8405C42.9333 36.6272 43.6 36.3338 44.08 35.9605C44.56 35.5605 44.8933 35.1072 45.08 34.6005C45.2667 34.0672 45.36 33.4805 45.36 32.8405C45.3867 31.4538 45.0267 30.4272 44.28 29.7605C43.56 29.0672 42.5467 28.7205 41.24 28.7205C40.3867 28.7205 39.6667 28.8538 39.08 29.1205C38.4933 29.3872 38 29.7472 37.6 30.2005C37.2267 30.6538 36.92 31.2005 36.68 31.8405C36.4667 32.4538 36.2933 33.1205 36.16 33.8405C35.3067 33.7072 34.44 33.5605 33.56 33.4005C32.7067 33.2138 31.84 33.0538 30.96 32.9205C31.5467 29.8538 32.7467 27.6005 34.56 26.1605C36.4 24.7205 38.7333 24.0005 41.56 24.0005Z" fill="white"/>
<path d="M67.0398 50.6005V44.6205H62.5798V42.5405H67.0398V41.1805H62.5798V39.1005H67.0398V37.0605H69.6798V50.6005H67.0398ZM64.4198 45.5005L64.6798 47.6405C61.9598 48.1405 59.5198 48.2405 56.7598 48.2405H55.2798V38.2205H57.8998V46.0805C60.1198 46.0405 62.1598 45.9005 64.4198 45.5005ZM60.1798 53.0605H70.0998V55.1605H57.5398V49.4005H60.1798V53.0605Z" fill="white"/>
</svg>
