<svg width="86" height="85" viewBox="0 0 86 85" fill="none" xmlns="http://www.w3.org/2000/svg">
<g clip-path="url(#clip0_1284_171430)">
<path d="M42.85 40.9999C42.85 45.2799 39.46 48.7399 35.29 48.7399C31.12 48.7399 27.73 45.2799 27.73 40.9999C27.73 39.6799 28.06 38.4299 28.63 37.3399L35.29 24.6699L41.95 37.3399C42.52 38.4299 42.85 39.6799 42.85 40.9999Z" stroke="#202020" stroke-width="1.5" stroke-linecap="round" stroke-linejoin="round"/>
<path d="M35.2903 45.1303C33.2103 45.1303 31.5103 42.9703 31.5103 40.3203" stroke="#202020" stroke-width="1.5" stroke-linecap="round" stroke-linejoin="round"/>
<path d="M58.3802 44.1406C58.3802 47.3506 55.9902 49.9406 53.0502 49.9406C50.1102 49.9406 47.7202 47.3406 47.7202 44.1406C47.7202 43.1506 47.9502 42.2106 48.3502 41.3906L53.0502 31.8906L57.7402 41.3906C58.1402 42.2106 58.3702 43.1406 58.3702 44.1406H58.3802Z" stroke="#202020" stroke-width="1.5" stroke-linecap="round" stroke-linejoin="round"/>
<path d="M52.7104 47.2291C51.1504 47.2291 49.8804 45.6091 49.8804 43.6191" stroke="#202020" stroke-width="1.5" stroke-linecap="round" stroke-linejoin="round"/>
<path d="M22.9102 60.7802C25.7802 60.7602 28.3302 58.3702 29.3302 54.7602V54.8202C30.3502 58.4202 32.9202 60.7902 35.7902 60.7702C38.6502 60.7502 41.2002 58.3602 42.2102 54.7502V54.8102C43.2302 58.4102 45.8002 60.7802 48.6602 60.7602C51.5302 60.7402 54.0802 58.3502 55.0902 54.7402V54.8002C56.1102 58.4002 58.6702 60.7702 61.5402 60.7502" stroke="#202020" stroke-width="1.5" stroke-linecap="round" stroke-linejoin="round"/>
<path d="M75.7098 31.8906L72.5698 37.4606L67.5298 32.7906" stroke="#202020" stroke-width="1.5" stroke-linecap="round" stroke-linejoin="round"/>
<path d="M72.34 49.98C69.07 63.58 56.83 73.69 42.22 73.69C25.12 73.69 11.25 59.83 11.25 42.72C11.25 25.61 25.12 11.75 42.22 11.75C56.89 11.75 69.18 21.95 72.38 35.65" stroke="#202020" stroke-width="1.5" stroke-linecap="round" stroke-linejoin="round"/>
</g>
<defs>
<clipPath id="clip0_1284_171430">
<rect width="65.96" height="63.44" fill="white" transform="translate(10.5 11)"/>
</clipPath>
</defs>
</svg>
