<svg width="85" height="85" viewBox="0 0 85 85" fill="none" xmlns="http://www.w3.org/2000/svg">
<path d="M53.186 40.1133C53.186 40.1133 56.3024 45.5567 61.7253 42.0508" stroke="#202020" stroke-width="1.53" stroke-linecap="round" stroke-linejoin="round"/>
<path d="M57.1636 15.582C52.6428 12.4246 47.3121 10.3641 41.5305 9.76953H41.51C44.7186 14.8951 46.5843 20.9536 46.5843 27.4631C46.5843 45.9256 31.6278 60.8821 13.1654 60.8821C11.9865 60.8821 10.8383 60.8308 9.70044 60.6976C15.6154 70.1287 26.0921 76.4229 38.0451 76.4229C56.5075 76.4229 71.464 61.4664 71.464 43.004C71.464 39.9491 71.054 36.9968 70.2851 34.1879" stroke="#202020" stroke-width="1.53" stroke-linecap="round" stroke-linejoin="round"/>
<path d="M30.1208 23.373H36.2716L30.1208 29.5238H36.2716" stroke="#202020" stroke-width="1.53" stroke-linecap="round" stroke-linejoin="round"/>
<path d="M17.8193 18.4512H23.9701L17.8193 24.6019H23.9701" stroke="#202020" stroke-width="1.53" stroke-linecap="round" stroke-linejoin="round"/>
<path d="M6 47.6798H12.8786C17.0611 47.6798 15.3286 52.3441 19.2753 52.3441C23.222 52.3441 22.7095 43.0052 25.9181 38.8228C29.1267 34.6403 31.341 51.1447 33.053 54.5584C35.5543 59.52 38.9884 55.7373 40.9259 52.8464C43.2837 49.3303 47.9685 50.4374 47.9685 50.4374H77.8098" stroke="#202020" stroke-width="1.53" stroke-linecap="round" stroke-linejoin="round"/>
<path d="M56.6699 29.4005C54.4999 29.4005 52.9399 28.2005 52.8999 26.4805H54.9799C55.0199 27.2205 55.7299 27.7105 56.6899 27.7105C57.6499 27.7105 58.3799 27.1505 58.3699 26.3605C58.3799 25.5505 57.6599 24.9805 56.4999 24.9805H55.5799V23.4605H56.4999C57.4699 23.4605 58.1499 22.9305 58.1499 22.1505C58.1499 21.3705 57.5799 20.8805 56.6999 20.8805C55.8199 20.8805 55.0999 21.3705 55.0699 22.1205H53.0999C53.1299 20.4105 54.6699 19.2405 56.6899 19.2405C58.7099 19.2405 60.1299 20.4605 60.1199 22.0305C60.1299 23.1405 59.3499 23.9305 58.2499 24.1205V24.2005C59.6999 24.3805 60.4999 25.2705 60.4899 26.5005C60.4999 28.1905 58.8899 29.4105 56.6599 29.4105L56.6699 29.4005ZM65.6299 29.4005C63.5799 29.3905 61.6399 28.1705 61.6399 24.5505C61.6399 21.2205 63.2399 19.2305 65.7099 19.2305C67.7099 19.2305 69.0599 20.4905 69.2599 22.1105H67.2399C67.0799 21.4105 66.4999 20.9905 65.7099 20.9905C64.3699 20.9905 63.6599 22.2105 63.6499 24.1505H63.7499C64.1999 23.2805 65.1799 22.7605 66.2799 22.7605C68.0599 22.7605 69.3799 24.1005 69.3799 25.9605C69.3799 27.9705 67.8599 29.4205 65.6399 29.4005H65.6299ZM65.6199 27.7805C66.6299 27.7805 67.3799 27.0105 67.3799 26.0205C67.3799 25.0305 66.6599 24.2605 65.6399 24.2605C64.6199 24.2605 63.8599 25.0505 63.8499 26.0205C63.8599 26.9905 64.5999 27.7805 65.6099 27.7805H65.6199ZM74.2999 29.4005C72.2399 29.4005 70.7299 28.1805 70.6899 26.4805H72.6899C72.7299 27.2605 73.4399 27.7805 74.2999 27.7805C75.3199 27.7805 76.0499 27.0605 76.0499 26.0305C76.0499 25.0005 75.3099 24.2505 74.2699 24.2405C73.5299 24.2405 73.0099 24.5105 72.7099 25.0705H70.8499L71.3799 19.3705H77.4799V21.0505H73.0799L72.8099 23.5505H72.8899C73.2599 23.0605 73.9999 22.7205 74.8699 22.7205C76.6899 22.7205 78.0399 24.0705 78.0399 25.9705C78.0399 27.9705 76.5199 29.4005 74.2999 29.4005Z" fill="#202020"/>
<path d="M67.4499 74.6895H65.1699L68.6899 64.5195H71.3999L74.9099 74.6895H72.6499L71.8899 72.3395H68.2099L67.4399 74.6895H67.4499ZM68.7599 70.6995H71.3699L70.0899 66.8095H70.0199L68.7599 70.6995ZM78.0399 64.5195V74.6895H75.9299V64.5195H78.0399Z" fill="#202020"/>
</svg>
