<svg width="1200" height="80" viewBox="0 0 1200 80" fill="none" xmlns="http://www.w3.org/2000/svg">
<path d="M28.8979 59.5494C28.8979 61.8306 27.0444 63.6711 24.7763 63.6711C22.5081 63.6711 20.6546 61.8306 20.6546 59.5494C20.6546 57.2683 22.4951 55.4278 24.7763 55.4278C27.0574 55.4278 28.8979 57.2813 28.8979 59.5494Z" fill="#202020"/>
<path d="M25.5796 28.4298H23.6873V56.996H25.5796V28.4298Z" fill="#202020"/>
<path d="M20.2389 51.9152C19.7204 51.9152 19.2927 51.4875 19.2927 50.969V21.0289C19.2927 18.0868 21.6905 15.689 24.6327 15.689C27.5748 15.689 29.9726 18.0868 29.9726 21.0289V50.8394C29.9726 51.3578 29.5449 51.7856 29.0265 51.7856C28.508 51.7856 28.0803 51.3578 28.0803 50.8394V21.0289C28.0803 19.1237 26.5379 17.5813 24.6327 17.5813C22.7274 17.5813 21.185 19.1237 21.185 21.0289V50.969C21.185 51.4875 20.7573 51.9152 20.2389 51.9152Z" fill="#202020"/>
<path d="M28.1087 49.6611V51.6701C31.1675 52.9792 33.319 56.0121 33.319 59.5504C33.319 64.2683 29.4825 68.1047 24.7647 68.1047C20.0469 68.1047 16.2104 64.2683 16.2104 59.5504C16.2104 56.1028 18.2583 53.1347 21.2004 51.7868V49.7519C17.1955 51.2165 14.3311 55.053 14.3311 59.5504C14.3311 65.3052 19.023 69.9971 24.7777 69.9971C30.5324 69.9971 35.2243 65.3052 35.2243 59.5504C35.2243 54.9622 32.2432 51.0609 28.1216 49.6611" fill="#202020"/>
<path d="M43.684 17.8281H33.3929V19.7204H43.684V17.8281Z" fill="#202020"/>
<path d="M43.684 33.5497H33.3929V35.442H43.684V33.5497Z" fill="#202020"/>
<path d="M38.5644 22.9998H33.3929V24.8921H38.5644V22.9998Z" fill="#202020"/>
<path d="M38.5644 28.2488H33.3929V30.1411H38.5644V28.2488Z" fill="#202020"/>
<path d="M38.5644 38.7341H33.3929V40.6264H38.5644V38.7341Z" fill="#202020"/>
<path d="M38.5644 44.035H33.3929V45.9273H38.5644V44.035Z" fill="#202020"/>
<path d="M50.4971 32.3222C50.6999 32.3765 50.8724 32.5056 50.9811 32.6796C51.0968 32.8659 51.1294 33.092 51.0699 33.3142L50.371 35.9222C52.2036 35.4194 55.6965 34.1294 58.2857 31.1894C59.7478 29.6349 60.7284 27.8685 61.2223 25.9095L61.2663 25.7453C62.6018 20.7611 59.684 15.6933 54.7578 14.3733C49.8316 13.0533 44.7708 15.9833 43.4508 20.9096C42.1308 25.8358 45.0582 30.9062 49.9748 32.2236C50.0714 32.2495 50.168 32.2754 50.2698 32.2819L50.4436 32.3285C50.4436 32.3285 50.4752 32.3266 50.4849 32.3292M49.0199 37.7964C48.8654 37.755 48.7309 37.6775 48.6286 37.5569C48.4452 37.3525 48.3844 37.0774 48.4568 36.8069L49.2877 33.7063C43.6758 32.0473 40.3712 26.1822 41.8957 20.4929C43.4201 14.8036 49.4008 11.2608 55.1867 12.8111C60.9726 14.3614 64.4066 20.3233 62.8588 26.0996C62.8433 26.1575 62.8278 26.2155 62.8123 26.2734L62.0195 26.1024L62.8019 26.3121C62.2504 28.5247 61.1298 30.5435 59.4947 32.2795C55.4491 36.8687 49.6171 37.77 49.3691 37.8071C49.2621 37.8199 49.1481 37.8204 49.0418 37.7919" fill="#202020"/>
<path d="M52.757 18V25" stroke="#202020" stroke-width="2" stroke-linecap="round"/>
<path d="M53.8312 28.5C53.8312 29.0523 53.3835 29.5 52.8312 29.5C52.2789 29.5 51.8312 29.0523 51.8312 28.5C51.8312 27.9477 52.2789 27.5 52.8312 27.5C53.3835 27.5 53.8312 27.9477 53.8312 28.5Z" fill="#202020"/>
<path d="M112.877 19.0149C103.083 22.0476 95.9675 31.1754 95.9675 41.9675C95.9675 55.2375 106.73 66 120 66C133.27 66 144.033 55.2375 144.033 41.9675C144.033 31.1754 136.917 22.0476 127.123 19.0149" stroke="#202020" stroke-width="2" stroke-linecap="round" stroke-linejoin="round"/>
<path d="M120 14V25.1545" stroke="#202020" stroke-width="2" stroke-linecap="round" stroke-linejoin="round"/>
<path d="M113.779 43.654H116.22V32.9877L111.663 33.3575V35.2215H113.779V43.654Z" fill="#202020"/>
<path d="M123.676 36.7307C123.314 36.7381 122.981 36.7899 122.678 36.8786C122.374 36.9674 122.123 37.0783 121.923 37.2189L122.19 35.0294H126.369V33.1358H120.207L119.601 39.0311L121.79 39.1569C121.864 38.9424 122.005 38.7722 122.204 38.6317C122.404 38.4912 122.663 38.4246 122.988 38.4246C123.44 38.4246 123.765 38.5873 123.972 38.9202C124.179 39.253 124.283 39.7042 124.283 40.2886C124.283 40.873 124.194 41.2502 124.017 41.5239C123.839 41.7976 123.521 41.9381 123.07 41.9381C122.685 41.9381 122.374 41.8345 122.145 41.62C121.916 41.4055 121.797 41.1171 121.797 40.7472L119.408 40.8951V40.9395C119.371 41.805 119.726 42.5003 120.466 43.0328C121.206 43.5654 122.079 43.8243 123.077 43.8243C124.342 43.8243 125.267 43.4915 125.851 42.8183C126.435 42.1452 126.731 41.302 126.731 40.2886C126.731 39.1495 126.465 38.2766 125.94 37.6553C125.415 37.034 124.66 36.7381 123.684 36.7529L123.676 36.7307Z" fill="#202020"/>
<path d="M112.322 48.6174C112.019 48.6174 111.745 48.684 111.493 48.8245C111.242 48.9651 111.035 49.1574 110.865 49.4089V46.3022H109.385V54.1873H110.865V50.1855C110.968 50.0524 111.101 49.9488 111.272 49.8749C111.442 49.8009 111.634 49.7639 111.863 49.7639C112.137 49.7639 112.344 49.8527 112.477 50.0302C112.61 50.2077 112.684 50.511 112.684 50.9326V54.1873H114.164V50.94C114.164 50.1486 114.001 49.5642 113.676 49.1796C113.35 48.7949 112.906 48.61 112.337 48.61L112.322 48.6174Z" fill="#202020"/>
<path d="M117.818 48.6175C117.011 48.6175 116.383 48.8764 115.924 49.4015C115.465 49.9267 115.243 50.5924 115.243 51.4061V51.5097C115.243 52.3307 115.473 53.0038 115.931 53.5216C116.39 54.0394 117.019 54.2983 117.832 54.2983C118.646 54.2983 119.267 54.0394 119.726 53.5216C120.185 53.0038 120.414 52.3307 120.414 51.5097V51.4061C120.414 50.5851 120.185 49.9193 119.726 49.4015C119.267 48.8838 118.631 48.6249 117.825 48.6249L117.818 48.6175ZM118.927 51.5097C118.927 52.0053 118.838 52.4047 118.661 52.708C118.483 53.0112 118.202 53.1666 117.825 53.1666C117.448 53.1666 117.152 53.0186 116.974 52.7154C116.797 52.4121 116.708 52.0127 116.708 51.5171V51.4135C116.708 50.9327 116.797 50.5333 116.974 50.23C117.152 49.9267 117.433 49.764 117.81 49.764C118.187 49.764 118.476 49.9193 118.653 50.2226C118.831 50.5259 118.92 50.9253 118.92 51.4135V51.5171L118.927 51.5097Z" fill="#202020"/>
<path d="M124.785 52.6927C124.674 52.8407 124.541 52.9516 124.371 53.0256C124.201 53.0996 124.001 53.1365 123.765 53.1365C123.491 53.1365 123.291 53.0478 123.158 52.8703C123.025 52.6927 122.966 52.3673 122.966 51.8865V48.7058H121.494V51.8791C121.494 52.7001 121.657 53.3067 121.982 53.6987C122.307 54.0907 122.759 54.2831 123.336 54.2831C123.676 54.2831 123.979 54.2017 124.238 54.0464C124.497 53.891 124.711 53.6617 124.882 53.3659L125.037 54.1721H126.257V48.6984H124.778V52.6779L124.785 52.6927Z" fill="#202020"/>
<path d="M130.422 48.6323C130.363 48.6175 130.289 48.6175 130.215 48.6175C129.949 48.6175 129.712 48.6988 129.512 48.8542C129.313 49.0095 129.142 49.2388 129.017 49.5273L128.95 48.721H127.582V54.1947H129.054V50.4963C129.128 50.3336 129.239 50.2004 129.379 50.1117C129.52 50.0229 129.705 49.9785 129.919 49.9785L130.459 49.9933L130.614 48.684C130.548 48.6693 130.489 48.6545 130.422 48.6397V48.6323Z" fill="#202020"/>
<path d="M213.574 16H186.426C183.867 16 181.792 18.075 181.792 20.6346V59.3654C181.792 61.925 183.867 64 186.426 64H213.574C216.133 64 218.208 61.925 218.208 59.3654V20.6346C218.208 18.075 216.133 16 213.574 16Z" stroke="#202020" stroke-width="2" stroke-linejoin="round"/>
<path d="M207.841 16V19.9679C207.841 20.8765 207.102 21.6151 206.194 21.6151H193.8C192.891 21.6151 192.152 20.8765 192.152 19.9679V16" stroke="#202020" stroke-width="2" stroke-linejoin="round"/>
<path d="M192.44 46.6574H207.553" stroke="#202020" stroke-width="2" stroke-linejoin="round"/>
<path d="M194.101 37.6173L197.977 41.546L205.893 33.9894" stroke="#202020" stroke-width="2" stroke-linejoin="round"/>
<path d="M272.948 34.0682V21.0518C272.948 17.1572 276.106 14 280 14C283.895 14 287.052 17.1572 287.052 21.0518V26.0397" stroke="#202020" stroke-width="2" stroke-linecap="round" stroke-linejoin="round"/>
<path d="M272.948 56.5756H287.052" stroke="#202020" stroke-width="2" stroke-linecap="round" stroke-linejoin="round"/>
<path d="M274.024 46.2858L278.664 51.0048L285.976 43.6051" stroke="#202020" stroke-width="2" stroke-linecap="round" stroke-linejoin="round"/>
<path d="M292.125 34.0679H267.875C265.268 34.0679 263.154 36.1816 263.154 38.7889V61.2788C263.154 63.8862 265.268 65.9998 267.875 65.9998H292.125C294.732 65.9998 296.846 63.8862 296.846 61.2788V38.7889C296.846 36.1816 294.732 34.0679 292.125 34.0679Z" stroke="#202020" stroke-width="2" stroke-linecap="round" stroke-linejoin="round"/>
<path d="M374.538 40.2653C374.538 33.0287 360.167 13 360.167 13C360.167 13 345.796 33.0287 345.796 40.2653C345.796 47.5018 352.231 53.3659 360.167 53.3659C368.103 53.3659 374.538 47.4996 374.538 40.2653Z" stroke="#202020" stroke-width="2" stroke-linecap="round" stroke-linejoin="round"/>
<path d="M334.739 53.9122C341.053 53.9122 341.053 59.3566 347.368 59.3566C353.684 59.3566 353.682 53.9122 359.998 53.9122C366.313 53.9122 366.313 59.3566 372.629 59.3566C378.945 59.3566 378.945 53.9122 385.261 53.9122" stroke="#202020" stroke-width="2" stroke-linecap="round" stroke-linejoin="round"/>
<path d="M334.739 61.5556C341.053 61.5556 341.053 67 347.368 67C353.684 67 353.682 61.5556 359.998 61.5556C366.313 61.5556 366.313 67 372.629 67C378.945 67 378.945 61.5556 385.261 61.5556" stroke="#202020" stroke-width="2" stroke-linecap="round" stroke-linejoin="round"/>
<path d="M365.558 44.398C366.827 43.3045 367.619 41.7551 367.619 40.0356C367.619 38.3161 366.827 36.769 365.558 35.6733" stroke="#202020" stroke-width="2" stroke-linecap="round" stroke-linejoin="round"/>
<path d="M416.901 17.223C416.901 20.248 413.601 20.248 413.601 23.273C413.601 26.298 416.901 26.298 416.901 29.323C416.901 32.348 413.601 32.348 413.601 35.373C413.601 38.398 416.901 38.398 416.901 41.423" stroke="#202020" stroke-width="1.5" stroke-linecap="round" stroke-linejoin="round"/>
<path d="M425.108 17.223C425.108 20.248 421.808 20.248 421.808 23.273C421.808 26.298 425.108 26.298 425.108 29.323C425.108 32.348 421.808 32.348 421.808 35.373C421.808 38.398 425.108 38.398 425.108 41.423" stroke="#202020" stroke-width="1.5" stroke-linecap="round" stroke-linejoin="round"/>
<path d="M432.809 17.223C432.809 20.248 429.509 20.248 429.509 23.273C429.509 26.298 432.809 26.298 432.809 29.323C432.809 32.348 429.509 32.348 429.509 35.373C429.509 38.398 432.809 38.398 432.809 41.423" stroke="#202020" stroke-width="1.5" stroke-linecap="round" stroke-linejoin="round"/>
<mask id="path-37-outside-1_1_520" maskUnits="userSpaceOnUse" x="437.309" y="14.0229" width="30" height="29" fill="black">
<rect fill="white" x="437.309" y="14.0229" width="30" height="29"/>
<path d="M466.908 28.7736C466.908 28.5008 466.678 28.2794 466.394 28.2794H463.199L466.257 25.8449C466.476 25.6707 466.507 25.3592 466.325 25.1489C466.144 24.9386 465.82 24.9091 465.602 25.0833L461.587 28.2794H456.53C456.438 27.6 456.159 26.9762 455.744 26.458L459.324 23.0148L464.507 22.5438C464.79 22.5181 464.997 22.2768 464.97 22.0051C464.944 21.7333 464.694 21.5337 464.41 21.5595L460.465 21.9182L462.72 19.7499C462.92 19.5569 462.92 19.2439 462.72 19.0509C462.519 18.8579 462.194 18.8579 461.993 19.0509L459.73 21.2273L460.1 17.4195C460.127 17.1478 459.919 16.9069 459.637 16.8811C459.354 16.8554 459.103 17.0553 459.077 17.3271L458.59 22.3229L455.016 25.7595C454.477 25.3603 453.829 25.0922 453.122 25.0034V20.1402L456.446 16.2801C456.627 16.0699 456.597 15.7583 456.378 15.5841C456.159 15.4099 455.835 15.4394 455.654 15.6497L453.122 18.5902V15.5171C453.122 15.2442 452.892 15.0229 452.608 15.0229C452.324 15.0229 452.094 15.2442 452.094 15.5171V18.5895L449.562 15.6489C449.381 15.4387 449.058 15.4092 448.839 15.5834C448.62 15.7576 448.589 16.0691 448.77 16.2794L452.094 20.1395V25.0027C451.388 25.0914 450.739 25.3595 450.2 25.7587L446.626 22.3221L446.14 17.3264C446.113 17.0546 445.864 16.8546 445.58 16.8804C445.297 16.9058 445.09 17.147 445.116 17.4188L445.487 21.2266L443.224 19.0502C443.023 18.8572 442.697 18.8572 442.497 19.0502C442.296 19.2431 442.296 19.5562 442.497 19.7491L444.752 21.9174L440.806 21.5587C440.524 21.5333 440.273 21.7326 440.246 22.0043C440.219 22.2761 440.427 22.5173 440.709 22.5431L445.892 23.0141L449.473 26.4573C449.058 26.9758 448.779 27.5993 448.687 28.2787H443.645L439.62 25.0649C439.402 24.8904 439.078 24.9195 438.896 25.1294C438.715 25.3393 438.745 25.6512 438.963 25.8254L442.036 28.2787H438.823C438.539 28.2787 438.309 28.5 438.309 28.7729C438.309 29.0458 438.539 29.2671 438.823 29.2671H441.998L438.955 31.6832C438.736 31.8571 438.705 32.1686 438.886 32.3793C438.987 32.4978 439.134 32.559 439.282 32.559C439.398 32.559 439.514 32.5218 439.61 32.4459L443.613 29.2675H448.687C448.779 29.9469 449.058 30.5707 449.473 31.0889L445.892 34.5321L440.709 35.0031C440.427 35.0289 440.219 35.2701 440.246 35.5419C440.271 35.7978 440.495 35.9897 440.757 35.9897C440.773 35.9897 440.79 35.9889 440.806 35.9874L444.752 35.6288L442.497 37.7971C442.296 37.99 442.296 38.303 442.497 38.496C442.597 38.5925 442.729 38.6407 442.86 38.6407C442.991 38.6407 443.123 38.5925 443.224 38.496L445.487 36.3196L445.116 40.1274C445.09 40.3992 445.297 40.64 445.58 40.6658C445.596 40.6673 445.612 40.668 445.629 40.668C445.891 40.668 446.115 40.4758 446.14 40.2198L446.626 35.224L450.2 31.7875C450.739 32.1867 451.388 32.4547 452.094 32.5435V37.4222L448.789 41.2719C448.608 41.4826 448.639 41.7941 448.858 41.9679C448.954 42.0438 449.07 42.081 449.185 42.081C449.333 42.081 449.48 42.0199 449.582 41.9013L452.094 38.9747V42.0287C452.094 42.3016 452.325 42.5229 452.608 42.5229C452.892 42.5229 453.122 42.3016 453.122 42.0287V38.9383L455.674 41.8928C455.775 42.0107 455.922 42.0714 456.069 42.0714C456.185 42.0714 456.301 42.0342 456.397 41.9573C456.616 41.7827 456.646 41.4712 456.464 41.2613L453.122 37.3909V32.5431C453.829 32.4544 454.478 32.1863 455.017 31.7871L458.591 35.2237L459.077 40.2195C459.102 40.4758 459.326 40.6676 459.588 40.6676C459.604 40.6676 459.62 40.6669 459.637 40.6654C459.92 40.64 460.127 40.3992 460.101 40.127L459.73 36.3192L461.993 38.4956C462.094 38.5921 462.225 38.6404 462.357 38.6404C462.488 38.6404 462.62 38.5921 462.72 38.4956C462.921 38.3027 462.921 37.9897 462.72 37.7967L460.465 35.6284L464.411 35.9871C464.427 35.9885 464.443 35.9893 464.46 35.9893C464.722 35.9893 464.946 35.7974 464.971 35.5415C464.998 35.2697 464.79 35.0285 464.507 35.0027L459.325 34.5317L455.744 31.0885C456.159 30.57 456.438 29.9465 456.53 29.2671H461.588L465.602 32.4632C465.698 32.5394 465.814 32.5766 465.929 32.5766C466.077 32.5766 466.224 32.5155 466.326 32.3977C466.507 32.1874 466.476 31.8758 466.258 31.7017L463.2 29.2667H466.395C466.678 29.2667 466.909 29.0454 466.909 28.7725L466.908 28.7736ZM452.608 31.589C450.994 31.589 449.681 30.3258 449.681 28.7736C449.681 27.2214 450.994 25.9583 452.608 25.9583C454.223 25.9583 455.536 27.2214 455.536 28.7736C455.536 30.3258 454.223 31.589 452.608 31.589Z"/>
</mask>
<path d="M466.908 28.7736C466.908 28.5008 466.678 28.2794 466.394 28.2794H463.199L466.257 25.8449C466.476 25.6707 466.507 25.3592 466.325 25.1489C466.144 24.9386 465.82 24.9091 465.602 25.0833L461.587 28.2794H456.53C456.438 27.6 456.159 26.9762 455.744 26.458L459.324 23.0148L464.507 22.5438C464.79 22.5181 464.997 22.2768 464.97 22.0051C464.944 21.7333 464.694 21.5337 464.41 21.5595L460.465 21.9182L462.72 19.7499C462.92 19.5569 462.92 19.2439 462.72 19.0509C462.519 18.8579 462.194 18.8579 461.993 19.0509L459.73 21.2273L460.1 17.4195C460.127 17.1478 459.919 16.9069 459.637 16.8811C459.354 16.8554 459.103 17.0553 459.077 17.3271L458.59 22.3229L455.016 25.7595C454.477 25.3603 453.829 25.0922 453.122 25.0034V20.1402L456.446 16.2801C456.627 16.0699 456.597 15.7583 456.378 15.5841C456.159 15.4099 455.835 15.4394 455.654 15.6497L453.122 18.5902V15.5171C453.122 15.2442 452.892 15.0229 452.608 15.0229C452.324 15.0229 452.094 15.2442 452.094 15.5171V18.5895L449.562 15.6489C449.381 15.4387 449.058 15.4092 448.839 15.5834C448.62 15.7576 448.589 16.0691 448.77 16.2794L452.094 20.1395V25.0027C451.388 25.0914 450.739 25.3595 450.2 25.7587L446.626 22.3221L446.14 17.3264C446.113 17.0546 445.864 16.8546 445.58 16.8804C445.297 16.9058 445.09 17.147 445.116 17.4188L445.487 21.2266L443.224 19.0502C443.023 18.8572 442.697 18.8572 442.497 19.0502C442.296 19.2431 442.296 19.5562 442.497 19.7491L444.752 21.9174L440.806 21.5587C440.524 21.5333 440.273 21.7326 440.246 22.0043C440.219 22.2761 440.427 22.5173 440.709 22.5431L445.892 23.0141L449.473 26.4573C449.058 26.9758 448.779 27.5993 448.687 28.2787H443.645L439.62 25.0649C439.402 24.8904 439.078 24.9195 438.896 25.1294C438.715 25.3393 438.745 25.6512 438.963 25.8254L442.036 28.2787H438.823C438.539 28.2787 438.309 28.5 438.309 28.7729C438.309 29.0458 438.539 29.2671 438.823 29.2671H441.998L438.955 31.6832C438.736 31.8571 438.705 32.1686 438.886 32.3793C438.987 32.4978 439.134 32.559 439.282 32.559C439.398 32.559 439.514 32.5218 439.61 32.4459L443.613 29.2675H448.687C448.779 29.9469 449.058 30.5707 449.473 31.0889L445.892 34.5321L440.709 35.0031C440.427 35.0289 440.219 35.2701 440.246 35.5419C440.271 35.7978 440.495 35.9897 440.757 35.9897C440.773 35.9897 440.79 35.9889 440.806 35.9874L444.752 35.6288L442.497 37.7971C442.296 37.99 442.296 38.303 442.497 38.496C442.597 38.5925 442.729 38.6407 442.86 38.6407C442.991 38.6407 443.123 38.5925 443.224 38.496L445.487 36.3196L445.116 40.1274C445.09 40.3992 445.297 40.64 445.58 40.6658C445.596 40.6673 445.612 40.668 445.629 40.668C445.891 40.668 446.115 40.4758 446.14 40.2198L446.626 35.224L450.2 31.7875C450.739 32.1867 451.388 32.4547 452.094 32.5435V37.4222L448.789 41.2719C448.608 41.4826 448.639 41.7941 448.858 41.9679C448.954 42.0438 449.07 42.081 449.185 42.081C449.333 42.081 449.48 42.0199 449.582 41.9013L452.094 38.9747V42.0287C452.094 42.3016 452.325 42.5229 452.608 42.5229C452.892 42.5229 453.122 42.3016 453.122 42.0287V38.9383L455.674 41.8928C455.775 42.0107 455.922 42.0714 456.069 42.0714C456.185 42.0714 456.301 42.0342 456.397 41.9573C456.616 41.7827 456.646 41.4712 456.464 41.2613L453.122 37.3909V32.5431C453.829 32.4544 454.478 32.1863 455.017 31.7871L458.591 35.2237L459.077 40.2195C459.102 40.4758 459.326 40.6676 459.588 40.6676C459.604 40.6676 459.62 40.6669 459.637 40.6654C459.92 40.64 460.127 40.3992 460.101 40.127L459.73 36.3192L461.993 38.4956C462.094 38.5921 462.225 38.6404 462.357 38.6404C462.488 38.6404 462.62 38.5921 462.72 38.4956C462.921 38.3027 462.921 37.9897 462.72 37.7967L460.465 35.6284L464.411 35.9871C464.427 35.9885 464.443 35.9893 464.46 35.9893C464.722 35.9893 464.946 35.7974 464.971 35.5415C464.998 35.2697 464.79 35.0285 464.507 35.0027L459.325 34.5317L455.744 31.0885C456.159 30.57 456.438 29.9465 456.53 29.2671H461.588L465.602 32.4632C465.698 32.5394 465.814 32.5766 465.929 32.5766C466.077 32.5766 466.224 32.5155 466.326 32.3977C466.507 32.1874 466.476 31.8758 466.258 31.7017L463.2 29.2667H466.395C466.678 29.2667 466.909 29.0454 466.909 28.7725L466.908 28.7736ZM452.608 31.589C450.994 31.589 449.681 30.3258 449.681 28.7736C449.681 27.2214 450.994 25.9583 452.608 25.9583C454.223 25.9583 455.536 27.2214 455.536 28.7736C455.536 30.3258 454.223 31.589 452.608 31.589Z" fill="#202020"/>
<path d="M466.908 28.7736C466.908 28.5008 466.678 28.2794 466.394 28.2794H463.199L466.257 25.8449C466.476 25.6707 466.507 25.3592 466.325 25.1489C466.144 24.9386 465.82 24.9091 465.602 25.0833L461.587 28.2794H456.53C456.438 27.6 456.159 26.9762 455.744 26.458L459.324 23.0148L464.507 22.5438C464.79 22.5181 464.997 22.2768 464.97 22.0051C464.944 21.7333 464.694 21.5337 464.41 21.5595L460.465 21.9182L462.72 19.7499C462.92 19.5569 462.92 19.2439 462.72 19.0509C462.519 18.8579 462.194 18.8579 461.993 19.0509L459.73 21.2273L460.1 17.4195C460.127 17.1478 459.919 16.9069 459.637 16.8811C459.354 16.8554 459.103 17.0553 459.077 17.3271L458.59 22.3229L455.016 25.7595C454.477 25.3603 453.829 25.0922 453.122 25.0034V20.1402L456.446 16.2801C456.627 16.0699 456.597 15.7583 456.378 15.5841C456.159 15.4099 455.835 15.4394 455.654 15.6497L453.122 18.5902V15.5171C453.122 15.2442 452.892 15.0229 452.608 15.0229C452.324 15.0229 452.094 15.2442 452.094 15.5171V18.5895L449.562 15.6489C449.381 15.4387 449.058 15.4092 448.839 15.5834C448.62 15.7576 448.589 16.0691 448.77 16.2794L452.094 20.1395V25.0027C451.388 25.0914 450.739 25.3595 450.2 25.7587L446.626 22.3221L446.14 17.3264C446.113 17.0546 445.864 16.8546 445.58 16.8804C445.297 16.9058 445.09 17.147 445.116 17.4188L445.487 21.2266L443.224 19.0502C443.023 18.8572 442.697 18.8572 442.497 19.0502C442.296 19.2431 442.296 19.5562 442.497 19.7491L444.752 21.9174L440.806 21.5587C440.524 21.5333 440.273 21.7326 440.246 22.0043C440.219 22.2761 440.427 22.5173 440.709 22.5431L445.892 23.0141L449.473 26.4573C449.058 26.9758 448.779 27.5993 448.687 28.2787H443.645L439.62 25.0649C439.402 24.8904 439.078 24.9195 438.896 25.1294C438.715 25.3393 438.745 25.6512 438.963 25.8254L442.036 28.2787H438.823C438.539 28.2787 438.309 28.5 438.309 28.7729C438.309 29.0458 438.539 29.2671 438.823 29.2671H441.998L438.955 31.6832C438.736 31.8571 438.705 32.1686 438.886 32.3793C438.987 32.4978 439.134 32.559 439.282 32.559C439.398 32.559 439.514 32.5218 439.61 32.4459L443.613 29.2675H448.687C448.779 29.9469 449.058 30.5707 449.473 31.0889L445.892 34.5321L440.709 35.0031C440.427 35.0289 440.219 35.2701 440.246 35.5419C440.271 35.7978 440.495 35.9897 440.757 35.9897C440.773 35.9897 440.79 35.9889 440.806 35.9874L444.752 35.6288L442.497 37.7971C442.296 37.99 442.296 38.303 442.497 38.496C442.597 38.5925 442.729 38.6407 442.86 38.6407C442.991 38.6407 443.123 38.5925 443.224 38.496L445.487 36.3196L445.116 40.1274C445.09 40.3992 445.297 40.64 445.58 40.6658C445.596 40.6673 445.612 40.668 445.629 40.668C445.891 40.668 446.115 40.4758 446.14 40.2198L446.626 35.224L450.2 31.7875C450.739 32.1867 451.388 32.4547 452.094 32.5435V37.4222L448.789 41.2719C448.608 41.4826 448.639 41.7941 448.858 41.9679C448.954 42.0438 449.07 42.081 449.185 42.081C449.333 42.081 449.48 42.0199 449.582 41.9013L452.094 38.9747V42.0287C452.094 42.3016 452.325 42.5229 452.608 42.5229C452.892 42.5229 453.122 42.3016 453.122 42.0287V38.9383L455.674 41.8928C455.775 42.0107 455.922 42.0714 456.069 42.0714C456.185 42.0714 456.301 42.0342 456.397 41.9573C456.616 41.7827 456.646 41.4712 456.464 41.2613L453.122 37.3909V32.5431C453.829 32.4544 454.478 32.1863 455.017 31.7871L458.591 35.2237L459.077 40.2195C459.102 40.4758 459.326 40.6676 459.588 40.6676C459.604 40.6676 459.62 40.6669 459.637 40.6654C459.92 40.64 460.127 40.3992 460.101 40.127L459.73 36.3192L461.993 38.4956C462.094 38.5921 462.225 38.6404 462.357 38.6404C462.488 38.6404 462.62 38.5921 462.72 38.4956C462.921 38.3027 462.921 37.9897 462.72 37.7967L460.465 35.6284L464.411 35.9871C464.427 35.9885 464.443 35.9893 464.46 35.9893C464.722 35.9893 464.946 35.7974 464.971 35.5415C464.998 35.2697 464.79 35.0285 464.507 35.0027L459.325 34.5317L455.744 31.0885C456.159 30.57 456.438 29.9465 456.53 29.2671H461.588L465.602 32.4632C465.698 32.5394 465.814 32.5766 465.929 32.5766C466.077 32.5766 466.224 32.5155 466.326 32.3977C466.507 32.1874 466.476 31.8758 466.258 31.7017L463.2 29.2667H466.395C466.678 29.2667 466.909 29.0454 466.909 28.7725L466.908 28.7736ZM452.608 31.589C450.994 31.589 449.681 30.3258 449.681 28.7736C449.681 27.2214 450.994 25.9583 452.608 25.9583C454.223 25.9583 455.536 27.2214 455.536 28.7736C455.536 30.3258 454.223 31.589 452.608 31.589Z" stroke="#202020" stroke-width="0.4" mask="url(#path-37-outside-1_1_520)"/>
<path d="M460.545 51.0686H419.455C415.614 51.0686 412.5 54.1821 412.5 58.0229C412.5 61.8636 415.614 64.9771 419.455 64.9771H460.545C464.386 64.9771 467.5 61.8636 467.5 58.0229C467.5 54.1821 464.386 51.0686 460.545 51.0686Z" stroke="#202020" stroke-width="1.5" stroke-linecap="round" stroke-linejoin="round"/>
<mask id="mask0_1_520" style="mask-type:alpha" maskUnits="userSpaceOnUse" x="496" y="10" width="42" height="60">
<path d="M537.931 50.2902C537.931 39.7777 517.048 10.6731 517.048 10.6731C517.048 10.6731 496.165 39.7777 496.165 50.2902C496.165 60.8026 505.516 69.3269 517.048 69.3269C528.58 69.3269 537.931 60.8026 537.931 50.2902Z" fill="black"/>
</mask>
<g mask="url(#mask0_1_520)">
<path d="M488.759 42.7764C495.75 42.7764 495.75 49.4037 502.738 49.4037C509.726 49.4037 509.729 42.7764 516.718 42.7764C523.706 42.7764 523.709 49.4037 530.7 49.4037C537.691 49.4037 537.691 42.7764 544.682 42.7764" stroke="#202020" stroke-width="2" stroke-linecap="round" stroke-linejoin="round"/>
</g>
<path d="M537.931 50.2902C537.931 39.7777 517.048 10.6731 517.048 10.6731C517.048 10.6731 496.165 39.7777 496.165 50.2902C496.165 60.8026 505.516 69.3269 517.048 69.3269C528.58 69.3269 537.931 60.8026 537.931 50.2902Z" stroke="#202020" stroke-width="2" stroke-linecap="round" stroke-linejoin="round"/>
<path d="M539.245 20.0499C541.78 20.0499 543.835 18.1767 543.835 15.866C543.835 13.5553 541.78 11.6821 539.245 11.6821C536.71 11.6821 534.655 13.5553 534.655 15.866C534.655 18.1767 536.71 20.0499 539.245 20.0499Z" stroke="#202020" stroke-width="2" stroke-linecap="round" stroke-linejoin="round"/>
<path d="M617.94 62.3416H619.977C623.028 62.3416 625.505 60.0842 625.505 57.3024V20.8845C625.505 18.1027 623.028 15.8453 619.977 15.8453H579.963C576.944 15.8453 574.495 18.0772 574.495 20.8299C574.495 23.5825 576.944 25.8145 579.963 25.8145H612.22C615.379 25.8145 617.94 28.1484 617.94 31.0285V63.8126C617.94 66.6927 615.379 69.0266 612.22 69.0266H580.215C577.056 69.0266 574.495 66.6927 574.495 63.8126V20.8845" stroke="#202020" stroke-width="2" stroke-linecap="round" stroke-linejoin="round"/>
<path d="M593.487 10.9734H603.281C605.33 10.9734 606.991 12.4881 606.991 14.3559V25.8144H589.777V14.3559C589.777 12.4881 591.438 10.9734 593.487 10.9734Z" fill="#202020"/>
<path d="M653.398 58.4344L677.291 18.3863C678.39 16.5436 681.075 16.5372 682.185 18.3715L706.59 58.7214C707.732 60.6109 706.352 63.0148 704.13 62.9999L655.834 62.6981C653.636 62.6854 652.281 60.3112 653.402 58.4344H653.398Z" stroke="#202020" stroke-width="2" stroke-linecap="round" stroke-linejoin="round"/>
<path d="M679.485 33.8173V47.8581" stroke="#202020" stroke-width="3" stroke-linecap="round" stroke-linejoin="round"/>
<path d="M679.531 53.4528C679.773 53.4528 679.969 53.2585 679.969 53.0189C679.969 52.7792 679.773 52.5849 679.531 52.5849C679.289 52.5849 679.094 52.7792 679.094 53.0189C679.094 53.2585 679.289 53.4528 679.531 53.4528Z" fill="#202020" stroke="#202020" stroke-width="3"/>
<path d="M679.531 54.3208C680.256 54.3208 680.844 53.7379 680.844 53.0189C680.844 52.2999 680.256 51.717 679.531 51.717C678.806 51.717 678.219 52.2999 678.219 53.0189C678.219 53.7379 678.806 54.3208 679.531 54.3208Z" fill="#202020"/>
<path d="M760.001 47.1218C763.879 47.1218 767.023 43.9336 767.023 40.0007C767.023 36.0678 763.879 32.8796 760.001 32.8796C756.123 32.8796 752.979 36.0678 752.979 40.0007C752.979 43.9336 756.123 47.1218 760.001 47.1218Z" stroke="#202020" stroke-width="2" stroke-miterlimit="10" stroke-linecap="round"/>
<path d="M760.001 47.1223V67.0001" stroke="#202020" stroke-width="2" stroke-miterlimit="10" stroke-linecap="round"/>
<path d="M760.001 12.9998V32.8777" stroke="#202020" stroke-width="2" stroke-miterlimit="10" stroke-linecap="round"/>
<path d="M766.358 19.1198L760.002 25.5675L753.643 19.1198" stroke="#202020" stroke-width="2" stroke-miterlimit="10" stroke-linecap="round"/>
<path d="M763.946 14.9494L760.001 18.95L756.054 14.9494" stroke="#202020" stroke-width="2" stroke-miterlimit="10" stroke-linecap="round"/>
<path d="M753.643 60.8803L760.002 54.4348L766.358 60.8803" stroke="#202020" stroke-width="2" stroke-miterlimit="10" stroke-linecap="round"/>
<path d="M756.054 65.0525L760.001 61.0518L763.946 65.0525" stroke="#202020" stroke-width="2" stroke-miterlimit="10" stroke-linecap="round"/>
<path d="M752.977 40.0009H733.375" stroke="#202020" stroke-width="2" stroke-miterlimit="10" stroke-linecap="round"/>
<path d="M786.625 40.0009H767.023" stroke="#202020" stroke-width="2" stroke-miterlimit="10" stroke-linecap="round"/>
<path d="M780.591 46.4463L774.235 40.0008L780.591 33.5531" stroke="#202020" stroke-width="2" stroke-miterlimit="10" stroke-linecap="round"/>
<path d="M784.705 44.0016L780.76 40.0009L784.705 35.9981" stroke="#202020" stroke-width="2" stroke-miterlimit="10" stroke-linecap="round"/>
<path d="M739.41 33.5531L745.768 40.0008L739.41 46.4463" stroke="#202020" stroke-width="2" stroke-miterlimit="10" stroke-linecap="round"/>
<path d="M735.298 35.9981L739.243 40.0009L735.298 44.0016" stroke="#202020" stroke-width="2" stroke-miterlimit="10" stroke-linecap="round"/>
<path d="M755.034 34.9638L743.867 23.6396" stroke="#202020" stroke-width="2" stroke-miterlimit="10" stroke-linecap="round"/>
<path d="M776.135 56.3624L764.966 45.036" stroke="#202020" stroke-width="2" stroke-miterlimit="10" stroke-linecap="round"/>
<path d="M770.066 56.3623V50.2072H776.135" stroke="#202020" stroke-width="2" stroke-miterlimit="10" stroke-linecap="round"/>
<path d="M749.937 23.6396V29.7946H743.867" stroke="#202020" stroke-width="2" stroke-miterlimit="10" stroke-linecap="round"/>
<path d="M755.034 45.036L743.867 56.3624" stroke="#202020" stroke-width="2" stroke-miterlimit="10" stroke-linecap="round"/>
<path d="M776.135 23.6396L764.966 34.9638" stroke="#202020" stroke-width="2" stroke-miterlimit="10" stroke-linecap="round"/>
<path d="M776.135 29.7946H770.066V23.6396" stroke="#202020" stroke-width="2" stroke-miterlimit="10" stroke-linecap="round"/>
<path d="M743.867 50.2072H749.937V56.3623" stroke="#202020" stroke-width="2" stroke-miterlimit="10" stroke-linecap="round"/>
<path d="M828.57 21.5552H851.43C854.3 21.5552 856.63 23.8858 856.63 26.7555V36.7838C856.63 45.9633 849.177 53.4138 840 53.4138C830.823 53.4138 823.37 45.9633 823.37 36.7838V26.7555C823.37 23.8858 825.701 21.5552 828.57 21.5552Z" stroke="#202020" stroke-width="2" stroke-linecap="round" stroke-linejoin="round"/>
<path d="M831.513 14V21.5553" stroke="#202020" stroke-width="2" stroke-linecap="round" stroke-linejoin="round"/>
<path d="M848.487 14V21.5553" stroke="#202020" stroke-width="2" stroke-linecap="round" stroke-linejoin="round"/>
<path d="M840 53.4139V66" stroke="#202020" stroke-width="2" stroke-linecap="round" stroke-linejoin="round"/>
<path d="M823.37 32.25H856.63" stroke="#202020" stroke-width="2" stroke-linecap="round" stroke-linejoin="round"/>
<path d="M942.4 56.3206H897.6C894.507 56.3206 892 58.8378 892 61.943C892 65.0482 894.507 67.5654 897.6 67.5654H942.4C945.493 67.5654 948 65.0482 948 61.943C948 58.8378 945.493 56.3206 942.4 56.3206Z" stroke="#202020" stroke-width="2" stroke-miterlimit="10"/>
<path d="M899.233 56.3208V33.2847C899.233 21.771 908.531 12.4346 920.001 12.4346C931.472 12.4346 940.767 21.771 940.767 33.2847V56.3208" stroke="#202020" stroke-width="2" stroke-miterlimit="10"/>
<path d="M920 42.5234C922.132 42.5234 923.859 40.7889 923.859 38.6492C923.859 36.5096 922.132 34.7751 920 34.7751C917.869 34.7751 916.142 36.5096 916.142 38.6492C916.142 40.7889 917.869 42.5234 920 42.5234Z" stroke="#202020" stroke-width="2" stroke-miterlimit="10"/>
<path d="M920.001 42.5233V56.3203" stroke="#202020" stroke-width="2" stroke-miterlimit="10"/>
<path d="M997.387 48.7499V15.9143C997.387 13.2002 994.974 11 991.997 11C989.019 11 986.606 13.2002 986.606 15.9143V48.7499C982.822 50.5331 980.236 54.1286 980.236 58.2787C980.236 64.2007 985.5 69 991.997 69C998.493 69 1003.76 64.2007 1003.76 58.2787C1003.76 54.1286 1001.17 50.5331 997.387 48.7499Z" stroke="#202020" stroke-width="2" stroke-miterlimit="10" stroke-linecap="round" stroke-linejoin="round"/>
<path d="M993.089 54.5387V26.0651C993.089 25.5151 992.6 25.0687 991.996 25.0687C991.393 25.0687 990.903 25.5151 990.903 26.0651V54.5387C989.088 54.9783 987.748 56.4819 987.748 58.2763C987.748 60.4156 989.65 62.1469 991.994 62.1469C994.338 62.1469 996.24 60.4134 996.24 58.2763C996.24 56.4819 994.899 54.9783 993.084 54.5387H993.089Z" fill="#202020"/>
<path d="M1008.25 15.1704H1019.76" stroke="#202020" stroke-width="2" stroke-miterlimit="10" stroke-linecap="round" stroke-linejoin="round"/>
<path d="M1008.25 20.991H1013.15" stroke="#202020" stroke-width="2" stroke-miterlimit="10" stroke-linecap="round" stroke-linejoin="round"/>
<path d="M1008.25 26.8116H1013.15" stroke="#202020" stroke-width="2" stroke-miterlimit="10" stroke-linecap="round" stroke-linejoin="round"/>
<path d="M1008.25 32.6319H1019.76" stroke="#202020" stroke-width="2" stroke-miterlimit="10" stroke-linecap="round" stroke-linejoin="round"/>
<path d="M1008.25 38.4525H1013.15" stroke="#202020" stroke-width="2" stroke-miterlimit="10" stroke-linecap="round" stroke-linejoin="round"/>
<path d="M1008.25 44.2751H1013.15" stroke="#202020" stroke-width="2" stroke-miterlimit="10" stroke-linecap="round" stroke-linejoin="round"/>
<path fill-rule="evenodd" clip-rule="evenodd" d="M1080 14C1078.42 26.5702 1065.43 37.6501 1065.58 46.1015C1065.88 64.4968 1094.35 64.4968 1094.42 46.1015C1094.5 37.6501 1081.58 26.4277 1080 14H1080Z" stroke="#202020" stroke-width="2" stroke-linecap="round" stroke-linejoin="round"/>
<path fill-rule="evenodd" clip-rule="evenodd" d="M1080 35.1166C1079.33 40.473 1073.79 45.1944 1073.86 48.797C1073.98 56.635 1086.11 56.635 1086.15 48.797C1086.18 45.1965 1080.67 40.4147 1080 35.1166Z" stroke="#202020" stroke-width="2" stroke-linecap="round" stroke-linejoin="round"/>
<path d="M1063.17 66H1096.83" stroke="#202020" stroke-width="2" stroke-linecap="round" stroke-linejoin="round"/>
<path d="M1168.9 21.6796L1136.05 29.8372C1134.37 30.2557 1133.33 31.98 1133.75 33.6887L1139.84 58.9062C1140.25 60.6148 1141.95 61.6608 1143.63 61.2424L1176.48 53.0848C1178.16 52.6664 1179.2 50.942 1178.78 49.2333L1172.69 24.0159C1172.28 22.3072 1170.58 21.2612 1168.9 21.6796Z" stroke="#202020" stroke-width="2" stroke-linecap="round" stroke-linejoin="round"/>
<path d="M1155.51 32.8526C1155.34 32.1519 1154.65 31.7229 1153.95 31.8945C1153.26 32.0661 1152.84 32.7733 1153.01 33.4741L1155.79 44.9853C1155.96 45.6861 1156.66 46.1151 1157.35 45.9435C1158.04 45.7719 1158.46 45.0646 1158.29 44.3638L1155.51 32.8526Z" fill="#202020"/>
<path d="M1158.27 51.0642C1158.98 51.0642 1159.56 50.4793 1159.56 49.7578C1159.56 49.0363 1158.98 48.4514 1158.27 48.4514C1157.56 48.4514 1156.98 49.0363 1156.98 49.7578C1156.98 50.4793 1157.56 51.0642 1158.27 51.0642Z" fill="#202020"/>
<path d="M1160.45 18.5022L1161.88 18.1469C1162.21 18.0661 1162.54 18.268 1162.62 18.5998L1163.68 22.9789L1161.06 23.6276L1160.01 19.2485C1159.93 18.9185 1160.13 18.5831 1160.45 18.5018L1160.45 18.5022Z" fill="#202020"/>
<path d="M1134.19 61.5034H1187" stroke="#202020" stroke-width="2" stroke-linecap="round" stroke-linejoin="round"/>
</svg>
