<svg width="122" height="88" viewBox="0 0 122 88" fill="none" xmlns="http://www.w3.org/2000/svg">
<path d="M82.99 0.982422H38.72C17.3355 0.982422 0 18.318 0 39.7024C0 61.0869 17.3355 78.4224 38.72 78.4224H82.99C104.374 78.4224 121.71 61.0869 121.71 39.7024C121.71 18.318 104.374 0.982422 82.99 0.982422Z" fill="white"/>
<path d="M72.3898 73.5033L57.7098 87.9533L57.5898 67.3633L72.3898 73.5033Z" fill="white"/>
<path d="M32.2604 39.7715V60.9824H27.8365V43.9609H27.7193L22.8561 47.0078V43.1113L28.1002 39.7715H32.2604ZM36.5822 60.9824L36.5529 57.7891L44.1701 50.7871C46.1477 48.8975 47.217 47.7256 47.217 46.041C47.217 44.1514 45.7961 42.9795 43.8479 42.9941C41.8557 42.9795 40.552 44.2393 40.5666 46.2754H36.3771C36.3625 42.1299 39.4387 39.4785 43.9064 39.4785C48.4475 39.4785 51.465 42.0713 51.465 45.748C51.465 48.165 50.2932 50.1426 45.9279 54.0977L42.7053 57.2324V57.3496H51.758V60.9824H36.5822ZM53.4725 57.2324V53.7461L62.4373 39.7715H67.9744V53.6875H70.6697V57.2324H67.9744V60.9824H63.785V57.2324H53.4725ZM57.9256 53.6875H63.8436V44.6055H63.6385L57.9256 53.5117V53.6875ZM75.6127 54.6191C73.7055 54.6191 72.6772 53.2305 72.6772 51.2266C72.6772 49.2139 73.7582 47.8164 75.6127 47.8164C77.5199 47.8164 78.5395 49.2139 78.5482 51.2266C78.5395 53.248 77.4936 54.6191 75.6127 54.6191ZM74.4701 51.2266C74.4789 52.3252 74.8744 53.0459 75.6127 53.0547C76.3686 53.0459 76.7465 52.3252 76.7553 51.2266C76.7465 50.1279 76.4037 49.3809 75.6127 49.3809C74.8656 49.3896 74.4789 50.1455 74.4701 51.2266ZM74.5053 60.9824L83.2592 48.2559H85.2279L76.474 60.9824H74.5053ZM81.2729 58.0117C81.2729 55.999 82.3539 54.6104 84.1908 54.6016C86.1156 54.6104 87.1352 55.999 87.1439 58.0117C87.1352 60.0332 86.0893 61.4043 84.1908 61.4043C82.3012 61.4043 81.2729 60.0156 81.2729 58.0117ZM83.0658 58.0117C83.0746 59.1104 83.4701 59.8398 84.1908 59.8398C84.9643 59.8398 85.3422 59.1104 85.351 58.0117C85.3422 56.9131 84.9906 56.166 84.1908 56.1836C83.4525 56.1748 83.0746 56.9307 83.0658 58.0117Z" fill="#202020"/>
<path d="M27.7269 15.7174C27.7269 19.3974 25.2149 21.7814 21.0709 22.7574L20.3349 21.3814C23.7269 20.6614 25.5829 19.0454 25.8709 17.1254H21.1029V15.7174H27.7269ZM22.2869 28.6774V27.3014H24.2069V24.4854H22.4149V23.1414H32.0469V24.4854H30.2229V27.3014H32.1749V28.6774H22.2869ZM25.9029 27.3014H28.5269V24.4854H25.9029V27.3014ZM30.0949 22.4374V14.8214H31.8229V22.4374H30.0949ZM45.6831 22.0854V23.4614H32.8191V22.0854H45.6831ZM34.1311 18.1174C34.1471 16.3254 36.1471 15.2374 39.2511 15.2374C42.3071 15.2374 44.3071 16.3254 44.3071 18.1174C44.3071 19.8934 42.3071 20.9974 39.2511 20.9974C36.1471 20.9974 34.1471 19.8934 34.1311 18.1174ZM34.3871 28.6454V24.5174H36.1471V27.2374H44.2111V28.6454H34.3871ZM35.9551 18.1174C35.9391 19.0614 37.1711 19.5734 39.2511 19.5894C41.2831 19.5734 42.5311 19.0614 42.5151 18.1174C42.5311 17.1734 41.2831 16.6294 39.2511 16.6134C37.1711 16.6294 35.9391 17.1734 35.9551 18.1174ZM55.5477 15.9734C55.5637 17.7334 57.5477 19.5414 60.5717 19.9414L59.8677 21.3494C57.4837 20.9814 55.5797 19.7974 54.6517 18.1974C53.7237 19.7974 51.8357 20.9814 49.4677 21.3494L48.7637 19.9414C51.7557 19.5414 53.7397 17.7494 53.7557 15.9734V15.2374H55.5477V15.9734ZM48.2197 23.9734V22.5654H61.0837V23.9734H55.4837V28.9014H53.7557V23.9734H48.2197ZM68.1598 15.9734V17.0934H71.0078V14.8214H72.7358V25.0934H71.0078V21.5414H68.1598V22.7574H61.5358V15.9734H68.1598ZM63.2638 21.3814H66.4638V17.3494H63.2638V21.3814ZM63.4238 28.6454V24.1334H65.1838V27.2374H73.0558V28.6454H63.4238ZM68.1598 20.1334H71.0078V18.5334H68.1598V20.1334ZM81.6404 18.1814C81.6404 20.7734 83.0164 23.3654 85.2884 24.3574L84.2644 25.7334C82.6484 24.9814 81.4484 23.4934 80.7924 21.6534C80.1524 23.6374 78.9364 25.2694 77.2244 26.0854L76.1684 24.6134C78.5204 23.6054 79.8964 20.9014 79.9124 18.1814V15.9414H81.6404V18.1814ZM86.3124 28.9334V14.7894H88.0724V28.9334H86.3124ZM100.173 14.7894V18.8534H102.157V20.2934H100.173V24.9654H98.4126V14.7894H100.173ZM88.9726 22.1494C92.2206 21.1894 94.1406 19.4294 94.4286 17.2854H89.5806V15.8774H96.3326C96.3326 19.6214 93.8846 22.2934 89.7086 23.5254L88.9726 22.1494ZM91.0846 28.6454V23.9414H92.8446V27.2374H100.685V28.6454H91.0846Z" fill="#202020"/>
</svg>
