<svg width="361" height="350" viewBox="0 0 361 350" fill="none" xmlns="http://www.w3.org/2000/svg">
<path opacity="0.5" d="M22.9609 89.4707V288.941H160.5L352.131 190.463V90.0707L22.9609 89.4707Z" fill="#0E5DB7" fill-opacity="0.5"/>
<mask id="mask0_790_9357" style="mask-type:luminance" maskUnits="userSpaceOnUse" x="22" y="89" width="331" height="201">
<path d="M22.9609 89.4707V289.481L160.5 288.941L352.131 190.463L351.931 89.4707H22.9609Z" fill="white"/>
</mask>
<g mask="url(#mask0_790_9357)">
<g opacity="0.7">
<path d="M502.281 82.3301L318.141 294.4H318.711L502.281 82.9801V82.3301Z" fill="white"/>
<path d="M502.281 95.0605L329.201 294.401H329.761L502.281 95.7105V95.0605Z" fill="white"/>
<path d="M502.28 107.791L340.25 294.401H340.81L502.28 108.441V107.791Z" fill="white"/>
<path d="M502.281 120.521L351.311 294.401H351.871L502.281 121.171V120.521Z" fill="white"/>
<path d="M27.4105 81.8008L-157.189 294.401H-156.629L27.9706 81.8008H27.4105Z" fill="white"/>
<path d="M38.4594 81.8008L-146.141 294.401H-145.581L39.0194 81.8008H38.4594Z" fill="white"/>
<path d="M49.5199 81.8008L-135.08 294.401H-134.52L50.0799 81.8008H49.5199Z" fill="white"/>
<path d="M60.5707 81.8008L-124.029 294.401H-123.469L61.1307 81.8008H60.5707Z" fill="white"/>
<path d="M71.6195 81.8008L-112.98 294.401H-112.41L72.1895 81.8008H71.6195Z" fill="white"/>
<path d="M82.6801 81.8008L-101.92 294.401H-101.36L83.2401 81.8008H82.6801Z" fill="white"/>
<path d="M93.7289 81.8008L-90.8711 294.401H-90.3011L94.2989 81.8008H93.7289Z" fill="white"/>
<path d="M104.789 81.8008L-79.8105 294.401H-79.2505L105.349 81.8008H104.789Z" fill="white"/>
<path d="M115.84 81.8008L-68.7598 294.401H-68.1898L116.4 81.8008H115.84Z" fill="white"/>
<path d="M126.901 81.8008L-57.6992 294.401H-57.1392L127.461 81.8008H126.901Z" fill="white"/>
<path d="M137.952 81.8008L-46.6484 294.401H-46.0884L138.512 81.8008H137.952Z" fill="white"/>
<path d="M149 81.8008L-35.5996 294.401H-35.0296L149.57 81.8008H149Z" fill="white"/>
<path d="M160.061 81.8008L-24.5391 294.401H-23.9791L160.621 81.8008H160.061Z" fill="white"/>
<path d="M171.112 81.8008L-13.4883 294.401H-12.9183L171.682 81.8008H171.112Z" fill="white"/>
<path d="M182.17 81.8008L-2.42969 294.401H-1.86969L182.73 81.8008H182.17Z" fill="white"/>
<path d="M193.221 81.8008L8.62109 294.401H9.19109L193.781 81.8008H193.221Z" fill="white"/>
<path d="M204.28 81.8008L19.6797 294.401H20.2397L204.84 81.8008H204.28Z" fill="white"/>
<path d="M215.33 81.8008L30.7305 294.401H31.2905L215.89 81.8008H215.33Z" fill="white"/>
<path d="M226.381 81.8008L41.7812 294.401H42.3512L226.951 81.8008H226.381Z" fill="white"/>
<path d="M237.44 81.8008L52.8398 294.401H53.3998L238 81.8008H237.44Z" fill="white"/>
<path d="M248.491 81.8008L63.8906 294.401H64.4606L249.061 81.8008H248.491Z" fill="white"/>
<path d="M259.551 81.8008L74.9512 294.401H75.5112L260.111 81.8008H259.551Z" fill="white"/>
<path d="M270.6 81.8008L86 294.401H86.57L271.16 81.8008H270.6Z" fill="white"/>
<path d="M281.661 81.8008L97.0605 294.401H97.6206L282.221 81.8008H281.661Z" fill="white"/>
<path d="M292.709 81.8008L108.109 294.401H108.669L293.269 81.8008H292.709Z" fill="white"/>
<path d="M303.76 81.8008L119.16 294.401H119.73L304.33 81.8008H303.76Z" fill="white"/>
<path d="M314.821 81.8008L130.221 294.401H130.781L315.381 81.8008H314.821Z" fill="white"/>
<path d="M325.87 81.8008L141.27 294.401H141.84L326.44 81.8008H325.87Z" fill="white"/>
<path d="M336.93 81.8008L152.33 294.401H152.89L337.49 81.8008H336.93Z" fill="white"/>
<path d="M347.979 81.8008L163.379 294.401H163.949L348.539 81.8008H347.979Z" fill="white"/>
<path d="M359.039 81.8008L174.439 294.401H174.999L359.599 81.8008H359.039Z" fill="white"/>
<path d="M370.09 81.8008L185.49 294.401H186.05L370.65 81.8008H370.09Z" fill="white"/>
<path d="M381.139 81.8008L196.539 294.401H197.109L381.709 81.8008H381.139Z" fill="white"/>
<path d="M392.202 81.8008L207.602 294.401H208.162L392.762 81.8008H392.202Z" fill="white"/>
<path d="M403.25 81.8008L218.65 294.401H219.22L403.82 81.8008H403.25Z" fill="white"/>
<path d="M414.311 81.8008L229.711 294.401H230.271L414.871 81.8008H414.311Z" fill="white"/>
<path d="M425.362 81.8008L240.762 294.401H241.332L425.922 81.8008H425.362Z" fill="white"/>
<path d="M436.42 81.8008L251.82 294.401H252.38L436.98 81.8008H436.42Z" fill="white"/>
<path d="M447.471 81.8008L262.871 294.401H263.431L448.031 81.8008H447.471Z" fill="white"/>
<path d="M458.52 81.8008L273.93 294.401H274.49L459.09 81.8008H458.52Z" fill="white"/>
<path d="M469.58 81.8008L284.98 294.401H285.54L470.14 81.8008H469.58Z" fill="white"/>
<path d="M480.631 81.8008L296.031 294.401H296.601L481.201 81.8008H480.631Z" fill="white"/>
<path d="M491.69 81.8008L307.09 294.401H307.65L492.25 81.8008H491.69Z" fill="white"/>
<path d="M502.281 88.5723L323.561 294.402H324.131L502.281 89.2223V88.5723Z" fill="white"/>
<path d="M502.281 101.301L334.621 294.401H335.181L502.281 101.951V101.301Z" fill="white"/>
<path d="M502.28 114.041L345.67 294.401H346.24L502.28 114.681V114.041Z" fill="white"/>
<path d="M32.8305 81.8008L-151.77 294.401H-151.21L33.3905 81.8008H32.8305Z" fill="white"/>
<path d="M43.8812 81.8008L-140.719 294.401H-140.149L44.4512 81.8008H43.8812Z" fill="white"/>
<path d="M54.9398 81.8008L-129.66 294.401H-129.1L55.4998 81.8008H54.9398Z" fill="white"/>
<path d="M65.9906 81.8008L-118.609 294.401H-118.049L66.5506 81.8008H65.9906Z" fill="white"/>
<path d="M77.0512 81.8008L-107.549 294.401H-106.989L77.6112 81.8008H77.0512Z" fill="white"/>
<path d="M88.1 81.8008L-96.5 294.401H-95.94L88.66 81.8008H88.1Z" fill="white"/>
<path d="M99.1508 81.8008L-85.4492 294.401H-84.8792L99.7208 81.8008H99.1508Z" fill="white"/>
<path d="M110.209 81.8008L-74.3906 294.401H-73.8306L110.769 81.8008H110.209Z" fill="white"/>
<path d="M121.26 81.8008L-63.3398 294.401H-62.7698L121.83 81.8008H121.26Z" fill="white"/>
<path d="M132.321 81.8008L-52.2793 294.401H-51.7193L132.881 81.8008H132.321Z" fill="white"/>
<path d="M143.37 81.8008L-41.2305 294.401H-40.6705L143.93 81.8008H143.37Z" fill="white"/>
<path d="M154.43 81.8008L-30.1699 294.401H-29.6099L154.99 81.8008H154.43Z" fill="white"/>
<path d="M165.479 81.8008L-19.1211 294.401H-18.5611L166.039 81.8008H165.479Z" fill="white"/>
<path d="M176.53 81.8008L-8.07031 294.401H-7.50031L177.1 81.8008H176.53Z" fill="white"/>
<path d="M187.59 81.8008L2.99023 294.401H3.55023L188.15 81.8008H187.59Z" fill="white"/>
<path d="M198.639 81.8008L14.0391 294.401H14.6091L199.209 81.8008H198.639Z" fill="white"/>
<path d="M209.702 81.8008L25.1016 294.401H25.6616L210.262 81.8008H209.702Z" fill="white"/>
<path d="M220.75 81.8008L36.1504 294.401H36.7104L221.31 81.8008H220.75Z" fill="white"/>
<path d="M231.811 81.8008L47.2109 294.401H47.7709L232.371 81.8008H231.811Z" fill="white"/>
<path d="M242.862 81.8008L58.2617 294.401H58.8217L243.422 81.8008H242.862Z" fill="white"/>
<path d="M253.911 81.8008L69.3105 294.401H69.8805L254.481 81.8008H253.911Z" fill="white"/>
<path d="M264.971 81.8008L80.3711 294.401H80.9311L265.531 81.8008H264.971Z" fill="white"/>
<path d="M276.02 81.8008L91.4199 294.401H91.9899L276.59 81.8008H276.02Z" fill="white"/>
<path d="M287.08 81.8008L102.48 294.401H103.04L287.64 81.8008H287.08Z" fill="white"/>
<path d="M298.131 81.8008L113.531 294.401H114.091L298.691 81.8008H298.131Z" fill="white"/>
<path d="M309.19 81.8008L124.59 294.401H125.15L309.75 81.8008H309.19Z" fill="white"/>
<path d="M320.241 81.8008L135.641 294.401H136.201L320.801 81.8008H320.241Z" fill="white"/>
<path d="M331.289 81.8008L146.689 294.401H147.259L331.859 81.8008H331.289Z" fill="white"/>
<path d="M342.35 81.8008L157.75 294.401H158.31L342.91 81.8008H342.35Z" fill="white"/>
<path d="M353.401 81.8008L168.801 294.401H169.371L353.971 81.8008H353.401Z" fill="white"/>
<path d="M364.459 81.8008L179.859 294.401H180.419L365.019 81.8008H364.459Z" fill="white"/>
<path d="M375.51 81.8008L190.91 294.401H191.47L376.07 81.8008H375.51Z" fill="white"/>
<path d="M386.571 81.8008L201.971 294.401H202.531L387.131 81.8008H386.571Z" fill="white"/>
<path d="M397.62 81.8008L213.02 294.401H213.58L398.18 81.8008H397.62Z" fill="white"/>
<path d="M408.67 81.8008L224.07 294.401H224.64L409.24 81.8008H408.67Z" fill="white"/>
<path d="M419.729 81.8008L235.129 294.401H235.689L420.289 81.8008H419.729Z" fill="white"/>
<path d="M430.78 81.8008L246.18 294.401H246.75L431.35 81.8008H430.78Z" fill="white"/>
<path d="M441.84 81.8008L257.24 294.401H257.8L442.4 81.8008H441.84Z" fill="white"/>
<path d="M452.889 81.8008L268.289 294.401H268.849L453.449 81.8008H452.889Z" fill="white"/>
<path d="M463.952 81.8008L279.352 294.401H279.912L464.512 81.8008H463.952Z" fill="white"/>
<path d="M475 81.8008L290.4 294.401H290.96L475.56 81.8008H475Z" fill="white"/>
<path d="M486.051 81.8008L301.451 294.401H302.021L486.621 81.8008H486.051Z" fill="white"/>
<path d="M497.112 81.8008L312.512 294.401H313.072L497.672 81.8008H497.112Z" fill="white"/>
</g>
</g>
<path d="M351.931 89.4707H22.9609V289.211H160L352 190.463" stroke="#0E5DB7" stroke-width="1.4" stroke-miterlimit="10"/>
</svg>
