<svg width="361" height="351" viewBox="0 0 361 351" fill="none" xmlns="http://www.w3.org/2000/svg">
<path d="M4.32156 2.25664C4.32156 2.97664 4.19156 3.64664 3.94156 4.28664C3.69156 4.91664 3.32156 5.47664 2.84156 5.94664C2.36156 6.41664 1.77156 6.76664 1.08156 7.00664L0.351562 5.90664C0.941562 5.70664 1.45156 5.41664 1.87156 5.03664C2.29156 4.65664 2.61156 4.23664 2.83156 3.75664C3.05156 3.27664 3.16156 2.78664 3.16156 2.26664V1.44664H4.32156V2.26664V2.25664ZM6.97156 1.13664V2.28664H0.771563V1.13664H6.97156ZM3.83156 7.29664V8.49664H8.58156V7.29664H9.98156V11.8866H2.43156V7.29664H3.84156H3.83156ZM4.60156 2.26664C4.60156 2.73664 4.70156 3.19664 4.91156 3.64664C5.12156 4.09664 5.42156 4.49664 5.83156 4.85664C6.24156 5.21664 6.73156 5.48664 7.30156 5.67664L6.60156 6.77664C5.93156 6.54664 5.36156 6.20664 4.89156 5.75664C4.42156 5.30664 4.06156 4.77664 3.82156 4.18664C3.58156 3.58664 3.46156 2.95664 3.46156 2.27664V1.44664H4.61156V2.27664L4.60156 2.26664ZM3.83156 10.7466H8.58156V9.58664H3.83156V10.7466ZM8.95156 3.19664V4.35664H6.60156V3.19664H8.95156ZM9.99156 0.556641V6.81664H8.59156V0.556641H9.99156Z" fill="#545251"/>
<path d="M22.0828 6.53711V7.65711H11.6328V6.53711H22.0828ZM17.2928 2.56711C17.2928 3.16711 17.1028 3.68711 16.7128 4.14711C16.3328 4.60711 15.7828 4.97711 15.0628 5.25711C14.3528 5.53711 13.5128 5.72711 12.5528 5.80711L12.1128 4.72711C12.9428 4.66711 13.6628 4.53711 14.2528 4.32711C14.8428 4.12711 15.2928 3.86711 15.5928 3.56711C15.8928 3.26711 16.0428 2.92711 16.0428 2.56711V2.34711H17.2828V2.56711H17.2928ZM21.0528 1.62711V2.74711H12.6528V1.62711H21.0528ZM20.8028 8.53711V12.0171H19.3828V9.65711H12.7828V8.53711H20.8028ZM17.5428 0.537109V2.19711H16.1428V0.537109H17.5428ZM17.5428 5.26711V7.01711H16.1428V5.26711H17.5428ZM17.6228 2.56711C17.6228 2.92711 17.7728 3.26711 18.0628 3.56711C18.3528 3.86711 18.8128 4.12711 19.4028 4.32711C19.9928 4.52711 20.7128 4.66711 21.5528 4.72711L21.1128 5.80711C20.1428 5.72711 19.3028 5.53711 18.5928 5.25711C17.8828 4.97711 17.3328 4.60711 16.9528 4.14711C16.5728 3.69711 16.3828 3.16711 16.3828 2.56711V2.34711H17.6228V2.56711Z" fill="#545251"/>
<path d="M34.4131 6.53719V7.67719H23.9531V6.53719H34.4131ZM29.1731 0.867188C30.0031 0.867188 30.7231 0.957188 31.3431 1.14719C31.9631 1.33719 32.4431 1.60719 32.7831 1.95719C33.1231 2.30719 33.2931 2.71719 33.2931 3.18719C33.2931 3.65719 33.1231 4.09719 32.7831 4.44719C32.4431 4.79719 31.9631 5.07719 31.3431 5.25719C30.7231 5.44719 29.9931 5.53719 29.1731 5.53719C28.3531 5.53719 27.6131 5.44719 26.9931 5.25719C26.3731 5.06719 25.8931 4.79719 25.5431 4.44719C25.2031 4.09719 25.0331 3.66719 25.0331 3.18719C25.0331 2.71719 25.2031 2.30719 25.5431 1.95719C25.8831 1.60719 26.3631 1.33719 26.9931 1.14719C27.6131 0.957188 28.3431 0.867188 29.1731 0.867188ZM26.6631 8.45719V11.0472H25.2431V8.45719H26.6631ZM33.2231 10.6572V11.7972H25.2331V10.6572H33.2231ZM29.1731 1.98719C28.6231 1.98719 28.1431 2.03719 27.7431 2.12719C27.3431 2.21719 27.0331 2.35719 26.8231 2.53719C26.6131 2.71719 26.5031 2.92719 26.5131 3.17719C26.5131 3.44719 26.6131 3.66719 26.8231 3.84719C27.0331 4.02719 27.3431 4.16719 27.7431 4.25719C28.1431 4.34719 28.6231 4.39719 29.1831 4.39719C29.7431 4.39719 30.2231 4.34719 30.6231 4.25719C31.0231 4.16719 31.3231 4.02719 31.5431 3.84719C31.7531 3.66719 31.8631 3.44719 31.8631 3.17719C31.8631 2.92719 31.7531 2.71719 31.5431 2.53719C31.3331 2.35719 31.0231 2.21719 30.6231 2.12719C30.2231 2.03719 29.7431 1.98719 29.1831 1.98719H29.1731ZM29.8831 4.88719V7.07719H28.4731V4.88719H29.8831Z" fill="#545251"/>
<path d="M45.6814 9.50625V10.6663H35.1914V9.50625H45.6814ZM44.4214 1.40625V2.53625H37.8814V6.27625H36.4714V1.40625H44.4214ZM44.5114 5.76625V6.88625H36.4714V5.76625H44.5114ZM41.1114 6.26625V9.90625H39.7114V6.26625H41.1114Z" fill="#545251"/>
<path d="M50.132 13.0975L49.792 13.3875C47.962 11.6775 47.082 9.6575 47.082 7.2875C47.082 4.9175 47.962 2.8875 49.792 1.1875L50.132 1.4775C48.602 3.6875 48.132 5.2175 48.132 7.2975C48.132 9.3775 48.602 10.9075 50.132 13.1175V13.0975Z" fill="#545251"/>
<path d="M53.2928 5.94687C52.9028 5.94687 52.5428 5.84687 52.2128 5.65687C51.8828 5.46687 51.6228 5.20688 51.4228 4.87688C51.2328 4.54688 51.1328 4.18688 51.1328 3.79688C51.1328 3.40688 51.2328 3.04688 51.4228 2.71688C51.6128 2.38688 51.8728 2.12688 52.2128 1.93688C52.5428 1.74688 52.9028 1.64688 53.2928 1.64688C53.6828 1.64688 54.0428 1.74688 54.3728 1.93688C54.7028 2.12688 54.9628 2.38688 55.1628 2.71688C55.3628 3.04688 55.4528 3.40688 55.4528 3.79688C55.4528 4.18688 55.3528 4.54688 55.1628 4.87688C54.9728 5.20688 54.7028 5.46687 54.3728 5.65687C54.0428 5.84687 53.6828 5.94687 53.2928 5.94687ZM53.2928 4.80687C53.4828 4.80687 53.6528 4.75688 53.8028 4.66688C53.9628 4.57688 54.0828 4.45688 54.1728 4.29688C54.2628 4.14688 54.3028 3.97688 54.3028 3.78688C54.3028 3.59687 54.2628 3.42687 54.1728 3.27688C54.0828 3.12688 53.9628 2.99688 53.8028 2.90688C53.6428 2.81688 53.4728 2.77688 53.2928 2.77688C53.1128 2.77688 52.9428 2.81688 52.7828 2.90688C52.6228 2.99688 52.5028 3.11688 52.4128 3.27688C52.3228 3.43687 52.2728 3.59687 52.2728 3.78688C52.2728 3.97688 52.3228 4.14688 52.4128 4.29688C52.5028 4.44688 52.6228 4.57688 52.7828 4.66688C52.9428 4.75688 53.1028 4.80687 53.2928 4.80687ZM62.9628 4.80687C62.9028 4.44688 62.7728 4.13687 62.5628 3.86687C62.3628 3.60687 62.1028 3.40688 61.7928 3.26688C61.4828 3.12688 61.1428 3.05687 60.7728 3.05687C60.2628 3.05687 59.8128 3.18688 59.4328 3.43688C59.0528 3.68688 58.7428 4.05688 58.5328 4.54688C58.3128 5.03688 58.2028 5.61688 58.2028 6.29688C58.2028 6.97687 58.3128 7.57688 58.5328 8.05688C58.7528 8.54688 59.0528 8.90687 59.4328 9.15687C59.8128 9.40687 60.2628 9.52687 60.7628 9.52687C61.1328 9.52687 61.4728 9.45687 61.7728 9.32687C62.0728 9.19687 62.3328 8.99687 62.5428 8.74687C62.7528 8.49687 62.8928 8.18687 62.9628 7.83687H64.6328C64.5528 8.43687 64.3328 8.96687 63.9928 9.44687C63.6528 9.92687 63.2028 10.3069 62.6428 10.5869C62.0828 10.8669 61.4528 11.0069 60.7428 11.0069C59.9328 11.0069 59.2028 10.8169 58.5728 10.4369C57.9428 10.0569 57.4428 9.51688 57.0828 8.79688C56.7228 8.08687 56.5428 7.24688 56.5428 6.27688C56.5428 5.30688 56.7228 4.46688 57.0828 3.75688C57.4428 3.04688 57.9428 2.49688 58.5828 2.11688C59.2228 1.73688 59.9428 1.54688 60.7528 1.54688C61.4328 1.54688 62.0428 1.67688 62.5928 1.92688C63.1428 2.18688 63.6028 2.55687 63.9528 3.03688C64.3128 3.51688 64.5328 4.09687 64.6328 4.76688H62.9628V4.80687Z" fill="#545251"/>
<path d="M65.5312 1.46773L65.8713 1.17773C67.7013 2.87773 68.5813 4.90773 68.5813 7.27773C68.5813 9.64773 67.7013 11.6777 65.8713 13.3777L65.5312 13.0877C67.0612 10.8777 67.5312 9.34773 67.5312 7.26773C67.5312 5.18773 67.0612 3.65773 65.5312 1.44773V1.46773Z" fill="#545251"/>
<path d="M296.119 325.017C296.119 325.737 295.989 326.407 295.729 327.037C295.469 327.667 295.099 328.207 294.599 328.667C294.109 329.127 293.509 329.467 292.819 329.697L292.109 328.587C292.709 328.397 293.229 328.117 293.649 327.757C294.079 327.387 294.399 326.977 294.619 326.497C294.839 326.027 294.939 325.537 294.939 325.017V324.137H296.109V325.017H296.119ZM301.679 330.237V333.217H295.469V334.537H294.099V332.167H300.279V331.337H294.069V330.237H301.689H301.679ZM302.019 334.107V335.227H294.089V334.107H302.019ZM296.409 325.017C296.409 325.517 296.509 325.987 296.719 326.437C296.929 326.887 297.249 327.277 297.669 327.617C298.089 327.957 298.599 328.217 299.189 328.397L298.489 329.487C297.799 329.277 297.209 328.947 296.719 328.507C296.229 328.067 295.859 327.547 295.599 326.957C295.349 326.357 295.219 325.717 295.219 325.017V324.137H296.399V325.017H296.409ZM301.659 323.857V329.707H300.269V323.857H301.659Z" fill="#545251"/>
<path d="M305.277 325.167V331.787H303.867V325.167H305.277ZM304.627 331.227C305.287 331.227 305.937 331.207 306.577 331.157C307.217 331.107 307.877 331.017 308.557 330.877L308.707 332.107C307.977 332.237 307.277 332.327 306.607 332.377C305.947 332.427 305.287 332.457 304.627 332.457H303.867V331.227H304.627ZM310.587 324.067V334.747H309.267V324.067H310.587ZM312.237 328.367V329.517H310.197V328.367H312.237ZM313.217 323.857V335.317H311.857V323.857H313.217Z" fill="#545251"/>
<path d="M325.147 329.838V330.978H314.688V329.838H325.147ZM319.908 324.168C320.738 324.168 321.457 324.258 322.087 324.448C322.717 324.638 323.187 324.908 323.527 325.258C323.867 325.608 324.037 326.018 324.037 326.488C324.037 326.958 323.867 327.398 323.527 327.748C323.187 328.098 322.707 328.378 322.087 328.558C321.467 328.738 320.738 328.838 319.908 328.838C319.078 328.838 318.347 328.748 317.727 328.558C317.107 328.368 316.627 328.098 316.277 327.748C315.927 327.398 315.767 326.968 315.767 326.488C315.767 326.018 315.937 325.608 316.277 325.258C316.617 324.908 317.097 324.638 317.727 324.448C318.357 324.258 319.078 324.168 319.908 324.168ZM317.397 331.758V334.348H315.977V331.758H317.397ZM323.967 333.958V335.108H315.987V333.958H323.967ZM319.908 325.288C319.358 325.288 318.877 325.338 318.477 325.428C318.077 325.518 317.767 325.658 317.557 325.838C317.347 326.018 317.237 326.228 317.247 326.478C317.247 326.748 317.347 326.968 317.557 327.148C317.767 327.328 318.077 327.468 318.477 327.558C318.877 327.648 319.357 327.698 319.917 327.698C320.477 327.698 320.957 327.648 321.357 327.558C321.757 327.468 322.057 327.328 322.277 327.148C322.487 326.968 322.598 326.748 322.598 326.478C322.598 326.228 322.487 326.018 322.277 325.838C322.067 325.658 321.757 325.518 321.357 325.428C320.957 325.338 320.477 325.288 319.917 325.288H319.908ZM320.617 328.188V330.378H319.207V328.188H320.617Z" fill="#545251"/>
<path d="M336.42 332.807V333.967H325.93V332.807H336.42ZM335.16 324.707V325.837H328.62V329.577H327.21V324.697H335.16V324.707ZM335.25 329.067V330.187H327.21V329.067H335.25ZM331.86 329.567V333.207H330.46V329.567H331.86Z" fill="#545251"/>
<path d="M340.878 336.398L340.538 336.688C338.708 334.978 337.828 332.958 337.828 330.588C337.828 328.218 338.708 326.188 340.538 324.488L340.878 324.778C339.348 326.988 338.878 328.518 338.878 330.598C338.878 332.678 339.348 334.208 340.878 336.418V336.398Z" fill="#545251"/>
<path d="M344.027 329.248C343.637 329.248 343.277 329.148 342.947 328.958C342.617 328.768 342.357 328.508 342.157 328.178C341.957 327.848 341.867 327.488 341.867 327.098C341.867 326.708 341.967 326.348 342.157 326.018C342.347 325.688 342.617 325.428 342.947 325.238C343.277 325.048 343.637 324.948 344.027 324.948C344.417 324.948 344.777 325.048 345.107 325.238C345.437 325.428 345.697 325.688 345.897 326.018C346.097 326.348 346.187 326.708 346.187 327.098C346.187 327.488 346.087 327.848 345.897 328.178C345.707 328.508 345.437 328.768 345.107 328.958C344.777 329.148 344.417 329.248 344.027 329.248ZM344.027 328.108C344.217 328.108 344.387 328.058 344.537 327.968C344.697 327.878 344.817 327.758 344.907 327.598C344.997 327.448 345.037 327.278 345.037 327.088C345.037 326.898 344.997 326.728 344.907 326.578C344.817 326.428 344.697 326.298 344.537 326.208C344.377 326.118 344.207 326.078 344.027 326.078C343.847 326.078 343.677 326.118 343.517 326.208C343.367 326.298 343.237 326.418 343.147 326.578C343.057 326.728 343.007 326.898 343.007 327.088C343.007 327.278 343.047 327.448 343.147 327.598C343.237 327.748 343.357 327.878 343.517 327.968C343.677 328.058 343.847 328.108 344.027 328.108ZM353.707 328.108C353.647 327.748 353.517 327.438 353.317 327.168C353.107 326.908 352.857 326.708 352.547 326.568C352.237 326.428 351.897 326.358 351.527 326.358C351.017 326.358 350.567 326.488 350.187 326.738C349.807 326.988 349.497 327.358 349.287 327.848C349.077 328.338 348.967 328.918 348.967 329.598C348.967 330.278 349.077 330.878 349.287 331.358C349.497 331.838 349.807 332.208 350.187 332.458C350.577 332.708 351.017 332.828 351.517 332.828C351.887 332.828 352.227 332.758 352.527 332.628C352.827 332.498 353.087 332.298 353.297 332.048C353.507 331.798 353.647 331.488 353.717 331.138H355.387C355.307 331.738 355.097 332.268 354.747 332.748C354.407 333.228 353.957 333.608 353.397 333.888C352.837 334.168 352.207 334.308 351.497 334.308C350.687 334.308 349.957 334.118 349.327 333.738C348.697 333.358 348.197 332.818 347.837 332.098C347.477 331.388 347.297 330.548 347.297 329.578C347.297 328.608 347.477 327.768 347.837 327.058C348.197 326.348 348.697 325.798 349.337 325.418C349.967 325.038 350.697 324.848 351.507 324.848C352.187 324.848 352.797 324.978 353.347 325.228C353.897 325.488 354.357 325.858 354.717 326.338C355.077 326.818 355.297 327.398 355.397 328.068H353.727L353.707 328.108Z" fill="#545251"/>
<path d="M356.27 324.767L356.61 324.477C358.44 326.187 359.32 328.207 359.32 330.577C359.32 332.947 358.44 334.977 356.61 336.677L356.27 336.387C357.8 334.177 358.27 332.647 358.27 330.567C358.27 328.487 357.8 326.957 356.27 324.747V324.767Z" fill="#545251"/>
<path d="M284.949 345.737C284.949 344.927 285.049 344.157 285.259 343.427C285.469 342.697 285.769 342.017 286.169 341.367H286.759C286.539 341.717 286.339 342.127 286.169 342.617C285.999 343.107 285.859 343.607 285.769 344.157C285.669 344.697 285.629 345.227 285.629 345.747C285.629 346.267 285.679 346.797 285.769 347.337C285.869 347.877 285.999 348.387 286.169 348.877C286.339 349.367 286.539 349.777 286.759 350.117H286.169C285.769 349.477 285.469 348.787 285.259 348.057C285.049 347.327 284.949 346.557 284.949 345.747V345.737Z" fill="#666464"/>
<path d="M289.84 341.598C290.25 341.598 290.61 341.718 290.93 341.968C291.25 342.208 291.5 342.548 291.67 342.998C291.85 343.438 291.94 343.958 291.94 344.548C291.94 345.138 291.85 345.648 291.67 346.098C291.49 346.538 291.25 346.888 290.93 347.128C290.61 347.368 290.25 347.488 289.84 347.488C289.43 347.488 289.06 347.368 288.74 347.128C288.42 346.888 288.17 346.548 287.99 346.098C287.81 345.658 287.73 345.138 287.73 344.548C287.73 343.958 287.81 343.438 287.99 342.998C288.17 342.558 288.42 342.208 288.74 341.968C289.06 341.728 289.43 341.608 289.84 341.598ZM289.84 342.138C289.54 342.138 289.28 342.238 289.05 342.448C288.82 342.648 288.64 342.938 288.51 343.298C288.38 343.658 288.32 344.078 288.32 344.548C288.32 345.018 288.38 345.428 288.51 345.798C288.64 346.168 288.82 346.448 289.05 346.648C289.28 346.848 289.55 346.948 289.84 346.948C290.13 346.948 290.4 346.848 290.63 346.648C290.86 346.448 291.04 346.158 291.17 345.798C291.3 345.438 291.37 345.018 291.37 344.548C291.37 344.078 291.31 343.668 291.17 343.298C291.04 342.938 290.86 342.648 290.63 342.448C290.4 342.248 290.13 342.138 289.84 342.138ZM294.15 342.878V343.398H291.45V342.878H294.15ZM294.15 345.588V346.098H291.45V345.588H294.15ZM294.58 340.918V349.438H293.98V340.918H294.58Z" fill="#666464"/>
<path d="M303.892 345.346V345.856H296.102V345.346H303.892ZM302.872 341.146V343.066H297.732V344.266H297.132V342.596H302.272V341.646H297.102V341.146H302.882H302.872ZM303.062 344.026V344.516H297.132V344.026H303.062ZM302.862 346.716V349.306H297.182V346.716H302.862ZM297.782 347.216V348.796H302.272V347.216H297.782Z" fill="#666464"/>
<path d="M307.39 342.587C307.39 343.017 307.28 343.417 307.07 343.797C306.86 344.177 306.56 344.487 306.19 344.757C305.82 345.027 305.4 345.227 304.94 345.367L304.66 344.887C305.07 344.767 305.45 344.597 305.79 344.377C306.13 344.147 306.4 343.887 306.6 343.577C306.8 343.267 306.9 342.947 306.9 342.597V342.207H307.4V342.597L307.39 342.587ZM309.47 341.817V342.327H304.9V341.817H309.47ZM311.66 345.837V347.767H306.81V349.087H306.21V347.287H311.05V346.327H306.18V345.837H311.65H311.66ZM312.01 348.827V349.327H306.22V348.827H312.01ZM307.5 340.877V342.117H306.88V340.877H307.5ZM307.49 342.587C307.49 342.907 307.59 343.217 307.79 343.497C307.99 343.787 308.27 344.027 308.62 344.237C308.97 344.447 309.35 344.597 309.76 344.697L309.48 345.167C309.01 345.047 308.59 344.867 308.21 344.617C307.83 344.367 307.54 344.067 307.32 343.717C307.1 343.367 306.99 342.987 307 342.567V342.177H307.49V342.567V342.587ZM311.44 343.087V343.587H309.19V343.087H311.44ZM311.66 340.917V345.407H311.06V340.917H311.66Z" fill="#666464"/>
<path d="M318.78 345.387V345.997H315.84V345.387H318.78Z" fill="#666464"/>
<path d="M324.107 341.678C324.467 341.678 324.787 341.798 325.067 342.038C325.337 342.278 325.557 342.618 325.707 343.058C325.857 343.498 325.937 344.008 325.937 344.598C325.937 345.188 325.857 345.698 325.707 346.138C325.557 346.578 325.347 346.918 325.067 347.158C324.787 347.398 324.477 347.518 324.107 347.508C323.737 347.508 323.427 347.388 323.147 347.158C322.867 346.918 322.657 346.578 322.517 346.138C322.367 345.698 322.297 345.178 322.297 344.598C322.297 344.018 322.367 343.498 322.517 343.058C322.667 342.618 322.877 342.278 323.147 342.038C323.417 341.798 323.737 341.678 324.107 341.678ZM324.107 342.238C323.857 342.238 323.637 342.338 323.457 342.528C323.277 342.718 323.127 342.998 323.027 343.348C322.927 343.698 322.877 344.108 322.877 344.578C322.877 345.038 322.927 345.448 323.027 345.808C323.127 346.158 323.277 346.438 323.457 346.638C323.637 346.838 323.867 346.928 324.107 346.928C324.347 346.928 324.577 346.828 324.767 346.638C324.957 346.448 325.097 346.168 325.207 345.808C325.307 345.448 325.357 345.038 325.357 344.578C325.357 344.118 325.307 343.698 325.207 343.348C325.107 342.998 324.957 342.718 324.767 342.528C324.577 342.328 324.357 342.238 324.107 342.238ZM327.377 344.288V344.798H325.677V344.288H327.377ZM327.747 341.118V348.988H327.157V341.118H327.747ZM329.437 340.918V349.428H328.847V340.918H329.437Z" fill="#666464"/>
<path d="M332.979 341.598C333.389 341.598 333.749 341.718 334.069 341.968C334.389 342.218 334.629 342.548 334.809 342.998C334.989 343.448 335.079 343.958 335.079 344.548C335.079 345.138 334.989 345.648 334.809 346.098C334.629 346.538 334.379 346.888 334.069 347.128C333.759 347.368 333.389 347.488 332.979 347.488C332.569 347.488 332.199 347.368 331.879 347.128C331.559 346.888 331.309 346.548 331.139 346.098C330.959 345.658 330.879 345.138 330.879 344.548C330.879 343.958 330.969 343.438 331.139 342.998C331.309 342.558 331.559 342.208 331.879 341.968C332.199 341.728 332.569 341.608 332.979 341.598ZM332.979 342.138C332.679 342.138 332.419 342.238 332.189 342.448C331.959 342.648 331.779 342.938 331.649 343.298C331.519 343.658 331.459 344.078 331.459 344.548C331.459 345.018 331.519 345.428 331.649 345.798C331.779 346.168 331.959 346.448 332.189 346.648C332.419 346.848 332.679 346.948 332.979 346.948C333.279 346.948 333.539 346.848 333.769 346.648C333.999 346.448 334.179 346.158 334.309 345.798C334.439 345.438 334.499 345.018 334.499 344.548C334.499 344.078 334.439 343.668 334.309 343.298C334.179 342.938 333.999 342.648 333.769 342.448C333.539 342.248 333.269 342.138 332.979 342.138ZM337.409 344.228V344.738H334.869V344.228H337.409ZM337.729 340.918V349.438H337.129V340.918H337.729Z" fill="#666464"/>
<path d="M342.949 343.658L339.569 343.928L339.449 343.408L342.939 343.238V343.658H342.949ZM343.649 341.618C343.649 342.348 343.509 343.008 343.239 343.608C342.969 344.208 342.539 344.738 341.959 345.198C341.379 345.658 340.649 346.038 339.769 346.338L339.519 345.838C340.329 345.568 340.989 345.238 341.499 344.838C342.019 344.438 342.399 343.988 342.649 343.488C342.899 342.988 343.019 342.428 343.029 341.828V341.618H343.659H343.649ZM343.349 341.618V342.138H339.879V341.618H343.349ZM341.579 346.618V348.968H340.969V346.618H341.579ZM346.529 348.718V349.228H340.969V348.718H346.529ZM345.789 343.678V344.198H343.649V343.678H345.789ZM346.269 340.928V347.258H345.659V340.928H346.269Z" fill="#666464"/>
<path d="M357.947 345.017V345.537H350.188V345.017H357.947ZM354.057 346.357C354.667 346.357 355.187 346.417 355.617 346.537C356.047 346.657 356.388 346.827 356.628 347.057C356.868 347.287 356.977 347.557 356.977 347.877C356.977 348.197 356.858 348.477 356.628 348.697C356.398 348.927 356.058 349.097 355.628 349.217C355.188 349.337 354.667 349.397 354.057 349.397C353.447 349.397 352.927 349.337 352.487 349.217C352.047 349.097 351.717 348.927 351.477 348.697C351.247 348.467 351.128 348.197 351.128 347.877C351.128 347.557 351.247 347.277 351.477 347.057C351.707 346.837 352.047 346.657 352.487 346.537C352.927 346.417 353.447 346.357 354.057 346.357ZM356.967 341.297V341.817H351.777V343.867H351.177V341.297H356.967ZM357.027 343.627V344.137H351.177V343.627H357.027ZM354.057 346.847C353.587 346.847 353.177 346.887 352.827 346.977C352.477 347.057 352.217 347.177 352.027 347.337C351.837 347.497 351.747 347.677 351.747 347.887C351.747 348.097 351.837 348.287 352.027 348.437C352.217 348.587 352.477 348.707 352.827 348.787C353.177 348.867 353.587 348.907 354.057 348.907C354.527 348.907 354.937 348.867 355.287 348.787C355.637 348.707 355.897 348.587 356.087 348.437C356.277 348.287 356.368 348.097 356.378 347.887C356.378 347.677 356.277 347.487 356.087 347.337C355.897 347.177 355.637 347.057 355.287 346.977C354.937 346.897 354.527 346.847 354.057 346.847Z" fill="#666464"/>
<path d="M360.591 345.737C360.591 346.547 360.491 347.317 360.281 348.047C360.071 348.777 359.771 349.457 359.371 350.107H358.781C359.001 349.757 359.201 349.347 359.371 348.857C359.541 348.367 359.671 347.867 359.771 347.317C359.871 346.777 359.911 346.247 359.911 345.727C359.911 345.207 359.861 344.677 359.771 344.137C359.671 343.597 359.541 343.087 359.371 342.597C359.201 342.107 359.001 341.697 358.781 341.357H359.371C359.771 341.997 360.081 342.687 360.281 343.417C360.481 344.147 360.591 344.917 360.591 345.727V345.737Z" fill="#666464"/>
<path d="M22.9609 28.8477V290.508H352.031" stroke="#DDDDDD" stroke-width="1.05" stroke-miterlimit="10" stroke-linecap="round"/>
<path d="M0.179688 291.688V290.748L3.11969 287.778C3.46969 287.418 3.73969 287.118 3.92969 286.888C4.11969 286.658 4.25969 286.438 4.36969 286.218C4.46969 285.998 4.51969 285.768 4.51969 285.528C4.51969 285.258 4.44969 285.018 4.30969 284.808C4.16969 284.598 3.97969 284.438 3.74969 284.328C3.50969 284.218 3.23969 284.158 2.94969 284.158C2.65969 284.158 2.36969 284.218 2.13969 284.338C1.90969 284.458 1.72969 284.638 1.59969 284.868C1.46969 285.098 1.40969 285.358 1.40969 285.658H0.179688C0.179688 285.148 0.299688 284.698 0.539688 284.308C0.779688 283.918 1.10969 283.618 1.52969 283.398C1.94969 283.188 2.42969 283.078 2.96969 283.078C3.50969 283.078 3.97969 283.178 4.39969 283.388C4.81969 283.598 5.14969 283.888 5.37969 284.248C5.60969 284.608 5.73969 285.028 5.73969 285.478C5.73969 285.808 5.67969 286.118 5.54969 286.418C5.42969 286.718 5.21969 287.048 4.92969 287.418C4.63969 287.778 4.21969 288.228 3.68969 288.758L1.96969 290.508V290.568H5.87969V291.678H0.179688V291.688Z" fill="#545251"/>
<path d="M10.2684 291.828C9.61844 291.828 9.05844 291.658 8.58844 291.318C8.11844 290.978 7.76844 290.478 7.51844 289.818C7.27844 289.158 7.14844 288.378 7.14844 287.458C7.14844 286.538 7.26844 285.758 7.51844 285.108C7.76844 284.458 8.11844 283.958 8.58844 283.608C9.05844 283.268 9.60844 283.088 10.2584 283.088C10.9084 283.088 11.4684 283.258 11.9284 283.608C12.3984 283.958 12.7484 284.448 12.9984 285.108C13.2484 285.758 13.3684 286.538 13.3684 287.458C13.3684 288.378 13.2484 289.168 12.9984 289.818C12.7484 290.478 12.3984 290.978 11.9284 291.318C11.4584 291.658 10.8984 291.828 10.2484 291.828H10.2684ZM10.2684 290.718C10.6484 290.718 10.9784 290.598 11.2584 290.338C11.5284 290.088 11.7384 289.718 11.8884 289.228C12.0384 288.738 12.1084 288.148 12.1084 287.448C12.1084 286.748 12.0384 286.158 11.8884 285.668C11.7384 285.178 11.5284 284.808 11.2584 284.558C10.9884 284.308 10.6584 284.178 10.2784 284.178C9.89844 284.178 9.57844 284.308 9.29844 284.558C9.02844 284.808 8.81844 285.178 8.66844 285.668C8.51844 286.158 8.44844 286.748 8.44844 287.448C8.44844 288.148 8.51844 288.738 8.66844 289.228C8.80844 289.718 9.01844 290.088 9.29844 290.338C9.56844 290.588 9.89844 290.718 10.2784 290.718H10.2684Z" fill="#545251"/>
<path d="M18.7678 310.717V309.777L21.7078 306.807C22.0578 306.447 22.3278 306.147 22.5178 305.917C22.7078 305.687 22.8478 305.467 22.9478 305.247C23.0478 305.027 23.0978 304.797 23.0978 304.557C23.0978 304.287 23.0278 304.047 22.8878 303.837C22.7478 303.627 22.5578 303.467 22.3278 303.357C22.0878 303.247 21.8178 303.187 21.5278 303.187C21.2378 303.187 20.9478 303.247 20.7178 303.367C20.4878 303.487 20.3078 303.667 20.1778 303.897C20.0478 304.127 19.9878 304.387 19.9878 304.687H18.7578C18.7578 304.177 18.8778 303.727 19.1178 303.337C19.3578 302.947 19.6878 302.647 20.1078 302.427C20.5278 302.217 21.0078 302.107 21.5478 302.107C22.0878 302.107 22.5578 302.207 22.9778 302.417C23.3978 302.627 23.7278 302.917 23.9578 303.277C24.1878 303.637 24.3178 304.057 24.3178 304.507C24.3178 304.837 24.2578 305.147 24.1278 305.447C24.0078 305.747 23.7978 306.077 23.5078 306.447C23.2178 306.807 22.7978 307.257 22.2678 307.787L20.5478 309.537V309.597H24.4578V310.707H18.7578L18.7678 310.717Z" fill="#545251"/>
<path d="M28.8583 310.857C28.2083 310.857 27.6483 310.687 27.1783 310.347C26.7083 310.007 26.3583 309.507 26.1083 308.847C25.8683 308.187 25.7383 307.407 25.7383 306.487C25.7383 305.567 25.8583 304.787 26.1083 304.137C26.3583 303.487 26.7083 302.987 27.1783 302.637C27.6483 302.287 28.1983 302.117 28.8483 302.117C29.4983 302.117 30.0583 302.287 30.5183 302.637C30.9883 302.987 31.3383 303.477 31.5883 304.137C31.8383 304.787 31.9583 305.567 31.9583 306.487C31.9583 307.407 31.8383 308.197 31.5883 308.847C31.3383 309.507 30.9883 310.007 30.5183 310.347C30.0483 310.687 29.4883 310.857 28.8383 310.857H28.8583ZM28.8583 309.747C29.2383 309.747 29.5683 309.627 29.8483 309.367C30.1183 309.117 30.3283 308.747 30.4783 308.257C30.6283 307.767 30.6983 307.177 30.6983 306.477C30.6983 305.777 30.6283 305.187 30.4783 304.697C30.3283 304.207 30.1183 303.837 29.8483 303.587C29.5783 303.337 29.2483 303.207 28.8683 303.207C28.4883 303.207 28.1683 303.337 27.8883 303.587C27.6183 303.837 27.4083 304.207 27.2583 304.697C27.1083 305.187 27.0383 305.777 27.0383 306.477C27.0383 307.177 27.1083 307.767 27.2583 308.257C27.4083 308.747 27.6083 309.117 27.8883 309.367C28.1583 309.617 28.4883 309.747 28.8683 309.747H28.8583Z" fill="#545251"/>
<path d="M72.7991 310.717V309.777L75.7391 306.807C76.0891 306.447 76.3591 306.147 76.5491 305.917C76.7391 305.687 76.8791 305.467 76.9791 305.247C77.0791 305.027 77.1291 304.797 77.1291 304.557C77.1291 304.287 77.0591 304.047 76.9191 303.837C76.7791 303.627 76.5891 303.467 76.3591 303.357C76.1191 303.247 75.8491 303.187 75.5591 303.187C75.2691 303.187 74.9791 303.247 74.7491 303.367C74.5191 303.487 74.3391 303.667 74.2091 303.897C74.0791 304.127 74.0191 304.387 74.0191 304.687H72.7891C72.7891 304.177 72.9091 303.727 73.1491 303.337C73.3891 302.947 73.7191 302.647 74.1391 302.427C74.5591 302.217 75.0391 302.107 75.5791 302.107C76.1191 302.107 76.5891 302.207 77.0091 302.417C77.4291 302.627 77.7591 302.917 77.9891 303.277C78.2191 303.637 78.3491 304.057 78.3491 304.507C78.3491 304.837 78.2891 305.147 78.1591 305.447C78.0391 305.747 77.8291 306.077 77.5391 306.447C77.2491 306.807 76.8291 307.257 76.2991 307.787L74.5791 309.537V309.597H78.4891V310.707H72.7891L72.7991 310.717Z" fill="#545251"/>
<path d="M79.9375 310.717V309.777L82.8775 306.807C83.2275 306.447 83.4975 306.147 83.6875 305.917C83.8775 305.687 84.0175 305.467 84.1275 305.247C84.2275 305.027 84.2775 304.797 84.2775 304.557C84.2775 304.287 84.2075 304.047 84.0675 303.837C83.9275 303.627 83.7375 303.467 83.5075 303.357C83.2675 303.247 82.9975 303.187 82.7075 303.187C82.4175 303.187 82.1275 303.247 81.8975 303.367C81.6675 303.487 81.4875 303.667 81.3575 303.897C81.2275 304.127 81.1675 304.387 81.1675 304.687H79.9375C79.9375 304.177 80.0575 303.727 80.2975 303.337C80.5375 302.947 80.8675 302.647 81.2875 302.427C81.7075 302.217 82.1875 302.107 82.7275 302.107C83.2675 302.107 83.7375 302.207 84.1575 302.417C84.5775 302.627 84.9075 302.917 85.1375 303.277C85.3675 303.637 85.4975 304.057 85.4975 304.507C85.4975 304.837 85.4375 305.147 85.3075 305.447C85.1875 305.747 84.9775 306.077 84.6875 306.447C84.3975 306.807 83.9775 307.257 83.4475 307.787L81.7275 309.537V309.597H85.6375V310.707H79.9375V310.717Z" fill="#545251"/>
<path d="M347.351 310.837C346.771 310.837 346.261 310.737 345.801 310.547C345.341 310.347 344.981 310.077 344.721 309.727C344.461 309.377 344.321 308.967 344.301 308.507H345.601C345.611 308.747 345.701 308.967 345.851 309.147C346.011 309.337 346.211 309.477 346.471 309.577C346.731 309.677 347.011 309.727 347.331 309.727C347.671 309.727 347.971 309.667 348.241 309.557C348.511 309.447 348.721 309.277 348.871 309.067C349.021 308.857 349.101 308.617 349.091 308.347C349.091 308.067 349.021 307.817 348.871 307.597C348.721 307.377 348.501 307.207 348.211 307.087C347.921 306.967 347.581 306.907 347.181 306.907H346.461V305.857H347.181C347.501 305.857 347.781 305.797 348.031 305.687C348.281 305.577 348.471 305.417 348.611 305.217C348.751 305.017 348.821 304.777 348.821 304.507C348.821 304.237 348.761 304.027 348.641 303.827C348.521 303.627 348.351 303.477 348.121 303.367C347.901 303.257 347.641 303.207 347.341 303.207C347.041 303.207 346.791 303.257 346.541 303.357C346.291 303.457 346.091 303.597 345.941 303.787C345.791 303.977 345.701 304.197 345.691 304.437H344.451C344.461 303.987 344.601 303.587 344.861 303.227C345.121 302.877 345.471 302.597 345.901 302.407C346.341 302.217 346.821 302.117 347.351 302.117C347.881 302.117 348.371 302.217 348.781 302.427C349.191 302.637 349.511 302.917 349.731 303.267C349.951 303.617 350.061 304.007 350.061 304.427C350.061 304.737 350.001 305.027 349.881 305.277C349.761 305.537 349.581 305.747 349.361 305.927C349.141 306.107 348.871 306.227 348.571 306.297V306.367C348.951 306.417 349.281 306.537 349.551 306.727C349.821 306.907 350.031 307.147 350.181 307.427C350.331 307.707 350.391 308.027 350.391 308.387C350.391 308.847 350.261 309.267 350.001 309.637C349.741 310.007 349.371 310.307 348.901 310.517C348.431 310.727 347.911 310.837 347.331 310.837H347.351Z" fill="#545251"/>
<path d="M351.83 310.717V309.777L354.77 306.807C355.12 306.447 355.39 306.147 355.58 305.917C355.77 305.687 355.91 305.467 356.01 305.247C356.11 305.027 356.16 304.797 356.16 304.557C356.16 304.287 356.09 304.047 355.95 303.837C355.81 303.627 355.62 303.467 355.39 303.357C355.15 303.247 354.88 303.187 354.59 303.187C354.3 303.187 354.01 303.247 353.78 303.367C353.55 303.487 353.37 303.667 353.24 303.897C353.11 304.127 353.05 304.387 353.05 304.687H351.82C351.82 304.177 351.94 303.727 352.18 303.337C352.42 302.947 352.75 302.647 353.18 302.427C353.6 302.217 354.08 302.107 354.62 302.107C355.16 302.107 355.63 302.207 356.05 302.417C356.47 302.627 356.8 302.917 357.03 303.277C357.26 303.637 357.39 304.057 357.39 304.507C357.39 304.837 357.32 305.147 357.2 305.447C357.08 305.747 356.87 306.077 356.58 306.437C356.29 306.797 355.87 307.247 355.34 307.777L353.62 309.527V309.587H357.53V310.697H351.83V310.717Z" fill="#545251"/>
<path d="M128.27 310.717V309.777L131.21 306.807C131.56 306.447 131.83 306.147 132.02 305.917C132.21 305.687 132.35 305.467 132.46 305.247C132.56 305.027 132.61 304.797 132.61 304.557C132.61 304.287 132.54 304.047 132.4 303.837C132.26 303.627 132.07 303.467 131.84 303.357C131.6 303.247 131.33 303.187 131.04 303.187C130.75 303.187 130.46 303.247 130.23 303.367C130 303.487 129.82 303.667 129.69 303.897C129.56 304.127 129.5 304.387 129.5 304.687H128.27C128.27 304.177 128.39 303.727 128.63 303.337C128.87 302.947 129.2 302.647 129.62 302.427C130.04 302.217 130.52 302.107 131.06 302.107C131.6 302.107 132.07 302.207 132.49 302.417C132.91 302.627 133.24 302.917 133.47 303.277C133.7 303.637 133.83 304.057 133.83 304.507C133.83 304.837 133.77 305.147 133.64 305.447C133.52 305.747 133.31 306.077 133.02 306.437C132.73 306.797 132.31 307.247 131.78 307.777L130.06 309.527V309.587H133.97V310.697H128.27V310.717Z" fill="#545251"/>
<path d="M135.051 309.067V308.027L138.801 302.237H139.621V303.767H139.091L136.411 307.907V307.977H141.561V309.067H135.061H135.051ZM139.161 310.717V308.267V302.227H140.381V310.717H139.151H139.161Z" fill="#545251"/>
<path d="M179.34 310.717V309.777L182.19 306.807C182.53 306.437 182.79 306.147 182.98 305.917C183.16 305.687 183.3 305.467 183.4 305.247C183.5 305.027 183.55 304.797 183.55 304.557C183.55 304.287 183.48 304.047 183.35 303.837C183.22 303.627 183.03 303.467 182.8 303.357C182.57 303.247 182.31 303.187 182.02 303.187C181.73 303.187 181.46 303.247 181.23 303.367C181.01 303.487 180.83 303.667 180.71 303.897C180.59 304.127 180.53 304.387 180.53 304.687H179.34C179.34 304.177 179.46 303.727 179.69 303.337C179.92 302.947 180.24 302.647 180.65 302.427C181.06 302.217 181.53 302.107 182.05 302.107C182.57 302.107 183.03 302.207 183.44 302.417C183.85 302.627 184.16 302.917 184.39 303.277C184.62 303.647 184.73 304.057 184.74 304.517C184.74 304.847 184.68 305.157 184.56 305.457C184.44 305.757 184.24 306.087 183.96 306.447C183.68 306.807 183.28 307.257 182.76 307.787L181.09 309.537V309.597H184.88V310.707H179.36L179.34 310.717Z" fill="#545251"/>
<path d="M189.229 310.837C188.669 310.837 188.159 310.697 187.699 310.437C187.239 310.177 186.859 309.747 186.569 309.147C186.279 308.537 186.129 307.747 186.129 306.757C186.129 305.767 186.259 304.947 186.519 304.257C186.779 303.557 187.149 303.037 187.629 302.667C188.109 302.307 188.679 302.117 189.339 302.117C189.839 302.117 190.279 302.217 190.679 302.417C191.079 302.617 191.399 302.887 191.639 303.237C191.889 303.587 192.039 303.987 192.099 304.437H190.869C190.809 304.207 190.709 303.997 190.579 303.817C190.439 303.637 190.269 303.497 190.059 303.397C189.849 303.297 189.609 303.247 189.339 303.247C188.919 303.247 188.559 303.367 188.259 303.617C187.959 303.857 187.729 304.217 187.569 304.667C187.409 305.127 187.339 305.667 187.339 306.307H187.429C187.579 306.067 187.759 305.857 187.969 305.687C188.189 305.517 188.429 305.387 188.689 305.297C188.949 305.207 189.239 305.167 189.529 305.167C190.009 305.167 190.459 305.287 190.859 305.527C191.269 305.767 191.579 306.097 191.819 306.517C192.049 306.947 192.169 307.417 192.169 307.947C192.169 308.477 192.049 308.987 191.799 309.427C191.549 309.867 191.209 310.217 190.759 310.467C190.309 310.717 189.799 310.837 189.219 310.837H189.229ZM189.219 309.757C189.539 309.757 189.839 309.677 190.099 309.517C190.359 309.357 190.569 309.137 190.729 308.867C190.889 308.597 190.959 308.297 190.959 307.967C190.959 307.637 190.889 307.347 190.739 307.087C190.589 306.817 190.389 306.607 190.129 306.447C189.869 306.287 189.579 306.207 189.249 306.207C188.919 306.207 188.629 306.287 188.359 306.457C188.089 306.627 187.879 306.837 187.719 307.117C187.559 307.387 187.479 307.677 187.479 307.997C187.479 308.307 187.559 308.597 187.709 308.877C187.859 309.147 188.069 309.367 188.339 309.527C188.609 309.687 188.899 309.767 189.229 309.767L189.219 309.757Z" fill="#545251"/>
<path d="M236.328 310.717V309.777L239.268 306.807C239.618 306.437 239.888 306.147 240.078 305.917C240.268 305.687 240.408 305.467 240.518 305.247C240.618 305.027 240.668 304.797 240.668 304.557C240.668 304.287 240.598 304.047 240.458 303.837C240.318 303.627 240.128 303.467 239.898 303.357C239.658 303.247 239.398 303.187 239.098 303.187C238.798 303.187 238.518 303.247 238.288 303.367C238.058 303.487 237.878 303.667 237.748 303.897C237.618 304.127 237.558 304.387 237.558 304.687H236.328C236.328 304.177 236.448 303.727 236.688 303.337C236.928 302.947 237.258 302.647 237.678 302.427C238.098 302.217 238.578 302.107 239.118 302.107C239.658 302.107 240.128 302.207 240.548 302.417C240.968 302.627 241.298 302.917 241.528 303.277C241.768 303.647 241.888 304.057 241.888 304.517C241.888 304.847 241.828 305.157 241.698 305.457C241.578 305.757 241.368 306.087 241.078 306.447C240.788 306.817 240.368 307.257 239.838 307.787L238.118 309.537V309.597H242.028V310.707H236.328V310.717Z" fill="#545251"/>
<path d="M246.429 310.837C245.819 310.837 245.279 310.737 244.809 310.527C244.329 310.327 243.969 310.037 243.699 309.677C243.439 309.317 243.309 308.907 243.309 308.457C243.309 308.107 243.379 307.777 243.539 307.467C243.689 307.157 243.909 306.907 244.179 306.707C244.449 306.507 244.749 306.377 245.079 306.327V306.277C244.789 306.217 244.539 306.087 244.319 305.907C244.099 305.727 243.929 305.507 243.809 305.237C243.689 304.977 243.629 304.687 243.629 304.377C243.629 303.947 243.749 303.567 243.989 303.217C244.229 302.867 244.569 302.597 244.989 302.407C245.419 302.217 245.899 302.117 246.429 302.117C246.959 302.117 247.429 302.217 247.849 302.407C248.269 302.607 248.609 302.867 248.849 303.217C249.089 303.567 249.209 303.947 249.209 304.377C249.209 304.687 249.149 304.967 249.029 305.237C248.909 305.507 248.739 305.727 248.519 305.907C248.299 306.087 248.049 306.207 247.769 306.277V306.327C248.099 306.377 248.389 306.507 248.659 306.707C248.929 306.907 249.139 307.167 249.299 307.467C249.459 307.777 249.539 308.107 249.539 308.457C249.539 308.917 249.399 309.317 249.129 309.677C248.859 310.037 248.489 310.317 248.019 310.527C247.549 310.727 247.009 310.837 246.419 310.837H246.429ZM246.429 309.787C246.789 309.787 247.109 309.727 247.379 309.607C247.649 309.487 247.859 309.327 248.009 309.107C248.159 308.897 248.229 308.647 248.229 308.367C248.229 308.087 248.149 307.827 247.999 307.597C247.849 307.367 247.629 307.187 247.349 307.057C247.079 306.927 246.769 306.857 246.419 306.857C246.069 306.857 245.759 306.927 245.489 307.057C245.209 307.187 244.999 307.367 244.839 307.597C244.679 307.827 244.609 308.087 244.619 308.367C244.619 308.647 244.679 308.897 244.829 309.107C244.979 309.317 245.189 309.487 245.459 309.607C245.739 309.727 246.059 309.787 246.419 309.787H246.429ZM246.429 305.837C246.719 305.837 246.989 305.777 247.219 305.667C247.449 305.547 247.639 305.397 247.769 305.187C247.899 304.977 247.969 304.747 247.969 304.487C247.969 304.227 247.909 303.997 247.779 303.797C247.649 303.597 247.469 303.437 247.239 303.327C247.009 303.217 246.739 303.157 246.439 303.157C246.139 303.157 245.859 303.217 245.629 303.327C245.399 303.437 245.219 303.597 245.089 303.797C244.959 303.997 244.899 304.227 244.899 304.487C244.899 304.747 244.969 304.987 245.099 305.187C245.229 305.387 245.409 305.547 245.649 305.667C245.879 305.777 246.149 305.837 246.449 305.837H246.429Z" fill="#545251"/>
<path d="M290.307 310.837C289.747 310.837 289.247 310.737 288.807 310.547C288.367 310.347 288.017 310.077 287.767 309.727C287.517 309.377 287.377 308.967 287.367 308.507H288.627C288.637 308.747 288.717 308.967 288.867 309.147C289.017 309.327 289.217 309.477 289.467 309.577C289.717 309.677 289.997 309.727 290.297 309.727C290.627 309.727 290.917 309.667 291.177 309.557C291.437 309.437 291.637 309.277 291.787 309.067C291.937 308.857 292.007 308.617 292.007 308.347C292.007 308.067 291.937 307.817 291.797 307.597C291.647 307.377 291.437 307.207 291.157 307.087C290.877 306.967 290.547 306.907 290.157 306.907H289.457V305.857H290.157C290.467 305.857 290.737 305.797 290.987 305.687C291.237 305.577 291.417 305.417 291.547 305.217C291.677 305.017 291.747 304.777 291.747 304.507C291.747 304.237 291.687 304.027 291.577 303.827C291.467 303.627 291.297 303.477 291.077 303.367C290.857 303.257 290.607 303.207 290.327 303.207C290.047 303.207 289.787 303.257 289.557 303.357C289.317 303.457 289.127 303.607 288.977 303.787C288.827 303.977 288.747 304.197 288.737 304.437H287.537C287.547 303.987 287.687 303.587 287.927 303.227C288.177 302.877 288.517 302.597 288.937 302.407C289.357 302.217 289.827 302.117 290.337 302.117C290.847 302.117 291.317 302.217 291.717 302.427C292.117 302.637 292.417 302.917 292.637 303.267C292.857 303.617 292.957 304.007 292.957 304.427C292.957 304.737 292.897 305.027 292.777 305.277C292.657 305.527 292.487 305.747 292.267 305.927C292.047 306.107 291.797 306.227 291.497 306.297V306.367C291.867 306.427 292.177 306.537 292.447 306.727C292.707 306.907 292.917 307.147 293.047 307.427C293.177 307.707 293.257 308.027 293.247 308.387C293.247 308.847 293.127 309.267 292.867 309.637C292.607 310.007 292.257 310.307 291.807 310.517C291.357 310.727 290.847 310.837 290.287 310.837H290.307Z" fill="#545251"/>
<path d="M297.488 310.857C296.858 310.857 296.318 310.687 295.868 310.347C295.418 310.007 295.068 309.507 294.838 308.847C294.608 308.187 294.488 307.407 294.488 306.487C294.488 305.567 294.608 304.787 294.848 304.137C295.088 303.487 295.428 302.987 295.888 302.637C296.338 302.297 296.878 302.117 297.498 302.117C298.118 302.117 298.668 302.287 299.118 302.637C299.568 302.977 299.918 303.477 300.158 304.137C300.398 304.787 300.518 305.577 300.518 306.487C300.518 307.397 300.398 308.197 300.158 308.847C299.918 309.497 299.578 310.007 299.128 310.347C298.678 310.687 298.138 310.857 297.508 310.857H297.488ZM297.488 309.747C297.858 309.747 298.178 309.617 298.438 309.367C298.698 309.117 298.908 308.747 299.048 308.257C299.188 307.767 299.258 307.177 299.258 306.477C299.258 305.777 299.188 305.187 299.048 304.697C298.908 304.207 298.708 303.837 298.438 303.587C298.178 303.337 297.858 303.207 297.488 303.207C297.118 303.207 296.808 303.337 296.538 303.587C296.278 303.837 296.068 304.207 295.928 304.697C295.788 305.187 295.718 305.777 295.718 306.477C295.718 307.177 295.788 307.767 295.928 308.257C296.068 308.747 296.268 309.117 296.538 309.367C296.808 309.617 297.118 309.747 297.488 309.747Z" fill="#545251"/>
<g opacity="0.4">
<path opacity="0.5" d="M23.6094 154.947H352.029" stroke="#172A88" stroke-opacity="0.5" stroke-width="0.5" stroke-miterlimit="10" stroke-linecap="round"/>
<path opacity="0.32" d="M23.6094 31.0469H352.029" stroke="#172A88" stroke-width="0.5" stroke-miterlimit="10" stroke-linecap="round"/>
<path opacity="0.32" d="M23.6094 90.0078H351.699" stroke="#172A88" stroke-width="0.5" stroke-miterlimit="10" stroke-linecap="round"/>
<path opacity="0.25" d="M23.6094 219.887H352.029" stroke="#172A88" stroke-width="0.5" stroke-miterlimit="10" stroke-linecap="round"/>
<path opacity="0.5" d="M188.199 32.1973V289.747" stroke="#172A88" stroke-opacity="0.5" stroke-width="0.5" stroke-miterlimit="10" stroke-linecap="round"/>
<path opacity="0.25" d="M242.809 32.1973V289.747" stroke="#172A88" stroke-width="0.5" stroke-miterlimit="10" stroke-linecap="round"/>
<path opacity="0.25" d="M297.418 32.1973V289.747" stroke="#172A88" stroke-width="0.5" stroke-miterlimit="10" stroke-linecap="round"/>
<path opacity="0.32" d="M352.031 32.1973V289.747" stroke="#172A88" stroke-width="0.5" stroke-miterlimit="10" stroke-linecap="round"/>
<path opacity="0.25" d="M78.9805 32.1973V289.747" stroke="#172A88" stroke-width="0.5" stroke-miterlimit="10" stroke-linecap="round"/>
<path opacity="0.25" d="M133.59 32.1973V289.747" stroke="#172A88" stroke-width="0.5" stroke-miterlimit="10" stroke-linecap="round"/>
</g>
<path d="M3.19062 159.247C2.61063 159.247 2.10063 159.147 1.64062 158.957C1.18062 158.757 0.820625 158.487 0.560625 158.137C0.300625 157.787 0.160625 157.377 0.140625 156.917H1.45062C1.46062 157.157 1.55062 157.377 1.70062 157.557C1.85062 157.737 2.06063 157.887 2.32063 157.987C2.58063 158.087 2.86063 158.137 3.18062 158.137C3.52062 158.137 3.82062 158.077 4.09062 157.967C4.36062 157.847 4.57062 157.687 4.72062 157.477C4.87063 157.267 4.95063 157.027 4.94063 156.757C4.94063 156.477 4.87063 156.227 4.72062 156.007C4.57062 155.787 4.35063 155.617 4.06063 155.497C3.77063 155.377 3.43062 155.317 3.03062 155.317H2.31063V154.267H3.03062C3.35062 154.267 3.63062 154.207 3.88062 154.097C4.13062 153.987 4.32063 153.827 4.46063 153.627C4.60063 153.427 4.67062 153.187 4.67062 152.917C4.67062 152.647 4.61062 152.437 4.49062 152.237C4.37063 152.037 4.20062 151.887 3.97062 151.777C3.75062 151.667 3.49062 151.617 3.19062 151.617C2.89062 151.617 2.64062 151.667 2.39062 151.767C2.14062 151.867 1.94062 152.017 1.79062 152.197C1.64062 152.377 1.55062 152.607 1.54062 152.847H0.320625C0.330625 152.397 0.470625 151.997 0.730625 151.637C0.990625 151.277 1.34062 151.007 1.77062 150.817C2.21062 150.627 2.69062 150.527 3.22062 150.527C3.75062 150.527 4.24062 150.627 4.65062 150.837C5.06062 151.047 5.38063 151.327 5.60063 151.677C5.82062 152.027 5.93062 152.417 5.93062 152.837C5.93062 153.147 5.87063 153.437 5.75063 153.687C5.63063 153.937 5.45062 154.157 5.23063 154.337C5.01063 154.517 4.74063 154.637 4.44063 154.707V154.777C4.82063 154.837 5.15062 154.947 5.42062 155.137C5.69062 155.317 5.90062 155.557 6.05062 155.837C6.20062 156.117 6.26062 156.437 6.26062 156.797C6.26062 157.257 6.13062 157.677 5.87063 158.047C5.61063 158.417 5.24062 158.717 4.77063 158.927C4.30063 159.137 3.78062 159.247 3.20062 159.247H3.19062Z" fill="#545251"/>
<path d="M10.62 159.267C9.97 159.267 9.41 159.097 8.94 158.757C8.47 158.417 8.12 157.917 7.87 157.257C7.62 156.597 7.5 155.817 7.5 154.897C7.5 153.977 7.62 153.197 7.87 152.547C8.12 151.897 8.47 151.397 8.94 151.047C9.41 150.707 9.96 150.527 10.61 150.527C11.26 150.527 11.82 150.697 12.28 151.047C12.75 151.387 13.1 151.887 13.35 152.547C13.6 153.197 13.72 153.987 13.72 154.897C13.72 155.807 13.6 156.607 13.35 157.257C13.1 157.917 12.75 158.417 12.28 158.757C11.81 159.097 11.25 159.267 10.6 159.267H10.62ZM10.62 158.157C11 158.157 11.33 158.027 11.61 157.777C11.88 157.527 12.09 157.157 12.24 156.667C12.39 156.177 12.46 155.587 12.46 154.887C12.46 154.187 12.39 153.597 12.24 153.107C12.09 152.617 11.88 152.247 11.61 151.997C11.34 151.747 11.01 151.617 10.63 151.617C10.25 151.617 9.93 151.747 9.65 151.997C9.38 152.247 9.17 152.617 9.02 153.107C8.87 153.597 8.8 154.187 8.8 154.887C8.8 155.587 8.87 156.177 9.02 156.667C9.16 157.157 9.37 157.527 9.65 157.777C9.92 158.027 10.25 158.157 10.63 158.157H10.62Z" fill="#545251"/>
<path d="M0.660156 226.907V225.967L3.60016 222.997C3.95016 222.627 4.22016 222.337 4.41016 222.107C4.60016 221.877 4.74016 221.657 4.85016 221.437C4.95016 221.217 5.00016 220.987 5.00016 220.747C5.00016 220.477 4.93016 220.237 4.79016 220.027C4.65016 219.817 4.46016 219.657 4.23016 219.547C3.99016 219.437 3.72016 219.377 3.43016 219.377C3.14016 219.377 2.85016 219.437 2.62016 219.557C2.39016 219.677 2.21016 219.857 2.08016 220.087C1.95016 220.317 1.89016 220.577 1.89016 220.877H0.660156C0.660156 220.367 0.780156 219.917 1.02016 219.527C1.26016 219.137 1.59016 218.837 2.01016 218.617C2.43016 218.407 2.91016 218.297 3.45016 218.297C3.99016 218.297 4.46016 218.397 4.88016 218.607C5.30016 218.817 5.63016 219.107 5.86016 219.467C6.10016 219.837 6.22016 220.247 6.22016 220.707C6.22016 221.037 6.16016 221.347 6.03016 221.647C5.91016 221.947 5.70016 222.277 5.41016 222.637C5.12016 222.997 4.70016 223.447 4.17016 223.977L2.45016 225.727V225.787H6.36016V226.897H0.660156V226.907Z" fill="#545251"/>
<path d="M10.6808 227.026C10.1508 227.026 9.67078 226.926 9.24078 226.726C8.81078 226.526 8.47078 226.246 8.21078 225.896C7.96078 225.546 7.82078 225.146 7.80078 224.696H9.06078C9.08078 224.936 9.16078 225.146 9.31078 225.336C9.46078 225.526 9.65078 225.676 9.89078 225.786C10.1308 225.896 10.3908 225.946 10.6708 225.946C11.0108 225.946 11.3108 225.866 11.5808 225.716C11.8508 225.566 12.0608 225.356 12.2108 225.086C12.3608 224.826 12.4408 224.526 12.4408 224.186C12.4408 223.846 12.3608 223.546 12.2108 223.276C12.0508 223.006 11.8408 222.786 11.5608 222.636C11.2808 222.486 10.9708 222.406 10.6208 222.396C10.2708 222.396 9.97078 222.456 9.71078 222.576C9.46078 222.696 9.26078 222.886 9.12078 223.146H7.91078L8.47078 218.426H13.2808V219.536H9.54078L9.25078 221.906H9.33078C9.45078 221.796 9.59078 221.696 9.76078 221.616C9.93078 221.536 10.1108 221.466 10.3108 221.416C10.5108 221.366 10.7108 221.346 10.9308 221.346C11.4608 221.346 11.9308 221.466 12.3608 221.706C12.7808 221.946 13.1108 222.286 13.3508 222.716C13.5908 223.146 13.7108 223.636 13.7108 224.166C13.7108 224.696 13.5808 225.206 13.3208 225.636C13.0608 226.076 12.7108 226.416 12.2508 226.656C11.7908 226.906 11.2708 227.026 10.6908 227.026H10.6808Z" fill="#545251"/>
<path d="M3.96875 180.958V180.258L6.16875 178.028C6.43875 177.758 6.63875 177.528 6.77875 177.358C6.91875 177.188 7.02875 177.018 7.10875 176.858C7.18875 176.698 7.21875 176.528 7.21875 176.348C7.21875 176.138 7.16875 175.968 7.05875 175.808C6.95875 175.648 6.81875 175.528 6.63875 175.448C6.45875 175.368 6.25875 175.318 6.03875 175.318C5.81875 175.318 5.59875 175.368 5.42875 175.458C5.25875 175.548 5.11875 175.678 5.02875 175.848C4.93875 176.018 4.88875 176.218 4.88875 176.438H3.96875C3.96875 176.058 4.05875 175.718 4.23875 175.428C4.41875 175.138 4.66875 174.908 4.98875 174.748C5.30875 174.588 5.66875 174.508 6.06875 174.508C6.46875 174.508 6.82875 174.588 7.14875 174.738C7.45875 174.898 7.70875 175.108 7.88875 175.388C8.06875 175.668 8.15875 175.968 8.15875 176.318C8.15875 176.558 8.10875 176.798 8.01875 177.018C7.92875 177.238 7.76875 177.488 7.55875 177.768C7.33875 178.038 7.02875 178.378 6.62875 178.768L5.33875 180.088V180.138H8.26875V180.968H3.98875L3.96875 180.958Z" fill="#9E9E9E"/>
<path d="M11.5399 181.048C11.0899 181.048 10.6799 180.968 10.3199 180.818C9.9599 180.668 9.6899 180.448 9.4899 180.178C9.2899 179.908 9.1899 179.598 9.1999 179.258C9.1999 178.998 9.2599 178.748 9.3699 178.518C9.4899 178.288 9.6499 178.098 9.8499 177.948C10.0499 177.798 10.2799 177.698 10.5299 177.658V177.628C10.3199 177.578 10.1299 177.488 9.9599 177.358C9.7999 177.218 9.6699 177.058 9.5799 176.858C9.4899 176.658 9.4399 176.448 9.4399 176.218C9.4399 175.898 9.5299 175.608 9.7099 175.348C9.8899 175.088 10.1399 174.888 10.4599 174.738C10.7799 174.588 11.1399 174.518 11.5399 174.518C11.9399 174.518 12.2899 174.588 12.6099 174.738C12.9299 174.888 13.1799 175.088 13.3599 175.348C13.5399 175.608 13.6299 175.898 13.6299 176.218C13.6299 176.448 13.5799 176.658 13.4899 176.858C13.3999 177.058 13.2699 177.228 13.1099 177.358C12.9499 177.488 12.7599 177.588 12.5499 177.628V177.658C12.7899 177.698 13.0199 177.788 13.2199 177.948C13.4199 178.098 13.5799 178.288 13.6999 178.518C13.8199 178.748 13.8799 178.998 13.8799 179.258C13.8799 179.598 13.7799 179.908 13.5799 180.178C13.3799 180.448 13.0999 180.658 12.7499 180.818C12.3999 180.968 11.9899 181.048 11.5499 181.048H11.5399ZM11.5399 180.258C11.8099 180.258 12.0499 180.218 12.2499 180.128C12.4499 180.038 12.6099 179.918 12.7199 179.758C12.8299 179.598 12.8899 179.408 12.8899 179.208C12.8899 179.008 12.8299 178.798 12.7099 178.628C12.5899 178.458 12.4299 178.318 12.2299 178.228C12.0199 178.128 11.7899 178.078 11.5399 178.078C11.2899 178.078 11.0499 178.128 10.8399 178.228C10.6299 178.328 10.4699 178.458 10.3499 178.638C10.2299 178.808 10.1799 178.998 10.1799 179.218C10.1799 179.428 10.2299 179.608 10.3399 179.768C10.4499 179.928 10.6099 180.048 10.8099 180.138C11.0199 180.228 11.2599 180.268 11.5299 180.268L11.5399 180.258ZM11.5399 177.298C11.7599 177.298 11.9599 177.258 12.1299 177.168C12.3099 177.078 12.4399 176.958 12.5399 176.808C12.6399 176.658 12.6899 176.478 12.6899 176.288C12.6899 176.098 12.6399 175.918 12.5499 175.768C12.4499 175.618 12.3199 175.498 12.1399 175.418C11.9599 175.338 11.7699 175.298 11.5399 175.298C11.3099 175.298 11.1099 175.338 10.9299 175.418C10.7599 175.498 10.6199 175.618 10.5199 175.768C10.4199 175.918 10.3799 176.088 10.3799 176.288C10.3799 176.488 10.4299 176.658 10.5299 176.808C10.6299 176.958 10.7699 177.078 10.9399 177.168C11.1099 177.258 11.3099 177.298 11.5399 177.298Z" fill="#9E9E9E"/>
<path d="M7.49094 137.456C7.06094 137.456 6.67094 137.386 6.33094 137.236C5.99094 137.086 5.72094 136.886 5.52094 136.616C5.32094 136.356 5.22094 136.046 5.21094 135.706H6.19094C6.20094 135.886 6.26094 136.046 6.38094 136.186C6.50094 136.326 6.65094 136.436 6.84094 136.506C7.03094 136.586 7.25094 136.616 7.49094 136.616C7.74094 136.616 7.97094 136.576 8.18094 136.486C8.39094 136.396 8.54094 136.276 8.65094 136.116C8.76094 135.956 8.82094 135.776 8.82094 135.576C8.82094 135.366 8.77094 135.176 8.65094 135.016C8.54094 134.856 8.37094 134.726 8.16094 134.636C7.94094 134.546 7.69094 134.496 7.39094 134.496H6.85094V133.706H7.39094C7.63094 133.706 7.84094 133.666 8.03094 133.576C8.22094 133.486 8.36094 133.376 8.47094 133.216C8.57094 133.066 8.63094 132.886 8.63094 132.686C8.63094 132.486 8.59094 132.326 8.49094 132.176C8.40094 132.026 8.27094 131.916 8.10094 131.836C7.93094 131.756 7.74094 131.716 7.52094 131.716C7.30094 131.716 7.10094 131.756 6.92094 131.826C6.74094 131.906 6.59094 132.006 6.47094 132.156C6.36094 132.296 6.29094 132.456 6.28094 132.646H5.35094C5.36094 132.306 5.46094 132.006 5.66094 131.746C5.85094 131.476 6.11094 131.276 6.44094 131.126C6.77094 130.976 7.13094 130.906 7.53094 130.906C7.93094 130.906 8.29094 130.986 8.60094 131.136C8.91094 131.286 9.15094 131.506 9.31094 131.766C9.48094 132.026 9.56094 132.316 9.56094 132.636C9.56094 132.866 9.52094 133.086 9.42094 133.276C9.32094 133.466 9.20094 133.626 9.03094 133.756C8.86094 133.886 8.66094 133.976 8.43094 134.036V134.086C8.72094 134.126 8.96094 134.216 9.17094 134.356C9.38094 134.496 9.53094 134.666 9.64094 134.886C9.75094 135.096 9.80094 135.336 9.80094 135.606C9.80094 135.956 9.70094 136.266 9.51094 136.546C9.31094 136.826 9.04094 137.046 8.69094 137.206C8.34094 137.366 7.95094 137.446 7.51094 137.446L7.49094 137.456Z" fill="#9E9E9E"/>
<path d="M13.2722 131.006V137.366H12.3022V131.966H12.2622L10.7422 132.956V132.036L12.3222 130.996H13.2622L13.2722 131.006Z" fill="#9E9E9E"/>
<path d="M3.30781 97.4661C2.72781 97.4661 2.21781 97.3661 1.75781 97.1761C1.29781 96.9761 0.937813 96.7061 0.677813 96.3561C0.417813 96.0061 0.277812 95.5961 0.257812 95.1361H1.56781C1.57781 95.3761 1.66781 95.5961 1.81781 95.7761C1.96781 95.9561 2.17781 96.1061 2.43781 96.2061C2.69781 96.3061 2.97781 96.3561 3.29781 96.3561C3.63781 96.3561 3.93781 96.2961 4.20781 96.1861C4.47781 96.0661 4.68781 95.9061 4.83781 95.6961C4.98781 95.4861 5.06781 95.2461 5.05781 94.9761C5.05781 94.6961 4.98781 94.4461 4.83781 94.2261C4.68781 94.0061 4.46781 93.8361 4.17781 93.7161C3.88781 93.5961 3.54781 93.5361 3.14781 93.5361H2.42781V92.4861H3.14781C3.46781 92.4861 3.74781 92.4261 3.99781 92.3161C4.24781 92.2061 4.43781 92.0461 4.57781 91.8461C4.71781 91.6461 4.78781 91.4061 4.78781 91.1361C4.78781 90.8661 4.72781 90.6561 4.60781 90.4561C4.48781 90.2561 4.31781 90.1061 4.08781 89.9961C3.86781 89.8861 3.60781 89.8361 3.30781 89.8361C3.00781 89.8361 2.75781 89.8861 2.50781 89.9861C2.25781 90.0861 2.05781 90.2361 1.90781 90.4161C1.75781 90.5961 1.66781 90.8261 1.65781 91.0661H0.417813C0.427813 90.6161 0.567813 90.2161 0.827812 89.8561C1.08781 89.4961 1.43781 89.2261 1.86781 89.0361C2.30781 88.8461 2.78781 88.7461 3.31781 88.7461C3.84781 88.7461 4.33781 88.8461 4.74781 89.0561C5.15781 89.2661 5.47781 89.5461 5.69781 89.8961C5.91781 90.2461 6.02781 90.6361 6.02781 91.0561C6.02781 91.3661 5.96781 91.6561 5.84781 91.9061C5.72781 92.1561 5.54781 92.3761 5.32781 92.5561C5.10781 92.7361 4.83781 92.8561 4.53781 92.9261V92.9961C4.91781 93.0561 5.24781 93.1661 5.51781 93.3561C5.78781 93.5361 5.99781 93.7761 6.14781 94.0561C6.29781 94.3361 6.35781 94.6561 6.35781 95.0161C6.35781 95.4761 6.22781 95.8961 5.96781 96.2661C5.70781 96.6361 5.33781 96.9361 4.86781 97.1461C4.39781 97.3561 3.87781 97.4661 3.29781 97.4661H3.30781Z" fill="#545251"/>
<path d="M10.6769 97.4652C10.1469 97.4652 9.66688 97.3652 9.23688 97.1652C8.80688 96.9652 8.46687 96.6852 8.20687 96.3352C7.95687 95.9852 7.81687 95.5852 7.79688 95.1352H9.05688C9.07688 95.3752 9.15688 95.5852 9.30688 95.7752C9.45688 95.9652 9.64688 96.1152 9.88688 96.2252C10.1269 96.3352 10.3869 96.3852 10.6669 96.3852C11.0069 96.3852 11.3069 96.3052 11.5769 96.1552C11.8469 96.0052 12.0569 95.7952 12.2069 95.5252C12.3569 95.2652 12.4369 94.9652 12.4369 94.6252C12.4369 94.2852 12.3569 93.9852 12.2069 93.7152C12.0469 93.4452 11.8369 93.2252 11.5569 93.0752C11.2769 92.9252 10.9669 92.8452 10.6169 92.8352C10.2669 92.8352 9.96687 92.8952 9.70687 93.0152C9.45687 93.1352 9.25687 93.3252 9.11687 93.5852H7.90687L8.46688 88.8652H13.2769V89.9752H9.53687L9.24687 92.3452H9.32687C9.44687 92.2352 9.58688 92.1352 9.75688 92.0552C9.92688 91.9752 10.1069 91.9052 10.3069 91.8552C10.5069 91.8052 10.7069 91.7852 10.9269 91.7852C11.4569 91.7852 11.9269 91.9052 12.3569 92.1452C12.7769 92.3852 13.1069 92.7252 13.3469 93.1552C13.5869 93.5852 13.7069 94.0752 13.7069 94.6052C13.7069 95.1352 13.5769 95.6452 13.3169 96.0752C13.0569 96.5152 12.7069 96.8552 12.2469 97.0952C11.7869 97.3452 11.2669 97.4652 10.6869 97.4652H10.6769Z" fill="#545251"/>
<path d="M0 30.9159V29.8759L3.75 24.0859H4.57V25.6159H4.04L1.36 29.7559V29.8259H6.51V30.9159H0ZM4.11 32.5759V30.1259V24.0859H5.33V32.5759H4.1H4.11Z" fill="#545251"/>
<path d="M10.7489 32.7166C10.0989 32.7166 9.53891 32.5466 9.06891 32.2066C8.59891 31.8666 8.24891 31.3666 7.99891 30.7066C7.74891 30.0466 7.62891 29.2666 7.62891 28.3466C7.62891 27.4266 7.74891 26.6466 7.99891 25.9966C8.24891 25.3466 8.59891 24.8466 9.06891 24.4966C9.53891 24.1566 10.0889 23.9766 10.7389 23.9766C11.3889 23.9766 11.9489 24.1466 12.4089 24.4966C12.8789 24.8366 13.2289 25.3366 13.4789 25.9966C13.7289 26.6466 13.8489 27.4366 13.8489 28.3466C13.8489 29.2566 13.7289 30.0566 13.4789 30.7066C13.2289 31.3666 12.8789 31.8666 12.4089 32.2066C11.9389 32.5466 11.3789 32.7166 10.7289 32.7166H10.7489ZM10.7489 31.6066C11.1289 31.6066 11.4589 31.4766 11.7389 31.2266C12.0089 30.9766 12.2189 30.6066 12.3689 30.1166C12.5189 29.6266 12.5889 29.0366 12.5889 28.3366C12.5889 27.6366 12.5189 27.0466 12.3689 26.5566C12.2189 26.0666 12.0089 25.6966 11.7389 25.4466C11.4689 25.1966 11.1389 25.0666 10.7589 25.0666C10.3789 25.0666 10.0589 25.1966 9.77891 25.4466C9.50891 25.6966 9.29891 26.0666 9.14891 26.5566C8.99891 27.0466 8.92891 27.6366 8.92891 28.3366C8.92891 29.0366 8.99891 29.6266 9.14891 30.1166C9.28891 30.6066 9.49891 30.9766 9.77891 31.2266C10.0489 31.4766 10.3789 31.6066 10.7589 31.6066H10.7489Z" fill="#545251"/>
</svg>
