<svg width="983" height="309" viewBox="0 0 983 309" fill="none" xmlns="http://www.w3.org/2000/svg">
<g opacity="0.8" filter="url(#filter0_f_1426_3760)">
<path d="M182 19.9648H500L494.5 282.473L19 289.473L182 19.9648Z" fill="url(#paint0_linear_1426_3760)" fill-opacity="0.7" style="mix-blend-mode:lighten"/>
<path d="M182 19.9648H500L494.5 282.473L19 289.473L182 19.9648Z" fill="black" fill-opacity="0.2" style="mix-blend-mode:soft-light"/>
</g>
<g opacity="0.8" filter="url(#filter1_f_1426_3760)">
<path d="M833.5 26.4648L483 19.9648V279.255C677.715 281.897 768.785 276.614 963.5 279.255L833.5 26.4648Z" fill="url(#paint1_linear_1426_3760)" fill-opacity="0.7" style="mix-blend-mode:lighten"/>
<path d="M833.5 26.4648L483 19.9648V279.255C677.715 281.897 768.785 276.614 963.5 279.255L833.5 26.4648Z" fill="black" fill-opacity="0.2" style="mix-blend-mode:soft-light"/>
</g>
<defs>
<filter id="filter0_f_1426_3760" x="0" y="0.964844" width="519" height="307.508" filterUnits="userSpaceOnUse" color-interpolation-filters="sRGB">
<feFlood flood-opacity="0" result="BackgroundImageFix"/>
<feBlend mode="normal" in="SourceGraphic" in2="BackgroundImageFix" result="shape"/>
<feGaussianBlur stdDeviation="9.5" result="effect1_foregroundBlur_1426_3760"/>
</filter>
<filter id="filter1_f_1426_3760" x="464" y="0.964844" width="518.5" height="298.053" filterUnits="userSpaceOnUse" color-interpolation-filters="sRGB">
<feFlood flood-opacity="0" result="BackgroundImageFix"/>
<feBlend mode="normal" in="SourceGraphic" in2="BackgroundImageFix" result="shape"/>
<feGaussianBlur stdDeviation="9.5" result="effect1_foregroundBlur_1426_3760"/>
</filter>
<linearGradient id="paint0_linear_1426_3760" x1="257.097" y1="-1112.75" x2="257.097" y2="277.828" gradientUnits="userSpaceOnUse">
<stop offset="0.759615" stop-color="#FF3131" stop-opacity="0"/>
<stop offset="1" stop-color="#FF5C5C"/>
</linearGradient>
<linearGradient id="paint1_linear_1426_3760" x1="721.325" y1="-885.28" x2="721.325" y2="286.019" gradientUnits="userSpaceOnUse">
<stop offset="0.759615" stop-color="#FF5C5C" stop-opacity="0"/>
<stop offset="1" stop-color="#F4A3A3"/>
</linearGradient>
</defs>
</svg>
