<svg width="82" height="83" viewBox="0 0 82 83" fill="none" xmlns="http://www.w3.org/2000/svg">
<g clip-path="url(#clip0_1284_128784)">
<path d="M40.7595 22.043C30.0058 22.043 21.2578 30.7909 21.2578 41.5446C21.2578 52.2983 30.0058 61.0463 40.7595 61.0463C51.5131 61.0463 60.2611 52.2973 60.2611 41.5446C60.2611 30.792 51.5131 22.043 40.7595 22.043ZM40.7595 58.3316C31.5037 58.3316 23.9725 50.8014 23.9725 41.5446C23.9725 32.2879 31.5027 24.7577 40.7595 24.7577C50.0162 24.7577 57.5464 32.2879 57.5464 41.5446C57.5464 50.8014 50.0162 58.3316 40.7595 58.3316Z" fill="white"/>
<path d="M40.7558 16.7113C41.5053 16.7113 42.1132 16.1034 42.1132 15.3539V2.14447C42.1132 1.39499 41.5053 0.787109 40.7558 0.787109C40.0063 0.787109 39.3984 1.39499 39.3984 2.14447V15.3539C39.3984 16.1034 40.0063 16.7113 40.7558 16.7113Z" fill="white"/>
<path d="M21.2772 23.986C21.5422 24.251 21.8902 24.3835 22.2371 24.3835C22.584 24.3835 22.932 24.251 23.197 23.986C23.727 23.456 23.727 22.5963 23.197 22.0663L13.8563 12.7256C13.3263 12.1956 12.4666 12.1956 11.9366 12.7256C11.4066 13.2556 11.4066 14.1153 11.9366 14.6453L21.2772 23.986Z" fill="white"/>
<path d="M15.9242 41.5449C15.9242 40.7954 15.3163 40.1875 14.5668 40.1875H1.35736C0.607878 40.1875 0 40.7954 0 41.5449C0 42.2943 0.607878 42.9022 1.35736 42.9022H14.5668C15.3163 42.9022 15.9242 42.2943 15.9242 41.5449Z" fill="white"/>
<path d="M21.2772 59.1045L11.9366 68.4452C11.4066 68.9752 11.4066 69.8349 11.9366 70.3649C12.2016 70.6299 12.5495 70.7624 12.8964 70.7624C13.2433 70.7624 13.5913 70.6299 13.8563 70.3649L23.197 61.0242C23.727 60.4943 23.727 59.6345 23.197 59.1045C22.667 58.5745 21.8072 58.5745 21.2772 59.1045Z" fill="white"/>
<path d="M40.7558 66.3789C40.0063 66.3789 39.3984 66.9868 39.3984 67.7363V80.9457C39.3984 81.6952 40.0063 82.3031 40.7558 82.3031C41.5053 82.3031 42.1132 81.6952 42.1132 80.9457V67.7363C42.1132 66.9868 41.5053 66.3789 40.7558 66.3789Z" fill="white"/>
<path d="M60.2391 59.1045C59.7091 58.5745 58.8494 58.5745 58.3194 59.1045C57.7894 59.6345 57.7894 60.4943 58.3194 61.0242L67.6601 70.3649C67.9251 70.6299 68.273 70.7624 68.6199 70.7624C68.9668 70.7624 69.3148 70.6299 69.5798 70.3649C70.1098 69.8349 70.1098 68.9752 69.5798 68.4452L60.2391 59.1045Z" fill="white"/>
<path d="M80.1606 40.1875H66.9511C66.2016 40.1875 65.5938 40.7954 65.5938 41.5449C65.5938 42.2943 66.2016 42.9022 66.9511 42.9022H80.1606C80.91 42.9022 81.5179 42.2943 81.5179 41.5449C81.5179 40.7954 80.91 40.1875 80.1606 40.1875Z" fill="white"/>
<path d="M59.2792 24.3835C59.6272 24.3835 59.9741 24.251 60.2391 23.986L69.5798 14.6453C70.1098 14.1153 70.1098 13.2556 69.5798 12.7256C69.0498 12.1956 68.1901 12.1956 67.6601 12.7256L58.3194 22.0663C57.7894 22.5963 57.7894 23.456 58.3194 23.986C58.5844 24.251 58.9323 24.3835 59.2792 24.3835Z" fill="white"/>
</g>
<defs>
<clipPath id="clip0_1284_128784">
<rect width="81.5163" height="81.5163" fill="white" transform="translate(0 0.787109)"/>
</clipPath>
</defs>
</svg>
