<svg width="431" height="195" viewBox="0 0 431 195" fill="none" xmlns="http://www.w3.org/2000/svg">
<path d="M380.948 183.087V192.712H379.971V187.695H378.778V192.239H377.812V183.27H378.778V186.857H379.971V183.087H380.948ZM376.727 184.172V190.177H372.988V184.172H376.727ZM373.955 184.978V189.36H375.771V184.978H373.955ZM389.226 188.211V189.027H382.523V183.882H389.129V184.709H383.554V186.009H388.925V186.814H383.554V188.211H389.226ZM390.225 190.66V191.498H381.416V190.66H390.225ZM400.12 183.087V188.039H399.1V185.568H397.069V184.741H399.1V183.087H400.12ZM400.12 188.49V190.886H394.846V191.777H400.453V192.594H393.847V190.112H399.11V189.296H393.825V188.49H400.12ZM395.479 184.236C395.479 185.461 396.36 186.6 397.811 187.062L397.273 187.856C396.215 187.491 395.415 186.766 394.996 185.848C394.572 186.879 393.745 187.69 392.611 188.082L392.063 187.266C393.567 186.782 394.459 185.59 394.47 184.236V183.398H395.479V184.236ZM408.87 183.087V188.812H407.85V186.374H406.056V185.536H407.85V183.087H408.87ZM405.648 189.081C407.667 189.081 408.903 189.747 408.903 190.896C408.903 192.046 407.667 192.701 405.648 192.712C403.628 192.701 402.382 192.046 402.393 190.896C402.382 189.747 403.628 189.081 405.648 189.081ZM405.648 189.876C404.241 189.876 403.403 190.241 403.403 190.896C403.403 191.541 404.241 191.917 405.648 191.906C407.055 191.917 407.893 191.541 407.893 190.896C407.893 190.241 407.055 189.876 405.648 189.876ZM404.294 184.784C404.294 186.009 405.164 187.19 406.615 187.685L406.088 188.49C405.009 188.114 404.214 187.346 403.8 186.396C403.376 187.475 402.533 188.34 401.383 188.759L400.846 187.942C402.339 187.427 403.252 186.127 403.252 184.795V184.58H401.168V183.753H406.357V184.58H404.294V184.784ZM420.302 188.157V188.995H411.525V188.157H415.403V187.223C413.599 187.121 412.471 186.422 412.471 185.289C412.471 184.097 413.813 183.366 415.908 183.355C417.992 183.366 419.346 184.097 419.346 185.289C419.346 186.422 418.207 187.121 416.413 187.223V188.157H420.302ZM419.313 191.681V192.508H412.632V189.715H413.663V191.681H419.313ZM415.908 184.183C414.436 184.183 413.513 184.602 413.523 185.289C413.513 186.02 414.436 186.417 415.908 186.417C417.38 186.417 418.293 186.02 418.293 185.289C418.293 184.602 417.38 184.183 415.908 184.183ZM428.074 187.523V188.34H425.163V190.692H429.084V191.53H420.276V190.692H424.154V188.34H421.371V183.828H427.989V184.655H422.392V187.523H428.074Z" fill="#E6E6E6"/>
<path d="M340.812 189.799H363.623" stroke="#52A3FF" stroke-width="2" stroke-linecap="round" stroke-linejoin="round" stroke-dasharray="2.1 5"/>
<path d="M55.4443 151.229H430.183" stroke="#A6A5A3" stroke-width="0.5" stroke-dasharray="1.26 1.26"/>
<path d="M55.4443 107.779H430.183" stroke="#A6A5A3" stroke-width="0.5" stroke-dasharray="1.26 1.26"/>
<path d="M55.4443 64.332H430.183" stroke="#A6A5A3" stroke-width="0.5" stroke-dasharray="1.26 1.26"/>
<path d="M55.4443 21.9707H430.183" stroke="#A6A5A3" stroke-dasharray="1.26 1.26"/>
<path d="M55.4443 2.24609C55.4443 1.14152 56.3398 0.246094 57.4443 0.246094H72.9959C74.1005 0.246094 74.9959 1.14152 74.9959 2.24609V41.6941C74.9959 42.7986 74.1005 43.6941 72.9959 43.6941H57.4443C56.3398 43.6941 55.4443 42.7986 55.4443 41.6941V2.24609Z" fill="#C9C9C9" fill-opacity="0.4"/>
<path d="M145.599 44.6074C145.599 43.5029 146.494 42.6074 147.599 42.6074H167.495C168.6 42.6074 169.495 43.5029 169.495 44.6074V84.0554C169.495 85.16 168.6 86.0554 167.495 86.0554H147.599C146.494 86.0554 145.599 85.16 145.599 84.0554V44.6074Z" fill="#5EE9E4" fill-opacity="0.25" style="mix-blend-mode:luminosity"/>
<path d="M246.615 44.6074C246.615 43.5029 247.511 42.6074 248.615 42.6074H271.77C272.875 42.6074 273.77 43.5029 273.77 44.6074V84.0554C273.77 85.16 272.875 86.0554 271.77 86.0554H248.615C247.511 86.0554 246.615 85.16 246.615 84.0554V44.6074Z" fill="#5EE9E4" fill-opacity="0.25" style="mix-blend-mode:luminosity"/>
<path d="M358.494 44.6074C358.494 43.5029 359.39 42.6074 360.494 42.6074H391.253C392.357 42.6074 393.253 43.5029 393.253 44.6074V84.0554C393.253 85.16 392.357 86.0554 391.253 86.0554H360.494C359.39 86.0554 358.494 85.16 358.494 84.0554V44.6074Z" fill="#5EE9E4" fill-opacity="0.25" style="mix-blend-mode:luminosity"/>
<path d="M74.9961 88.0547C74.9961 86.9501 75.8915 86.0547 76.9961 86.0547H111.013C112.118 86.0547 113.013 86.9501 113.013 88.0547V127.503C113.013 128.607 112.118 129.503 111.013 129.503H76.9961C75.8915 129.503 74.9961 128.607 74.9961 127.503V88.0547Z" fill="#71798C" style="mix-blend-mode:luminosity"/>
<path d="M169.495 88.0547C169.495 86.9501 170.391 86.0547 171.495 86.0547H197.909C199.013 86.0547 199.909 86.9501 199.909 88.0547V127.503C199.909 128.607 199.013 129.503 197.909 129.503H171.495C170.391 129.503 169.495 128.607 169.495 127.503V88.0547Z" fill="#71798C" style="mix-blend-mode:luminosity"/>
<path d="M273.771 88.0547C273.771 86.9501 274.667 86.0547 275.771 86.0547H302.185C303.29 86.0547 304.185 86.9501 304.185 88.0547V127.503C304.185 128.607 303.29 129.503 302.185 129.503H275.771C274.667 129.503 273.771 128.607 273.771 127.503V88.0547Z" fill="#71798C" style="mix-blend-mode:luminosity"/>
<path d="M330.253 88.0547C330.253 86.9501 331.148 86.0547 332.253 86.0547H356.494C357.599 86.0547 358.494 86.9501 358.494 88.0547V127.503C358.494 128.607 357.599 129.503 356.494 129.503H332.253C331.148 129.503 330.253 128.607 330.253 127.503V88.0547Z" fill="#71798C" style="mix-blend-mode:luminosity"/>
<path d="M393.253 88.0547C393.253 86.9501 394.148 86.0547 395.253 86.0547H428.184C429.288 86.0547 430.184 86.9501 430.184 88.0547V127.503C430.184 128.607 429.288 129.503 428.184 129.503H395.253C394.148 129.503 393.253 128.607 393.253 127.503V88.0547Z" fill="#71798C" style="mix-blend-mode:luminosity"/>
<path d="M134.736 88.0547C134.736 86.9501 135.632 86.0547 136.736 86.0547H143.598C144.703 86.0547 145.598 86.9501 145.598 88.0547V127.503C145.598 128.607 144.703 129.503 143.598 129.503H136.736C135.632 129.503 134.736 128.607 134.736 127.503V88.0547Z" fill="#71798C" style="mix-blend-mode:luminosity"/>
<path d="M235.753 88.0547C235.753 86.9501 236.648 86.0547 237.753 86.0547H244.615C245.719 86.0547 246.615 86.9501 246.615 88.0547V127.503C246.615 128.607 245.719 129.503 244.615 129.503H237.753C236.648 129.503 235.753 128.607 235.753 127.503V88.0547Z" fill="#71798C" style="mix-blend-mode:luminosity"/>
<path d="M10.5103 145.294C10.5006 148.514 8.30106 150.597 4.67053 151.458L4.04208 150.249C7.00064 149.616 8.63462 148.204 8.86666 146.522H4.69954V145.294H10.5103ZM5.73407 156.645V155.417H7.40672V152.976H5.84042V151.787H14.2665V152.976H12.6954V155.417H14.3922V156.645H5.73407ZM8.89083 155.417H11.1968V152.976H8.89083V155.417ZM12.56 151.177V144.497H14.0877V151.177H12.56ZM26.4266 150.868V152.081H15.1676V150.868H26.4266ZM16.3375 147.378C16.3327 145.816 18.0875 144.874 20.7899 144.883C23.4825 144.874 25.2374 145.816 25.2374 147.378C25.2374 148.949 23.4825 149.906 20.7899 149.911C18.0875 149.906 16.3327 148.949 16.3375 147.378ZM16.5551 156.602V152.995H18.0827V155.369H25.1552V156.602H16.5551ZM17.9135 147.378C17.9038 148.219 18.9915 148.673 20.7899 148.673C22.5882 148.673 23.6759 148.219 23.6759 147.378C23.6759 146.566 22.5882 146.097 20.7899 146.092C18.9915 146.097 17.9038 146.566 17.9135 147.378ZM30.9244 146.595C30.9196 148.098 31.9009 149.558 33.8636 150.172L33.1046 151.385C31.7124 150.941 30.7213 150.027 30.1751 148.891C29.624 150.157 28.5894 151.173 27.1343 151.666L26.3415 150.448C28.3526 149.805 29.3823 148.229 29.3871 146.599V146.479H26.7766V145.256H33.4817V146.479H30.9244V146.595ZM28.28 156.689V152.198H36.2614V156.689H28.28ZM29.7787 155.461H34.7579V153.401H29.7787V155.461ZM34.7338 151.685V144.487H36.2614V147.383H37.9872V148.625H36.2614V151.685H34.7338Z" fill="#5CBBFF"/>
<path d="M7.52285 101.429C9.39371 101.434 10.786 102.594 10.7908 104.223C10.786 105.853 9.39371 107.003 7.52285 107.008C5.63266 107.003 4.23556 105.853 4.24039 104.223C4.23556 102.594 5.63266 101.434 7.52285 101.429ZM5.71968 104.223C5.71001 105.176 6.47865 105.775 7.52285 105.775C8.55738 105.775 9.31636 105.176 9.31636 104.223C9.31636 103.281 8.55738 102.681 7.52285 102.686C6.47865 102.681 5.71001 103.281 5.71968 104.223ZM6.10158 109V107.815H14.3053V111.045H7.61954V112.036H14.6775V113.239H6.14026V109.923H12.7922V109H6.10158ZM12.7825 107.274V101.038H14.3053V107.274H12.7825ZM25.1118 101.047V104.61H26.8376V105.867H25.1118V110.136H23.5842V101.047H25.1118ZM15.7817 108.13V101.927H17.2851V103.813H20.1664V101.927H21.6843V108.13H15.7817ZM17.1933 113.152V109.217H18.7064V111.92H25.5952V113.152H17.1933ZM17.2851 106.926H20.1664V104.987H17.2851V106.926ZM31.1179 103.145C31.113 104.649 32.0944 106.109 34.0571 106.723L33.2981 107.936C31.9059 107.491 30.9148 106.578 30.3686 105.442C29.8175 106.708 28.7829 107.723 27.3278 108.217L26.535 106.998C28.546 106.355 29.5757 104.779 29.5806 103.15V103.029H26.9701V101.806H33.6752V103.029H31.1179V103.145ZM28.4735 113.239V108.748H36.4549V113.239H28.4735ZM29.9722 112.011H34.9514V109.952H29.9722V112.011ZM34.9273 108.236V101.038H36.4549V103.933H38.1807V105.176H36.4549V108.236H34.9273Z" fill="#A1B4E5"/>
<path d="M14.9001 15.2109V27.5703H13.4372V21.2539H12.2751V27.0098H10.8532V15.457H12.2751V20.0234H13.4372V15.2109H14.9001ZM7.07976 16.7012C7.07976 19.5586 6.73797 22.2793 5.08367 24.6309L3.89422 23.9336C5.22722 22.1152 5.68523 20.208 5.79461 17.918H4.27703V16.7012H7.07976ZM10.0055 16.7012C10.0055 19.627 9.77312 22.8125 8.00945 25.3965L6.80633 24.7402C8.28289 22.6689 8.61785 20.3584 8.67937 17.918H7.46258V16.7012H10.0055ZM18.7373 16.127C20.4121 16.127 21.6494 17.5215 21.8682 19.7773H24.2197V15.2246H25.7236V27.5977H24.2197V21.0078H21.8818C21.7178 23.3936 20.46 24.8633 18.7373 24.8633C16.8779 24.8633 15.5654 23.1816 15.5654 20.4883C15.5654 17.8223 16.8779 16.127 18.7373 16.127ZM18.7373 17.4941C17.7119 17.4941 17.0146 18.6016 17.0283 20.4883C17.0146 22.3887 17.7119 23.4961 18.7373 23.4961C19.7627 23.4961 20.4463 22.3887 20.46 20.4883C20.4463 18.6016 19.7627 17.4941 18.7373 17.4941ZM36.4515 15.2383V17.918H38.1878V19.1758H36.4515V22.1973H34.9339V15.2383H36.4515ZM36.4515 22.7988V27.4199H28.4534V22.7988H36.4515ZM29.9437 23.9883V26.2168H34.9613V23.9883H29.9437ZM28.7679 15.8398V20.1875C30.3538 20.1738 32.0218 20.0303 33.8265 19.6816L34.0042 20.9258C31.9534 21.3359 30.053 21.4453 28.262 21.4453H27.2366V15.8398H28.7679Z" fill="#CECECE"/>
<path d="M7.62615 68.7285V58.828H11.3292C13.6061 58.828 14.8195 60.1042 14.8195 61.9944C14.8195 63.3383 14.2056 64.3342 13.0357 64.8031L15.1821 68.7285H13.1904L11.247 65.098H9.40032V68.7285H7.62615ZM9.40032 63.6187H11.0681C12.4024 63.6187 13.0018 63.0483 13.0018 61.9944C13.0018 60.9405 12.4024 60.3169 11.0585 60.3169H9.40032V63.6187ZM15.606 68.7285V58.828H22.0355V60.3266H17.3801V63.0241H21.6971V64.5179H17.3801V67.2299H22.0694V68.7285H15.606ZM22.9979 58.828H25.1781L28.1222 66.0213H28.2382L31.1871 58.828H33.3674V68.7285H31.656V61.9171H31.5642L28.8183 68.6995H27.5421L24.7914 61.8929H24.7092V68.7285H22.9979V58.828Z" fill="#5EE9E4"/>
</svg>
