<svg width="86" height="87" viewBox="0 0 86 87" fill="none" xmlns="http://www.w3.org/2000/svg">
<circle cx="43" cy="43.2461" r="43" fill="white"/>
<path d="M42.1748 14.2666L42.3457 14.3086L66.3457 22.2529C66.796 22.402 67.0996 22.8235 67.0996 23.2979V53.5264C66.8563 55.3113 65.4105 58.6288 61.6406 62.4814C57.9753 66.2272 52.1529 70.4356 43.252 74.1641L42.3809 74.5234C42.165 74.6111 41.9153 74.6242 41.6895 74.5625L41.5947 74.5322C31.8512 70.8145 25.6527 66.3921 21.9033 62.4766C18.1188 58.5244 16.9004 55.1704 16.9004 53.5908V23.292C16.9004 22.8795 17.1306 22.508 17.4922 22.3213L17.6543 22.2529L41.6543 14.3086C41.8227 14.2528 42.0013 14.2387 42.1748 14.2666Z" stroke="#373737" stroke-width="1.8"/>
<path d="M42.1738 19.9385L42.3447 19.9805L61.6182 26.3604C62.0681 26.5095 62.3719 26.9303 62.3721 27.4043V51.8564C62.1784 53.2665 61.026 55.9368 57.9775 59.0605C55.0148 62.0965 50.301 65.5182 43.084 68.5576L42.3779 68.8506C42.1632 68.9383 41.9156 68.9513 41.6914 68.8896L41.5967 68.8584C33.6962 65.8257 28.6784 62.2308 25.6494 59.0586C22.5859 55.8502 21.6271 53.156 21.627 51.9277V27.4043C21.627 26.9897 21.859 26.6157 22.2188 26.4287L22.3809 26.3604L41.6533 19.9805C41.8217 19.9247 42.0004 19.9106 42.1738 19.9385Z" stroke="#373737" stroke-width="1.8"/>
<path d="M42.2539 58.8149V27.4277" stroke="#373737" stroke-width="1.5" stroke-miterlimit="10" stroke-linecap="round"/>
<path d="M37.9308 57.2804C37.6378 57.5732 37.6376 58.048 37.9304 58.341C38.2232 58.634 38.6981 58.6342 38.9911 58.3414L37.9308 57.2804ZM42.2392 54.0352L41.7091 53.5046L37.9308 57.2804L38.4609 57.8109L38.9911 58.3414L42.7694 54.5657L42.2392 54.0352Z" fill="#373737"/>
<path d="M38.9911 28.6433C38.6981 28.3505 38.2232 28.3507 37.9304 28.6437C37.6376 28.9367 37.6378 29.4115 37.9308 29.7043L38.9911 28.6433ZM42.2392 32.9496L42.7694 32.419L38.9911 28.6433L38.4609 29.1738L37.9308 29.7043L41.7091 33.4801L42.2392 32.9496Z" fill="#373737"/>
<path d="M31.077 53.2005C30.7853 53.4945 30.7871 53.9694 31.081 54.2612C31.375 54.553 31.8499 54.5512 32.1417 54.2572L31.077 53.2005ZM31.6094 53.7289L32.1417 54.2572L42.6736 43.6455L42.1413 43.1172L41.6089 42.5889L31.077 53.2005L31.6094 53.7289Z" fill="#373737"/>
<path d="M36.3047 49.6973C36.3047 49.2831 35.9689 48.9473 35.5547 48.9473C35.1405 48.9473 34.8047 49.2831 34.8047 49.6973H36.3047ZM35.5547 49.6973H34.8047V55.0868H35.5547H36.3047V49.6973H35.5547Z" fill="#373737"/>
<path d="M30.1992 48.9473C29.785 48.9473 29.4492 49.2831 29.4492 49.6973C29.4492 50.1115 29.785 50.4473 30.1992 50.4473V48.9473ZM35.5552 49.6973V48.9473H30.1992V49.6973V50.4473H35.5552V49.6973Z" fill="#373737"/>
<path d="M31.5881 31.9414C31.2785 31.6662 30.8045 31.6941 30.5293 32.0037C30.2541 32.3133 30.282 32.7873 30.5916 33.0625L31.5881 31.9414ZM31.0898 32.502L30.5916 33.0625L41.981 43.1865L42.4793 42.6259L42.9776 42.0654L31.5881 31.9414L31.0898 32.502Z" fill="#373737"/>
<path d="M36.3047 31.0176C36.3047 30.6034 35.9689 30.2676 35.5547 30.2676C35.1405 30.2676 34.8047 30.6034 34.8047 31.0176H36.3047ZM35.5547 36.3968H36.3047V31.0176H35.5547H34.8047V36.3968H35.5547Z" fill="#373737"/>
<path d="M30.1289 35.6465C29.7147 35.6465 29.3789 35.9823 29.3789 36.3965C29.3789 36.8107 29.7147 37.1465 30.1289 37.1465V35.6465ZM35.557 36.3965V35.6465H30.1289V36.3965V37.1465H35.557V36.3965Z" fill="#373737"/>
<path d="M27.3438 42.2559C26.9295 42.2559 26.5938 42.5916 26.5938 43.0059C26.5938 43.4201 26.9295 43.7559 27.3438 43.7559V42.2559ZM27.3438 43.0059V43.7559H42.5625V43.0059V42.2559H27.3438V43.0059Z" fill="#373737"/>
<path d="M29.6786 38.6218C29.3856 38.329 28.9107 38.3292 28.6179 38.6222C28.3251 38.9152 28.3253 39.3901 28.6183 39.6829L29.6786 38.6218ZM33.004 43.0053L33.5341 42.4748L29.6786 38.6218L29.1484 39.1523L28.6183 39.6829L32.4738 43.5358L33.004 43.0053Z" fill="#373737"/>
<path d="M28.6183 46.3283C28.3253 46.6211 28.3251 47.096 28.6179 47.389C28.9107 47.6819 29.3856 47.6821 29.6786 47.3893L28.6183 46.3283ZM33.004 43.0059L32.4738 42.4754L28.6183 46.3283L29.1484 46.8588L29.6786 47.3893L33.5341 43.5364L33.004 43.0059Z" fill="#373737"/>
<path d="M44.9258 57.8181C50.987 57.8181 55.8901 52.964 55.9879 46.9491V46.7792C55.9879 46.6094 55.9647 46.4652 55.939 46.2954C55.3264 39.1583 47.9551 35.0814 45.371 28.5234" stroke="#373737" stroke-width="1.5" stroke-miterlimit="10" stroke-linecap="round"/>
<path d="M45.5898 54.4946C48.699 54.4946 51.229 51.9646 51.229 48.8555" stroke="#373737" stroke-width="1.5" stroke-miterlimit="10" stroke-linecap="round"/>
</svg>
