<svg width="432" height="195" viewBox="0 0 432 195" fill="none" xmlns="http://www.w3.org/2000/svg">
<path d="M430.183 66.5899C430.735 66.5899 431.183 67.0376 431.183 67.5899C431.183 68.1422 430.735 68.5899 430.183 68.5899V66.5899ZM302.184 107.779V106.779V107.779ZM237.753 107.779V108.779V107.779ZM111.013 107.779V106.779V107.779ZM58.2228 106.779H59.2228V108.779H58.2228V106.779ZM63.7796 108.779H62.7796V106.779H63.7796V108.779ZM69.3365 106.779H70.3365V108.779H69.3365V106.779ZM74.8933 108.779H73.8933V106.779H74.8933V108.779ZM80.4502 106.779H81.4502V108.779H80.4502V106.779ZM86.007 108.779H85.007V106.779H86.007V108.779ZM91.5639 106.779H92.5639V108.779H91.5639V106.779ZM97.1208 108.779H96.1208V106.779H97.1208V108.779ZM102.678 106.779H103.678V108.779H102.678V106.779ZM108.234 108.779H107.234V106.779H108.234V108.779ZM112.013 102.764V101.764H114.013V102.764H112.013ZM114.013 96.732V97.732H112.013V96.732H114.013ZM112.013 90.7004V89.7004H114.013V90.7004H112.013ZM114.013 84.6688V85.6688H112.013V84.6688H114.013ZM112.013 78.6373V77.6373H114.013V78.6373H112.013ZM114.013 72.6057V73.6057H112.013V72.6057H114.013ZM119.444 66.5899H120.444V68.5899H119.444V66.5899ZM128.306 68.5899H127.306V66.5899H128.306V68.5899ZM135.737 72.6057V73.6057H133.737V72.6057H135.737ZM133.737 78.6373V77.6373H135.737V78.6373H133.737ZM135.737 84.6688V85.6688H133.737V84.6688H135.737ZM133.737 90.7004V89.7004H135.737V90.7004H133.737ZM135.737 96.7319V97.7319H133.737V96.7319H135.737ZM133.737 102.764V101.764H135.737V102.764H133.737ZM139.812 106.779H140.812V108.779H139.812V106.779ZM145.961 108.779H144.961V106.779H145.961V108.779ZM152.11 106.779H153.11V108.779H152.11V106.779ZM158.26 108.779H157.26V106.779H158.26V108.779ZM164.409 106.779H165.409V108.779H164.409V106.779ZM170.559 108.779H169.559V106.779H170.559V108.779ZM176.708 106.779H177.708V108.779H176.708V106.779ZM182.857 108.779H181.857V106.779H182.857V108.779ZM189.007 106.779H190.007V108.779H189.007V106.779ZM195.156 108.779H194.156V106.779H195.156V108.779ZM199.231 102.764V101.764H201.231V102.764H199.231ZM201.231 96.732V97.732H199.231V96.732H201.231ZM199.231 90.7004V89.7004H201.231V90.7004H199.231ZM201.231 84.6688V85.6688H199.231V84.6688H201.231ZM199.231 78.6373V77.6373H201.231V78.6373H199.231ZM201.231 72.6057V73.6057H199.231V72.6057H201.231ZM204.858 66.5899H205.858V68.5899H204.858V66.5899ZM210.112 68.5899H209.112V66.5899H210.112V68.5899ZM215.365 66.5899H216.365V68.5899H215.365V66.5899ZM220.619 68.5899H219.619V66.5899H220.619V68.5899ZM225.873 66.5899H226.873V68.5899H225.873V66.5899ZM231.127 68.5899H230.127V66.5899H231.127V68.5899ZM236.753 72.6057V73.6057H234.753V72.6057H236.753ZM234.753 78.6373V77.6373H236.753V78.6373H234.753ZM236.753 84.6688V85.6688H234.753V84.6688H236.753ZM234.753 90.7004V89.7004H236.753V90.7004H234.753ZM236.753 96.7319V97.7319H234.753V96.7319H236.753ZM234.753 102.764V101.764H236.753V102.764H234.753ZM240.975 106.779H241.975V108.779H240.975V106.779ZM247.418 108.779H246.418V106.779H247.418V108.779ZM253.861 106.779H254.861V108.779H253.861V106.779ZM260.304 108.779H259.304V106.779H260.304V108.779ZM266.747 106.779H267.747V108.779H266.747V106.779ZM273.19 108.779H272.19V106.779H273.19V108.779ZM279.633 106.779H280.633V108.779H279.633V106.779ZM286.076 108.779H285.076V106.779H286.076V108.779ZM292.519 106.779H293.519V108.779H292.519V106.779ZM298.962 108.779H297.962V106.779H298.962V108.779ZM303.184 102.764V101.764H305.184V102.764H303.184ZM305.184 96.732V97.732H303.184V96.732H305.184ZM303.184 90.7004V89.7004H305.184V90.7004H303.184ZM305.184 84.6688V85.6688H303.184V84.6688H305.184ZM303.184 78.6373V77.6373H305.184V78.6373H303.184ZM305.184 72.6057V73.6057H303.184V72.6057H305.184ZM308.943 66.5899H309.943V68.5899H308.943V66.5899ZM314.46 68.5899H313.46V66.5899H314.46V68.5899ZM319.977 66.5899H320.977V68.5899H319.977V66.5899ZM325.494 68.5899H324.494V66.5899H325.494V68.5899ZM331.253 72.6057V73.6057H329.253V72.6057H331.253ZM329.253 78.6373V77.6373H331.253V78.6373H329.253ZM331.253 84.6688V85.6688H329.253V84.6688H331.253ZM329.253 90.7004V89.7004H331.253V90.7004H329.253ZM331.253 96.7319V97.7319H329.253V96.7319H331.253ZM329.253 102.764V101.764H331.253V102.764H329.253ZM335.529 106.779H336.529V108.779H335.529V106.779ZM342.08 108.779H341.08V106.779H342.08V108.779ZM348.632 106.779H349.632V108.779H348.632V106.779ZM355.184 108.779H354.184V106.779H355.184V108.779ZM361.735 106.779H362.735V108.779H361.735V106.779ZM368.287 108.779H367.287V106.779H368.287V108.779ZM374.839 106.779H375.839V108.779H374.839V106.779ZM381.39 108.779H380.39V106.779H381.39V108.779ZM387.942 106.779H388.942V108.779H387.942V106.779ZM394.494 108.779H393.494V106.779H394.494V108.779ZM398.77 102.764V101.764H400.77V102.764H398.77ZM400.77 96.732V97.732H398.77V96.732H400.77ZM398.77 90.7004V89.7004H400.77V90.7004H398.77ZM400.77 84.6688V85.6688H398.77V84.6688H400.77ZM398.77 78.6373V77.6373H400.77V78.6373H398.77ZM400.77 72.6057V73.6057H398.77V72.6057H400.77ZM405.321 66.5899H406.321V68.5899H405.321V66.5899ZM412.425 68.5899H411.425V66.5899H412.425V68.5899ZM419.528 66.5899H420.528V68.5899H419.528V66.5899ZM426.631 68.5899H425.631V66.5899H426.631V68.5899ZM55.4443 107.779L55.4443 106.779H58.2228V107.779V108.779H55.4443L55.4443 107.779ZM63.7796 107.779V106.779H69.3365V107.779V108.779H63.7796V107.779ZM74.8933 107.779V106.779H80.4502V107.779V108.779H74.8933V107.779ZM86.007 107.779V106.779H91.5639V107.779V108.779H86.007V107.779ZM97.1208 107.779V106.779H102.678V107.779V108.779H97.1208V107.779ZM108.234 107.779V106.779H111.013V107.779V108.779H108.234V107.779ZM111.013 107.779V106.779C111.565 106.779 112.013 106.332 112.013 105.779H113.013H114.013C114.013 107.436 112.67 108.779 111.013 108.779V107.779ZM113.013 105.779H112.013V102.764H113.013H114.013V105.779H113.013ZM113.013 96.732H112.013V90.7004H113.013H114.013V96.732H113.013ZM113.013 84.6688H112.013V78.6373H113.013H114.013V84.6688H113.013ZM113.013 72.6057H112.013V69.5899H113.013H114.013V72.6057H113.013ZM113.013 69.5899H112.013C112.013 67.9331 113.356 66.5899 115.013 66.5899V67.5899V68.5899C114.461 68.5899 114.013 69.0376 114.013 69.5899H113.013ZM115.013 67.5899V66.5899H119.444V67.5899V68.5899H115.013V67.5899ZM128.306 67.5899V66.5899H132.737V67.5899V68.5899H128.306V67.5899ZM132.737 67.5899V66.5899C134.394 66.5899 135.737 67.9331 135.737 69.5899H134.737H133.737C133.737 69.0376 133.289 68.5899 132.737 68.5899V67.5899ZM134.737 69.5899H135.737V72.6057H134.737H133.737V69.5899H134.737ZM134.737 78.6373H135.737V84.6688H134.737H133.737V78.6373H134.737ZM134.737 90.7004H135.737V96.7319H134.737H133.737V90.7004H134.737ZM134.737 102.764H135.737V105.779H134.737H133.737V102.764H134.737ZM134.737 105.779H135.737C135.737 106.332 136.185 106.779 136.737 106.779V107.779V108.779C135.08 108.779 133.737 107.436 133.737 105.779H134.737ZM136.737 107.779V106.779H139.812V107.779V108.779H136.737V107.779ZM145.961 107.779V106.779H152.11V107.779V108.779H145.961V107.779ZM158.26 107.779V106.779H164.409V107.779V108.779H158.26V107.779ZM170.559 107.779V106.779H176.708V107.779V108.779H170.559V107.779ZM182.857 107.779V106.779H189.007V107.779V108.779H182.857V107.779ZM195.156 107.779V106.779H198.231V107.779V108.779H195.156V107.779ZM198.231 107.779V106.779C198.783 106.779 199.231 106.332 199.231 105.779H200.231H201.231C201.231 107.436 199.888 108.779 198.231 108.779V107.779ZM200.231 105.779H199.231V102.764H200.231H201.231V105.779H200.231ZM200.231 96.732H199.231V90.7004H200.231H201.231V96.732H200.231ZM200.231 84.6688H199.231V78.6373H200.231H201.231V84.6688H200.231ZM200.231 72.6057H199.231V69.5899H200.231H201.231V72.6057H200.231ZM200.231 69.5899H199.231C199.231 67.9331 200.574 66.5899 202.231 66.5899V67.5899V68.5899C201.679 68.5899 201.231 69.0376 201.231 69.5899H200.231ZM202.231 67.5899V66.5899H204.858V67.5899V68.5899H202.231V67.5899ZM210.112 67.5899V66.5899H215.365V67.5899V68.5899H210.112V67.5899ZM220.619 67.5899V66.5899H225.873V67.5899V68.5899H220.619V67.5899ZM231.127 67.5899V66.5899H233.753V67.5899V68.5899H231.127V67.5899ZM233.753 67.5899V66.5899C235.41 66.5899 236.753 67.9331 236.753 69.5899H235.753H234.753C234.753 69.0376 234.306 68.5899 233.753 68.5899V67.5899ZM235.753 69.5899H236.753V72.6057H235.753H234.753V69.5899H235.753ZM235.753 78.6373H236.753V84.6688H235.753H234.753V78.6373H235.753ZM235.753 90.7004H236.753V96.7319H235.753H234.753V90.7004H235.753ZM235.753 102.764H236.753V105.779H235.753H234.753V102.764H235.753ZM235.753 105.779H236.753C236.753 106.332 237.201 106.779 237.753 106.779V107.779V108.779C236.097 108.779 234.753 107.436 234.753 105.779H235.753ZM237.753 107.779V106.779H240.975V107.779V108.779H237.753V107.779ZM247.418 107.779V106.779H253.861V107.779V108.779H247.418V107.779ZM260.304 107.779V106.779H266.747V107.779V108.779H260.304V107.779ZM273.19 107.779V106.779H279.633V107.779V108.779H273.19V107.779ZM286.076 107.779V106.779H292.519V107.779V108.779H286.076V107.779ZM298.962 107.779V106.779H302.184V107.779V108.779H298.962V107.779ZM302.184 107.779V106.779C302.736 106.779 303.184 106.332 303.184 105.779H304.184H305.184C305.184 107.436 303.841 108.779 302.184 108.779V107.779ZM304.184 105.779H303.184V102.764H304.184H305.184V105.779H304.184ZM304.184 96.732H303.184V90.7004H304.184H305.184V96.732H304.184ZM304.184 84.6688H303.184V78.6373H304.184H305.184V84.6688H304.184ZM304.184 72.6057H303.184V69.5899H304.184H305.184V72.6057H304.184ZM304.184 69.5899H303.184C303.184 67.9331 304.527 66.5899 306.184 66.5899V67.5899V68.5899C305.632 68.5899 305.184 69.0376 305.184 69.5899H304.184ZM306.184 67.5899V66.5899H308.943V67.5899V68.5899H306.184V67.5899ZM314.46 67.5899V66.5899H319.977V67.5899V68.5899H314.46V67.5899ZM325.494 67.5899V66.5899H328.253V67.5899V68.5899H325.494V67.5899ZM328.253 67.5899V66.5899C329.91 66.5899 331.253 67.9331 331.253 69.5899H330.253H329.253C329.253 69.0376 328.805 68.5899 328.253 68.5899V67.5899ZM330.253 69.5899H331.253V72.6057H330.253H329.253V69.5899H330.253ZM330.253 78.6373H331.253V84.6688H330.253H329.253V78.6373H330.253ZM330.253 90.7004H331.253V96.7319H330.253H329.253V90.7004H330.253ZM330.253 102.764H331.253V105.779H330.253H329.253V102.764H330.253ZM330.253 105.779H331.253C331.253 106.332 331.701 106.779 332.253 106.779V107.779V108.779C330.596 108.779 329.253 107.436 329.253 105.779H330.253ZM332.253 107.779V106.779H335.529V107.779V108.779H332.253V107.779ZM342.08 107.779V106.779H348.632V107.779V108.779H342.08V107.779ZM355.184 107.779V106.779H361.735V107.779V108.779H355.184V107.779ZM368.287 107.779V106.779H374.839V107.779V108.779H368.287V107.779ZM381.39 107.779V106.779H387.942V107.779V108.779H381.39V107.779ZM394.494 107.779V106.779H397.77V107.779V108.779H394.494V107.779ZM397.77 107.779V106.779C398.322 106.779 398.77 106.332 398.77 105.779H399.77H400.77C400.77 107.436 399.426 108.779 397.77 108.779V107.779ZM399.77 105.779H398.77V102.764H399.77H400.77V105.779H399.77ZM399.77 96.732H398.77V90.7004H399.77H400.77V96.732H399.77ZM399.77 84.6688H398.77V78.6373H399.77H400.77V84.6688H399.77ZM399.77 72.6057H398.77V69.5899H399.77H400.77V72.6057H399.77ZM399.77 69.5899H398.77C398.77 67.9331 400.113 66.5899 401.77 66.5899V67.5899V68.5899C401.217 68.5899 400.77 69.0376 400.77 69.5899H399.77ZM401.77 67.5899V66.5899H405.321V67.5899V68.5899H401.77V67.5899ZM412.425 67.5899V66.5899H419.528V67.5899V68.5899H412.425V67.5899ZM426.631 67.5899V66.5899H430.183V67.5899V68.5899H426.631V67.5899Z" fill="#52A3FF"/>
</svg>
