<svg width="87" height="87" viewBox="0 0 87 87" fill="none" xmlns="http://www.w3.org/2000/svg">
<circle cx="43.5" cy="43.2461" r="43" fill="white"/>
<path d="M44.9935 76.2461C48.0105 76.2461 50.452 73.7851 50.5 70.7376V70.6532C50.5 70.5688 50.4869 70.4933 50.4738 70.4089C50.1686 66.7884 46.502 64.7228 45.2158 61.3955C45.1373 61.1956 44.8627 61.1956 44.7885 61.3999C43.5634 64.8027 39.8749 66.7795 39.5262 70.3556V70.4045C39.5131 70.5155 39.5 70.6266 39.5 70.7332V70.7821C39.5741 73.8073 42.0113 76.2416 44.9935 76.2416V76.2461Z" stroke="#373737" stroke-width="1.7" stroke-linejoin="round"/>
<path d="M19.5 57.2461H43.3787H66.5" stroke="#373737" stroke-width="1.8" stroke-miterlimit="10" stroke-linecap="round" stroke-linejoin="bevel"/>
<path d="M55.0979 66.9545C56.5816 66.7686 57.6337 65.4152 57.4479 63.9314C57.262 62.4477 55.9085 61.3956 54.4248 61.5814C52.9411 61.7673 51.889 63.1208 52.0748 64.6045C52.2607 66.0882 53.6141 67.1404 55.0979 66.9545Z" stroke="#373737" stroke-width="1.8" stroke-linecap="round" stroke-linejoin="round"/>
<path d="M22.8596 66.9545C24.3433 66.7686 25.3955 65.4152 25.2096 63.9314C25.0237 62.4477 23.6703 61.3956 22.1865 61.5814C20.7028 61.7673 19.6507 63.1208 19.8365 64.6045C20.0224 66.0882 21.3759 67.1404 22.8596 66.9545Z" stroke="#373737" stroke-width="1.8" stroke-linecap="round" stroke-linejoin="round"/>
<path d="M34.0439 69.794C35.4034 68.6829 35.6047 66.6801 34.4936 65.3206C33.3824 63.9611 31.3796 63.7598 30.0202 64.8709C28.6607 65.9821 28.4593 67.9849 29.5705 69.3444C30.6816 70.7038 32.6844 70.9051 34.0439 69.794Z" stroke="#373737" stroke-width="1.8" stroke-linecap="round" stroke-linejoin="round"/>
<path d="M27.5293 21.2461C27.5293 21.2461 24.6641 25.2461 24.6641 29.2461C24.6641 36.9875 30.1641 41.2461 30.6641 44.7461C31.0373 47.359 30.6641 49.2461 30.6641 49.2461" stroke="#373737" stroke-width="1.8" stroke-linecap="round"/>
<path d="M27.6641 20.2461L29.6641 28.2461" stroke="#373737" stroke-width="1.8" stroke-linecap="round"/>
<path d="M27.6641 20.2461L20.5011 24.3392" stroke="#373737" stroke-width="1.8" stroke-linecap="round"/>
<path d="M43.6934 21.2461C43.6934 21.2461 40.8281 25.2461 40.8281 29.2461C40.8281 36.9875 46.3281 41.2461 46.8281 44.7461C47.2014 47.359 46.8281 49.2461 46.8281 49.2461" stroke="#373737" stroke-width="1.8" stroke-linecap="round"/>
<path d="M43.8281 20.2461L45.8281 28.2461" stroke="#373737" stroke-width="1.8" stroke-linecap="round"/>
<path d="M43.8281 20.2461L36.6651 24.3392" stroke="#373737" stroke-width="1.8" stroke-linecap="round"/>
<path d="M59.8535 21.2461C59.8535 21.2461 56.9883 25.2461 56.9883 29.2461C56.9883 36.9875 62.4883 41.2461 62.9883 44.7461C63.3615 47.359 62.9883 49.2461 62.9883 49.2461" stroke="#373737" stroke-width="1.8" stroke-linecap="round"/>
<path d="M59.9883 20.2461L61.9883 28.2461" stroke="#373737" stroke-width="1.8" stroke-linecap="round"/>
<path d="M59.9883 20.2461L52.8253 24.3392" stroke="#373737" stroke-width="1.8" stroke-linecap="round"/>
</svg>
