<svg width="112" height="88" viewBox="0 0 112 88" fill="none" xmlns="http://www.w3.org/2000/svg">
<path d="M72.2908 0.259766H39.0208C17.6363 0.259766 0.300781 17.5953 0.300781 38.9798C0.300781 60.3642 17.6363 77.6998 39.0208 77.6998H72.2908C93.6752 77.6998 111.011 60.3642 111.011 38.9798C111.011 17.5953 93.6752 0.259766 72.2908 0.259766Z" fill="white"/>
<path d="M66.6906 72.7806L52.0106 87.2306L51.8906 66.6406L66.6906 72.7806Z" fill="white"/>
<path d="M13.4628 55.2324V51.7461L22.4277 37.7715H27.9648V51.6875H30.6601V55.2324H27.9648V58.9824H23.7753V55.2324H13.4628ZM17.9159 51.6875H23.8339V42.6055H23.6288L17.9159 51.5117V51.6875ZM35.0698 59.2461C33.6929 59.2461 32.5796 58.1475 32.6089 56.7852C32.5796 55.4375 33.6929 54.3389 35.0698 54.3535C36.3736 54.3389 37.5015 55.4375 37.5015 56.7852C37.5015 58.1475 36.3736 59.2461 35.0698 59.2461ZM47.9757 59.2754C43.5519 59.2754 40.3146 56.668 40.2413 53.0059H44.5187C44.6212 54.6611 46.13 55.8037 47.9757 55.7891C50.173 55.8037 51.7404 54.251 51.7257 52.0391C51.7404 49.7832 50.1437 48.2158 47.9171 48.2012C46.3204 48.2012 45.2071 48.8018 44.5773 49.9883H40.5929L41.7355 37.7715H54.8019V41.375H45.3683L44.7823 46.7363H44.9581C45.7345 45.6963 47.3458 44.9346 49.2062 44.9492C53.1027 44.9346 56.003 47.8496 56.003 51.9219C56.003 56.2139 52.7511 59.2754 47.9757 59.2754ZM61.0632 52.6191C59.156 52.6191 58.1277 51.2305 58.1277 49.2266C58.1277 47.2139 59.2087 45.8164 61.0632 45.8164C62.9704 45.8164 63.99 47.2139 63.9988 49.2266C63.99 51.248 62.9441 52.6191 61.0632 52.6191ZM59.9206 49.2266C59.9294 50.3252 60.3249 51.0459 61.0632 51.0547C61.8191 51.0459 62.197 50.3252 62.2058 49.2266C62.197 48.1279 61.8542 47.3809 61.0632 47.3809C60.3161 47.3896 59.9294 48.1455 59.9206 49.2266ZM59.9558 58.9824L68.7097 46.2559H70.6784L61.9245 58.9824H59.9558ZM66.7234 56.0117C66.7234 53.999 67.8044 52.6104 69.6413 52.6016C71.5661 52.6104 72.5857 53.999 72.5945 56.0117C72.5857 58.0332 71.5398 59.4043 69.6413 59.4043C67.7517 59.4043 66.7234 58.0156 66.7234 56.0117ZM68.5163 56.0117C68.5251 57.1104 68.9206 57.8398 69.6413 57.8398C70.4148 57.8398 70.7927 57.1104 70.8015 56.0117C70.7927 54.9131 70.4411 54.166 69.6413 54.1836C68.903 54.1748 68.5251 54.9307 68.5163 56.0117ZM74.713 58.9824V46.2559H79.7052C82.5968 46.2559 84.2579 48.04 84.2579 50.5449C84.2579 53.085 82.5704 54.834 79.6348 54.834H77.3497V58.9824H74.713ZM77.3497 52.707H79.213C80.7774 52.707 81.5421 51.8281 81.5333 50.5449C81.5421 49.2793 80.7774 48.4268 79.213 48.418H77.3497V52.707Z" fill="#202020"/>
<path d="M35.4953 15.9734C35.5113 17.7334 37.4953 19.5414 40.5193 19.9414L39.8153 21.3494C37.4313 20.9814 35.5273 19.7974 34.5993 18.1974C33.6713 19.7974 31.7833 20.9814 29.4153 21.3494L28.7113 19.9414C31.7033 19.5414 33.6873 17.7494 33.7033 15.9734V15.2374H35.4953V15.9734ZM28.1673 23.9734V22.5654H41.0313V23.9734H35.4313V28.9014H33.7033V23.9734H28.1673ZM48.1074 15.9734V17.0934H50.9554V14.8214H52.6834V25.0934H50.9554V21.5414H48.1074V22.7574H41.4834V15.9734H48.1074ZM43.2114 21.3814H46.4114V17.3494H43.2114V21.3814ZM43.3714 28.6454V24.1334H45.1314V27.2374H53.0034V28.6454H43.3714ZM48.1074 20.1334H50.9554V18.5334H48.1074V20.1334ZM68.532 16.7094V18.0854H56.852V16.7094H61.812V14.9814H63.54V16.7094H68.532ZM56.276 27.4294V26.0214H59.476V23.6214C58.468 23.1574 57.908 22.4214 57.908 21.4774C57.908 19.7814 59.732 18.7894 62.676 18.7894C65.62 18.7894 67.444 19.7814 67.444 21.4774C67.444 22.4214 66.9 23.1414 65.908 23.6054V26.0214H69.172V27.4294H56.276ZM59.7 21.4774C59.684 22.3574 60.772 22.8214 62.676 22.8214C64.564 22.8214 65.652 22.3574 65.652 21.4774C65.652 20.5974 64.564 20.1334 62.676 20.1334C60.772 20.1334 59.684 20.5974 59.7 21.4774ZM61.204 26.0214H64.18V24.0694C63.716 24.1334 63.22 24.1654 62.676 24.1654C62.148 24.1654 61.652 24.1334 61.204 24.0854V26.0214ZM75.4161 14.9494C78.6161 14.9334 80.4721 15.7974 80.4721 17.3494C80.4721 18.9334 78.6161 19.7814 75.4161 19.7814C72.1841 19.7814 70.3121 18.9334 70.2961 17.3494C70.3121 15.7974 72.1841 14.9334 75.4161 14.9494ZM68.9841 21.8294V20.4534H81.8481V21.8294H78.4881V22.9494H80.2481V26.4054H72.2161V27.4614H80.6321V28.8054H70.4881V25.1894H78.5201V24.2614H70.4881V22.9494H72.3121V21.8294H68.9841ZM72.1201 17.3494C72.1201 18.1334 73.2401 18.5014 75.4161 18.5014C77.5761 18.5014 78.6961 18.1334 78.6801 17.3494C78.6961 16.6294 77.5761 16.2294 75.4161 16.2294C73.2401 16.2294 72.1201 16.6294 72.1201 17.3494ZM74.0081 22.9494H76.7601V21.8294H74.0081V22.9494Z" fill="#202020"/>
</svg>
