<svg width="63" height="63" viewBox="0 0 63 63" fill="none" xmlns="http://www.w3.org/2000/svg">
<path d="M47.25 47.25C55.9485 38.5515 55.9485 24.4485 47.25 15.75C38.5515 7.05154 24.4485 7.05151 15.75 15.75C7.05152 24.4485 7.05154 38.5515 15.75 47.25C24.4485 55.9485 38.5515 55.9485 47.25 47.25Z" fill="white"/>
<path d="M46.9996 31.5009C46.9996 31.1834 46.7421 30.9258 46.4245 30.9258H42.8497L46.2711 28.0931C46.5158 27.8904 46.5501 27.5279 46.3474 27.2833C46.1447 27.0386 45.7822 27.0043 45.5376 27.207L41.0461 30.9258H35.3875C35.2842 30.1353 34.9723 29.4094 34.5078 28.8065L38.5142 24.8002L44.3129 24.2521C44.6292 24.2221 44.8614 23.9415 44.8314 23.6252C44.8014 23.309 44.522 23.0768 44.2045 23.1068L39.7902 23.5241L42.3132 21.0012C42.5377 20.7766 42.5377 20.4124 42.3132 20.1879C42.0887 19.9634 41.7244 19.9634 41.4999 20.1879L38.9675 22.7203L39.3823 18.2897C39.4119 17.9735 39.1796 17.6932 38.8634 17.6632C38.5468 17.6333 38.267 17.8659 38.237 18.1821L37.6928 23.995L33.6941 27.9937C33.0908 27.5292 32.3654 27.2173 31.5748 27.114V21.4554L35.2937 16.964C35.4964 16.7193 35.4621 16.3568 35.2174 16.1541C34.9727 15.9514 34.6102 15.9857 34.4076 16.2304L31.5744 19.6519V16.0761C31.5744 15.7586 31.3169 15.5011 30.9994 15.5011C30.6818 15.5011 30.4243 15.7586 30.4243 16.0761V19.651L27.5916 16.2295C27.3889 15.9849 27.0268 15.9506 26.7817 16.1532C26.5371 16.3559 26.5028 16.7184 26.7055 16.9631L30.4243 21.4545V27.1131C29.6338 27.2164 28.9079 27.5284 28.305 27.9928L24.3064 23.9942L23.7622 18.1813C23.7326 17.8651 23.4537 17.6324 23.1357 17.6624C22.8195 17.692 22.5873 17.9726 22.6168 18.2888L23.0316 22.7194L20.4992 20.187C20.2747 19.9625 19.9105 19.9625 19.686 20.187C19.4614 20.4116 19.4614 20.7758 19.686 21.0003L22.2089 23.5233L17.7946 23.1059C17.4784 23.0763 17.1977 23.3082 17.1677 23.6244C17.1377 23.9406 17.37 24.2213 17.6862 24.2513L23.4849 24.7993L27.4913 28.8057C27.0268 29.409 26.7149 30.1344 26.6116 30.925H20.971L16.4676 27.1856C16.2233 26.9825 15.8604 27.0163 15.6577 27.2605C15.4546 27.5048 15.4885 27.8677 15.7327 28.0704L19.1705 30.925H15.575C15.2575 30.925 15 31.1825 15 31.5C15 31.8175 15.2575 32.075 15.575 32.075H19.1285L15.7233 34.8864C15.4782 35.0886 15.4435 35.4511 15.6457 35.6962C15.7593 35.8342 15.9238 35.9053 16.0896 35.9053C16.2186 35.9053 16.3485 35.862 16.4556 35.7738L20.935 32.0755H26.6116C26.7149 32.866 27.0268 33.5919 27.4913 34.1948L23.4849 38.2012L17.6862 38.7492C17.37 38.7792 17.1377 39.0599 17.1677 39.3761C17.196 39.6739 17.4462 39.8971 17.7398 39.8971C17.7578 39.8971 17.7762 39.8963 17.7946 39.8945L22.2089 39.4772L19.686 42.0001C19.4614 42.2247 19.4614 42.5889 19.686 42.8134C19.7982 42.9257 19.9456 42.9818 20.0926 42.9818C20.2396 42.9818 20.387 42.9257 20.4992 42.8134L23.0316 40.281L22.6168 44.7116C22.5873 45.0278 22.8195 45.3081 23.1357 45.3381C23.1541 45.3398 23.1721 45.3406 23.1901 45.3406C23.4837 45.3406 23.7343 45.117 23.7622 44.8192L24.3064 39.0063L28.305 35.0076C28.9083 35.4721 29.6338 35.7841 30.4243 35.8873V41.5639L26.726 46.0434C26.5238 46.2885 26.5585 46.651 26.8036 46.8532C26.9107 46.9415 27.0405 46.9848 27.1695 46.9848C27.3353 46.9848 27.4999 46.9136 27.6134 46.7757L30.4248 43.3705V46.9239C30.4248 47.2414 30.6823 47.4989 30.9998 47.4989C31.3173 47.4989 31.5748 47.2414 31.5748 46.9239V43.328L34.4294 46.7658C34.543 46.9029 34.7071 46.9736 34.872 46.9736C35.0014 46.9736 35.1317 46.9303 35.2393 46.8408C35.4835 46.6377 35.5173 46.2752 35.3142 46.0309L31.5748 41.5275V35.8869C32.3654 35.7836 33.0912 35.4717 33.6946 35.0072L37.6932 39.0059L38.2374 44.8187C38.2652 45.117 38.5159 45.3402 38.8094 45.3402C38.8274 45.3402 38.8454 45.3394 38.8638 45.3376C39.1801 45.3081 39.4123 45.0278 39.3827 44.7112L38.968 40.2806L41.5003 42.813C41.6126 42.9253 41.76 42.9814 41.907 42.9814C42.054 42.9814 42.2014 42.9253 42.3136 42.813C42.5381 42.5885 42.5381 42.2242 42.3136 41.9997L39.7907 39.4768L44.205 39.8941C44.2234 39.8958 44.2418 39.8967 44.2598 39.8967C44.5529 39.8967 44.8036 39.6734 44.8318 39.3756C44.8618 39.0594 44.6296 38.7788 44.3134 38.7488L38.5146 38.2007L34.5083 34.1944C34.9727 33.591 35.2847 32.8656 35.3879 32.075H41.0466L45.538 35.7939C45.6455 35.8826 45.7754 35.9259 45.9044 35.9259C46.0697 35.9259 46.2339 35.8548 46.3478 35.7176C46.5505 35.473 46.5162 35.1105 46.2716 34.9078L42.8501 32.0746H46.425C46.7425 32.0746 47 31.8171 47 31.4996L46.9996 31.5009ZM30.9998 34.7767C29.1933 34.7767 27.724 33.307 27.724 31.5009C27.724 29.6948 29.1937 28.2251 30.9998 28.2251C32.8059 28.2251 34.2756 29.6948 34.2756 31.5009C34.2756 33.307 32.8059 34.7767 30.9998 34.7767Z" fill="#B5B5B5"/>
</svg>
