<svg width="84" height="113" viewBox="0 0 84 113" fill="none" xmlns="http://www.w3.org/2000/svg">
<g opacity="0.8">
<path d="M0.000935916 61.7289C0.772672 62.066 0.900541 62.5715 1.24531 62.9567C10.2094 73.0373 22.8416 79.306 39.3827 81.4716C42.1431 81.8339 44.9515 81.9933 47.7645 82.0781C48.8422 82.1113 49.1813 81.8522 49.1676 81.1025C49.1265 78.4107 49.1482 75.72 49.1653 73.0281C49.1653 72.7381 48.9598 72.3391 49.4085 72.1832C49.8685 72.0193 50.1608 72.3965 50.4725 72.5742C61.4493 78.8715 72.4101 85.1815 83.3926 91.472C84.1015 91.8755 84.2705 92.1243 83.4633 92.592C72.2651 99.1198 61.0851 105.664 49.9005 112.202C49.7852 112.271 49.6162 112.297 49.4735 112.343C48.9187 112.037 49.1676 111.621 49.1642 111.264C49.1425 108.995 49.0877 106.728 49.1836 104.459C49.2269 103.48 48.776 103.171 47.4197 103.02C31.8661 101.306 19.1164 96.248 10.037 86.9252C9.05179 85.9129 8.08939 84.8834 7.25257 83.7989C6.02418 82.2111 5.15997 80.4926 4.27063 78.7947C3.34021 77.0223 2.55819 75.2052 1.92687 73.364C1.89376 73.2643 1.8618 73.1634 1.82526 73.0637C0.373112 68.6935 -0.0127668 64.8013 0.000935916 61.7289Z" fill="white"/>
<path d="M83.9991 50.7633C83.2273 50.4262 83.0995 49.9206 82.7547 49.5354C73.7906 39.4549 61.1584 33.1862 44.6173 31.0206C41.8569 30.6583 39.0485 30.4989 36.2355 30.4141C35.1578 30.3808 34.8187 30.6399 34.8324 31.3897C34.8735 34.0815 34.8518 36.7722 34.8347 39.464C34.8347 39.7541 35.0402 40.153 34.5915 40.309C34.1315 40.4729 33.8392 40.0957 33.5275 39.918C22.5508 33.6207 11.5899 27.3107 0.60745 21.0202C-0.101503 20.6167 -0.270464 20.3679 0.536669 19.9002C11.7349 13.3724 22.9149 6.82853 34.0995 0.290425C34.2148 0.221639 34.3838 0.195271 34.5265 0.149413C35.0813 0.455511 34.8324 0.871666 34.8358 1.22821C34.8575 3.497 34.9123 5.76464 34.8164 8.03343C34.7731 9.01248 35.224 9.32088 36.5803 9.47221C52.1339 11.1861 64.8836 16.2442 73.963 25.567C74.9482 26.5793 75.9106 27.6088 76.7474 28.6933C77.9758 30.2811 78.84 31.9996 79.7294 33.6975C80.6598 35.4699 81.4418 37.287 82.0731 39.1281C82.1062 39.2279 82.1382 39.3288 82.1747 39.4285C83.6269 43.7987 84.0128 47.6908 83.9991 50.7633Z" fill="white"/>
</g>
</svg>
