<svg width="40" height="39" viewBox="0 0 40 39" fill="none" xmlns="http://www.w3.org/2000/svg">
<path d="M11.7344 32.2745C12.3037 35.0468 15.66 37.1726 19.7104 37.1726C23.7609 37.1726 27.2419 34.966 27.7164 32.123" stroke="#202020" stroke-width="1.5" stroke-linecap="round" stroke-linejoin="round"/>
<path d="M28.715 33.134L27.756 31.6191L26.2178 32.8916" stroke="#202020" stroke-width="1.5" stroke-linecap="round" stroke-linejoin="round"/>
<path d="M28.7145 6.72428C28.1451 3.95205 24.7889 1.82617 20.7384 1.82617C16.688 1.82617 13.2069 4.03285 12.7324 6.87577" stroke="#202020" stroke-width="1.5" stroke-linecap="round" stroke-linejoin="round"/>
<path d="M11.7344 5.86523L12.6933 7.38011L14.2316 6.10762" stroke="#202020" stroke-width="1.5" stroke-linecap="round" stroke-linejoin="round"/>
<path d="M15.9039 10.4102L12.1481 16.1566C11.9184 16.505 11.4939 16.6818 11.0494 16.6161L5.78027 16.0708" stroke="#202020" stroke-width="1.5" stroke-linecap="round" stroke-linejoin="round"/>
<path d="M38.8784 26.3223L31.9412 11.0876C31.7564 10.6735 31.3769 10.416 30.9573 10.416H15.8493L5.78563 16.0766L1.12088 26.3172C0.746298 27.1403 1.2807 28.1098 2.10477 28.1098H37.8945C38.7136 28.1149 39.253 27.1403 38.8784 26.3223Z" stroke="#202020" stroke-width="1.5" stroke-linecap="round" stroke-linejoin="round"/>
</svg>
