<svg width="43" height="43" viewBox="0 0 43 43" fill="none" xmlns="http://www.w3.org/2000/svg">
<path d="M21.0986 20.2C21.0986 22.9363 18.9424 25.1484 16.29 25.1484C13.6377 25.1484 11.4814 22.9363 11.4814 20.2C11.4814 19.3561 11.6913 18.5569 12.0539 17.8601L16.29 9.75977L20.5261 17.8601C20.8887 18.5569 21.0986 19.3561 21.0986 20.2Z" stroke="#202020" stroke-width="1.5" stroke-linecap="round" stroke-linejoin="round"/>
<path d="M16.29 22.8408C14.967 22.8408 13.8857 21.4598 13.8857 19.7656" stroke="#202020" stroke-width="1.5" stroke-linecap="round" stroke-linejoin="round"/>
<path d="M30.9766 22.2068C30.9766 24.259 29.4564 25.9149 27.5865 25.9149C25.7165 25.9149 24.1963 24.2526 24.1963 22.2068C24.1963 21.5738 24.3426 20.9729 24.597 20.4486L27.5865 14.375L30.5695 20.4486C30.824 20.9729 30.9703 21.5674 30.9703 22.2068H30.9766Z" stroke="#202020" stroke-width="1.5" stroke-linecap="round" stroke-linejoin="round"/>
<path d="M27.3703 24.183C26.3781 24.183 25.5703 23.1473 25.5703 21.875" stroke="#202020" stroke-width="1.5" stroke-linecap="round" stroke-linejoin="round"/>
<path d="M8.41602 32.8459C10.2415 32.8331 11.8634 31.3051 12.4995 28.9972V29.0355C13.1483 31.3371 14.7829 32.8523 16.6084 32.8395C18.4275 32.8267 20.0494 31.2987 20.6918 28.9908V29.0291C21.3406 31.3307 22.9753 32.8459 24.7944 32.8331C26.6199 32.8203 28.2418 31.2924 28.8842 28.9844V29.0227C29.533 31.3243 31.1613 32.8395 32.9868 32.8267" stroke="#202020" stroke-width="1.5" stroke-linecap="round" stroke-linejoin="round"/>
<path d="M42 14.5L40.0807 17.5L37 14.9847" stroke="#202020" stroke-width="1.5" stroke-linecap="round" stroke-linejoin="round"/>
<path d="M39.9745 26.1884C37.8883 34.9711 30.0793 41.5 20.7584 41.5C9.84885 41.5 1 32.5494 1 21.5C1 10.4506 9.84885 1.5 20.7584 1.5C30.1176 1.5 37.9585 8.08702 40 16.9343" stroke="#202020" stroke-width="1.5" stroke-linecap="round" stroke-linejoin="round"/>
</svg>
