<svg width="133" height="151" viewBox="0 0 133 151" fill="none" xmlns="http://www.w3.org/2000/svg">
<path d="M115.034 1.24609H129.671C130.869 1.24609 131.841 2.21855 131.841 3.41642V147.552C131.841 148.75 130.869 149.722 129.671 149.722H115.034" stroke="#918BB1" stroke-width="0.682983" stroke-miterlimit="10"/>
<path d="M117.204 3.91113H127.427C128.543 3.91113 129.45 4.84689 129.45 6.00283V144.961C129.45 146.117 128.543 147.053 127.427 147.053H117.204" stroke="#918BB1" stroke-width="0.512237" stroke-miterlimit="10"/>
<path d="M92.6904 1.24609H115.036C116.234 1.24609 117.206 2.21855 117.206 3.41642V147.552C117.206 148.75 116.234 149.722 115.036 149.722H92.6904" stroke="#759FA3" stroke-width="0.682983" stroke-miterlimit="10"/>
<path d="M94.8613 3.91113H112.79C113.907 3.91113 114.814 4.84689 114.814 6.00283V144.961C114.814 146.117 113.907 147.053 112.79 147.053H94.8613" stroke="#759FA3" stroke-width="0.512237" stroke-miterlimit="10"/>
<path d="M63.3919 149.725H26.0717C24.8738 149.725 23.9014 148.752 23.9014 147.555V3.41642C23.9014 2.21855 24.8738 1.24609 26.0717 1.24609H92.6913C93.8892 1.24609 94.8616 2.21855 94.8616 3.41642V147.552C94.8616 148.75 93.8892 149.722 92.6913 149.722H63.3919V149.725Z" stroke="#A49879" stroke-width="0.682983" stroke-miterlimit="10"/>
<path d="M63.1214 147.056H28.3175C27.2009 147.056 26.2939 146.12 26.2939 144.964V6.00576C26.2939 4.84982 27.2009 3.91406 28.3175 3.91406H90.4471C91.5637 3.91406 92.4706 4.84982 92.4706 6.00576V144.964C92.4706 146.12 91.5637 147.056 90.4471 147.056H63.124H63.1214Z" stroke="#A49879" stroke-width="0.512237" stroke-miterlimit="10"/>
<path d="M19.7916 1.26953H18.5309C17.6502 1.26953 16.9346 1.98249 16.9346 2.86582L16.9346 148.044C16.9346 148.925 17.6501 149.64 18.5309 149.64H19.7916" stroke="#D9D9D9" stroke-width="0.936578" stroke-miterlimit="10"/>
<path d="M11.0107 92.0166L11.0107 96.8584L10.1836 96.8584L8.2973 95.0023C7.92744 94.6392 7.60801 94.3366 7.33902 94.0945C7.06331 93.8524 6.80104 93.6708 6.55223 93.5498C6.29669 93.4288 6.02097 93.3682 5.72508 93.3682C5.35522 93.3682 5.0795 93.4758 4.89794 93.691C4.70964 93.9062 4.6155 94.1853 4.6155 94.5283C4.6155 94.8578 4.67938 95.1537 4.80715 95.4159C4.9282 95.6782 5.09968 95.9505 5.3216 96.233L4.60541 96.8079C4.43729 96.6129 4.28598 96.4045 4.15149 96.1825C4.01699 95.9539 3.9094 95.7017 3.8287 95.426C3.748 95.1436 3.70765 94.8342 3.70765 94.498C3.70765 94.0407 3.78835 93.6473 3.94975 93.3178C4.10441 92.9883 4.32633 92.7361 4.6155 92.5613C4.90466 92.3797 5.24426 92.2889 5.6343 92.2889C5.92346 92.2889 6.19581 92.3326 6.45136 92.42C6.70017 92.5075 6.94563 92.6352 7.18772 92.8034C7.42981 92.9647 7.67526 93.1631 7.92408 93.3985C8.17289 93.6339 8.43516 93.8928 8.71087 94.1752L10.0121 95.5168L10.0626 95.5168L10.0626 92.0166L11.0107 92.0166ZM9.95159 90.2053C10.187 90.2659 10.4425 90.3432 10.7182 90.4373C10.9939 90.5315 11.2663 90.6324 11.5353 90.74C11.811 90.8476 12.0699 90.9585 12.312 91.0728L12.312 91.8495C12.0497 91.7823 11.7706 91.7184 11.4748 91.6579C11.1856 91.5906 10.8998 91.5301 10.6173 91.4763C10.3349 91.4225 10.076 91.3788 9.84063 91.3452L9.84063 90.2759L9.95159 90.2053ZM7.39955 84.8417C7.9846 84.8417 8.50577 84.8888 8.96305 84.9829C9.42034 85.0704 9.81037 85.2116 10.1332 85.4066C10.4492 85.5949 10.6913 85.8471 10.8594 86.1631C11.0276 86.4725 11.1116 86.8457 11.1116 87.2828C11.1116 87.8342 10.9637 88.2882 10.6678 88.6446C10.3719 89.001 9.94823 89.2666 9.3968 89.4414C8.83864 89.6163 8.17289 89.7037 7.39955 89.7037C6.61947 89.7037 5.95372 89.6264 5.40229 89.4717C4.85086 89.3103 4.43057 89.0514 4.1414 88.695C3.84551 88.3386 3.69757 87.8679 3.69757 87.2828C3.69757 86.7314 3.84551 86.2774 4.1414 85.921C4.43057 85.5579 4.85086 85.2889 5.40229 85.1141C5.95372 84.9325 6.61947 84.8417 7.39955 84.8417ZM7.39955 88.6345C8.02495 88.6345 8.54612 88.5908 8.96305 88.5033C9.37999 88.4159 9.69269 88.2747 9.90116 88.0797C10.1096 87.8779 10.2139 87.6123 10.2139 87.2828C10.2139 86.9533 10.113 86.691 9.91124 86.496C9.70278 86.2943 9.39007 86.1497 8.97314 86.0623C8.54948 85.9681 8.02495 85.921 7.39955 85.921C6.77414 85.921 6.25634 85.9681 5.84613 86.0623C5.42919 86.1497 5.11649 86.2943 4.90802 86.496C4.69956 86.691 4.59532 86.9533 4.59532 87.2828C4.59532 87.6123 4.69956 87.8779 4.90802 88.0797C5.11649 88.2747 5.42919 88.4159 5.84613 88.5033C6.25634 88.5908 6.77414 88.6345 7.39955 88.6345ZM7.39955 79.7522C7.9846 79.7522 8.50577 79.7992 8.96305 79.8934C9.42034 79.9808 9.81037 80.122 10.1332 80.3171C10.4492 80.5053 10.6913 80.7575 10.8594 81.0736C11.0276 81.3829 11.1116 81.7562 11.1116 82.1933C11.1116 82.7447 10.9637 83.1986 10.6678 83.555C10.3719 83.9114 9.94823 84.1771 9.3968 84.3519C8.83864 84.5268 8.17289 84.6142 7.39955 84.6142C6.61947 84.6142 5.95372 84.5368 5.40229 84.3822C4.85086 84.2208 4.43057 83.9619 4.1414 83.6055C3.84551 83.249 3.69757 82.7783 3.69757 82.1933C3.69757 81.6418 3.84551 81.1879 4.1414 80.8315C4.43057 80.4684 4.85086 80.1994 5.40229 80.0245C5.95372 79.843 6.61947 79.7522 7.39955 79.7522ZM7.39955 83.5449C8.02495 83.5449 8.54612 83.5012 8.96305 83.4138C9.37999 83.3264 9.69269 83.1852 9.90116 82.9901C10.1096 82.7884 10.2139 82.5228 10.2139 82.1933C10.2139 81.8637 10.113 81.6015 9.91124 81.4065C9.70278 81.2047 9.39007 81.0601 8.97314 80.9727C8.54948 80.8786 8.02495 80.8315 7.39955 80.8315C6.77414 80.8315 6.25634 80.8786 5.84613 80.9727C5.42919 81.0601 5.11649 81.2047 4.90802 81.4065C4.69956 81.6015 4.59532 81.8637 4.59532 82.1933C4.59532 82.5228 4.69956 82.7884 4.90802 82.9901C5.11649 83.1852 5.42919 83.3264 5.84613 83.4138C6.25634 83.5012 6.77414 83.5449 7.39955 83.5449ZM7.39955 74.6626C7.9846 74.6626 8.50577 74.7097 8.96305 74.8039C9.42034 74.8913 9.81037 75.0325 10.1332 75.2275C10.4492 75.4158 10.6913 75.668 10.8594 75.9841C11.0276 76.2934 11.1116 76.6666 11.1116 77.1037C11.1116 77.6552 10.9637 78.1091 10.6678 78.4655C10.3719 78.8219 9.94823 79.0875 9.3968 79.2624C8.83864 79.4372 8.17289 79.5246 7.39955 79.5246C6.61947 79.5246 5.95372 79.4473 5.40229 79.2926C4.85086 79.1312 4.43057 78.8723 4.1414 78.5159C3.84551 78.1595 3.69757 77.6888 3.69757 77.1037C3.69757 76.5523 3.84551 76.0984 4.1414 75.742C4.43056 75.3788 4.85086 75.1098 5.40229 74.935C5.95372 74.7534 6.61947 74.6626 7.39955 74.6626ZM7.39955 78.4554C8.02495 78.4554 8.54612 78.4117 8.96305 78.3243C9.37999 78.2368 9.69269 78.0956 9.90116 77.9006C10.1096 77.6989 10.2139 77.4332 10.2139 77.1037C10.2139 76.7742 10.113 76.5119 9.91124 76.3169C9.70278 76.1152 9.39007 75.9706 8.97314 75.8832C8.54948 75.789 8.02495 75.742 7.39955 75.742C6.77414 75.742 6.25634 75.789 5.84613 75.8832C5.42919 75.9706 5.11649 76.1152 4.90802 76.3169C4.69956 76.5119 4.59532 76.7742 4.59532 77.1037C4.59532 77.4332 4.69956 77.6989 4.90802 77.9006C5.11649 78.0956 5.42919 78.2368 5.84613 78.3243C6.25634 78.4117 6.77414 78.4554 7.39955 78.4554ZM5.4729 67.9592C5.4729 67.3472 5.63093 66.8866 5.947 66.5772C6.26306 66.2679 6.77078 66.1132 7.47016 66.1132L11.0107 66.1132L11.0107 67.1824L7.61138 67.1824C7.19444 67.1824 6.88174 67.2665 6.67327 67.4346C6.45808 67.596 6.35048 67.8516 6.35048 68.2012C6.35048 68.6854 6.50179 69.0318 6.8044 69.2402C7.10029 69.4487 7.53068 69.5529 8.09556 69.5529L11.0107 69.5529L11.0107 70.6121L7.61138 70.6121C7.33566 70.6121 7.10366 70.6524 6.91536 70.7331C6.72707 70.8071 6.58585 70.918 6.4917 71.066C6.39756 71.2139 6.35048 71.4056 6.35048 71.641C6.35048 71.9772 6.42446 72.2428 6.5724 72.4378C6.72035 72.6329 6.9389 72.7741 7.22806 72.8615C7.5105 72.9422 7.85683 72.9825 8.26704 72.9825L11.0107 72.9825L11.0107 74.0518L5.57377 74.0518L5.57377 73.2045L6.30005 73.0532L6.30005 72.9926C6.11175 72.8783 5.95708 72.7405 5.83604 72.5791C5.71499 72.4109 5.62421 72.226 5.56369 72.0243C5.50316 71.8225 5.4729 71.6141 5.4729 71.3989C5.4729 70.9887 5.54687 70.6423 5.69482 70.3599C5.83604 70.0775 6.05459 69.8723 6.35048 69.7446L6.35048 69.6639C6.04787 69.489 5.82595 69.2469 5.68473 68.9376C5.54351 68.6283 5.4729 68.3021 5.4729 67.9592ZM5.4729 59.0672C5.4729 58.4553 5.63093 57.9946 5.947 57.6853C6.26306 57.376 6.77078 57.2213 7.47015 57.2213L11.0107 57.2213L11.0107 58.2905L7.61137 58.2905C7.19444 58.2905 6.88174 58.3746 6.67327 58.5427C6.45808 58.7041 6.35048 58.9596 6.35048 59.3093C6.35048 59.7935 6.50179 60.1398 6.8044 60.3483C7.10029 60.5568 7.53068 60.661 8.09556 60.661L11.0107 60.661L11.0107 61.7202L7.61138 61.7202C7.33566 61.7202 7.10366 61.7605 6.91536 61.8412C6.72707 61.9152 6.58585 62.0261 6.4917 62.1741C6.39756 62.322 6.35048 62.5137 6.35048 62.749C6.35048 63.0853 6.42446 63.3509 6.5724 63.5459C6.72034 63.7409 6.9389 63.8822 7.22806 63.9696C7.5105 64.0503 7.85683 64.0906 8.26704 64.0906L11.0107 64.0906L11.0107 65.1599L5.57377 65.1599L5.57377 64.3125L6.30005 64.1612L6.30005 64.1007C6.11175 63.9864 5.95708 63.8485 5.83604 63.6871C5.71499 63.519 5.62421 63.3341 5.56369 63.1324C5.50316 62.9306 5.4729 62.7221 5.4729 62.507C5.4729 62.0967 5.54687 61.7504 5.69482 61.468C5.83604 61.1855 6.05459 60.9804 6.35048 60.8527L6.35048 60.772C6.04787 60.5971 5.82595 60.355 5.68473 60.0457C5.54351 59.7364 5.4729 59.4102 5.4729 59.0672Z" fill="#A6A5A3"/>
<path d="M39.6493 45.7104C39.6493 46.1408 39.545 46.5073 39.3366 46.8099C39.1281 47.1125 38.8289 47.3479 38.4388 47.516C38.0488 47.6774 37.5848 47.7581 37.0468 47.7581C36.7845 47.7581 36.5323 47.7413 36.2903 47.7077C36.0482 47.6808 35.8229 47.6404 35.6144 47.5866C35.4059 47.5328 35.221 47.4656 35.0596 47.3849V46.356C35.3286 46.477 35.6447 46.588 36.0078 46.6889C36.371 46.783 36.7408 46.8301 37.1174 46.8301C37.4402 46.8301 37.7092 46.7864 37.9244 46.6989C38.1396 46.6115 38.301 46.4905 38.4086 46.3358C38.5162 46.1811 38.5699 45.9996 38.5699 45.7911C38.5699 45.5692 38.5128 45.3843 38.3985 45.2363C38.2909 45.0816 38.1194 44.9404 37.884 44.8127C37.6554 44.6782 37.346 44.5369 36.956 44.389C36.687 44.2881 36.4416 44.1772 36.2196 44.0561C36.0045 43.9283 35.8128 43.7804 35.6447 43.6123C35.4833 43.4442 35.3589 43.2491 35.2715 43.0272C35.184 42.8053 35.1403 42.5464 35.1403 42.2505C35.1403 41.8538 35.2378 41.5142 35.4328 41.2317C35.6346 40.9493 35.9103 40.7341 36.26 40.5861C36.6097 40.4315 37.0165 40.3541 37.4805 40.3541C37.8706 40.3541 38.2303 40.3945 38.5599 40.4752C38.8961 40.5492 39.2155 40.6534 39.5181 40.7879L39.1752 41.6856C38.8995 41.5713 38.6204 41.4772 38.3379 41.4032C38.0555 41.3292 37.7596 41.2922 37.4503 41.2922C37.1813 41.2922 36.956 41.3326 36.7744 41.4133C36.5929 41.494 36.455 41.6049 36.3609 41.7462C36.2734 41.8874 36.2297 42.0521 36.2297 42.2404C36.2297 42.4624 36.2802 42.6473 36.381 42.7952C36.4819 42.9432 36.6433 43.081 36.8652 43.2088C37.0871 43.3298 37.3797 43.4643 37.7428 43.6123C38.1463 43.767 38.4893 43.9351 38.7717 44.1166C39.0609 44.2982 39.2794 44.5168 39.4274 44.7723C39.5753 45.0211 39.6493 45.3338 39.6493 45.7104ZM42.0415 47.0621C42.0415 46.7998 42.1087 46.6149 42.2432 46.5073C42.3777 46.3997 42.5391 46.3459 42.7274 46.3459C42.9224 46.3459 43.0872 46.3997 43.2217 46.5073C43.3562 46.6149 43.4234 46.7998 43.4234 47.0621C43.4234 47.3244 43.3562 47.5126 43.2217 47.627C43.0872 47.7413 42.9224 47.7984 42.7274 47.7984C42.5391 47.7984 42.3777 47.7413 42.2432 47.627C42.1087 47.5126 42.0415 47.3244 42.0415 47.0621ZM42.0415 42.8255C42.0415 42.5498 42.1087 42.3581 42.2432 42.2505C42.3777 42.1429 42.5391 42.0891 42.7274 42.0891C42.9224 42.0891 43.0872 42.1429 43.2217 42.2505C43.3562 42.3581 43.4234 42.5498 43.4234 42.8255C43.4234 43.081 43.3562 43.266 43.2217 43.3803C43.0872 43.4946 42.9224 43.5518 42.7274 43.5518C42.5391 43.5518 42.3777 43.4946 42.2432 43.3803C42.1087 43.266 42.0415 43.081 42.0415 42.8255ZM49.1205 47.6572H48.0613V42.8759C48.0613 42.7078 48.0613 42.5531 48.0613 42.4119C48.0681 42.264 48.0748 42.1228 48.0815 41.9883C48.0882 41.847 48.095 41.7125 48.1017 41.5848C48.0143 41.6722 47.9235 41.7563 47.8293 41.8369C47.7352 41.9176 47.6276 42.0118 47.5065 42.1194L46.7198 42.7549L46.175 42.069L48.2328 40.455H49.1205V47.6572ZM52.4851 46.5981C52.4246 46.8334 52.3473 47.089 52.2531 47.3647C52.159 47.6404 52.0581 47.9128 51.9505 48.1818C51.8429 48.4575 51.732 48.7164 51.6176 48.9585H50.8409C50.9082 48.6962 50.9721 48.4171 51.0326 48.1212C51.0998 47.8321 51.1604 47.5463 51.2141 47.2638C51.2679 46.9814 51.3117 46.7225 51.3453 46.4871H52.4145L52.4851 46.5981ZM56.2852 47.6572H55.2261V42.8759C55.2261 42.7078 55.2261 42.5531 55.2261 42.4119C55.2328 42.264 55.2395 42.1228 55.2463 41.9883C55.253 41.847 55.2597 41.7125 55.2664 41.5848C55.179 41.6722 55.0882 41.7563 54.9941 41.8369C54.8999 41.9176 54.7923 42.0118 54.6713 42.1194L53.8845 42.7549L53.3398 42.069L55.3976 40.455H56.2852V47.6572ZM62.9383 44.046C62.9383 44.6311 62.8912 45.1523 62.7971 45.6095C62.7096 46.0668 62.5684 46.4569 62.3734 46.7796C62.1851 47.0957 61.9329 47.3378 61.6169 47.5059C61.3075 47.674 60.9343 47.7581 60.4972 47.7581C59.9458 47.7581 59.4919 47.6102 59.1354 47.3143C58.779 47.0184 58.5134 46.5947 58.3386 46.0433C58.1637 45.4851 58.0763 44.8194 58.0763 44.046C58.0763 43.266 58.1536 42.6002 58.3083 42.0488C58.4697 41.4973 58.7286 41.0771 59.085 40.7879C59.4414 40.492 59.9122 40.3441 60.4972 40.3441C61.0486 40.3441 61.5026 40.492 61.859 40.7879C62.2221 41.0771 62.4911 41.4973 62.6659 42.0488C62.8475 42.6002 62.9383 43.266 62.9383 44.046ZM59.1455 44.046C59.1455 44.6714 59.1892 45.1926 59.2767 45.6095C59.3641 46.0265 59.5053 46.3392 59.7003 46.5476C59.9021 46.7561 60.1677 46.8603 60.4972 46.8603C60.8267 46.8603 61.089 46.7595 61.284 46.5577C61.4857 46.3493 61.6303 46.0366 61.7177 45.6196C61.8119 45.196 61.859 44.6714 61.859 44.046C61.859 43.4206 61.8119 42.9028 61.7177 42.4926C61.6303 42.0757 61.4857 41.763 61.284 41.5545C61.089 41.346 60.8267 41.2418 60.4972 41.2418C60.1677 41.2418 59.9021 41.346 59.7003 41.5545C59.5053 41.763 59.3641 42.0757 59.2767 42.4926C59.1892 42.9028 59.1455 43.4206 59.1455 44.046ZM68.0278 44.046C68.0278 44.6311 67.9808 45.1523 67.8866 45.6095C67.7992 46.0668 67.658 46.4569 67.463 46.7796C67.2747 47.0957 67.0225 47.3378 66.7064 47.5059C66.3971 47.674 66.0239 47.7581 65.5867 47.7581C65.0353 47.7581 64.5814 47.6102 64.225 47.3143C63.8686 47.0184 63.6029 46.5947 63.4281 46.0433C63.2533 45.4851 63.1658 44.8194 63.1658 44.046C63.1658 43.266 63.2432 42.6002 63.3978 42.0488C63.5592 41.4973 63.8181 41.0771 64.1745 40.7879C64.531 40.492 65.0017 40.3441 65.5867 40.3441C66.1382 40.3441 66.5921 40.492 66.9485 40.7879C67.3116 41.0771 67.5806 41.4973 67.7555 42.0488C67.937 42.6002 68.0278 43.266 68.0278 44.046ZM64.2351 44.046C64.2351 44.6714 64.2788 45.1926 64.3662 45.6095C64.4536 46.0265 64.5948 46.3392 64.7899 46.5476C64.9916 46.7561 65.2572 46.8603 65.5867 46.8603C65.9163 46.8603 66.1785 46.7595 66.3735 46.5577C66.5753 46.3493 66.7199 46.0366 66.8073 45.6196C66.9014 45.196 66.9485 44.6714 66.9485 44.046C66.9485 43.4206 66.9014 42.9028 66.8073 42.4926C66.7199 42.0757 66.5753 41.763 66.3735 41.5545C66.1785 41.346 65.9163 41.2418 65.5867 41.2418C65.2572 41.2418 64.9916 41.346 64.7899 41.5545C64.5948 41.763 64.4536 42.0757 64.3662 42.4926C64.2788 42.9028 64.2351 43.4206 64.2351 44.046ZM74.7313 42.1194C75.3433 42.1194 75.8039 42.2774 76.1133 42.5935C76.4226 42.9095 76.5773 43.4173 76.5773 44.1166V47.6572H75.508V44.2579C75.508 43.8409 75.424 43.5282 75.2558 43.3198C75.0944 43.1046 74.8389 42.997 74.4892 42.997C74.005 42.997 73.6587 43.1483 73.4502 43.4509C73.2418 43.7468 73.1375 44.1772 73.1375 44.742V47.6572H72.0784V44.2579C72.0784 43.9821 72.038 43.7501 71.9573 43.5618C71.8834 43.3736 71.7724 43.2323 71.6245 43.1382C71.4765 43.044 71.2849 42.997 71.0495 42.997C70.7133 42.997 70.4476 43.0709 70.2526 43.2189C70.0576 43.3668 69.9164 43.5854 69.829 43.8745C69.7483 44.157 69.7079 44.5033 69.7079 44.9135V47.6572H68.6387V42.2203H69.486L69.6373 42.9465H69.6978C69.8122 42.7582 69.95 42.6036 70.1114 42.4825C70.2795 42.3615 70.4645 42.2707 70.6662 42.2102C70.8679 42.1496 71.0764 42.1194 71.2916 42.1194C71.7018 42.1194 72.0481 42.1934 72.3306 42.3413C72.613 42.4825 72.8181 42.7011 72.9459 42.997H73.0266C73.2014 42.6944 73.4435 42.4724 73.7529 42.3312C74.0622 42.19 74.3883 42.1194 74.7313 42.1194ZM83.6232 42.1194C84.2352 42.1194 84.6958 42.2774 85.0052 42.5935C85.3145 42.9095 85.4692 43.4173 85.4692 44.1166V47.6572H84.3999V44.2579C84.3999 43.8409 84.3159 43.5282 84.1478 43.3198C83.9864 43.1046 83.7308 42.997 83.3811 42.997C82.897 42.997 82.5506 43.1483 82.3422 43.4509C82.1337 43.7468 82.0295 44.1772 82.0295 44.742V47.6572H80.9703V44.2579C80.9703 43.9821 80.93 43.7501 80.8493 43.5618C80.7753 43.3736 80.6643 43.2323 80.5164 43.1382C80.3684 43.044 80.1768 42.997 79.9414 42.997C79.6052 42.997 79.3396 43.0709 79.1445 43.2189C78.9495 43.3668 78.8083 43.5854 78.7209 43.8745C78.6402 44.157 78.5998 44.5033 78.5998 44.9135V47.6572H77.5306V42.2203H78.3779L78.5292 42.9465H78.5897C78.7041 42.7582 78.8419 42.6036 79.0033 42.4825C79.1714 42.3615 79.3564 42.2707 79.5581 42.2102C79.7599 42.1496 79.9683 42.1194 80.1835 42.1194C80.5937 42.1194 80.94 42.1934 81.2225 42.3413C81.5049 42.4825 81.71 42.7011 81.8378 42.997H81.9185C82.0933 42.6944 82.3354 42.4724 82.6448 42.3312C82.9541 42.19 83.2803 42.1194 83.6232 42.1194Z" fill="#A49879"/>
<path d="M94.4209 51.4805L91.006 49.5089V53.4521L94.4209 51.4805ZM24.1964 51.4805L27.6113 53.4521V49.5089L24.1964 51.4805ZM91.3475 51.4805V51.139L27.2698 51.139V51.4805V51.822L91.3475 51.822V51.4805Z" fill="#A49879"/>
<path d="M39.4444 72.7521C39.4444 73.3237 39.3705 73.8449 39.2225 74.3156C39.0746 74.7796 38.8526 75.1764 38.5568 75.5059C38.2609 75.8354 37.891 76.0808 37.4472 76.2422L39.1721 78.0781H37.6792L36.3073 76.4541C36.2737 76.4541 36.2367 76.4541 36.1964 76.4541C36.1627 76.4608 36.1291 76.4642 36.0955 76.4642C35.5239 76.4642 35.0263 76.3767 34.6026 76.2019C34.1857 76.0203 33.836 75.7681 33.5535 75.4454C33.2778 75.1158 33.0727 74.7224 32.9382 74.2652C32.8037 73.8079 32.7365 73.3002 32.7365 72.742C32.7365 72.0023 32.8575 71.3567 33.0996 70.8053C33.3417 70.2538 33.7116 69.8235 34.2092 69.5141C34.7136 69.2048 35.3457 69.0501 36.1056 69.0501C36.8453 69.0501 37.4606 69.2048 37.9515 69.5141C38.4492 69.8167 38.8224 70.2471 39.0712 70.8053C39.32 71.3567 39.4444 72.0056 39.4444 72.7521ZM33.8864 72.7521C33.8864 73.3304 33.9637 73.828 34.1184 74.245C34.2731 74.6552 34.5152 74.9746 34.8447 75.2033C35.1742 75.4252 35.5911 75.5361 36.0955 75.5361C36.6066 75.5361 37.0235 75.4252 37.3463 75.2033C37.6691 74.9746 37.9078 74.6552 38.0625 74.245C38.2172 73.828 38.2945 73.3304 38.2945 72.7521C38.2945 71.8846 38.1196 71.2088 37.77 70.7246C37.427 70.2337 36.8722 69.9882 36.1056 69.9882C35.5945 69.9882 35.1742 70.0992 34.8447 70.3211C34.5152 70.543 34.2731 70.8591 34.1184 71.2693C33.9637 71.6795 33.8864 72.1738 33.8864 72.7521ZM41.9915 75.7681C41.9915 75.5059 42.0587 75.3209 42.1932 75.2133C42.3277 75.1058 42.4891 75.052 42.6774 75.052C42.8724 75.052 43.0372 75.1058 43.1717 75.2133C43.3062 75.3209 43.3734 75.5059 43.3734 75.7681C43.3734 76.0304 43.3062 76.2187 43.1717 76.333C43.0372 76.4473 42.8724 76.5045 42.6774 76.5045C42.4891 76.5045 42.3277 76.4473 42.1932 76.333C42.0587 76.2187 41.9915 76.0304 41.9915 75.7681ZM41.9915 71.5315C41.9915 71.2558 42.0587 71.0642 42.1932 70.9566C42.3277 70.849 42.4891 70.7952 42.6774 70.7952C42.8724 70.7952 43.0372 70.849 43.1717 70.9566C43.3062 71.0642 43.3734 71.2558 43.3734 71.5315C43.3734 71.7871 43.3062 71.972 43.1717 72.0863C43.0372 72.2007 42.8724 72.2578 42.6774 72.2578C42.4891 72.2578 42.3277 72.2007 42.1932 72.0863C42.0587 71.972 41.9915 71.7871 41.9915 71.5315ZM49.0705 76.3633H48.0113V71.582C48.0113 71.4139 48.0113 71.2592 48.0113 71.118C48.0181 70.97 48.0248 70.8288 48.0315 70.6943C48.0382 70.5531 48.045 70.4186 48.0517 70.2908C47.9643 70.3782 47.8735 70.4623 47.7793 70.543C47.6852 70.6237 47.5776 70.7178 47.4566 70.8254L46.6698 71.4609L46.1251 70.775L48.1828 69.1611H49.0705V76.3633ZM52.4351 75.3041C52.3746 75.5395 52.2973 75.795 52.2031 76.0708C52.109 76.3465 52.0081 76.6188 51.9005 76.8878C51.7929 77.1635 51.682 77.4224 51.5676 77.6645H50.7909C50.8582 77.4023 50.9221 77.1232 50.9826 76.8273C51.0498 76.5381 51.1104 76.2523 51.1642 75.9699C51.218 75.6874 51.2617 75.4285 51.2953 75.1932H52.3645L52.4351 75.3041ZM55.3274 71.8947C55.8049 71.8947 56.2218 71.9787 56.5782 72.1469C56.9346 72.315 57.2103 72.5571 57.4054 72.8731C57.6071 73.1892 57.708 73.5759 57.708 74.0332C57.708 74.5375 57.6004 74.9713 57.3852 75.3344C57.17 75.6975 56.8573 75.9766 56.4471 76.1716C56.0436 76.3666 55.5493 76.4642 54.9643 76.4642C54.5944 76.4642 54.2447 76.4305 53.9152 76.3633C53.5857 76.296 53.3066 76.1985 53.078 76.0708V75.0923C53.3201 75.2335 53.6126 75.3478 53.9556 75.4353C54.3052 75.5227 54.6381 75.5664 54.9542 75.5664C55.2971 75.5664 55.5897 75.516 55.8318 75.4151C56.0806 75.3075 56.2722 75.1495 56.4067 74.941C56.548 74.7258 56.6186 74.4568 56.6186 74.134C56.6186 73.6969 56.4807 73.364 56.205 73.1354C55.936 72.9 55.509 72.7823 54.9239 72.7823C54.7356 72.7823 54.5238 72.7992 54.2884 72.8328C54.0598 72.8664 53.8749 72.9 53.7336 72.9337L53.2394 72.6411L53.5117 69.1611H57.2137V70.1093H54.4397L54.2783 71.9956C54.3927 71.9754 54.5373 71.9552 54.7121 71.935C54.8869 71.9081 55.092 71.8947 55.3274 71.8947ZM60.4169 71.8947C60.8944 71.8947 61.3113 71.9787 61.6678 72.1469C62.0242 72.315 62.2999 72.5571 62.4949 72.8731C62.6966 73.1892 62.7975 73.5759 62.7975 74.0332C62.7975 74.5375 62.6899 74.9713 62.4747 75.3344C62.2595 75.6975 61.9468 75.9766 61.5366 76.1716C61.1331 76.3666 60.6389 76.4642 60.0538 76.4642C59.684 76.4642 59.3343 76.4305 59.0047 76.3633C58.6752 76.296 58.3962 76.1985 58.1675 76.0708V75.0923C58.4096 75.2335 58.7021 75.3478 59.0451 75.4353C59.3948 75.5227 59.7277 75.5664 60.0437 75.5664C60.3867 75.5664 60.6792 75.516 60.9213 75.4151C61.1701 75.3075 61.3618 75.1495 61.4963 74.941C61.6375 74.7258 61.7081 74.4568 61.7081 74.134C61.7081 73.6969 61.5702 73.364 61.2945 73.1354C61.0255 72.9 60.5985 72.7823 60.0135 72.7823C59.8252 72.7823 59.6133 72.7992 59.378 72.8328C59.1493 72.8664 58.9644 72.9 58.8232 72.9337L58.3289 72.6411L58.6013 69.1611H62.3032V70.1093H59.5293L59.3679 71.9956C59.4822 71.9754 59.6268 71.9552 59.8016 71.935C59.9765 71.9081 60.1816 71.8947 60.4169 71.8947ZM67.9778 72.7521C67.9778 73.3371 67.9308 73.8583 67.8366 74.3156C67.7492 74.7729 67.608 75.1629 67.413 75.4857C67.2247 75.8018 66.9725 76.0439 66.6564 76.212C66.3471 76.3801 65.9739 76.4642 65.5367 76.4642C64.9853 76.4642 64.5314 76.3162 64.175 76.0203C63.8186 75.7244 63.5529 75.3008 63.3781 74.7493C63.2033 74.1912 63.1158 73.5254 63.1158 72.7521C63.1158 71.972 63.1932 71.3063 63.3478 70.7548C63.5092 70.2034 63.7681 69.7831 64.1245 69.4939C64.481 69.1981 64.9517 69.0501 65.5367 69.0501C66.0882 69.0501 66.5421 69.1981 66.8985 69.4939C67.2616 69.7831 67.5306 70.2034 67.7055 70.7548C67.8871 71.3063 67.9778 71.972 67.9778 72.7521ZM64.1851 72.7521C64.1851 73.3775 64.2288 73.8987 64.3162 74.3156C64.4036 74.7325 64.5448 75.0452 64.7399 75.2537C64.9416 75.4622 65.2072 75.5664 65.5367 75.5664C65.8663 75.5664 66.1285 75.4655 66.3235 75.2638C66.5253 75.0553 66.6699 74.7426 66.7573 74.3257C66.8514 73.902 66.8985 73.3775 66.8985 72.7521C66.8985 72.1267 66.8514 71.6089 66.7573 71.1987C66.6699 70.7817 66.5253 70.469 66.3235 70.2606C66.1285 70.0521 65.8663 69.9479 65.5367 69.9479C65.2072 69.9479 64.9416 70.0521 64.7399 70.2606C64.5448 70.469 64.4036 70.7817 64.3162 71.1987C64.2288 71.6089 64.1851 72.1267 64.1851 72.7521ZM74.6813 70.8254C75.2933 70.8254 75.7539 70.9835 76.0633 71.2995C76.3726 71.6156 76.5273 72.1233 76.5273 72.8227V76.3633H75.458V72.9639C75.458 72.547 75.374 72.2343 75.2059 72.0258C75.0445 71.8106 74.7889 71.703 74.4392 71.703C73.955 71.703 73.6087 71.8543 73.4003 72.1569C73.1918 72.4528 73.0876 72.8832 73.0876 73.4481V76.3633H72.0284V72.9639C72.0284 72.6882 71.9881 72.4562 71.9074 72.2679C71.8334 72.0796 71.7224 71.9384 71.5745 71.8442C71.4265 71.7501 71.2349 71.703 70.9995 71.703C70.6633 71.703 70.3976 71.777 70.2026 71.9249C70.0076 72.0729 69.8664 72.2914 69.779 72.5806C69.6983 72.863 69.6579 73.2094 69.6579 73.6196V76.3633H68.5887V70.9263H69.436L69.5873 71.6526H69.6478C69.7622 71.4643 69.9 71.3096 70.0614 71.1886C70.2295 71.0675 70.4145 70.9767 70.6162 70.9162C70.8179 70.8557 71.0264 70.8254 71.2416 70.8254C71.6518 70.8254 71.9981 70.8994 72.2806 71.0474C72.563 71.1886 72.7681 71.4071 72.8959 71.703H72.9766C73.1514 71.4004 73.3935 71.1785 73.7029 71.0373C74.0122 70.8961 74.3384 70.8254 74.6813 70.8254ZM83.5732 70.8254C84.1852 70.8254 84.6458 70.9835 84.9552 71.2995C85.2645 71.6156 85.4192 72.1233 85.4192 72.8227V76.3633H84.3499V72.9639C84.3499 72.547 84.2659 72.2343 84.0978 72.0258C83.9364 71.8106 83.6808 71.703 83.3311 71.703C82.847 71.703 82.5006 71.8543 82.2922 72.1569C82.0837 72.4528 81.9795 72.8832 81.9795 73.4481V76.3633H80.9203V72.9639C80.9203 72.6882 80.88 72.4562 80.7993 72.2679C80.7253 72.0796 80.6143 71.9384 80.4664 71.8442C80.3185 71.7501 80.1268 71.703 79.8914 71.703C79.5552 71.703 79.2896 71.777 79.0945 71.9249C78.8995 72.0729 78.7583 72.2914 78.6709 72.5806C78.5902 72.863 78.5498 73.2094 78.5498 73.6196V76.3633H77.4806V70.9263H78.3279L78.4792 71.6526H78.5398C78.6541 71.4643 78.7919 71.3096 78.9533 71.1886C79.1214 71.0675 79.3064 70.9767 79.5081 70.9162C79.7099 70.8557 79.9183 70.8254 80.1335 70.8254C80.5437 70.8254 80.8901 70.8994 81.1725 71.0474C81.4549 71.1886 81.66 71.4071 81.7878 71.703H81.8685C82.0434 71.4004 82.2854 71.1785 82.5948 71.0373C82.9041 70.8961 83.2303 70.8254 83.5732 70.8254Z" fill="#759FA3"/>
<path d="M116.979 80.1855L113.564 78.2139V82.1571L116.979 80.1855ZM24.2001 80.1855L27.615 82.1571V78.2139L24.2001 80.1855ZM113.905 80.1855V79.8441L27.2735 79.8441V80.1855V80.527L113.905 80.527V80.1855Z" fill="#759FA3"/>
<path d="M39.0437 105.066H37.7828L35.4224 101.748L34.7163 102.333V105.066H33.6269V97.8642H34.7163V101.344C34.8912 101.136 35.066 100.931 35.2409 100.729C35.4157 100.527 35.5906 100.325 35.7654 100.124L37.7122 97.8642H38.963L36.2092 101.011L39.0437 105.066ZM40.9823 104.471C40.9823 104.209 41.0496 104.024 41.1841 103.916C41.3186 103.809 41.48 103.755 41.6682 103.755C41.8633 103.755 42.028 103.809 42.1625 103.916C42.297 104.024 42.3643 104.209 42.3643 104.471C42.3643 104.734 42.297 104.922 42.1625 105.036C42.028 105.15 41.8633 105.208 41.6682 105.208C41.48 105.208 41.3186 105.15 41.1841 105.036C41.0496 104.922 40.9823 104.734 40.9823 104.471ZM40.9823 100.235C40.9823 99.959 41.0496 99.7673 41.1841 99.6597C41.3186 99.5521 41.48 99.4983 41.6682 99.4983C41.8633 99.4983 42.028 99.5521 42.1625 99.6597C42.297 99.7673 42.3643 99.959 42.3643 100.235C42.3643 100.49 42.297 100.675 42.1625 100.789C42.028 100.904 41.8633 100.961 41.6682 100.961C41.48 100.961 41.3186 100.904 41.1841 100.789C41.0496 100.675 40.9823 100.49 40.9823 100.235ZM48.0613 105.066H47.0022V100.285C47.0022 100.117 47.0022 99.9623 47.0022 99.8211C47.0089 99.6731 47.0156 99.5319 47.0224 99.3974C47.0291 99.2562 47.0358 99.1217 47.0425 98.9939C46.9551 99.0814 46.8643 99.1654 46.7702 99.2461C46.676 99.3268 46.5684 99.421 46.4474 99.5286L45.6606 100.164L45.1159 99.4781L47.1737 97.8642H48.0613V105.066ZM51.426 104.007C51.3655 104.243 51.2881 104.498 51.194 104.774C51.0998 105.05 50.999 105.322 50.8914 105.591C50.7838 105.867 50.6728 106.126 50.5585 106.368H49.7818C49.849 106.105 49.9129 105.826 49.9734 105.53C50.0407 105.241 50.1012 104.955 50.155 104.673C50.2088 104.391 50.2525 104.132 50.2861 103.896H51.3554L51.426 104.007ZM52.7749 105.066L55.6498 98.8124H51.8671V97.8642H56.7997V98.6308L53.9349 105.066H52.7749ZM61.8791 101.455C61.8791 102.04 61.8321 102.561 61.7379 103.019C61.6505 103.476 61.5093 103.866 61.3143 104.189C61.126 104.505 60.8738 104.747 60.5577 104.915C60.2484 105.083 59.8752 105.167 59.4381 105.167C58.8866 105.167 58.4327 105.019 58.0763 104.723C57.7199 104.428 57.4542 104.004 57.2794 103.452C57.1046 102.894 57.0171 102.229 57.0171 101.455C57.0171 100.675 57.0945 100.009 57.2491 99.458C57.4105 98.9065 57.6694 98.4862 58.0259 98.1971C58.3823 97.9012 58.853 97.7532 59.4381 97.7532C59.9895 97.7532 60.4434 97.9012 60.7998 98.1971C61.163 98.4862 61.4319 98.9065 61.6068 99.458C61.7884 100.009 61.8791 100.675 61.8791 101.455ZM58.0864 101.455C58.0864 102.081 58.1301 102.602 58.2175 103.019C58.3049 103.436 58.4462 103.748 58.6412 103.957C58.8429 104.165 59.1085 104.27 59.4381 104.27C59.7676 104.27 60.0298 104.169 60.2248 103.967C60.4266 103.758 60.5712 103.446 60.6586 103.029C60.7527 102.605 60.7998 102.081 60.7998 101.455C60.7998 100.83 60.7527 100.312 60.6586 99.9018C60.5712 99.4849 60.4266 99.1722 60.2248 98.9637C60.0298 98.7552 59.7676 98.651 59.4381 98.651C59.1085 98.651 58.8429 98.7552 58.6412 98.9637C58.4462 99.1722 58.3049 99.4849 58.2175 99.9018C58.1301 100.312 58.0864 100.83 58.0864 101.455ZM66.9687 101.455C66.9687 102.04 66.9216 102.561 66.8275 103.019C66.74 103.476 66.5988 103.866 66.4038 104.189C66.2155 104.505 65.9633 104.747 65.6473 104.915C65.3379 105.083 64.9647 105.167 64.5276 105.167C63.9762 105.167 63.5222 105.019 63.1658 104.723C62.8094 104.428 62.5438 104.004 62.3689 103.452C62.1941 102.894 62.1067 102.229 62.1067 101.455C62.1067 100.675 62.184 100.009 62.3387 99.458C62.5001 98.9065 62.759 98.4862 63.1154 98.1971C63.4718 97.9012 63.9425 97.7532 64.5276 97.7532C65.079 97.7532 65.5329 97.9012 65.8894 98.1971C66.2525 98.4862 66.5215 98.9065 66.6963 99.458C66.8779 100.009 66.9687 100.675 66.9687 101.455ZM63.1759 101.455C63.1759 102.081 63.2196 102.602 63.307 103.019C63.3945 103.436 63.5357 103.748 63.7307 103.957C63.9324 104.165 64.1981 104.27 64.5276 104.27C64.8571 104.27 65.1194 104.169 65.3144 103.967C65.5161 103.758 65.6607 103.446 65.7481 103.029C65.8423 102.605 65.8894 102.081 65.8894 101.455C65.8894 100.83 65.8423 100.312 65.7481 99.9018C65.6607 99.4849 65.5161 99.1722 65.3144 98.9637C65.1194 98.7552 64.8571 98.651 64.5276 98.651C64.1981 98.651 63.9324 98.7552 63.7307 98.9637C63.5357 99.1722 63.3945 99.4849 63.307 99.9018C63.2196 100.312 63.1759 100.83 63.1759 101.455ZM73.6722 99.5286C74.2841 99.5286 74.7448 99.6866 75.0541 100.003C75.3634 100.319 75.5181 100.826 75.5181 101.526V105.066H74.4489V101.667C74.4489 101.25 74.3648 100.937 74.1967 100.729C74.0353 100.514 73.7798 100.406 73.4301 100.406C72.9459 100.406 72.5996 100.557 72.3911 100.86C72.1826 101.156 72.0784 101.586 72.0784 102.151V105.066H71.0192V101.667C71.0192 101.391 70.9789 101.159 70.8982 100.971C70.8242 100.783 70.7133 100.642 70.5653 100.547C70.4174 100.453 70.2257 100.406 69.9904 100.406C69.6541 100.406 69.3885 100.48 69.1935 100.628C68.9985 100.776 68.8572 100.995 68.7698 101.284C68.6891 101.566 68.6488 101.912 68.6488 102.323V105.066H67.5795V99.6294H68.4269L68.5782 100.356H68.6387C68.753 100.167 68.8909 100.013 69.0523 99.8917C69.2204 99.7707 69.4053 99.6799 69.607 99.6194C69.8088 99.5588 70.0173 99.5286 70.2324 99.5286C70.6427 99.5286 70.989 99.6025 71.2714 99.7505C71.5539 99.8917 71.759 100.11 71.8867 100.406H71.9674C72.1423 100.104 72.3844 99.8816 72.6937 99.7404C73.003 99.5992 73.3292 99.5286 73.6722 99.5286ZM82.5641 99.5286C83.176 99.5286 83.6367 99.6866 83.946 100.003C84.2554 100.319 84.41 100.826 84.41 101.526V105.066H83.3408V101.667C83.3408 101.25 83.2567 100.937 83.0886 100.729C82.9272 100.514 82.6717 100.406 82.322 100.406C81.8378 100.406 81.4915 100.557 81.283 100.86C81.0745 101.156 80.9703 101.586 80.9703 102.151V105.066H79.9112V101.667C79.9112 101.391 79.8708 101.159 79.7901 100.971C79.7161 100.783 79.6052 100.642 79.4572 100.547C79.3093 100.453 79.1176 100.406 78.8823 100.406C78.546 100.406 78.2804 100.48 78.0854 100.628C77.8904 100.776 77.7491 100.995 77.6617 101.284C77.581 101.566 77.5407 101.912 77.5407 102.323V105.066H76.4714V99.6294H77.3188L77.4701 100.356H77.5306C77.6449 100.167 77.7828 100.013 77.9442 99.8917C78.1123 99.7707 78.2972 99.6799 78.499 99.6194C78.7007 99.5588 78.9092 99.5286 79.1244 99.5286C79.5346 99.5286 79.8809 99.6025 80.1633 99.7505C80.4458 99.8917 80.6509 100.11 80.7787 100.406H80.8593C81.0342 100.104 81.2763 99.8816 81.5856 99.7404C81.895 99.5992 82.2211 99.5286 82.5641 99.5286Z" fill="#918BB1"/>
<path d="M131.331 108.888L127.916 106.916V110.859L131.331 108.888ZM24.2002 108.888L27.6151 110.859V106.916L24.2002 108.888ZM128.258 108.888V108.546L27.2736 108.546V108.888V109.229L128.258 109.229V108.888Z" fill="#918BB1"/>
</svg>
