<svg width="193" height="149" viewBox="0 0 193 149" fill="none" xmlns="http://www.w3.org/2000/svg">
<path d="M161.2 73.6211H160.176V68.9996C160.176 68.8371 160.176 68.6876 160.176 68.5511C160.183 68.4081 160.189 68.2716 160.196 68.1416C160.202 68.0051 160.209 67.8751 160.215 67.7516C160.131 67.8361 160.043 67.9173 159.952 67.9953C159.861 68.0733 159.757 68.1643 159.64 68.2683L158.88 68.8826L158.353 68.2196L160.342 66.6596H161.2V73.6211ZM165.737 66.5621C166.146 66.5621 166.51 66.6271 166.829 66.7571C167.147 66.8806 167.397 67.0658 167.579 67.3128C167.768 67.5598 167.862 67.8686 167.862 68.2391C167.862 68.5186 167.804 68.7623 167.687 68.9703C167.57 69.1783 167.414 69.3636 167.219 69.5261C167.024 69.6821 166.806 69.8186 166.565 69.9356C166.838 70.0721 167.089 70.2281 167.316 70.4036C167.55 70.5726 167.735 70.7708 167.872 70.9983C168.015 71.2258 168.086 71.4988 168.086 71.8173C168.086 72.2073 167.989 72.5453 167.794 72.8313C167.605 73.1108 167.336 73.3286 166.985 73.4846C166.634 73.6406 166.224 73.7186 165.756 73.7186C165.256 73.7186 164.827 73.6438 164.469 73.4943C164.118 73.3448 163.852 73.1336 163.67 72.8606C163.488 72.5811 163.397 72.2431 163.397 71.8466C163.397 71.5281 163.462 71.2518 163.592 71.0178C163.722 70.7838 163.894 70.5823 164.108 70.4133C164.323 70.2443 164.557 70.1013 164.81 69.9843C164.589 69.8543 164.388 69.7081 164.206 69.5456C164.024 69.3766 163.881 69.1848 163.777 68.9703C163.673 68.7558 163.621 68.5088 163.621 68.2293C163.621 67.8653 163.715 67.5631 163.904 67.3226C164.092 67.0756 164.346 66.8871 164.664 66.7571C164.989 66.6271 165.347 66.5621 165.737 66.5621ZM164.391 71.8271C164.391 72.1456 164.502 72.4088 164.723 72.6168C164.944 72.8183 165.282 72.9191 165.737 72.9191C166.036 72.9191 166.283 72.8736 166.478 72.7826C166.679 72.6851 166.832 72.5551 166.936 72.3926C167.04 72.2236 167.092 72.0318 167.092 71.8173C167.092 71.6028 167.033 71.4143 166.916 71.2518C166.806 71.0893 166.65 70.9463 166.448 70.8228C166.253 70.6928 166.026 70.5758 165.766 70.4718L165.62 70.4133C165.353 70.5238 165.129 70.6473 164.947 70.7838C164.765 70.9203 164.625 71.0731 164.528 71.2421C164.437 71.4111 164.391 71.6061 164.391 71.8271ZM165.727 67.3713C165.408 67.3713 165.142 67.4493 164.927 67.6053C164.719 67.7613 164.615 67.9888 164.615 68.2878C164.615 68.5023 164.667 68.6843 164.771 68.8338C164.875 68.9833 165.015 69.1133 165.191 69.2238C165.366 69.3278 165.558 69.4286 165.766 69.5261C165.974 69.4351 166.159 69.3376 166.322 69.2336C166.484 69.1231 166.614 68.9931 166.712 68.8436C166.809 68.6876 166.858 68.5023 166.858 68.2878C166.858 67.9888 166.754 67.7613 166.546 67.6053C166.338 67.4493 166.065 67.3713 165.727 67.3713ZM171.092 69.3018C171.553 69.3018 171.956 69.3831 172.301 69.5456C172.645 69.7081 172.912 69.9421 173.1 70.2476C173.295 70.5531 173.393 70.9268 173.393 71.3688C173.393 71.8563 173.289 72.2756 173.081 72.6266C172.873 72.9776 172.571 73.2473 172.174 73.4358C171.784 73.6243 171.306 73.7186 170.741 73.7186C170.383 73.7186 170.045 73.6861 169.727 73.6211C169.408 73.5561 169.139 73.4618 168.918 73.3383V72.3926C169.152 72.5291 169.434 72.6396 169.766 72.7241C170.104 72.8086 170.426 72.8508 170.731 72.8508C171.063 72.8508 171.345 72.8021 171.579 72.7046C171.82 72.6006 172.005 72.4478 172.135 72.2463C172.272 72.0383 172.34 71.7783 172.34 71.4663C172.34 71.0438 172.207 70.7221 171.94 70.5011C171.68 70.2736 171.267 70.1598 170.702 70.1598C170.52 70.1598 170.315 70.1761 170.088 70.2086C169.867 70.2411 169.688 70.2736 169.551 70.3061L169.074 70.0233L169.337 66.6596H172.915V67.5761H170.234L170.078 69.3993C170.188 69.3798 170.328 69.3603 170.497 69.3408C170.666 69.3148 170.864 69.3018 171.092 69.3018ZM180.425 68.2683C181.017 68.2683 181.462 68.4211 181.761 68.7266C182.06 69.0321 182.21 69.5228 182.21 70.1988V73.6211H181.176V70.3353C181.176 69.9323 181.095 69.6301 180.932 69.4286C180.776 69.2206 180.529 69.1166 180.191 69.1166C179.723 69.1166 179.389 69.2628 179.187 69.5553C178.986 69.8413 178.885 70.2573 178.885 70.8033V73.6211H177.861V70.3353C177.861 70.0688 177.822 69.8446 177.744 69.6626C177.673 69.4806 177.565 69.3441 177.422 69.2531C177.279 69.1621 177.094 69.1166 176.867 69.1166C176.542 69.1166 176.285 69.1881 176.096 69.3311C175.908 69.4741 175.771 69.6853 175.687 69.9648C175.609 70.2378 175.57 70.5726 175.57 70.9691V73.6211H174.536V68.3658H175.355L175.502 69.0678H175.56C175.671 68.8858 175.804 68.7363 175.96 68.6193C176.122 68.5023 176.301 68.4146 176.496 68.3561C176.691 68.2976 176.893 68.2683 177.101 68.2683C177.497 68.2683 177.832 68.3398 178.105 68.4828C178.378 68.6193 178.576 68.8306 178.7 69.1166H178.778C178.947 68.8241 179.181 68.6096 179.48 68.4731C179.779 68.3366 180.094 68.2683 180.425 68.2683ZM189.485 68.2683C190.077 68.2683 190.522 68.4211 190.821 68.7266C191.12 69.0321 191.269 69.5228 191.269 70.1988V73.6211H190.236V70.3353C190.236 69.9323 190.155 69.6301 189.992 69.4286C189.836 69.2206 189.589 69.1166 189.251 69.1166C188.783 69.1166 188.448 69.2628 188.247 69.5553C188.045 69.8413 187.945 70.2573 187.945 70.8033V73.6211H186.921V70.3353C186.921 70.0688 186.882 69.8446 186.804 69.6626C186.732 69.4806 186.625 69.3441 186.482 69.2531C186.339 69.1621 186.154 69.1166 185.926 69.1166C185.601 69.1166 185.345 69.1881 185.156 69.3311C184.968 69.4741 184.831 69.6853 184.747 69.9648C184.669 70.2378 184.63 70.5726 184.63 70.9691V73.6211H183.596V68.3658H184.415L184.561 69.0678H184.62C184.73 68.8858 184.864 68.7363 185.02 68.6193C185.182 68.5023 185.361 68.4146 185.556 68.3561C185.751 68.2976 185.952 68.2683 186.16 68.2683C186.557 68.2683 186.892 68.3398 187.165 68.4828C187.438 68.6193 187.636 68.8306 187.759 69.1166H187.837C188.006 68.8241 188.24 68.6096 188.539 68.4731C188.838 68.3366 189.154 68.2683 189.485 68.2683Z" fill="#A6A5A3"/>
<path d="M132.45 142.871H131.426V138.25C131.426 138.087 131.426 137.938 131.426 137.801C131.433 137.658 131.439 137.522 131.446 137.392C131.452 137.255 131.459 137.125 131.465 137.002C131.381 137.086 131.293 137.167 131.202 137.245C131.111 137.323 131.007 137.414 130.89 137.518L130.13 138.133L129.603 137.47L131.592 135.91H132.45V142.871ZM135.466 142.871L138.244 136.826H134.588V135.91H139.356V136.651L136.587 142.871H135.466ZM142.342 138.552C142.803 138.552 143.206 138.633 143.551 138.796C143.895 138.958 144.162 139.192 144.35 139.498C144.545 139.803 144.643 140.177 144.643 140.619C144.643 141.106 144.539 141.526 144.331 141.877C144.123 142.228 143.821 142.497 143.424 142.686C143.034 142.874 142.556 142.969 141.991 142.969C141.633 142.969 141.295 142.936 140.977 142.871C140.658 142.806 140.389 142.712 140.168 142.588V141.643C140.402 141.779 140.684 141.89 141.016 141.974C141.354 142.059 141.676 142.101 141.981 142.101C142.313 142.101 142.595 142.052 142.829 141.955C143.07 141.851 143.255 141.698 143.385 141.496C143.522 141.288 143.59 141.028 143.59 140.716C143.59 140.294 143.457 139.972 143.19 139.751C142.93 139.524 142.517 139.41 141.952 139.41C141.77 139.41 141.565 139.426 141.338 139.459C141.117 139.491 140.938 139.524 140.801 139.556L140.324 139.273L140.587 135.91H144.165V136.826H141.484L141.328 138.649C141.438 138.63 141.578 138.61 141.747 138.591C141.916 138.565 142.114 138.552 142.342 138.552ZM151.675 137.518C152.267 137.518 152.712 137.671 153.011 137.977C153.31 138.282 153.46 138.773 153.46 139.449V142.871H152.426V139.585C152.426 139.182 152.345 138.88 152.182 138.679C152.026 138.471 151.779 138.367 151.441 138.367C150.973 138.367 150.639 138.513 150.437 138.805C150.236 139.091 150.135 139.507 150.135 140.053V142.871H149.111V139.585C149.111 139.319 149.072 139.095 148.994 138.913C148.923 138.731 148.815 138.594 148.672 138.503C148.529 138.412 148.344 138.367 148.117 138.367C147.792 138.367 147.535 138.438 147.346 138.581C147.158 138.724 147.021 138.935 146.937 139.215C146.859 139.488 146.82 139.823 146.82 140.219V142.871H145.786V137.616H146.605L146.752 138.318H146.81C146.921 138.136 147.054 137.986 147.21 137.869C147.372 137.752 147.551 137.665 147.746 137.606C147.941 137.548 148.143 137.518 148.351 137.518C148.747 137.518 149.082 137.59 149.355 137.733C149.628 137.869 149.826 138.081 149.95 138.367H150.028C150.197 138.074 150.431 137.86 150.73 137.723C151.029 137.587 151.344 137.518 151.675 137.518ZM160.735 137.518C161.327 137.518 161.772 137.671 162.071 137.977C162.37 138.282 162.519 138.773 162.519 139.449V142.871H161.486V139.585C161.486 139.182 161.405 138.88 161.242 138.679C161.086 138.471 160.839 138.367 160.501 138.367C160.033 138.367 159.698 138.513 159.497 138.805C159.295 139.091 159.195 139.507 159.195 140.053V142.871H158.171V139.585C158.171 139.319 158.132 139.095 158.054 138.913C157.982 138.731 157.875 138.594 157.732 138.503C157.589 138.412 157.404 138.367 157.176 138.367C156.851 138.367 156.595 138.438 156.406 138.581C156.218 138.724 156.081 138.935 155.997 139.215C155.919 139.488 155.88 139.823 155.88 140.219V142.871H154.846V137.616H155.665L155.811 138.318H155.87C155.98 138.136 156.114 137.986 156.27 137.869C156.432 137.752 156.611 137.665 156.806 137.606C157.001 137.548 157.202 137.518 157.41 137.518C157.807 137.518 158.142 137.59 158.415 137.733C158.688 137.869 158.886 138.081 159.009 138.367H159.087C159.256 138.074 159.49 137.86 159.789 137.723C160.088 137.587 160.404 137.518 160.735 137.518Z" fill="#A6A5A3"/>
<path d="M27.6787 133.768C27.6787 134.08 27.617 134.353 27.4935 134.587C27.3765 134.815 27.2075 135 26.9865 135.143C26.7655 135.286 26.512 135.39 26.226 135.455V135.494C26.785 135.559 27.201 135.735 27.474 136.021C27.7535 136.3 27.8932 136.671 27.8932 137.132C27.8932 137.535 27.7957 137.896 27.6007 138.214C27.4122 138.526 27.1165 138.773 26.7135 138.955C26.317 139.131 25.8067 139.219 25.1827 139.219C24.8122 139.219 24.4677 139.189 24.1492 139.131C23.8307 139.072 23.5285 138.975 23.2425 138.838V137.902C23.535 138.052 23.847 138.166 24.1785 138.244C24.5165 138.322 24.8382 138.361 25.1437 138.361C25.7352 138.361 26.161 138.25 26.421 138.029C26.681 137.802 26.811 137.486 26.811 137.083C26.811 136.823 26.7427 136.612 26.6062 136.45C26.4697 136.281 26.2617 136.157 25.9822 136.079C25.7027 135.995 25.355 135.952 24.939 135.952H24.3052V135.104H24.9487C25.3452 135.104 25.667 135.055 25.914 134.958C26.161 134.854 26.343 134.711 26.46 134.529C26.577 134.347 26.6355 134.139 26.6355 133.905C26.6355 133.593 26.5315 133.352 26.3235 133.183C26.122 133.008 25.8295 132.92 25.446 132.92C25.212 132.92 24.9942 132.946 24.7927 132.998C24.5977 133.05 24.419 133.118 24.2565 133.203C24.094 133.287 23.9347 133.382 23.7787 133.486L23.2717 132.774C23.4472 132.644 23.6422 132.524 23.8567 132.413C24.0777 132.303 24.3215 132.218 24.588 132.16C24.861 132.095 25.1567 132.062 25.4752 132.062C26.1967 132.062 26.7427 132.221 27.1132 132.54C27.4902 132.852 27.6787 133.261 27.6787 133.768ZM31.8348 139.121H30.8111V134.5C30.8111 134.337 30.8111 134.188 30.8111 134.051C30.8176 133.908 30.8241 133.772 30.8306 133.642C30.8371 133.505 30.8436 133.375 30.8501 133.252C30.7656 133.336 30.6778 133.417 30.5868 133.495C30.4958 133.573 30.3918 133.664 30.2748 133.768L29.5143 134.383L28.9878 133.72L30.9768 132.16H31.8348V139.121ZM38.7209 139.121H34.0409V138.322L35.8349 136.498C36.1859 136.141 36.4784 135.832 36.7124 135.572C36.9464 135.306 37.1219 135.052 37.2389 134.812C37.3559 134.565 37.4144 134.298 37.4144 134.012C37.4144 133.655 37.3104 133.388 37.1024 133.213C36.8944 133.031 36.6247 132.94 36.2932 132.94C35.9747 132.94 35.6887 133.001 35.4352 133.125C35.1817 133.242 34.9184 133.408 34.6454 133.622L34.0897 132.93C34.2782 132.767 34.4797 132.621 34.6942 132.491C34.9152 132.361 35.1589 132.257 35.4254 132.179C35.6984 132.101 35.9974 132.062 36.3224 132.062C36.7644 132.062 37.1447 132.14 37.4632 132.296C37.7817 132.446 38.0254 132.66 38.1944 132.94C38.3699 133.219 38.4577 133.547 38.4577 133.924C38.4577 134.204 38.4154 134.467 38.3309 134.714C38.2464 134.955 38.1229 135.192 37.9604 135.426C37.8044 135.66 37.6127 135.897 37.3852 136.138C37.1577 136.378 36.9074 136.632 36.6344 136.898L35.3377 138.156V138.205H38.7209V139.121ZM45.6753 133.768C46.2668 133.768 46.712 133.921 47.011 134.227C47.31 134.532 47.4595 135.023 47.4595 135.699V139.121H46.426V135.835C46.426 135.432 46.3448 135.13 46.1823 134.929C46.0263 134.721 45.7793 134.617 45.4413 134.617C44.9733 134.617 44.6385 134.763 44.437 135.055C44.2355 135.341 44.1348 135.757 44.1348 136.303V139.121H43.111V135.835C43.111 135.569 43.072 135.345 42.994 135.163C42.9225 134.981 42.8153 134.844 42.6723 134.753C42.5293 134.662 42.344 134.617 42.1165 134.617C41.7915 134.617 41.5348 134.688 41.3463 134.831C41.1578 134.974 41.0213 135.185 40.9368 135.465C40.8588 135.738 40.8198 136.073 40.8198 136.469V139.121H39.7863V133.866H40.6053L40.7515 134.568H40.81C40.9205 134.386 41.0538 134.236 41.2098 134.119C41.3723 134.002 41.551 133.915 41.746 133.856C41.941 133.798 42.1425 133.768 42.3505 133.768C42.747 133.768 43.0818 133.84 43.3548 133.983C43.6278 134.119 43.826 134.331 43.9495 134.617H44.0275C44.1965 134.324 44.4305 134.11 44.7295 133.973C45.0285 133.837 45.3438 133.768 45.6753 133.768ZM54.7351 133.768C55.3266 133.768 55.7719 133.921 56.0709 134.227C56.3699 134.532 56.5194 135.023 56.5194 135.699V139.121H55.4859V135.835C55.4859 135.432 55.4046 135.13 55.2421 134.929C55.0861 134.721 54.8391 134.617 54.5011 134.617C54.0331 134.617 53.6984 134.763 53.4969 135.055C53.2954 135.341 53.1946 135.757 53.1946 136.303V139.121H52.1709V135.835C52.1709 135.569 52.1319 135.345 52.0539 135.163C51.9824 134.981 51.8751 134.844 51.7321 134.753C51.5891 134.662 51.4039 134.617 51.1764 134.617C50.8514 134.617 50.5946 134.688 50.4061 134.831C50.2176 134.974 50.0811 135.185 49.9966 135.465C49.9186 135.738 49.8796 136.073 49.8796 136.469V139.121H48.8461V133.866H49.6651L49.8114 134.568H49.8699C49.9804 134.386 50.1136 134.236 50.2696 134.119C50.4321 134.002 50.6109 133.915 50.8059 133.856C51.0009 133.798 51.2024 133.768 51.4104 133.768C51.8069 133.768 52.1416 133.84 52.4146 133.983C52.6876 134.119 52.8859 134.331 53.0094 134.617H53.0874C53.2564 134.324 53.4904 134.11 53.7894 133.973C54.0884 133.837 54.4036 133.768 54.7351 133.768Z" fill="#A6A5A3"/>
<g clip-path="url(#clip0_1494_4184)">
<path d="M1.26953 29.8945C1.26953 30.84 1.88144 31.7405 3.10526 32.4609L90.2911 82.348C92.7614 83.7663 96.7728 83.7438 99.2204 82.348L141.578 57.8998C142.802 57.1794 143.414 56.2564 143.414 55.3334" stroke="black" stroke-width="0.7" stroke-linecap="round" stroke-linejoin="round"/>
<path d="M1.26953 32.3486C1.26953 33.2941 1.88144 34.1946 3.10526 34.915L4.98632 35.9956C12.8732 40.7457 17.2019 44.6628 24.3181 48.58C31.4344 52.4971 37.8482 54.8384 46.6869 59.8586C54.5737 64.6087 58.9024 68.5258 66.0187 72.4429C73.135 76.3601 79.5487 78.7013 88.3874 83.7216L90.2684 84.8021C92.7387 86.2204 96.7502 86.1979 99.1978 84.8021L142.485 59.8136C143.709 59.0932 144.32 58.1702 144.32 57.2472" stroke="#999999" stroke-width="0.15" stroke-linecap="round" stroke-linejoin="round"/>
<path d="M1.26953 35.3652C1.26953 36.3107 1.88144 37.2112 3.10526 37.9316L4.98632 39.0122C12.8732 43.7623 17.2019 47.6794 24.3181 51.5966C31.4344 55.5137 37.8482 57.855 46.6869 62.8752C54.5737 67.6253 58.9024 71.5424 66.0187 75.4595C73.135 79.3767 79.5487 81.7179 88.3874 86.7382L90.2684 87.8187C92.7387 89.237 96.7502 89.2145 99.1978 87.8187L142.485 62.8302C143.709 62.1098 144.32 61.1868 144.32 60.2638" stroke="#999999" stroke-width="0.15" stroke-linecap="round" stroke-linejoin="round"/>
<path d="M1.26953 38.3594C1.26953 39.3049 1.88144 40.2054 3.10526 40.9258L4.98632 42.0064C12.8732 46.7564 17.2019 50.6736 24.3181 54.5907C31.4344 58.5078 37.8482 60.8491 46.6869 65.8693C54.5737 70.6194 58.9024 74.5365 66.0187 78.4537C73.135 82.3708 79.5487 84.7121 88.3874 89.7323L90.2684 90.8129C92.7387 92.2312 96.7502 92.2086 99.1978 90.8129L142.485 65.8243C143.709 65.1039 144.32 64.1809 144.32 63.2579" stroke="#999999" stroke-width="0.15" stroke-linecap="round" stroke-linejoin="round"/>
<path d="M1.26953 41.376C1.26953 42.3215 1.88144 43.222 3.10526 43.9424L4.98632 45.023C12.8732 49.773 17.2019 53.6902 24.3181 57.6073C31.4344 61.5244 37.8482 63.8657 46.6869 68.8859C54.5737 73.636 58.9024 77.5531 66.0187 81.4703C73.135 85.3874 79.5487 87.7287 88.3874 92.7489L90.2684 93.8295C92.7387 95.2478 96.7502 95.2252 99.1978 93.8295L142.485 68.8409C143.709 68.1205 144.32 67.1975 144.32 66.2745" stroke="#999999" stroke-width="0.15" stroke-linecap="round" stroke-linejoin="round"/>
<path d="M1.26953 44.3701C1.26953 45.3156 1.88144 46.2161 3.10526 46.9365L4.98632 48.0171C12.8732 52.7672 17.2019 56.6843 24.3181 60.6014C31.4344 64.5186 37.8482 66.8598 46.6869 71.8801C54.5737 76.6301 58.9024 80.5473 66.0187 84.4644C73.135 88.3815 79.5487 90.7228 88.3874 95.743L90.2684 96.8236C92.7387 98.2419 96.7502 98.2194 99.1978 96.8236L142.485 71.835C143.709 71.1147 144.32 70.1917 144.32 69.2686" stroke="#999999" stroke-width="0.15" stroke-linecap="round" stroke-linejoin="round"/>
<path d="M1.26953 47.3867C1.26953 48.3322 1.88144 49.2327 3.10526 49.9531L4.98632 51.0337C12.8732 55.7838 17.2019 59.7009 24.3181 63.618C31.4344 67.5352 37.8482 69.8764 46.6869 74.8967C54.5737 79.6468 58.9024 83.5639 66.0187 87.481C73.135 91.3981 79.5487 93.7394 88.3874 98.7596L90.2684 99.8402C92.7387 101.259 96.7502 101.236 99.1978 99.8402L142.485 74.8516C143.709 74.1313 144.32 73.2083 144.32 72.2853" stroke="#999999" stroke-width="0.15" stroke-linecap="round" stroke-linejoin="round"/>
<path d="M1.26953 50.3809C1.26953 51.3264 1.88144 52.2269 3.10526 52.9473L4.98632 54.0278C12.8732 58.7779 17.2019 62.6951 24.3181 66.6122C31.4344 70.5293 37.8482 72.8706 46.6869 77.8908C54.5737 82.6409 58.9024 86.558 66.0187 90.4752C73.135 94.3923 79.5487 96.7336 88.3874 101.754L90.2684 102.834C92.7387 104.253 96.7502 104.23 99.1978 102.834L142.485 77.8458C143.709 77.1254 144.32 76.2024 144.32 75.2794" stroke="#999999" stroke-width="0.15" stroke-linecap="round" stroke-linejoin="round"/>
<path d="M1.26953 53.3975C1.26953 54.343 1.88144 55.2435 3.10526 55.9639L4.98632 57.0444C12.8732 61.7945 17.2019 65.7117 24.3181 69.6288C31.4344 73.5459 37.8482 75.8872 46.6869 80.9074C54.5737 85.6575 58.9024 89.5746 66.0187 93.4917C73.135 97.4089 79.5487 99.7502 88.3874 104.77L90.2684 105.851C92.7387 107.269 96.7502 107.247 99.1978 105.851L142.485 80.8624C143.709 80.142 144.32 79.219 144.32 78.296" stroke="#999999" stroke-width="0.15" stroke-linecap="round" stroke-linejoin="round"/>
<path d="M1.26953 56.3916C1.26953 57.3371 1.88144 58.2376 3.10526 58.958L4.98632 60.0386C12.8732 64.7887 17.2019 68.7058 24.3181 72.6229C31.4344 76.5401 37.8482 78.8813 46.6869 83.9016C54.5737 88.6516 58.9024 92.5688 66.0187 96.4859C73.135 100.403 79.5487 102.744 88.3874 107.765L90.2684 108.845C92.7387 110.263 96.7502 110.241 99.1978 108.845L142.485 83.8565C143.709 83.1361 144.32 82.2131 144.32 81.2901" stroke="#999999" stroke-width="0.15" stroke-linecap="round" stroke-linejoin="round"/>
<path d="M1.26953 59.4082C1.26953 60.3537 1.88144 61.2542 3.10526 61.9746L4.98632 63.0552C12.8732 67.8053 17.2019 71.7224 24.3181 75.6395C31.4344 79.5567 37.8482 81.8979 46.6869 86.9182C54.5737 91.6682 58.9024 95.5854 66.0187 99.5025C73.135 103.42 79.5487 105.761 88.3874 110.781L90.2684 111.862C92.7387 113.28 96.7502 113.257 99.1978 111.862L142.485 86.8731C143.709 86.1527 144.32 85.2297 144.32 84.3067" stroke="#999999" stroke-width="0.15" stroke-linecap="round" stroke-linejoin="round"/>
<path d="M1.26953 62.4023C1.26953 63.3479 1.88144 64.2483 3.10526 64.9687L4.98632 66.0493C12.8732 70.7994 17.2019 74.7165 24.3181 78.6337C31.4344 82.5508 37.8482 84.8921 46.6869 89.9123C54.5737 94.6624 58.9024 98.5795 66.0187 102.497C73.135 106.414 79.5487 108.755 88.3874 113.775L90.2684 114.856C92.7387 116.274 96.7502 116.252 99.1978 114.856L142.485 89.8673C143.709 89.1469 144.32 88.2239 144.32 87.3009" stroke="#999999" stroke-width="0.15" stroke-linecap="round" stroke-linejoin="round"/>
<path d="M1.26953 65.4189C1.26953 66.3645 1.88144 67.2649 3.10526 67.9853L4.98632 69.0659C12.8732 73.816 17.2019 77.7331 24.3181 81.6503C31.4344 85.5674 37.8482 87.9087 46.6869 92.9289C54.5737 97.679 58.9024 101.596 66.0187 105.513C73.135 109.43 79.5487 111.772 88.3874 116.792L90.2684 117.872C92.7387 119.291 96.7502 119.268 99.1978 117.872L142.485 92.8839C143.709 92.1635 144.32 91.2405 144.32 90.3175" stroke="#999999" stroke-width="0.15" stroke-linecap="round" stroke-linejoin="round"/>
<path d="M1.26953 68.4131C1.26953 69.3586 1.88144 70.2591 3.10526 70.9795L4.98632 72.0601C12.8732 76.8101 17.2019 80.7273 24.3181 84.6444C31.4344 88.5615 37.8482 90.9028 46.6869 95.923C54.5737 100.673 58.9024 104.59 66.0187 108.507C73.135 112.425 79.5487 114.766 88.3874 119.786L90.2684 120.867C92.7387 122.285 96.7502 122.262 99.1978 120.867L142.485 95.878C143.709 95.1576 144.32 94.2346 144.32 93.3116" stroke="#999999" stroke-width="0.15" stroke-linecap="round" stroke-linejoin="round"/>
<path d="M1.26953 71.4297C1.26953 72.3752 1.88144 73.2757 3.10526 73.9961L4.98632 75.0767C12.8732 79.8268 17.2019 83.7439 24.3181 87.661C31.4344 91.5781 37.8482 93.9194 46.6869 98.9396C54.5737 103.69 58.9024 107.607 66.0187 111.524C73.135 115.441 79.5487 117.782 88.3874 122.803L90.2684 123.883C92.7387 125.301 96.7502 125.279 99.1978 123.883L142.485 98.8946C143.709 98.1742 144.32 97.2512 144.32 96.3282" stroke="#999999" stroke-width="0.15" stroke-linecap="round" stroke-linejoin="round"/>
<path d="M1.26953 74.4238C1.26953 75.3693 1.88144 76.2698 3.10526 76.9902L4.98632 78.0708C12.8732 82.8209 17.2019 86.738 24.3181 90.6551C31.4344 94.5723 37.8482 96.9135 46.6869 101.934C54.5737 106.684 58.9024 110.601 66.0187 114.518C73.135 118.435 79.5487 120.777 88.3874 125.797L90.2684 126.877C92.7387 128.296 96.7502 128.273 99.1978 126.877L142.485 101.889C143.709 101.168 144.32 100.245 144.32 99.3224" stroke="black" stroke-width="0.15" stroke-linecap="round" stroke-linejoin="round"/>
<path d="M1.26953 77.4404C1.26953 78.3859 1.88144 79.2864 3.10526 80.0068L4.98632 81.0874C12.8732 85.8375 17.2019 89.7546 24.3181 93.6717C31.4344 97.5889 37.8482 99.9301 46.6869 104.95C54.5737 109.7 58.9024 113.618 66.0187 117.535C73.135 121.452 79.5487 123.793 88.3874 128.813L90.2684 129.894C92.7387 131.312 96.7502 131.29 99.1978 129.894L142.485 104.905C143.709 104.185 144.32 103.262 144.32 102.339" stroke="#999999" stroke-width="0.15" stroke-linecap="round" stroke-linejoin="round"/>
<path d="M1.26953 80.4346C1.26953 81.3801 1.88144 82.2806 3.10526 83.001L4.98632 84.0816C12.8732 88.8316 17.2019 92.7488 24.3181 96.6659C31.4344 100.583 37.8482 102.924 46.6869 107.945C54.5737 112.695 58.9024 116.612 66.0187 120.529C73.135 124.446 79.5487 126.787 88.3874 131.807L90.2684 132.888C92.7387 134.306 96.7502 134.284 99.1978 132.888L142.485 107.899C143.709 107.179 144.32 106.256 144.32 105.333" stroke="#999999" stroke-width="0.15" stroke-linecap="round" stroke-linejoin="round"/>
<path d="M0.566406 81.4702C0.566406 83.6989 1.40495 85.7701 4.37385 87.481L90.2905 136.648C92.7608 138.066 96.7723 138.043 99.2199 136.648L140.082 113.032C143.685 110.961 144.411 107.449 144.411 104.725V59.2506C144.411 56.0314 143.391 52.6321 139.107 50.2007L54.6864 1.86697C52.2388 0.448696 48.2047 0.471209 45.7571 1.88948L5.1444 25.3472C1.29163 27.5759 0.566406 30.0973 0.566406 33.0239V81.4702Z" stroke="black" stroke-linecap="round" stroke-linejoin="round"/>
<path d="M81.2031 17.04L28.9414 47.2064" stroke="black" stroke-width="0.5" stroke-linecap="round" stroke-linejoin="round"/>
<path d="M28.8055 18.2111L29.4174 17.8734L28.4655 16.4326L27.8989 16.7253L28.7148 17.8059L26.8564 17.3556L26.3125 17.6708L28.8055 18.2111Z" fill="#808080"/>
<path d="M30.8224 15.8922C30.8224 15.8922 30.5505 15.6896 30.6638 15.487C30.7091 15.4195 30.7771 15.3519 30.8904 15.2844C30.9811 15.2168 31.117 15.1718 31.2077 15.1493C31.593 15.0818 31.8876 15.2168 31.9329 15.2394L30.8224 15.8697V15.8922ZM31.9782 14.7891C31.8196 14.7891 31.5703 14.7891 31.253 14.8567C31.0037 14.9242 30.7771 15.0142 30.5731 15.1268C30.2558 15.3069 30.1425 15.442 30.1199 15.4645C30.0519 15.532 29.9159 15.6896 29.9612 15.8697C30.0065 16.0273 30.1652 16.1849 30.3691 16.2974C30.5731 16.41 30.8451 16.5 31.117 16.5226C31.6156 16.5451 32.0916 16.3425 32.4089 16.1624C32.7261 15.9598 32.8621 15.8472 32.9074 15.7797C33.1567 15.487 32.9754 15.2844 32.9528 15.2394L32.3635 15.577C32.3635 15.577 32.4088 15.6671 32.3635 15.8022C32.3182 15.8697 32.2502 15.9372 32.1596 16.0048C31.9782 16.0948 31.729 16.1849 31.389 16.1398C31.321 16.1173 31.2304 16.0948 31.1397 16.0498L32.8168 15.0818C32.8168 15.0818 32.7035 15.0142 32.6581 14.9917C32.5222 14.9242 32.2955 14.7891 31.9782 14.7666" fill="#808080"/>
<path d="M23.2979 19.404L24.4764 20.0568L22.3914 19.9218L21.7568 20.3045L23.4792 21.295L23.8419 21.0924L23.8192 20.9123L22.8447 20.3495L24.907 20.4846L25.5416 20.1019L23.7965 19.1113L23.2979 19.404Z" fill="#808080"/>
<path d="M33.6778 13.4157L34.8337 14.0686L32.7713 13.956L32.1367 14.3162L33.8591 15.3067L34.2217 15.1041L34.1991 14.924L33.2019 14.3612L35.2869 14.4738L35.9215 14.1361L34.1764 13.123L33.6778 13.4157Z" fill="#808080"/>
<path d="M30.754 17.0854L30.7313 16.9278L29.1675 16.0273L28.6689 16.32L30.3914 17.3105L30.754 17.0854Z" fill="#808080"/>
<path d="M26.7423 18.6162C27.0369 18.7963 26.8783 19.089 26.561 19.2465C26.3117 19.3816 26.0624 19.4041 25.9038 19.3141C25.8131 19.2465 25.7904 19.2465 25.7904 19.224C25.7678 19.134 25.9718 18.9989 25.9718 18.9989C25.9718 18.9989 26.289 18.7963 26.425 18.6837C26.5157 18.6162 26.561 18.5712 26.5837 18.5262L26.7423 18.6162ZM26.6743 18.0084C26.5383 17.9183 26.221 17.8283 25.6545 18.0534C25.4958 18.1209 25.3372 18.1885 25.1785 18.2785C24.6573 18.5712 24.4986 18.8188 24.5666 18.9989C24.5893 19.0665 24.6346 19.1115 24.7026 19.1565L25.2239 18.8638C25.0199 18.7063 25.2692 18.5487 25.4278 18.4586C25.7678 18.256 26.0171 18.211 26.1757 18.301C26.357 18.4136 26.221 18.5036 25.9264 18.7063C25.5185 18.9764 25.3372 19.1115 25.2692 19.2015C25.1105 19.4041 25.1105 19.4942 25.3825 19.6518C25.5638 19.7643 25.8358 19.8319 26.2437 19.7193C26.5157 19.6293 26.9009 19.4266 27.0596 19.2465C27.2182 19.0665 27.2182 18.9764 27.2182 18.8864L27.4449 19.0214L27.8075 18.8188V18.6387L26.6743 18.0084Z" fill="#808080"/>
<path d="M69.6895 44.5281C69.6895 40.0932 76.0805 36.4912 83.9673 36.4912C91.8542 36.4912 98.2452 40.0932 98.2452 44.5281V49.0981C98.2452 53.533 91.8542 57.1349 83.9673 57.1349C76.0805 57.1349 69.7121 53.533 69.7121 49.0981V44.5281H69.6895Z" stroke="black" stroke-width="0.5" stroke-linecap="round" stroke-linejoin="round"/>
<path d="M58.4258 47.7691C58.4258 39.8448 69.8481 33.3838 83.9447 33.3838C98.0413 33.3838 109.509 39.8448 109.509 47.7691C109.509 55.6934 98.064 62.1544 83.9447 62.1544C69.8254 62.1544 58.4258 55.6934 58.4258 47.7691Z" stroke="#999999" stroke-width="0.3" stroke-linecap="round" stroke-linejoin="round"/>
<path d="M53.5082 6.79707C53.5082 7.78761 52.0805 8.59805 50.3127 8.59805C48.545 8.59805 47.1172 7.78761 47.1172 6.79707C47.1172 5.80653 48.545 4.99609 50.3127 4.99609C52.0805 4.99609 53.5082 5.80653 53.5082 6.79707Z" stroke="black" stroke-width="0.5" stroke-linecap="round" stroke-linejoin="round"/>
<path d="M98.246 44.5273C98.246 48.9397 91.855 52.5642 83.9681 52.5642C76.0813 52.5642 69.7129 48.9623 69.7129 44.5273" stroke="black" stroke-width="0.3" stroke-linecap="round" stroke-linejoin="round"/>
</g>
<defs>
<clipPath id="clip0_1494_4184">
<rect width="145" height="138" fill="white" transform="translate(0 0.246094)"/>
</clipPath>
</defs>
</svg>
