<svg width="265" height="129" viewBox="0 0 265 129" fill="none" xmlns="http://www.w3.org/2000/svg">
<path d="M90.2939 28.0625C90.2939 26.9579 91.1894 26.0625 92.2939 26.0625H102.601C103.706 26.0625 104.601 26.9579 104.601 28.0625V50.0759C104.601 51.1805 103.706 52.0759 102.601 52.0759H92.2939C91.1894 52.0759 90.2939 51.1805 90.2939 50.0759V28.0625Z" fill="#5EE9E4"/>
<path d="M150.766 28.0625C150.766 26.9579 151.661 26.0625 152.766 26.0625H165.024C166.129 26.0625 167.024 26.9579 167.024 28.0625V50.0759C167.024 51.1805 166.129 52.0759 165.024 52.0759H152.766C151.661 52.0759 150.766 51.1805 150.766 50.0759V28.0625Z" fill="#5EE9E4"/>
<path d="M217.822 28.1191C217.822 27.0146 218.718 26.1191 219.822 26.1191H236.633C237.738 26.1191 238.633 27.0146 238.633 28.1191V50.1325C238.633 51.2371 237.738 52.1325 236.633 52.1325H219.822C218.718 52.1325 217.822 51.2371 217.822 50.1325V28.1191Z" fill="#5EE9E4"/>
</svg>
