<svg width="73" height="52" viewBox="0 0 73 52" fill="none" xmlns="http://www.w3.org/2000/svg">
<path d="M49.2469 0.138672H22.9767C10.287 0.138672 0 10.4257 0 23.1154C0 35.8051 10.287 46.0921 22.9767 46.0921H49.2469C61.9366 46.0921 72.2236 35.8051 72.2236 23.1154C72.2236 10.4257 61.9366 0.138672 49.2469 0.138672Z" fill="white"/>
<path d="M42.5109 43.1728L33.7997 51.7476L33.7285 39.5293L42.5109 43.1728Z" fill="white"/>
<path d="M18.1202 23.5254V33.4238H16.0557V25.4805H16.0011L13.7315 26.9023V25.084L16.1788 23.5254H18.1202ZM20.1371 33.4238L20.1234 31.9336L23.6781 28.666C24.6009 27.7842 25.1 27.2373 25.1 26.4512C25.1 25.5693 24.4369 25.0225 23.5277 25.0293C22.598 25.0225 21.9896 25.6104 21.9964 26.5605H20.0414C20.0345 24.626 21.4701 23.3887 23.555 23.3887C25.6742 23.3887 27.0824 24.5986 27.0824 26.3145C27.0824 27.4424 26.5355 28.3652 24.4984 30.2109L22.9945 31.6738V31.7285H27.2191V33.4238H20.1371ZM28.0192 31.6738V30.0469L32.2028 23.5254H34.7868V30.0195H36.0446V31.6738H34.7868V33.4238H32.8317V31.6738H28.0192ZM30.0973 30.0195H32.859V25.7812H32.7633L30.0973 29.9375V30.0195ZM38.7372 29.8887C37.6777 29.8887 37.1064 29.1172 37.1064 28.0039C37.1064 26.8857 37.707 26.1094 38.7372 26.1094C39.7968 26.1094 40.3632 26.8857 40.3681 28.0039C40.3632 29.127 39.7821 29.8887 38.7372 29.8887ZM38.1025 28.0039C38.1073 28.6143 38.3271 29.0146 38.7372 29.0195C39.1571 29.0146 39.3671 28.6143 39.372 28.0039C39.3671 27.3936 39.1767 26.9785 38.7372 26.9785C38.3222 26.9834 38.1073 27.4033 38.1025 28.0039ZM38.122 33.4238L42.9853 26.3535H44.079L39.2157 33.4238H38.122ZM41.8818 31.7734C41.8818 30.6553 42.4823 29.8838 43.5029 29.8789C44.5722 29.8838 45.1386 30.6553 45.1435 31.7734C45.1386 32.8965 44.5575 33.6582 43.5029 33.6582C42.453 33.6582 41.8818 32.8867 41.8818 31.7734ZM42.8779 31.7734C42.8827 32.3838 43.1025 32.7891 43.5029 32.7891C43.9325 32.7891 44.1425 32.3838 44.1474 31.7734C44.1425 31.1631 43.9472 30.748 43.5029 30.7578C43.0927 30.7529 42.8827 31.1729 42.8779 31.7734Z" fill="#202020"/>
<path d="M13.1721 7.29216C13.1721 9.82216 11.4451 11.4612 8.59613 12.1322L8.09013 11.1862C10.4221 10.6912 11.6981 9.58016 11.8961 8.26016H8.61813V7.29216H13.1721ZM9.43213 16.2022V15.2562H10.7521V13.3202H9.52013V12.3962H16.1421V13.3202H14.8881V15.2562H16.2301V16.2022H9.43213ZM11.9181 15.2562H13.7221V13.3202H11.9181V15.2562ZM14.8001 11.9122V6.67616H15.9881V11.9122H14.8001ZM25.517 11.6702V12.6162H16.673V11.6702H25.517ZM17.575 8.94216C17.586 7.71016 18.961 6.96216 21.095 6.96216C23.196 6.96216 24.571 7.71016 24.571 8.94216C24.571 10.1632 23.196 10.9222 21.095 10.9222C18.961 10.9222 17.586 10.1632 17.575 8.94216ZM17.751 16.1802V13.3422H18.961V15.2122H24.505V16.1802H17.751ZM18.829 8.94216C18.818 9.59116 19.665 9.94316 21.095 9.95416C22.492 9.94316 23.35 9.59116 23.339 8.94216C23.35 8.29316 22.492 7.91916 21.095 7.90816C19.665 7.91916 18.818 8.29316 18.829 8.94216ZM32.2989 7.46816C32.3099 8.67816 33.6739 9.92116 35.7529 10.1962L35.2689 11.1642C33.6299 10.9112 32.3209 10.0972 31.6829 8.99716C31.0449 10.0972 29.7469 10.9112 28.1189 11.1642L27.6349 10.1962C29.6919 9.92116 31.0559 8.68916 31.0669 7.46816V6.96216H32.2989V7.46816ZM27.2609 12.9682V12.0002H36.1049V12.9682H32.2549V16.3562H31.0669V12.9682H27.2609ZM40.9697 7.46816V8.23816H42.9277V6.67616H44.1157V13.7382H42.9277V11.2962H40.9697V12.1322H36.4157V7.46816H40.9697ZM37.6037 11.1862H39.8037V8.41416H37.6037V11.1862ZM37.7137 16.1802V13.0782H38.9237V15.2122H44.3357V16.1802H37.7137ZM40.9697 10.3282H42.9277V9.22816H40.9697V10.3282ZM50.2377 8.98616C50.2377 10.7682 51.1837 12.5502 52.7457 13.2322L52.0417 14.1782C50.9307 13.6612 50.1057 12.6382 49.6547 11.3732C49.2147 12.7372 48.3787 13.8592 47.2017 14.4202L46.4757 13.4082C48.0927 12.7152 49.0387 10.8562 49.0497 8.98616V7.44616H50.2377V8.98616ZM53.4497 16.3782V6.65416H54.6597V16.3782H53.4497ZM62.9785 6.65416V9.44816H64.3425V10.4382H62.9785V13.6502H61.7685V6.65416H62.9785ZM55.2785 11.7142C57.5115 11.0542 58.8315 9.84416 59.0295 8.37016H55.6965V7.40216H60.3385C60.3385 9.97616 58.6555 11.8132 55.7845 12.6602L55.2785 11.7142ZM56.7305 16.1802V12.9462H57.9405V15.2122H63.3305V16.1802H56.7305Z" fill="#202020"/>
</svg>
