<svg width="25" height="25" viewBox="0 0 25 25" fill="none" xmlns="http://www.w3.org/2000/svg">
<path d="M21.9997 12.5005C21.9997 12.312 21.8468 12.1591 21.6583 12.1591H19.5357L21.5672 10.477C21.7125 10.3567 21.7329 10.1414 21.6125 9.99613C21.4922 9.85085 21.277 9.83049 21.1317 9.95084L18.4649 12.1591H15.1051C15.0438 11.6896 14.8586 11.2586 14.5828 10.9006L16.9616 8.52169L20.4046 8.19627C20.5923 8.17846 20.7302 8.01181 20.7124 7.82404C20.6946 7.63627 20.5287 7.49837 20.3402 7.51618L17.7192 7.76399L19.2172 6.2659C19.3505 6.13257 19.3505 5.91631 19.2172 5.78298C19.0839 5.64966 18.8676 5.64966 18.7343 5.78298L17.2307 7.28668L17.477 4.65585C17.4946 4.46808 17.3567 4.30168 17.1689 4.28387C16.9809 4.26606 16.8148 4.40421 16.7969 4.59198L16.4738 8.04361L14.0996 10.418C13.7414 10.1422 13.3107 9.95695 12.8413 9.89563V6.53559L15.0494 3.86863C15.1697 3.72335 15.1494 3.5081 15.0041 3.38776C14.8588 3.26741 14.6436 3.28776 14.5232 3.43304L12.841 5.46469V3.34145C12.841 3.15291 12.6881 3 12.4996 3C12.3111 3 12.1582 3.15291 12.1582 3.34145V5.46418L10.4763 3.43254C10.3559 3.28725 10.1409 3.2669 9.99541 3.38725C9.85014 3.50759 9.82978 3.72284 9.95012 3.86812L12.1582 6.53508V9.89512C11.6888 9.95644 11.2578 10.1417 10.8999 10.4175L8.52565 8.04311L8.20254 4.59148C8.18499 4.4037 8.01936 4.26555 7.83059 4.28336C7.64283 4.30091 7.50493 4.46757 7.52249 4.65534L7.76876 7.28617L6.26517 5.78247C6.13185 5.64915 5.9156 5.64915 5.78229 5.78247C5.64897 5.9158 5.64897 6.13206 5.78229 6.26539L7.28029 7.76348L4.6593 7.51567C4.47154 7.49811 4.3049 7.63576 4.28709 7.82353C4.26928 8.0113 4.40717 8.17796 4.59493 8.19577L8.03793 8.52118L10.4167 10.9001C10.1409 11.2584 9.95572 11.6891 9.8944 12.1586H6.54528L3.87137 9.93812C3.72636 9.81752 3.51087 9.83762 3.39053 9.98265C3.26993 10.1277 3.29003 10.3432 3.43505 10.4635L5.47623 12.1586H3.34143C3.1529 12.1586 3 12.3115 3 12.5C3 12.6885 3.1529 12.8414 3.34143 12.8414H5.45129L3.42945 14.5108C3.28393 14.6309 3.26332 14.8461 3.3834 14.9917C3.45082 15.0736 3.54852 15.1158 3.64698 15.1158C3.72356 15.1158 3.80065 15.0901 3.86425 15.0377L6.52391 12.8417H9.8944C9.95572 13.3111 10.1409 13.7421 10.4167 14.1001L8.03793 16.4791L4.59493 16.8045C4.40717 16.8223 4.26928 16.989 4.28709 17.1767C4.30388 17.3536 4.45246 17.4861 4.62673 17.4861C4.63742 17.4861 4.64836 17.4856 4.6593 17.4846L7.28029 17.2368L5.78229 18.7349C5.64897 18.8682 5.64897 19.0845 5.78229 19.2178C5.84894 19.2844 5.93646 19.3178 6.02373 19.3178C6.11099 19.3178 6.19851 19.2844 6.26517 19.2178L7.76876 17.7141L7.52249 20.3449C7.50493 20.5327 7.64283 20.6991 7.83059 20.7169C7.84153 20.7179 7.85221 20.7184 7.8629 20.7184C8.03717 20.7184 8.186 20.5856 8.20254 20.4088L8.52565 16.9571L10.8999 14.5828C11.2581 14.8586 11.6888 15.0438 12.1582 15.1051V18.4759L9.96233 21.1357C9.84225 21.2812 9.86286 21.4965 10.0084 21.6166C10.072 21.669 10.1491 21.6947 10.2257 21.6947C10.3241 21.6947 10.4218 21.6524 10.4892 21.5705L12.1584 19.5485V21.6586C12.1584 21.8471 12.3114 22 12.4999 22C12.6884 22 12.8413 21.8471 12.8413 21.6586V19.5234L14.5362 21.5647C14.6036 21.6461 14.7011 21.6881 14.799 21.6881C14.8759 21.6881 14.9532 21.6624 15.0171 21.6092C15.1621 21.4886 15.1822 21.2733 15.0616 21.1283L12.8413 18.4542V15.1049C13.3107 15.0436 13.7417 14.8583 14.0999 14.5825L16.4741 16.9569L16.7972 20.4085C16.8137 20.5856 16.9626 20.7182 17.1368 20.7182C17.1475 20.7182 17.1582 20.7177 17.1692 20.7166C17.3569 20.6991 17.4948 20.5327 17.4773 20.3447L17.231 17.7138L18.7346 19.2175C18.8012 19.2842 18.8888 19.3175 18.976 19.3175C19.0633 19.3175 19.1508 19.2842 19.2175 19.2175C19.3508 19.0842 19.3508 18.8679 19.2175 18.7346L17.7195 17.2365L20.3404 17.4843C20.3514 17.4854 20.3623 17.4859 20.373 17.4859C20.547 17.4859 20.6959 17.3533 20.7127 17.1765C20.7305 16.9887 20.5926 16.822 20.4048 16.8042L16.9618 16.4788L14.583 14.0999C14.8588 13.7416 15.044 13.3109 15.1053 12.8414H18.4652L21.1319 15.0497C21.1958 15.1023 21.2729 15.128 21.3495 15.128C21.4477 15.128 21.5451 15.0858 21.6128 15.0044C21.7331 14.8591 21.7128 14.6438 21.5675 14.5235L19.536 12.8412H21.6586C21.8471 12.8412 22 12.6883 22 12.4997L21.9997 12.5005ZM12.4999 14.4456C11.4273 14.4456 10.5549 13.5729 10.5549 12.5005C10.5549 11.4281 11.4275 10.5554 12.4999 10.5554C13.5722 10.5554 14.4449 11.4281 14.4449 12.5005C14.4449 13.5729 13.5722 14.4456 12.4999 14.4456Z" fill="white"/>
</svg>
