<svg width="335" height="291" viewBox="0 0 335 291" fill="none" xmlns="http://www.w3.org/2000/svg">
<path d="M38.5557 25.2012V239.639H308.238" stroke="#DDDDDD" stroke-width="1.05" stroke-miterlimit="10" stroke-linecap="round"/>
<path d="M262.418 267.919C262.418 268.509 262.312 269.059 262.099 269.575C261.885 270.091 261.582 270.534 261.172 270.911C260.771 271.288 260.279 271.566 259.714 271.755L259.132 270.845C259.624 270.689 260.05 270.46 260.394 270.165C260.746 269.862 261.009 269.526 261.189 269.132C261.369 268.747 261.451 268.346 261.451 267.919V267.198H262.41V267.919H262.418ZM266.975 272.197V274.64H261.885V275.721H260.763V273.779H265.827V273.099H260.738V272.197H266.983H266.975ZM267.253 275.369V276.287H260.755V275.369H267.253ZM262.656 267.919C262.656 268.329 262.738 268.714 262.91 269.083C263.082 269.452 263.344 269.772 263.688 270.05C264.033 270.329 264.451 270.542 264.934 270.689L264.36 271.583C263.795 271.411 263.311 271.14 262.91 270.78C262.508 270.419 262.205 269.993 261.992 269.509C261.787 269.018 261.681 268.493 261.681 267.919V267.198H262.648V267.919H262.656ZM266.958 266.969V271.763H265.819V266.969H266.958Z" fill="#545251"/>
<path d="M269.925 268.042V273.468H268.77V268.042H269.925ZM269.392 273.009C269.933 273.009 270.466 272.992 270.99 272.951C271.515 272.91 272.056 272.837 272.613 272.722L272.736 273.73C272.138 273.836 271.564 273.91 271.015 273.951C270.474 273.992 269.933 274.017 269.392 274.017H268.77V273.009H269.392ZM274.277 267.141V275.893H273.195V267.141H274.277ZM275.629 270.665V271.607H273.957V270.665H275.629ZM276.432 266.969V276.361H275.318V266.969H276.432Z" fill="#545251"/>
<path d="M286.209 271.869V272.804H277.637V271.869H286.209ZM281.923 267.223C282.603 267.223 283.193 267.296 283.709 267.452C284.226 267.608 284.611 267.829 284.89 268.116C285.168 268.403 285.307 268.739 285.307 269.124C285.307 269.509 285.168 269.87 284.89 270.157C284.611 270.443 284.218 270.673 283.709 270.82C283.201 270.968 282.603 271.05 281.923 271.05C281.243 271.05 280.644 270.976 280.136 270.82C279.628 270.665 279.235 270.443 278.948 270.157C278.661 269.87 278.53 269.517 278.53 269.124C278.53 268.739 278.669 268.403 278.948 268.116C279.227 267.829 279.62 267.608 280.136 267.452C280.653 267.296 281.243 267.223 281.923 267.223ZM279.858 273.443V275.565H278.694V273.443H279.858ZM285.242 275.246V276.188H278.702V275.246H285.242ZM281.923 268.141C281.472 268.141 281.079 268.182 280.751 268.255C280.423 268.329 280.169 268.444 279.997 268.591C279.825 268.739 279.735 268.911 279.743 269.116C279.743 269.337 279.825 269.517 279.997 269.665C280.169 269.812 280.423 269.927 280.751 270.001C281.079 270.075 281.472 270.116 281.931 270.116C282.39 270.116 282.783 270.075 283.111 270.001C283.439 269.927 283.685 269.812 283.865 269.665C284.037 269.517 284.127 269.337 284.127 269.116C284.127 268.911 284.037 268.739 283.865 268.591C283.693 268.444 283.439 268.329 283.111 268.255C282.783 268.182 282.39 268.141 281.931 268.141H281.923ZM282.497 270.517V272.312H281.341V270.517H282.497Z" fill="#545251"/>
<path d="M295.453 274.303V275.253H286.856V274.303H295.453ZM294.413 267.664V268.591H289.053V271.656H287.897V267.656H294.413V267.664ZM294.486 271.238V272.155H287.897V271.238H294.486ZM291.708 271.647V274.63H290.561V271.647H291.708Z" fill="#545251"/>
<path d="M299.101 277.245L298.822 277.483C297.323 276.081 296.602 274.426 296.602 272.484C296.602 270.541 297.323 268.878 298.822 267.484L299.101 267.722C297.847 269.533 297.462 270.787 297.462 272.492C297.462 274.196 297.847 275.45 299.101 277.261V277.245Z" fill="#545251"/>
<path d="M301.682 271.385C301.363 271.385 301.068 271.303 300.797 271.148C300.527 270.992 300.314 270.779 300.15 270.508C299.986 270.238 299.912 269.943 299.912 269.623C299.912 269.304 299.994 269.009 300.15 268.738C300.305 268.468 300.527 268.255 300.797 268.099C301.068 267.943 301.363 267.861 301.682 267.861C302.002 267.861 302.297 267.943 302.567 268.099C302.838 268.255 303.051 268.468 303.215 268.738C303.379 269.009 303.452 269.304 303.452 269.623C303.452 269.943 303.371 270.238 303.215 270.508C303.059 270.779 302.838 270.992 302.567 271.148C302.297 271.303 302.002 271.385 301.682 271.385ZM301.682 270.451C301.838 270.451 301.977 270.41 302.1 270.336C302.231 270.262 302.33 270.164 302.403 270.033C302.477 269.91 302.51 269.771 302.51 269.615C302.51 269.459 302.477 269.32 302.403 269.197C302.33 269.074 302.231 268.968 302.1 268.894C301.969 268.82 301.83 268.787 301.682 268.787C301.535 268.787 301.395 268.82 301.264 268.894C301.141 268.968 301.035 269.066 300.961 269.197C300.887 269.32 300.846 269.459 300.846 269.615C300.846 269.771 300.879 269.91 300.961 270.033C301.035 270.156 301.133 270.262 301.264 270.336C301.395 270.41 301.535 270.451 301.682 270.451ZM309.615 270.451C309.566 270.156 309.46 269.902 309.296 269.681C309.124 269.468 308.919 269.304 308.665 269.189C308.411 269.074 308.132 269.017 307.829 269.017C307.411 269.017 307.042 269.123 306.731 269.328C306.419 269.533 306.165 269.836 305.993 270.238C305.821 270.639 305.731 271.115 305.731 271.672C305.731 272.229 305.821 272.721 305.993 273.114C306.165 273.508 306.419 273.811 306.731 274.016C307.05 274.221 307.411 274.319 307.821 274.319C308.124 274.319 308.402 274.262 308.648 274.155C308.894 274.049 309.107 273.885 309.279 273.68C309.451 273.475 309.566 273.221 309.624 272.934H310.992C310.927 273.426 310.754 273.86 310.468 274.254C310.189 274.647 309.82 274.958 309.361 275.188C308.902 275.417 308.386 275.532 307.804 275.532C307.14 275.532 306.542 275.376 306.026 275.065C305.509 274.753 305.1 274.311 304.805 273.721C304.51 273.139 304.362 272.451 304.362 271.656C304.362 270.861 304.51 270.172 304.805 269.59C305.1 269.009 305.509 268.558 306.034 268.246C306.55 267.935 307.149 267.779 307.812 267.779C308.37 267.779 308.87 267.886 309.32 268.091C309.771 268.304 310.148 268.607 310.443 269C310.738 269.394 310.918 269.869 311 270.418H309.632L309.615 270.451Z" fill="#545251"/>
<path d="M311.713 267.714L311.992 267.477C313.491 268.878 314.212 270.533 314.212 272.476C314.212 274.418 313.491 276.082 311.992 277.475L311.713 277.237C312.967 275.426 313.352 274.172 313.352 272.467C313.352 270.763 312.967 269.509 311.713 267.698V267.714Z" fill="#545251"/>
<path d="M19.8867 240.605V239.835L22.2961 237.401C22.583 237.097 22.8042 236.86 22.96 236.671C23.1157 236.483 23.2304 236.302 23.3205 236.122C23.4025 235.942 23.4435 235.753 23.4435 235.557C23.4435 235.335 23.3861 235.139 23.2714 234.967C23.1566 234.795 23.0009 234.663 22.8124 234.573C22.6158 234.483 22.3945 234.434 22.1568 234.434C21.9192 234.434 21.6815 234.483 21.493 234.581C21.3045 234.68 21.157 234.827 21.0505 235.016C20.9439 235.204 20.8947 235.417 20.8947 235.663H19.8867C19.8867 235.245 19.9851 234.876 20.1817 234.557C20.3784 234.237 20.6489 233.991 20.9931 233.811C21.3373 233.639 21.7307 233.549 22.1732 233.549C22.6158 233.549 23.0009 233.631 23.3451 233.803C23.6893 233.975 23.9598 234.213 24.1483 234.508C24.345 234.811 24.4433 235.147 24.4433 235.524C24.4433 235.794 24.3941 236.048 24.2876 236.294C24.1892 236.54 24.0171 236.811 23.7795 237.106C23.5418 237.409 23.1976 237.769 22.7633 238.204L21.3537 239.638V239.687H24.558V240.597H19.8867V240.605Z" fill="#545251"/>
<path d="M28.1556 240.719C27.6229 240.719 27.1639 240.58 26.7788 240.301C26.3936 240.023 26.1067 239.613 25.9019 239.072C25.7052 238.531 25.5986 237.892 25.5986 237.138C25.5986 236.384 25.697 235.745 25.9019 235.212C26.1067 234.679 26.3936 234.27 26.7788 233.983C27.1639 233.696 27.6147 233.557 28.1474 233.557C28.6801 233.557 29.139 233.696 29.516 233.983C29.9012 234.261 30.188 234.671 30.3929 235.212C30.5978 235.745 30.6961 236.384 30.6961 237.138C30.6961 237.892 30.5978 238.539 30.3929 239.072C30.188 239.605 29.9012 240.023 29.516 240.301C29.1308 240.58 28.6719 240.719 28.1392 240.719H28.1556ZM28.1556 239.81C28.467 239.81 28.7374 239.703 28.9669 239.498C29.1882 239.293 29.3603 238.99 29.4832 238.589C29.6061 238.187 29.6635 237.703 29.6635 237.13C29.6635 236.556 29.6061 236.073 29.4832 235.671C29.3603 235.269 29.1882 234.966 28.9669 234.761C28.7456 234.556 28.4752 234.45 28.1638 234.45C27.8523 234.45 27.5901 234.548 27.3606 234.761C27.1393 234.966 26.9672 235.269 26.8443 235.671C26.7214 236.073 26.664 236.556 26.664 237.13C26.664 237.703 26.7214 238.187 26.8443 238.589C26.9591 238.99 27.1312 239.293 27.3606 239.498C27.5901 239.703 27.8523 239.81 28.1638 239.81H28.1556Z" fill="#545251"/>
<path d="M37.7599 249.252V256.21H36.7027V250.317H36.6617L34.998 251.399V250.391L36.7273 249.26H37.7599V249.252Z" fill="#545251"/>
<path d="M39.3828 254.848V253.995L42.456 249.25H43.1281V250.504H42.6937L40.4974 253.897V253.954H44.7179V254.848H39.391H39.3828ZM42.7593 256.2V254.192V249.242H43.7591V256.2H42.7511H42.7593Z" fill="#545251"/>
<path d="M82.1954 249.252V256.21H81.1382V250.317H81.0972L79.4336 251.399V250.391L81.1628 249.26H82.1954V249.252Z" fill="#545251"/>
<path d="M86.4819 256.299C86.0147 256.299 85.5804 256.184 85.187 255.971C84.7936 255.758 84.474 255.405 84.2282 254.914C83.9823 254.414 83.8594 253.766 83.8594 252.955C83.8594 252.144 83.9659 251.472 84.1872 250.906C84.4085 250.332 84.7199 249.906 85.1296 249.603C85.5394 249.3 86.0147 249.152 86.572 249.152C86.99 249.152 87.367 249.234 87.703 249.398C88.039 249.562 88.3094 249.783 88.5143 250.07C88.7192 250.357 88.8503 250.685 88.9077 251.054H87.8669C87.8177 250.857 87.7358 250.693 87.621 250.546C87.5063 250.398 87.3588 250.283 87.1867 250.201C87.0064 250.119 86.8097 250.078 86.5802 250.078C86.2278 250.078 85.9164 250.177 85.6623 250.382C85.4083 250.587 85.2116 250.865 85.0805 251.242C84.9494 251.619 84.8838 252.062 84.8838 252.586H84.9657C85.0887 252.389 85.2444 252.217 85.4247 252.078C85.605 251.939 85.8099 251.832 86.0393 251.758C86.2606 251.685 86.5065 251.652 86.7523 251.652C87.1621 251.652 87.5391 251.75 87.8833 251.947C88.2275 252.144 88.4979 252.414 88.6946 252.758C88.8913 253.111 88.9896 253.496 88.9896 253.93C88.9896 254.365 88.8831 254.783 88.6782 255.143C88.4733 255.504 88.1783 255.791 87.8013 255.995C87.4243 256.2 86.99 256.299 86.4983 256.299H86.4819ZM86.4819 255.414C86.7523 255.414 87.0064 255.348 87.2276 255.217C87.4489 255.086 87.6292 254.905 87.7603 254.684C87.8915 254.463 87.957 254.217 87.957 253.947C87.957 253.676 87.8915 253.438 87.7685 253.225C87.6456 253.004 87.4735 252.832 87.2522 252.701C87.031 252.57 86.7851 252.504 86.5065 252.504C86.2278 252.504 85.982 252.57 85.7525 252.709C85.523 252.84 85.3427 253.021 85.2116 253.242C85.0805 253.463 85.0149 253.701 85.0067 253.963C85.0067 254.217 85.0723 254.455 85.1952 254.684C85.3263 254.905 85.4984 255.086 85.7279 255.217C85.9574 255.348 86.2032 255.414 86.4819 255.414Z" fill="#545251"/>
<path d="M301.936 256.201V255.43L304.345 252.996C304.632 252.701 304.853 252.455 305.009 252.267C305.165 252.078 305.28 251.898 305.362 251.718C305.444 251.538 305.484 251.349 305.484 251.152C305.484 250.931 305.427 250.734 305.312 250.562C305.198 250.39 305.042 250.259 304.853 250.169C304.665 250.079 304.436 250.03 304.198 250.03C303.96 250.03 303.722 250.079 303.534 250.177C303.346 250.275 303.198 250.423 303.091 250.611C302.985 250.8 302.936 251.013 302.936 251.259H301.928C301.928 250.841 302.026 250.472 302.223 250.153C302.419 249.833 302.69 249.587 303.034 249.407C303.378 249.235 303.772 249.145 304.214 249.145C304.657 249.145 305.042 249.226 305.386 249.399C305.73 249.571 306.001 249.808 306.189 250.103C306.386 250.407 306.484 250.743 306.484 251.111C306.484 251.382 306.435 251.636 306.329 251.882C306.23 252.128 306.058 252.398 305.82 252.693C305.583 252.996 305.239 253.357 304.804 253.791L303.395 255.225V255.275H306.599V256.184H301.928L301.936 256.201Z" fill="#545251"/>
<path d="M310.304 256.299C309.837 256.299 309.403 256.184 309.009 255.971C308.616 255.758 308.296 255.405 308.05 254.914C307.805 254.414 307.682 253.766 307.682 252.955C307.682 252.144 307.788 251.472 308.009 250.906C308.231 250.341 308.542 249.906 308.952 249.603C309.362 249.3 309.837 249.152 310.394 249.152C310.812 249.152 311.189 249.234 311.525 249.398C311.861 249.562 312.132 249.783 312.337 250.07C312.541 250.357 312.673 250.685 312.73 251.054H311.689C311.64 250.857 311.558 250.693 311.443 250.546C311.329 250.398 311.181 250.283 311.001 250.201C310.82 250.119 310.624 250.078 310.394 250.078C310.042 250.078 309.73 250.177 309.476 250.382C309.222 250.587 309.026 250.873 308.895 251.242C308.763 251.619 308.698 252.062 308.698 252.586H308.78C308.903 252.389 309.058 252.217 309.239 252.078C309.419 251.939 309.624 251.832 309.853 251.758C310.083 251.685 310.321 251.652 310.566 251.652C310.976 251.652 311.353 251.75 311.697 251.947C312.042 252.144 312.312 252.414 312.509 252.758C312.705 253.111 312.804 253.496 312.804 253.93C312.804 254.365 312.697 254.783 312.492 255.143C312.287 255.504 311.992 255.791 311.615 255.995C311.238 256.2 310.804 256.299 310.312 256.299H310.304ZM310.304 255.414C310.575 255.414 310.829 255.348 311.05 255.217C311.271 255.086 311.451 254.905 311.583 254.684C311.714 254.463 311.779 254.209 311.779 253.947C311.779 253.684 311.714 253.438 311.591 253.225C311.468 253.004 311.296 252.832 311.074 252.701C310.853 252.57 310.607 252.504 310.329 252.504C310.05 252.504 309.804 252.57 309.575 252.709C309.345 252.84 309.165 253.021 309.034 253.242C308.903 253.463 308.837 253.701 308.829 253.963C308.829 254.217 308.895 254.455 309.017 254.684C309.14 254.914 309.321 255.086 309.55 255.217C309.78 255.348 310.025 255.422 310.304 255.422V255.414Z" fill="#545251"/>
<path d="M127.803 249.25V256.208H126.746V250.315H126.705L125.041 251.397V250.389L126.77 249.258H127.803V249.25Z" fill="#545251"/>
<path d="M132.006 256.298C131.514 256.298 131.064 256.216 130.679 256.044C130.293 255.872 129.99 255.643 129.769 255.348C129.548 255.053 129.449 254.717 129.449 254.348C129.449 254.061 129.507 253.79 129.638 253.536C129.761 253.282 129.941 253.077 130.162 252.914C130.383 252.75 130.629 252.643 130.9 252.602V252.569C130.67 252.52 130.457 252.414 130.277 252.266C130.097 252.119 129.957 251.938 129.859 251.717C129.761 251.496 129.711 251.266 129.711 251.012C129.711 250.66 129.81 250.348 130.006 250.062C130.203 249.783 130.482 249.554 130.826 249.398C131.178 249.234 131.572 249.16 132.006 249.16C132.44 249.16 132.826 249.242 133.178 249.398C133.522 249.554 133.801 249.775 133.998 250.062C134.194 250.348 134.293 250.66 134.293 251.012C134.293 251.266 134.243 251.496 134.145 251.717C134.047 251.93 133.907 252.119 133.727 252.266C133.547 252.414 133.342 252.512 133.113 252.569V252.602C133.383 252.643 133.621 252.75 133.85 252.914C134.071 253.077 134.243 253.291 134.375 253.536C134.506 253.79 134.571 254.061 134.571 254.348C134.571 254.725 134.457 255.053 134.235 255.348C134.014 255.643 133.711 255.872 133.326 256.044C132.94 256.208 132.498 256.298 132.014 256.298H132.006ZM132.006 255.438C132.301 255.438 132.563 255.389 132.785 255.29C133.006 255.192 133.178 255.061 133.301 254.88C133.424 254.708 133.481 254.503 133.481 254.274C133.481 254.045 133.416 253.831 133.293 253.643C133.162 253.454 132.99 253.307 132.76 253.2C132.539 253.094 132.285 253.037 131.998 253.037C131.711 253.037 131.457 253.094 131.236 253.2C131.006 253.307 130.834 253.454 130.703 253.643C130.572 253.831 130.515 254.045 130.523 254.274C130.523 254.503 130.572 254.708 130.695 254.88C130.818 255.053 130.99 255.192 131.211 255.29C131.432 255.389 131.703 255.438 131.998 255.438H132.006ZM132.006 252.201C132.244 252.201 132.465 252.151 132.654 252.061C132.842 251.963 132.998 251.84 133.104 251.668C133.211 251.504 133.268 251.307 133.268 251.094C133.268 250.881 133.219 250.693 133.113 250.529C133.006 250.365 132.858 250.234 132.67 250.144C132.481 250.053 132.26 250.004 132.014 250.004C131.768 250.004 131.539 250.053 131.351 250.144C131.162 250.234 131.015 250.365 130.908 250.529C130.801 250.693 130.752 250.881 130.752 251.094C130.752 251.307 130.81 251.504 130.916 251.668C131.023 251.832 131.17 251.963 131.367 252.061C131.555 252.151 131.777 252.201 132.023 252.201H132.006Z" fill="#545251"/>
<path d="M167.796 256.201V255.43L170.132 252.996C170.41 252.693 170.623 252.455 170.779 252.267C170.926 252.078 171.041 251.898 171.123 251.718C171.205 251.538 171.246 251.349 171.246 251.152C171.246 250.931 171.189 250.734 171.082 250.562C170.976 250.39 170.82 250.259 170.631 250.169C170.443 250.079 170.23 250.03 169.992 250.03C169.755 250.03 169.533 250.079 169.345 250.177C169.165 250.275 169.017 250.423 168.919 250.611C168.82 250.8 168.771 251.013 168.771 251.259H167.796C167.796 250.841 167.894 250.472 168.083 250.153C168.271 249.833 168.533 249.587 168.869 249.407C169.205 249.235 169.591 249.145 170.017 249.145C170.443 249.145 170.82 249.226 171.156 249.399C171.492 249.571 171.746 249.808 171.935 250.103C172.123 250.407 172.213 250.743 172.221 251.12C172.221 251.39 172.172 251.644 172.074 251.89C171.975 252.136 171.812 252.406 171.582 252.701C171.353 252.996 171.025 253.365 170.599 253.799L169.23 255.234V255.283H172.336V256.192H167.812L167.796 256.201Z" fill="#545251"/>
<path d="M175.812 256.315C175.295 256.315 174.853 256.176 174.484 255.897C174.115 255.618 173.828 255.209 173.632 254.668C173.435 254.127 173.345 253.488 173.345 252.734C173.345 251.98 173.443 251.34 173.64 250.808C173.836 250.275 174.123 249.865 174.492 249.578C174.861 249.3 175.303 249.152 175.82 249.152C176.336 249.152 176.779 249.292 177.147 249.578C177.516 249.857 177.803 250.267 178 250.808C178.196 251.34 178.295 251.988 178.295 252.734C178.295 253.479 178.196 254.135 178 254.668C177.803 255.209 177.524 255.618 177.147 255.897C176.77 256.176 176.336 256.315 175.82 256.315H175.812ZM175.812 255.405C176.115 255.405 176.377 255.299 176.598 255.094C176.811 254.889 176.983 254.586 177.098 254.184C177.213 253.783 177.27 253.299 177.27 252.725C177.27 252.152 177.213 251.668 177.098 251.267C176.983 250.865 176.82 250.562 176.598 250.357C176.377 250.152 176.123 250.046 175.82 250.046C175.516 250.046 175.262 250.152 175.041 250.357C174.82 250.562 174.656 250.865 174.541 251.267C174.427 251.668 174.369 252.152 174.369 252.725C174.369 253.299 174.427 253.783 174.541 254.184C174.656 254.586 174.82 254.889 175.041 255.094C175.262 255.299 175.516 255.405 175.82 255.405H175.812Z" fill="#545251"/>
<path d="M213.32 256.201V255.43L215.729 252.996C216.016 252.701 216.237 252.455 216.393 252.267C216.549 252.078 216.663 251.898 216.745 251.718C216.827 251.538 216.868 251.349 216.868 251.152C216.868 250.931 216.811 250.734 216.696 250.562C216.581 250.39 216.426 250.259 216.237 250.169C216.049 250.079 215.819 250.03 215.582 250.03C215.344 250.03 215.106 250.079 214.918 250.177C214.729 250.275 214.582 250.423 214.475 250.611C214.369 250.8 214.32 251.013 214.32 251.259H213.312C213.312 250.841 213.41 250.472 213.607 250.153C213.803 249.833 214.074 249.587 214.426 249.407C214.77 249.235 215.164 249.145 215.606 249.145C216.049 249.145 216.434 249.226 216.778 249.399C217.122 249.571 217.393 249.808 217.581 250.103C217.77 250.398 217.876 250.743 217.876 251.111C217.876 251.382 217.827 251.636 217.721 251.882C217.622 252.128 217.45 252.398 217.212 252.693C216.975 252.996 216.631 253.357 216.196 253.791L214.787 255.225V255.275H217.991V256.184H213.32V256.201Z" fill="#545251"/>
<path d="M219.172 256.201V255.43L221.581 252.996C221.868 252.701 222.089 252.455 222.245 252.267C222.401 252.078 222.516 251.898 222.606 251.718C222.696 251.538 222.729 251.349 222.729 251.152C222.729 250.931 222.671 250.734 222.557 250.562C222.442 250.39 222.286 250.259 222.098 250.169C221.901 250.079 221.68 250.03 221.442 250.03C221.204 250.03 220.967 250.079 220.778 250.177C220.59 250.275 220.442 250.423 220.336 250.611C220.229 250.8 220.18 251.013 220.18 251.259H219.172C219.172 250.841 219.27 250.472 219.467 250.153C219.664 249.833 219.934 249.587 220.286 249.407C220.631 249.235 221.024 249.145 221.467 249.145C221.909 249.145 222.294 249.226 222.638 249.399C222.983 249.571 223.253 249.808 223.442 250.103C223.63 250.398 223.737 250.743 223.737 251.111C223.737 251.382 223.679 251.636 223.581 251.882C223.483 252.128 223.31 252.398 223.073 252.693C222.835 252.996 222.491 253.357 222.057 253.791L220.647 255.225V255.275H223.851V256.184H219.18L219.172 256.201Z" fill="#545251"/>
<path d="M256.559 256.201V255.43L258.886 252.996C259.165 252.693 259.378 252.455 259.533 252.267C259.681 252.078 259.796 251.898 259.878 251.718C259.96 251.538 260.001 251.349 260.001 251.152C260.001 250.931 259.943 250.734 259.837 250.562C259.73 250.39 259.583 250.259 259.394 250.169C259.206 250.079 258.993 250.03 258.755 250.03C258.517 250.03 258.296 250.079 258.107 250.177C257.927 250.275 257.78 250.423 257.681 250.611C257.583 250.8 257.534 251.013 257.534 251.259H256.559C256.559 250.841 256.657 250.472 256.845 250.153C257.034 249.833 257.296 249.587 257.632 249.407C257.968 249.235 258.345 249.145 258.771 249.145C259.197 249.145 259.574 249.226 259.902 249.399C260.238 249.571 260.492 249.808 260.681 250.103C260.869 250.407 260.959 250.743 260.968 251.12C260.968 251.39 260.918 251.644 260.82 251.89C260.722 252.136 260.558 252.406 260.328 252.701C260.099 252.996 259.771 253.365 259.345 253.799L257.976 255.234V255.283H261.074V256.192H256.559V256.201Z" fill="#545251"/>
<path d="M261.918 254.848V253.995L264.885 249.25H265.532V250.504H265.114L262.992 253.897V253.954H267.065V254.848H261.918ZM265.18 256.2V254.192V249.242H266.147V256.2H265.172H265.18Z" fill="#545251"/>
<path d="M22.3541 132.887C21.8787 132.887 21.4608 132.805 21.0838 132.649C20.7068 132.485 20.4118 132.264 20.1987 131.977C19.9856 131.69 19.8709 131.354 19.8545 130.977H20.9281C20.9363 131.174 21.01 131.354 21.133 131.502C21.2559 131.649 21.428 131.772 21.6411 131.854C21.8541 131.936 22.0836 131.977 22.3459 131.977C22.6245 131.977 22.8704 131.928 23.0916 131.838C23.3129 131.739 23.485 131.608 23.6079 131.436C23.7309 131.264 23.7964 131.067 23.7882 130.846C23.7882 130.616 23.7309 130.412 23.6079 130.231C23.485 130.051 23.3047 129.912 23.067 129.813C22.8294 129.715 22.5507 129.666 22.2229 129.666H21.6329V128.805H22.2229C22.4852 128.805 22.7146 128.756 22.9195 128.666C23.1244 128.576 23.2801 128.445 23.3949 128.281C23.5096 128.117 23.567 127.92 23.567 127.699C23.567 127.478 23.5178 127.306 23.4194 127.142C23.3211 126.978 23.1818 126.855 22.9933 126.765C22.813 126.674 22.5999 126.634 22.3541 126.634C22.1082 126.634 21.9033 126.674 21.6984 126.756C21.4936 126.838 21.3296 126.961 21.2067 127.109C21.0838 127.256 21.01 127.445 21.0018 127.642H20.002C20.0102 127.273 20.1249 126.945 20.338 126.65C20.5511 126.355 20.8379 126.134 21.1903 125.978C21.5509 125.822 21.9443 125.74 22.3786 125.74C22.813 125.74 23.2146 125.822 23.5506 125.994C23.8866 126.166 24.1488 126.396 24.3291 126.683C24.5094 126.97 24.5996 127.289 24.5996 127.633C24.5996 127.887 24.5504 128.125 24.4521 128.33C24.3537 128.535 24.2062 128.715 24.0259 128.863C23.8456 129.01 23.6243 129.108 23.3785 129.166V129.223C23.6899 129.272 23.9603 129.363 24.1816 129.518C24.4029 129.666 24.575 129.862 24.6979 130.092C24.8208 130.321 24.87 130.584 24.87 130.879C24.87 131.256 24.7635 131.6 24.5504 131.903C24.3373 132.206 24.0341 132.452 23.6489 132.624C23.2637 132.796 22.8376 132.887 22.3623 132.887H22.3541Z" fill="#545251"/>
<path d="M28.4427 132.903C27.91 132.903 27.451 132.764 27.0659 132.485C26.6807 132.206 26.3939 131.797 26.189 131.256C25.9841 130.715 25.8857 130.076 25.8857 129.322C25.8857 128.568 25.9841 127.928 26.189 127.396C26.3939 126.863 26.6807 126.453 27.0659 126.166C27.451 125.888 27.9018 125.74 28.4345 125.74C28.9672 125.74 29.4261 125.88 29.8031 126.166C30.1883 126.445 30.4751 126.855 30.68 127.396C30.8849 127.928 30.9832 128.576 30.9832 129.322C30.9832 130.067 30.8849 130.723 30.68 131.256C30.4751 131.797 30.1883 132.206 29.8031 132.485C29.4179 132.764 28.959 132.903 28.4263 132.903H28.4427ZM28.4427 131.993C28.7541 131.993 29.0245 131.887 29.254 131.682C29.4753 131.477 29.6474 131.174 29.7703 130.772C29.8932 130.371 29.9506 129.887 29.9506 129.313C29.9506 128.74 29.8932 128.256 29.7703 127.855C29.6474 127.453 29.4753 127.15 29.254 126.945C29.0327 126.74 28.7623 126.634 28.4509 126.634C28.1394 126.634 27.8772 126.74 27.6477 126.945C27.4265 127.15 27.2544 127.453 27.1314 127.855C27.0085 128.256 26.9511 128.74 26.9511 129.313C26.9511 129.887 27.0085 130.371 27.1314 130.772C27.2462 131.174 27.4183 131.477 27.6477 131.682C27.869 131.887 28.1394 131.993 28.4509 131.993H28.4427Z" fill="#545251"/>
<path d="M20.2803 187.517V186.747L22.6897 184.313C22.9765 184.009 23.1978 183.772 23.3535 183.583C23.5092 183.395 23.624 183.215 23.7141 183.034C23.7961 182.854 23.837 182.665 23.837 182.469C23.837 182.248 23.7797 182.051 23.6649 181.879C23.5502 181.707 23.3945 181.575 23.206 181.485C23.0093 181.395 22.788 181.346 22.5504 181.346C22.3127 181.346 22.075 181.395 21.8866 181.494C21.6981 181.592 21.5505 181.739 21.444 181.928C21.3375 182.116 21.2883 182.329 21.2883 182.575H20.2803C20.2803 182.157 20.3786 181.789 20.5753 181.469C20.772 181.149 21.0424 180.903 21.3866 180.723C21.7308 180.551 22.1242 180.461 22.5668 180.461C23.0093 180.461 23.3945 180.543 23.7387 180.715C24.0829 180.887 24.3533 181.125 24.5418 181.42C24.7385 181.723 24.8369 182.059 24.8369 182.436C24.8369 182.706 24.7877 182.961 24.6811 183.206C24.5828 183.452 24.4107 183.723 24.173 184.018C23.9354 184.313 23.5912 184.682 23.1568 185.116L21.7472 186.55V186.599H24.9516V187.509H20.2803V187.517Z" fill="#545251"/>
<path d="M28.4921 187.616C28.0577 187.616 27.6644 187.534 27.312 187.37C26.9596 187.207 26.6809 186.977 26.4678 186.69C26.263 186.403 26.1482 186.076 26.1318 185.707H27.1644C27.1808 185.903 27.2464 186.076 27.3693 186.231C27.4923 186.387 27.648 186.51 27.8447 186.6C28.0413 186.69 28.2544 186.731 28.4839 186.731C28.7625 186.731 29.0084 186.666 29.2297 186.543C29.4509 186.42 29.623 186.248 29.746 186.026C29.8689 185.813 29.9345 185.567 29.9345 185.289C29.9345 185.01 29.8689 184.764 29.746 184.543C29.6148 184.322 29.4427 184.141 29.2133 184.019C28.9838 183.896 28.7297 183.83 28.4429 183.822C28.1561 183.822 27.9102 183.871 27.6971 183.969C27.4923 184.068 27.3283 184.223 27.2136 184.437H26.222L26.6809 180.568H30.6229V181.478H27.5578L27.3202 183.42H27.3857C27.4841 183.33 27.5988 183.248 27.7381 183.183C27.8774 183.117 28.0249 183.06 28.1889 183.019C28.3528 182.978 28.5167 182.961 28.697 182.961C29.1313 182.961 29.5165 183.06 29.8689 183.256C30.2131 183.453 30.4835 183.732 30.6802 184.084C30.8769 184.437 30.9753 184.838 30.9753 185.272C30.9753 185.707 30.8687 186.125 30.6556 186.477C30.4426 186.838 30.1557 187.116 29.7787 187.313C29.4018 187.518 28.9756 187.616 28.5003 187.616H28.4921Z" fill="#545251"/>
<path d="M22.4517 81.4354C21.9764 81.4354 21.5584 81.3534 21.1814 81.1977C20.8045 81.0338 20.5094 80.8125 20.2964 80.5257C20.0833 80.2388 19.9685 79.9028 19.9521 79.5259H21.0257C21.0339 79.7225 21.1077 79.9028 21.2306 80.0504C21.3535 80.1979 21.5256 80.3208 21.7387 80.4028C21.9518 80.4847 22.1813 80.5257 22.4435 80.5257C22.7222 80.5257 22.968 80.4765 23.1893 80.3864C23.4106 80.288 23.5827 80.1569 23.7056 79.9848C23.8285 79.8127 23.8941 79.616 23.8859 79.3947C23.8859 79.1653 23.8285 78.9604 23.7056 78.7801C23.5827 78.5998 23.4024 78.4605 23.1647 78.3621C22.927 78.2638 22.6484 78.2146 22.3206 78.2146H21.7305V77.3541H22.3206C22.5828 77.3541 22.8123 77.3049 23.0172 77.2148C23.2221 77.1246 23.3778 76.9935 23.4925 76.8296C23.6072 76.6657 23.6646 76.469 23.6646 76.2477C23.6646 76.0265 23.6154 75.8544 23.5171 75.6905C23.4188 75.5266 23.2794 75.4036 23.0909 75.3135C22.9106 75.2233 22.6976 75.1823 22.4517 75.1823C22.2059 75.1823 22.001 75.2233 21.7961 75.3053C21.5912 75.3872 21.4273 75.5102 21.3044 75.6577C21.1814 75.8052 21.1077 75.9937 21.0995 76.1904H20.0833C20.0915 75.8216 20.2062 75.4938 20.4193 75.1987C20.6324 74.9037 20.9192 74.6824 21.2716 74.5267C21.6322 74.371 22.0256 74.2891 22.4599 74.2891C22.8943 74.2891 23.2958 74.371 23.6318 74.5431C23.9678 74.7152 24.2301 74.9447 24.4104 75.2315C24.5907 75.5184 24.6808 75.838 24.6808 76.1822C24.6808 76.4362 24.6317 76.6739 24.5333 76.8788C24.435 77.0837 24.2875 77.264 24.1072 77.4115C23.9269 77.559 23.7056 77.6573 23.4597 77.7147V77.7721C23.7712 77.8212 24.0416 77.9114 24.2629 78.0671C24.4841 78.2146 24.6562 78.4113 24.7792 78.6408C24.9021 78.8702 24.9513 79.1325 24.9513 79.4275C24.9513 79.8045 24.8447 80.1487 24.6317 80.4519C24.4186 80.7551 24.1154 81.001 23.7302 81.1731C23.345 81.3452 22.9188 81.4354 22.4435 81.4354H22.4517Z" fill="#545251"/>
<path d="M28.4921 81.4347C28.0577 81.4347 27.6644 81.3527 27.312 81.1888C26.9596 81.0249 26.6809 80.7954 26.4678 80.5086C26.263 80.2218 26.1482 79.894 26.1318 79.5252H27.1644C27.1808 79.7219 27.2464 79.894 27.3693 80.0497C27.4923 80.2054 27.648 80.3283 27.8447 80.4184C28.0413 80.5086 28.2544 80.5496 28.4839 80.5496C28.7625 80.5496 29.0084 80.484 29.2297 80.3611C29.4509 80.2382 29.623 80.0661 29.746 79.8448C29.8689 79.6317 29.9345 79.3858 29.9345 79.1072C29.9345 78.8286 29.8689 78.5827 29.746 78.3614C29.6148 78.1402 29.4427 77.9599 29.2133 77.8369C28.9838 77.714 28.7297 77.6484 28.4429 77.6402C28.1561 77.6402 27.9102 77.6894 27.6971 77.7878C27.4923 77.8861 27.3283 78.0418 27.2136 78.2549H26.222L26.6809 74.3867H30.6229V75.2964H27.5578L27.3202 77.2387H27.3857C27.4841 77.1485 27.5988 77.0666 27.7381 77.001C27.8774 76.9355 28.0249 76.8781 28.1889 76.8371C28.3528 76.7961 28.5167 76.7797 28.697 76.7797C29.1313 76.7797 29.5165 76.8781 29.8689 77.0748C30.2131 77.2715 30.4835 77.5501 30.6802 77.9025C30.8769 78.2549 30.9753 78.6565 30.9753 79.0908C30.9753 79.5252 30.8687 79.9431 30.6556 80.2955C30.4426 80.6561 30.1557 80.9348 29.7787 81.1314C29.4018 81.3363 28.9756 81.4347 28.5003 81.4347H28.4921Z" fill="#545251"/>
<path d="M19.7393 26.8962V26.0439L22.8125 21.2988H23.4845V22.5527H23.0502L20.8538 25.9456V26.0029H25.0744V26.8962H19.7393ZM23.1075 28.2566V26.2488V21.2988H24.1073V28.2566H23.0993H23.1075Z" fill="#545251"/>
<path d="M28.5491 28.3717C28.0164 28.3717 27.5575 28.2323 27.1723 27.9537C26.7871 27.6751 26.5003 27.2653 26.2954 26.7244C26.0905 26.1835 25.9922 25.5443 25.9922 24.7903C25.9922 24.0364 26.0905 23.3971 26.2954 22.8644C26.5003 22.3317 26.7871 21.922 27.1723 21.6351C27.5575 21.3565 28.0082 21.209 28.5409 21.209C29.0736 21.209 29.5326 21.3483 29.9095 21.6351C30.2947 21.9138 30.5816 22.3235 30.7864 22.8644C30.9913 23.3971 31.0897 24.0446 31.0897 24.7903C31.0897 25.5361 30.9913 26.1917 30.7864 26.7244C30.5816 27.2653 30.2947 27.6751 29.9095 27.9537C29.5244 28.2323 29.0654 28.3717 28.5327 28.3717H28.5491ZM28.5491 27.462C28.8605 27.462 29.131 27.3555 29.3605 27.1506C29.5817 26.9457 29.7538 26.6425 29.8768 26.2409C29.9997 25.8393 30.0571 25.3558 30.0571 24.7821C30.0571 24.2085 29.9997 23.7249 29.8768 23.3234C29.7538 22.9218 29.5817 22.6186 29.3605 22.4137C29.1392 22.2088 28.8687 22.1023 28.5573 22.1023C28.2459 22.1023 27.9836 22.2088 27.7542 22.4137C27.5329 22.6186 27.3608 22.9218 27.2379 23.3234C27.1149 23.7249 27.0576 24.2085 27.0576 24.7821C27.0576 25.3558 27.1149 25.8393 27.2379 26.2409C27.3526 26.6425 27.5247 26.9457 27.7542 27.1506C27.9754 27.3555 28.2459 27.462 28.5573 27.462H28.5491Z" fill="#545251"/>
<path d="M253.265 284.902C253.265 284.238 253.347 283.607 253.519 283.009C253.691 282.41 253.937 281.853 254.264 281.32H254.748C254.568 281.607 254.404 281.943 254.264 282.345C254.125 282.746 254.01 283.156 253.937 283.607C253.855 284.049 253.822 284.484 253.822 284.91C253.822 285.336 253.863 285.77 253.937 286.213C254.019 286.655 254.125 287.073 254.264 287.475C254.404 287.877 254.568 288.213 254.748 288.491H254.264C253.937 287.967 253.691 287.401 253.519 286.803C253.347 286.205 253.265 285.574 253.265 284.91V284.902Z" fill="#666464"/>
<path d="M258.943 281.72C258.943 282.384 258.837 283.023 258.607 283.613C258.386 284.212 258.034 284.761 257.558 285.261C257.083 285.761 256.468 286.195 255.723 286.556L255.452 286.154C256.124 285.826 256.69 285.441 257.132 284.998C257.583 284.556 257.919 284.056 258.132 283.523C258.353 282.982 258.46 282.409 258.46 281.794V281.72H258.943ZM258.689 281.72V282.13H255.739V281.72H258.689ZM260.705 284.761V285.179H258.599V284.761H260.705ZM260.779 282.909V283.318H258.681V282.909H260.779ZM261.156 280.934V287.916H260.664V280.934H261.156Z" fill="#666464"/>
<path d="M268.771 283.983V284.393H262.411V283.983H268.771ZM265.591 281.041C266.099 281.041 266.542 281.09 266.902 281.189C267.271 281.279 267.55 281.418 267.738 281.598C267.935 281.779 268.025 282 268.025 282.254C268.025 282.508 267.927 282.737 267.738 282.918C267.541 283.098 267.263 283.237 266.902 283.327C266.533 283.418 266.099 283.467 265.583 283.467C265.075 283.467 264.632 283.418 264.263 283.327C263.894 283.237 263.616 283.098 263.427 282.918C263.239 282.737 263.141 282.516 263.141 282.254C263.141 281.992 263.239 281.779 263.427 281.598C263.624 281.418 263.903 281.279 264.263 281.189C264.632 281.09 265.066 281.049 265.583 281.041H265.591ZM267.935 285.114V286.597H263.698V287.532H263.214V286.22H267.443V285.507H263.19V285.114H267.927H267.935ZM268.156 287.433V287.843H263.214V287.433H268.156ZM265.591 281.434C265.198 281.434 264.853 281.467 264.558 281.533C264.271 281.598 264.05 281.697 263.894 281.82C263.739 281.942 263.665 282.09 263.665 282.254C263.665 282.418 263.739 282.574 263.894 282.696C264.05 282.819 264.271 282.918 264.558 282.983C264.845 283.049 265.198 283.082 265.591 283.082C265.984 283.082 266.337 283.049 266.624 282.983C266.919 282.918 267.14 282.819 267.296 282.696C267.451 282.574 267.533 282.426 267.533 282.254C267.533 282.082 267.459 281.942 267.296 281.82C267.14 281.697 266.919 281.598 266.624 281.533C266.328 281.467 265.984 281.434 265.591 281.434ZM265.837 284.213V285.327H265.337V284.213H265.837Z" fill="#666464"/>
<path d="M271.654 282.319C271.654 282.672 271.564 283 271.392 283.311C271.22 283.622 270.974 283.876 270.671 284.098C270.368 284.319 270.023 284.483 269.646 284.598L269.417 284.204C269.753 284.106 270.064 283.967 270.343 283.786C270.622 283.598 270.843 283.385 271.007 283.131C271.171 282.877 271.253 282.614 271.253 282.328V282.008H271.662V282.328L271.654 282.319ZM273.359 281.688V282.106H269.614V281.688H273.359ZM275.154 284.983V286.565H271.179V287.646H270.687V286.171H274.654V285.384H270.663V284.983H275.145H275.154ZM275.441 287.433V287.843H270.695V287.433H275.441ZM271.744 280.918V281.934H271.236V280.918H271.744ZM271.736 282.319C271.736 282.582 271.818 282.836 271.982 283.065C272.146 283.303 272.375 283.499 272.662 283.672C272.949 283.844 273.261 283.967 273.597 284.049L273.367 284.434C272.982 284.335 272.638 284.188 272.326 283.983C272.015 283.778 271.777 283.532 271.597 283.245C271.417 282.959 271.326 282.647 271.335 282.303V281.983H271.736V282.303V282.319ZM274.973 282.729V283.139H273.129V282.729H274.973ZM275.154 280.951V284.63H274.662V280.951H275.154Z" fill="#666464"/>
<path d="M280.989 284.613V285.113H278.58V284.613H280.989Z" fill="#666464"/>
<path d="M290.16 286.581V287.007H283.775V286.581H290.16ZM285.046 281.459V282.77H288.856V281.459H289.348V285.008H284.546V281.459H285.046ZM285.046 284.59H288.856V283.196H285.046V284.59ZM287.193 284.844V286.729H286.701V284.844H287.193Z" fill="#666464"/>
<path d="M292.741 281.222C293.085 281.222 293.388 281.287 293.659 281.418C293.929 281.549 294.142 281.73 294.298 281.959C294.454 282.189 294.528 282.459 294.528 282.754C294.528 283.049 294.446 283.32 294.298 283.549C294.142 283.779 293.929 283.959 293.659 284.09C293.388 284.221 293.085 284.278 292.741 284.278C292.397 284.278 292.085 284.221 291.815 284.09C291.545 283.959 291.331 283.779 291.176 283.549C291.02 283.32 290.946 283.049 290.946 282.754C290.946 282.459 291.02 282.197 291.176 281.959C291.331 281.73 291.545 281.549 291.815 281.418C292.085 281.287 292.397 281.222 292.741 281.222ZM292.741 281.648C292.495 281.648 292.266 281.697 292.069 281.787C291.872 281.877 291.717 282.017 291.602 282.189C291.487 282.361 291.43 282.549 291.438 282.754C291.438 282.967 291.487 283.156 291.602 283.32C291.717 283.492 291.872 283.623 292.069 283.713C292.266 283.811 292.495 283.852 292.741 283.852C292.987 283.852 293.208 283.803 293.405 283.713C293.602 283.615 293.757 283.484 293.872 283.32C293.987 283.148 294.044 282.959 294.044 282.754C294.044 282.549 293.987 282.361 293.872 282.189C293.757 282.017 293.602 281.885 293.405 281.787C293.208 281.689 292.987 281.64 292.741 281.648ZM296.503 284.918V286.524H292.512V287.655H292.028V286.139H296.003V285.327H292.003V284.918H296.494H296.503ZM296.773 287.417V287.827H292.036V287.417H296.773ZM296.503 280.951V284.557H296.003V280.951H296.503Z" fill="#666464"/>
<path d="M301.149 281.623V284H298.535V285.942H298.043V283.574H300.666V282.041H298.019V281.623H301.149ZM298.568 285.811C299.256 285.811 299.838 285.795 300.313 285.762C300.789 285.729 301.272 285.663 301.764 285.573L301.805 285.999C301.297 286.09 300.805 286.155 300.321 286.188C299.838 286.221 299.248 286.245 298.568 286.245H298.051V285.811H298.568ZM303.157 283.688V284.115H301.584V283.688H303.157ZM303.509 280.951V287.934H303.018V280.951H303.509Z" fill="#666464"/>
<path d="M313.09 284.31V284.737H306.73V284.31H313.09ZM309.902 285.409C310.402 285.409 310.828 285.458 311.181 285.556C311.533 285.654 311.812 285.794 312.008 285.982C312.205 286.171 312.295 286.392 312.295 286.654C312.295 286.916 312.197 287.146 312.008 287.326C311.82 287.515 311.541 287.654 311.189 287.752C310.828 287.851 310.402 287.9 309.902 287.9C309.402 287.9 308.976 287.851 308.615 287.752C308.255 287.654 307.984 287.515 307.788 287.326C307.599 287.138 307.501 286.916 307.501 286.654C307.501 286.392 307.599 286.163 307.788 285.982C307.976 285.802 308.255 285.654 308.615 285.556C308.976 285.458 309.402 285.409 309.902 285.409ZM312.287 281.262V281.688H308.034V283.368H307.542V281.262H312.287ZM312.336 283.171V283.589H307.542V283.171H312.336ZM309.902 285.81C309.517 285.81 309.181 285.843 308.894 285.917C308.607 285.982 308.394 286.081 308.238 286.212C308.083 286.343 308.009 286.49 308.009 286.662C308.009 286.835 308.083 286.99 308.238 287.113C308.394 287.236 308.607 287.334 308.894 287.4C309.181 287.466 309.517 287.498 309.902 287.498C310.287 287.498 310.623 287.466 310.91 287.4C311.197 287.334 311.41 287.236 311.566 287.113C311.721 286.99 311.795 286.835 311.803 286.662C311.803 286.49 311.721 286.335 311.566 286.212C311.41 286.081 311.197 285.982 310.91 285.917C310.623 285.851 310.287 285.81 309.902 285.81Z" fill="#666464"/>
<path d="M315.262 284.902C315.262 285.566 315.18 286.197 315.008 286.795C314.836 287.393 314.59 287.951 314.262 288.483H313.778C313.959 288.197 314.123 287.861 314.262 287.459C314.401 287.057 314.508 286.648 314.59 286.197C314.672 285.754 314.704 285.32 314.704 284.894C314.704 284.468 314.663 284.033 314.59 283.591C314.508 283.148 314.401 282.73 314.262 282.329C314.123 281.927 313.959 281.591 313.778 281.312H314.262C314.59 281.837 314.844 282.402 315.008 283.001C315.172 283.599 315.262 284.23 315.262 284.894V284.902Z" fill="#666464"/>
<g opacity="0.4">
<path opacity="0.5" d="M39.0879 128.543H308.238" stroke="#172A88" stroke-opacity="0.5" stroke-width="0.5" stroke-miterlimit="10" stroke-linecap="round"/>
<path opacity="0.32" d="M39.0879 27.0039H308.238" stroke="#172A88" stroke-width="0.5" stroke-miterlimit="10" stroke-linecap="round"/>
<path opacity="0.25" d="M39.0879 75.3223H308.016" stroke="#172A88" stroke-width="0.5" stroke-miterlimit="10" stroke-linecap="round"/>
<path opacity="0.25" d="M39.0879 181.764H308.238" stroke="#172A88" stroke-width="0.5" stroke-miterlimit="10" stroke-linecap="round"/>
<path opacity="0.5" d="M173.975 27.9473V239.017" stroke="#172A88" stroke-opacity="0.5" stroke-width="0.5" stroke-miterlimit="10" stroke-linecap="round"/>
<path opacity="0.25" d="M218.729 27.9473V239.017" stroke="#172A88" stroke-width="0.5" stroke-miterlimit="10" stroke-linecap="round"/>
<path opacity="0.25" d="M263.483 27.9473V239.017" stroke="#172A88" stroke-width="0.5" stroke-miterlimit="10" stroke-linecap="round"/>
<path opacity="0.32" d="M308.238 27.9473V239.017" stroke="#172A88" stroke-width="0.5" stroke-miterlimit="10" stroke-linecap="round"/>
<path opacity="0.25" d="M84.4658 27.9473V239.017" stroke="#172A88" stroke-width="0.5" stroke-miterlimit="10" stroke-linecap="round"/>
<path opacity="0.25" d="M129.22 27.9473V239.017" stroke="#172A88" stroke-width="0.5" stroke-miterlimit="10" stroke-linecap="round"/>
</g>
<path d="M23.2799 3.41078C23.2799 4.00084 23.1734 4.54992 22.9685 5.07442C22.7636 5.59892 22.4604 6.04966 22.067 6.43484C21.6736 6.82002 21.1901 7.10685 20.6246 7.30354L20.0264 6.40206C20.5099 6.23815 20.9278 6.00049 21.2721 5.68907C21.6163 5.37765 21.8785 5.03345 22.0588 4.64007C22.2391 4.2467 22.3292 3.84513 22.3292 3.41897V2.74696H23.2799V3.41897V3.41078ZM25.4517 2.4929V3.43536H20.3706V2.4929H25.4517ZM22.8783 7.5412V8.52464H26.7711V7.5412H27.9266V11.3028H21.731V7.5412H22.8865H22.8783ZM23.5094 3.41897C23.5094 3.80415 23.5913 4.18114 23.7634 4.54992C23.9355 4.91871 24.1814 5.24652 24.5174 5.54155C24.8534 5.83658 25.255 6.05786 25.7221 6.21357L25.1402 7.11505C24.5911 6.92656 24.124 6.64792 23.7388 6.27913C23.3537 5.91034 23.0586 5.47599 22.8619 4.99247C22.6653 4.50075 22.5669 3.98445 22.5669 3.42717V2.74696H23.5094V3.42717V3.41897ZM22.8783 10.3686H26.7711V9.41793H22.8783V10.3686ZM27.0743 4.18113V5.13179H25.1484V4.18113H27.0743ZM27.9266 2.01758V7.14783H26.7711V2.01758H27.9266Z" fill="#545251"/>
<path d="M37.835 6.91717V7.83505H29.2627V6.91717H37.835ZM33.9094 3.66364C33.9094 4.15536 33.7537 4.58152 33.4341 4.9585C33.1227 5.33548 32.6719 5.63871 32.0819 5.86818C31.4918 6.09765 30.8116 6.25336 30.0249 6.31892L29.6643 5.43383C30.3445 5.38466 30.9345 5.27812 31.4181 5.10602C31.9016 4.94211 32.2704 4.72903 32.5162 4.48317C32.7621 4.23731 32.885 3.95867 32.885 3.66364V3.48335H33.9012V3.66364H33.9094ZM36.9909 2.89329V3.81116H30.1068V2.89329H36.9909ZM36.786 8.55623V11.4082H35.6222V9.47411H30.2133V8.55623H36.786ZM34.1143 2V3.36042H32.967V2H34.1143ZM34.1143 5.87637V7.31055H32.967V5.87637H34.1143ZM34.1799 3.66364C34.1799 3.95867 34.3028 4.23731 34.5405 4.48317C34.7781 4.72903 35.1551 4.94211 35.6386 5.10602C36.1222 5.26992 36.7122 5.38466 37.4006 5.43383L37.04 6.31892C36.2451 6.25336 35.5567 6.09765 34.9748 5.86818C34.3929 5.63871 33.9422 5.33548 33.6308 4.9585C33.3194 4.58971 33.1637 4.15536 33.1637 3.66364V3.48335H34.1799V3.66364Z" fill="#545251"/>
<path d="M47.9401 6.91821V7.85248H39.376V6.91821H47.9401ZM43.6457 2.27148C44.3259 2.27148 44.916 2.34524 45.4323 2.50095C45.9404 2.65666 46.3338 2.87794 46.6124 3.16477C46.8911 3.45161 47.0304 3.78761 47.0304 4.17279C47.0304 4.55797 46.8911 4.91856 46.6124 5.2054C46.3338 5.49223 45.9404 5.7217 45.4323 5.86922C44.9242 6.02493 44.3259 6.09869 43.6457 6.09869C42.9655 6.09869 42.3673 6.02493 41.8591 5.86922C41.351 5.71351 40.9577 5.49223 40.6708 5.2054C40.3922 4.91856 40.2529 4.56617 40.2529 4.17279C40.2529 3.78761 40.3922 3.45161 40.6708 3.16477C40.9495 2.87794 41.3428 2.65666 41.8591 2.50095C42.3755 2.34524 42.9655 2.27148 43.6457 2.27148ZM41.5887 8.49171V10.6143H40.425V8.49171H41.5887ZM46.9648 10.2947V11.2289H40.4168V10.2947H46.9648ZM43.6457 3.18936C43.195 3.18936 42.8016 3.23033 42.4738 3.30409C42.146 3.37785 41.8919 3.49258 41.7198 3.6401C41.5477 3.78761 41.4576 3.95971 41.4658 4.1646C41.4658 4.38587 41.5477 4.56617 41.7198 4.71368C41.8919 4.8612 42.146 4.97593 42.4738 5.04969C42.8016 5.12345 43.195 5.16442 43.6539 5.16442C44.1129 5.16442 44.5062 5.12345 44.834 5.04969C45.1619 4.97593 45.4077 4.8612 45.588 4.71368C45.7601 4.56617 45.8503 4.38587 45.8503 4.1646C45.8503 3.95971 45.7601 3.78761 45.588 3.6401C45.4159 3.49258 45.1619 3.37785 44.834 3.30409C44.5062 3.23033 44.1129 3.18936 43.6539 3.18936H43.6457ZM44.2276 5.56599V7.36076H43.0721V5.56599H44.2276Z" fill="#545251"/>
<path d="M57.176 9.35108V10.3017H48.5791V9.35108H57.176ZM56.1434 2.71289V3.63896H50.7836V6.704H49.6281V2.71289H56.1434ZM56.2171 6.28604V7.20391H49.6281V6.28604H56.2171ZM53.4307 6.6958V9.67889H52.2834V6.6958H53.4307Z" fill="#545251"/>
<path d="M60.8228 12.2938L60.5442 12.5315C59.0444 11.1301 58.3232 9.47461 58.3232 7.53233C58.3232 5.59005 59.0444 3.9264 60.5442 2.5332L60.8228 2.77087C59.5689 4.58203 59.1837 5.83591 59.1837 7.54053C59.1837 9.24515 59.5771 10.499 60.8228 12.3102V12.2938Z" fill="#545251"/>
<path d="M63.4118 6.43405C63.0922 6.43405 62.7971 6.3521 62.5267 6.19639C62.2562 6.04068 62.0432 5.8276 61.8793 5.55716C61.7236 5.28671 61.6416 4.99168 61.6416 4.67207C61.6416 4.35245 61.7236 4.05742 61.8793 3.78697C62.035 3.51653 62.2481 3.30345 62.5267 3.14774C62.7971 2.99203 63.0922 2.91008 63.4118 2.91008C63.7314 2.91008 64.0264 2.99203 64.2969 3.14774C64.5673 3.30345 64.7804 3.51653 64.9443 3.78697C65.1 4.05742 65.182 4.35245 65.182 4.67207C65.182 4.99168 65.1 5.28671 64.9443 5.55716C64.7886 5.8276 64.5673 6.04068 64.2969 6.19639C64.0264 6.3521 63.7314 6.43405 63.4118 6.43405ZM63.4118 5.49979C63.5675 5.49979 63.7068 5.45881 63.8297 5.38506C63.9609 5.3113 64.0592 5.21295 64.133 5.08183C64.2067 4.9589 64.2395 4.81958 64.2395 4.66387C64.2395 4.50816 64.2067 4.36884 64.133 4.24591C64.0592 4.12298 63.9609 4.01644 63.8297 3.94268C63.6986 3.86893 63.5593 3.83615 63.4118 3.83615C63.2643 3.83615 63.1249 3.86893 62.9938 3.94268C62.8627 4.01644 62.7644 4.11479 62.6906 4.24591C62.6168 4.37703 62.5759 4.50816 62.5759 4.66387C62.5759 4.81958 62.6168 4.9589 62.6906 5.08183C62.7644 5.20476 62.8627 5.3113 62.9938 5.38506C63.1249 5.45881 63.2561 5.49979 63.4118 5.49979ZM71.3366 5.49979C71.2875 5.20476 71.1809 4.95071 71.0088 4.72943C70.8449 4.51635 70.6318 4.35245 70.3778 4.23772C70.1237 4.12298 69.8451 4.06561 69.5419 4.06561C69.1239 4.06561 68.7551 4.17215 68.4437 4.37704C68.1241 4.58192 67.8782 4.88514 67.7061 5.28671C67.5258 5.68828 67.4357 6.16361 67.4357 6.72089C67.4357 7.27817 67.5258 7.76989 67.7061 8.16326C67.8864 8.56483 68.1323 8.85986 68.4437 9.06474C68.7633 9.26962 69.1239 9.36797 69.5337 9.36797C69.8369 9.36797 70.1155 9.3106 70.3614 9.20406C70.6072 9.09752 70.8203 8.93362 70.9924 8.72873C71.1645 8.52385 71.2793 8.2698 71.3366 7.98296H72.7052C72.6397 8.47468 72.4594 8.90903 72.1807 9.3024C71.9021 9.69578 71.5333 10.0072 71.0744 10.2367C70.6154 10.4661 70.0991 10.5809 69.5173 10.5809C68.8535 10.5809 68.2552 10.4252 67.7389 10.1137C67.2226 9.80232 66.8128 9.35977 66.5178 8.76971C66.2228 8.18785 66.0753 7.49944 66.0753 6.7045C66.0753 5.90955 66.2228 5.22115 66.5178 4.63928C66.8128 4.05742 67.2226 3.60668 67.7471 3.29526C68.2716 2.98384 68.8617 2.82812 69.5255 2.82812C70.0828 2.82812 70.5827 2.93466 71.0334 3.13955C71.4841 3.34443 71.8611 3.65585 72.148 4.04922C72.443 4.4426 72.6233 4.91792 72.7052 5.46701H71.3366V5.49979Z" fill="#545251"/>
<path d="M73.4434 2.76305L73.722 2.52539C75.2217 3.91859 75.9429 5.58223 75.9429 7.52452C75.9429 9.4668 75.2217 11.1304 73.722 12.5236L73.4434 12.286C74.6972 10.4748 75.0824 9.22094 75.0824 7.51632C75.0824 5.8117 74.689 4.55782 73.4434 2.74666V2.76305Z" fill="#545251"/>
</svg>
