<svg width="40" height="50" viewBox="0 0 40 50" fill="none" xmlns="http://www.w3.org/2000/svg">
<path d="M7.10173 1C7.10173 6.94919 1 6.94919 1 12.8984C1 18.8476 7.10173 18.8476 7.10173 24.7968C7.10173 30.7459 1 30.7459 1 36.6951C1 42.6443 7.10173 42.6443 7.10173 48.5935" stroke="white" stroke-width="2" stroke-linecap="round" stroke-linejoin="round"/>
<path d="M24.1873 1C24.1873 6.94919 16.8652 6.94919 16.8652 12.8984C16.8652 18.8476 24.1873 18.8476 24.1873 24.7968C24.1873 30.7459 16.8652 30.7459 16.8652 36.6951C16.8652 42.6443 24.1873 42.6443 24.1873 48.5935" stroke="white" stroke-width="2" stroke-linecap="round" stroke-linejoin="round"/>
<path d="M38.8302 1C38.8302 6.94919 32.7285 6.94919 32.7285 12.8984C32.7285 18.8476 38.8302 18.8476 38.8302 24.7968C38.8302 30.7459 32.7285 30.7459 32.7285 36.6951C32.7285 42.6443 38.8302 42.6443 38.8302 48.5935" stroke="white" stroke-width="2" stroke-linecap="round" stroke-linejoin="round"/>
</svg>
