<svg width="26" height="25" viewBox="0 0 26 25" fill="none" xmlns="http://www.w3.org/2000/svg">
<path d="M12.603 6.63672C9.30496 6.63672 6.62207 9.31961 6.62207 12.6176C6.62207 15.9156 9.30496 18.5985 12.603 18.5985C15.901 18.5985 18.5839 15.9153 18.5839 12.6176C18.5839 9.31992 15.901 6.63672 12.603 6.63672ZM12.603 17.766C9.76436 17.766 7.45464 15.4565 7.45464 12.6176C7.45464 9.7787 9.76405 7.46929 12.603 7.46929C15.4419 7.46929 17.7513 9.7787 17.7513 12.6176C17.7513 15.4565 15.4419 17.766 12.603 17.766Z" fill="white"/>
<path d="M12.6028 5.00093C12.8327 5.00093 13.0191 4.8145 13.0191 4.58464V0.533472C13.0191 0.303616 12.8327 0.117188 12.6028 0.117188C12.373 0.117188 12.1865 0.303616 12.1865 0.533472V4.58464C12.1865 4.8145 12.373 5.00093 12.6028 5.00093Z" fill="white"/>
<path d="M6.62818 7.23158C6.70945 7.31285 6.81616 7.35349 6.92255 7.35349C7.02895 7.35349 7.13566 7.31285 7.21693 7.23158C7.37947 7.06903 7.37947 6.80537 7.21693 6.64282L4.35226 3.77816C4.18972 3.61561 3.92605 3.61561 3.76351 3.77816C3.60097 3.9407 3.60097 4.20437 3.76351 4.36691L6.62818 7.23158Z" fill="white"/>
<path d="M4.98628 12.6175C4.98628 12.3876 4.79985 12.2012 4.56999 12.2012H0.518823C0.288967 12.2012 0.102539 12.3876 0.102539 12.6175C0.102539 12.8473 0.288967 13.0337 0.518823 13.0337H4.56999C4.79985 13.0337 4.98628 12.8473 4.98628 12.6175Z" fill="white"/>
<path d="M6.62818 18.0028L3.76351 20.8674C3.60097 21.03 3.60097 21.2936 3.76351 21.4562C3.84478 21.5375 3.95149 21.5781 4.05789 21.5781C4.16428 21.5781 4.27099 21.5375 4.35226 21.4562L7.21693 18.5915C7.37947 18.429 7.37947 18.1653 7.21693 18.0028C7.05439 17.8402 6.79072 17.8402 6.62818 18.0028Z" fill="white"/>
<path d="M12.6028 20.1172C12.373 20.1172 12.1865 20.3036 12.1865 20.5335V24.5846C12.1865 24.8145 12.373 25.0009 12.6028 25.0009C12.8327 25.0009 13.0191 24.8145 13.0191 24.5846V20.5335C13.0191 20.3036 12.8327 20.1172 12.6028 20.1172Z" fill="white"/>
<path d="M18.5769 18.0028C18.4143 17.8402 18.1507 17.8402 17.9881 18.0028C17.8256 18.1653 17.8256 18.429 17.9881 18.5915L20.8528 21.4562C20.9341 21.5375 21.0408 21.5781 21.1472 21.5781C21.2536 21.5781 21.3603 21.5375 21.4415 21.4562C21.6041 21.2936 21.6041 21.03 21.4415 20.8674L18.5769 18.0028Z" fill="white"/>
<path d="M24.6862 12.2012H20.635C20.4052 12.2012 20.2188 12.3876 20.2188 12.6175C20.2188 12.8473 20.4052 13.0337 20.635 13.0337H24.6862C24.9161 13.0337 25.1025 12.8473 25.1025 12.6175C25.1025 12.3876 24.9161 12.2012 24.6862 12.2012Z" fill="white"/>
<path d="M18.2825 7.35349C18.3892 7.35349 18.4956 7.31285 18.5769 7.23158L21.4415 4.36691C21.6041 4.20437 21.6041 3.9407 21.4415 3.77816C21.279 3.61561 21.0153 3.61561 20.8528 3.77816L17.9881 6.64282C17.8256 6.80537 17.8256 7.06903 17.9881 7.23158C18.0694 7.31285 18.1761 7.35349 18.2825 7.35349Z" fill="white"/>
</svg>
