<svg width="263" height="128" viewBox="0 0 263 128" fill="none" xmlns="http://www.w3.org/2000/svg">
<path d="M70.501 79.6367C70.501 78.5322 71.3964 77.6367 72.501 77.6367H81.5077C82.6122 77.6367 83.5077 78.5321 83.5077 79.6367V101.65C83.5077 102.755 82.6122 103.65 81.5077 103.65H72.501C71.3964 103.65 70.501 102.755 70.501 101.65V79.6367Z" fill="#5CAFEB"/>
<path d="M184.857 79.6367C184.857 78.5322 185.753 77.6367 186.857 77.6367H198.465C199.57 77.6367 200.465 78.5321 200.465 79.6367V101.65C200.465 102.755 199.57 103.65 198.465 103.65H186.857C185.753 103.65 184.857 102.755 184.857 101.65V79.6367Z" fill="#5CAFEB"/>
<path d="M121.991 79.6367C121.991 78.5322 122.887 77.6367 123.991 77.6367H141.452C142.557 77.6367 143.452 78.5321 143.452 79.6367V101.65C143.452 102.755 142.557 103.65 141.452 103.65H123.991C122.887 103.65 121.991 102.755 121.991 101.65V79.6367Z" fill="#5CAFEB"/>
</svg>
