<svg width="335" height="291" viewBox="0 0 335 291" fill="none" xmlns="http://www.w3.org/2000/svg">
<path opacity="0.5" d="M39.4707 76.5684V181.047H108.201L304.183 96.639V76.5684H39.4707Z" fill="#AFD4FF"/>
<mask id="mask0_1284_180617" style="mask-type:luminance" maskUnits="userSpaceOnUse" x="38" y="76" width="267" height="106">
<path d="M39.648 76.6133L38.7109 180.51L107.53 181.091L304.903 97.181V76.6133H39.648Z" fill="white"/>
</mask>
<g mask="url(#mask0_1284_180617)">
<g opacity="0.7">
<path d="M40.2716 67.8633L-132.702 267.074H-132.168L40.8057 67.8633H40.2716Z" fill="white"/>
<path d="M50.6358 67.8633L-122.338 267.074H-121.813L51.1605 67.8633H50.6358Z" fill="white"/>
<path d="M60.9903 67.8633L-111.983 267.074H-111.449L61.515 67.8633H60.9903Z" fill="white"/>
<path d="M71.3536 67.8633L-101.62 267.074H-101.095L71.8783 67.8633H71.3536Z" fill="white"/>
<path d="M81.7081 67.8633L-91.2656 267.074H-90.7409L82.2328 67.8633H81.7081Z" fill="white"/>
<path d="M92.0616 67.8633L-80.9121 267.074H-80.378L92.5957 67.8633H92.0616Z" fill="white"/>
<path d="M102.425 67.8633L-70.5488 267.074H-70.0241L102.95 67.8633H102.425Z" fill="white"/>
<path d="M112.779 67.8633L-60.1943 267.074H-59.6602L113.314 67.8633H112.779Z" fill="white"/>
<path d="M123.143 67.8633L-49.8311 267.074H-49.3063L123.667 67.8633H123.143Z" fill="white"/>
<path d="M133.496 67.8633L-39.4775 267.074H-38.9434L134.021 67.8633H133.496Z" fill="white"/>
<path d="M143.859 67.8633L-29.1143 267.074H-28.5895L144.384 67.8633H143.859Z" fill="white"/>
<path d="M154.215 67.8633L-18.7588 267.074H-18.2341L154.74 67.8633H154.215Z" fill="white"/>
<path d="M164.567 67.8633L-8.40625 267.074H-7.87217L165.102 67.8633H164.567Z" fill="white"/>
<path d="M174.932 67.8633L1.95801 267.074H2.48274L175.456 67.8633H174.932Z" fill="white"/>
<path d="M185.285 67.8633L12.3115 267.074H12.8456L185.819 67.8633H185.285Z" fill="white"/>
<path d="M195.65 67.8633L22.6758 267.074H23.2005L196.174 67.8633H195.65Z" fill="white"/>
<path d="M206.004 67.8633L33.0303 267.074H33.5644L206.529 67.8633H206.004Z" fill="white"/>
<path d="M216.367 67.8633L43.3936 267.074H43.9183L216.892 67.8633H216.367Z" fill="white"/>
<path d="M226.721 67.8633L53.7471 267.074H54.2718L227.246 67.8633H226.721Z" fill="white"/>
<path d="M237.075 67.8633L64.1016 267.074H64.6356L237.609 67.8633H237.075Z" fill="white"/>
<path d="M247.439 67.8633L74.4648 267.074H74.9896L247.963 67.8633H247.439Z" fill="white"/>
<path d="M257.792 67.8633L84.8184 267.074H85.3525L258.326 67.8633H257.792Z" fill="white"/>
<path d="M268.155 67.8633L95.1816 267.074H95.7064L268.68 67.8633H268.155Z" fill="white"/>
<path d="M278.51 67.8633L105.536 267.074H106.07L279.035 67.8633H278.51Z" fill="white"/>
<path d="M288.873 67.8633L115.899 267.074H116.424L289.398 67.8633H288.873Z" fill="white"/>
<path d="M299.228 67.8633L126.254 267.074H126.779L299.752 67.8633H299.228Z" fill="white"/>
<path d="M309.582 67.8633L136.617 267.074H137.142L310.116 67.8633H309.582Z" fill="white"/>
<path d="M319.944 67.8633L146.971 267.074H147.495L320.469 67.8633H319.944Z" fill="white"/>
<path d="M330.299 67.8633L157.325 267.074H157.859L330.833 67.8633H330.299Z" fill="white"/>
<path d="M340.662 67.8633L167.688 267.074H168.213L341.187 67.8633H340.662Z" fill="white"/>
<path d="M351.017 67.8633L178.043 267.074H178.577L351.541 67.8633H351.017Z" fill="white"/>
<path d="M361.379 67.8633L188.405 267.074H188.93L361.904 67.8633H361.379Z" fill="white"/>
<path d="M371.734 67.8633L198.761 267.074H199.285L372.259 67.8633H371.734Z" fill="white"/>
<path d="M382.088 67.8633L209.124 267.074H209.649L382.622 67.8633H382.088Z" fill="white"/>
<path d="M392.45 67.8633L219.477 267.074H220.001L392.975 67.8633H392.45Z" fill="white"/>
<path d="M402.805 67.8633L229.831 267.074H230.365L403.339 67.8633H402.805Z" fill="white"/>
<path d="M413.168 67.8633L240.194 267.074H240.719L413.693 67.8633H413.168Z" fill="white"/>
<path d="M423.523 67.8633L250.549 267.074H251.083L424.047 67.8633H423.523Z" fill="white"/>
<path d="M433.887 67.8633L260.913 267.074H261.438L434.412 67.8633H433.887Z" fill="white"/>
<path d="M444.24 67.8633L271.267 267.074H271.791L444.765 67.8633H444.24Z" fill="white"/>
<path d="M454.593 67.8633L281.629 267.074H282.154L455.127 67.8633H454.593Z" fill="white"/>
<path d="M464.957 67.8633L291.983 267.074H292.508L465.482 67.8633H464.957Z" fill="white"/>
<path d="M475.312 67.8633L302.338 267.074H302.872L475.846 67.8633H475.312Z" fill="white"/>
<path d="M45.3507 67.8633L-127.623 267.074H-127.089L45.8848 67.8633H45.3507Z" fill="white"/>
<path d="M55.7139 67.8633L-117.26 267.074H-116.735L56.2387 67.8633H55.7139Z" fill="white"/>
<path d="M66.0685 67.8633L-106.905 267.074H-106.371L66.6026 67.8633H66.0685Z" fill="white"/>
<path d="M76.4327 67.8633L-96.541 267.074H-96.0163L76.9574 67.8633H76.4327Z" fill="white"/>
<path d="M86.7862 67.8633L-86.1875 267.074H-85.6534L87.3109 67.8633H86.7862Z" fill="white"/>
<path d="M97.1495 67.8633L-75.8242 267.074H-75.2995L97.6742 67.8633H97.1495Z" fill="white"/>
<path d="M107.504 67.8633L-65.4697 267.074H-64.945L108.029 67.8633H107.504Z" fill="white"/>
<path d="M117.858 67.8633L-55.1162 267.074H-54.5821L118.392 67.8633H117.858Z" fill="white"/>
<path d="M128.222 67.8633L-44.752 267.074H-44.2272L128.746 67.8633H128.222Z" fill="white"/>
<path d="M138.574 67.8633L-34.3994 267.074H-33.8653L139.108 67.8633H138.574Z" fill="white"/>
<path d="M148.939 67.8633L-24.0352 267.074H-23.5104L149.463 67.8633H148.939Z" fill="white"/>
<path d="M159.293 67.8633L-13.6807 267.074H-13.1466L159.818 67.8633H159.293Z" fill="white"/>
<path d="M169.656 67.8633L-3.31738 267.074H-2.79265L170.181 67.8633H169.656Z" fill="white"/>
<path d="M180.011 67.8633L7.03711 267.074H7.56184L180.536 67.8633H180.011Z" fill="white"/>
<path d="M190.364 67.8633L17.3906 267.074H17.9247L190.898 67.8633H190.364Z" fill="white"/>
<path d="M200.728 67.8633L27.7539 267.074H28.2786L201.252 67.8633H200.728Z" fill="white"/>
<path d="M211.082 67.8633L38.1084 267.074H38.6425L211.616 67.8633H211.082Z" fill="white"/>
<path d="M221.445 67.8633L48.4717 267.074H48.9964L221.97 67.8633H221.445Z" fill="white"/>
<path d="M231.799 67.8633L58.8252 267.074H59.3593L232.324 67.8633H231.799Z" fill="white"/>
<path d="M242.162 67.8633L69.1885 267.074H69.7132L242.687 67.8633H242.162Z" fill="white"/>
<path d="M252.518 67.8633L79.5439 267.074H80.0687L253.042 67.8633H252.518Z" fill="white"/>
<path d="M262.87 67.8633L89.8965 267.074H90.4306L263.404 67.8633H262.87Z" fill="white"/>
<path d="M273.233 67.8633L100.26 267.074H100.784L273.758 67.8633H273.233Z" fill="white"/>
<path d="M283.588 67.8633L110.614 267.074H111.148L284.122 67.8633H283.588Z" fill="white"/>
<path d="M293.951 67.8633L120.978 267.074H121.502L294.476 67.8633H293.951Z" fill="white"/>
<path d="M304.306 67.8633L131.332 267.074H131.866L304.83 67.8633H304.306Z" fill="white"/>
<path d="M314.67 67.8633L141.696 267.074H142.221L315.195 67.8633H314.67Z" fill="white"/>
<path d="M325.023 67.8633L152.049 267.074H152.574L325.547 67.8633H325.023Z" fill="white"/>
<path d="M335.377 67.8633L162.403 267.074H162.937L335.911 67.8633H335.377Z" fill="white"/>
<path d="M345.74 67.8633L172.767 267.074H173.291L346.265 67.8633H345.74Z" fill="white"/>
<path d="M356.095 67.8633L183.121 267.074H183.655L356.629 67.8633H356.095Z" fill="white"/>
<path d="M366.458 67.8633L193.484 267.074H194.009L366.983 67.8633H366.458Z" fill="white"/>
<path d="M376.813 67.8633L203.839 267.074H204.373L377.337 67.8633H376.813Z" fill="white"/>
<path d="M387.176 67.8633L214.202 267.074H214.727L387.701 67.8633H387.176Z" fill="white"/>
<path d="M397.529 67.8633L224.556 267.074H225.08L398.054 67.8633H397.529Z" fill="white"/>
<path d="M407.885 67.8633L234.911 267.074H235.445L408.419 67.8633H407.885Z" fill="white"/>
<path d="M418.247 67.8633L245.273 267.074H245.798L418.772 67.8633H418.247Z" fill="white"/>
<path d="M428.601 67.8633L255.627 267.074H256.161L429.135 67.8633H428.601Z" fill="white"/>
<path d="M438.965 67.8633L265.991 267.074H266.516L439.49 67.8633H438.965Z" fill="white"/>
<path d="M449.318 67.8633L276.345 267.074H276.879L449.843 67.8633H449.318Z" fill="white"/>
<path d="M459.683 67.8633L286.709 267.074H287.234L460.207 67.8633H459.683Z" fill="white"/>
<path d="M470.036 67.8633L297.062 267.074H297.587L470.561 67.8633H470.036Z" fill="white"/>
</g>
</g>
<path d="M304.183 76.0059V77.1324H40.0337V180.485H106.839L303.962 96.122L304.405 97.1574L107.175 181.566L107.069 181.611H38.9072V76.0059H304.183Z" fill="#52A3FF"/>
</svg>
