<svg width="128" height="153" viewBox="0 0 128 153" fill="none" xmlns="http://www.w3.org/2000/svg">
<path d="M109.97 1.24609H124.757C126.203 1.24609 127.378 2.41783 127.378 3.86657V141.83C127.378 143.276 126.206 144.451 124.757 144.451H109.97" stroke="#918BB1" stroke-width="0.682983" stroke-miterlimit="10"/>
<path d="M112.59 138.864H121.773C122.94 138.864 123.884 137.918 123.884 136.753V8.94068C123.884 7.77384 122.937 6.83008 121.773 6.83008H112.59" stroke="#918BB1" stroke-width="0.512237" stroke-miterlimit="10"/>
<path d="M88.0547 1.24609H109.968C111.415 1.24609 112.589 2.41783 112.589 3.86657V141.83C112.589 143.276 111.417 144.451 109.968 144.451H88.0547" stroke="#759FA3" stroke-width="0.682983" stroke-miterlimit="10"/>
<path d="M90.6748 138.864H106.984C108.151 138.864 109.095 137.918 109.095 136.753V8.94068C109.095 7.77384 108.149 6.83008 106.984 6.83008H90.6748" stroke="#759FA3" stroke-width="0.512237" stroke-miterlimit="10"/>
<path d="M53.7404 144.448H24.0679C22.6215 144.448 21.4473 143.276 21.4473 141.828V3.86657C21.4473 2.42028 22.6191 1.24609 24.0679 1.24609H88.0535C89.4999 1.24609 90.6741 2.41783 90.6741 3.86657V141.83C90.6741 143.276 89.5023 144.451 88.0535 144.451H58.381" stroke="#A49879" stroke-width="0.682983" stroke-miterlimit="10"/>
<path d="M85.0699 6.83008H27.0511C25.8842 6.83008 24.9404 7.77629 24.9404 8.94068V136.756C24.9404 137.923 25.8867 138.866 27.0511 138.866H51.833C52.8847 138.866 53.7378 139.719 53.7378 140.771V152.734H58.3808V140.771C58.3808 139.719 59.234 138.866 60.2856 138.866H85.0675C86.2344 138.866 87.1782 137.92 87.1782 136.756V8.94068C87.1782 7.77384 86.2319 6.83008 85.0675 6.83008H85.0699Z" stroke="#A49879" stroke-width="0.512237" stroke-miterlimit="10"/>
<path d="M17.0871 1.24609H15.908C15.0843 1.24609 14.415 1.91531 14.415 2.73896V142.955C14.415 143.779 15.0843 144.448 15.908 144.448H17.0871" stroke="#D9D9D9" stroke-width="0.936578" stroke-miterlimit="10"/>
<path d="M11.0107 97.1524L11.0107 98.2116L6.22944 98.2116C6.06132 98.2116 5.90665 98.2116 5.76543 98.2116C5.61749 98.2048 5.47627 98.1981 5.34177 98.1914C5.20055 98.1847 5.06606 98.1779 4.93828 98.1712C5.02571 98.2586 5.10977 98.3494 5.19046 98.4436C5.27116 98.5377 5.36531 98.6453 5.4729 98.7663L6.10839 99.5531L5.42247 100.098L3.80853 98.0401L3.80853 97.1524L11.0107 97.1524ZM9.95159 93.3065C10.187 93.367 10.4425 93.4444 10.7182 93.5385C10.9939 93.6327 11.2663 93.7335 11.5353 93.8411C11.811 93.9487 12.0699 94.0597 12.312 94.174L12.312 94.9507C12.0497 94.8835 11.7706 94.8196 11.4748 94.7591C11.1856 94.6918 10.8998 94.6313 10.6173 94.5775C10.3349 94.5237 10.076 94.48 9.84063 94.4464L9.84063 93.3771L9.95159 93.3065ZM6.8851 87.4818C7.29531 87.4818 7.70552 87.5121 8.11573 87.5726C8.51922 87.6331 8.90253 87.734 9.26567 87.8752C9.62208 88.0165 9.94151 88.2182 10.2239 88.4805C10.4997 88.736 10.7182 89.0622 10.8796 89.4589C11.0343 89.8489 11.1116 90.323 11.1116 90.8812C11.1116 91.0157 11.1049 91.1737 11.0914 91.3553C11.078 91.5369 11.0545 91.6882 11.0208 91.8092L10.1231 91.8092C10.1634 91.6814 10.1937 91.5402 10.2139 91.3856C10.234 91.2242 10.2441 91.0695 10.2441 90.9215C10.2441 90.4575 10.1769 90.0776 10.0424 89.7817C9.90116 89.4791 9.70614 89.2404 9.45732 89.0655C9.20851 88.8839 8.91934 88.7528 8.58983 88.6721C8.26032 88.5914 7.91063 88.5443 7.54077 88.5309L7.54077 88.5914C7.69544 88.6923 7.83666 88.8167 7.96443 88.9646C8.0922 89.1126 8.19307 89.2942 8.26704 89.5093C8.34101 89.7178 8.378 89.97 8.378 90.2659C8.378 90.6761 8.29058 91.0392 8.11573 91.3553C7.94089 91.6646 7.69207 91.9034 7.36928 92.0715C7.03977 92.2396 6.63965 92.3237 6.16892 92.3237C5.65783 92.3237 5.22072 92.2295 4.85759 92.0412C4.48773 91.8462 4.20529 91.5738 4.01027 91.2242C3.81525 90.8677 3.71774 90.4542 3.71774 89.9834C3.71774 89.6338 3.78163 89.3076 3.9094 89.005C4.03717 88.7024 4.23218 88.4367 4.49445 88.2081C4.75672 87.9795 5.08623 87.8013 5.48299 87.6735C5.87975 87.5457 6.34712 87.4818 6.8851 87.4818ZM4.59532 89.9734C4.59532 90.3567 4.72309 90.6694 4.97863 90.9115C5.23417 91.1536 5.62421 91.2746 6.14874 91.2746C6.57913 91.2746 6.91873 91.1737 7.16754 90.972C7.41636 90.7635 7.54077 90.4441 7.54077 90.0137C7.54077 89.7178 7.48024 89.4623 7.3592 89.2471C7.23143 89.0319 7.07676 88.8638 6.89519 88.7427C6.7069 88.6217 6.51188 88.5612 6.31014 88.5612C6.10839 88.5612 5.90665 88.5914 5.70491 88.6519C5.50316 88.7125 5.31823 88.7999 5.15011 88.9142C4.982 89.0285 4.8475 89.1765 4.74663 89.358C4.64576 89.5329 4.59532 89.738 4.59532 89.9734ZM6.54214 84.3622C6.54214 83.8848 6.6262 83.4678 6.79432 83.1114C6.96244 82.755 7.20453 82.4793 7.52059 82.2843C7.83666 82.0825 8.22333 81.9817 8.68061 81.9817C9.18497 81.9817 9.61872 82.0893 9.98185 82.3045C10.345 82.5196 10.6241 82.8323 10.8191 83.2426C11.0141 83.646 11.1116 84.1403 11.1116 84.7254C11.1116 85.0952 11.078 85.4449 11.0107 85.7744C10.9435 86.1039 10.846 86.383 10.7182 86.6117L9.73976 86.6117C9.88098 86.3696 9.9953 86.077 10.0827 85.7341C10.1701 85.3844 10.2139 85.0515 10.2139 84.7355C10.2139 84.3925 10.1634 84.1 10.0626 83.8579C9.95495 83.6091 9.79692 83.4174 9.58846 83.2829C9.37326 83.1417 9.10427 83.0711 8.78148 83.0711C8.34437 83.0711 8.0115 83.2089 7.78286 83.4846C7.54749 83.7536 7.42981 84.1807 7.42981 84.7657C7.42981 84.954 7.44662 85.1658 7.48024 85.4012C7.51387 85.6298 7.54749 85.8148 7.58111 85.956L7.28859 86.4503L3.80853 86.1779L3.80852 82.4759L4.75672 82.4759L4.75672 85.2499L6.64301 85.4113C6.62284 85.297 6.60266 85.1524 6.58249 84.9775C6.55559 84.8027 6.54214 84.5976 6.54214 84.3622ZM7.39955 76.3201C7.9846 76.3201 8.50577 76.3672 8.96305 76.4613C9.42034 76.5487 9.81037 76.69 10.1332 76.885C10.4492 77.0733 10.6913 77.3255 10.8594 77.6415C11.0276 77.9509 11.1116 78.3241 11.1116 78.7612C11.1116 79.3126 10.9637 79.7665 10.6678 80.123C10.3719 80.4794 9.94823 80.745 9.3968 80.9198C8.83864 81.0947 8.17289 81.1821 7.39955 81.1821C6.61947 81.1821 5.95372 81.1048 5.40229 80.9501C4.85086 80.7887 4.43057 80.5298 4.1414 80.1734C3.84551 79.817 3.69757 79.3462 3.69757 78.7612C3.69757 78.2098 3.84551 77.7558 4.1414 77.3994C4.43057 77.0363 4.85086 76.7673 5.40229 76.5925C5.95372 76.4109 6.61947 76.3201 7.39955 76.3201ZM7.39955 80.1129C8.02495 80.1129 8.54612 80.0692 8.96305 79.9817C9.37999 79.8943 9.69269 79.7531 9.90116 79.5581C10.1096 79.3563 10.2139 79.0907 10.2139 78.7612C10.2139 78.4317 10.113 78.1694 9.91124 77.9744C9.70278 77.7726 9.39007 77.6281 8.97314 77.5406C8.54948 77.4465 8.02495 77.3994 7.39955 77.3994C6.77414 77.3994 6.25634 77.4465 5.84613 77.5406C5.42919 77.6281 5.11649 77.7726 4.90802 77.9744C4.69956 78.1694 4.59532 78.4317 4.59532 78.7612C4.59532 79.0907 4.69956 79.3563 4.90802 79.5581C5.11649 79.7531 5.42919 79.8943 5.84613 79.9817C6.25634 80.0692 6.77414 80.1129 7.39955 80.1129ZM5.4729 69.1354C5.4729 68.5234 5.63093 68.0628 5.947 67.7534C6.26306 67.4441 6.77078 67.2894 7.47016 67.2894L11.0107 67.2894L11.0107 68.3587L7.61138 68.3587C7.19444 68.3587 6.88174 68.4427 6.67327 68.6108C6.45808 68.7722 6.35048 69.0278 6.35048 69.3775C6.35048 69.8617 6.50179 70.208 6.8044 70.4164C7.10029 70.6249 7.53068 70.7291 8.09556 70.7291L11.0107 70.7291L11.0107 71.7883L7.61138 71.7883C7.33566 71.7883 7.10366 71.8286 6.91536 71.9093C6.72707 71.9833 6.58585 72.0943 6.4917 72.2422C6.39756 72.3902 6.35048 72.5818 6.35048 72.8172C6.35048 73.1534 6.42446 73.4191 6.5724 73.6141C6.72035 73.8091 6.9389 73.9503 7.22806 74.0377C7.5105 74.1184 7.85683 74.1588 8.26704 74.1588L11.0107 74.1588L11.0107 75.228L5.57377 75.228L5.57377 74.3807L6.30005 74.2294L6.30005 74.1689C6.11175 74.0545 5.95708 73.9167 5.83604 73.7553C5.71499 73.5872 5.62421 73.4022 5.56369 73.2005C5.50316 72.9988 5.4729 72.7903 5.4729 72.5751C5.4729 72.1649 5.54687 71.8186 5.69482 71.5361C5.83604 71.2537 6.05459 71.0486 6.35048 70.9208L6.35048 70.8401C6.04787 70.6653 5.82595 70.4232 5.68473 70.1138C5.54351 69.8045 5.4729 69.4783 5.4729 69.1354ZM5.4729 59.7622C5.4729 59.1503 5.63093 58.6896 5.947 58.3803C6.26306 58.0709 6.77078 57.9163 7.47016 57.9163L11.0107 57.9163L11.0107 58.9855L7.61137 58.9855C7.19444 58.9855 6.88174 59.0696 6.67327 59.2377C6.45808 59.3991 6.35048 59.6546 6.35048 60.0043C6.35048 60.4885 6.50179 60.8348 6.8044 61.0433C7.10029 61.2518 7.53068 61.356 8.09556 61.356L11.0107 61.356L11.0107 62.4151L7.61138 62.4151C7.33566 62.4151 7.10366 62.4555 6.91536 62.5362C6.72707 62.6102 6.58585 62.7211 6.4917 62.8691C6.39756 63.017 6.35048 63.2087 6.35048 63.444C6.35048 63.7803 6.42446 64.0459 6.5724 64.2409C6.72034 64.4359 6.9389 64.5771 7.22806 64.6646C7.5105 64.7453 7.85683 64.7856 8.26704 64.7856L11.0107 64.7856L11.0107 65.8549L5.57377 65.8549L5.57377 65.0075L6.30005 64.8562L6.30005 64.7957C6.11175 64.6814 5.95708 64.5435 5.83604 64.3821C5.71499 64.214 5.62421 64.0291 5.56369 63.8273C5.50316 63.6256 5.4729 63.4171 5.4729 63.2019C5.4729 62.7917 5.54687 62.4454 5.69482 62.163C5.83604 61.8805 6.05459 61.6754 6.35048 61.5476L6.35048 61.4669C6.04787 61.2921 5.82595 61.05 5.68473 60.7407C5.54351 60.4313 5.4729 60.1052 5.4729 59.7622Z" fill="#A6A5A3"/>
<path d="M33.5383 44.6147C33.5383 45.0451 33.4341 45.4116 33.2256 45.7142C33.0172 46.0168 32.7179 46.2522 32.3279 46.4203C31.9378 46.5817 31.4738 46.6624 30.9359 46.6624C30.6736 46.6624 30.4214 46.6456 30.1793 46.612C29.9372 46.5851 29.7119 46.5447 29.5035 46.4909C29.295 46.4371 29.1101 46.3699 28.9487 46.2892V45.2603C29.2177 45.3813 29.5337 45.4923 29.8969 45.5932C30.26 45.6873 30.6299 45.7344 31.0065 45.7344C31.3293 45.7344 31.5982 45.6907 31.8134 45.6032C32.0286 45.5158 32.19 45.3948 32.2976 45.2401C32.4052 45.0854 32.459 44.9039 32.459 44.6954C32.459 44.4735 32.4019 44.2886 32.2875 44.1406C32.1799 43.9859 32.0085 43.8447 31.7731 43.717C31.5444 43.5825 31.2351 43.4412 30.8451 43.2933C30.5761 43.1924 30.3306 43.0815 30.1087 42.9604C29.8935 42.8326 29.7019 42.6847 29.5337 42.5166C29.3723 42.3485 29.2479 42.1534 29.1605 41.9315C29.0731 41.7096 29.0294 41.4507 29.0294 41.1548C29.0294 40.7581 29.1269 40.4185 29.3219 40.136C29.5237 39.8536 29.7994 39.6384 30.1491 39.4904C30.4987 39.3358 30.9056 39.2584 31.3696 39.2584C31.7596 39.2584 32.1194 39.2988 32.4489 39.3795C32.7852 39.4535 33.1046 39.5577 33.4072 39.6922L33.0642 40.5899C32.7885 40.4756 32.5094 40.3815 32.227 40.3075C31.9446 40.2335 31.6487 40.1965 31.3393 40.1965C31.0703 40.1965 30.8451 40.2369 30.6635 40.3176C30.4819 40.3983 30.3441 40.5092 30.2499 40.6505C30.1625 40.7917 30.1188 40.9564 30.1188 41.1447C30.1188 41.3666 30.1692 41.5516 30.2701 41.6995C30.371 41.8475 30.5324 41.9853 30.7543 42.1131C30.9762 42.2341 31.2687 42.3686 31.6319 42.5166C32.0354 42.6713 32.3783 42.8394 32.6608 43.0209C32.9499 43.2025 33.1685 43.4211 33.3164 43.6766C33.4644 43.9254 33.5383 44.2381 33.5383 44.6147ZM36.893 45.9664C36.893 45.7041 36.9603 45.5192 37.0948 45.4116C37.2293 45.304 37.3906 45.2502 37.5789 45.2502C37.774 45.2502 37.9387 45.304 38.0732 45.4116C38.2077 45.5192 38.275 45.7041 38.275 45.9664C38.275 46.2286 38.2077 46.4169 38.0732 46.5313C37.9387 46.6456 37.774 46.7027 37.5789 46.7027C37.3906 46.7027 37.2293 46.6456 37.0948 46.5313C36.9603 46.4169 36.893 46.2286 36.893 45.9664ZM36.893 41.7298C36.893 41.4541 36.9603 41.2624 37.0948 41.1548C37.2293 41.0472 37.3906 40.9934 37.5789 40.9934C37.774 40.9934 37.9387 41.0472 38.0732 41.1548C38.2077 41.2624 38.275 41.4541 38.275 41.7298C38.275 41.9853 38.2077 42.1703 38.0732 42.2846C37.9387 42.3989 37.774 42.4561 37.5789 42.4561C37.3906 42.4561 37.2293 42.3989 37.0948 42.2846C36.9603 42.1703 36.893 41.9853 36.893 41.7298ZM44.9345 46.5615H43.8754V41.7802C43.8754 41.6121 43.8754 41.4574 43.8754 41.3162C43.8821 41.1683 43.8888 41.027 43.8955 40.8926C43.9023 40.7513 43.909 40.6168 43.9157 40.4891C43.8283 40.5765 43.7375 40.6605 43.6434 40.7412C43.5492 40.8219 43.4416 40.9161 43.3206 41.0237L42.5338 41.6592L41.9891 40.9732L44.0468 39.3593H44.9345V46.5615ZM48.7804 45.5024C48.7199 45.7377 48.6425 45.9933 48.5484 46.269C48.4542 46.5447 48.3534 46.8171 48.2458 47.0861C48.1382 47.3618 48.0272 47.6207 47.9129 47.8628H47.1362C47.2034 47.6005 47.2673 47.3214 47.3278 47.0255C47.3951 46.7364 47.4556 46.4506 47.5094 46.1681C47.5632 45.8857 47.6069 45.6268 47.6405 45.3914H48.7098L48.7804 45.5024ZM54.6253 42.9503C54.6253 43.5354 54.5782 44.0566 54.484 44.5138C54.3966 44.9711 54.2554 45.3612 54.0604 45.6839C53.8721 46 53.6199 46.2421 53.3038 46.4102C52.9945 46.5783 52.6213 46.6624 52.1842 46.6624C51.6327 46.6624 51.1788 46.5145 50.8224 46.2186C50.466 45.9227 50.2004 45.499 50.0255 44.9476C49.8507 44.3894 49.7633 43.7237 49.7633 42.9503C49.7633 42.1703 49.8406 41.5045 49.9953 40.9531C50.1567 40.4016 50.4156 39.9813 50.772 39.6922C51.1284 39.3963 51.5991 39.2483 52.1842 39.2483C52.7356 39.2483 53.1895 39.3963 53.5459 39.6922C53.9091 39.9813 54.1781 40.4016 54.3529 40.9531C54.5345 41.5045 54.6253 42.1703 54.6253 42.9503ZM50.8325 42.9503C50.8325 43.5757 50.8762 44.0969 50.9636 44.5138C51.051 44.9308 51.1923 45.2435 51.3873 45.4519C51.589 45.6604 51.8547 45.7646 52.1842 45.7646C52.5137 45.7646 52.776 45.6638 52.971 45.462C53.1727 45.2536 53.3173 44.9409 53.4047 44.5239C53.4989 44.1003 53.5459 43.5757 53.5459 42.9503C53.5459 42.3249 53.4989 41.8071 53.4047 41.3969C53.3173 40.98 53.1727 40.6673 52.971 40.4588C52.776 40.2503 52.5137 40.1461 52.1842 40.1461C51.8547 40.1461 51.589 40.2503 51.3873 40.4588C51.1923 40.6673 51.051 40.98 50.9636 41.3969C50.8762 41.8071 50.8325 42.3249 50.8325 42.9503ZM60.196 42.9503C60.196 43.5354 60.149 44.0566 60.0548 44.5138C59.9674 44.9711 59.8262 45.3612 59.6312 45.6839C59.4429 46 59.1907 46.2421 58.8746 46.4102C58.5653 46.5783 58.1921 46.6624 57.7549 46.6624C57.2035 46.6624 56.7496 46.5145 56.3932 46.2186C56.0368 45.9227 55.7711 45.499 55.5963 44.9476C55.4215 44.3894 55.334 43.7237 55.334 42.9503C55.334 42.1703 55.4114 41.5045 55.566 40.9531C55.7274 40.4016 55.9863 39.9813 56.3428 39.6922C56.6992 39.3963 57.1699 39.2483 57.7549 39.2483C58.3064 39.2483 58.7603 39.3963 59.1167 39.6922C59.4799 39.9813 59.7488 40.4016 59.9237 40.9531C60.1053 41.5045 60.196 42.1703 60.196 42.9503ZM56.4033 42.9503C56.4033 43.5757 56.447 44.0969 56.5344 44.5138C56.6218 44.9308 56.763 45.2435 56.9581 45.4519C57.1598 45.6604 57.4254 45.7646 57.7549 45.7646C58.0845 45.7646 58.3467 45.6638 58.5417 45.462C58.7435 45.2536 58.8881 44.9409 58.9755 44.5239C59.0696 44.1003 59.1167 43.5757 59.1167 42.9503C59.1167 42.3249 59.0696 41.8071 58.9755 41.3969C58.8881 40.98 58.7435 40.6673 58.5417 40.4588C58.3467 40.2503 58.0845 40.1461 57.7549 40.1461C57.4254 40.1461 57.1598 40.2503 56.9581 40.4588C56.763 40.6673 56.6218 40.98 56.5344 41.3969C56.447 41.8071 56.4033 42.3249 56.4033 42.9503ZM65.7668 42.9503C65.7668 43.5354 65.7197 44.0566 65.6256 44.5138C65.5382 44.9711 65.397 45.3612 65.2019 45.6839C65.0136 46 64.7615 46.2421 64.4454 46.4102C64.1361 46.5783 63.7628 46.6624 63.3257 46.6624C62.7743 46.6624 62.3204 46.5145 61.964 46.2186C61.6076 45.9227 61.3419 45.499 61.1671 44.9476C60.9922 44.3894 60.9048 43.7237 60.9048 42.9503C60.9048 42.1703 60.9822 41.5045 61.1368 40.9531C61.2982 40.4016 61.5571 39.9813 61.9135 39.6922C62.2699 39.3963 62.7407 39.2483 63.3257 39.2483C63.8772 39.2483 64.3311 39.3963 64.6875 39.6922C65.0506 39.9813 65.3196 40.4016 65.4945 40.9531C65.676 41.5045 65.7668 42.1703 65.7668 42.9503ZM61.9741 42.9503C61.9741 43.5757 62.0178 44.0969 62.1052 44.5138C62.1926 44.9308 62.3338 45.2435 62.5288 45.4519C62.7306 45.6604 62.9962 45.7646 63.3257 45.7646C63.6552 45.7646 63.9175 45.6638 64.1125 45.462C64.3143 45.2536 64.4589 44.9409 64.5463 44.5239C64.6404 44.1003 64.6875 43.5757 64.6875 42.9503C64.6875 42.3249 64.6404 41.8071 64.5463 41.3969C64.4589 40.98 64.3143 40.6673 64.1125 40.4588C63.9175 40.2503 63.6552 40.1461 63.3257 40.1461C62.9962 40.1461 62.7306 40.2503 62.5288 40.4588C62.3338 40.6673 62.1926 40.98 62.1052 41.3969C62.0178 41.8071 61.9741 42.3249 61.9741 42.9503ZM72.9515 41.0237C73.5635 41.0237 74.0241 41.1817 74.3335 41.4978C74.6428 41.8138 74.7975 42.3216 74.7975 43.0209V46.5615H73.7282V43.1622C73.7282 42.7452 73.6442 42.4325 73.4761 42.2241C73.3147 42.0089 73.0591 41.9013 72.7094 41.9013C72.2253 41.9013 71.8789 42.0526 71.6705 42.3552C71.462 42.6511 71.3578 43.0815 71.3578 43.6463V46.5615H70.2986V43.1622C70.2986 42.8864 70.2583 42.6544 70.1776 42.4661C70.1036 42.2779 69.9926 42.1366 69.8447 42.0425C69.6968 41.9483 69.5051 41.9013 69.2697 41.9013C68.9335 41.9013 68.6679 41.9752 68.4728 42.1232C68.2778 42.2711 68.1366 42.4897 68.0492 42.7788C67.9685 43.0613 67.9281 43.4076 67.9281 43.8178V46.5615H66.8589V41.1246H67.7062L67.8575 41.8508H67.9181C68.0324 41.6625 68.1702 41.5079 68.3316 41.3868C68.4997 41.2658 68.6847 41.175 68.8864 41.1145C69.0882 41.0539 69.2966 41.0237 69.5118 41.0237C69.922 41.0237 70.2684 41.0977 70.5508 41.2456C70.8332 41.3868 71.0383 41.6054 71.1661 41.9013H71.2468C71.4217 41.5987 71.6637 41.3767 71.9731 41.2355C72.2824 41.0943 72.6086 41.0237 72.9515 41.0237ZM82.3247 41.0237C82.9366 41.0237 83.3973 41.1817 83.7066 41.4978C84.016 41.8138 84.1706 42.3216 84.1706 43.0209V46.5615H83.1014V43.1622C83.1014 42.7452 83.0173 42.4325 82.8492 42.2241C82.6878 42.0089 82.4323 41.9013 82.0826 41.9013C81.5984 41.9013 81.2521 42.0526 81.0436 42.3552C80.8352 42.6511 80.7309 43.0815 80.7309 43.6463V46.5615H79.6718V43.1622C79.6718 42.8864 79.6314 42.6544 79.5507 42.4661C79.4768 42.2779 79.3658 42.1366 79.2179 42.0425C79.0699 41.9483 78.8783 41.9013 78.6429 41.9013C78.3066 41.9013 78.041 41.9752 77.846 42.1232C77.651 42.2711 77.5098 42.4897 77.4223 42.7788C77.3416 43.0613 77.3013 43.4076 77.3013 43.8178V46.5615H76.2321V41.1246H77.0794L77.2307 41.8508H77.2912C77.4055 41.6625 77.5434 41.5079 77.7048 41.3868C77.8729 41.2658 78.0578 41.175 78.2596 41.1145C78.4613 41.0539 78.6698 41.0237 78.885 41.0237C79.2952 41.0237 79.6415 41.0977 79.924 41.2456C80.2064 41.3868 80.4115 41.6054 80.5393 41.9013H80.62C80.7948 41.5987 81.0369 41.3767 81.3462 41.2355C81.6556 41.0943 81.9817 41.0237 82.3247 41.0237Z" fill="#A49879"/>
<path d="M90.3408 47.9541L86.9259 45.9825L86.9259 49.9257L90.3408 47.9541ZM21.7057 47.9541L25.1206 49.9257L25.1206 45.9825L21.7057 47.9541ZM87.2674 47.9541L87.2674 47.6126L24.7791 47.6126L24.7791 47.9541L24.7791 48.2956L87.2674 48.2956L87.2674 47.9541Z" fill="#A49879"/>
<path d="M34.7297 69.6408C34.7297 70.2124 34.6557 70.7335 34.5078 71.2043C34.3598 71.6683 34.1379 72.065 33.842 72.3945C33.5461 72.7241 33.1763 72.9695 32.7324 73.1309L34.4573 74.9668H32.9644L31.5926 73.3427C31.5589 73.3427 31.522 73.3427 31.4816 73.3427C31.448 73.3495 31.4144 73.3528 31.3807 73.3528C30.8091 73.3528 30.3115 73.2654 29.8878 73.0906C29.4709 72.909 29.1212 72.6568 28.8388 72.334C28.5631 72.0045 28.358 71.6111 28.2235 71.1538C28.089 70.6965 28.0217 70.1888 28.0217 69.6307C28.0217 68.8909 28.1428 68.2454 28.3849 67.6939C28.627 67.1425 28.9968 66.7121 29.4944 66.4028C29.9988 66.0934 30.6309 65.9388 31.3908 65.9388C32.1306 65.9388 32.7459 66.0934 33.2368 66.4028C33.7344 66.7054 34.1076 67.1358 34.3564 67.6939C34.6053 68.2454 34.7297 68.8943 34.7297 69.6408ZM29.1717 69.6408C29.1717 70.2191 29.249 70.7167 29.4037 71.1337C29.5583 71.5439 29.8004 71.8633 30.1299 72.0919C30.4595 72.3138 30.8764 72.4248 31.3807 72.4248C31.8918 72.4248 32.3088 72.3138 32.6315 72.0919C32.9543 71.8633 33.1931 71.5439 33.3477 71.1337C33.5024 70.7167 33.5797 70.2191 33.5797 69.6408C33.5797 68.7733 33.4049 68.0974 33.0552 67.6132C32.7122 67.1223 32.1575 66.8769 31.3908 66.8769C30.8797 66.8769 30.4595 66.9878 30.1299 67.2098C29.8004 67.4317 29.5583 67.7477 29.4037 68.1579C29.249 68.5682 29.1717 69.0624 29.1717 69.6408ZM38.2392 72.6568C38.2392 72.3945 38.3065 72.2096 38.441 72.102C38.5754 71.9944 38.7368 71.9406 38.9251 71.9406C39.1202 71.9406 39.2849 71.9944 39.4194 72.102C39.5539 72.2096 39.6211 72.3945 39.6211 72.6568C39.6211 72.9191 39.5539 73.1074 39.4194 73.2217C39.2849 73.336 39.1202 73.3932 38.9251 73.3932C38.7368 73.3932 38.5754 73.336 38.441 73.2217C38.3065 73.1074 38.2392 72.9191 38.2392 72.6568ZM38.2392 68.4202C38.2392 68.1445 38.3065 67.9528 38.441 67.8452C38.5754 67.7377 38.7368 67.6839 38.9251 67.6839C39.1202 67.6839 39.2849 67.7377 39.4194 67.8452C39.5539 67.9528 39.6211 68.1445 39.6211 68.4202C39.6211 68.6758 39.5539 68.8607 39.4194 68.975C39.2849 69.0893 39.1202 69.1465 38.9251 69.1465C38.7368 69.1465 38.5754 69.0893 38.441 68.975C38.3065 68.8607 38.2392 68.6758 38.2392 68.4202ZM46.2807 73.252H45.2216V68.4706C45.2216 68.3025 45.2216 68.1479 45.2216 68.0066C45.2283 67.8587 45.235 67.7175 45.2417 67.583C45.2485 67.4418 45.2552 67.3073 45.2619 67.1795C45.1745 67.2669 45.0837 67.351 44.9896 67.4317C44.8954 67.5124 44.7878 67.6065 44.6668 67.7141L43.88 68.3496L43.3353 67.6637L45.393 66.0497H46.2807V73.252ZM50.1266 72.1928C50.0661 72.4282 49.9887 72.6837 49.8946 72.9594C49.8004 73.2351 49.6996 73.5075 49.592 73.7765C49.4844 74.0522 49.3734 74.3111 49.2591 74.5532H48.4824C48.5496 74.2909 48.6135 74.0119 48.674 73.716C48.7413 73.4268 48.8018 73.141 48.8556 72.8586C48.9094 72.5761 48.9531 72.3172 48.9867 72.0818H50.056L50.1266 72.1928ZM56.2337 71.6582H55.2351V73.252H54.1961V71.6582H50.8573V70.8109L54.1759 66.0195H55.2351V70.7503H56.2337V71.6582ZM54.1961 68.7934C54.1961 68.632 54.1961 68.4774 54.1961 68.3294C54.2028 68.1815 54.2096 68.0403 54.2163 67.9058C54.223 67.7646 54.2264 67.6368 54.2264 67.5225C54.2331 67.4014 54.2398 67.2938 54.2465 67.1997H54.2062C54.1524 67.3342 54.0852 67.472 54.0045 67.6132C53.9305 67.7545 53.8532 67.8789 53.7725 67.9865L51.866 70.7503H54.1961V68.7934ZM59.0709 68.7834C59.5483 68.7834 59.9653 68.8674 60.3217 69.0355C60.6781 69.2036 60.9538 69.4457 61.1488 69.7618C61.3506 70.0779 61.4514 70.4645 61.4514 70.9218C61.4514 71.4262 61.3438 71.8599 61.1287 72.2231C60.9135 72.5862 60.6008 72.8653 60.1906 73.0603C59.7871 73.2553 59.2928 73.3528 58.7077 73.3528C58.3379 73.3528 57.9882 73.3192 57.6587 73.252C57.3292 73.1847 57.0501 73.0872 56.8214 72.9594V71.981C57.0635 72.1222 57.3561 72.2365 57.699 72.3239C58.0487 72.4114 58.3816 72.4551 58.6977 72.4551C59.0406 72.4551 59.3331 72.4046 59.5752 72.3038C59.8241 72.1962 60.0157 72.0381 60.1502 71.8297C60.2914 71.6145 60.362 71.3455 60.362 71.0227C60.362 70.5856 60.2242 70.2527 59.9485 70.0241C59.6795 69.7887 59.2524 69.671 58.6674 69.671C58.4791 69.671 58.2673 69.6878 58.0319 69.7215C57.8033 69.7551 57.6183 69.7887 57.4771 69.8223L56.9828 69.5298L57.2552 66.0497H60.9572V66.9979H58.1832L58.0218 68.8842C58.1361 68.864 58.2807 68.8439 58.4556 68.8237C58.6304 68.7968 58.8355 68.7834 59.0709 68.7834ZM67.113 69.6408C67.113 70.2258 67.0659 70.747 66.9718 71.2043C66.8844 71.6615 66.7431 72.0516 66.5481 72.3744C66.3598 72.6904 66.1077 72.9325 65.7916 73.1006C65.4823 73.2688 65.109 73.3528 64.6719 73.3528C64.1205 73.3528 63.6666 73.2049 63.3102 72.909C62.9537 72.6131 62.6881 72.1894 62.5133 71.638C62.3384 71.0799 62.251 70.4141 62.251 69.6408C62.251 68.8607 62.3283 68.1949 62.483 67.6435C62.6444 67.0921 62.9033 66.6718 63.2597 66.3826C63.6161 66.0867 64.0869 65.9388 64.6719 65.9388C65.2234 65.9388 65.6773 66.0867 66.0337 66.3826C66.3968 66.6718 66.6658 67.0921 66.8407 67.6435C67.0222 68.1949 67.113 68.8607 67.113 69.6408ZM63.3202 69.6408C63.3202 70.2662 63.364 70.7873 63.4514 71.2043C63.5388 71.6212 63.68 71.9339 63.875 72.1424C64.0768 72.3508 64.3424 72.4551 64.6719 72.4551C65.0014 72.4551 65.2637 72.3542 65.4587 72.1525C65.6605 71.944 65.805 71.6313 65.8925 71.2144C65.9866 70.7907 66.0337 70.2662 66.0337 69.6408C66.0337 69.0154 65.9866 68.4975 65.8925 68.0873C65.805 67.6704 65.6605 67.3577 65.4587 67.1492C65.2637 66.9408 65.0014 66.8365 64.6719 66.8365C64.3424 66.8365 64.0768 66.9408 63.875 67.1492C63.68 67.3577 63.5388 67.6704 63.4514 68.0873C63.364 68.4975 63.3202 69.0154 63.3202 69.6408ZM74.2977 67.7141C74.9097 67.7141 75.3703 67.8721 75.6797 68.1882C75.989 68.5043 76.1437 69.012 76.1437 69.7114V73.252H75.0744V69.8526C75.0744 69.4357 74.9904 69.123 74.8223 68.9145C74.6609 68.6993 74.4053 68.5917 74.0556 68.5917C73.5715 68.5917 73.2251 68.743 73.0167 69.0456C72.8082 69.3415 72.704 69.7719 72.704 70.3368V73.252H71.6448V69.8526C71.6448 69.5769 71.6045 69.3449 71.5238 69.1566C71.4498 68.9683 71.3388 68.8271 71.1909 68.7329C71.0429 68.6388 70.8513 68.5917 70.6159 68.5917C70.2797 68.5917 70.0141 68.6657 69.819 68.8136C69.624 68.9616 69.4828 69.1801 69.3954 69.4693C69.3147 69.7517 69.2743 70.098 69.2743 70.5083V73.252H68.2051V67.815H69.0524L69.2037 68.5413H69.2642C69.3786 68.353 69.5164 68.1983 69.6778 68.0773C69.8459 67.9562 70.0309 67.8654 70.2326 67.8049C70.4344 67.7444 70.6428 67.7141 70.858 67.7141C71.2682 67.7141 71.6146 67.7881 71.897 67.936C72.1794 68.0773 72.3845 68.2958 72.5123 68.5917H72.593C72.7678 68.2891 73.0099 68.0672 73.3193 67.9259C73.6286 67.7847 73.9548 67.7141 74.2977 67.7141ZM83.6709 67.7141C84.2828 67.7141 84.7435 67.8721 85.0528 68.1882C85.3622 68.5043 85.5168 69.012 85.5168 69.7114V73.252H84.4476V69.8526C84.4476 69.4357 84.3635 69.123 84.1954 68.9145C84.034 68.6993 83.7785 68.5917 83.4288 68.5917C82.9446 68.5917 82.5983 68.743 82.3898 69.0456C82.1813 69.3415 82.0771 69.7719 82.0771 70.3368V73.252H81.018V69.8526C81.018 69.5769 80.9776 69.3449 80.8969 69.1566C80.8229 68.9683 80.712 68.8271 80.564 68.7329C80.4161 68.6388 80.2244 68.5917 79.9891 68.5917C79.6528 68.5917 79.3872 68.6657 79.1922 68.8136C78.9972 68.9616 78.856 69.1801 78.7685 69.4693C78.6878 69.7517 78.6475 70.098 78.6475 70.5083V73.252H77.5783V67.815H78.4256L78.5769 68.5413H78.6374C78.7517 68.353 78.8896 68.1983 79.051 68.0773C79.2191 67.9562 79.404 67.8654 79.6058 67.8049C79.8075 67.7444 80.016 67.7141 80.2312 67.7141C80.6414 67.7141 80.9877 67.7881 81.2701 67.936C81.5526 68.0773 81.7577 68.2958 81.8855 68.5917H81.9662C82.141 68.2891 82.3831 68.0672 82.6924 67.9259C83.0018 67.7847 83.3279 67.7141 83.6709 67.7141Z" fill="#759FA3"/>
<path d="M112.126 74.6445L108.711 72.6729V76.6161L112.126 74.6445ZM21.5657 74.6445L24.9807 76.6161V72.6729L21.5657 74.6445ZM109.053 74.6445V74.303L24.6392 74.303V74.6445V74.986L109.053 74.986V74.6445Z" fill="#759FA3"/>
<path d="M34.0658 99.9424H32.8049L30.4445 96.6237L29.7384 97.2088V99.9424H28.649V92.7402H29.7384V96.2202C29.9133 96.0118 30.0881 95.8067 30.263 95.6049C30.4378 95.4032 30.6127 95.2014 30.7875 94.9997L32.7343 92.7402H33.9851L31.2313 95.8874L34.0658 99.9424ZM36.9669 99.3472C36.9669 99.085 37.0342 98.9 37.1686 98.7924C37.3031 98.6849 37.4645 98.6311 37.6528 98.6311C37.8478 98.6311 38.0126 98.6849 38.1471 98.7924C38.2816 98.9 38.3488 99.085 38.3488 99.3472C38.3488 99.6095 38.2816 99.7978 38.1471 99.9121C38.0126 100.026 37.8478 100.084 37.6528 100.084C37.4645 100.084 37.3031 100.026 37.1686 99.9121C37.0342 99.7978 36.9669 99.6095 36.9669 99.3472ZM36.9669 95.1106C36.9669 94.8349 37.0342 94.6433 37.1686 94.5357C37.3031 94.4281 37.4645 94.3743 37.6528 94.3743C37.8478 94.3743 38.0126 94.4281 38.1471 94.5357C38.2816 94.6433 38.3488 94.8349 38.3488 95.1106C38.3488 95.3662 38.2816 95.5511 38.1471 95.6654C38.0126 95.7798 37.8478 95.8369 37.6528 95.8369C37.4645 95.8369 37.3031 95.7798 37.1686 95.6654C37.0342 95.5511 36.9669 95.3662 36.9669 95.1106ZM45.0084 99.9424H43.9493V95.1611C43.9493 94.993 43.9493 94.8383 43.9493 94.6971C43.956 94.5491 43.9627 94.4079 43.9694 94.2734C43.9762 94.1322 43.9829 93.9977 43.9896 93.8699C43.9022 93.9573 43.8114 94.0414 43.7172 94.1221C43.6231 94.2028 43.5155 94.2969 43.3945 94.4045L42.6077 95.04L42.063 94.3541L44.1207 92.7402H45.0084V99.9424ZM48.8543 98.8832C48.7938 99.1186 48.7164 99.3741 48.6223 99.6499C48.5281 99.9256 48.4273 100.198 48.3197 100.467C48.2121 100.743 48.1011 101.002 47.9868 101.244H47.2101C47.2773 100.981 47.3412 100.702 47.4017 100.406C47.469 100.117 47.5295 99.8314 47.5833 99.549C47.6371 99.2665 47.6808 99.0076 47.7144 98.7723H48.7837L48.8543 98.8832ZM49.8775 96.8759C49.8775 96.459 49.9044 96.0487 49.9582 95.6453C50.0187 95.2418 50.1196 94.8618 50.2608 94.5054C50.4087 94.1423 50.6105 93.8229 50.866 93.5471C51.1216 93.2647 51.4444 93.0461 51.8344 92.8915C52.2312 92.7301 52.7086 92.6494 53.2668 92.6494C53.408 92.6494 53.566 92.6561 53.7409 92.6696C53.9224 92.6763 54.0704 92.6965 54.1847 92.7301V93.6278C54.0569 93.5875 53.9157 93.5572 53.761 93.5371C53.6131 93.5169 53.4652 93.5068 53.3172 93.5068C52.8532 93.5068 52.4699 93.5774 52.1673 93.7186C51.8647 93.8598 51.6259 94.0549 51.4511 94.3037C51.2762 94.5525 51.1485 94.8417 51.0678 95.1712C50.9871 95.494 50.9366 95.847 50.9165 96.2303H50.977C51.0779 96.0689 51.2023 95.9243 51.3502 95.7966C51.4982 95.6688 51.6797 95.5679 51.8949 95.494C52.1101 95.42 52.3589 95.383 52.6414 95.383C53.0583 95.383 53.4214 95.4704 53.7308 95.6453C54.0468 95.8201 54.2889 96.0723 54.4571 96.4018C54.6319 96.7313 54.7193 97.1314 54.7193 97.6022C54.7193 98.1065 54.6218 98.5436 54.4268 98.9135C54.2385 99.2766 53.9695 99.5557 53.6198 99.7507C53.2769 99.9457 52.8633 100.043 52.3791 100.043C52.0294 100.043 51.7033 99.9794 51.4007 99.8516C51.098 99.7238 50.8324 99.5288 50.6038 99.2665C50.3751 99.0043 50.1969 98.6748 50.0691 98.278C49.9414 97.8745 49.8775 97.4071 49.8775 96.8759ZM52.369 99.1556C52.7523 99.1556 53.065 99.0312 53.3071 98.7824C53.5492 98.5268 53.6703 98.1334 53.6703 97.6022C53.6703 97.1785 53.5627 96.8423 53.3475 96.5935C53.139 96.3446 52.8229 96.2202 52.3993 96.2202C52.1101 96.2202 51.8579 96.2808 51.6427 96.4018C51.4275 96.5228 51.2594 96.6775 51.1384 96.8658C51.0173 97.0541 50.9568 97.2458 50.9568 97.4408C50.9568 97.6492 50.9871 97.8543 51.0476 98.0561C51.1081 98.2578 51.1955 98.4428 51.3099 98.6109C51.4309 98.779 51.5789 98.9135 51.7537 99.0144C51.9285 99.1085 52.1336 99.1556 52.369 99.1556ZM57.7986 95.4738C58.276 95.4738 58.693 95.5578 59.0494 95.726C59.4058 95.8941 59.6815 96.1362 59.8765 96.4522C60.0783 96.7683 60.1791 97.155 60.1791 97.6123C60.1791 98.1166 60.0715 98.5504 59.8564 98.9135C59.6412 99.2766 59.3285 99.5557 58.9182 99.7507C58.5148 99.9457 58.0205 100.043 57.4354 100.043C57.0656 100.043 56.7159 100.01 56.3864 99.9424C56.0569 99.8751 55.7778 99.7776 55.5491 99.6499V98.6714C55.7912 98.8126 56.0838 98.9269 56.4267 99.0144C56.7764 99.1018 57.1093 99.1455 57.4254 99.1455C57.7683 99.1455 58.0608 99.0951 58.3029 98.9942C58.5517 98.8866 58.7434 98.7286 58.8779 98.5201C59.0191 98.3049 59.0897 98.0359 59.0897 97.7131C59.0897 97.276 58.9519 96.9431 58.6762 96.7145C58.4072 96.4791 57.9801 96.3614 57.3951 96.3614C57.2068 96.3614 56.995 96.3783 56.7596 96.4119C56.531 96.4455 56.346 96.4791 56.2048 96.5128L55.7105 96.2202L55.9829 92.7402H59.6849V93.6884H56.9109L56.7495 95.5747C56.8638 95.5545 57.0084 95.5343 57.1833 95.5141C57.3581 95.4872 57.5632 95.4738 57.7986 95.4738ZM65.8407 96.3312C65.8407 96.9162 65.7936 97.4374 65.6995 97.8947C65.6121 98.352 65.4708 98.742 65.2758 99.0648C65.0875 99.3809 64.8354 99.623 64.5193 99.7911C64.2099 99.9592 63.8367 100.043 63.3996 100.043C62.8482 100.043 62.3943 99.8953 62.0379 99.5994C61.6814 99.3035 61.4158 98.8799 61.241 98.3284C61.0661 97.7703 60.9787 97.1045 60.9787 96.3312C60.9787 95.5511 61.056 94.8854 61.2107 94.3339C61.3721 93.7825 61.631 93.3622 61.9874 93.073C62.3438 92.7772 62.8146 92.6292 63.3996 92.6292C63.951 92.6292 64.405 92.7772 64.7614 93.073C65.1245 93.3622 65.3935 93.7825 65.5683 94.3339C65.7499 94.8854 65.8407 95.5511 65.8407 96.3312ZM62.0479 96.3312C62.0479 96.9566 62.0916 97.4778 62.1791 97.8947C62.2665 98.3116 62.4077 98.6243 62.6027 98.8328C62.8045 99.0413 63.0701 99.1455 63.3996 99.1455C63.7291 99.1455 63.9914 99.0446 64.1864 98.8429C64.3882 98.6344 64.5327 98.3217 64.6202 97.9048C64.7143 97.4811 64.7614 96.9566 64.7614 96.3312C64.7614 95.7058 64.7143 95.188 64.6202 94.7778C64.5327 94.3608 64.3882 94.0481 64.1864 93.8397C63.9914 93.6312 63.7291 93.527 63.3996 93.527C63.0701 93.527 62.8045 93.6312 62.6027 93.8397C62.4077 94.0481 62.2665 94.3608 62.1791 94.7778C62.0916 95.188 62.0479 95.7058 62.0479 96.3312ZM73.0254 94.4045C73.6374 94.4045 74.098 94.5626 74.4074 94.8786C74.7167 95.1947 74.8714 95.7024 74.8714 96.4018V99.9424H73.8021V96.543C73.8021 96.1261 73.7181 95.8134 73.55 95.6049C73.3886 95.3897 73.133 95.2821 72.7833 95.2821C72.2991 95.2821 71.9528 95.4334 71.7444 95.736C71.5359 96.0319 71.4317 96.4623 71.4317 97.0272V99.9424H70.3725V96.543C70.3725 96.2673 70.3322 96.0353 70.2515 95.847C70.1775 95.6587 70.0665 95.5175 69.9186 95.4233C69.7706 95.3292 69.579 95.2821 69.3436 95.2821C69.0074 95.2821 68.7418 95.3561 68.5467 95.504C68.3517 95.652 68.2105 95.8705 68.1231 96.1597C68.0424 96.4421 68.002 96.7885 68.002 97.1987V99.9424H66.9328V94.5054H67.7801L67.9314 95.2317H67.9919C68.1063 95.0434 68.2441 94.8887 68.4055 94.7677C68.5736 94.6466 68.7586 94.5559 68.9603 94.4953C69.162 94.4348 69.3705 94.4045 69.5857 94.4045C69.9959 94.4045 70.3422 94.4785 70.6247 94.6265C70.9071 94.7677 71.1122 94.9862 71.24 95.2821H71.3207C71.4955 94.9795 71.7376 94.7576 72.047 94.6164C72.3563 94.4752 72.6825 94.4045 73.0254 94.4045ZM82.3986 94.4045C83.0105 94.4045 83.4712 94.5626 83.7805 94.8786C84.0899 95.1947 84.2445 95.7024 84.2445 96.4018V99.9424H83.1753V96.543C83.1753 96.1261 83.0912 95.8134 82.9231 95.6049C82.7617 95.3897 82.5062 95.2821 82.1565 95.2821C81.6723 95.2821 81.326 95.4334 81.1175 95.736C80.909 96.0319 80.8048 96.4623 80.8048 97.0272V99.9424H79.7457V96.543C79.7457 96.2673 79.7053 96.0353 79.6246 95.847C79.5506 95.6587 79.4397 95.5175 79.2917 95.4233C79.1438 95.3292 78.9521 95.2821 78.7168 95.2821C78.3805 95.2821 78.1149 95.3561 77.9199 95.504C77.7249 95.652 77.5837 95.8705 77.4962 96.1597C77.4155 96.4421 77.3752 96.7885 77.3752 97.1987V99.9424H76.306V94.5054H77.1533L77.3046 95.2317H77.3651C77.4794 95.0434 77.6173 94.8887 77.7787 94.7677C77.9468 94.6466 78.1317 94.5559 78.3335 94.4953C78.5352 94.4348 78.7437 94.4045 78.9589 94.4045C79.3691 94.4045 79.7154 94.4785 79.9978 94.6265C80.2803 94.7677 80.4854 94.9862 80.6132 95.2821H80.6939C80.8687 94.9795 81.1108 94.7576 81.4201 94.6164C81.7295 94.4752 82.0556 94.4045 82.3986 94.4045Z" fill="#918BB1"/>
<path d="M126.901 101.335L123.486 99.3634V103.307L126.901 101.335ZM21.5655 101.335L24.9804 103.307V99.3634L21.5655 101.335ZM123.828 101.335V100.993L24.6389 100.993V101.335V101.676L123.828 101.676V101.335Z" fill="#918BB1"/>
</svg>
