<svg width="171" height="166" viewBox="0 0 171 166" fill="none" xmlns="http://www.w3.org/2000/svg">
<g clip-path="url(#clip0_1451_4080)">
<path d="M3.12109 29.8311C3.12109 30.5693 3.61012 31.2886 4.55056 31.8564L6.01765 32.7082C12.1681 36.4561 15.5349 39.5414 21.0647 42.6268C26.5944 45.7121 31.5976 47.5482 38.4628 51.5232C44.6133 55.2711 47.98 58.3375 53.5098 61.4418C59.0396 64.5461 64.0427 66.3632 70.9079 70.3382L72.375 71.19C74.2935 72.3068 77.4158 72.2878 79.3343 71.19L120.394 47.0561C121.353 46.4882 121.823 45.7689 121.823 45.0307" stroke="#999999" stroke-width="0.5" stroke-linecap="round" stroke-linejoin="round"/>
<path d="M3.12109 32.3672C3.12109 33.1054 3.61012 33.8247 4.55056 34.3925L6.01765 35.2443C12.1681 38.9922 15.5349 42.0775 21.0647 45.1629C26.5944 48.2483 31.5976 50.0843 38.4628 54.0593C44.6133 57.8072 47.98 60.8925 53.5098 63.9779C59.0396 67.0633 64.0427 68.8993 70.9079 72.8743L72.375 73.7261C74.2935 74.8429 77.4158 74.824 79.3343 73.7261L120.394 49.5922C121.353 49.0243 121.823 48.305 121.823 47.5668" stroke="#999999" stroke-width="0.5" stroke-linecap="round" stroke-linejoin="round"/>
<path d="M3.12109 34.9043C3.12109 35.6425 3.61012 36.3618 4.55056 36.9297L6.01765 37.7814C12.1681 41.5293 15.5349 44.6147 21.0647 47.7C26.5944 50.7854 31.5976 52.6214 38.4628 56.5964C44.6133 60.3443 47.98 63.4297 53.5098 66.515C59.0396 69.6004 64.0427 71.4364 70.9079 75.4114L72.375 76.2632C74.2935 77.38 77.4158 77.3611 79.3343 76.2632L120.394 52.1293C121.353 51.5614 121.823 50.8422 121.823 50.1039" stroke="#999999" stroke-width="0.5" stroke-linecap="round" stroke-linejoin="round"/>
<path d="M3.12109 37.459C3.12109 38.1972 3.61012 38.9165 4.55056 39.4843L6.01765 40.3361C12.1681 44.084 15.5349 47.1693 21.0647 50.2547C26.5944 53.3401 31.5976 55.1761 38.4628 59.1511C44.6133 62.899 47.98 65.9843 53.5098 69.0697C59.0396 72.1551 64.0427 73.9911 70.9079 77.9661L72.375 78.8179C74.2935 79.9347 77.4158 79.9158 79.3343 78.8179L120.394 54.684C121.353 54.1161 121.823 53.3968 121.823 52.6586" stroke="#999999" stroke-width="0.5" stroke-linecap="round" stroke-linejoin="round"/>
<path d="M3.12109 39.9961C3.12109 40.7343 3.61012 41.4536 4.55056 42.0215L6.01765 42.8732C12.1681 46.6211 15.5349 49.7065 21.0647 52.7918C26.5944 55.8772 31.5976 57.7132 38.4628 61.6882C44.6133 65.4361 47.98 68.5215 53.5098 71.6068C59.0396 74.6922 64.0427 76.5282 70.9079 80.5032L72.375 81.355C74.2935 82.4718 77.4158 82.4529 79.3343 81.355L120.394 57.2211C121.353 56.6532 121.823 55.934 121.823 55.1957" stroke="#999999" stroke-width="0.5" stroke-linecap="round" stroke-linejoin="round"/>
<path d="M3.12109 42.5322C3.12109 43.2704 3.61012 43.9897 4.55056 44.5576L6.01765 45.4094C12.1681 49.1572 15.5349 52.2426 21.0647 55.3279C26.5944 58.4133 31.5976 60.2494 38.4628 64.2244C44.6133 67.9722 47.98 71.0576 53.5098 74.1429C59.0396 77.2283 64.0427 79.0644 70.9079 83.0394L72.375 83.8912C74.2935 85.0079 77.4158 84.989 79.3343 83.8912L120.394 59.7572C121.353 59.1894 121.823 58.4701 121.823 57.7319" stroke="#999999" stroke-width="0.5" stroke-linecap="round" stroke-linejoin="round"/>
<path d="M3.12109 45.0684C3.12109 45.8066 3.61012 46.5259 4.55056 47.0937L6.01765 47.9455C12.1681 51.6934 15.5349 54.7787 21.0647 57.8641C26.5944 60.9494 31.5976 62.7855 38.4628 66.7605C44.6133 70.5084 47.98 73.5937 53.5098 76.6791C59.0396 79.7644 64.0427 81.6005 70.9079 85.5755L72.375 86.4273C74.2935 87.5441 77.4158 87.5251 79.3343 86.4273L120.394 62.2934C121.353 61.7255 121.823 61.0062 121.823 60.268" stroke="#999999" stroke-width="0.5" stroke-linecap="round" stroke-linejoin="round"/>
<path d="M3.12109 47.6045C3.12109 48.3427 3.61012 49.062 4.55056 49.6298L6.01765 50.4816C12.1681 54.2295 15.5349 57.3149 21.0647 60.4002C26.5944 63.4856 31.5976 65.3216 38.4628 69.2966C44.6133 73.0445 47.98 76.1299 53.5098 79.2152C59.0396 82.3006 64.0427 84.1366 70.9079 88.1116L72.375 88.9634C74.2935 90.0802 77.4158 90.0613 79.3343 88.9634L120.394 64.8295C121.353 64.2616 121.823 63.5423 121.823 62.8041" stroke="#999999" stroke-width="0.5" stroke-linecap="round" stroke-linejoin="round"/>
<path d="M3.12109 50.1416C3.12109 50.8798 3.61012 51.5991 4.55056 52.167L6.01765 53.0187C12.1681 56.7666 15.5349 59.852 21.0647 62.9373C26.5944 66.0227 31.5976 67.8587 38.4628 71.8337C44.6133 75.5816 47.98 78.667 53.5098 81.7523C59.0396 84.8377 64.0427 86.6737 70.9079 90.6487L72.375 91.5005C74.2935 92.6173 77.4158 92.5984 79.3343 91.5005L120.394 67.3666C121.353 66.7987 121.823 66.0795 121.823 65.3412" stroke="#999999" stroke-width="0.5" stroke-linecap="round" stroke-linejoin="round"/>
<path d="M3.12109 52.6777C3.12109 53.4159 3.61012 54.1352 4.55056 54.7031L6.01765 55.5549C12.1681 59.3027 15.5349 62.3692 21.0647 65.4734C26.5944 68.5777 31.5976 70.3949 38.4628 74.3699C44.6133 78.1177 47.98 81.2031 53.5098 84.2885C59.0396 87.3738 64.0427 89.2099 70.9079 93.1849L72.375 94.0367C74.2935 95.1534 77.4158 95.1345 79.3343 94.0367L120.394 69.9027C121.353 69.3349 121.823 68.6156 121.823 67.8774" stroke="#999999" stroke-width="0.5" stroke-linecap="round" stroke-linejoin="round"/>
<path d="M3.12109 55.2139C3.12109 55.9521 3.61012 56.6714 4.55056 57.2392L6.01765 58.091C12.1681 61.8389 15.5349 64.9242 21.0647 68.0096C26.5944 71.0949 31.5976 72.931 38.4628 76.906C44.6133 80.6539 47.98 83.7392 53.5098 86.8246C59.0396 89.9099 64.0427 91.746 70.9079 95.721L72.375 96.5728C74.2935 97.6896 77.4158 97.6707 79.3343 96.5728L120.394 72.4389C121.353 71.871 121.823 71.1517 121.823 70.4135" stroke="#999999" stroke-width="0.5" stroke-linecap="round" stroke-linejoin="round"/>
<path d="M3.12109 57.751C3.12109 58.4892 3.61012 59.2085 4.55056 59.7763L6.01765 60.6281C12.1681 64.376 15.5349 67.4613 21.0647 70.5467C26.5944 73.632 31.5976 75.4681 38.4628 79.4431C44.6133 83.191 47.98 86.2763 53.5098 89.3617C59.0396 92.4471 64.0427 94.2831 70.9079 98.2581L72.375 99.1099C74.2935 100.227 77.4158 100.208 79.3343 99.1099L120.394 74.976C121.353 74.4081 121.823 73.6888 121.823 72.9506" stroke="#999999" stroke-width="0.5" stroke-linecap="round" stroke-linejoin="round"/>
<path d="M3.12109 60.2871C3.12109 61.0253 3.61012 61.7446 4.55056 62.3125L6.01765 63.1643C12.1681 66.9121 15.5349 69.9975 21.0647 73.0828C26.5944 76.1682 31.5976 78.0043 38.4628 81.9793C44.6133 85.7271 47.98 88.8125 53.5098 91.8978C59.0396 94.9832 64.0427 96.8193 70.9079 100.794L72.375 101.646C74.2935 102.763 77.4158 102.744 79.3343 101.646L120.394 77.5121C121.353 76.9443 121.823 76.225 121.823 75.4868" stroke="#999999" stroke-width="0.5" stroke-linecap="round" stroke-linejoin="round"/>
<path d="M3.12109 62.8428C3.12109 63.581 3.61012 64.3003 4.55056 64.8681L6.01765 65.7199C12.1681 69.4678 15.5349 72.5531 21.0647 75.6385C26.5944 78.7239 31.5976 80.5599 38.4628 84.5349C44.6133 88.2828 47.98 91.3681 53.5098 94.4535C59.0396 97.5388 64.0427 99.3749 70.9079 103.35L72.375 104.202C74.2935 105.318 77.4158 105.3 79.3343 104.202L120.394 80.0678C121.353 79.4999 121.823 78.7806 121.823 78.0424" stroke="#999999" stroke-width="0.5" stroke-linecap="round" stroke-linejoin="round"/>
<path d="M3.12109 65.3789C3.12109 66.1171 3.61012 66.8364 4.55056 67.4043L6.01765 68.2561C12.1681 72.0039 15.5349 75.0893 21.0647 78.1746C26.5944 81.26 31.5976 83.096 38.4628 87.071C44.6133 90.8189 47.98 93.9043 53.5098 96.9896C59.0396 100.075 64.0427 101.911 70.9079 105.886L72.375 106.738C74.2935 107.855 77.4158 107.836 79.3343 106.738L120.394 82.6039C121.353 82.036 121.823 81.3168 121.823 80.5785" stroke="#999999" stroke-width="0.5" stroke-linecap="round" stroke-linejoin="round"/>
<path d="M3.12109 67.915C3.12109 68.6533 3.61012 69.3725 4.55056 69.9404L6.01765 70.7922C12.1681 74.54 15.5349 77.6254 21.0647 80.7108C26.5944 83.7961 31.5976 85.6322 38.4628 89.6072C44.6133 93.355 47.98 96.4404 53.5098 99.5258C59.0396 102.611 64.0427 104.447 70.9079 108.422L72.375 109.274C74.2935 110.391 77.4158 110.372 79.3343 109.274L120.394 85.14C121.353 84.5722 121.823 83.8529 121.823 83.1147" stroke="#999999" stroke-width="0.5" stroke-linecap="round" stroke-linejoin="round"/>
<path d="M3.12109 70.4521C3.12109 71.1904 3.61012 71.9096 4.55056 72.4775L6.01765 73.3293C12.1681 77.0771 15.5349 80.1625 21.0647 83.2479C26.5944 86.3332 31.5976 88.1693 38.4628 92.1443C44.6133 95.8921 47.98 98.9775 53.5098 102.063C59.0396 105.148 64.0427 106.984 70.9079 110.959L72.375 111.811C74.2935 112.928 77.4158 112.909 79.3343 111.811L120.394 87.6771C121.353 87.1093 121.823 86.39 121.823 85.6518" stroke="#999999" stroke-width="0.5" stroke-linecap="round" stroke-linejoin="round"/>
<path d="M3.12109 72.9883C3.12109 73.7265 3.61012 74.4458 4.55056 75.0136L6.01765 75.8654C12.1681 79.6133 15.5349 82.6986 21.0647 85.784C26.5944 88.8694 31.5976 90.7054 38.4628 94.6804C44.6133 98.4283 47.98 101.514 53.5098 104.599C59.0396 107.684 64.0427 109.52 70.9079 113.495L72.375 114.347C74.2935 115.464 77.4158 115.445 79.3343 114.347L120.394 90.2133C121.353 89.6454 121.823 88.9261 121.823 88.1879" stroke="#999999" stroke-width="0.5" stroke-linecap="round" stroke-linejoin="round"/>
<path d="M3.12109 75.5244C3.12109 76.2626 3.61012 76.9819 4.55056 77.5498L6.01765 78.4016C12.1681 82.1494 15.5349 85.2348 21.0647 88.3201C26.5944 91.4055 31.5976 93.2416 38.4628 97.2166C44.6133 100.964 47.98 104.05 53.5098 107.135C59.0396 110.22 64.0427 112.057 70.9079 116.032L72.375 116.883C74.2935 118 77.4158 117.981 79.3343 116.883L120.394 92.7494C121.353 92.1816 121.823 91.4623 121.823 90.7241" stroke="#999999" stroke-width="0.5" stroke-linecap="round" stroke-linejoin="round"/>
<path d="M3.12109 78.0615C3.12109 78.7997 3.61012 79.519 4.55056 80.0869L6.01765 80.9387C12.1681 84.6865 15.5349 87.7719 21.0647 90.8572C26.5944 93.9426 31.5976 95.7787 38.4628 99.7537C44.6133 103.502 47.98 106.587 53.5098 109.672C59.0396 112.758 64.0427 114.594 70.9079 118.569L72.375 119.42C74.2935 120.537 77.4158 120.518 79.3343 119.42L120.394 95.2865C121.353 94.7187 121.823 93.9994 121.823 93.2612" stroke="#999999" stroke-width="0.5" stroke-linecap="round" stroke-linejoin="round"/>
<path d="M3.12109 80.5977C3.12109 81.3359 3.61012 82.0552 4.55056 82.623L6.01765 83.4748C12.1681 87.2227 15.5349 90.308 21.0647 93.3934C26.5944 96.4787 31.5976 98.3148 38.4628 102.29C44.6133 106.038 47.98 109.123 53.5098 112.208C59.0396 115.294 64.0427 117.13 70.9079 121.105L72.375 121.957C74.2935 123.073 77.4158 123.054 79.3343 121.957L120.394 97.8227C121.353 97.2548 121.823 96.5355 121.823 95.7973" stroke="#999999" stroke-width="0.5" stroke-linecap="round" stroke-linejoin="round"/>
<path d="M3.12109 83.1338C3.12109 83.872 3.61012 84.5913 4.55056 85.1591L6.01765 86.0109C12.1681 89.7588 15.5349 92.8441 21.0647 95.9295C26.5944 99.0149 31.5976 100.851 38.4628 104.826C44.6133 108.574 47.98 111.659 53.5098 114.745C59.0396 117.83 64.0427 119.666 70.9079 123.641L72.375 124.493C74.2935 125.61 77.4158 125.591 79.3343 124.493L120.394 100.359C121.353 99.7909 121.823 99.0716 121.823 98.3334" stroke="#999999" stroke-width="0.5" stroke-linecap="round" stroke-linejoin="round"/>
<path d="M3.12109 85.6895C3.12109 86.4277 3.61012 87.147 4.55056 87.7148L6.01765 88.5666C12.1681 92.3145 15.5349 95.3998 21.0647 98.4852C26.5944 101.571 31.5976 103.407 38.4628 107.382C44.6133 111.129 47.98 114.215 53.5098 117.3C59.0396 120.386 64.0427 122.222 70.9079 126.197L72.375 127.048C74.2935 128.165 77.4158 128.146 79.3343 127.048L120.394 102.914C121.353 102.347 121.823 101.627 121.823 100.889" stroke="#999999" stroke-width="0.5" stroke-linecap="round" stroke-linejoin="round"/>
<path d="M3.12109 88.2256C3.12109 88.9638 3.61012 89.6831 4.55056 90.2509L6.01765 91.1027C12.1681 94.8506 15.5349 97.9359 21.0647 101.021C26.5944 104.107 31.5976 105.943 38.4628 109.918C44.6133 113.666 47.98 116.751 53.5098 119.836C59.0396 122.922 64.0427 124.758 70.9079 128.733L72.375 129.585C74.2935 130.701 77.4158 130.682 79.3343 129.585L120.394 105.451C121.353 104.883 121.823 104.163 121.823 103.425" stroke="#999999" stroke-width="0.5" stroke-linecap="round" stroke-linejoin="round"/>
<path d="M3.12109 90.7617C3.12109 91.4999 3.61012 92.2192 4.55056 92.7871L6.01765 93.6389C12.1681 97.3867 15.5349 100.472 21.0647 103.557C26.5944 106.643 31.5976 108.479 38.4628 112.454C44.6133 116.202 47.98 119.287 53.5098 122.372C59.0396 125.458 64.0427 127.294 70.9079 131.269L72.375 132.121C74.2935 133.237 77.4158 133.219 79.3343 132.121L120.394 107.987C121.353 107.419 121.823 106.7 121.823 105.961" stroke="#999999" stroke-width="0.5" stroke-linecap="round" stroke-linejoin="round"/>
<path d="M3.12109 93.2988C3.12109 94.037 3.61012 94.7563 4.55056 95.3242L6.01765 96.176C12.1681 99.9238 15.5349 103.009 21.0647 106.095C26.5944 109.18 31.5976 111.016 38.4628 114.991C44.6133 118.739 47.98 121.824 53.5098 124.91C59.0396 127.995 64.0427 129.831 70.9079 133.806L72.375 134.658C74.2935 135.775 77.4158 135.756 79.3343 134.658L120.394 110.524C121.353 109.956 121.823 109.237 121.823 108.498" stroke="#999999" stroke-width="0.5" stroke-linecap="round" stroke-linejoin="round"/>
<path d="M3.12109 95.835C3.12109 96.5732 3.61012 97.2925 4.55056 97.8603L6.01765 98.7121C12.1681 102.46 15.5349 105.545 21.0647 108.631C26.5944 111.716 31.5976 113.552 38.4628 117.527C44.6133 121.275 47.98 124.36 53.5098 127.446C59.0396 130.531 64.0427 132.367 70.9079 136.342L72.375 137.194C74.2935 138.311 77.4158 138.292 79.3343 137.194L120.394 113.06C121.353 112.492 121.823 111.773 121.823 111.035" stroke="#999999" stroke-width="0.5" stroke-linecap="round" stroke-linejoin="round"/>
<path d="M3.12109 98.3711C3.12109 99.1093 3.61012 99.8286 4.55056 100.396L6.01765 101.248C12.1681 104.996 15.5349 108.081 21.0647 111.167C26.5944 114.252 31.5976 116.088 38.4628 120.063C44.6133 123.811 47.98 126.896 53.5098 129.982C59.0396 133.067 64.0427 134.903 70.9079 138.878L72.375 139.73C74.2935 140.847 77.4158 140.828 79.3343 139.73L120.394 115.596C121.353 115.028 121.823 114.309 121.823 113.571" stroke="#999999" stroke-width="0.5" stroke-linecap="round" stroke-linejoin="round"/>
<path d="M3.12109 100.908C3.12109 101.646 3.61012 102.366 4.55056 102.934L6.01765 103.785C12.1681 107.533 15.5349 110.619 21.0647 113.704C26.5944 116.789 31.5976 118.625 38.4628 122.6C44.6133 126.348 47.98 129.434 53.5098 132.519C59.0396 135.604 64.0427 137.44 70.9079 141.415L72.375 142.267C74.2935 143.384 77.4158 143.365 79.3343 142.267L120.394 118.133C121.353 117.565 121.823 116.846 121.823 116.108" stroke="#999999" stroke-width="0.5" stroke-linecap="round" stroke-linejoin="round"/>
<path d="M3.12109 103.444C3.12109 104.183 3.61012 104.902 4.55056 105.47L6.01765 106.321C12.1681 110.069 15.5349 113.155 21.0647 116.24C26.5944 119.325 31.5976 121.161 38.4628 125.136C44.6133 128.884 47.98 131.97 53.5098 135.055C59.0396 138.14 64.0427 139.976 70.9079 143.951L72.375 144.803C74.2935 145.92 77.4158 145.901 79.3343 144.803L120.394 120.669C121.353 120.101 121.823 119.382 121.823 118.644" stroke="#999999" stroke-width="0.5" stroke-linecap="round" stroke-linejoin="round"/>
<path d="M3.12109 105.98C3.12109 106.719 3.61012 107.438 4.55056 108.006L6.01765 108.858C12.1681 112.605 15.5349 115.691 21.0647 118.776C26.5944 121.862 31.5976 123.698 38.4628 127.673C44.6133 131.42 47.98 134.506 53.5098 137.591C59.0396 140.677 64.0427 142.513 70.9079 146.488L72.375 147.339C74.2935 148.456 77.4158 148.437 79.3343 147.339L120.394 123.205C121.353 122.638 121.823 121.918 121.823 121.18" stroke="#999999" stroke-width="0.5" stroke-linecap="round" stroke-linejoin="round"/>
<path d="M3.12109 111.072C3.12109 111.81 3.61012 112.53 4.55056 113.098L6.01765 113.949C12.1681 117.697 15.5349 120.783 21.0647 123.868C26.5944 126.953 31.5976 128.789 38.4628 132.764C44.6133 136.512 47.98 139.579 53.5098 142.683C59.0396 145.787 64.0427 147.604 70.9079 151.579L72.375 152.431C74.2935 153.548 77.4158 153.529 79.3343 152.431L120.394 128.297C121.353 127.729 121.823 127.01 121.823 126.272" stroke="#999999" stroke-width="0.5" stroke-linecap="round" stroke-linejoin="round"/>
<path d="M3.12109 113.609C3.12109 114.348 3.61012 115.067 4.55056 115.635L6.01765 116.487C12.1681 120.234 15.5349 123.32 21.0647 126.405C26.5944 129.49 31.5976 131.327 38.4628 135.302C44.6133 139.049 47.98 142.135 53.5098 145.22C59.0396 148.305 64.0427 150.142 70.9079 154.117L72.375 154.968C74.2935 156.085 77.4158 156.066 79.3343 154.968L120.394 130.834C121.353 130.267 121.823 129.547 121.823 128.809" stroke="#999999" stroke-width="0.5" stroke-linecap="round" stroke-linejoin="round"/>
<path d="M3.12109 108.536C3.12109 109.274 3.61012 109.994 4.55056 110.561L6.01765 111.413C12.1681 115.161 15.5349 118.246 21.0647 121.332C26.5944 124.417 31.5976 126.253 38.4628 130.228C44.6133 133.976 47.98 137.062 53.5098 140.147C59.0396 143.232 64.0427 145.068 70.9079 149.043L72.375 149.895C74.2935 151.012 77.4158 150.993 79.3343 149.895L120.394 125.761C121.353 125.193 121.823 124.474 121.823 123.736" stroke="black" stroke-width="0.5" stroke-linecap="round" stroke-linejoin="round"/>
<path d="M2.9707 27.5596C2.9707 28.1842 3.45973 28.771 4.09923 29.1496L73.0898 69.2403C74.2936 70.0921 77.3406 70.0921 78.5632 69.2403L120.921 44.6331C121.579 44.2735 122.068 43.6678 122.049 43.0431" stroke="black" stroke-width="0.5" stroke-linecap="round" stroke-linejoin="round"/>
<path d="M51.9107 1.36247L120.901 41.4532C121.56 41.8128 122.049 42.4185 122.03 43.0432V131.951C122.03 132.575 121.541 133.162 120.901 133.541L78.5439 158.148C77.3402 159 74.2931 159 73.0706 158.148L4.09878 118.038C3.44047 117.679 2.95144 117.073 2.97025 116.448V27.5596C2.97025 26.935 3.45928 26.3482 4.09878 25.9696L46.4561 1.36247C47.6599 0.510686 50.7069 0.510686 51.9295 1.36247H51.9107Z" stroke="#030000" stroke-linecap="round" stroke-linejoin="round"/>
<path d="M74.312 14.3477L26.3496 41.8698" stroke="black" stroke-width="0.7" stroke-linecap="round" stroke-linejoin="round"/>
<path d="M122.03 43.346C122.03 42.7214 121.56 42.1157 120.902 41.756L52.1368 1.30567C50.933 0.434952 47.886 0.416024 46.6635 1.26781L4.19323 25.6667C3.53493 26.0264 3.0459 26.6132 3.0459 27.2567" stroke="black" stroke-width="0.3" stroke-linecap="round" stroke-linejoin="round"/>
<path d="M50.1428 8.10121C49.24 7.47657 47.3215 7.51443 46.3435 8.08228C45.3842 8.65014 45.3842 9.72907 46.3435 10.278C47.2839 10.8269 49.1648 10.8459 50.1428 10.2969C51.1209 9.748 51.1961 8.61228 50.1428 8.10121Z" stroke="black" stroke-width="0.7" stroke-linecap="round" stroke-linejoin="round"/>
<path d="M122.03 43.3465C122.03 43.9711 121.541 44.5579 120.883 44.9365L78.4127 69.3165C77.2089 70.1683 74.1431 70.1494 72.9393 69.2786L4.17443 28.8283C3.53493 28.4497 3.0459 27.8629 3.0459 27.2383" stroke="black" stroke-width="0.7" stroke-linecap="round" stroke-linejoin="round"/>
<path d="M67.5596 42.3427C67.5596 41.3395 67.9357 40.3362 68.594 39.4466C69.1959 38.6327 70.0611 37.9134 71.1144 37.3077C72.1489 36.7209 73.3715 36.2477 74.6881 35.907C76.1175 35.5473 77.6787 35.377 79.221 35.377C80.7633 35.377 82.3244 35.5852 83.7539 35.9448C85.0705 36.2855 86.2931 36.7777 87.3276 37.3834C88.3621 37.9891 89.2085 38.7273 89.8103 39.5412C90.4686 40.4309 90.826 41.4341 90.826 42.4562V45.2198C90.826 46.1473 90.4686 47.0748 89.8291 47.9077C89.5094 48.3241 89.1332 48.7027 88.7382 49.0434C88.3432 49.3841 87.9107 49.687 87.4216 49.9709C85.4467 51.1066 82.3056 51.9395 79.1458 51.9205C75.9859 51.9205 72.7884 51.0498 70.9263 49.8952C68.9702 48.7784 67.5031 46.9802 67.5407 45.1062V42.3427H67.5596Z" stroke="black" stroke-width="0.7" stroke-linecap="round" stroke-linejoin="round"/>
<path d="M68.0869 42.3428C68.9333 50.9931 89.3785 51.1067 90.3189 42.4563" stroke="black" stroke-width="0.3" stroke-linecap="round" stroke-linejoin="round"/>
<path d="M96.093 36.1716C106.645 42.2477 103.635 51.8445 93.4034 55.9331C84.6385 59.4916 74.4441 59.4916 65.6228 56.1223C56.9331 52.9613 51.1212 44.1784 60.2059 37.402C70.5131 30.3606 85.2215 30.3606 96.0742 36.1716H96.093Z" stroke="#999999" stroke-width="0.3" stroke-linecap="round" stroke-linejoin="round"/>
<path d="M28.1363 16.6946L28.6442 16.4106L27.8542 15.1992L27.4028 15.4453L28.0611 16.3539L26.5188 15.9753L26.0674 16.2214L28.1363 16.6946Z" fill="#808080"/>
<path d="M29.8109 14.7636C29.8109 14.7636 29.5852 14.5932 29.6792 14.4229C29.7168 14.3661 29.7733 14.3093 29.8673 14.2525C29.9425 14.1957 30.0366 14.1579 30.1306 14.1389C30.4504 14.0822 30.6949 14.2147 30.7325 14.2147L29.8109 14.7447V14.7636ZM30.7701 13.8361C30.6385 13.8361 30.4316 13.8172 30.187 13.8929C29.9801 13.9497 29.7921 14.0254 29.6228 14.12C29.3595 14.2714 29.2654 14.385 29.2466 14.4039C29.1902 14.4607 29.0773 14.5932 29.1149 14.7447C29.1526 14.8772 29.2842 15.0097 29.4535 15.1043C29.6228 15.1989 29.8297 15.2747 30.0742 15.2936C30.488 15.3125 30.883 15.1611 31.1463 14.9907C31.4096 14.8393 31.5225 14.7257 31.5601 14.6689C31.767 14.4229 31.6165 14.2525 31.5977 14.2336L31.1087 14.5175C31.1087 14.5175 31.1463 14.5932 31.1087 14.6879C31.0711 14.7447 31.0146 14.8014 30.9394 14.8582C30.7889 14.9339 30.582 15.0097 30.2999 14.9718C30.2435 14.9529 30.1682 14.9339 30.093 14.8961L31.466 14.1011C31.466 14.1011 31.372 14.0443 31.3344 14.0254C31.2215 13.9686 31.0334 13.855 30.7889 13.8361" fill="#808080"/>
<path d="M23.5847 17.6601L24.5439 18.228L22.8323 18.0955L22.3057 18.4173L23.7351 19.2501L24.0173 19.0608L23.9985 18.9283L23.1897 18.4551L24.9013 18.5687L25.4279 18.2658L23.9985 17.4141L23.5847 17.6601Z" fill="#808080"/>
<path d="M32.1618 12.7008L33.1211 13.2686L31.4095 13.1361L30.8828 13.4579L32.3123 14.2908L32.6132 14.1015L32.5944 13.969L31.7856 13.4768L33.4972 13.6093L34.0239 13.3065L32.5944 12.4736L32.1618 12.7008Z" fill="#808080"/>
<path d="M29.736 15.767V15.6155L28.4382 14.8584L28.0244 15.1045L29.4539 15.9373L29.736 15.767Z" fill="#808080"/>
<path d="M26.4254 17.016C26.6699 17.1674 26.5383 17.3945 26.2749 17.546C26.068 17.6595 25.8799 17.6785 25.7295 17.6028C25.6542 17.546 25.6354 17.546 25.6354 17.527C25.6166 17.4513 25.7859 17.3378 25.7859 17.3378C25.7859 17.3378 26.0492 17.1674 26.1621 17.0728C26.2373 17.016 26.2749 16.9781 26.2937 16.9403L26.4254 17.016ZM26.369 16.5049C26.2561 16.4292 25.9928 16.3535 25.5226 16.5238C25.3909 16.5806 25.2593 16.6374 25.1276 16.7131C24.695 16.9592 24.5633 17.1674 24.6198 17.3188C24.6386 17.3756 24.6762 17.4135 24.7326 17.4513L25.1652 17.2053C24.9959 17.0728 25.2028 16.9403 25.3345 16.8645C25.6166 16.6942 25.8235 16.6563 25.9552 16.732C26.1057 16.8267 25.9928 16.9024 25.7483 17.0728C25.4097 17.2999 25.2593 17.3945 25.2028 17.4892C25.0712 17.6595 25.0712 17.7353 25.2969 17.8678C25.4473 17.9624 25.6731 18.0192 26.0116 17.9245C26.2373 17.8488 26.5571 17.6974 26.6887 17.546C26.8204 17.3945 26.8204 17.3188 26.8204 17.2431L27.0085 17.3567L27.3094 17.1863V17.0349L26.3878 16.5049H26.369Z" fill="#808080"/>
</g>
<path d="M140.429 80.2683C140.429 80.5803 140.367 80.8533 140.243 81.0873C140.126 81.3148 139.957 81.5001 139.736 81.6431C139.515 81.7861 139.262 81.8901 138.976 81.9551V81.9941C139.535 82.0591 139.951 82.2346 140.224 82.5206C140.503 82.8001 140.643 83.1706 140.643 83.6321C140.643 84.0351 140.546 84.3958 140.351 84.7143C140.162 85.0263 139.866 85.2733 139.463 85.4553C139.067 85.6308 138.557 85.7186 137.933 85.7186C137.562 85.7186 137.218 85.6893 136.899 85.6308C136.581 85.5723 136.278 85.4748 135.992 85.3383V84.4023C136.285 84.5518 136.597 84.6656 136.928 84.7436C137.266 84.8216 137.588 84.8606 137.894 84.8606C138.485 84.8606 138.911 84.7501 139.171 84.5291C139.431 84.3016 139.561 83.9863 139.561 83.5833C139.561 83.3233 139.493 83.1121 139.356 82.9496C139.22 82.7806 139.012 82.6571 138.732 82.5791C138.453 82.4946 138.105 82.4523 137.689 82.4523H137.055V81.6041H137.699C138.095 81.6041 138.417 81.5553 138.664 81.4578C138.911 81.3538 139.093 81.2108 139.21 81.0288C139.327 80.8468 139.385 80.6388 139.385 80.4048C139.385 80.0928 139.281 79.8523 139.073 79.6833C138.872 79.5078 138.579 79.4201 138.196 79.4201C137.962 79.4201 137.744 79.4461 137.543 79.4981C137.348 79.5501 137.169 79.6183 137.006 79.7028C136.844 79.7873 136.685 79.8816 136.529 79.9856L136.022 79.2738C136.197 79.1438 136.392 79.0236 136.607 78.9131C136.828 78.8026 137.071 78.7181 137.338 78.6596C137.611 78.5946 137.907 78.5621 138.225 78.5621C138.947 78.5621 139.493 78.7213 139.863 79.0398C140.24 79.3518 140.429 79.7613 140.429 80.2683ZM145.813 80.2683C145.813 80.5803 145.752 80.8533 145.628 81.0873C145.511 81.3148 145.342 81.5001 145.121 81.6431C144.9 81.7861 144.647 81.8901 144.361 81.9551V81.9941C144.92 82.0591 145.336 82.2346 145.609 82.5206C145.888 82.8001 146.028 83.1706 146.028 83.6321C146.028 84.0351 145.93 84.3958 145.735 84.7143C145.547 85.0263 145.251 85.2733 144.848 85.4553C144.452 85.6308 143.941 85.7186 143.317 85.7186C142.947 85.7186 142.602 85.6893 142.284 85.6308C141.965 85.5723 141.663 85.4748 141.377 85.3383V84.4023C141.67 84.5518 141.982 84.6656 142.313 84.7436C142.651 84.8216 142.973 84.8606 143.278 84.8606C143.87 84.8606 144.296 84.7501 144.556 84.5291C144.816 84.3016 144.946 83.9863 144.946 83.5833C144.946 83.3233 144.877 83.1121 144.741 82.9496C144.604 82.7806 144.396 82.6571 144.117 82.5791C143.837 82.4946 143.49 82.4523 143.074 82.4523H142.44V81.6041H143.083C143.48 81.6041 143.802 81.5553 144.049 81.4578C144.296 81.3538 144.478 81.2108 144.595 81.0288C144.712 80.8468 144.77 80.6388 144.77 80.4048C144.77 80.0928 144.666 79.8523 144.458 79.6833C144.257 79.5078 143.964 79.4201 143.581 79.4201C143.347 79.4201 143.129 79.4461 142.927 79.4981C142.732 79.5501 142.554 79.6183 142.391 79.7028C142.229 79.7873 142.069 79.8816 141.913 79.9856L141.406 79.2738C141.582 79.1438 141.777 79.0236 141.991 78.9131C142.212 78.8026 142.456 78.7181 142.723 78.6596C142.996 78.5946 143.291 78.5621 143.61 78.5621C144.331 78.5621 144.877 78.7213 145.248 79.0398C145.625 79.3518 145.813 79.7613 145.813 80.2683ZM151.471 85.6211H146.791V84.8216L148.585 82.9983C148.936 82.6408 149.228 82.3321 149.462 82.0721C149.696 81.8056 149.872 81.5521 149.989 81.3116C150.106 81.0646 150.164 80.7981 150.164 80.5121C150.164 80.1546 150.06 79.8881 149.852 79.7126C149.644 79.5306 149.375 79.4396 149.043 79.4396C148.725 79.4396 148.439 79.5013 148.185 79.6248C147.932 79.7418 147.668 79.9076 147.395 80.1221L146.84 79.4298C147.028 79.2673 147.23 79.1211 147.444 78.9911C147.665 78.8611 147.909 78.7571 148.175 78.6791C148.448 78.6011 148.747 78.5621 149.072 78.5621C149.514 78.5621 149.895 78.6401 150.213 78.7961C150.532 78.9456 150.775 79.1601 150.944 79.4396C151.12 79.7191 151.208 80.0473 151.208 80.4243C151.208 80.7038 151.165 80.9671 151.081 81.2141C150.996 81.4546 150.873 81.6918 150.71 81.9258C150.554 82.1598 150.363 82.3971 150.135 82.6376C149.908 82.8781 149.657 83.1316 149.384 83.3981L148.088 84.6558V84.7046H151.471V85.6211ZM158.425 80.2683C159.017 80.2683 159.462 80.4211 159.761 80.7266C160.06 81.0321 160.21 81.5228 160.21 82.1988V85.6211H159.176V82.3353C159.176 81.9323 159.095 81.6301 158.932 81.4286C158.776 81.2206 158.529 81.1166 158.191 81.1166C157.723 81.1166 157.389 81.2628 157.187 81.5553C156.986 81.8413 156.885 82.2573 156.885 82.8033V85.6211H155.861V82.3353C155.861 82.0688 155.822 81.8446 155.744 81.6626C155.673 81.4806 155.565 81.3441 155.422 81.2531C155.279 81.1621 155.094 81.1166 154.867 81.1166C154.542 81.1166 154.285 81.1881 154.096 81.3311C153.908 81.4741 153.771 81.6853 153.687 81.9648C153.609 82.2378 153.57 82.5726 153.57 82.9691V85.6211H152.536V80.3658H153.355L153.502 81.0678H153.56C153.671 80.8858 153.804 80.7363 153.96 80.6193C154.122 80.5023 154.301 80.4146 154.496 80.3561C154.691 80.2976 154.893 80.2683 155.101 80.2683C155.497 80.2683 155.832 80.3398 156.105 80.4828C156.378 80.6193 156.576 80.8306 156.7 81.1166H156.778C156.947 80.8241 157.181 80.6096 157.48 80.4731C157.779 80.3366 158.094 80.2683 158.425 80.2683ZM167.485 80.2683C168.077 80.2683 168.522 80.4211 168.821 80.7266C169.12 81.0321 169.269 81.5228 169.269 82.1988V85.6211H168.236V82.3353C168.236 81.9323 168.155 81.6301 167.992 81.4286C167.836 81.2206 167.589 81.1166 167.251 81.1166C166.783 81.1166 166.448 81.2628 166.247 81.5553C166.045 81.8413 165.945 82.2573 165.945 82.8033V85.6211H164.921V82.3353C164.921 82.0688 164.882 81.8446 164.804 81.6626C164.732 81.4806 164.625 81.3441 164.482 81.2531C164.339 81.1621 164.154 81.1166 163.926 81.1166C163.601 81.1166 163.345 81.1881 163.156 81.3311C162.968 81.4741 162.831 81.6853 162.747 81.9648C162.669 82.2378 162.63 82.5726 162.63 82.9691V85.6211H161.596V80.3658H162.415L162.561 81.0678H162.62C162.73 80.8858 162.864 80.7363 163.02 80.6193C163.182 80.5023 163.361 80.4146 163.556 80.3561C163.751 80.2976 163.952 80.2683 164.16 80.2683C164.557 80.2683 164.892 80.3398 165.165 80.4828C165.438 80.6193 165.636 80.8306 165.759 81.1166H165.837C166.006 80.8241 166.24 80.6096 166.539 80.4731C166.838 80.3366 167.154 80.2683 167.485 80.2683Z" fill="#A6A5A3"/>
<path d="M115.45 160.871H114.426V156.25C114.426 156.087 114.426 155.938 114.426 155.801C114.433 155.658 114.439 155.522 114.446 155.392C114.452 155.255 114.459 155.125 114.465 155.002C114.381 155.086 114.293 155.167 114.202 155.245C114.111 155.323 114.007 155.414 113.89 155.518L113.13 156.133L112.603 155.47L114.592 153.91H115.45V160.871ZM122.327 156.883C122.327 157.28 122.297 157.676 122.239 158.073C122.18 158.463 122.083 158.833 121.946 159.184C121.81 159.529 121.615 159.838 121.361 160.111C121.114 160.377 120.799 160.588 120.416 160.744C120.039 160.894 119.58 160.969 119.041 160.969C118.911 160.969 118.758 160.962 118.583 160.949C118.407 160.936 118.261 160.913 118.144 160.881V160.013C118.267 160.052 118.404 160.081 118.553 160.101C118.709 160.12 118.859 160.13 119.002 160.13C119.45 160.13 119.818 160.065 120.104 159.935C120.396 159.799 120.627 159.61 120.796 159.37C120.971 159.129 121.098 158.85 121.176 158.531C121.254 158.213 121.3 157.875 121.313 157.517H121.254C121.157 157.667 121.036 157.803 120.893 157.927C120.75 158.05 120.575 158.148 120.367 158.219C120.165 158.291 119.922 158.326 119.636 158.326C119.239 158.326 118.888 158.242 118.583 158.073C118.284 157.904 118.053 157.663 117.89 157.351C117.728 157.033 117.647 156.646 117.647 156.191C117.647 155.697 117.738 155.275 117.92 154.924C118.108 154.566 118.371 154.293 118.709 154.105C119.054 153.916 119.454 153.822 119.909 153.822C120.247 153.822 120.562 153.884 120.854 154.007C121.147 154.131 121.404 154.319 121.625 154.573C121.846 154.826 122.018 155.145 122.141 155.528C122.265 155.912 122.327 156.363 122.327 156.883ZM119.918 154.67C119.548 154.67 119.246 154.794 119.012 155.041C118.778 155.288 118.661 155.665 118.661 156.172C118.661 156.588 118.758 156.916 118.953 157.156C119.155 157.397 119.463 157.517 119.879 157.517C120.165 157.517 120.412 157.459 120.62 157.342C120.828 157.218 120.991 157.069 121.108 156.893C121.225 156.711 121.283 156.523 121.283 156.328C121.283 156.133 121.254 155.938 121.196 155.743C121.137 155.548 121.053 155.369 120.942 155.206C120.832 155.044 120.689 154.914 120.513 154.816C120.344 154.719 120.146 154.67 119.918 154.67ZM123.85 160.871L126.629 154.826H122.973V153.91H127.74V154.651L124.971 160.871H123.85ZM134.675 155.518C135.267 155.518 135.712 155.671 136.011 155.977C136.31 156.282 136.46 156.773 136.46 157.449V160.871H135.426V157.585C135.426 157.182 135.345 156.88 135.182 156.679C135.026 156.471 134.779 156.367 134.441 156.367C133.973 156.367 133.639 156.513 133.437 156.805C133.236 157.091 133.135 157.507 133.135 158.053V160.871H132.111V157.585C132.111 157.319 132.072 157.095 131.994 156.913C131.923 156.731 131.815 156.594 131.672 156.503C131.529 156.412 131.344 156.367 131.117 156.367C130.792 156.367 130.535 156.438 130.346 156.581C130.158 156.724 130.021 156.935 129.937 157.215C129.859 157.488 129.82 157.823 129.82 158.219V160.871H128.786V155.616H129.605L129.752 156.318H129.81C129.921 156.136 130.054 155.986 130.21 155.869C130.372 155.752 130.551 155.665 130.746 155.606C130.941 155.548 131.143 155.518 131.351 155.518C131.747 155.518 132.082 155.59 132.355 155.733C132.628 155.869 132.826 156.081 132.95 156.367H133.028C133.197 156.074 133.431 155.86 133.73 155.723C134.029 155.587 134.344 155.518 134.675 155.518ZM143.735 155.518C144.327 155.518 144.772 155.671 145.071 155.977C145.37 156.282 145.519 156.773 145.519 157.449V160.871H144.486V157.585C144.486 157.182 144.405 156.88 144.242 156.679C144.086 156.471 143.839 156.367 143.501 156.367C143.033 156.367 142.698 156.513 142.497 156.805C142.295 157.091 142.195 157.507 142.195 158.053V160.871H141.171V157.585C141.171 157.319 141.132 157.095 141.054 156.913C140.982 156.731 140.875 156.594 140.732 156.503C140.589 156.412 140.404 156.367 140.176 156.367C139.851 156.367 139.595 156.438 139.406 156.581C139.218 156.724 139.081 156.935 138.997 157.215C138.919 157.488 138.88 157.823 138.88 158.219V160.871H137.846V155.616H138.665L138.811 156.318H138.87C138.98 156.136 139.114 155.986 139.27 155.869C139.432 155.752 139.611 155.665 139.806 155.606C140.001 155.548 140.202 155.518 140.41 155.518C140.807 155.518 141.142 155.59 141.415 155.733C141.688 155.869 141.886 156.081 142.009 156.367H142.087C142.256 156.074 142.49 155.86 142.789 155.723C143.088 155.587 143.404 155.518 143.735 155.518Z" fill="#A6A5A3"/>
<path d="M5.67874 145.768C5.67874 146.08 5.61699 146.353 5.49349 146.587C5.37649 146.815 5.20749 147 4.98649 147.143C4.76549 147.286 4.51199 147.39 4.22599 147.455V147.494C4.78499 147.559 5.20099 147.735 5.47399 148.021C5.75349 148.3 5.89324 148.671 5.89324 149.132C5.89324 149.535 5.79574 149.896 5.60074 150.214C5.41224 150.526 5.11649 150.773 4.71349 150.955C4.31699 151.131 3.80674 151.219 3.18274 151.219C2.81224 151.219 2.46774 151.189 2.14924 151.131C1.83074 151.072 1.52849 150.975 1.24249 150.838V149.902C1.53499 150.052 1.84699 150.166 2.17849 150.244C2.51649 150.322 2.83824 150.361 3.14374 150.361C3.73524 150.361 4.16099 150.25 4.42099 150.029C4.68099 149.802 4.81099 149.486 4.81099 149.083C4.81099 148.823 4.74274 148.612 4.60624 148.45C4.46974 148.281 4.26174 148.157 3.98224 148.079C3.70274 147.995 3.35499 147.952 2.93899 147.952H2.30524V147.104H2.94874C3.34524 147.104 3.66699 147.055 3.91399 146.958C4.16099 146.854 4.34299 146.711 4.45999 146.529C4.57699 146.347 4.63549 146.139 4.63549 145.905C4.63549 145.593 4.53149 145.352 4.32349 145.183C4.12199 145.008 3.82949 144.92 3.44599 144.92C3.21199 144.92 2.99424 144.946 2.79274 144.998C2.59774 145.05 2.41899 145.118 2.25649 145.203C2.09399 145.287 1.93474 145.382 1.77874 145.486L1.27174 144.774C1.44724 144.644 1.64224 144.524 1.85674 144.413C2.07774 144.303 2.32149 144.218 2.58799 144.16C2.86099 144.095 3.15674 144.062 3.47524 144.062C4.19674 144.062 4.74274 144.221 5.11324 144.54C5.49024 144.852 5.67874 145.261 5.67874 145.768ZM9.83483 151.121H8.81108V146.5C8.81108 146.337 8.81108 146.188 8.81108 146.051C8.81758 145.908 8.82408 145.772 8.83058 145.642C8.83708 145.505 8.84358 145.375 8.85008 145.252C8.76558 145.336 8.67783 145.417 8.58683 145.495C8.49583 145.573 8.39183 145.664 8.27483 145.768L7.51433 146.383L6.98783 145.72L8.97683 144.16H9.83483V151.121ZM16.7307 147.631C16.7307 148.196 16.6852 148.7 16.5942 149.142C16.5097 149.584 16.3732 149.961 16.1847 150.273C16.0027 150.578 15.7589 150.812 15.4534 150.975C15.1544 151.137 14.7937 151.219 14.3712 151.219C13.8382 151.219 13.3994 151.076 13.0549 150.79C12.7104 150.504 12.4537 150.094 12.2847 149.561C12.1157 149.022 12.0312 148.378 12.0312 147.631C12.0312 146.877 12.1059 146.233 12.2554 145.7C12.4114 145.167 12.6617 144.761 13.0062 144.481C13.3507 144.195 13.8057 144.052 14.3712 144.052C14.9042 144.052 15.3429 144.195 15.6874 144.481C16.0384 144.761 16.2984 145.167 16.4674 145.7C16.6429 146.233 16.7307 146.877 16.7307 147.631ZM13.0647 147.631C13.0647 148.235 13.1069 148.739 13.1914 149.142C13.2759 149.545 13.4124 149.847 13.6009 150.049C13.7959 150.25 14.0527 150.351 14.3712 150.351C14.6897 150.351 14.9432 150.253 15.1317 150.058C15.3267 149.857 15.4664 149.555 15.5509 149.152C15.6419 148.742 15.6874 148.235 15.6874 147.631C15.6874 147.026 15.6419 146.526 15.5509 146.129C15.4664 145.726 15.3267 145.424 15.1317 145.222C14.9432 145.021 14.6897 144.92 14.3712 144.92C14.0527 144.92 13.7959 145.021 13.6009 145.222C13.4124 145.424 13.2759 145.726 13.1914 146.129C13.1069 146.526 13.0647 147.026 13.0647 147.631ZM23.6753 145.768C24.2668 145.768 24.712 145.921 25.011 146.227C25.31 146.532 25.4595 147.023 25.4595 147.699V151.121H24.426V147.835C24.426 147.432 24.3448 147.13 24.1823 146.929C24.0263 146.721 23.7793 146.617 23.4413 146.617C22.9733 146.617 22.6385 146.763 22.437 147.055C22.2355 147.341 22.1348 147.757 22.1348 148.303V151.121H21.111V147.835C21.111 147.569 21.072 147.345 20.994 147.163C20.9225 146.981 20.8153 146.844 20.6723 146.753C20.5293 146.662 20.344 146.617 20.1165 146.617C19.7915 146.617 19.5348 146.688 19.3463 146.831C19.1578 146.974 19.0213 147.185 18.9368 147.465C18.8588 147.738 18.8198 148.073 18.8198 148.469V151.121H17.7863V145.866H18.6053L18.7515 146.568H18.81C18.9205 146.386 19.0538 146.236 19.2098 146.119C19.3723 146.002 19.551 145.915 19.746 145.856C19.941 145.798 20.1425 145.768 20.3505 145.768C20.747 145.768 21.0818 145.84 21.3548 145.983C21.6278 146.119 21.826 146.331 21.9495 146.617H22.0275C22.1965 146.324 22.4305 146.11 22.7295 145.973C23.0285 145.837 23.3438 145.768 23.6753 145.768ZM32.7351 145.768C33.3266 145.768 33.7719 145.921 34.0709 146.227C34.3699 146.532 34.5194 147.023 34.5194 147.699V151.121H33.4859V147.835C33.4859 147.432 33.4046 147.13 33.2421 146.929C33.0861 146.721 32.8391 146.617 32.5011 146.617C32.0331 146.617 31.6984 146.763 31.4969 147.055C31.2954 147.341 31.1946 147.757 31.1946 148.303V151.121H30.1709V147.835C30.1709 147.569 30.1319 147.345 30.0539 147.163C29.9824 146.981 29.8751 146.844 29.7321 146.753C29.5891 146.662 29.4039 146.617 29.1764 146.617C28.8514 146.617 28.5946 146.688 28.4061 146.831C28.2176 146.974 28.0811 147.185 27.9966 147.465C27.9186 147.738 27.8796 148.073 27.8796 148.469V151.121H26.8461V145.866H27.6651L27.8114 146.568H27.8699C27.9804 146.386 28.1136 146.236 28.2696 146.119C28.4321 146.002 28.6109 145.915 28.8059 145.856C29.0009 145.798 29.2024 145.768 29.4104 145.768C29.8069 145.768 30.1416 145.84 30.4146 145.983C30.6876 146.119 30.8859 146.331 31.0094 146.617H31.0874C31.2564 146.324 31.4904 146.11 31.7894 145.973C32.0884 145.837 32.4036 145.768 32.7351 145.768Z" fill="#A6A5A3"/>
<defs>
<clipPath id="clip0_1451_4080">
<rect width="120" height="159" fill="white" transform="translate(2.5 0.246094)"/>
</clipPath>
</defs>
</svg>
