<svg width="31" height="31" viewBox="0 0 31 31" fill="none" xmlns="http://www.w3.org/2000/svg">
<path d="M22.5677 22.5677C26.7223 18.4131 26.7223 11.6772 22.5677 7.52257C18.4131 3.36797 11.6771 3.36796 7.52256 7.52255C3.36796 11.6771 3.36798 18.4131 7.52257 22.5677C11.6772 26.7223 18.4131 26.7223 22.5677 22.5677Z" fill="white"/>
<path d="M12.0837 9.318C12.0837 10.7628 10.5075 10.7628 10.5075 12.2076C10.5075 13.6524 12.0837 13.6524 12.0837 15.0972C12.0837 16.542 10.5075 16.542 10.5075 17.9869C10.5075 19.4317 12.0837 19.4317 12.0837 20.8765" stroke="#B5B5B5" stroke-linecap="round" stroke-linejoin="round"/>
<path d="M16.004 9.318C16.004 10.7628 14.4278 10.7628 14.4278 12.2076C14.4278 13.6524 16.004 13.6524 16.004 15.0972C16.004 16.542 14.4278 16.542 14.4278 17.9869C14.4278 19.4317 16.004 19.4317 16.004 20.8765" stroke="#B5B5B5" stroke-linecap="round" stroke-linejoin="round"/>
<path d="M19.6818 9.318C19.6818 10.7628 18.1056 10.7628 18.1056 12.2076C18.1056 13.6524 19.6818 13.6524 19.6818 15.0972C19.6818 16.542 18.1056 16.542 18.1056 17.9869C18.1056 19.4317 19.6818 19.4317 19.6818 20.8765" stroke="#B5B5B5" stroke-linecap="round" stroke-linejoin="round"/>
</svg>
