<svg width="335" height="291" viewBox="0 0 335 291" fill="none" xmlns="http://www.w3.org/2000/svg">
<path opacity="0.5" d="M308.238 28.3145H38.8672V146.22H308.238V28.3145Z" fill="#FFCFCF"/>
<mask id="mask0_1284_115308" style="mask-type:luminance" maskUnits="userSpaceOnUse" x="38" y="27" width="271" height="119">
<path d="M308.112 27.375H38.8672V145.966H308.112V27.375Z" fill="white"/>
</mask>
<g mask="url(#mask0_1284_115308)">
<g opacity="0.7">
<path d="M358.392 25.8828L238.633 208.759H238.993L358.392 26.4372V25.8828Z" fill="white"/>
<path d="M358.392 36.8555L245.816 208.758H246.185L358.392 37.418V36.8555Z" fill="white"/>
<path d="M358.392 47.8379L253.009 208.759H253.377L358.392 48.3923V47.8379Z" fill="white"/>
<path d="M358.392 58.8125L260.201 208.76H260.562L358.392 59.375V58.8125Z" fill="white"/>
<path d="M358.392 69.793L267.385 208.758H267.753L358.392 70.3555V69.793Z" fill="white"/>
<path d="M358.391 80.7754L274.576 208.759H274.945L358.391 81.3298V80.7754Z" fill="white"/>
<path d="M358.391 91.75L281.769 208.76H282.129L358.391 92.3125V91.75Z" fill="white"/>
<path d="M358.392 102.73L288.953 208.758H289.322L358.392 103.285V102.73Z" fill="white"/>
<path d="M358.391 113.705L296.145 208.759H296.513L358.391 114.268V113.705Z" fill="white"/>
<path d="M358.392 124.688L303.337 208.76H303.706L358.392 125.25V124.688Z" fill="white"/>
<path d="M42.3493 25.4258L-77.7129 208.759H-77.3525L42.7097 25.4258H42.3493Z" fill="white"/>
<path d="M49.5328 25.4258L-70.5293 208.759H-70.1607L49.9015 25.4258H49.5328Z" fill="white"/>
<path d="M56.7252 25.4258L-63.3369 208.759H-62.9683L57.0938 25.4258H56.7252Z" fill="white"/>
<path d="M63.9166 25.4258L-56.1455 208.759H-55.7851L64.2771 25.4258H63.9166Z" fill="white"/>
<path d="M71.1012 25.4258L-48.9609 208.759H-48.5923L71.4698 25.4258H71.1012Z" fill="white"/>
<path d="M78.2936 25.4258L-41.7686 208.759H-41.3999L78.6622 25.4258H78.2936Z" fill="white"/>
<path d="M85.485 25.4258L-34.5771 208.759H-34.2167L85.8536 25.4258H85.485Z" fill="white"/>
<path d="M92.6777 25.4258L-27.3926 208.759H-27.024L93.0382 25.4258H92.6777Z" fill="white"/>
<path d="M99.861 25.4258L-20.2012 208.759H-19.8326L100.23 25.4258H99.861Z" fill="white"/>
<path d="M107.053 25.4258L-13.0088 208.759H-12.6402L107.422 25.4258H107.053Z" fill="white"/>
<path d="M114.246 25.4258L-5.81641 208.759H-5.45598L114.606 25.4258H114.246Z" fill="white"/>
<path d="M121.429 25.4258L1.36719 208.759H1.7358L121.798 25.4258H121.429Z" fill="white"/>
<path d="M128.622 25.4258L8.55957 208.759H8.92819L128.99 25.4258H128.622Z" fill="white"/>
<path d="M135.814 25.4258L15.752 208.759H16.1124L136.175 25.4258H135.814Z" fill="white"/>
<path d="M142.997 25.4258L22.9346 208.759H23.3032L143.365 25.4258H142.997Z" fill="white"/>
<path d="M150.19 25.4258L30.1279 208.759H30.4965L150.559 25.4258H150.19Z" fill="white"/>
<path d="M157.381 25.4258L37.3193 208.759H37.688L157.75 25.4258H157.381Z" fill="white"/>
<path d="M164.573 25.4258L44.5029 208.759H44.8715L164.934 25.4258H164.573Z" fill="white"/>
<path d="M171.757 25.4258L51.6953 208.759H52.0639L172.126 25.4258H171.757Z" fill="white"/>
<path d="M178.95 25.4258L58.8877 208.759H59.2563L179.318 25.4258H178.95Z" fill="white"/>
<path d="M186.142 25.4258L66.0801 208.759H66.4405L186.503 25.4258H186.142Z" fill="white"/>
<path d="M193.326 25.4258L73.2637 208.759H73.6323L193.694 25.4258H193.326Z" fill="white"/>
<path d="M200.517 25.4258L80.4551 208.759H80.8237L200.886 25.4258H200.517Z" fill="white"/>
<path d="M207.71 25.4258L87.6475 208.759H88.0079L208.07 25.4258H207.71Z" fill="white"/>
<path d="M214.894 25.4258L94.832 208.759H95.2006L215.263 25.4258H214.894Z" fill="white"/>
<path d="M222.087 25.4258L102.024 208.759H102.393L222.455 25.4258H222.087Z" fill="white"/>
<path d="M229.279 25.4258L109.217 208.759H109.585L229.648 25.4258H229.279Z" fill="white"/>
<path d="M236.47 25.4258L116.408 208.759H116.769L236.831 25.4258H236.47Z" fill="white"/>
<path d="M243.654 25.4258L123.592 208.759H123.96L244.023 25.4258H243.654Z" fill="white"/>
<path d="M250.846 25.4258L130.784 208.759H131.153L251.215 25.4258H250.846Z" fill="white"/>
<path d="M258.038 25.4258L137.976 208.759H138.336L258.398 25.4258H258.038Z" fill="white"/>
<path d="M265.222 25.4258L145.16 208.759H145.529L265.591 25.4258H265.222Z" fill="white"/>
<path d="M272.415 25.4258L152.353 208.759H152.721L272.783 25.4258H272.415Z" fill="white"/>
<path d="M279.606 25.4258L159.544 208.759H159.904L279.975 25.4258H279.606Z" fill="white"/>
<path d="M286.798 25.4258L166.728 208.759H167.096L287.158 25.4258H286.798Z" fill="white"/>
<path d="M293.982 25.4258L173.92 208.759H174.289L294.351 25.4258H293.982Z" fill="white"/>
<path d="M301.174 25.4258L181.112 208.759H181.481L301.543 25.4258H301.174Z" fill="white"/>
<path d="M308.366 25.4258L188.304 208.759H188.664L308.726 25.4258H308.366Z" fill="white"/>
<path d="M315.55 25.4258L195.488 208.759H195.857L315.919 25.4258H315.55Z" fill="white"/>
<path d="M322.743 25.4258L202.681 208.759H203.049L323.111 25.4258H322.743Z" fill="white"/>
<path d="M329.934 25.4258L209.872 208.759H210.232L330.295 25.4258H329.934Z" fill="white"/>
<path d="M337.119 25.4258L217.057 208.759H217.425L337.487 25.4258H337.119Z" fill="white"/>
<path d="M344.311 25.4258L224.249 208.759H224.618L344.68 25.4258H344.311Z" fill="white"/>
<path d="M351.503 25.4258L231.44 208.759H231.809L351.871 25.4258H351.503Z" fill="white"/>
<path d="M358.392 31.2637L242.155 208.759H242.524L358.392 31.8262V31.2637Z" fill="white"/>
<path d="M358.391 42.2441L249.347 208.758H249.707L358.391 42.7985V42.2441Z" fill="white"/>
<path d="M358.391 53.2188L256.53 208.759H256.899L358.391 53.7813V53.2188Z" fill="white"/>
<path d="M358.391 64.2012L263.723 208.759H264.091L358.391 64.7556V64.2012Z" fill="white"/>
<path d="M358.392 75.1738L270.915 208.758H271.275L358.392 75.7364V75.1738Z" fill="white"/>
<path d="M358.391 86.1562L278.099 208.759H278.467L358.391 86.7188V86.1562Z" fill="white"/>
<path d="M358.392 97.1387L285.291 208.759H285.66L358.392 97.6931V97.1387Z" fill="white"/>
<path d="M358.392 108.111L292.483 208.758H292.852L358.392 108.674V108.111Z" fill="white"/>
<path d="M358.391 119.094L299.675 208.759H300.035L358.391 119.648V119.094Z" fill="white"/>
<path d="M358.392 130.068L306.859 208.76H307.228L358.392 130.631V130.068Z" fill="white"/>
<path d="M38.6793 25.4258L-81.3828 208.759H-81.0142L39.0479 25.4258H38.6793Z" fill="white"/>
<path d="M45.8717 25.4258L-74.1904 208.759H-73.8218L46.2403 25.4258H45.8717Z" fill="white"/>
<path d="M53.0631 25.4258L-66.999 208.759H-66.6386L53.4235 25.4258H53.0631Z" fill="white"/>
<path d="M60.2477 25.4258L-59.8145 208.759H-59.4458L60.6163 25.4258H60.2477Z" fill="white"/>
<path d="M67.4401 25.4258L-52.6221 208.759H-52.2535L67.8087 25.4258H67.4401Z" fill="white"/>
<path d="M74.6315 25.4258L-45.4307 208.759H-45.0702L75.0001 25.4258H74.6315Z" fill="white"/>
<path d="M81.8233 25.4258L-38.2471 208.759H-37.8785L82.1837 25.4258H81.8233Z" fill="white"/>
<path d="M89.0075 25.4258L-31.0547 208.759H-30.6861L89.3761 25.4258H89.0075Z" fill="white"/>
<path d="M96.1998 25.4258L-23.8623 208.759H-23.4937L96.5684 25.4258H96.1998Z" fill="white"/>
<path d="M103.391 25.4258L-16.6709 208.759H-16.3105L103.752 25.4258H103.391Z" fill="white"/>
<path d="M110.576 25.4258L-9.48633 208.759H-9.11771L110.944 25.4258H110.576Z" fill="white"/>
<path d="M117.768 25.4258L-2.29395 208.759H-1.92533L118.137 25.4258H117.768Z" fill="white"/>
<path d="M124.96 25.4258L4.89746 208.759H5.25788L125.32 25.4258H124.96Z" fill="white"/>
<path d="M132.144 25.4258L12.082 208.759H12.4506L132.513 25.4258H132.144Z" fill="white"/>
<path d="M139.336 25.4258L19.2822 208.759H19.6427L139.705 25.4258H139.336Z" fill="white"/>
<path d="M146.528 25.4258L26.4658 208.759H26.8344L146.897 25.4258H146.528Z" fill="white"/>
<path d="M153.72 25.4258L33.6582 208.759H34.0186L154.081 25.4258H153.72Z" fill="white"/>
<path d="M160.903 25.4258L40.8408 208.759H41.2094L161.272 25.4258H160.903Z" fill="white"/>
<path d="M168.096 25.4258L48.0342 208.759H48.4028L168.465 25.4258H168.096Z" fill="white"/>
<path d="M175.288 25.4258L55.2256 208.759H55.586L175.648 25.4258H175.288Z" fill="white"/>
<path d="M182.471 25.4258L62.4092 208.759H62.7778L182.84 25.4258H182.471Z" fill="white"/>
<path d="M189.665 25.4258L69.6025 208.759H69.9712L190.033 25.4258H189.665Z" fill="white"/>
<path d="M196.857 25.4258L76.7949 208.759H77.1553L197.226 25.4258H196.857Z" fill="white"/>
<path d="M204.048 25.4258L83.9775 208.759H84.3462L204.408 25.4258H204.048Z" fill="white"/>
<path d="M211.233 25.4258L91.1709 208.759H91.5395L211.602 25.4258H211.233Z" fill="white"/>
<path d="M218.425 25.4258L98.3633 208.759H98.7319L218.794 25.4258H218.425Z" fill="white"/>
<path d="M225.617 25.4258L105.555 208.759H105.915L225.977 25.4258H225.617Z" fill="white"/>
<path d="M232.8 25.4258L112.738 208.759H113.107L233.169 25.4258H232.8Z" fill="white"/>
<path d="M239.993 25.4258L119.931 208.759H120.299L240.361 25.4258H239.993Z" fill="white"/>
<path d="M247.184 25.4258L127.122 208.759H127.482L247.545 25.4258H247.184Z" fill="white"/>
<path d="M254.369 25.4258L134.307 208.759H134.675L254.737 25.4258H254.369Z" fill="white"/>
<path d="M261.561 25.4258L141.499 208.759H141.868L261.93 25.4258H261.561Z" fill="white"/>
<path d="M268.753 25.4258L148.69 208.759H149.059L269.121 25.4258H268.753Z" fill="white"/>
<path d="M275.945 25.4258L155.883 208.759H156.243L276.305 25.4258H275.945Z" fill="white"/>
<path d="M283.129 25.4258L163.066 208.759H163.435L283.497 25.4258H283.129Z" fill="white"/>
<path d="M290.321 25.4258L170.259 208.759H170.627L290.69 25.4258H290.321Z" fill="white"/>
<path d="M297.512 25.4258L177.45 208.759H177.811L297.873 25.4258H297.512Z" fill="white"/>
<path d="M304.697 25.4258L184.635 208.759H185.003L305.066 25.4258H304.697Z" fill="white"/>
<path d="M311.889 25.4258L191.827 208.759H192.196L312.258 25.4258H311.889Z" fill="white"/>
<path d="M319.081 25.4258L199.019 208.759H199.379L319.449 25.4258H319.081Z" fill="white"/>
<path d="M326.273 25.4258L206.203 208.759H206.572L326.634 25.4258H326.273Z" fill="white"/>
<path d="M333.458 25.4258L213.396 208.759H213.764L333.826 25.4258H333.458Z" fill="white"/>
<path d="M340.649 25.4258L220.587 208.759H220.956L341.018 25.4258H340.649Z" fill="white"/>
<path d="M347.841 25.4258L227.779 208.759H228.14L348.202 25.4258H347.841Z" fill="white"/>
<path d="M355.025 25.4258L234.963 208.759H235.332L355.394 25.4258H355.025Z" fill="white"/>
</g>
</g>
<path d="M308.567 146.416H38.9414V27.584H308.567" stroke="#FF5C5C" stroke-width="1.38" stroke-miterlimit="10"/>
</svg>
