<svg width="265" height="129" viewBox="0 0 265 129" fill="none" xmlns="http://www.w3.org/2000/svg">
<path d="M260.635 40.4198C260.966 40.4198 261.235 40.6884 261.235 41.0198C261.235 41.3511 260.966 41.6198 260.635 41.6198V40.4198ZM240.475 64.4821C240.806 64.4821 241.075 64.7508 241.075 65.0821C241.075 65.4135 240.806 65.6821 240.475 65.6821V64.4821ZM37.7134 64.4821C38.0447 64.4821 38.3134 64.7508 38.3134 65.0821C38.3134 65.4135 38.0447 65.6821 37.7134 65.6821V64.4821ZM40.601 65.6821C40.2696 65.6821 40.001 65.4135 40.001 65.0821C40.001 64.7508 40.2696 64.4821 40.601 64.4821V65.6821ZM43.4887 64.4821C43.82 64.4821 44.0887 64.7508 44.0887 65.0821C44.0887 65.4135 43.82 65.6821 43.4887 65.6821V64.4821ZM46.3763 65.6821C46.045 65.6821 45.7763 65.4135 45.7763 65.0821C45.7763 64.7508 46.045 64.4821 46.3763 64.4821V65.6821ZM49.264 64.4821C49.5953 64.4821 49.864 64.7508 49.864 65.0821C49.864 65.4135 49.5953 65.6821 49.264 65.6821V64.4821ZM52.1516 65.6821C51.8203 65.6821 51.5516 65.4135 51.5516 65.0821C51.5516 64.7508 51.8203 64.4821 52.1516 64.4821V65.6821ZM55.0393 64.4821C55.3707 64.4821 55.6393 64.7508 55.6393 65.0821C55.6393 65.4135 55.3707 65.6821 55.0393 65.6821V64.4821ZM57.9269 65.6821C57.5956 65.6821 57.3269 65.4135 57.3269 65.0821C57.3269 64.7508 57.5956 64.4821 57.9269 64.4821V65.6821ZM60.8146 64.4821C61.146 64.4821 61.4146 64.7508 61.4146 65.0821C61.4146 65.4135 61.146 65.6821 60.8146 65.6821V64.4821ZM63.7023 65.6821C63.3709 65.6821 63.1023 65.4135 63.1023 65.0821C63.1023 64.7508 63.3709 64.4821 63.7023 64.4821V65.6821ZM66.5899 64.4821C66.9213 64.4821 67.1899 64.7508 67.1899 65.0821C67.1899 65.4135 66.9213 65.6821 66.5899 65.6821V64.4821ZM69.4776 65.6821C69.1462 65.6821 68.8776 65.4135 68.8776 65.0821C68.8776 64.7508 69.1462 64.4821 69.4776 64.4821V65.6821ZM72.3652 64.4821C72.6966 64.4821 72.9652 64.7508 72.9652 65.0821C72.9652 65.4135 72.6966 65.6821 72.3652 65.6821V64.4821ZM75.2529 65.6821C74.9215 65.6821 74.6529 65.4135 74.6529 65.0821C74.6529 64.7508 74.9215 64.4821 75.2529 64.4821V65.6821ZM78.1405 64.4821C78.4719 64.4821 78.7405 64.7508 78.7405 65.0821C78.7405 65.4135 78.4719 65.6821 78.1405 65.6821V64.4821ZM81.0282 65.6821C80.6968 65.6821 80.4282 65.4135 80.4282 65.0821C80.4282 64.7508 80.6968 64.4821 81.0282 64.4821V65.6821ZM83.9158 64.4821C84.2472 64.4821 84.5158 64.7508 84.5158 65.0821C84.5158 65.4135 84.2472 65.6821 83.9158 65.6821V64.4821ZM86.8035 65.6821C86.4721 65.6821 86.2035 65.4135 86.2035 65.0821C86.2035 64.7508 86.4721 64.4821 86.8035 64.4821V65.6821ZM89.2427 64.6797C89.5488 64.8066 89.6941 65.1576 89.5671 65.4637C89.4402 65.7698 89.0892 65.9151 88.7831 65.7881L89.2427 64.6797ZM89.5413 66.5464C89.4144 66.2403 89.5596 65.8893 89.8657 65.7623C90.1718 65.6354 90.5229 65.7806 90.6498 66.0867L89.5413 66.5464ZM90.8473 68.754C90.8473 69.0854 90.5787 69.354 90.2473 69.354C89.9159 69.354 89.6473 69.0854 89.6473 68.754H90.8473ZM89.6473 72.0977C89.6473 71.7664 89.9159 71.4977 90.2473 71.4977C90.5787 71.4977 90.8473 71.7664 90.8473 72.0977H89.6473ZM90.8473 75.4415C90.8473 75.7728 90.5787 76.0415 90.2473 76.0415C89.9159 76.0415 89.6473 75.7728 89.6473 75.4415H90.8473ZM89.6473 78.7852C89.6473 78.4538 89.9159 78.1852 90.2473 78.1852C90.5787 78.1852 90.8473 78.4538 90.8473 78.7852H89.6473ZM90.8473 82.1289C90.8473 82.4603 90.5787 82.7289 90.2473 82.7289C89.9159 82.7289 89.6473 82.4603 89.6473 82.1289H90.8473ZM89.6473 85.4727C89.6473 85.1413 89.9159 84.8727 90.2473 84.8727C90.5787 84.8727 90.8473 85.1413 90.8473 85.4727H89.6473ZM90.9533 87.6803C91.0802 87.9864 90.935 88.3374 90.6289 88.4643C90.3228 88.5913 89.9718 88.446 89.8448 88.1399L90.9533 87.6803ZM91.2519 89.547C90.9458 89.4201 90.8006 89.069 90.9275 88.7629C91.0544 88.4568 91.4055 88.3116 91.7116 88.4385L91.2519 89.547ZM93.5357 88.5445C93.8671 88.5445 94.1357 88.8132 94.1357 89.1445C94.1357 89.4759 93.8671 89.7445 93.5357 89.7445V88.5445ZM96.1126 89.7445C95.7812 89.7445 95.5126 89.4759 95.5126 89.1445C95.5126 88.8132 95.7812 88.5445 96.1126 88.5445V89.7445ZM98.6894 88.5445C99.0208 88.5445 99.2894 88.8132 99.2894 89.1445C99.2894 89.4759 99.0208 89.7445 98.6894 89.7445V88.5445ZM101.266 89.7445C100.935 89.7445 100.666 89.4759 100.666 89.1445C100.666 88.8132 100.935 88.5445 101.266 88.5445V89.7445ZM103.09 88.4385C103.397 88.3116 103.748 88.4568 103.874 88.7629C104.001 89.069 103.856 89.4201 103.55 89.547L103.09 88.4385ZM104.957 88.1399C104.83 88.446 104.479 88.5913 104.173 88.4643C103.867 88.3374 103.722 87.9864 103.849 87.6803L104.957 88.1399ZM103.955 85.4727C103.955 85.1413 104.223 84.8727 104.555 84.8727C104.886 84.8727 105.155 85.1413 105.155 85.4727H103.955ZM105.155 82.1289C105.155 82.4603 104.886 82.7289 104.555 82.7289C104.223 82.7289 103.955 82.4603 103.955 82.1289H105.155ZM103.955 78.7852C103.955 78.4538 104.223 78.1852 104.555 78.1852C104.886 78.1852 105.155 78.4538 105.155 78.7852H103.955ZM105.155 75.4415C105.155 75.7728 104.886 76.0415 104.555 76.0415C104.223 76.0415 103.955 75.7728 103.955 75.4415H105.155ZM103.955 72.0977C103.955 71.7664 104.223 71.4977 104.555 71.4977C104.886 71.4977 105.155 71.7664 105.155 72.0977H103.955ZM105.155 68.754C105.155 69.0854 104.886 69.354 104.555 69.354C104.223 69.354 103.955 69.0854 103.955 68.754H105.155ZM104.152 66.0867C104.279 65.7806 104.63 65.6354 104.936 65.7623C105.242 65.8893 105.388 66.2403 105.261 66.5464L104.152 66.0867ZM106.019 65.7881C105.713 65.9151 105.362 65.7698 105.235 65.4637C105.108 65.1576 105.253 64.8066 105.559 64.6797L106.019 65.7881ZM108.061 64.4821C108.392 64.4821 108.661 64.7508 108.661 65.0821C108.661 65.4135 108.392 65.6821 108.061 65.6821V64.4821ZM111.073 65.6821C110.742 65.6821 110.473 65.4135 110.473 65.0821C110.473 64.7508 110.742 64.4821 111.073 64.4821V65.6821ZM114.086 64.4821C114.417 64.4821 114.686 64.7508 114.686 65.0821C114.686 65.4135 114.417 65.6821 114.086 65.6821V64.4821ZM117.098 65.6821C116.767 65.6821 116.498 65.4135 116.498 65.0821C116.498 64.7508 116.767 64.4821 117.098 64.4821V65.6821ZM120.111 64.4821C120.442 64.4821 120.711 64.7508 120.711 65.0821C120.711 65.4135 120.442 65.6821 120.111 65.6821V64.4821ZM123.123 65.6821C122.792 65.6821 122.523 65.4135 122.523 65.0821C122.523 64.7508 122.792 64.4821 123.123 64.4821V65.6821ZM126.135 64.4821C126.467 64.4821 126.735 64.7508 126.735 65.0821C126.735 65.4135 126.467 65.6821 126.135 65.6821V64.4821ZM129.148 65.6821C128.816 65.6821 128.548 65.4135 128.548 65.0821C128.548 64.7508 128.816 64.4821 129.148 64.4821V65.6821ZM132.16 64.4821C132.492 64.4821 132.76 64.7508 132.76 65.0821C132.76 65.4135 132.492 65.6821 132.16 65.6821V64.4821ZM135.173 65.6821C134.841 65.6821 134.573 65.4135 134.573 65.0821C134.573 64.7508 134.841 64.4821 135.173 64.4821V65.6821ZM138.185 64.4821C138.516 64.4821 138.785 64.7508 138.785 65.0821C138.785 65.4135 138.516 65.6821 138.185 65.6821V64.4821ZM141.197 65.6821C140.866 65.6821 140.597 65.4135 140.597 65.0821C140.597 64.7508 140.866 64.4821 141.197 64.4821V65.6821ZM144.21 64.4821C144.541 64.4821 144.81 64.7508 144.81 65.0821C144.81 65.4135 144.541 65.6821 144.21 65.6821V64.4821ZM147.222 65.6821C146.891 65.6821 146.622 65.4135 146.622 65.0821C146.622 64.7508 146.891 64.4821 147.222 64.4821V65.6821ZM149.724 64.6797C150.03 64.8066 150.175 65.1576 150.048 65.4637C149.921 65.7698 149.57 65.9151 149.264 65.7881L149.724 64.6797ZM150.022 66.5464C149.896 66.2403 150.041 65.8893 150.347 65.7623C150.653 65.6354 151.004 65.7806 151.131 66.0867L150.022 66.5464ZM151.328 68.754C151.328 69.0854 151.06 69.354 150.728 69.354C150.397 69.354 150.128 69.0854 150.128 68.754H151.328ZM150.128 72.0977C150.128 71.7664 150.397 71.4977 150.728 71.4977C151.06 71.4977 151.328 71.7664 151.328 72.0977H150.128ZM151.328 75.4415C151.328 75.7728 151.06 76.0415 150.728 76.0415C150.397 76.0415 150.128 75.7728 150.128 75.4415H151.328ZM150.128 78.7852C150.128 78.4538 150.397 78.1852 150.728 78.1852C151.06 78.1852 151.328 78.4538 151.328 78.7852H150.128ZM151.328 82.1289C151.328 82.4603 151.06 82.7289 150.728 82.7289C150.397 82.7289 150.128 82.4603 150.128 82.1289H151.328ZM150.128 85.4727C150.128 85.1413 150.397 84.8727 150.728 84.8727C151.06 84.8727 151.328 85.1413 151.328 85.4727H150.128ZM151.434 87.6803C151.561 87.9864 151.416 88.3374 151.11 88.4643C150.804 88.5913 150.453 88.446 150.326 88.1399L151.434 87.6803ZM151.733 89.547C151.427 89.4201 151.282 89.069 151.409 88.7629C151.536 88.4568 151.887 88.3116 152.193 88.4385L151.733 89.547ZM154.261 88.5445C154.592 88.5445 154.861 88.8132 154.861 89.1445C154.861 89.4759 154.592 89.7445 154.261 89.7445V88.5445ZM157.325 89.7445C156.994 89.7445 156.725 89.4759 156.725 89.1445C156.725 88.8132 156.994 88.5445 157.325 88.5445V89.7445ZM160.39 88.5445C160.721 88.5445 160.99 88.8132 160.99 89.1445C160.99 89.4759 160.721 89.7445 160.39 89.7445V88.5445ZM163.455 89.7445C163.123 89.7445 162.855 89.4759 162.855 89.1445C162.855 88.8132 163.123 88.5445 163.455 88.5445V89.7445ZM165.523 88.4385C165.829 88.3116 166.18 88.4568 166.307 88.7629C166.434 89.069 166.288 89.4201 165.982 89.547L165.523 88.4385ZM167.389 88.1399C167.262 88.446 166.911 88.5913 166.605 88.4643C166.299 88.3374 166.154 87.9864 166.281 87.6803L167.389 88.1399ZM166.387 85.4727C166.387 85.1413 166.655 84.8727 166.987 84.8727C167.318 84.8727 167.587 85.1413 167.587 85.4727H166.387ZM167.587 82.1289C167.587 82.4603 167.318 82.7289 166.987 82.7289C166.655 82.7289 166.387 82.4603 166.387 82.1289H167.587ZM166.387 78.7852C166.387 78.4538 166.655 78.1852 166.987 78.1852C167.318 78.1852 167.587 78.4538 167.587 78.7852H166.387ZM167.587 75.4415C167.587 75.7728 167.318 76.0415 166.987 76.0415C166.655 76.0415 166.387 75.7728 166.387 75.4415H167.587ZM166.387 72.0977C166.387 71.7664 166.655 71.4977 166.987 71.4977C167.318 71.4977 167.587 71.7664 167.587 72.0977H166.387ZM167.587 68.754C167.587 69.0854 167.318 69.354 166.987 69.354C166.655 69.354 166.387 69.0854 166.387 68.754H167.587ZM166.584 66.0867C166.711 65.7806 167.062 65.6354 167.368 65.7623C167.674 65.8893 167.82 66.2403 167.693 66.5464L166.584 66.0867ZM168.451 65.7881C168.145 65.9151 167.794 65.7698 167.667 65.4637C167.54 65.1576 167.685 64.8066 167.991 64.6797L168.451 65.7881ZM170.447 64.4821C170.778 64.4821 171.047 64.7508 171.047 65.0821C171.047 65.4135 170.778 65.6821 170.447 65.6821V64.4821ZM173.367 65.6821C173.036 65.6821 172.767 65.4135 172.767 65.0821C172.767 64.7508 173.036 64.4821 173.367 64.4821V65.6821ZM176.288 64.4821C176.619 64.4821 176.888 64.7508 176.888 65.0821C176.888 65.4135 176.619 65.6821 176.288 65.6821V64.4821ZM179.208 65.6821C178.877 65.6821 178.608 65.4135 178.608 65.0821C178.608 64.7508 178.877 64.4821 179.208 64.4821V65.6821ZM182.129 64.4821C182.46 64.4821 182.729 64.7508 182.729 65.0821C182.729 65.4135 182.46 65.6821 182.129 65.6821V64.4821ZM185.049 65.6821C184.718 65.6821 184.449 65.4135 184.449 65.0821C184.449 64.7508 184.718 64.4821 185.049 64.4821V65.6821ZM187.969 64.4821C188.301 64.4821 188.569 64.7508 188.569 65.0821C188.569 65.4135 188.301 65.6821 187.969 65.6821V64.4821ZM190.89 65.6821C190.558 65.6821 190.29 65.4135 190.29 65.0821C190.29 64.7508 190.558 64.4821 190.89 64.4821V65.6821ZM193.81 64.4821C194.141 64.4821 194.41 64.7508 194.41 65.0821C194.41 65.4135 194.141 65.6821 193.81 65.6821V64.4821ZM196.73 65.6821C196.399 65.6821 196.13 65.4135 196.13 65.0821C196.13 64.7508 196.399 64.4821 196.73 64.4821V65.6821ZM199.651 64.4821C199.982 64.4821 200.251 64.7508 200.251 65.0821C200.251 65.4135 199.982 65.6821 199.651 65.6821V64.4821ZM202.571 65.6821C202.24 65.6821 201.971 65.4135 201.971 65.0821C201.971 64.7508 202.24 64.4821 202.571 64.4821V65.6821ZM205.492 64.4821C205.823 64.4821 206.092 64.7508 206.092 65.0821C206.092 65.4135 205.823 65.6821 205.492 65.6821V64.4821ZM208.412 65.6821C208.081 65.6821 207.812 65.4135 207.812 65.0821C207.812 64.7508 208.081 64.4821 208.412 64.4821V65.6821ZM211.332 64.4821C211.664 64.4821 211.932 64.7508 211.932 65.0821C211.932 65.4135 211.664 65.6821 211.332 65.6821V64.4821ZM214.253 65.6821C213.921 65.6821 213.653 65.4135 213.653 65.0821C213.653 64.7508 213.921 64.4821 214.253 64.4821V65.6821ZM216.708 64.6797C217.014 64.8066 217.16 65.1576 217.033 65.4637C216.906 65.7698 216.555 65.9151 216.249 65.7881L216.708 64.6797ZM217.007 66.5464C216.88 66.2403 217.025 65.8893 217.331 65.7623C217.637 65.6354 217.988 65.7806 218.115 66.0867L217.007 66.5464ZM218.313 68.754C218.313 69.0854 218.044 69.354 217.713 69.354C217.382 69.354 217.113 69.0854 217.113 68.754H218.313ZM217.113 72.0977C217.113 71.7664 217.382 71.4977 217.713 71.4977C218.044 71.4977 218.313 71.7664 218.313 72.0977H217.113ZM218.313 75.4415C218.313 75.7728 218.044 76.0415 217.713 76.0415C217.382 76.0415 217.113 75.7728 217.113 75.4415H218.313ZM217.113 78.7852C217.113 78.4538 217.382 78.1852 217.713 78.1852C218.044 78.1852 218.313 78.4538 218.313 78.7852H217.113ZM218.313 82.1289C218.313 82.4603 218.044 82.7289 217.713 82.7289C217.382 82.7289 217.113 82.4603 217.113 82.1289H218.313ZM217.113 85.4727C217.113 85.1413 217.382 84.8727 217.713 84.8727C218.044 84.8727 218.313 85.1413 218.313 85.4727H217.113ZM218.419 87.6803C218.546 87.9864 218.401 88.3374 218.094 88.4643C217.788 88.5913 217.437 88.446 217.31 88.1399L218.419 87.6803ZM218.717 89.547C218.411 89.4201 218.266 89.069 218.393 88.7629C218.52 88.4568 218.871 88.3116 219.177 88.4385L218.717 89.547ZM221.114 88.5445C221.445 88.5445 221.714 88.8132 221.714 89.1445C221.714 89.4759 221.445 89.7445 221.114 89.7445V88.5445ZM223.916 89.7445C223.584 89.7445 223.316 89.4759 223.316 89.1445C223.316 88.8132 223.584 88.5445 223.916 88.5445V89.7445ZM226.717 88.5445C227.049 88.5445 227.317 88.8132 227.317 89.1445C227.317 89.4759 227.049 89.7445 226.717 89.7445V88.5445ZM229.519 89.7445C229.188 89.7445 228.919 89.4759 228.919 89.1445C228.919 88.8132 229.188 88.5445 229.519 88.5445V89.7445ZM232.321 88.5445C232.652 88.5445 232.921 88.8132 232.921 89.1445C232.921 89.4759 232.652 89.7445 232.321 89.7445V88.5445ZM235.123 89.7445C234.791 89.7445 234.523 89.4759 234.523 89.1445C234.523 88.8132 234.791 88.5445 235.123 88.5445V89.7445ZM237.059 88.4385C237.365 88.3116 237.717 88.4568 237.843 88.7629C237.97 89.069 237.825 89.4201 237.519 89.547L237.059 88.4385ZM238.926 88.1399C238.799 88.446 238.448 88.5913 238.142 88.4643C237.836 88.3374 237.691 87.9864 237.818 87.6803L238.926 88.1399ZM237.924 85.4686C237.924 85.1372 238.192 84.8686 238.524 84.8686C238.855 84.8686 239.124 85.1372 239.124 85.4686H237.924ZM239.124 82.1167C239.124 82.4481 238.855 82.7167 238.524 82.7167C238.192 82.7167 237.924 82.4481 237.924 82.1167H239.124ZM237.924 78.7648C237.924 78.4334 238.192 78.1648 238.524 78.1648C238.855 78.1648 239.124 78.4334 239.124 78.7648H237.924ZM239.124 75.4129C239.124 75.7443 238.855 76.0129 238.524 76.0129C238.192 76.0129 237.924 75.7443 237.924 75.4129H239.124ZM237.924 72.061C237.924 71.7296 238.192 71.461 238.524 71.461C238.855 71.461 239.124 71.7296 239.124 72.061H237.924ZM239.124 68.7091C239.124 69.0405 238.855 69.3091 238.524 69.3091C238.192 69.3091 237.924 69.0405 237.924 68.7091H239.124ZM238.117 66.0565C238.244 65.7504 238.595 65.6052 238.901 65.7321C239.208 65.859 239.353 66.2101 239.226 66.5162L238.117 66.0565ZM239.958 65.7844C239.652 65.9114 239.301 65.7661 239.174 65.46C239.047 65.1539 239.192 64.8029 239.498 64.676L239.958 65.7844ZM240.992 64.3799C241.298 64.2529 241.649 64.3982 241.776 64.7043C241.903 65.0104 241.757 65.3614 241.451 65.4883L240.992 64.3799ZM242.832 64.1078C242.705 64.4139 242.354 64.5591 242.048 64.4322C241.742 64.3053 241.596 63.9542 241.723 63.6481L242.832 64.1078ZM241.826 61.4552C241.826 61.1238 242.094 60.8552 242.426 60.8552C242.757 60.8552 243.026 61.1238 243.026 61.4552H241.826ZM243.026 58.1033C243.026 58.4347 242.757 58.7033 242.426 58.7033C242.094 58.7033 241.826 58.4347 241.826 58.1033H243.026ZM241.826 54.7514C241.826 54.42 242.094 54.1514 242.426 54.1514C242.757 54.1514 243.026 54.42 243.026 54.7514H241.826ZM243.026 51.3995C243.026 51.7309 242.757 51.9995 242.426 51.9995C242.094 51.9995 241.826 51.7309 241.826 51.3995H243.026ZM241.826 48.0476C241.826 47.7162 242.094 47.4476 242.426 47.4476C242.757 47.4476 243.026 47.7162 243.026 48.0476H241.826ZM243.026 44.6957C243.026 45.0271 242.757 45.2957 242.426 45.2957C242.094 45.2957 241.826 45.0271 241.826 44.6957H243.026ZM242.023 42.0244C242.15 41.7183 242.501 41.573 242.807 41.7C243.113 41.8269 243.259 42.1779 243.132 42.484L242.023 42.0244ZM243.89 41.7258C243.584 41.8527 243.233 41.7075 243.106 41.4014C242.979 41.0953 243.124 40.7442 243.43 40.6173L243.89 41.7258ZM245.776 40.4198C246.108 40.4198 246.376 40.6884 246.376 41.0198C246.376 41.3511 246.108 41.6198 245.776 41.6198V40.4198ZM248.478 41.6198C248.147 41.6198 247.878 41.3511 247.878 41.0198C247.878 40.6884 248.147 40.4198 248.478 40.4198V41.6198ZM251.18 40.4198C251.511 40.4198 251.78 40.6884 251.78 41.0198C251.78 41.3511 251.511 41.6198 251.18 41.6198V40.4198ZM253.881 41.6198C253.55 41.6198 253.281 41.3511 253.281 41.0198C253.281 40.6884 253.55 40.4198 253.881 40.4198V41.6198ZM256.583 40.4198C256.914 40.4198 257.183 40.6884 257.183 41.0198C257.183 41.3511 256.914 41.6198 256.583 41.6198V40.4198ZM259.284 41.6198C258.953 41.6198 258.684 41.3511 258.684 41.0198C258.684 40.6884 258.953 40.4198 259.284 40.4198V41.6198ZM36.2695 65.0821V64.4821H37.7134V65.0821V65.6821H36.2695V65.0821ZM40.601 65.0821V64.4821H43.4887V65.0821V65.6821H40.601V65.0821ZM46.3763 65.0821V64.4821H49.264V65.0821V65.6821H46.3763V65.0821ZM52.1516 65.0821V64.4821H55.0393V65.0821V65.6821H52.1516V65.0821ZM57.9269 65.0821V64.4821H60.8146V65.0821V65.6821H57.9269V65.0821ZM63.7023 65.0821V64.4821H66.5899V65.0821V65.6821H63.7023V65.0821ZM69.4776 65.0821V64.4821H72.3652V65.0821V65.6821H69.4776V65.0821ZM75.2529 65.0821V64.4821H78.1405V65.0821V65.6821H75.2529V65.0821ZM81.0282 65.0821V64.4821H83.9158V65.0821V65.6821H81.0282V65.0821ZM86.8035 65.0821V64.4821H88.2473V65.0821V65.6821H86.8035V65.0821ZM88.2473 65.0821V64.4821C88.5987 64.4821 88.9353 64.5522 89.2427 64.6797L89.0129 65.2339L88.7831 65.7881C88.6188 65.72 88.4382 65.6821 88.2473 65.6821V65.0821ZM90.0956 66.3166L90.6498 66.0867C90.7773 66.3941 90.8473 66.7307 90.8473 67.0821H90.2473H89.6473C89.6473 66.8912 89.6094 66.7106 89.5413 66.5464L90.0956 66.3166ZM90.2473 67.0821H90.8473V68.754H90.2473H89.6473V67.0821H90.2473ZM90.2473 72.0977H90.8473V75.4415H90.2473H89.6473V72.0977H90.2473ZM90.2473 78.7852H90.8473V82.1289H90.2473H89.6473V78.7852H90.2473ZM90.2473 85.4727H90.8473V87.1445H90.2473H89.6473V85.4727H90.2473ZM90.2473 87.1445H90.8473C90.8473 87.3355 90.8852 87.516 90.9533 87.6803L90.3991 87.9101L89.8448 88.1399C89.7174 87.8325 89.6473 87.496 89.6473 87.1445H90.2473ZM91.4817 88.9928L91.7116 88.4385C91.8758 88.5066 92.0564 88.5445 92.2473 88.5445V89.1445V89.7445C91.8959 89.7445 91.5593 89.6745 91.2519 89.547L91.4817 88.9928ZM92.2473 89.1445V88.5445H93.5357V89.1445V89.7445H92.2473V89.1445ZM96.1126 89.1445V88.5445H98.6894V89.1445V89.7445H96.1126V89.1445ZM101.266 89.1445V88.5445H102.555V89.1445V89.7445H101.266V89.1445ZM102.555 89.1445V88.5445C102.746 88.5445 102.926 88.5066 103.09 88.4385L103.32 88.9928L103.55 89.547C103.243 89.6745 102.906 89.7445 102.555 89.7445V89.1445ZM104.403 87.9101L103.849 87.6803C103.917 87.516 103.955 87.3355 103.955 87.1445H104.555H105.155C105.155 87.496 105.085 87.8325 104.957 88.1399L104.403 87.9101ZM104.555 87.1445H103.955V85.4727H104.555H105.155V87.1445H104.555ZM104.555 82.1289H103.955V78.7852H104.555H105.155V82.1289H104.555ZM104.555 75.4415H103.955V72.0977H104.555H105.155V75.4415H104.555ZM104.555 68.754H103.955V67.0821H104.555H105.155V68.754H104.555ZM104.555 67.0821H103.955C103.955 66.7307 104.025 66.3941 104.152 66.0867L104.706 66.3166L105.261 66.5464C105.193 66.7106 105.155 66.8912 105.155 67.0821H104.555ZM105.789 65.2339L105.559 64.6797C105.867 64.5522 106.203 64.4821 106.555 64.4821V65.0821V65.6821C106.364 65.6821 106.183 65.72 106.019 65.7881L105.789 65.2339ZM106.555 65.0821V64.4821H108.061V65.0821V65.6821H106.555V65.0821ZM111.073 65.0821V64.4821H114.086V65.0821V65.6821H111.073V65.0821ZM117.098 65.0821V64.4821H120.111V65.0821V65.6821H117.098V65.0821ZM123.123 65.0821V64.4821H126.135V65.0821V65.6821H123.123V65.0821ZM129.148 65.0821V64.4821H132.16V65.0821V65.6821H129.148V65.0821ZM135.173 65.0821V64.4821H138.185V65.0821V65.6821H135.173V65.0821ZM141.197 65.0821V64.4821H144.21V65.0821V65.6821H141.197V65.0821ZM147.222 65.0821V64.4821H148.728V65.0821V65.6821H147.222V65.0821ZM148.728 65.0821V64.4821C149.08 64.4821 149.416 64.5522 149.724 64.6797L149.494 65.2339L149.264 65.7881C149.1 65.72 148.919 65.6821 148.728 65.6821V65.0821ZM150.577 66.3166L151.131 66.0867C151.258 66.3941 151.328 66.7307 151.328 67.0821H150.728H150.128C150.128 66.8912 150.091 66.7106 150.022 66.5464L150.577 66.3166ZM150.728 67.0821H151.328V68.754H150.728H150.128V67.0821H150.728ZM150.728 72.0977H151.328V75.4415H150.728H150.128V72.0977H150.728ZM150.728 78.7852H151.328V82.1289H150.728H150.128V78.7852H150.728ZM150.728 85.4727H151.328V87.1445H150.728H150.128V85.4727H150.728ZM150.728 87.1445H151.328C151.328 87.3355 151.366 87.516 151.434 87.6803L150.88 87.9101L150.326 88.1399C150.198 87.8325 150.128 87.496 150.128 87.1445H150.728ZM151.963 88.9928L152.193 88.4385C152.357 88.5066 152.538 88.5445 152.728 88.5445V89.1445V89.7445C152.377 89.7445 152.04 89.6745 151.733 89.547L151.963 88.9928ZM152.728 89.1445V88.5445H154.261V89.1445V89.7445H152.728V89.1445ZM157.325 89.1445V88.5445H160.39V89.1445V89.7445H157.325V89.1445ZM163.455 89.1445V88.5445H164.987V89.1445V89.7445H163.455V89.1445ZM164.987 89.1445V88.5445C165.178 88.5445 165.358 88.5066 165.523 88.4385L165.752 88.9928L165.982 89.547C165.675 89.6745 165.338 89.7445 164.987 89.7445V89.1445ZM166.835 87.9101L166.281 87.6803C166.349 87.516 166.387 87.3355 166.387 87.1445H166.987H167.587C167.587 87.496 167.517 87.8325 167.389 88.1399L166.835 87.9101ZM166.987 87.1445H166.387V85.4727H166.987H167.587V87.1445H166.987ZM166.987 82.1289H166.387V78.7852H166.987H167.587V82.1289H166.987ZM166.987 75.4415H166.387V72.0977H166.987H167.587V75.4415H166.987ZM166.987 68.754H166.387V67.0821H166.987H167.587V68.754H166.987ZM166.987 67.0821H166.387C166.387 66.7307 166.457 66.3941 166.584 66.0867L167.139 66.3166L167.693 66.5464C167.625 66.7106 167.587 66.8912 167.587 67.0821H166.987ZM168.221 65.2339L167.991 64.6797C168.299 64.5522 168.635 64.4821 168.987 64.4821V65.0821V65.6821C168.796 65.6821 168.615 65.72 168.451 65.7881L168.221 65.2339ZM168.987 65.0821V64.4821H170.447V65.0821V65.6821H168.987V65.0821ZM173.367 65.0821V64.4821H176.288V65.0821V65.6821H173.367V65.0821ZM179.208 65.0821V64.4821H182.129V65.0821V65.6821H179.208V65.0821ZM185.049 65.0821V64.4821H187.969V65.0821V65.6821H185.049V65.0821ZM190.89 65.0821V64.4821H193.81V65.0821V65.6821H190.89V65.0821ZM196.73 65.0821V64.4821H199.651V65.0821V65.6821H196.73V65.0821ZM202.571 65.0821V64.4821H205.492V65.0821V65.6821H202.571V65.0821ZM208.412 65.0821V64.4821H211.332V65.0821V65.6821H208.412V65.0821ZM214.253 65.0821V64.4821H215.713V65.0821V65.6821H214.253V65.0821ZM215.713 65.0821V64.4821C216.064 64.4821 216.401 64.5522 216.708 64.6797L216.478 65.2339L216.249 65.7881C216.084 65.72 215.904 65.6821 215.713 65.6821V65.0821ZM217.561 66.3166L218.115 66.0867C218.243 66.3941 218.313 66.7307 218.313 67.0821H217.713H217.113C217.113 66.8912 217.075 66.7106 217.007 66.5464L217.561 66.3166ZM217.713 67.0821H218.313V68.754H217.713H217.113V67.0821H217.713ZM217.713 72.0977H218.313V75.4415H217.713H217.113V72.0977H217.713ZM217.713 78.7852H218.313V82.1289H217.713H217.113V78.7852H217.713ZM217.713 85.4727H218.313V87.1445H217.713H217.113V85.4727H217.713ZM217.713 87.1445H218.313C218.313 87.3355 218.351 87.516 218.419 87.6803L217.865 87.9101L217.31 88.1399C217.183 87.8325 217.113 87.496 217.113 87.1445H217.713ZM218.947 88.9928L219.177 88.4385C219.341 88.5066 219.522 88.5445 219.713 88.5445V89.1445V89.7445C219.361 89.7445 219.025 89.6745 218.717 89.547L218.947 88.9928ZM219.713 89.1445V88.5445H221.114V89.1445V89.7445H219.713V89.1445ZM223.916 89.1445V88.5445H226.717V89.1445V89.7445H223.916V89.1445ZM229.519 89.1445V88.5445H232.321V89.1445V89.7445H229.519V89.1445ZM235.123 89.1445V88.5445H236.524V89.1445V89.7445H235.123V89.1445ZM236.524 89.1445V88.5445C236.715 88.5445 236.895 88.5066 237.059 88.4385L237.289 88.9928L237.519 89.547C237.212 89.6745 236.875 89.7445 236.524 89.7445V89.1445ZM238.372 87.9101L237.818 87.6803C237.886 87.516 237.924 87.3355 237.924 87.1445H238.524H239.124C239.124 87.496 239.054 87.8325 238.926 88.1399L238.372 87.9101ZM238.524 87.1445H237.924V85.4686H238.524H239.124V87.1445H238.524ZM238.524 82.1167H237.924V78.7648H238.524H239.124V82.1167H238.524ZM238.524 75.4129H237.924V72.061H238.524H239.124V75.4129H238.524ZM238.524 68.7091H237.924V67.0332H238.524H239.124V68.7091H238.524ZM238.524 67.0332H237.924C237.924 66.6884 237.992 66.3581 238.117 66.0565L238.672 66.2863L239.226 66.5162C239.16 66.6746 239.124 66.8489 239.124 67.0332H238.524ZM239.728 65.2302L239.498 64.676C239.8 64.5509 240.13 64.4821 240.475 64.4821V65.0821V65.6821C240.29 65.6821 240.116 65.7187 239.958 65.7844L239.728 65.2302ZM240.475 65.0821V64.4821C240.659 64.4821 240.833 64.4456 240.992 64.3799L241.221 64.9341L241.451 65.4883C241.15 65.6134 240.819 65.6821 240.475 65.6821V65.0821ZM242.278 63.878L241.723 63.6481C241.789 63.4897 241.826 63.3154 241.826 63.1311H242.426H243.026C243.026 63.4759 242.957 63.8062 242.832 64.1078L242.278 63.878ZM242.426 63.1311H241.826V61.4552H242.426H243.026V63.1311H242.426ZM242.426 58.1033H241.826V54.7514H242.426H243.026V58.1033H242.426ZM242.426 51.3995H241.826V48.0476H242.426H243.026V51.3995H242.426ZM242.426 44.6957H241.826V43.0198H242.426H243.026V44.6957H242.426ZM242.426 43.0198H241.826C241.826 42.6683 241.896 42.3317 242.023 42.0244L242.577 42.2542L243.132 42.484C243.064 42.6483 243.026 42.8288 243.026 43.0198H242.426ZM243.66 41.1715L243.43 40.6173C243.738 40.4898 244.074 40.4198 244.426 40.4198V41.0198V41.6198C244.235 41.6198 244.054 41.6576 243.89 41.7258L243.66 41.1715ZM244.426 41.0198V40.4198H245.776V41.0198V41.6198H244.426V41.0198ZM248.478 41.0198V40.4198H251.18V41.0198V41.6198H248.478V41.0198ZM253.881 41.0198V40.4198H256.583V41.0198V41.6198H253.881V41.0198ZM259.284 41.0198V40.4198H260.635V41.0198V41.6198H259.284V41.0198Z" fill="#FF5C5C"/>
</svg>
