<svg width="44" height="44" viewBox="0 0 44 44" fill="none" xmlns="http://www.w3.org/2000/svg">
<circle cx="21.75" cy="21.75" r="21.75" fill="white"/>
<path d="M22.4754 35.4049C23.9518 35.4049 25.1466 34.2005 25.1701 32.7093V32.6679C25.1701 32.6266 25.1637 32.5897 25.1573 32.5484C25.0079 30.7767 23.2136 29.7658 22.5842 28.1376C22.5458 28.0397 22.4114 28.0397 22.3751 28.1397C21.7756 29.8049 19.9706 30.7723 19.7999 32.5223V32.5462C19.7935 32.6006 19.7871 32.6549 19.7871 32.7071V32.731C19.8234 34.2114 21.016 35.4027 22.4754 35.4027V35.4049Z" stroke="#373737" stroke-linejoin="round"/>
<path d="M10 26.1055H21.6853H33" stroke="#373737" stroke-miterlimit="10" stroke-linecap="round" stroke-linejoin="bevel"/>
<path d="M27.4204 30.8573C28.1465 30.7663 28.6614 30.104 28.5704 29.3779C28.4795 28.6518 27.8171 28.1369 27.0911 28.2279C26.365 28.3188 25.8501 28.9812 25.9411 29.7073C26.032 30.4333 26.6943 30.9482 27.4204 30.8573Z" stroke="#373737" stroke-linecap="round" stroke-linejoin="round"/>
<path d="M11.6441 30.8573C12.3701 30.7663 12.885 30.104 12.7941 29.3779C12.7031 28.6518 12.0408 28.1369 11.3147 28.2279C10.5886 28.3188 10.0737 28.9812 10.1647 29.7073C10.2556 30.4333 10.918 30.9482 11.6441 30.8573Z" stroke="#373737" stroke-linecap="round" stroke-linejoin="round"/>
<path d="M17.118 32.2469C17.7833 31.7031 17.8818 30.723 17.338 30.0578C16.7943 29.3925 15.8142 29.294 15.1489 29.8377C14.4837 30.3815 14.3851 31.3616 14.9289 32.0268C15.4726 32.6921 16.4527 32.7906 17.118 32.2469Z" stroke="#373737" stroke-linecap="round" stroke-linejoin="round"/>
<path d="M13.9285 8.49023C13.9285 8.49023 12.5264 10.4477 12.5264 12.4051C12.5264 16.1935 15.2179 18.2775 15.4625 19.9902C15.6452 21.2689 15.4625 22.1924 15.4625 22.1924" stroke="#373737" stroke-linecap="round"/>
<path d="M13.9951 8L14.9738 11.9149" stroke="#373737" stroke-linecap="round"/>
<path d="M13.9951 8L10.4898 10.003" stroke="#373737" stroke-linecap="round"/>
<path d="M21.8377 8.49023C21.8377 8.49023 20.4355 10.4477 20.4355 12.4051C20.4355 16.1935 23.127 18.2775 23.3717 19.9902C23.5544 21.2689 23.3717 22.1924 23.3717 22.1924" stroke="#373737" stroke-linecap="round"/>
<path d="M21.9043 8L22.883 11.9149" stroke="#373737" stroke-linecap="round"/>
<path d="M21.9043 8L18.399 10.003" stroke="#373737" stroke-linecap="round"/>
<path d="M29.7469 8.49023C29.7469 8.49023 28.3447 10.4477 28.3447 12.4051C28.3447 16.1935 31.0362 18.2775 31.2809 19.9902C31.4636 21.2689 31.2809 22.1924 31.2809 22.1924" stroke="#373737" stroke-linecap="round"/>
<path d="M29.8125 8L30.7912 11.9149" stroke="#373737" stroke-linecap="round"/>
<path d="M29.8125 8L26.3072 10.003" stroke="#373737" stroke-linecap="round"/>
</svg>
