<svg width="25" height="27" viewBox="0 0 25 27" fill="none" xmlns="http://www.w3.org/2000/svg">
<path d="M19.9973 11.1188C19.9886 10.8913 19.8068 10.7113 19.589 10.7157C19.4468 10.7176 16.086 10.7905 14.0333 13.0458C13.5387 13.5894 13.17 14.2053 12.8947 14.829V8.70039C13.3193 8.22566 14.6854 6.53736 14.6854 4.47541C14.6854 2.08581 12.8508 0.198168 12.7727 0.118995C12.6161 -0.0396649 12.3664 -0.0396649 12.2099 0.118995C12.1317 0.198168 10.2972 2.08581 10.2972 4.47541C10.2972 6.53736 11.6633 8.22566 12.0879 8.70039V12.0848C11.8147 11.4746 11.4508 10.8728 10.9664 10.3408C8.91429 8.08515 5.5532 8.01255 5.41106 8.01036C5.40926 8.01036 5.40745 8.01036 5.40565 8.01036C5.18959 8.01036 5.0114 8.18811 5.00268 8.41342C4.99697 8.56113 4.88639 12.0601 6.9391 14.3158C8.59726 16.138 11.1094 16.5354 12.0882 16.6221V20.312C11.9878 20.1589 11.8748 20.0106 11.7471 19.8707C10.5496 18.5551 8.59997 18.5126 8.51763 18.5116C8.29977 18.5085 8.11796 18.6872 8.10925 18.9147C8.10594 19.0004 8.04194 21.0302 9.23943 22.3457C10.1331 23.3277 11.4454 23.6003 12.0882 23.676V26.3658C12.0882 26.5976 12.2688 26.7857 12.4914 26.7857C12.7141 26.7857 12.8947 26.5976 12.8947 26.3658V19.329C13.8614 19.2455 16.3931 18.854 18.0609 17.0211C20.1133 14.7658 20.003 11.2668 19.9973 11.1188ZM9.8248 21.7677C9.1631 21.0408 8.9813 19.9846 8.93232 19.3929C9.49756 19.4755 10.5 19.7214 11.1617 20.4484C11.8234 21.1754 12.0052 22.2315 12.0542 22.8233C11.489 22.7407 10.4865 22.4947 9.8248 21.7677ZM12.4914 1.04592C12.9674 1.63737 13.8788 2.96736 13.8788 4.47509C13.8788 5.98283 12.9668 7.31376 12.4908 7.9049C12.0148 7.31532 11.104 5.98909 11.104 4.47509C11.104 2.9611 12.0157 1.63737 12.4914 1.04592ZM7.52448 13.7378C6.10401 12.1768 5.8552 9.83823 5.81463 8.88001C6.73146 8.97358 8.96057 9.35756 10.381 10.9185C11.7744 12.4497 12.0401 14.7279 12.0879 15.719V15.7769C11.1704 15.6842 8.94795 15.3021 7.52418 13.7381L7.52448 13.7378ZM17.4755 16.4431C16.0551 18.004 13.8263 18.388 12.9091 18.4816C12.9497 17.5231 13.1985 15.1845 14.6187 13.6238C16.0391 12.0629 18.2683 11.6786 19.1851 11.5854C19.1445 12.5439 18.896 14.8822 17.4755 16.4431Z" fill="white"/>
</svg>
